<svg width="262" height="180" viewBox="0 0 262 180" fill="none" xmlns="http://www.w3.org/2000/svg">
<path d="M42.157 172.453C50.4868 165.634 51.5642 154.174 50.3845 144.051C50.1859 142.36 50.228 140.56 49.2891 139.14C48.3502 137.719 46.3641 136.859 44.8835 137.701C43.6797 138.399 43.2223 139.91 42.6084 141.18C41.7831 142.886 40.4941 144.325 38.8889 145.333C37.8417 145.983 36.5176 146.434 35.3861 145.935C33.8393 145.249 33.5022 143.244 33.3758 141.559C33.1351 138.418 32.8984 135.274 32.6656 132.128C32.626 130.434 32.313 128.757 31.7388 127.163C31.0767 125.61 29.7827 124.22 28.1276 123.907C26.4725 123.594 24.5164 124.677 24.3238 126.356C24.3161 127.06 24.3563 127.764 24.4442 128.463C24.4784 128.812 24.4101 129.164 24.2476 129.475C24.0851 129.786 23.8355 130.043 23.5293 130.214C22.8673 130.467 22.145 130.046 21.5913 129.612C19.6894 128.059 18.3112 125.965 17.0172 123.876C15.7232 121.788 14.4532 119.663 12.7018 117.918C10.9504 116.173 8.61514 114.909 6.15953 114.969C3.70393 115.029 1.21823 116.744 0.79692 119.182C0.375615 121.619 1.97056 123.907 3.65578 125.7C6.16572 128.35 9.04408 130.624 12.2023 132.453C12.8075 132.723 13.3113 133.178 13.6407 133.753C14.1041 134.848 13.1171 136.052 12.0277 136.516C10.7879 137.039 9.39154 137.021 8.07346 137.286C6.75538 137.551 5.35905 138.249 4.9558 139.531C4.40209 141.337 6.00907 142.998 7.5378 144.063C10.6186 146.196 14.0399 147.79 17.6551 148.776C18.9491 149.125 20.3033 149.414 21.3867 150.202C22.4701 150.99 23.1923 152.453 22.6927 153.693C22.1932 154.933 20.6404 155.438 19.3042 155.306C17.9681 155.173 16.7343 154.566 15.4403 154.204C13.0328 153.524 10.0235 153.934 8.66329 156.058C8.26107 156.783 8.03463 157.591 8.00222 158.419C7.96982 159.247 8.13234 160.071 8.47671 160.825C9.17729 162.324 10.172 163.666 11.4018 164.773C15.4984 168.887 20.6107 171.844 26.2197 173.344C31.817 174.758 36.9028 174.848 42.157 172.453Z" fill="#EBEBEB"/>
<path d="M42.8853 179.969C42.0201 175.301 40.7039 170.727 38.9551 166.313C36.7942 160.921 34.3203 155.66 31.5461 150.556L29.3734 146.536C28.6632 145.212 27.959 143.9 27.1887 142.66C25.7123 140.283 24.1048 137.991 22.3737 135.793C20.7306 133.68 19.0876 131.73 17.5588 129.924C16.0301 128.119 14.5495 126.464 13.1231 125.007C10.9035 122.704 8.50675 120.579 5.95488 118.651C5.05208 117.965 4.32984 117.448 3.84233 117.123L3.2826 116.738C3.21868 116.694 3.15237 116.654 3.08398 116.617C3.08398 116.617 3.14417 116.671 3.26454 116.762L3.81224 117.165C4.29373 117.514 5.01597 118.032 5.89469 118.73C8.41739 120.683 10.7894 122.824 12.9907 125.134C14.393 126.59 15.8616 128.251 17.4023 130.063C18.9431 131.874 20.5681 133.824 22.2173 135.937C23.9477 138.131 25.5552 140.42 27.0322 142.792C27.7965 144.026 28.4947 145.332 29.2049 146.656L31.3596 150.683C34.1106 155.779 36.5741 161.026 38.7384 166.397C40.4893 170.796 41.8193 175.35 42.7107 180" fill="#E0E0E0"/>
<path d="M27.1393 142.63C27.1958 142.389 27.228 142.143 27.2356 141.896C27.2838 141.427 27.3319 140.734 27.3801 139.886C27.4824 138.189 27.5426 135.841 27.6027 133.265C27.6629 130.689 27.7592 128.33 27.8977 126.645C27.9578 125.796 28.024 125.116 28.0722 124.641C28.1073 124.397 28.1234 124.152 28.1203 123.906C28.0459 124.141 27.9955 124.383 27.9699 124.628C27.8916 125.098 27.8014 125.784 27.7171 126.627C27.5305 128.324 27.4041 130.671 27.3439 133.247C27.2838 135.823 27.2416 138.14 27.2055 139.868C27.1754 140.68 27.1574 141.36 27.1393 141.878C27.115 142.128 27.115 142.38 27.1393 142.63Z" fill="#E0E0E0"/>
<path d="M4.85352 140.391H5.08222H5.73826C6.30401 140.391 7.12254 140.391 8.14571 140.421C10.174 140.463 12.9606 140.619 16.0602 140.938C19.1598 141.257 21.9164 141.667 23.9146 142.022C24.9137 142.196 25.7202 142.353 26.2799 142.461L26.9179 142.587C27.0683 142.587 27.1466 142.623 27.1466 142.587C27.0788 142.551 27.0056 142.527 26.9299 142.515L26.2979 142.341C25.7502 142.202 24.9437 142.016 23.9447 141.823C21.9525 141.42 19.1719 140.98 16.0843 140.655C12.9967 140.33 10.186 140.21 8.14571 140.216C7.12856 140.216 6.34012 140.216 5.73826 140.27L5.08824 140.312C5.00637 140.326 4.92715 140.352 4.85352 140.391Z" fill="#E0E0E0"/>
<path d="M38.6777 165.928C38.7251 165.837 38.7653 165.742 38.7981 165.645C38.8824 165.434 38.9787 165.164 39.1051 164.833C39.3699 164.122 39.7069 163.081 40.1523 161.823C41.0009 159.253 42.0662 155.666 43.1977 151.688C44.3292 147.709 45.3584 144.122 46.1649 141.54C46.5682 140.276 46.8932 139.241 47.1339 138.483C47.2423 138.146 47.3265 137.881 47.3927 137.652C47.4297 137.557 47.4559 137.458 47.471 137.357C47.4173 137.444 47.3748 137.537 47.3446 137.634C47.2663 137.851 47.164 138.122 47.0376 138.453C46.7728 139.163 46.4358 140.198 45.9964 141.462C45.1418 144.032 44.0765 147.619 42.951 151.598C41.8255 155.576 40.8083 159.175 39.9778 161.745C39.5805 163.009 39.2495 164.044 39.0148 164.796C38.9064 165.139 38.8222 165.398 38.75 165.633C38.7163 165.729 38.6921 165.827 38.6777 165.928Z" fill="#E0E0E0"/>
<path d="M8.74219 159.049C8.8354 159.094 8.93482 159.124 9.0371 159.139L9.9098 159.344L13.1238 160.078C15.8321 160.68 19.5637 161.601 23.6865 162.612C27.8092 163.623 31.5468 164.502 34.2673 165.08C35.6275 165.368 36.7289 165.591 37.4932 165.73L38.372 165.886C38.4748 165.91 38.5796 165.924 38.6849 165.928C38.5893 165.884 38.488 165.854 38.384 165.838L37.5113 165.633L34.3034 164.899C31.595 164.297 27.8634 163.376 23.7467 162.365C19.6299 161.354 15.8863 160.475 13.1659 159.897C11.8057 159.609 10.7043 159.386 9.9399 159.247L9.05516 159.085C8.952 159.064 8.84732 159.052 8.74219 159.049Z" fill="#E0E0E0"/>
<path d="M121.224 0.472285L77.709 13.5605L86.531 42.8914L130.046 29.8032L121.224 0.472285Z" fill="white"/>
<path d="M130.052 29.7741C130.052 29.7741 129.986 29.5875 129.878 29.2384C129.769 28.8893 129.607 28.3597 129.396 27.6856C128.981 26.3254 128.367 24.3332 127.591 21.7934C126.038 16.6956 123.817 9.38292 121.108 0.481342L121.265 0.565603L77.7622 13.7043L77.8706 13.5057L86.6819 42.8406L86.5013 42.7443L117.846 33.3853L126.82 30.731L129.228 30.0269L129.83 29.8463L130.046 29.7921L129.854 29.8583L129.252 30.0509L126.892 30.7732L117.973 33.4996L86.5795 43.0151L86.4411 43.0572L86.399 42.9188C83.7087 33.9811 80.7114 24.0443 77.5636 13.5899L77.5215 13.4395L77.6659 13.3973L121.187 0.336892L121.307 0.300781L121.343 0.421157C124.009 9.37088 126.194 16.7196 127.723 21.8415C128.469 24.3814 129.059 26.3675 129.456 27.7338C129.655 28.3958 129.799 28.9074 129.908 29.2685C130.016 29.6296 130.052 29.7741 130.052 29.7741Z" fill="#E0E0E0"/>
<path d="M121.23 0.464434C121.214 0.510331 121.194 0.554653 121.169 0.596841L120.965 0.969998C120.766 1.31306 120.495 1.78853 120.158 2.3904L117.119 7.60856L106.923 24.9001L106.851 25.0145L106.731 24.9663L105.401 24.4547L85.7979 16.805L79.8695 14.4578L78.2686 13.8018L77.8533 13.6272C77.8036 13.6106 77.7569 13.5863 77.7148 13.555C77.7672 13.5595 77.8182 13.5738 77.8653 13.5971L78.2866 13.7416L79.9177 14.3434L85.8761 16.6004L105.509 24.1598L106.845 24.6774L106.652 24.7436C110.685 17.9727 114.308 11.9059 116.932 7.49421L120.056 2.33021C120.417 1.72835 120.706 1.27695 120.911 0.933888L121.145 0.578786C121.194 0.500543 121.224 0.458416 121.23 0.464434Z" fill="#E0E0E0"/>
<path d="M247.85 117.647C247.85 117.647 245.027 114.854 239.526 121.83C236.642 125.361 233.994 129.079 231.599 132.958C231.599 132.958 230.227 134.379 229.324 133.091C228.422 131.803 227.489 128.48 225.478 128.649C223.468 128.817 222.313 130.888 222.042 134.192C221.771 137.496 220.922 144.725 220.838 145.375C220.754 146.025 220.236 146.873 219.46 146.097C218.683 145.321 214.777 138.712 211.738 140.746C208.698 142.781 209.469 152.134 209.535 153.151C209.601 154.168 209.324 154.553 208.819 154.698C208.313 154.842 207.2 152.495 206.002 150.659C204.804 148.823 203.101 146.891 201.452 148.222C199.803 149.552 198.051 156.094 202.216 168.113L204.509 173.53L210.378 174.367C223.059 175.384 228.957 172.055 229.83 170.123C230.703 168.191 228.416 167.024 226.333 166.326C224.251 165.628 221.699 165.122 221.717 164.61C221.735 164.099 222.03 163.726 223.035 163.533C224.04 163.34 233.267 161.727 234.47 158.291C235.674 154.854 228.301 152.699 227.356 152.158C226.411 151.616 227.11 150.876 227.711 150.641C228.313 150.406 235.102 147.764 238.238 146.681C241.374 145.597 243.101 144.021 242.746 141.962C242.391 139.904 238.954 139.91 237.48 139.35C236.005 138.79 237.04 137.117 237.04 137.117C240.211 133.835 243.16 130.347 245.87 126.675C251.244 119.597 247.741 117.533 247.741 117.533" fill="#EBEBEB"/>
<path d="M242.891 123.858C242.864 123.911 242.832 123.962 242.795 124.008L242.488 124.442C242.199 124.827 241.796 125.375 241.284 126.073C240.231 127.487 238.696 129.521 236.782 132.025C232.96 137.033 227.616 143.906 221.681 151.465L206.502 170.851L201.922 176.744L200.67 178.339L200.339 178.748C200.261 178.838 200.225 178.886 200.219 178.88C200.246 178.827 200.278 178.777 200.315 178.73L200.622 178.303L201.826 176.665C202.873 175.251 204.414 173.217 206.322 170.713C210.144 165.706 215.494 158.832 221.434 151.273C227.375 143.713 232.713 136.864 236.607 131.887C238.527 129.413 240.092 127.409 241.188 126.001C241.717 125.32 242.139 124.797 242.434 124.4L242.771 123.99C242.843 123.9 242.885 123.852 242.891 123.858Z" fill="#E0E0E0"/>
<path d="M226.598 133.349C226.729 133.865 226.804 134.393 226.821 134.926C226.911 135.901 226.989 137.255 227.043 138.753C227.097 140.252 227.122 141.492 227.152 142.581C227.196 143.11 227.196 143.641 227.152 144.17C227.021 143.654 226.949 143.125 226.935 142.593C226.857 141.612 226.791 140.258 226.736 138.765C226.682 137.273 226.646 136.027 226.604 134.938C226.556 134.409 226.554 133.877 226.598 133.349Z" fill="#E0E0E0"/>
<path d="M227.656 144.382C229.716 144.049 231.791 143.822 233.874 143.702C237.31 143.419 240.109 143.256 240.115 143.341C238.055 143.67 235.98 143.895 233.898 144.015C230.461 144.304 227.668 144.466 227.656 144.382Z" fill="#E0E0E0"/>
<path d="M217.672 155.985C218.212 156.027 218.747 156.114 219.273 156.244C220.26 156.431 221.614 156.69 223.119 156.93C224.623 157.171 225.99 157.352 226.983 157.478C227.524 157.521 228.062 157.608 228.59 157.737C228.048 157.783 227.503 157.771 226.965 157.701C225.96 157.628 224.557 157.484 223.071 157.237C221.584 156.99 220.2 156.702 219.225 156.461C218.692 156.358 218.171 156.199 217.672 155.985Z" fill="#E0E0E0"/>
<path d="M214.518 146.224C214.767 146.66 214.969 147.122 215.119 147.602C215.438 148.475 215.866 149.678 216.323 151.014C216.781 152.351 217.166 153.566 217.437 154.457C217.606 154.928 217.731 155.414 217.81 155.908C217.556 155.471 217.354 155.007 217.208 154.523C216.883 153.657 216.462 152.453 216.004 151.117C215.547 149.781 215.162 148.559 214.891 147.674C214.714 147.206 214.589 146.719 214.518 146.224Z" fill="#E0E0E0"/>
<path d="M204.4 155.348C204.69 155.92 204.936 156.513 205.135 157.123C205.55 158.237 206.104 159.777 206.7 161.487C207.295 163.196 207.813 164.749 208.18 165.874C208.406 166.476 208.582 167.096 208.704 167.728C208.409 167.148 208.163 166.544 207.969 165.922C207.554 164.815 207 163.274 206.405 161.565C205.809 159.856 205.285 158.303 204.924 157.171C204.699 156.579 204.524 155.969 204.4 155.348Z" fill="#E0E0E0"/>
<path d="M208.688 167.402C209.373 167.441 210.055 167.53 210.728 167.667C211.98 167.866 213.737 168.137 215.633 168.389C217.529 168.642 219.292 168.835 220.55 168.991C221.236 169.036 221.917 169.127 222.591 169.262C221.904 169.304 221.216 169.288 220.532 169.214C219.262 169.13 217.523 168.973 215.591 168.714C213.659 168.456 211.932 168.155 210.686 167.908C210.007 167.794 209.339 167.625 208.688 167.402Z" fill="#E0E0E0"/>
<path d="M221.284 58.4306L219.857 105.107L253.967 106.15L255.393 59.4727L221.284 58.4306Z" fill="#F5F5F5"/>
<path d="M215.004 64.6356L213.578 111.312L247.688 112.355L249.114 65.6778L215.004 64.6356Z" fill="white"/>
<path d="M247.682 112.345C247.678 112.269 247.678 112.192 247.682 112.116C247.682 111.96 247.682 111.743 247.682 111.46C247.682 110.858 247.712 110.016 247.742 108.908C247.802 106.675 247.887 103.431 247.995 99.3206C248.23 91.1051 248.561 79.4591 248.952 65.6704L249.09 65.8148L214.983 64.7856L215.145 64.6352C214.598 82.0892 214.098 98.2132 213.689 111.31L213.562 111.177L238.335 112.002L245.226 112.243L247.032 112.315L247.664 112.345H247.062L245.257 112.303L238.395 112.128L213.544 111.436H213.418V111.31C213.809 98.2072 214.291 82.0652 214.814 64.6291V64.4727H214.977L249.078 65.5319H249.223V65.6764C248.771 79.5193 248.392 91.1834 248.121 99.4169C247.983 103.51 247.869 106.748 247.796 108.968C247.754 110.064 247.724 110.906 247.7 111.49C247.7 111.767 247.7 111.984 247.67 112.134C247.64 112.285 247.682 112.345 247.682 112.345Z" fill="#E0E0E0"/>
<path d="M235.814 75.4317C235.814 75.522 232.1 75.4738 227.526 75.3354C222.952 75.197 219.238 75.0104 219.238 74.9261C219.238 74.8419 222.958 74.884 227.532 75.0224C232.106 75.1609 235.814 75.3474 235.814 75.4317Z" fill="#E0E0E0"/>
<path d="M244.623 79.7655C244.623 79.8497 238.905 79.7655 231.851 79.5308C224.798 79.296 219.08 79.0673 219.086 78.9831C219.092 78.8988 224.804 78.9831 231.864 79.2178C238.923 79.4525 244.629 79.6752 244.623 79.7655Z" fill="#E0E0E0"/>
<path d="M244.498 83.996C244.498 84.0802 238.774 83.996 231.721 83.7612C224.667 83.5265 218.955 83.2978 218.955 83.2135C218.955 83.1293 224.679 83.2135 231.733 83.4483C238.787 83.683 244.498 83.9057 244.498 83.996Z" fill="#E0E0E0"/>
<path d="M244.365 88.2274C244.365 88.3117 238.648 88.2274 231.594 87.9927C224.54 87.7579 218.828 87.5292 218.828 87.445C218.828 87.3607 224.552 87.445 231.606 87.6797C238.66 87.9144 244.371 88.1552 244.365 88.2274Z" fill="#E0E0E0"/>
<path d="M244.24 92.4588C244.24 92.5431 238.517 92.4588 231.469 92.2241C224.421 91.9894 218.697 91.7607 218.697 91.6764C218.697 91.5922 224.421 91.6764 231.475 91.9111C238.529 92.1459 244.24 92.3686 244.24 92.4588Z" fill="#E0E0E0"/>
<path d="M244.113 96.6893C244.113 96.7736 238.39 96.6893 231.336 96.4546C224.282 96.2199 218.57 95.9911 218.57 95.9069C218.57 95.8226 224.294 95.9069 231.348 96.1416C238.402 96.3763 244.113 96.581 244.113 96.6893Z" fill="#E0E0E0"/>
<path d="M243.98 100.921C243.98 101.005 238.257 100.921 231.209 100.686C224.161 100.451 218.437 100.223 218.443 100.138C218.449 100.054 224.161 100.138 231.215 100.373C238.269 100.608 243.986 100.83 243.98 100.921Z" fill="#E0E0E0"/>
<path d="M232.039 104.791C232.039 104.875 228.964 104.851 225.172 104.737C221.38 104.622 218.311 104.454 218.311 104.37C218.311 104.285 221.386 104.309 225.178 104.424C228.97 104.538 232.039 104.701 232.039 104.791Z" fill="#E0E0E0"/>
<path d="M146.65 21.9296L135.977 48.7363L169.505 62.0855L180.178 35.2788L146.65 21.9296Z" fill="white"/>
<path d="M180.172 35.2814L180.009 35.2213L179.54 35.0407L177.734 34.3185L170.855 31.58L146.624 21.9502L146.696 21.9201L136.031 48.7211L135.995 48.6368L169.519 61.9982H169.453C172.679 53.9212 175.357 47.2284 177.223 42.552C178.162 40.2167 178.896 38.381 179.395 37.1352L179.997 35.7088L180.196 35.2152L180.009 35.7028C179.883 36.0278 179.696 36.5032 179.45 37.1232C178.956 38.375 178.246 40.2107 177.307 42.5399C175.447 47.2224 172.781 53.9332 169.573 62.0283V62.0764H169.525L135.953 48.7933H135.893V48.7331C139.751 39.0551 143.392 29.9068 146.57 21.9321V21.8779H146.618L170.909 31.58L177.752 34.3245L179.558 35.0467L180.021 35.2333L180.172 35.2814Z" fill="#E0E0E0"/>
<path d="M147.108 24.1078L137.779 47.5371L168.953 59.949L178.282 36.5197L147.108 24.1078Z" fill="#EBEBEB"/>
<path d="M137.902 47.6077L154.592 37.376L157.71 49.1725L164.222 46.1271L169.079 60.0181L137.902 47.6077Z" fill="#E0E0E0"/>
<path d="M164.908 39.4044C164.714 39.8901 164.381 40.3075 163.951 40.6038C163.52 40.9002 163.011 41.0622 162.489 41.0693C161.966 41.0764 161.453 40.9283 161.014 40.6437C160.576 40.3592 160.232 39.951 160.025 39.4707C159.819 38.9905 159.76 38.4598 159.855 37.9458C159.95 37.4319 160.196 36.9577 160.56 36.5833C160.925 36.209 161.393 35.9512 161.904 35.8427C162.416 35.7342 162.948 35.7798 163.433 35.9738C163.755 36.1017 164.05 36.2921 164.298 36.5339C164.547 36.7757 164.745 37.0643 164.882 37.383C165.019 37.7017 165.092 38.0443 165.097 38.3912C165.101 38.738 165.037 39.0824 164.908 39.4044Z" fill="#E0E0E0"/>
<path d="M60.3398 76.6357C60.5664 76.7292 60.8117 76.7683 61.0561 76.75C61.349 76.7164 61.6212 76.5825 61.8265 76.3709C62.0646 76.0412 62.2759 75.693 62.4584 75.3296L66.3645 68.5165L67.6645 66.2656L68.3567 65.0618C68.4772 64.87 68.5818 64.6687 68.6696 64.46C68.7329 64.252 68.7329 64.0299 68.6696 63.822C68.6155 63.608 68.4955 63.4164 68.3266 63.2743C68.1337 63.1378 67.9327 63.0132 67.7247 62.9011L66.3826 62.1548L63.5899 60.59L51.1554 53.6144C50.9101 53.4832 50.6249 53.4475 50.3548 53.5142C50.0847 53.5809 49.8489 53.7452 49.6929 53.9755L48.76 55.5765C48.1581 56.6357 47.5563 57.689 46.9544 58.7182L43.4636 64.6827C43.3251 64.9174 43.1867 65.1521 43.0543 65.3868C42.9202 65.5902 42.851 65.8294 42.8557 66.073C42.8652 66.3107 42.9518 66.5389 43.1025 66.723C43.2734 66.9001 43.478 67.0413 43.7043 67.1383L46.3345 68.6309L51.041 71.3032L57.8541 75.1972L59.7019 76.2686L60.1773 76.5514C60.2857 76.6176 60.3399 76.6537 60.3338 76.6598L60.1653 76.5815L59.6718 76.3227L57.8 75.2995L50.9327 71.4958L46.2261 68.8295L43.59 67.3549C43.3345 67.2421 43.1035 67.0806 42.9099 66.8795C42.7218 66.6469 42.6141 66.3598 42.6029 66.0609C42.59 65.7631 42.6699 65.4687 42.8316 65.2183C42.964 64.9836 43.1025 64.7489 43.2409 64.5141L46.6896 58.5617L48.4952 55.42L49.4401 53.801C49.6393 53.5056 49.941 53.2948 50.2868 53.2092C50.6326 53.1235 50.9979 53.1693 51.3119 53.3375L63.7344 60.3372L66.527 61.9141L67.8571 62.6724C68.0868 62.7892 68.3081 62.9219 68.5192 63.0697C68.729 63.2488 68.8783 63.4885 68.9465 63.7558C69.0188 64.0116 69.0188 64.2824 68.9465 64.5382C68.8506 64.766 68.7358 64.9855 68.6034 65.1943L67.8993 66.398L66.5872 68.6429C64.908 71.4837 63.5478 73.7889 62.5968 75.4079C62.3994 75.7719 62.174 76.12 61.9228 76.4491C61.6987 76.6687 61.4048 76.8028 61.0922 76.8283C60.9031 76.8422 60.7133 76.8113 60.5385 76.738C60.4679 76.7132 60.401 76.6788 60.3398 76.6357Z" fill="#E0E0E0"/>
<path d="M57.1626 64.2979L58.6793 66.9882L55.5496 67.0484L52.4199 67.1026L54.0329 64.3521L55.6459 61.6016L57.1626 64.2979Z" fill="#E0E0E0"/>
<path d="M261.271 179.037C261.271 179.127 203.703 179.199 132.713 179.199C61.7231 179.199 4.13672 179.139 4.13672 179.037C4.13672 178.934 61.693 178.868 132.713 178.868C203.733 178.868 261.271 178.958 261.271 179.037Z" fill="#263238"/>
<path d="M67.7797 140.812L49.6094 122.557L58.7457 105.777C67.882 94.0772 87.2259 94.8295 87.2259 94.8295C96.7691 94.1809 106.356 94.7695 115.748 96.581C131.114 99.5903 129.874 109.738 129.874 109.738L131.932 147.396L134.141 178.061L77.4757 179.205L67.7797 140.836" fill="#9663FE"/>
<path d="M98.3055 177.412L47.5502 178.014C44.7542 178.046 41.9958 177.368 39.5342 176.042C37.0725 174.715 34.9882 172.785 33.4773 170.432C31.9663 168.08 31.0782 165.381 30.8963 162.591C30.7144 159.801 31.2447 157.01 32.4374 154.481L54.1407 114.234L73.9119 127.596L60.4241 155.564L101.507 156.299L98.3055 177.412Z" fill="#9663FE"/>
<path d="M128.08 103.599L168.808 166.481L145.047 168.034C145.047 168.034 130.855 145.675 131.174 146.132C131.739 146.975 128.08 103.599 128.08 103.599Z" fill="#9663FE"/>
<path d="M72.8885 131.213C72.89 131.102 72.9083 130.993 72.9427 130.888C73.0029 130.647 73.0691 130.346 73.1594 129.973C73.3459 129.184 73.6228 128.041 73.9057 126.62C74.1886 125.2 74.5075 123.491 74.7062 121.589C74.9506 119.528 74.9506 117.445 74.7062 115.384C74.3796 113.34 73.6667 111.377 72.6057 109.6C71.7529 108.137 70.7439 106.77 69.5963 105.525C68.8228 104.674 67.9988 103.87 67.1287 103.118C66.797 102.858 66.4795 102.581 66.1777 102.287C66.2757 102.336 66.3685 102.394 66.4546 102.462C66.6231 102.588 66.894 102.763 67.2069 103.021C68.112 103.736 68.9648 104.514 69.7588 105.351C70.9451 106.587 71.987 107.954 72.8644 109.425C73.9628 111.23 74.6988 113.231 75.0312 115.317C75.2695 117.404 75.2533 119.512 74.983 121.595C74.7797 123.29 74.4905 124.973 74.1163 126.639C73.8034 128.065 73.5145 129.202 73.2677 129.985C73.1594 130.376 73.0631 130.677 72.9969 130.882C72.9715 130.995 72.9352 131.106 72.8885 131.213Z" fill="#263238"/>
<path d="M71.2513 133.379C71.1644 133.692 71.0475 133.997 70.9022 134.288C70.6615 134.89 70.3004 135.696 69.8369 136.695C68.9161 138.735 67.61 141.54 66.1054 144.61C64.6007 147.679 63.1803 150.43 62.1271 152.434C61.5974 153.421 61.1641 154.24 60.8571 154.763C60.7106 155.055 60.5415 155.334 60.3516 155.6C60.4597 155.293 60.5925 154.995 60.7488 154.709C61.0557 154.107 61.453 153.301 61.9525 152.332L65.8466 144.507C67.3212 141.456 68.6633 138.699 69.6624 136.635C70.1319 135.666 70.5171 134.859 70.818 134.228C70.9384 133.933 71.0834 133.649 71.2513 133.379Z" fill="#263238"/>
<path d="M98.3053 177.412C98.3053 177.412 98.3053 177.375 98.3053 177.309C98.3053 177.243 98.3053 177.123 98.3053 176.996C98.3354 176.707 98.3775 176.304 98.4256 175.792C98.546 174.721 98.7145 173.198 98.9252 171.279C99.3706 167.384 100.009 161.907 100.731 155.449L100.875 155.606H85.8828L59.6957 155.564L51.7511 155.516L49.5904 155.486H49.0246H48.832C48.896 155.478 48.9607 155.478 49.0246 155.486H49.5904L51.7511 155.456L59.6957 155.407L85.9249 155.365H100.917H101.08V155.522C100.285 161.974 99.6173 167.451 99.1359 171.339C98.8951 173.253 98.6965 174.775 98.534 175.847C98.4698 176.352 98.4156 176.753 98.3715 177.05L98.3233 177.357C98.3173 177.375 98.3113 177.412 98.3053 177.412Z" fill="#263238"/>
<path d="M60.7793 156.01C60.4158 155.608 60.0781 155.184 59.7682 154.74C58.1462 152.703 56.1376 151.008 53.8579 149.75C53.371 149.514 52.8969 149.253 52.4375 148.968C52.9718 149.093 53.4848 149.296 53.9602 149.57C56.3345 150.743 58.3877 152.476 59.9427 154.619C60.2845 155.042 60.566 155.51 60.7793 156.01Z" fill="#263238"/>
<path d="M132.774 159.994C132.73 159.822 132.702 159.647 132.69 159.47C132.648 159.103 132.594 158.604 132.522 157.972C132.383 156.672 132.197 154.788 131.998 152.458C131.583 147.794 131.107 141.342 130.686 134.216C130.265 127.09 129.97 120.626 129.801 115.949C129.717 113.608 129.657 111.736 129.633 110.406C129.633 109.774 129.633 109.275 129.603 108.902C129.593 108.727 129.593 108.552 129.603 108.378C129.636 108.551 129.654 108.726 129.657 108.902C129.657 109.269 129.705 109.774 129.741 110.406C129.807 111.742 129.897 113.626 130.012 115.937C130.235 120.614 130.566 127.066 130.987 134.198C131.408 141.33 131.854 147.77 132.191 152.44C132.371 154.746 132.516 156.653 132.618 157.966C132.666 158.567 132.702 159.097 132.732 159.464C132.762 159.639 132.776 159.816 132.774 159.994Z" fill="#263238"/>
<path d="M87.4655 125.778C87.4681 125.502 87.4902 125.227 87.5317 124.954C87.6039 124.382 87.6942 123.618 87.8085 122.679C88.0733 120.693 88.4104 117.972 88.8558 114.818L89.0845 114.963L85.1904 117.689L81.2301 120.446L80.9473 120.644L80.9954 120.301C81.4769 117.178 81.8862 114.481 82.1991 112.477C82.3556 111.556 82.476 110.798 82.5723 110.232C82.6046 109.961 82.661 109.693 82.7408 109.432C82.7412 109.706 82.7171 109.98 82.6686 110.25C82.5964 110.816 82.5061 111.574 82.3857 112.507C82.1149 114.481 81.7357 117.184 81.3024 120.331L81.0737 120.187L85.0279 117.418L88.928 114.704L89.2109 114.505L89.1627 114.848C88.6993 117.99 88.296 120.711 88.0071 122.673C87.8567 123.606 87.7363 124.37 87.646 124.936C87.6111 125.221 87.5507 125.503 87.4655 125.778Z" fill="#E0E0E0"/>
<path d="M110.119 128.215C109.902 128.042 109.701 127.851 109.518 127.643C109.126 127.222 108.597 126.662 107.947 125.976L102.572 120.15L102.831 120.06C102.704 121.534 102.572 123.135 102.434 124.797C102.295 126.458 102.151 128.107 102.024 129.611L101.994 129.961L101.765 129.702L96.5353 123.803L95.0427 122.082C94.8527 121.885 94.6833 121.669 94.5371 121.438C94.7536 121.622 94.9548 121.824 95.139 122.04L96.6918 123.701L102 129.521L101.741 129.611C101.868 128.113 102 126.488 102.145 124.797C102.289 123.105 102.422 121.534 102.548 120.06L102.578 119.717L102.807 119.97L108.103 125.874L109.614 127.601C109.798 127.792 109.967 127.998 110.119 128.215Z" fill="#E0E0E0"/>
<path d="M121.518 127.409C121.406 127.663 121.269 127.905 121.109 128.131L119.905 130.069L115.608 136.738L115.464 136.509L120.134 135.703L124.889 134.902L125.232 134.842L125.069 135.101L120.676 141.637L119.352 143.527C119.205 143.758 119.04 143.978 118.858 144.183C118.977 143.937 119.114 143.699 119.267 143.473L120.471 141.547L124.775 134.926L124.925 135.155L120.17 135.98L115.482 136.774L115.139 136.828L115.331 136.545L119.719 129.925L121.007 128.029C121.165 127.812 121.336 127.605 121.518 127.409Z" fill="#E0E0E0"/>
<path d="M106.358 139.073C106.245 139.325 106.108 139.564 105.949 139.789L104.745 141.733L100.454 148.396L100.303 148.167L104.986 147.361L109.746 146.554L110.09 146.5L109.891 146.783L105.497 153.325L104.203 155.203C104.06 155.435 103.894 155.653 103.71 155.853C103.83 155.608 103.967 155.37 104.119 155.143C104.432 154.662 104.841 154.018 105.323 153.223L109.626 146.603L109.777 146.831L105.022 147.656L100.333 148.444L99.9902 148.504L100.183 148.216L104.57 141.595C105.1 140.813 105.533 140.175 105.864 139.699C106.014 139.479 106.179 139.27 106.358 139.073Z" fill="#E0E0E0"/>
<path d="M139.117 127.276C138.998 127.524 138.861 127.764 138.708 127.993L137.504 129.937L133.213 136.599L133.063 136.371L137.745 135.564L142.506 134.758L142.849 134.703L142.656 134.986L138.257 141.529C137.727 142.299 137.294 142.931 136.963 143.4C136.82 143.635 136.655 143.854 136.469 144.056C136.591 143.81 136.729 143.573 136.884 143.346L138.088 141.426L142.392 134.806L142.542 135.034L137.787 135.853L133.099 136.647L132.762 136.708L132.948 136.419L137.336 129.798L138.63 127.902C138.772 127.678 138.935 127.469 139.117 127.276Z" fill="#E0E0E0"/>
<path d="M158.016 157.574C157.8 157.411 157.599 157.229 157.414 157.033L155.765 155.444L150.101 149.894L150.354 149.792C150.306 151.273 150.258 152.874 150.203 154.541C150.149 156.208 150.083 157.863 150.029 159.356V159.705L149.782 159.458L144.269 153.831L142.692 152.188C142.496 152.001 142.315 151.8 142.15 151.586C142.365 151.75 142.566 151.931 142.752 152.127L144.389 153.71L149.987 159.259L149.728 159.362C149.776 157.857 149.83 156.232 149.884 154.547C149.939 152.862 150.005 151.279 150.059 149.798V149.455L150.3 149.696L155.879 155.329L157.474 156.978C157.671 157.162 157.852 157.361 158.016 157.574Z" fill="#E0E0E0"/>
<path d="M62.4104 117.61C62.2926 117.859 62.1558 118.099 62.0011 118.327L60.7974 120.271L56.5061 126.939L56.3556 126.711L61.0381 125.898L65.7989 125.098L66.1419 125.037L65.9493 125.326L61.5497 131.862L60.2617 133.74C60.1155 133.97 59.9504 134.188 59.7682 134.39C59.8835 134.144 60.0205 133.908 60.1775 133.686L61.3812 131.76C62.4706 130.093 63.9632 127.806 65.6845 125.14L65.835 125.368L61.0802 126.193L56.3917 126.987L56.0547 127.042L56.2413 126.759C58.0047 124.11 59.5214 121.823 60.6289 120.138L61.9229 118.242C62.0685 118.019 62.2315 117.808 62.4104 117.61Z" fill="#E0E0E0"/>
<path d="M38.6113 162.617C38.8141 162.801 38.9995 163.002 39.165 163.219L40.6336 164.983L45.623 171.14L45.3582 171.212C45.5749 169.75 45.8036 168.161 46.0504 166.505C46.2971 164.85 46.5379 163.219 46.7606 161.733L46.8087 161.39L47.0254 161.667L51.8764 167.878L53.2547 169.683C53.4298 169.892 53.5869 170.116 53.7241 170.351C53.5265 170.165 53.3434 169.964 53.1764 169.75L51.732 167.992L46.8268 161.847L47.0916 161.781C46.8749 163.267 46.6402 164.88 46.3934 166.554C46.1467 168.227 45.9119 169.792 45.6893 171.254L45.6411 171.597L45.4244 171.326L40.5132 165.103L39.1109 163.298C38.9293 163.082 38.7624 162.855 38.6113 162.617Z" fill="#E0E0E0"/>
<path d="M92.9613 133.476C92.6918 133.533 92.4181 133.57 92.1428 133.584L89.8557 133.783L81.9472 134.385L82.0435 134.132L85.5103 137.382L89.0191 140.692L89.2719 140.933H88.9228L81.0565 141.366L78.7814 141.462C78.5091 141.486 78.2352 141.486 77.9629 141.462C78.2309 141.409 78.5025 141.374 78.7754 141.36L81.0444 141.18L88.9048 140.638L88.8145 140.891L85.2936 137.592L81.8389 134.33L81.5861 134.09H81.9292L89.8437 133.614L92.1308 133.5C92.4066 133.471 92.6843 133.463 92.9613 133.476Z" fill="#E0E0E0"/>
<path d="M79.625 163.81C79.8258 163.999 80.0148 164.2 80.1907 164.412L81.6894 166.145L86.8113 172.2L86.5464 172.272C86.733 170.804 86.9377 169.215 87.1483 167.56C87.359 165.905 87.5756 164.261 87.7502 162.775L87.7983 162.426L88.015 162.697L92.9984 168.806L94.4128 170.611C94.5881 170.821 94.749 171.042 94.8943 171.273C94.6913 171.088 94.5041 170.887 94.3346 170.671L92.854 168.944L87.7983 162.925L88.0571 162.847C87.8705 164.34 87.6659 165.953 87.4553 167.632C87.2446 169.311 87.0339 170.882 86.8534 172.351L86.8052 172.694L86.5886 172.429L81.551 166.302L80.1185 164.496C79.9318 164.284 79.7665 164.054 79.625 163.81Z" fill="#E0E0E0"/>
<path d="M55.7849 141.564C55.5156 141.623 55.2418 141.659 54.9664 141.672L52.6853 141.865L44.7768 142.467L44.8671 142.208L48.3399 145.464L51.8487 148.774L52.1015 149.015H51.7524L43.8861 149.449L41.611 149.545C41.3447 149.567 41.0769 149.567 40.8105 149.545C41.0779 149.487 41.3498 149.453 41.6231 149.443L43.8921 149.262L51.7524 148.714L51.6622 148.973L48.1413 145.675L44.6805 142.413L44.4338 142.172H44.7768L52.6913 141.691L54.9784 141.582C55.2464 141.556 55.516 141.55 55.7849 141.564Z" fill="#E0E0E0"/>
<path d="M76.266 163.129C75.9966 163.186 75.7227 163.22 75.4475 163.231L73.1604 163.43L65.2519 164.032L65.3482 163.773L68.815 167.029L72.3238 170.339L72.5766 170.58H72.2335L64.3612 171.007L62.0861 171.11C61.8138 171.133 61.5399 171.133 61.2676 171.11C61.5349 171.052 61.8068 171.018 62.0801 171.007L64.3491 170.827L72.2095 170.279L72.1192 170.538L68.5983 167.24L65.1436 163.99L64.8908 163.755H65.2339L73.1484 163.273L75.4415 163.165C75.7147 163.128 75.9907 163.116 76.266 163.129Z" fill="#E0E0E0"/>
<path d="M122.495 108.263C122.225 108.321 121.951 108.357 121.676 108.372L119.389 108.564L111.486 109.166L111.577 108.913L115.043 112.164L118.552 115.474L118.805 115.714H118.462L110.59 116.148L108.315 116.244C108.042 116.268 107.768 116.268 107.496 116.244C107.763 116.187 108.035 116.152 108.309 116.142L110.578 115.961L118.444 115.42L118.348 115.672L114.839 112.38L111.384 109.118L111.131 108.877H111.474L119.389 108.396L121.682 108.287C121.952 108.259 122.223 108.251 122.495 108.263Z" fill="#E0E0E0"/>
<path d="M100.008 163.129C100.008 163.129 110.132 160.21 113.484 159.356C114.79 159.025 120.381 161.974 124.245 164.429C124.245 164.429 129.566 167.583 129.138 168.552C128.663 169.623 126.731 169.407 123.571 167.95C123.571 167.95 124.667 171.122 122.518 171.05C122.518 171.05 123.583 174.48 121.573 174.836C119.563 175.191 119.093 170.815 117.324 170.58C115.554 170.346 111.907 170.105 111.907 170.105C111.907 170.105 108.856 175.161 106.49 175.522C104.125 175.883 98.666 175.239 98.666 175.239L100.008 163.129Z" fill="#FFBE9D"/>
<path d="M117.287 163.827C118.278 164.268 119.225 164.803 120.116 165.422C121.061 165.957 121.952 166.581 122.776 167.288C120.838 166.317 118.999 165.158 117.287 163.827Z" fill="#EB996E"/>
<path d="M116.691 165.795C117.848 166.159 118.971 166.62 120.05 167.173C121.165 167.626 122.24 168.172 123.264 168.804C122.107 168.444 120.983 167.985 119.905 167.432C118.788 166.981 117.713 166.433 116.691 165.795Z" fill="#EB996E"/>
<path d="M117.775 170.496C119.304 170.491 120.827 170.693 122.301 171.098C120.772 171.102 119.25 170.9 117.775 170.496Z" fill="#EB996E"/>
<path d="M86.8331 58.6634C86.9523 59.0534 86.9539 59.4698 86.8379 59.8608C86.7219 60.2518 86.4934 60.6 86.1808 60.8619C85.8681 61.1238 85.4853 61.2878 85.0801 61.3335C84.6748 61.3792 84.2651 61.3046 83.902 61.119C82.5297 60.4268 82.3552 58.5309 82.626 57.0203C82.8969 55.5096 83.4085 53.8906 82.7765 52.4882C82.289 51.4169 81.2357 50.7368 80.4172 49.8942C79.6949 49.1618 79.1521 48.272 78.8315 47.2945C78.5109 46.3171 78.4212 45.2787 78.5695 44.2607C78.7429 43.2459 79.1933 42.2986 79.8708 41.5233C80.5484 40.748 81.4268 40.1749 82.4094 39.8671C84.4256 39.3074 86.9113 39.9273 88.428 38.4648C89.5174 37.4055 89.5836 35.6782 90.4262 34.4142C91.7322 32.4522 94.4948 32.1392 96.83 32.4582C99.1653 32.7772 101.537 33.5295 103.824 32.9577C105.732 32.4823 107.296 31.1521 109.09 30.3336C111.045 29.4401 113.23 29.1798 115.34 29.5891C117.45 29.9985 119.379 31.057 120.858 32.6167C122.337 34.1764 123.291 36.1593 123.588 38.2881C123.884 40.4168 123.508 42.585 122.512 44.4894C121.847 45.8831 120.717 47.0008 119.316 47.6492" fill="#263238"/>
<path d="M98.4507 108.384C99.9855 108.381 101.504 108.073 102.919 107.479C104.335 106.884 105.617 106.015 106.694 104.921C107.771 103.827 108.619 102.531 109.191 101.106C109.763 99.6818 110.046 98.1581 110.025 96.6235L109.874 85.5612C109.874 85.5612 119.167 84.6283 119.781 75.4198C120.395 66.2113 119.955 44.9595 119.955 44.9595C114.842 42.4228 109.145 41.2958 103.451 41.6947C97.7571 42.0935 92.2726 44.0038 87.563 47.2285L86.1426 48.2095L86.8347 96.9244C86.8712 99.9795 88.1117 102.897 90.2866 105.042C92.4616 107.188 95.3955 108.389 98.4507 108.384Z" fill="#FFBE9D"/>
<path d="M117.522 61.673C117.186 61.6343 116.875 61.4734 116.65 61.2209C116.425 60.9684 116.301 60.642 116.301 60.3037C116.301 59.9655 116.425 59.639 116.65 59.3865C116.875 59.134 117.186 58.9731 117.522 58.9345C117.595 58.9164 117.671 58.9164 117.744 58.9345C118.08 58.9731 118.39 59.134 118.616 59.3865C118.841 59.639 118.965 59.9655 118.965 60.3037C118.965 60.642 118.841 60.9684 118.616 61.2209C118.39 61.4734 118.08 61.6343 117.744 61.673C117.671 61.685 117.595 61.685 117.522 61.673Z" fill="#263238"/>
<path d="M119.329 58.6994C119.178 58.8559 118.311 58.0975 117.041 58.0313C115.772 57.9651 114.815 58.561 114.688 58.3925C114.562 58.2239 114.778 58.0374 115.2 57.7545C115.763 57.3932 116.427 57.2222 117.094 57.2667C117.762 57.3111 118.397 57.5686 118.907 58.0012C119.286 58.3383 119.407 58.6633 119.329 58.6994Z" fill="#263238"/>
<path d="M104.649 59.0131C104.867 59.1643 105.036 59.3768 105.134 59.6239C105.231 59.8709 105.253 60.1413 105.197 60.4009C105.141 60.6604 105.009 60.8974 104.818 61.082C104.627 61.2665 104.385 61.3901 104.124 61.4374C103.862 61.4846 103.593 61.4532 103.349 61.3472C103.106 61.2412 102.899 61.0653 102.756 60.8418C102.612 60.6183 102.538 60.3573 102.543 60.0918C102.548 59.8263 102.632 59.5681 102.783 59.3501C102.986 59.0583 103.297 58.859 103.647 58.7958C103.996 58.7326 104.357 58.8108 104.649 59.0131Z" fill="#263238"/>
<path d="M105.485 59.0666C105.328 59.2231 104.462 58.4647 103.198 58.3985C101.934 58.3323 100.971 58.9282 100.839 58.7596C100.772 58.6814 100.935 58.4045 101.35 58.1217C101.913 57.7604 102.577 57.5894 103.245 57.6339C103.912 57.6783 104.547 57.9358 105.058 58.3684C105.437 58.7055 105.557 59.0004 105.485 59.0666Z" fill="#263238"/>
<path d="M110.023 69.8164C110.023 69.7201 110.812 69.5997 112.1 69.4914C112.431 69.4914 112.702 69.4132 112.732 69.2386C112.756 68.9068 112.692 68.5744 112.545 68.2756C112.262 67.415 111.98 66.5483 111.679 65.6395C110.475 61.8898 109.686 58.8023 109.873 58.7421C110.06 58.6819 111.179 61.6732 112.365 65.4228C112.642 66.3376 112.912 67.2284 113.171 68.071C113.362 68.5092 113.4 68.9988 113.28 69.4613C113.226 69.5862 113.143 69.6966 113.039 69.7834C112.934 69.8702 112.81 69.931 112.678 69.9609C112.49 70.0027 112.298 70.0169 112.106 70.003C110.806 69.9789 110.023 69.9187 110.023 69.8164Z" fill="#263238"/>
<path d="M105.811 70.9951C107.746 71.9882 109.807 72.7111 111.938 73.1438C111.471 73.7855 110.8 74.2503 110.035 74.4623C109.27 74.6743 108.456 74.6211 107.725 74.3114C105.011 73.1498 105.811 70.9951 105.811 70.9951Z" fill="white"/>
<path d="M109.909 85.429C105.648 85.277 101.529 83.8607 98.0762 81.3604C98.0762 81.3604 100.556 88.1434 109.794 87.8184L109.909 85.429Z" fill="#EB996E"/>
<path d="M120.033 47.2883C120.033 47.2883 114.466 50.117 107.093 46.6142C102.278 44.3151 96.6383 43.2498 95.4225 44.2428C94.2068 45.2359 94.0442 50.1712 89.3256 51.706C89.3256 51.706 89.8372 61.1312 86.0695 60.8663C82.3019 60.6015 84.3723 45.9582 84.3723 45.9582L93.4785 41.2877L103.475 39.1992L112.955 40.3488L120.31 42.2085L120.033 47.2883Z" fill="#263238"/>
<path d="M86.7547 57.839C86.6043 57.7607 80.5254 55.6181 80.387 61.9317C80.2486 68.2452 86.6103 67.0836 86.6223 66.9031C86.6343 66.7225 86.7547 57.839 86.7547 57.839Z" fill="#FFBE9D"/>
<path d="M84.7451 64.4651C84.7451 64.4651 84.6308 64.5434 84.4442 64.6216C84.1799 64.729 83.884 64.729 83.6197 64.6216C82.9576 64.3628 82.4159 63.2915 82.4159 62.154C82.4152 61.6117 82.5322 61.0757 82.759 60.5831C82.8238 60.3876 82.9348 60.2106 83.0825 60.0671C83.2302 59.9235 83.4103 59.8177 83.6076 59.7585C83.735 59.7354 83.8664 59.7539 83.9825 59.8114C84.0985 59.8688 84.1929 59.9622 84.2516 60.0775C84.3299 60.2521 84.2877 60.3785 84.3178 60.3905C84.3479 60.4025 84.4563 60.2882 84.4141 60.0294C84.381 59.8719 84.2963 59.73 84.1734 59.6261C84.0029 59.4922 83.7872 59.4296 83.5715 59.4516C83.3109 59.4965 83.0662 59.6076 82.8607 59.7741C82.6553 59.9405 82.4959 60.1569 82.3979 60.4025C82.1199 60.9444 81.9754 61.5449 81.9766 62.154C81.9766 63.4239 82.6146 64.6336 83.5173 64.9165C83.6862 64.968 83.8643 64.9818 84.039 64.9569C84.2137 64.9319 84.3808 64.8688 84.5285 64.7721C84.7451 64.6216 84.7451 64.4772 84.7451 64.4651Z" fill="#EB996E"/>
<path d="M83.543 38.0799C84.2631 37.8686 85.0324 37.8963 85.7355 38.1589C86.4386 38.4215 87.0377 38.9048 87.443 39.5364C86.8819 39.1114 86.2765 38.7482 85.6375 38.453C84.9542 38.2562 84.2522 38.1311 83.543 38.0799Z" fill="#263238"/>
<path d="M87.3402 34.3008C87.4546 34.3008 87.2801 35.6309 87.4967 37.2078C87.684 38.1558 87.9809 39.0789 88.3815 39.9583C88.3815 39.9583 88.1167 39.7356 87.8518 39.2662C87.512 38.6414 87.2877 37.9604 87.1898 37.2559C87.0144 36.2723 87.0659 35.2616 87.3402 34.3008Z" fill="#263238"/>
<path d="M113.273 55.6543C113.237 55.5821 113.507 55.3594 114.019 55.1547C115.377 54.6295 116.885 54.6446 118.232 55.1969C118.738 55.4135 119.008 55.6362 118.972 55.7085C118.894 55.877 117.678 55.4015 116.12 55.4015C114.561 55.4015 113.345 55.8409 113.273 55.6543Z" fill="#263238"/>
<path d="M99.1907 54.3421C99.1546 54.2699 99.4254 54.0532 99.937 53.8426C100.61 53.5823 101.328 53.4536 102.05 53.4634C102.775 53.4633 103.493 53.6064 104.162 53.8847C104.668 54.1014 104.932 54.3241 104.902 54.4023C104.872 54.4806 103.608 54.0954 102.044 54.0894C100.479 54.0833 99.275 54.5107 99.1907 54.3421Z" fill="#263238"/>
<path d="M112.185 56.6653C112.199 56.7893 112.199 56.9144 112.185 57.0385C112.185 57.3033 112.185 57.6403 112.216 58.0556C112.246 58.4709 112.216 59.0306 112.252 59.6325C112.229 60.3271 112.331 61.0201 112.553 61.6788C112.843 62.5333 113.345 63.3001 114.013 63.9074C114.68 64.5148 115.49 64.9429 116.368 65.1516C116.872 65.2747 117.392 65.3193 117.909 65.284C118.447 65.2598 118.978 65.148 119.48 64.953C120.551 64.5518 121.463 63.8149 122.08 62.8525C122.664 61.9334 122.958 60.8594 122.923 59.7709C122.923 58.6936 122.923 57.6584 122.923 56.6653L123.067 56.8097L115.243 56.7375L112.974 56.6954H112.372H112.149C112.407 56.6668 112.666 56.6547 112.926 56.6593L115.159 56.6172L123.067 56.5449H123.266V56.6954C123.266 57.6885 123.266 58.7237 123.266 59.801C123.306 60.9489 122.998 62.0821 122.381 63.0511C121.727 64.0701 120.759 64.8494 119.624 65.272C119.091 65.4768 118.528 65.5927 117.957 65.615C117.413 65.6474 116.867 65.5966 116.338 65.4646C115.418 65.242 114.57 64.7863 113.876 64.1412C113.182 63.4961 112.667 62.6833 112.378 61.7811C112.162 61.0927 112.072 60.3709 112.113 59.6505C112.113 59.0487 112.113 58.4889 112.143 58.0315C112.173 57.5741 112.143 57.2912 112.173 57.0264C112.168 56.9059 112.172 56.7852 112.185 56.6653Z" fill="#263238"/>
<path d="M97.4339 56.3525C97.4339 56.3525 97.4339 56.4909 97.4339 56.7256V57.7428C97.4339 58.1882 97.4339 58.7178 97.464 59.3257C97.4482 60.0199 97.55 60.7118 97.7649 61.372C98.0422 62.1645 98.4972 62.883 99.0951 63.4725C99.7854 64.1435 100.644 64.6155 101.581 64.8388C102.616 65.0883 103.703 65.019 104.698 64.6401C105.766 64.2394 106.676 63.5049 107.292 62.5457C107.879 61.6272 108.175 60.5533 108.141 59.4641C108.141 58.3868 108.141 57.3456 108.141 56.3525L108.286 56.4969L100.461 56.4247L98.1983 56.3886H97.5964H97.3737C97.6295 56.3601 97.8868 56.348 98.1441 56.3525L100.377 56.3164L108.286 56.2441H108.43V56.3886C108.43 57.3817 108.43 58.4229 108.43 59.5002C108.466 60.6485 108.156 61.781 107.539 62.7503C106.885 63.7657 105.92 64.5426 104.789 64.9652C104.255 65.1695 103.692 65.2853 103.122 65.3082C102.575 65.3404 102.027 65.2897 101.496 65.1578C100.513 64.9156 99.6141 64.4099 98.8964 63.6952C98.2756 63.0715 97.8097 62.3108 97.5362 61.4743C97.3201 60.786 97.2303 60.0641 97.2714 59.3437C97.2714 58.7419 97.2714 58.1821 97.3075 57.7247C97.3436 57.2673 97.3075 56.9844 97.3075 56.7196C97.3295 56.5912 97.3722 56.4672 97.4339 56.3525Z" fill="#263238"/>
<path d="M112.317 57.1049C110.941 57.3137 109.54 57.3137 108.164 57.1049C109.54 56.8882 110.941 56.8882 112.317 57.1049Z" fill="#263238"/>
<path d="M85.9492 57.183C87.8627 57.0234 89.7834 56.9652 91.703 57.0084C93.6241 56.954 95.5467 57.0002 97.4629 57.1469C95.5498 57.3139 93.6288 57.3721 91.7091 57.3214C89.788 57.3828 87.8651 57.3366 85.9492 57.183Z" fill="#263238"/>
<path d="M147.863 170.761C149.216 173.271 151.264 175.337 153.762 176.711C156.261 178.085 159.103 178.709 161.947 178.507C165.307 178.272 168.487 176.898 170.961 174.612C173.435 172.326 175.055 169.265 175.555 165.934L179.046 125.976L165.065 122.521L159.353 153.818C159.353 153.818 156.368 166.933 147.863 170.761Z" fill="#FFBE9D"/>
<path d="M164.938 125.416L165.401 118.404C165.401 118.404 167.381 102.672 167.381 101.131C167.381 99.3614 168.23 98.928 168.886 98.9762C169.903 99.0424 170.625 100.3 170.691 101.823C170.691 102.347 170.643 110.664 170.643 110.664C171.124 109.878 171.661 109.128 172.25 108.419C173.454 106.861 176.367 105.97 179.334 106.066C182.301 106.162 183.114 106.451 183.132 107.601C183.121 107.821 183.062 108.035 182.958 108.229C182.854 108.422 182.707 108.59 182.53 108.72C181.982 109.177 181.286 109.417 180.574 109.394C175.825 109.31 174.555 111.844 174.555 111.844L174.495 112.765C174.495 112.765 177.378 110.7 179.677 111.561C180.017 111.687 180.328 111.879 180.592 112.127C181.239 112.129 181.875 112.301 182.435 112.625C182.996 112.949 183.462 113.414 183.787 113.974C184.113 114.533 184.286 115.168 184.291 115.816C184.295 116.463 184.13 117.1 183.812 117.664C183.688 117.953 183.479 118.198 183.212 118.365C182.945 118.531 182.634 118.612 182.319 118.597C182.001 118.501 181.713 118.325 181.483 118.085C181.348 117.971 181.205 117.866 181.055 117.772L180.526 120.318C180.526 120.318 179.027 125.976 178.654 128.516" fill="#FFBE9D"/>
<path d="M166.304 124.868C167.171 125.109 168.068 124.471 168.537 123.701C169.007 122.93 169.205 122.022 169.614 121.215C170.854 118.808 173.828 117.664 174.965 115.196C175.122 114.853 175.206 114.384 174.905 114.155C174.604 113.926 174.231 114.113 173.924 114.282L166.1 118.615" fill="#FFBE9D"/>
<path d="M166.094 118.604C166.337 118.388 166.606 118.202 166.894 118.05C167.424 117.719 168.2 117.262 169.163 116.702L172.564 114.758L173.545 114.204C173.91 113.915 174.376 113.783 174.839 113.837C174.982 113.883 175.107 113.972 175.199 114.091C175.29 114.211 175.343 114.355 175.35 114.505C175.366 114.752 175.323 115 175.224 115.227C175.043 115.629 174.817 116.009 174.55 116.359C173.467 117.767 172.064 118.652 171.053 119.681C170.561 120.147 170.143 120.685 169.813 121.276C169.518 121.83 169.332 122.408 169.103 122.931C168.963 123.368 168.728 123.769 168.416 124.106C168.104 124.443 167.722 124.708 167.297 124.881C166.653 125.074 166.292 124.881 166.316 124.845C166.628 124.855 166.939 124.804 167.231 124.695C167.608 124.502 167.94 124.234 168.207 123.907C168.475 123.579 168.671 123.2 168.784 122.793C168.977 122.21 169.2 121.637 169.452 121.077C169.784 120.437 170.217 119.854 170.734 119.35C171.769 118.267 173.142 117.358 174.153 116.052C174.391 115.737 174.593 115.395 174.755 115.035C174.905 114.692 174.881 114.349 174.688 114.313C174.496 114.276 174.117 114.439 173.786 114.626L172.786 115.167L169.338 117.045C168.351 117.569 167.532 117.978 166.991 118.249C166.71 118.409 166.408 118.528 166.094 118.604Z" fill="#EB996E"/>
<path d="M174.387 112.832C174.44 112.262 174.628 111.714 174.935 111.231C175.291 110.736 175.798 110.368 176.379 110.184C177.108 109.944 177.869 109.822 178.636 109.822C179.423 109.83 180.209 109.762 180.983 109.618C181.632 109.486 182.234 109.184 182.729 108.745C182.893 108.593 183.021 108.406 183.102 108.197C183.184 107.989 183.217 107.765 183.198 107.541C183.19 107.377 183.135 107.219 183.042 107.084C183.012 107.084 183.042 107.259 183.072 107.547C183.069 107.749 183.022 107.948 182.935 108.13C182.848 108.312 182.722 108.472 182.566 108.601C182.085 108.979 181.519 109.235 180.917 109.347C180.159 109.472 179.392 109.528 178.624 109.516C177.829 109.507 177.037 109.631 176.283 109.883C175.652 110.102 175.112 110.526 174.748 111.086C174.512 111.464 174.376 111.894 174.351 112.338C174.317 112.503 174.329 112.674 174.387 112.832Z" fill="#EB996E"/>
<path d="M170.65 101.233C170.599 101.784 170.599 102.338 170.65 102.889C170.65 104.02 170.65 105.374 170.692 106.867C170.734 108.359 170.692 109.714 170.692 110.845C170.656 111.397 170.668 111.951 170.728 112.5C170.86 111.96 170.926 111.407 170.927 110.851C170.999 109.834 171.047 108.444 171.041 106.867C171.035 105.29 170.975 103.894 170.902 102.876C170.877 102.321 170.793 101.77 170.65 101.233Z" fill="#EB996E"/>
<path d="M176.265 114.679C176.433 114.638 176.595 114.575 176.746 114.492C176.942 114.392 177.158 114.334 177.378 114.324C177.598 114.314 177.817 114.35 178.022 114.432C178.148 114.5 178.254 114.6 178.33 114.721C178.406 114.842 178.449 114.981 178.455 115.124C178.475 115.483 178.448 115.843 178.377 116.195C178.278 116.638 178.348 117.102 178.576 117.495C178.72 117.697 178.909 117.862 179.129 117.978C179.348 118.093 179.592 118.154 179.84 118.157C180.083 118.156 180.324 118.105 180.548 118.007C180.771 117.91 180.972 117.769 181.14 117.592C181.454 117.277 181.664 116.874 181.742 116.436C181.836 115.728 181.826 115.01 181.711 114.305C181.649 113.829 181.505 113.366 181.284 112.939C181.116 112.638 180.959 112.524 180.947 112.536C180.935 112.548 181.043 112.699 181.17 112.993C181.335 113.426 181.438 113.88 181.477 114.342C181.556 115.02 181.546 115.706 181.447 116.382C181.37 116.765 181.172 117.112 180.881 117.373C180.59 117.633 180.223 117.792 179.834 117.826C179.638 117.825 179.445 117.778 179.271 117.69C179.096 117.601 178.945 117.472 178.829 117.315C178.647 116.985 178.589 116.6 178.666 116.231C178.733 115.852 178.749 115.466 178.714 115.082C178.697 114.899 178.632 114.723 178.527 114.572C178.421 114.421 178.278 114.3 178.112 114.221C177.878 114.132 177.626 114.1 177.377 114.127C177.128 114.154 176.889 114.24 176.68 114.378C176.397 114.546 176.228 114.637 176.265 114.679Z" fill="#EB996E"/>
<path d="M181.001 117.339C180.959 117.496 180.976 117.663 181.049 117.809C181.134 118.015 181.265 118.2 181.432 118.348C181.599 118.496 181.797 118.604 182.012 118.663C182.337 118.733 182.673 118.718 182.99 118.618C183.306 118.519 183.592 118.34 183.818 118.098C184.361 117.502 184.652 116.719 184.631 115.913C184.631 115.117 184.382 114.34 183.92 113.692C183.543 113.163 183.029 112.747 182.434 112.488C182.043 112.312 181.622 112.212 181.194 112.193C180.893 112.193 180.73 112.193 180.73 112.242C181.286 112.313 181.828 112.467 182.337 112.699C182.872 112.964 183.331 113.36 183.674 113.848C184.074 114.455 184.283 115.168 184.275 115.895C184.295 116.617 184.047 117.32 183.577 117.869C183.387 118.085 183.144 118.249 182.872 118.345C182.6 118.44 182.309 118.465 182.024 118.417C181.835 118.374 181.657 118.292 181.502 118.174C181.347 118.057 181.22 117.908 181.128 117.737C181.043 117.508 181.043 117.339 181.001 117.339Z" fill="#EB996E"/>
<path d="M175.284 122.901C175.025 122.819 174.748 122.819 174.489 122.901C173.812 123.049 173.202 123.417 172.756 123.948L173.033 124.032C172.996 123.66 172.936 123.29 172.852 122.925C172.612 121.631 172.019 120.429 171.137 119.452C171.726 120.581 172.194 121.769 172.533 122.997C172.617 123.37 172.677 123.731 172.72 124.068L172.768 124.442L173.003 124.147C173.402 123.655 173.935 123.289 174.537 123.093C174.989 122.955 175.284 122.943 175.284 122.901Z" fill="#EB996E"/>
<path d="M175.433 108.751C175.355 108.787 175.674 109.353 176.408 109.696C177.143 110.039 177.793 109.84 177.763 109.756C177.733 109.672 177.161 109.678 176.559 109.395C175.957 109.112 175.512 108.691 175.433 108.751Z" fill="#EB996E"/>
<path d="M162.53 129.955L180.098 131.213C180.098 131.213 177.396 162.299 176.872 167.12C176.348 171.941 173.261 179.212 162.53 179.212C151.798 179.212 149.8 175.558 145.027 168.035C150.655 164.135 159.592 152.489 159.592 152.489L162.53 129.955Z" fill="#9663FE"/>
<path d="M170.812 134.138C170.721 134.4 170.613 134.655 170.487 134.902L169.506 136.972L166.039 144.129L165.864 143.918L170.421 142.564L175.049 141.204L175.386 141.107L175.223 141.414L171.612 148.426L170.547 150.442C170.429 150.688 170.29 150.924 170.132 151.146C170.224 150.889 170.332 150.638 170.457 150.394C170.709 149.876 171.059 149.19 171.444 148.342L174.941 141.282L175.115 141.492L170.493 142.865L165.931 144.201L165.6 144.297L165.756 143.99L169.349 136.906C169.789 136.07 170.144 135.384 170.408 134.872C170.522 134.616 170.657 134.371 170.812 134.138Z" fill="#E0E0E0"/>
<path d="M169.151 164.038C168.881 164.096 168.608 164.132 168.332 164.147L166.045 164.345L158.137 164.947L158.233 164.688L161.7 167.938L165.209 171.249L165.461 171.489H165.112L157.246 171.923L154.971 172.019C154.699 172.043 154.425 172.043 154.152 172.019C154.42 171.966 154.692 171.934 154.965 171.923L157.234 171.736L165.094 171.194L165.004 171.453L161.483 168.149L158.028 164.887L157.776 164.652H158.119L166.033 164.177L168.326 164.062C168.6 164.033 168.876 164.025 169.151 164.038Z" fill="#E0E0E0"/>
<path d="M200.429 52.9876L182.512 46.5537L164.793 52.9034C162.53 53.9687 160.544 54.6127 160.544 56.7192V67.2277C160.502 74.6086 162.517 81.8551 166.364 88.1546C170.207 94.5117 175.903 99.5415 182.686 102.569C189.909 100.216 195.325 93.9325 198.666 88.5638C202.523 82.2675 204.549 75.0208 204.516 67.637V58.1877C204.516 55.1784 202.915 53.7099 200.429 52.9876Z" fill="#9663FE"/>
<g opacity="0.3">
<path d="M182.686 96.4546C177.31 94.0302 172.805 90.0187 169.776 84.959C166.727 79.9808 165.124 74.2517 165.148 68.4138V61.071C165.148 59.3978 166.159 57.833 168.157 56.9001L182.518 51.5315V46.5781L164.793 52.9037C162.933 53.7162 160.544 54.613 160.544 56.7195V67.2281C160.502 74.6089 162.517 81.8555 166.364 88.1549C170.207 94.5121 175.903 99.5419 182.686 102.57V96.4546Z" fill="black"/>
</g>
<g opacity="0.4">
<path d="M182.684 102.552C183.9 102.155 185.078 101.651 186.205 101.047C188.977 99.4793 191.497 97.5031 193.681 95.185C195.655 93.0582 197.392 90.7234 198.863 88.2214C202.765 81.8786 204.729 74.534 204.514 67.09V58.4171C204.514 54.0957 202.287 53.7767 200.421 52.9642L182.504 46.5303V51.4836L197.033 56.9425C199.031 57.8754 200.042 59.4403 200.042 61.1074V68.4803C200.066 74.3163 198.463 80.0436 195.414 85.0195C192.45 90.0559 187.999 94.0507 182.672 96.4549L182.684 102.552Z" fill="black"/>
</g>
<path opacity="0.5" d="M187.266 67.9449V66.5245C187.266 65.2906 186.776 64.1072 185.903 63.2347C185.031 62.3622 183.847 61.8721 182.613 61.8721C181.379 61.8721 180.196 62.3622 179.324 63.2347C178.451 64.1072 177.961 65.2906 177.961 66.5245V67.969C177.345 68.0612 176.783 68.3713 176.377 68.8429C175.97 69.3145 175.746 69.9163 175.746 70.5389V78.9048C175.746 79.5944 176.02 80.2557 176.508 80.7433C176.995 81.231 177.657 81.5049 178.346 81.5049H187.061C187.751 81.5049 188.412 81.231 188.9 80.7433C189.387 80.2557 189.661 79.5944 189.661 78.9048V70.5389C189.662 69.8844 189.415 69.2538 188.971 68.7729C188.527 68.2921 187.918 67.9964 187.266 67.9449ZM183.877 76.8164H181.602L181.957 75.1733C181.708 75.0111 181.519 74.7729 181.416 74.4941C181.314 74.2153 181.304 73.9108 181.388 73.626C181.473 73.3413 181.647 73.0915 181.885 72.9138C182.123 72.7362 182.413 72.6402 182.71 72.6402C183.007 72.6402 183.296 72.7362 183.534 72.9138C183.772 73.0915 183.946 73.3413 184.031 73.626C184.115 73.9108 184.106 74.2153 184.003 74.4941C183.901 74.7729 183.711 75.0111 183.462 75.1733C183.618 75.7872 183.877 76.8164 183.877 76.8164ZM186.285 67.9328H178.966V66.5245C179.004 65.582 179.406 64.6909 180.086 64.0376C180.766 63.3842 181.673 63.0194 182.616 63.0194C183.56 63.0194 184.466 63.3842 185.147 64.0376C185.827 64.6909 186.228 65.582 186.267 66.5245L186.285 67.9328Z" fill="white"/>
<path d="M168.055 67.8422C167.898 67.3714 167.807 66.8813 167.784 66.3857C167.65 65.201 167.602 64.0082 167.639 62.8166C167.639 62.1184 167.706 61.4564 167.766 60.8545C167.796 60.3056 167.933 59.7679 168.169 59.2716C168.338 58.9316 168.613 58.6552 168.951 58.4832C169.198 58.3688 169.349 58.3749 169.349 58.3929C168.916 58.5912 168.569 58.9368 168.368 59.3679C168.175 59.8492 168.069 60.3606 168.055 60.8786C168.007 61.4805 167.97 62.1365 167.952 62.8286C167.91 64.2069 167.952 65.4588 168.007 66.3676C168.061 66.8571 168.077 67.3502 168.055 67.8422Z" fill="white"/>
<path d="M168.313 72.4105C168.228 72.4105 168.15 71.9832 168.138 71.4475C168.126 70.9119 168.192 70.4785 168.277 70.4785C168.361 70.4785 168.439 70.9058 168.451 71.4415C168.463 71.9772 168.403 72.4105 168.313 72.4105Z" fill="white"/>
<path d="M150.54 127.414L130.565 176.815H94.543V179.048H201.837L223.787 127.414H150.54Z" fill="#263238"/>
<path d="M181.08 156.58C180.358 159.066 178.252 160.637 176.374 160.095C174.496 159.554 173.563 157.086 174.285 154.6C175.008 152.115 177.12 150.544 178.998 151.085C180.876 151.627 181.809 154.095 181.08 156.58Z" fill="#FAFAFA"/>
</svg>
