<svg width="203" height="130" viewBox="0 0 203 130" fill="none" xmlns="http://www.w3.org/2000/svg">
<path fill-rule="evenodd" clip-rule="evenodd" d="M52.4376 91.901C52.4376 91.901 81.6179 110.441 102.46 110.436C123.286 110.43 152.439 91.901 152.439 91.901C152.439 91.901 152.644 71.4355 152.439 71.4355C152.238 71.4355 141.255 75.7855 128.034 81.1021C114.812 86.4188 102.499 90.7687 102.499 90.7687C102.499 90.7687 90.1667 86.4188 76.9213 81.1021C63.6755 75.7855 52.658 71.4355 52.4376 71.4355C52.1886 71.4355 52.4376 91.901 52.4376 91.901Z" fill="url(#paint0_linear_1340_579025)"/>
<path d="M77.6859 9.45211L30.7577 28.3624L0.168701 40.5446L25.163 50.8448L44.5401 58.6224L62.3669 65.7826L92.0783 53.3903L138.842 34.414L155.911 41.1881L109.575 60.495L80.6142 72.7228L102.46 81.855L132.409 69.8512C132.409 69.8512 168.788 55.2429 169.077 55.0944C169.493 54.8801 169.601 61.3704 169.601 86.3818V93.4847L168.557 93.8396C167.983 94.0352 167.247 94.7664 166.921 95.4653C166.403 96.5792 162.883 123.137 162.883 125.937C162.883 126.522 163.381 127.677 163.99 128.501L165.097 130H172.96H180.823L181.931 128.501C182.539 127.677 183.037 126.517 183.037 125.925C183.037 124.029 179.681 97.3514 179.284 96.0913C179.073 95.4243 178.321 94.5299 177.611 94.1045L176.319 93.3307V84.9705V52.1558L202.248 41.8317L179.723 31.5347L161.319 23.3522L142.975 15.8498L118.431 26.0831L71.6679 45.0598L54.8717 38.2045L125.664 9.0099L124.377 8.49505L122.565 7.75612C112.312 3.70855 102.631 0 102.631 0L77.6859 9.45211Z" fill="url(#paint1_linear_1340_579025)"/>
<defs>
<linearGradient id="paint0_linear_1340_579025" x1="5.49997" y1="40" x2="182" y2="44.5" gradientUnits="userSpaceOnUse">
<stop stop-color="#A3BAD6"/>
<stop offset="0.549588" stop-color="#4F77A8"/>
<stop offset="1" stop-color="#324C72"/>
</linearGradient>
<linearGradient id="paint1_linear_1340_579025" x1="5.49997" y1="40" x2="182" y2="44.5" gradientUnits="userSpaceOnUse">
<stop stop-color="#A3BAD6"/>
<stop offset="0.549588" stop-color="#4F77A8"/>
<stop offset="1" stop-color="#324C72"/>
</linearGradient>
</defs>
</svg>
