<svg width="114" height="114" viewBox="0 0 114 114" fill="none" xmlns="http://www.w3.org/2000/svg">
<path d="M74.0584 56.2803L110.951 56.2803V0.00288773L74.0584 0.00288773V56.2803Z" fill="#EBEBEB"/>
<path d="M95.3573 27.2861L110.951 27.2861V2.25347L95.3573 2.25347V27.2861Z" fill="white"/>
<path d="M78.0545 27.2861L93.6484 27.2861V2.25347L78.0545 2.25347V27.2861Z" fill="white"/>
<path d="M95.3573 54.0244H110.951V28.9918L95.3573 28.9918V54.0244Z" fill="white"/>
<path d="M78.0545 54.0244H93.6484V28.9918L78.0545 28.9918V54.0244Z" fill="white"/>
<path d="M88.2874 0H74.0547V80.5156H82.2923L76.5439 39.5447L88.2874 0Z" fill="#DBDBDB"/>
<path d="M85.8233 2.17773L83.5673 11.5352L81.2707 20.8844L76.6747 39.5776L76.6774 39.5315L78.8032 59.0679L79.8661 68.8375L80.883 78.6098L79.7333 68.851L78.6243 59.0869L76.409 39.5613L76.4062 39.5369L76.4144 39.5125L81.0972 20.8411L83.4399 11.5053L85.8233 2.17773Z" fill="#EBEBEB"/>
<path d="M74.9032 3.8291L74.9682 11.904L75.0062 19.9789L75.0387 36.1286L75.0062 52.2756L74.9682 60.3505L74.9032 68.4254L74.8354 60.3505L74.7974 52.2756L74.7676 36.1286L74.7974 19.9789L74.8354 11.904L74.9032 3.8291Z" fill="#EBEBEB"/>
<path d="M77.5616 5.3418L77.1223 13.9237L76.6424 22.5057L75.6771 39.6641C75.772 42.8528 75.8316 46.0388 75.913 49.2249L76.138 58.7857L76.3631 68.3464L76.5448 77.8991L76.2275 68.3546L75.9564 58.7938L75.6852 49.2357C75.5984 46.047 75.4927 42.861 75.4141 39.6749L76.4634 22.5192L77.0057 13.9427L77.5616 5.3418Z" fill="#EBEBEB"/>
<path d="M79.4148 76.6595L78.482 67.397L77.5791 58.1291C77.0016 51.9495 76.4023 45.7727 75.8438 39.5905V39.5552L78.482 25.1273L79.8242 17.9201L81.18 10.7129L79.9327 17.9418L78.6664 25.1652L76.1013 39.6122V39.5769C76.6924 45.7564 77.2375 51.9387 77.8069 58.1209L78.6203 67.3943L79.4148 76.6595Z" fill="#EBEBEB"/>
<path d="M74.0583 40.749H77.2715V38.8727H74.0583V40.749Z" fill="#DBDBDB"/>
<path d="M96.7168 0H110.947V80.5156H102.709L108.46 39.5447L96.7168 0Z" fill="#DBDBDB"/>
<path d="M99.1816 2.17773L101.565 11.5053L103.908 20.8411L108.591 39.5125L108.596 39.5369L108.593 39.5613L106.381 59.0869L105.272 68.851L104.122 78.6098L105.139 68.8375L106.202 59.0679L108.328 39.5315L108.33 39.5776L103.734 20.8844L101.438 11.5352L99.1816 2.17773Z" fill="#EBEBEB"/>
<path d="M110.102 3.8291L110.167 11.904L110.205 19.9789L110.238 36.1286L110.208 52.2756L110.17 60.3505L110.102 68.4254L110.037 60.3505L109.999 52.2756L109.967 36.1286L109.999 19.9789L110.037 11.904L110.102 3.8291Z" fill="#EBEBEB"/>
<path d="M107.455 5.3418L107.997 13.9183L108.54 22.4948L109.592 39.6505C109.521 42.8366 109.416 46.0226 109.321 49.2113L109.049 58.7694L108.778 68.3302L108.461 77.8882L108.643 68.3247L108.868 58.764L109.093 49.2032C109.171 46.0172 109.234 42.8311 109.329 39.6424L108.363 22.484L107.883 13.902L107.455 5.3418Z" fill="#EBEBEB"/>
<path d="M105.59 76.6593L106.371 67.3832L107.185 58.1099C107.754 51.9276 108.299 45.7454 108.89 39.5658V39.6119L106.32 25.1732L105.053 17.9497L103.822 10.71L105.178 17.9172L106.518 25.1271L109.156 39.555V39.5903C108.613 45.7725 107.998 51.9493 107.42 58.1288L106.52 67.3968L105.59 76.6593Z" fill="#EBEBEB"/>
<path d="M110.948 38.8691H107.734V40.7455H110.948V38.8691Z" fill="#DBDBDB"/>
<path d="M13.7457 70.1063C13.8472 71.6381 13.6501 73.1751 13.1654 74.6318C12.9383 75.3067 12.6535 75.9608 12.314 76.5868C11.8883 77.4002 11.4491 78.173 11.468 79.0895C11.5521 79.1546 11.2511 79.122 11.2484 79.0326C8.92465 77.4626 5.82539 76.9691 4.1307 74.5613C3.31724 73.4224 2.98644 72.0287 2.87798 70.654C2.76138 69.1572 2.82646 67.5141 3.31996 66.0851C3.73482 64.8785 4.54827 63.7451 5.76031 63.2299C6.97236 62.7147 8.56673 62.872 9.79504 63.36C12.4388 64.4148 13.564 67.449 13.7457 70.1063Z" fill="#EBEBEB"/>
<path d="M13.6051 88.1941C13.3583 87.0634 13.1143 85.9327 12.8567 84.8048C12.3578 82.5922 11.829 80.385 11.2298 78.1995C10.8682 76.8908 10.4805 75.5919 10.0665 74.3031C10.1825 73.5189 10.34 72.7414 10.5383 71.9739C10.8095 71.0493 11.1783 70.1599 11.5253 69.2624C11.547 69.2081 11.4575 69.1702 11.4304 69.2217C10.7851 70.45 9.94723 72.0227 9.80352 73.5249C9.31816 72.0661 8.79213 70.6208 8.21458 69.1865C8.22677 68.0182 8.35301 66.854 8.59148 65.7103C8.59164 65.7006 8.58855 65.6912 8.58272 65.6834C8.57688 65.6757 8.56863 65.6702 8.55928 65.6677C8.54993 65.6652 8.54001 65.6659 8.5311 65.6697C8.5222 65.6735 8.51482 65.6801 8.51013 65.6886C8.22534 66.6835 8.06593 67.7101 8.03562 68.7445C7.59364 67.6599 7.12184 66.6105 6.61208 65.5639C6.56598 65.469 6.43583 65.5503 6.47379 65.6425C7.25199 67.4728 7.9597 69.3329 8.61588 71.2147C7.57109 70.1585 6.33538 69.3101 4.97433 68.7146C4.91467 68.6875 4.86315 68.7716 4.92281 68.8014C6.39886 69.5751 7.7241 70.6074 8.83552 71.8492C9.3019 73.2266 9.74297 74.6113 10.1587 76.0032C8.75688 74.4034 6.75308 73.2618 4.78181 72.5813C4.71402 72.5596 4.68691 72.6626 4.75198 72.687C7.02694 73.5683 8.73519 75.0298 10.3865 76.7543C10.5492 77.3183 10.7083 77.8823 10.8637 78.4463C11.4476 80.5865 12.0008 82.7359 12.5232 84.8942C12.7726 85.93 13.0167 86.9667 13.2553 88.0043C13.5102 89.1215 13.6891 90.2928 14.0497 91.3774C14.085 91.4832 14.2667 91.4723 14.2531 91.3503C14.0909 90.2879 13.8746 89.2345 13.6051 88.1941Z" fill="#DBDBDB"/>
<path d="M11.126 67.763C10.6422 68.3924 10.2874 69.1111 10.082 69.8779C10.082 69.8969 10.1064 69.9132 10.1146 69.8915C10.4435 69.1807 10.8157 68.4906 11.229 67.8253C11.2724 67.7575 11.1721 67.7033 11.126 67.763Z" fill="#DBDBDB"/>
<path d="M6.39779 72.4947C5.75087 72.0672 5.03139 71.7612 4.27468 71.5918C4.2557 71.5918 4.23943 71.6162 4.27468 71.6243C4.61362 71.7979 4.97425 71.928 5.31861 72.0907C5.66297 72.2534 5.9992 72.4486 6.34899 72.6032C6.36215 72.6047 6.37547 72.602 6.387 72.5955C6.39854 72.589 6.40769 72.5789 6.41313 72.5668C6.41857 72.5548 6.42002 72.5412 6.41726 72.5283C6.4145 72.5153 6.40768 72.5036 6.39779 72.4947Z" fill="#DBDBDB"/>
<path d="M5.64636 66.3069C5.43956 66.124 5.21626 65.9606 4.97933 65.8189C4.97135 65.8141 4.96191 65.8124 4.95278 65.8141C4.94366 65.8159 4.93548 65.8209 4.9298 65.8282C4.92412 65.8356 4.92133 65.8448 4.92196 65.854C4.9226 65.8633 4.9266 65.872 4.93323 65.8785C5.13635 66.0652 5.35597 66.2331 5.58942 66.3801C5.6328 66.41 5.68974 66.3395 5.64636 66.3069Z" fill="#DBDBDB"/>
<path d="M21.2586 74.8049C19.4825 75.2577 17.7011 75.6699 15.925 76.1173C15.7732 76.158 13.0291 70.358 14.2141 67.473C15.2987 64.7994 17.6577 62.8634 20.399 62.05C21.668 61.6731 23.2217 61.3748 24.5341 61.7192C25.7 62.0256 26.4945 63.0207 26.8334 64.1433C27.2944 65.6671 27.0503 67.454 26.7087 68.9779C26.4268 70.4112 25.7785 71.7471 24.8269 72.8553C23.8535 73.9237 22.6414 74.4551 21.2586 74.8049Z" fill="#EBEBEB"/>
<path d="M24.0104 69.5043C22.8805 70.0031 21.7127 70.4111 20.518 70.7244C19.7219 70.9053 18.9426 71.1539 18.1888 71.4674C19.0023 69.8405 19.8726 68.257 20.7973 66.6897C21.9442 66.405 23.1563 65.9386 24.0511 65.1713C24.0591 65.1628 24.0638 65.1517 24.0644 65.14C24.0649 65.1283 24.0612 65.1168 24.054 65.1076C24.0468 65.0984 24.0365 65.0921 24.025 65.0898C24.0135 65.0876 24.0016 65.0896 23.9914 65.0954C23.0316 65.719 21.9849 66.0742 20.9328 66.4809C21.1823 66.0606 21.4345 65.6376 21.6921 65.2174C21.7626 65.1008 21.6026 64.976 21.5185 65.0872C20.5443 66.3915 19.6566 67.7584 18.8613 69.1789C18.7225 67.9015 18.7125 66.6134 18.8314 65.334C18.8296 65.3285 18.8262 65.3238 18.8216 65.3205C18.8169 65.3171 18.8114 65.3153 18.8057 65.3153C18.8 65.3153 18.7944 65.3171 18.7898 65.3205C18.7851 65.3238 18.7817 65.3285 18.7799 65.334C18.5063 66.723 18.4651 68.1478 18.6579 69.5504C17.9963 70.7543 17.3862 71.9907 16.833 73.2462C16.6622 72.4734 16.4317 71.7087 16.2907 70.9305C16.0634 69.8153 16.0185 68.6707 16.1579 67.5411C16.1579 67.5086 16.1145 67.5032 16.1064 67.5411C15.7132 69.6268 15.8836 71.7797 16.5999 73.7776C16.2772 74.5314 15.9681 75.2906 15.6807 76.0526C14.2069 79.93 13.2638 83.9888 12.877 88.1188C12.8778 88.1369 12.8851 88.154 12.8975 88.1672C12.9099 88.1804 12.9266 88.1888 12.9446 88.1907C12.9626 88.1927 12.9807 88.1881 12.9956 88.1779C13.0106 88.1677 13.0214 88.1525 13.0261 88.1351C13.644 84.0634 14.677 80.0657 16.1091 76.2044C16.6785 74.6941 17.3211 73.2217 18.0071 71.8009C19.0565 71.5298 20.1031 71.1583 21.1362 70.8465C22.1657 70.5793 23.1447 70.1461 24.0348 69.5639C24.0386 69.5587 24.041 69.5526 24.0417 69.5462C24.0425 69.5398 24.0416 69.5333 24.0392 69.5273C24.0367 69.5213 24.0328 69.5161 24.0278 69.5121C24.0227 69.508 24.0168 69.5053 24.0104 69.5043Z" fill="#DBDBDB"/>
<path d="M25.7116 67.9183C24.627 68.2573 23.5885 68.7508 22.5012 69.0978C22.4497 69.1141 22.4741 69.1928 22.5256 69.1846C23.6698 68.9948 24.8087 68.6884 25.7523 67.9807C25.7875 67.9536 25.7496 67.9048 25.7116 67.9183Z" fill="#DBDBDB"/>
<path d="M17.0417 65.2605C17.0417 65.2035 16.9739 65.1683 16.9549 65.2252C16.6214 66.2041 16.3774 67.2453 16.6241 68.2675C16.6241 68.3082 16.6973 68.3109 16.7 68.2675C16.7922 67.248 16.7732 66.2556 17.0417 65.2605Z" fill="#DBDBDB"/>
<path d="M21.5648 63.1485C21.1972 63.6242 21.0056 64.2125 21.0225 64.8134C21.0225 64.8514 21.0822 64.8758 21.093 64.8297C21.2449 64.2684 21.4835 63.7614 21.6787 63.219C21.6807 63.205 21.6785 63.1907 21.6725 63.1778C21.6664 63.165 21.6568 63.1542 21.6447 63.1467C21.6327 63.1392 21.6187 63.1354 21.6045 63.1358C21.5903 63.1361 21.5765 63.1405 21.5648 63.1485Z" fill="#DBDBDB"/>
<path d="M26.8442 78.8537C26.329 80.4806 25.1062 82.7447 23.1701 82.7637C21.9147 82.7637 20.6511 82.6254 19.3903 82.6091C18.0345 82.5874 16.6788 82.5902 15.3474 82.6715C15.2363 82.6715 15.5101 78.6341 18.7477 76.6655C19.656 76.1232 20.765 75.9388 21.7954 75.7165C22.9747 75.4378 24.1849 75.3121 25.3963 75.3423C26.1392 75.3721 26.752 75.5294 27.0232 76.2913C27.2943 77.0532 27.091 78.0755 26.8442 78.8537Z" fill="#EBEBEB"/>
<path d="M25.4516 76.809C24.6653 77.0096 23.8708 77.2428 23.0818 77.495C23.2871 77.2711 23.5044 77.0584 23.7325 76.8578C24.0742 76.5866 24.4457 76.3507 24.8171 76.104C24.847 76.0823 24.8171 76.0226 24.79 76.0389C24.0231 76.3572 23.3608 76.8842 22.8784 77.5601C21.8941 77.8773 20.918 78.2271 19.9798 78.6121C19.3312 78.8772 18.71 79.2051 18.1251 79.591C18.312 79.1817 18.5362 78.7905 18.7949 78.4223C19.226 77.8638 19.8063 77.5546 20.3703 77.1588C20.379 77.1508 20.3848 77.14 20.3865 77.1283C20.3883 77.1166 20.3859 77.1046 20.3798 77.0944C20.3738 77.0842 20.3644 77.0764 20.3533 77.0723C20.3422 77.0682 20.33 77.0681 20.3187 77.072C19.7303 77.328 19.2019 77.7041 18.7672 78.1762C18.3325 78.6482 18.0011 79.2059 17.7943 79.8133C17.1179 80.2947 16.5008 80.8545 15.9559 81.4809C13.8111 83.9213 12.1246 87.1534 12.1191 90.4587C12.1191 90.5373 12.2439 90.5618 12.2601 90.4777C12.8109 87.2373 14.2232 84.2047 16.3491 81.6978C16.5046 81.5171 16.6618 81.3462 16.8209 81.1854C17.4079 81.1058 17.9992 81.0614 18.5915 81.0525C19.2802 81.0525 19.9662 81.1555 20.6523 81.2098C21.783 81.302 23.033 81.3155 24.0525 80.7461C24.0986 80.7217 24.0688 80.6431 24.0172 80.662C21.745 81.489 19.3589 80.4397 17.0785 80.9332C18.0526 80.0048 19.1934 79.2688 20.4408 78.764L20.6495 78.6799C22.1083 78.8562 23.6512 79.2358 25.072 78.7613C25.1127 78.7477 25.0964 78.6826 25.053 78.6962C23.6783 79.0378 22.3632 78.6067 21.0075 78.5389C22.4825 77.9641 23.9901 77.5058 25.4679 76.9364C25.5845 76.8876 25.5872 76.7737 25.4516 76.809Z" fill="#DBDBDB"/>
<path d="M26.1108 78.2463C25.4056 78.3376 24.696 78.391 23.985 78.4063C23.9687 78.4063 23.9633 78.4334 23.985 78.4361C24.6993 78.5676 25.4351 78.5211 26.1271 78.3005C26.1343 78.2984 26.1403 78.2935 26.1439 78.2868C26.1475 78.2802 26.1482 78.2725 26.1461 78.2653C26.1439 78.2581 26.139 78.2521 26.1324 78.2485C26.1258 78.2449 26.118 78.2442 26.1108 78.2463Z" fill="#DBDBDB"/>
<path d="M21.2972 76.8445C20.9045 77.0204 20.5485 77.2688 20.2478 77.5767C20.2099 77.6092 20.2478 77.6743 20.2993 77.6444C20.4783 77.5143 20.6627 77.3923 20.8416 77.273C21.0185 77.1754 21.1896 77.0676 21.3541 76.9503C21.4083 76.9096 21.3568 76.8256 21.2972 76.8445Z" fill="#DBDBDB"/>
<path d="M9.86067 82.1042C9.88236 82.1585 9.80644 82.2073 9.77661 82.1503C9.77074 82.159 9.76313 82.1664 9.75426 82.172C9.74539 82.1776 9.73546 82.1813 9.72509 82.1829C8.42375 82.4941 7.10431 82.7241 5.77442 82.8716C4.70338 82.9665 3.46693 83.0261 2.52061 82.4052C1.24892 81.5619 0.41377 79.3087 1.09978 77.8797C1.91323 76.1796 4.35359 77.1015 5.59004 77.7062C7.48401 78.6278 8.99512 80.184 9.86067 82.1042Z" fill="#EBEBEB"/>
<path d="M10.8089 82.8908C10.0947 82.2027 9.30203 81.6011 8.44715 81.0985C7.82917 80.1233 7.01012 79.2913 6.04475 78.6581C5.99866 78.6283 5.95799 78.7015 6.00137 78.734C6.76747 79.3464 7.44622 80.0608 8.01873 80.8571C7.06548 80.333 6.07491 79.8799 5.05505 79.5014C4.69053 78.826 4.13754 78.2711 3.4634 77.9043C3.4634 77.9043 3.43357 77.9179 3.44713 77.926C4.00383 78.3493 4.48903 78.8593 4.88423 79.4363C4.28227 79.2112 3.67489 79.0025 3.0648 78.8018C3.01057 78.7828 2.99159 78.8669 3.04311 78.8859C4.12772 79.3089 5.2313 79.7563 6.29692 80.2687C4.98922 80.4775 3.65667 80.4775 2.34897 80.2687C2.34177 80.2676 2.3344 80.2691 2.32825 80.273C2.3221 80.277 2.3176 80.283 2.3156 80.29C2.3136 80.297 2.31423 80.3045 2.31738 80.3111C2.32053 80.3176 2.32598 80.3228 2.3327 80.3257C3.69818 80.7284 5.14783 80.75 6.52469 80.388C7.20776 80.7206 7.87134 81.0918 8.51223 81.4998C7.97259 81.4566 7.42953 81.5014 6.9043 81.6326C5.98202 81.8431 5.03844 81.946 4.09247 81.939C4.05722 81.939 4.04637 81.996 4.09247 82.0014C5.71937 82.2725 7.27849 81.5404 8.90268 81.7302C9.50375 82.1417 10.0689 82.6035 10.592 83.1104C11.6038 84.1234 12.4379 85.2994 13.0594 86.5893C13.7427 87.9803 14.1115 89.4553 14.6646 90.8924C14.6682 90.9057 14.677 90.9171 14.6889 90.9239C14.7009 90.9308 14.7151 90.9326 14.7284 90.929C14.7417 90.9254 14.753 90.9167 14.7599 90.9048C14.7667 90.8928 14.7686 90.8786 14.765 90.8653C14.285 88.0345 12.8723 84.9081 10.8089 82.8908Z" fill="#DBDBDB"/>
<path d="M5.86922 79.0049C5.76162 78.8114 5.6202 78.6388 5.45165 78.4952C5.3119 78.3448 5.1455 78.2216 4.96087 78.1318C4.9446 78.1318 4.93646 78.1481 4.9446 78.159C5.08017 78.3135 5.26727 78.4301 5.41098 78.5711C5.55469 78.7121 5.68213 78.8883 5.82584 79.0321C5.82943 79.0378 5.83517 79.0419 5.84178 79.0434C5.84839 79.045 5.85533 79.0438 5.86109 79.0402C5.86684 79.0366 5.87093 79.0309 5.87246 79.0243C5.87398 79.0176 5.87282 79.0107 5.86922 79.0049Z" fill="#DBDBDB"/>
<path d="M3.16773 79.8838C2.9264 79.8214 2.66881 79.8268 2.42206 79.7753C2.17643 79.7182 1.93463 79.6458 1.69809 79.5584C1.69103 79.5559 1.68327 79.5561 1.67636 79.559C1.66946 79.562 1.66391 79.5674 1.66083 79.5742C1.65775 79.5811 1.65736 79.5888 1.65975 79.5959C1.66213 79.6031 1.66711 79.609 1.67369 79.6126C2.12048 79.8883 2.64518 80.0102 3.16773 79.9597C3.1754 79.9567 3.182 79.9515 3.18665 79.9448C3.19131 79.938 3.1938 79.93 3.1938 79.9217C3.1938 79.9135 3.19131 79.9055 3.18665 79.8987C3.182 79.8919 3.1754 79.8867 3.16773 79.8838Z" fill="#DBDBDB"/>
<path d="M18.5992 85.8896L18.3307 88.9238L17.4251 99.1652H9.40443L8.27101 88.9238L7.9375 85.8896H18.5992Z" fill="#C7C7C7"/>
<path d="M18.5992 85.8896L18.3307 88.9238H8.27101L7.9375 85.8896H18.5992Z" fill="#A6A6A6"/>
<path d="M19.3932 85.0625H7.14258V87.5246H19.3932V85.0625Z" fill="#C7C7C7"/>
<path d="M65.6685 15.7812H57.0215V17.88H65.6685V15.7812Z" fill="#EBEBEB"/>
<path d="M62.3926 21.1529V12.5059H60.2939V21.1529H62.3926Z" fill="#EBEBEB"/>
<path d="M18.3228 20.9111H9.67578V23.0098H18.3228V20.9111Z" fill="#EBEBEB"/>
<path d="M14.0005 19.7345C14.5801 19.7345 15.0499 19.2646 15.0499 18.6851C15.0499 18.1056 14.5801 17.6357 14.0005 17.6357C13.421 17.6357 12.9512 18.1056 12.9512 18.6851C12.9512 19.2646 13.421 19.7345 14.0005 19.7345Z" fill="#EBEBEB"/>
<path d="M14.0005 26.2823C14.5801 26.2823 15.0499 25.8125 15.0499 25.2329C15.0499 24.6534 14.5801 24.1836 14.0005 24.1836C13.421 24.1836 12.9512 24.6534 12.9512 25.2329C12.9512 25.8125 13.421 26.2823 14.0005 26.2823Z" fill="#EBEBEB"/>
<path d="M36.4034 3.21279L30.2891 9.32715L31.7731 10.8112L37.8874 4.6968L36.4034 3.21279Z" fill="#EBEBEB"/>
<path d="M37.8858 9.3292L31.7715 3.21484L30.2875 4.69885L36.4018 10.8132L37.8858 9.3292Z" fill="#EBEBEB"/>
<path d="M12.3189 42.5195H3.67188V44.6182H12.3189V42.5195Z" fill="#EBEBEB"/>
<path d="M12.3189 38.623H3.67188V40.7218H12.3189V38.623Z" fill="#EBEBEB"/>
<path d="M110.794 108.005C110.794 111.064 86.7211 113.542 57.0219 113.542C27.3228 113.542 3.25 111.064 3.25 108.005C3.25 104.947 27.3228 102.468 57.0219 102.468C86.7211 102.468 110.794 104.96 110.794 108.005Z" fill="#EBEBEB"/>
<path d="M1.9707 99.1143L15.7343 99.0492L29.4952 99.0248L57.0198 98.9814L84.5443 99.0248L98.3052 99.0492L112.066 99.1143L98.3052 99.1821L84.5443 99.2065L57.0198 99.2499L29.4952 99.2065L15.7343 99.1821L1.9707 99.1143Z" fill="#263238"/>
<path d="M104.429 22.834H49.6426V108.008H104.429V22.834Z" fill="#FFD427"/>
<path d="M100.46 22.834H45.6738V108.008H100.46V22.834Z" fill="#FFD427"/>
<path opacity="0.1" d="M100.46 22.834H45.6738V108.008H100.46V22.834Z" fill="black"/>
<path d="M60.4268 44.564H49.8926V55.0982H60.4268V44.564Z" fill="white"/>
<path d="M72.3623 44.5635H61.8281V55.0977H72.3623V44.5635Z" fill="white"/>
<path d="M84.3018 44.564H73.7676V55.0982H84.3018V44.564Z" fill="#FFD427"/>
<path d="M96.2373 44.5635H85.7031V55.0977H96.2373V44.5635Z" fill="#FFD427"/>
<path d="M60.4268 56.647H49.8926V67.1812H60.4268V56.647Z" fill="#37474F"/>
<path d="M72.3623 56.6465H61.8281V67.1807H72.3623V56.6465Z" fill="#37474F"/>
<path d="M84.3018 56.647H73.7676V67.1812H84.3018V56.647Z" fill="#37474F"/>
<path d="M96.2373 56.7217H85.7031V67.2559H96.2373V56.7217Z" fill="white"/>
<path d="M60.4268 68.729H49.8926V79.2632H60.4268V68.729Z" fill="#37474F"/>
<path d="M72.3623 68.7285H61.8281V79.2627H72.3623V68.7285Z" fill="#37474F"/>
<path d="M84.3018 68.729H73.7676V79.2632H84.3018V68.729Z" fill="#37474F"/>
<path d="M96.2373 68.7285H85.7031V79.2627H96.2373V68.7285Z" fill="white"/>
<path d="M60.4268 80.812H49.8926V91.3462H60.4268V80.812Z" fill="#37474F"/>
<path d="M72.3623 80.8115H61.8281V91.3457H72.3623V80.8115Z" fill="#37474F"/>
<path d="M84.3018 80.812H73.7676V91.3462H84.3018V80.812Z" fill="#37474F"/>
<path d="M96.2373 80.8115H85.7031V91.3457H96.2373V80.8115Z" fill="white"/>
<path d="M60.4268 92.894H49.8926V103.428H60.4268V92.894Z" fill="#37474F"/>
<path d="M72.3623 92.8936H61.8281V103.428H72.3623V92.8936Z" fill="#37474F"/>
<path d="M84.3018 92.894H73.7676V103.428H84.3018V92.894Z" fill="white"/>
<path d="M96.2373 92.8936H85.7031V103.428H96.2373V92.8936Z" fill="white"/>
<path d="M53.5933 48.8071C53.5874 48.7072 53.6018 48.6071 53.6357 48.513C53.6696 48.4188 53.7222 48.3325 53.7904 48.2593C53.8586 48.186 53.9409 48.1274 54.0324 48.0868C54.1238 48.0463 54.2226 48.0247 54.3227 48.0234C54.4215 48.0247 54.5191 48.0461 54.6095 48.0862C54.6998 48.1264 54.7811 48.1845 54.8483 48.257C54.9155 48.3296 54.9673 48.415 55.0004 48.5082C55.0336 48.6013 55.0475 48.7002 55.0412 48.7989C55.0471 48.899 55.0326 48.9991 54.9988 49.0934C54.9649 49.1877 54.9124 49.2742 54.8442 49.3477C54.7761 49.4211 54.6938 49.48 54.6023 49.5209C54.5108 49.5617 54.412 49.5836 54.3118 49.5853C54.2128 49.5836 54.1152 49.5619 54.0248 49.5215C53.9344 49.481 53.8532 49.4227 53.786 49.3499C53.7189 49.2772 53.6671 49.1915 53.634 49.0982C53.6009 49.0049 53.587 48.9059 53.5933 48.8071ZM54.6507 48.8071C54.6507 48.563 54.5097 48.3597 54.3118 48.3597C54.1139 48.3597 53.9837 48.563 53.9837 48.7989C53.9837 49.0511 54.1247 49.2463 54.3227 49.2463C54.5206 49.2463 54.6507 49.043 54.6507 48.8071ZM54.1084 50.8543L56.1231 48.1048C56.1384 48.0793 56.1604 48.0585 56.1867 48.0446C56.213 48.0308 56.2426 48.0244 56.2722 48.0261C56.2949 48.0258 56.3174 48.0299 56.3384 48.0384C56.3595 48.0468 56.3786 48.0593 56.3948 48.0752C56.4109 48.0911 56.4238 48.1101 56.4325 48.131C56.4413 48.1519 56.4458 48.1743 56.4458 48.197C56.4449 48.2379 56.4316 48.2776 56.4078 48.3109L54.3932 51.0603C54.3762 51.0849 54.3535 51.1049 54.3271 51.1186C54.3006 51.1323 54.2711 51.1393 54.2413 51.139C54.2188 51.1393 54.1964 51.1352 54.1755 51.1267C54.1546 51.1182 54.1356 51.1057 54.1197 51.0897C54.1038 51.0738 54.0912 51.0548 54.0827 51.0339C54.0743 51.013 54.0701 50.9907 54.0705 50.9681C54.0678 50.9283 54.0773 50.8886 54.0976 50.8543H54.1084ZM55.4642 50.377C55.4583 50.2771 55.4728 50.1771 55.5066 50.0829C55.5405 49.9888 55.5931 49.9025 55.6613 49.8292C55.7295 49.756 55.8118 49.6973 55.9033 49.6568C55.9948 49.6163 56.0935 49.5947 56.1936 49.5934C56.2924 49.5951 56.3898 49.6167 56.4799 49.657C56.5701 49.6972 56.6512 49.7554 56.7183 49.8278C56.7855 49.9003 56.8373 49.9856 56.8706 50.0785C56.9039 50.1715 56.918 50.2703 56.9121 50.3689C56.918 50.4687 56.9037 50.5686 56.87 50.6628C56.8363 50.7569 56.784 50.8433 56.7161 50.9167C56.6483 50.9901 56.5663 51.0491 56.4751 51.0901C56.3839 51.131 56.2854 51.1532 56.1855 51.1552C56.085 51.1558 55.9854 51.1357 55.893 51.0963C55.8006 51.0568 55.7172 50.9988 55.6481 50.9259C55.579 50.853 55.5256 50.7666 55.4911 50.6722C55.4567 50.5778 55.442 50.4773 55.4479 50.377H55.4642ZM56.5217 50.377C56.5217 50.133 56.3807 49.9296 56.1855 49.9296C55.9902 49.9296 55.8547 50.133 55.8547 50.3689C55.8547 50.6211 55.9957 50.8163 56.1936 50.8163C56.3915 50.8163 56.5054 50.6129 56.5054 50.377H56.5217Z" fill="#37474F"/>
<path d="M76.3652 49.5398C76.373 49.1183 76.5458 48.7167 76.8464 48.4211C77.1471 48.1256 77.5516 47.9597 77.9732 47.959C78.3404 47.9561 78.6978 48.0775 78.9873 48.3034C79.0343 48.3459 79.0636 48.4046 79.0693 48.4678C79.0751 48.5309 79.0568 48.5939 79.0181 48.6442C78.9795 48.6945 78.9233 48.7283 78.8608 48.739C78.7983 48.7498 78.7341 48.7365 78.6809 48.702C78.4803 48.5414 78.23 48.4561 77.9732 48.4607C77.6799 48.4623 77.3981 48.5746 77.1841 48.7752C76.9804 48.9777 76.8654 49.2527 76.8642 49.5398C76.8638 49.6818 76.8919 49.8224 76.9468 49.9533C77.0018 50.0842 77.0825 50.2027 77.1841 50.3018C77.3978 50.5031 77.6796 50.6164 77.9732 50.619C78.2299 50.6232 78.4801 50.5378 78.6809 50.3777C78.7351 50.3424 78.8001 50.3276 78.8643 50.3361C78.9284 50.3445 78.9874 50.3756 79.0306 50.4238C79.067 50.4779 79.0827 50.5434 79.0747 50.6081C79.0667 50.6729 79.0357 50.7326 78.9873 50.7763C78.6968 51.0001 78.3398 51.1204 77.9732 51.1179C77.5514 51.1194 77.1461 50.9546 76.8451 50.6592C76.5441 50.3637 76.3717 49.9616 76.3652 49.5398Z" fill="#37474F"/>
<path d="M79.8819 50.8765V48.2897C79.8811 48.2578 79.8869 48.2261 79.8987 48.1965C79.9106 48.1669 79.9284 48.14 79.9509 48.1174C79.9735 48.0949 80.0004 48.0771 80.03 48.0653C80.0596 48.0534 80.0913 48.0477 80.1232 48.0484H81.5549C81.6148 48.0547 81.6703 48.0831 81.7106 48.1279C81.7509 48.1727 81.7732 48.2308 81.7732 48.2911C81.7732 48.3514 81.7509 48.4095 81.7106 48.4543C81.6703 48.4991 81.6148 48.5274 81.5549 48.5338H80.3672V49.3472H81.3895C81.4542 49.3472 81.5163 49.3729 81.562 49.4187C81.6078 49.4645 81.6335 49.5265 81.6335 49.5913C81.6335 49.656 81.6078 49.718 81.562 49.7638C81.5163 49.8096 81.4542 49.8353 81.3895 49.8353H80.3672V50.6487H81.5549C81.6192 50.6508 81.6801 50.6777 81.7251 50.7236C81.7701 50.7696 81.7955 50.8312 81.7962 50.8955C81.7948 50.9591 81.769 51.0196 81.724 51.0646C81.679 51.1096 81.6185 51.1354 81.5549 51.1368H80.1341C80.0997 51.1389 80.0653 51.1336 80.0332 51.1211C80.0011 51.1087 79.972 51.0894 79.9481 51.0647C79.9241 51.0399 79.9058 51.0103 79.8944 50.9778C79.883 50.9454 79.8787 50.9108 79.8819 50.8765Z" fill="#37474F"/>
<path d="M89.6035 49.5403C89.6113 49.1188 89.7841 48.7172 90.0847 48.4216C90.3853 48.1261 90.7899 47.9602 91.2114 47.9595C91.5787 47.9566 91.9361 48.0779 92.2255 48.3039C92.2726 48.3464 92.3019 48.4051 92.3076 48.4682C92.3133 48.5314 92.295 48.5944 92.2564 48.6447C92.2177 48.6949 92.1616 48.7288 92.0991 48.7395C92.0366 48.7502 91.9723 48.737 91.9191 48.7025C91.7184 48.5423 91.4682 48.457 91.2114 48.4612C90.9182 48.4628 90.6364 48.5751 90.4224 48.7757C90.2187 48.9782 90.1036 49.2531 90.1024 49.5403C90.102 49.6823 90.1302 49.8229 90.1851 49.9538C90.2401 50.0846 90.3208 50.2032 90.4224 50.3023C90.6361 50.5036 90.9179 50.6169 91.2114 50.6195C91.4681 50.6232 91.7182 50.5379 91.9191 50.3782C91.9734 50.3429 92.0384 50.3281 92.1026 50.3366C92.1667 50.345 92.2257 50.3761 92.2689 50.4243C92.3053 50.4784 92.3209 50.5439 92.313 50.6086C92.305 50.6734 92.274 50.7331 92.2255 50.7768C91.9348 51.0001 91.578 51.1203 91.2114 51.1184C90.7897 51.1199 90.3843 50.9551 90.0833 50.6596C89.7823 50.3642 89.6099 49.962 89.6035 49.5403Z" fill="#37474F"/>
<path d="M56.1218 60.7031L55.0372 63.2953C55.0198 63.3397 54.9891 63.3776 54.9493 63.4038C54.9095 63.43 54.8625 63.4433 54.8148 63.4417C54.7831 63.4417 54.7518 63.4352 54.7226 63.4227C54.6642 63.3975 54.6178 63.3507 54.593 63.2921C54.5683 63.2335 54.5671 63.1676 54.5898 63.1082L55.5388 60.8576H54.4054C54.3411 60.8555 54.2801 60.8287 54.2352 60.7827C54.1902 60.7367 54.1647 60.6752 54.1641 60.6109C54.1641 60.5469 54.1895 60.4855 54.2347 60.4402C54.28 60.395 54.3414 60.3695 54.4054 60.3695H55.9103C55.9246 60.3671 55.9393 60.3671 55.9537 60.3695C55.9858 60.3772 56.0168 60.3891 56.0459 60.4048V60.4183C56.0459 60.4183 56.0594 60.4183 56.0621 60.4346C56.0648 60.4509 56.0757 60.4482 56.0811 60.4536C56.0865 60.459 56.0811 60.4672 56.0811 60.4699V60.4916L56.0974 60.516C56.0974 60.516 56.0974 60.5322 56.0974 60.5377C56.0989 60.5448 56.0989 60.5522 56.0974 60.5593C56.1029 60.5907 56.1029 60.6229 56.0974 60.6542C56.1087 60.6687 56.117 60.6853 56.1218 60.7031Z" fill="white"/>
<path d="M68.0538 62.3894C68.0543 62.5711 68.0076 62.7498 67.9184 62.908C67.8291 63.0663 67.7002 63.1986 67.5444 63.2921C67.3887 63.3856 67.2113 63.4371 67.0296 63.4414C66.848 63.4458 66.6683 63.4029 66.5082 63.317C66.3481 63.2311 66.2131 63.1051 66.1163 62.9513C66.0195 62.7975 65.9643 62.6213 65.9561 62.4397C65.9479 62.2582 65.987 62.0777 66.0695 61.9158C66.152 61.754 66.2752 61.6163 66.4269 61.5163C66.3583 61.4244 66.3126 61.3176 66.2934 61.2046C66.2742 61.0917 66.2821 60.9757 66.3164 60.8664C66.3508 60.7571 66.4106 60.6574 66.4909 60.5757C66.5713 60.494 66.6699 60.4326 66.7786 60.3964C66.8874 60.3602 67.0031 60.3504 67.1164 60.3677C67.2297 60.385 67.3373 60.4289 67.4303 60.4959C67.5233 60.5629 67.599 60.651 67.6513 60.7529C67.7036 60.8549 67.731 60.9678 67.7311 61.0824C67.7315 61.2392 67.68 61.3918 67.5847 61.5163C67.7286 61.6121 67.8467 61.7419 67.9285 61.8941C68.0103 62.0464 68.0533 62.2165 68.0538 62.3894ZM67.5738 62.3894C67.5739 62.239 67.5147 62.0947 67.4092 61.9877C67.3036 61.8806 67.1602 61.8194 67.0099 61.8173C66.8581 61.818 66.7127 61.8784 66.6051 61.9855C66.4975 62.0925 66.4364 62.2376 66.435 62.3894C66.4372 62.5402 66.4987 62.684 66.6064 62.7897C66.714 62.8953 66.859 62.9541 67.0099 62.9534C67.1594 62.9534 67.3029 62.894 67.4087 62.7882C67.5144 62.6824 67.5738 62.539 67.5738 62.3894ZM66.7604 61.0824C66.7604 61.1479 66.7864 61.2106 66.8327 61.2569C66.8789 61.3032 66.9417 61.3292 67.0071 61.3292C67.0726 61.3292 67.1353 61.3032 67.1816 61.2569C67.2279 61.2106 67.2539 61.1479 67.2539 61.0824C67.2532 61.0187 67.2275 60.9577 67.1824 60.9126C67.1373 60.8675 67.0763 60.8418 67.0126 60.8411C66.9792 60.84 66.9461 60.8457 66.915 60.8578C66.8839 60.8698 66.8556 60.8881 66.8318 60.9114C66.808 60.9347 66.7892 60.9626 66.7764 60.9934C66.7637 61.0242 66.7573 61.0572 66.7577 61.0906L66.7604 61.0824Z" fill="white"/>
<path d="M77.916 61.4326C77.9214 61.1631 78.0287 60.9056 78.2163 60.7121C78.4039 60.5186 78.6579 60.4033 78.9271 60.3896C79.1962 60.3758 79.4606 60.4646 79.667 60.638C79.8733 60.8114 80.0063 61.0566 80.0391 61.3241C80.0391 61.4055 80.0391 61.4895 80.0391 61.5736C80.0425 61.8796 79.9901 62.1838 79.8846 62.4711C79.7793 62.7748 79.581 63.0376 79.3179 63.2222C79.1228 63.3511 78.8954 63.4225 78.6617 63.4282C78.6296 63.4297 78.5976 63.4248 78.5674 63.4139C78.5373 63.4029 78.5095 63.3862 78.4859 63.3645C78.4622 63.3428 78.443 63.3167 78.4295 63.2877C78.4159 63.2586 78.4082 63.2271 78.4068 63.1951C78.406 63.1307 78.4301 63.0685 78.4741 63.0216C78.518 62.9746 78.5784 62.9464 78.6427 62.9429C78.7888 62.9391 78.9312 62.896 79.0548 62.8181C79.1689 62.7397 79.262 62.6345 79.326 62.5118C79.3482 62.4755 79.3673 62.4374 79.3829 62.3979C79.2505 62.456 79.1073 62.4855 78.9627 62.4846C78.6852 62.4811 78.4203 62.369 78.2246 62.1723C78.0289 61.9756 77.9181 61.71 77.916 61.4326ZM78.4041 61.4326C78.3987 61.5116 78.4095 61.5908 78.436 61.6654C78.4625 61.74 78.5041 61.8084 78.5581 61.8663C78.6122 61.9242 78.6775 61.9703 78.7502 62.0018C78.8228 62.0334 78.9011 62.0497 78.9803 62.0497C79.0595 62.0497 79.1378 62.0334 79.2104 62.0018C79.283 61.9703 79.3484 61.9242 79.4024 61.8663C79.4565 61.8084 79.498 61.74 79.5245 61.6654C79.551 61.5908 79.5619 61.5116 79.5565 61.4326C79.5465 61.2866 79.4814 61.1498 79.3744 61.05C79.2675 60.9501 79.1266 60.8946 78.9803 60.8946C78.8339 60.8946 78.6931 60.9501 78.5861 61.05C78.4792 61.1498 78.4141 61.2866 78.4041 61.4326Z" fill="white"/>
<path d="M90.0293 61.9914C90.0293 61.9195 90.0579 61.8505 90.1087 61.7996C90.1596 61.7488 90.2285 61.7202 90.3004 61.7202H91.6562C91.7136 61.7358 91.7644 61.7699 91.8005 61.8172C91.8367 61.8645 91.8562 61.9223 91.8562 61.9819C91.8562 62.0414 91.8367 62.0993 91.8005 62.1466C91.7644 62.1938 91.7136 62.2279 91.6562 62.2435H90.3004C90.2317 62.2437 90.1655 62.2178 90.1151 62.1709C90.0648 62.1241 90.0341 62.0599 90.0293 61.9914Z" fill="#37474F"/>
<path d="M56.3359 74.632C56.3359 74.6642 56.3295 74.696 56.317 74.7256C56.3046 74.7553 56.2863 74.7821 56.2633 74.8046C56.2403 74.8271 56.2131 74.8447 56.1832 74.8566C56.1533 74.8684 56.1213 74.8741 56.0891 74.8733H56.0458V75.2069C56.0458 75.2709 56.0203 75.3322 55.9751 75.3775C55.9298 75.4228 55.8684 75.4482 55.8044 75.4482C55.7404 75.4482 55.6791 75.4228 55.6338 75.3775C55.5885 75.3322 55.5631 75.2709 55.5631 75.2069V74.8625H54.183C54.128 74.8648 54.0745 74.8453 54.0338 74.8083C54.0084 74.7894 53.987 74.7655 53.9711 74.7381C53.9551 74.7107 53.9449 74.6804 53.9411 74.6489C53.9373 74.6174 53.94 74.5855 53.9489 74.5551C53.9579 74.5247 53.9729 74.4964 53.9931 74.472L55.6201 72.4547V72.4357C55.6278 72.4371 55.6359 72.4366 55.6434 72.4343C55.651 72.4319 55.6579 72.4277 55.6634 72.4221C55.6634 72.4221 55.6634 72.4221 55.6797 72.4086C55.696 72.395 55.6797 72.4086 55.7068 72.4086C55.7339 72.4086 55.7068 72.395 55.7231 72.395H55.7502C55.7563 72.3973 55.7631 72.3973 55.7692 72.395H55.8424C55.8494 72.3975 55.8571 72.3975 55.8641 72.395C55.8641 72.395 55.8831 72.395 55.8912 72.395H55.9075L55.9319 72.4113C55.9319 72.4113 55.9319 72.4113 55.9536 72.4249H55.9671L55.9861 72.4438V72.4601C55.9937 72.4661 56.0001 72.4735 56.0051 72.4818C56.003 72.4879 56.003 72.4946 56.0051 72.5008C56.007 72.5088 56.007 72.5172 56.0051 72.5252C56.0051 72.5252 56.0051 72.5387 56.0051 72.5442C56.008 72.552 56.008 72.5607 56.0051 72.5686C56.0051 72.5686 56.0051 72.5821 56.0051 72.593V74.3771H56.0485C56.0849 74.3705 56.1223 74.3722 56.158 74.3822C56.1936 74.3921 56.2265 74.4101 56.2542 74.4346C56.2819 74.4592 56.3037 74.4897 56.3178 74.5239C56.332 74.5581 56.3381 74.5951 56.3359 74.632ZM55.5631 73.3061L54.69 74.3907H55.5631V73.3061Z" fill="white"/>
<path d="M67.6748 73.5881C67.7767 73.6893 67.8574 73.8097 67.9123 73.9424C67.9672 74.0751 67.9953 74.2173 67.9948 74.3609C67.9937 74.6505 67.8788 74.928 67.6748 75.1336C67.5743 75.2348 67.4547 75.3152 67.323 75.3701C67.1914 75.425 67.0502 75.4534 66.9075 75.4536C66.7656 75.4538 66.625 75.4257 66.4942 75.3707C66.3633 75.3158 66.2448 75.2351 66.1456 75.1336C66.1218 75.1109 66.1028 75.0835 66.0899 75.0532C66.077 75.0229 66.0703 74.9903 66.0703 74.9574C66.0703 74.9245 66.077 74.8919 66.0899 74.8616C66.1028 74.8313 66.1218 74.8039 66.1456 74.7812C66.1922 74.7353 66.255 74.7096 66.3204 74.7096C66.3859 74.7096 66.4487 74.7353 66.4953 74.7812C66.5499 74.837 66.6151 74.8814 66.687 74.9116C66.7589 74.9419 66.8362 74.9575 66.9143 74.9575C66.9923 74.9575 67.0696 74.9419 67.1415 74.9116C67.2135 74.8814 67.2786 74.837 67.3332 74.7812C67.4442 74.6714 67.5075 74.5224 67.5094 74.3663C67.5094 74.2093 67.4473 74.0586 67.3365 73.9474C67.2257 73.8361 67.0754 73.7732 66.9183 73.7725C66.8401 73.7717 66.7624 73.7863 66.6898 73.8156C66.6172 73.845 66.5511 73.8883 66.4953 73.9433C66.4724 73.9663 66.4452 73.9846 66.4151 73.9971C66.3851 74.0096 66.3529 74.016 66.3204 74.016C66.2879 74.016 66.2558 74.0096 66.2257 73.9971C66.1957 73.9846 66.1685 73.9663 66.1456 73.9433C66.1266 73.927 66.1157 73.9053 66.0968 73.8864C66.0778 73.8674 66.0968 73.8728 66.0968 73.8728C66.0992 73.8658 66.0992 73.8581 66.0968 73.8511C66.0968 73.8375 66.0968 73.8294 66.0968 73.8213C66.0913 73.7963 66.0913 73.7704 66.0968 73.7454L66.2296 72.6092C66.2346 72.5743 66.2468 72.5409 66.2655 72.511C66.2841 72.4811 66.3089 72.4554 66.3381 72.4357C66.3381 72.4357 66.3516 72.4357 66.3543 72.4357C66.3571 72.4357 66.3543 72.4357 66.3679 72.4357C66.4034 72.4185 66.4423 72.4092 66.4818 72.4086H67.7779C67.8126 72.4049 67.8478 72.4086 67.881 72.4195C67.9143 72.4303 67.9449 72.4479 67.9708 72.4713C67.9968 72.4947 68.0175 72.5233 68.0318 72.5552C68.046 72.5872 68.0533 72.6217 68.0533 72.6567C68.0533 72.6916 68.046 72.7262 68.0318 72.7581C68.0175 72.7901 67.9968 72.8186 67.9708 72.842C67.9449 72.8654 67.9143 72.8831 67.881 72.8939C67.8478 72.9047 67.8126 72.9084 67.7779 72.9048H66.6933L66.6391 73.3386C66.7357 73.314 66.8349 73.3013 66.9346 73.3007C67.2088 73.2995 67.4733 73.4021 67.6748 73.5881Z" fill="white"/>
<path d="M80.0451 74.3848C80.0403 74.6545 79.9335 74.9123 79.7461 75.1063C79.5587 75.3003 79.3047 75.416 79.0354 75.4301C78.766 75.4442 78.5014 75.3556 78.2947 75.1823C78.0881 75.0089 77.9549 74.7637 77.922 74.496C77.922 74.4146 77.922 74.3306 77.922 74.2465C77.919 73.9407 77.9705 73.6368 78.0738 73.349C78.1799 73.0458 78.378 72.7832 78.6405 72.5979C78.8366 72.469 79.0649 72.3976 79.2994 72.3919C79.3314 72.3904 79.3632 72.3953 79.3933 72.4063C79.4233 72.4172 79.4508 72.434 79.4743 72.4557C79.4977 72.4774 79.5166 72.5036 79.5299 72.5326C79.5432 72.5617 79.5506 72.5931 79.5516 72.625C79.5518 72.6895 79.5276 72.7516 79.4838 72.7989C79.44 72.8462 79.38 72.8751 79.3157 72.8799C79.1697 72.8815 79.0269 72.9238 78.9036 73.0019C78.7914 73.0825 78.6987 73.1872 78.6324 73.3083C78.6107 73.3436 78.5945 73.3843 78.5755 73.4222C78.7079 73.3641 78.8511 73.3346 78.9958 73.3355C79.2727 73.3396 79.5372 73.4516 79.7331 73.6474C79.929 73.8433 80.0409 74.1078 80.0451 74.3848ZM79.557 74.3848C79.5625 74.3058 79.5516 74.2266 79.5251 74.1519C79.4986 74.0773 79.457 74.009 79.403 73.9511C79.3489 73.8932 79.2836 73.8471 79.211 73.8155C79.1384 73.784 79.06 73.7677 78.9808 73.7677C78.9017 73.7677 78.8233 73.784 78.7507 73.8155C78.6781 73.8471 78.6127 73.8932 78.5587 73.9511C78.5047 74.009 78.4631 74.0773 78.4366 74.1519C78.4101 74.2266 78.3992 74.3058 78.4046 74.3848C78.4147 74.5308 78.4797 74.6675 78.5867 74.7674C78.6936 74.8673 78.8345 74.9228 78.9808 74.9228C79.1272 74.9228 79.268 74.8673 79.375 74.7674C79.482 74.6675 79.547 74.5308 79.557 74.3848Z" fill="white"/>
<path d="M90.1203 74.1301C90.0599 74.1301 90.002 74.1061 89.9593 74.0633C89.9166 74.0206 89.8926 73.9627 89.8926 73.9023C89.8926 73.8419 89.9166 73.7839 89.9593 73.7412C90.002 73.6985 90.0599 73.6745 90.1203 73.6745H91.8937C91.9541 73.6745 92.012 73.6985 92.0547 73.7412C92.0974 73.7839 92.1214 73.8419 92.1214 73.9023C92.1214 73.9627 92.0974 74.0206 92.0547 74.0633C92.012 74.1061 91.9541 74.1301 91.8937 74.1301H90.1203ZM91.308 72.9777V72.9994C91.3009 73.0746 91.2659 73.1445 91.21 73.1953C91.1541 73.2462 91.0812 73.2744 91.0057 73.2744C90.9301 73.2744 90.8572 73.2462 90.8013 73.1953C90.7454 73.1445 90.7105 73.0746 90.7033 72.9994V72.9777C90.7105 72.9024 90.7454 72.8325 90.8013 72.7817C90.8572 72.7308 90.9301 72.7026 91.0057 72.7026C91.0812 72.7026 91.1541 72.7308 91.21 72.7817C91.2659 72.8325 91.3009 72.9024 91.308 72.9777ZM91.308 74.8052V74.8296C91.3009 74.9049 91.2659 74.9747 91.21 75.0256C91.1541 75.0765 91.0812 75.1046 91.0057 75.1046C90.9301 75.1046 90.8572 75.0765 90.8013 75.0256C90.7454 74.9747 90.7105 74.9049 90.7033 74.8296V74.8052C90.7105 74.73 90.7454 74.6601 90.8013 74.6092C90.8572 74.5584 90.9301 74.5302 91.0057 74.5302C91.0812 74.5302 91.1541 74.5584 91.21 74.6092C91.2659 74.6601 91.3009 74.73 91.308 74.8052Z" fill="#37474F"/>
<path d="M55.6221 84.6997V87.2892C55.6217 87.3213 55.6151 87.353 55.6025 87.3824C55.5899 87.4119 55.5716 87.4386 55.5487 87.461C55.5258 87.4834 55.4987 87.5011 55.4689 87.513C55.4392 87.525 55.4074 87.5309 55.3753 87.5306C55.3437 87.5309 55.3122 87.5249 55.2829 87.5129C55.2536 87.5009 55.2271 87.4831 55.2048 87.4605C55.1825 87.438 55.165 87.4112 55.1533 87.3818C55.1416 87.3524 55.136 87.3209 55.1367 87.2892V85.12L54.9605 85.2204C54.9242 85.244 54.8817 85.2563 54.8385 85.2556C54.7859 85.2549 54.7349 85.2372 54.6932 85.2053C54.6515 85.1733 54.6212 85.1287 54.6069 85.0781C54.5926 85.0275 54.595 84.9736 54.6137 84.9245C54.6325 84.8754 54.6666 84.8337 54.711 84.8055L55.2533 84.4828H55.2696C55.2696 84.4828 55.2831 84.4828 55.2913 84.4693H55.3184C55.3184 84.4693 55.3319 84.4693 55.3347 84.4693C55.3453 84.4666 55.3565 84.4666 55.3672 84.4693H55.4133C55.4194 84.4716 55.4262 84.4716 55.4323 84.4693C55.4458 84.4693 55.4485 84.4693 55.4594 84.4693C55.4646 84.4672 55.4704 84.4672 55.4757 84.4693C55.4757 84.4693 55.4946 84.4828 55.5028 84.4828L55.519 84.4964L55.538 84.5099C55.5452 84.5132 55.551 84.519 55.5543 84.5262V84.5425L55.5733 84.5615C55.5733 84.5615 55.5733 84.5615 55.5733 84.575C55.5733 84.5886 55.5733 84.5886 55.5733 84.5967C55.5733 84.6048 55.5733 84.6157 55.5733 84.6184C55.5726 84.6256 55.5726 84.6329 55.5733 84.6401C55.5693 84.6506 55.5693 84.6621 55.5733 84.6726L55.6221 84.6997Z" fill="white"/>
<path d="M68.0701 87.2891C68.0705 87.3208 68.0645 87.3524 68.0525 87.3818C68.0405 87.4113 68.0228 87.438 68.0003 87.4605C67.9778 87.483 67.951 87.5008 67.9216 87.5128C67.8921 87.5248 67.8606 87.5307 67.8288 87.5304H66.267C66.2333 87.5307 66.1999 87.5238 66.1691 87.5102C66.1382 87.4967 66.1106 87.4767 66.088 87.4517C66.0442 87.4042 66.0211 87.3413 66.0236 87.2768C66.0262 87.2122 66.0542 87.1513 66.1016 87.1074L67.4004 85.9333C67.4855 85.8564 67.5452 85.7554 67.5716 85.6439C67.5981 85.5323 67.5901 85.4153 67.5487 85.3083C67.5073 85.2014 67.4344 85.1095 67.3396 85.0449C67.2449 84.9802 67.1328 84.9459 67.0181 84.9463C66.8776 84.947 66.7419 84.998 66.6358 85.09L66.5002 85.2148C66.4514 85.2507 66.3911 85.2673 66.3308 85.2612C66.2705 85.2552 66.2146 85.2269 66.174 85.1819C66.1335 85.1369 66.1111 85.0785 66.1112 85.0179C66.1113 84.9573 66.134 84.8989 66.1748 84.8541L66.3104 84.7321C66.504 84.5563 66.7565 84.4595 67.0181 84.461C67.1652 84.4613 67.3107 84.4923 67.4451 84.5521C67.5796 84.6119 67.7001 84.699 67.799 84.808C67.9755 85.0012 68.0724 85.2541 68.0701 85.5157C68.0698 85.6629 68.0388 85.8083 67.979 85.9428C67.9192 86.0773 67.8321 86.1978 67.7231 86.2967L66.8961 87.045H67.8288C67.8931 87.0457 67.9544 87.0718 67.9996 87.1175C68.0448 87.1631 68.0701 87.2248 68.0701 87.2891Z" fill="white"/>
<path d="M79.6431 85.6654C79.7451 85.7653 79.826 85.8847 79.881 86.0165C79.9359 86.1484 79.9638 86.2899 79.963 86.4327C79.9654 86.6489 79.9031 86.8609 79.784 87.0415C79.665 87.222 79.4948 87.3628 79.2951 87.4459C79.0955 87.529 78.8756 87.5505 78.6636 87.5076C78.4517 87.4648 78.2574 87.3596 78.1056 87.2055C78.0593 87.1591 78.0332 87.0962 78.0332 87.0306C78.0332 86.965 78.0593 86.9021 78.1056 86.8557C78.152 86.8093 78.2149 86.7833 78.2805 86.7833C78.3461 86.7833 78.409 86.8093 78.4554 86.8557C78.5102 86.9105 78.5753 86.9538 78.647 86.9831C78.7187 87.0125 78.7955 87.0272 78.873 87.0265C79.03 87.0263 79.1807 86.965 79.2933 86.8557C79.3495 86.8006 79.394 86.7347 79.4243 86.6621C79.4546 86.5894 79.4699 86.5114 79.4695 86.4327C79.4701 86.3552 79.4547 86.2784 79.4244 86.207C79.3941 86.1356 79.3495 86.0713 79.2933 86.0179C79.2388 85.9623 79.1738 85.9182 79.1022 85.8879C79.0305 85.8577 78.9535 85.8419 78.8757 85.8416C78.8418 85.8436 78.8079 85.8376 78.7767 85.8239C78.7456 85.8102 78.7182 85.7893 78.6968 85.763C78.6737 85.74 78.6554 85.7128 78.643 85.6828C78.6305 85.6528 78.6241 85.6206 78.6241 85.5881C78.6241 85.5556 78.6305 85.5234 78.643 85.4934C78.6554 85.4634 78.6737 85.4361 78.6968 85.4132L79.1442 84.9577H78.4337C78.401 84.9573 78.3686 84.9505 78.3385 84.9376C78.3083 84.9248 78.281 84.9061 78.2581 84.8827C78.2352 84.8593 78.2171 84.8316 78.2049 84.8011C78.1927 84.7707 78.1866 84.7382 78.187 84.7055C78.187 84.6732 78.1934 84.6412 78.2058 84.6115C78.2183 84.5817 78.2365 84.5546 78.2594 84.532C78.2824 84.5093 78.3096 84.4913 78.3395 84.4792C78.3694 84.4671 78.4015 84.4611 78.4337 84.4614H79.7271C79.77 84.4611 79.8122 84.4718 79.8496 84.4927C79.887 84.5136 79.9183 84.5439 79.9405 84.5805C79.9626 84.6172 79.9749 84.659 79.976 84.7018C79.9771 84.7447 79.967 84.787 79.9468 84.8248C79.9339 84.8466 79.9194 84.8675 79.9034 84.8871L79.3611 85.4566C79.4671 85.5083 79.5627 85.5791 79.6431 85.6654Z" fill="white"/>
<path d="M91.7269 85.7227L91.1846 86.4439L91.7052 87.1679C91.7403 87.2157 91.7555 87.2752 91.7474 87.334C91.7392 87.3927 91.7086 87.446 91.6618 87.4824C91.6208 87.5126 91.5717 87.5296 91.5208 87.5312C91.4464 87.525 91.3774 87.4899 91.3283 87.4336L90.9134 86.8344L90.4742 87.4336C90.4527 87.462 90.4254 87.4855 90.394 87.5023C90.3627 87.5192 90.328 87.529 90.2925 87.5312C90.2424 87.5299 90.1941 87.5128 90.1542 87.4824C90.1298 87.4655 90.109 87.4437 90.0932 87.4185C90.0774 87.3932 90.0669 87.3651 90.0623 87.3356C90.0578 87.3062 90.0592 87.2762 90.0667 87.2473C90.0741 87.2185 90.0872 87.1915 90.1054 87.1679L90.6314 86.4439L90.1 85.7227C90.0819 85.6995 90.0688 85.6729 90.0615 85.6445C90.0542 85.6161 90.0527 85.5865 90.0573 85.5575C90.0619 85.5285 90.0724 85.5008 90.0881 85.476C90.1038 85.4513 90.1245 85.43 90.1488 85.4136C90.1728 85.3955 90.2001 85.3823 90.2292 85.3748C90.2583 85.3674 90.2886 85.3657 90.3184 85.37C90.3481 85.3743 90.3767 85.3844 90.4025 85.3998C90.4283 85.4152 90.4508 85.4355 90.4688 85.4596L90.908 86.048L91.3446 85.4596C91.384 85.4112 91.4403 85.3794 91.5022 85.3709C91.5642 85.3623 91.627 85.3776 91.6781 85.4136C91.7253 85.4482 91.7569 85.5002 91.7661 85.5581C91.7752 85.616 91.7611 85.6751 91.7269 85.7227Z" fill="#37474F"/>
<path d="M55.341 98.9946C55.4278 98.9953 55.5109 99.0301 55.5722 99.0915C55.6336 99.1529 55.6684 99.2359 55.6691 99.3227C55.6684 99.4093 55.6335 99.492 55.5721 99.553C55.5106 99.6139 55.4276 99.6481 55.341 99.6481C55.2982 99.6485 55.2557 99.6403 55.2161 99.6241C55.1764 99.6078 55.1404 99.5839 55.1101 99.5536C55.0798 99.5233 55.0559 99.4873 55.0397 99.4477C55.0234 99.408 55.0153 99.3655 55.0156 99.3227C55.0156 99.2362 55.0498 99.1531 55.1108 99.0917C55.1717 99.0302 55.2545 98.9953 55.341 98.9946Z" fill="white"/>
<path d="M65.8264 98.0788C65.821 97.7074 65.9247 97.3425 66.1246 97.0295C66.2039 96.8828 66.3213 96.7603 66.4645 96.6749C66.6077 96.5895 66.7714 96.5444 66.9381 96.5444C67.1048 96.5444 67.2684 96.5895 67.4116 96.6749C67.5548 96.7603 67.6723 96.8828 67.7515 97.0295C67.943 97.3455 68.0442 97.708 68.0442 98.0775C68.0442 98.447 67.943 98.8094 67.7515 99.1255C67.6729 99.2729 67.5557 99.3962 67.4124 99.4822C67.2691 99.5681 67.1052 99.6136 66.9381 99.6136C66.771 99.6136 66.607 99.5681 66.4638 99.4822C66.3205 99.3962 66.2033 99.2729 66.1246 99.1255C65.9252 98.8132 65.8215 98.4494 65.8264 98.0788ZM67.559 98.0788C67.5637 97.8038 67.4904 97.533 67.3475 97.2979C67.3081 97.2221 67.2501 97.1575 67.179 97.1101C67.1079 97.0627 67.026 97.034 66.9408 97.0268C66.8546 97.0353 66.7717 97.0644 66.6991 97.1116C66.6264 97.1588 66.5661 97.2227 66.5232 97.2979C66.3847 97.5339 66.3117 97.8025 66.3117 98.0761C66.3117 98.3497 66.3847 98.6184 66.5232 98.8543C66.5661 98.9296 66.6264 98.9935 66.6991 99.0407C66.7717 99.0878 66.8546 99.1169 66.9408 99.1255C67.0257 99.1173 67.1072 99.0882 67.1782 99.0409C67.2491 98.9936 67.3073 98.9295 67.3475 98.8543C67.4897 98.6209 67.563 98.3521 67.559 98.0788Z" fill="white"/>
<path d="M78.1035 97.7529C78.1077 97.6839 78.1381 97.619 78.1885 97.5716C78.2389 97.5242 78.3055 97.4979 78.3747 97.498H79.7304C79.7638 97.498 79.7968 97.5047 79.8276 97.5175C79.8583 97.5303 79.8862 97.5492 79.9097 97.5729C79.9331 97.5966 79.9517 97.6247 79.9642 97.6556C79.9767 97.6865 79.9829 97.7196 79.9826 97.7529C79.9833 97.7862 79.9773 97.8194 79.9649 97.8503C79.9525 97.8812 79.9339 97.9093 79.9104 97.9329C79.8868 97.9564 79.8587 97.975 79.8278 97.9874C79.7969 97.9998 79.7637 98.0058 79.7304 98.0051H78.3747C78.3401 98.0073 78.3054 98.0024 78.2728 97.9908C78.2401 97.9792 78.2102 97.961 78.1848 97.9374C78.1594 97.9138 78.1391 97.8852 78.1252 97.8535C78.1112 97.8218 78.1038 97.7876 78.1035 97.7529ZM78.1035 98.5664C78.1035 98.4945 78.1321 98.4255 78.1829 98.3746C78.2338 98.3238 78.3028 98.2952 78.3747 98.2952H79.7304C79.7879 98.3108 79.8386 98.3449 79.8747 98.3922C79.9109 98.4395 79.9305 98.4974 79.9305 98.5569C79.9305 98.6164 79.9109 98.6743 79.8747 98.7216C79.8386 98.7689 79.7879 98.8029 79.7304 98.8186H78.3747C78.3055 98.8187 78.2389 98.7924 78.1885 98.745C78.1381 98.6976 78.1077 98.6327 78.1035 98.5637V98.5664Z" fill="#37474F"/>
<path d="M90.7576 98.3095H90.1339C90.0699 98.3095 90.0085 98.2841 89.9633 98.2388C89.918 98.1936 89.8926 98.1322 89.8926 98.0682C89.894 98.0046 89.9198 97.944 89.9648 97.8991C90.0098 97.8541 90.0703 97.8282 90.1339 97.8269H90.7576V97.2195C90.7568 97.1864 90.7628 97.1535 90.775 97.1227C90.7872 97.092 90.8055 97.064 90.8288 97.0405C90.8521 97.017 90.8799 96.9984 90.9105 96.9858C90.9411 96.9732 90.9739 96.9669 91.007 96.9673C91.0734 96.968 91.1369 96.9949 91.1836 97.0421C91.2303 97.0893 91.2565 97.1531 91.2565 97.2195V97.8269H91.8801C91.9437 97.8282 92.0043 97.8541 92.0492 97.8991C92.0942 97.944 92.1201 98.0046 92.1214 98.0682C92.1214 98.1322 92.096 98.1936 92.0508 98.2388C92.0055 98.2841 91.9441 98.3095 91.8801 98.3095H91.2565V98.9196C91.2565 98.9858 91.2302 99.0492 91.1834 99.096C91.1366 99.1428 91.0732 99.1691 91.007 99.1691C90.9742 99.1694 90.9415 99.1632 90.9111 99.1508C90.8807 99.1384 90.853 99.12 90.8298 99.0968C90.8066 99.0736 90.7882 99.0459 90.7758 99.0155C90.7634 98.9851 90.7572 98.9525 90.7576 98.9196V98.3095Z" fill="#37474F"/>
<path d="M68.6054 48.3441C68.6054 48.3938 68.5857 48.4414 68.5506 48.4764C68.5155 48.5115 68.468 48.5312 68.4183 48.5312H67.876C67.6456 49.1684 67.0626 50.836 66.9351 51.3078C66.9152 51.3641 66.8828 51.4151 66.8402 51.457C66.8047 51.4874 66.7596 51.5047 66.7128 51.5058C66.6797 51.5063 66.6469 51.4999 66.6165 51.4868C66.5861 51.4737 66.5589 51.4543 66.5366 51.4298C66.5366 51.4298 65.9509 50.8577 65.7692 50.6544C65.498 50.3669 65.6201 50.2314 65.658 50.207C65.6897 50.1864 65.7261 50.1743 65.7638 50.1717C65.8234 50.1776 65.8805 50.1991 65.9292 50.2341L66.119 50.432C66.1732 50.4917 66.2247 50.5432 66.2763 50.592L66.4254 50.7438L66.5935 50.9119C66.7318 50.4673 67.35 48.721 67.5154 48.2845C67.5296 48.2614 67.5469 48.2404 67.5669 48.2221C67.5846 48.2021 67.6063 48.1859 67.6306 48.1747C67.6549 48.1635 67.6812 48.1575 67.7079 48.1571H68.4075C68.433 48.1556 68.4585 48.1593 68.4824 48.1681C68.5064 48.1768 68.5283 48.1903 68.5469 48.2079C68.5654 48.2254 68.5802 48.2465 68.5902 48.27C68.6003 48.2934 68.6055 48.3186 68.6054 48.3441Z" fill="#37474F"/>
<path d="M96.2404 27.3398H49.8926V38.4299H96.2404V27.3398Z" fill="#455A64"/>
<path d="M75.3167 30.6644V34.9838C75.3153 35.0912 75.2714 35.1937 75.1947 35.2688C75.118 35.344 75.0147 35.3858 74.9073 35.3851C74.8544 35.3858 74.8019 35.3759 74.7528 35.356C74.7038 35.3361 74.6593 35.3066 74.6219 35.2692C74.5845 35.2318 74.5549 35.1872 74.535 35.1382C74.5151 35.0892 74.5052 35.0367 74.506 34.9838V31.3829L74.2131 31.5537C74.1514 31.5922 74.0798 31.612 74.0071 31.6107C73.9194 31.6086 73.8348 31.5784 73.7656 31.5246C73.6964 31.4709 73.6463 31.3963 73.6226 31.312C73.599 31.2276 73.603 31.1378 73.6341 31.0559C73.6652 30.974 73.7218 30.9042 73.7956 30.8569L74.6958 30.3146C74.6958 30.3146 74.7175 30.3146 74.7256 30.301C74.7337 30.2875 74.7473 30.2847 74.7609 30.2793H74.8042C74.8138 30.2755 74.8245 30.2755 74.8341 30.2793C74.851 30.2754 74.8686 30.2754 74.8856 30.2793H74.9669C74.9669 30.2793 74.9886 30.2793 74.994 30.2793C75.0108 30.2797 75.0269 30.2854 75.0401 30.2956C75.0401 30.2956 75.0618 30.2956 75.0673 30.2956C75.0727 30.2956 75.0971 30.3173 75.1134 30.3173C75.1199 30.3272 75.1294 30.3347 75.1405 30.339C75.1405 30.339 75.1649 30.3552 75.1703 30.3634C75.1757 30.3715 75.192 30.3851 75.2001 30.3905C75.2086 30.3994 75.2159 30.4095 75.2218 30.4203L75.2516 30.4501V30.4637C75.2516 30.4637 75.2516 30.48 75.2516 30.4881C75.2516 30.4962 75.2679 30.5098 75.2679 30.5234C75.2679 30.5369 75.2679 30.5532 75.2679 30.5586C75.2671 30.5712 75.2671 30.5839 75.2679 30.5966C75.2666 30.6056 75.2671 30.6149 75.2694 30.6237C75.2717 30.6326 75.2758 30.6409 75.2815 30.6481L75.3167 30.6644Z" fill="white"/>
<path d="M79.5532 34.9862C79.5539 35.0391 79.5441 35.0916 79.5241 35.1406C79.5042 35.1896 79.4747 35.2342 79.4373 35.2716C79.3999 35.309 79.3554 35.3385 79.3063 35.3584C79.2573 35.3783 79.2048 35.3882 79.1519 35.3875H76.5407C76.4839 35.3886 76.4275 35.3772 76.3756 35.3543C76.3236 35.3314 76.2772 35.2973 76.2397 35.2546C76.1674 35.1761 76.129 35.0721 76.1331 34.9654C76.1372 34.8587 76.1833 34.758 76.2614 34.6852L78.4306 32.7221C78.5303 32.6347 78.6096 32.5265 78.663 32.4052C78.7164 32.2838 78.7426 32.1523 78.7397 32.0198C78.7402 31.785 78.6543 31.5582 78.4984 31.3826C78.4093 31.2845 78.3004 31.2064 78.1789 31.1536C78.0573 31.1008 77.9259 31.0744 77.7934 31.0762C77.5596 31.0769 77.3341 31.1627 77.1589 31.3175L76.9312 31.5236C76.8919 31.5597 76.8458 31.5875 76.7956 31.6056C76.7454 31.6237 76.6921 31.6315 76.6388 31.6288C76.5856 31.626 76.5334 31.6126 76.4854 31.5894C76.4373 31.5663 76.3944 31.5337 76.359 31.4938C76.2875 31.4137 76.2505 31.3087 76.2561 31.2015C76.2617 31.0944 76.3094 30.9938 76.3889 30.9216L76.6166 30.7183C76.937 30.4227 77.3576 30.2599 77.7934 30.2627C78.0393 30.263 78.2824 30.3147 78.507 30.4147C78.7317 30.5146 78.9329 30.6605 79.0977 30.843C79.3917 31.164 79.5535 31.5844 79.5505 32.0198C79.5503 32.2654 79.4988 32.5083 79.3993 32.7328C79.2999 32.9574 79.1547 33.1588 78.9729 33.324L77.5901 34.574H79.1492C79.2029 34.574 79.2561 34.5847 79.3057 34.6055C79.3553 34.6264 79.4002 34.6568 79.4378 34.6952C79.4754 34.7336 79.505 34.7791 79.5248 34.8291C79.5446 34.879 79.5543 34.9324 79.5532 34.9862Z" fill="white"/>
<path d="M83.34 32.2912C83.5118 32.4571 83.6484 32.656 83.7416 32.8759C83.8347 33.0958 83.8826 33.3322 83.8823 33.5711C83.8831 33.9308 83.7771 34.2827 83.5777 34.5821C83.3783 34.8815 83.0945 35.115 82.7623 35.2529C82.43 35.3909 82.0643 35.4271 81.7115 35.3569C81.3586 35.2868 81.0346 35.1135 80.7803 34.859C80.7416 34.8207 80.7109 34.7751 80.69 34.7248C80.669 34.6746 80.6582 34.6207 80.6582 34.5662C80.6582 34.5117 80.669 34.4578 80.69 34.4075C80.7109 34.3573 80.7416 34.3117 80.7803 34.2733C80.8584 34.1965 80.9636 34.1535 81.0732 34.1535C81.1827 34.1535 81.2879 34.1965 81.366 34.2733C81.457 34.3647 81.5652 34.4372 81.6843 34.4865C81.8035 34.5359 81.9312 34.5611 82.0602 34.5608C82.3228 34.5603 82.5749 34.4572 82.7625 34.2733C82.8558 34.1819 82.9298 34.0726 82.9801 33.9519C83.0304 33.8313 83.056 33.7018 83.0553 33.5711C83.0565 33.4415 83.0311 33.3131 82.9807 33.1937C82.9303 33.0743 82.8561 32.9665 82.7625 32.8769C82.6721 32.7843 82.5642 32.7107 82.4449 32.6604C82.3257 32.6101 82.1977 32.5842 82.0683 32.5841C82.0113 32.587 81.9543 32.5764 81.902 32.5534C81.8498 32.5303 81.8036 32.4953 81.7673 32.4512C81.729 32.4129 81.6987 32.3675 81.6779 32.3175C81.6572 32.2675 81.6466 32.2139 81.6466 32.1597C81.6466 32.1056 81.6572 32.052 81.6779 32.002C81.6987 31.952 81.729 31.9065 81.7673 31.8682L82.513 31.1063H81.3281C81.2242 31.0979 81.1273 31.0507 81.0566 30.9741C80.9859 30.8974 80.9467 30.797 80.9467 30.6928C80.9467 30.5886 80.9859 30.4882 81.0566 30.4116C81.1273 30.3349 81.2242 30.2877 81.3281 30.2793H83.4973C83.5941 30.2895 83.6841 30.3338 83.7512 30.4044C83.8183 30.4749 83.8581 30.5671 83.8633 30.6643C83.8621 30.7335 83.8444 30.8013 83.8118 30.8623C83.7915 30.8994 83.7669 30.9339 83.7386 30.9653L82.8167 31.917C83.0143 32.0057 83.1922 32.1329 83.34 32.2912Z" fill="white"/>
<path d="M88.9469 34.0263C88.9469 34.0797 88.9363 34.1326 88.9156 34.1818C88.8949 34.231 88.8646 34.2757 88.8265 34.313C88.7884 34.3504 88.7432 34.3798 88.6935 34.3995C88.6439 34.4191 88.5908 34.4287 88.5375 34.4276H88.4724V34.9862C88.4724 35.0941 88.4295 35.1975 88.3533 35.2738C88.277 35.3501 88.1735 35.3929 88.0657 35.3929C87.9578 35.3929 87.8543 35.3501 87.7781 35.2738C87.7018 35.1975 87.6589 35.0941 87.6589 34.9862V34.4276H85.3541C85.2631 34.4308 85.1741 34.3998 85.1047 34.3409C85.0624 34.3088 85.0271 34.2685 85.0008 34.2225C84.9746 34.1764 84.9579 34.1255 84.9518 34.0728C84.9457 34.0201 84.9504 33.9667 84.9655 33.9159C84.9806 33.865 85.0058 33.8177 85.0396 33.7769L87.7511 30.4092C87.7511 30.4092 87.7511 30.4092 87.7647 30.3956C87.7738 30.3872 87.7812 30.3771 87.7864 30.3658C87.801 30.3628 87.8143 30.3552 87.8243 30.3441C87.8243 30.3441 87.846 30.3441 87.8514 30.3224C87.8652 30.3135 87.8812 30.3088 87.8975 30.3089C87.8975 30.2926 87.9111 30.2872 87.9247 30.2872C87.9382 30.2872 87.9464 30.2872 87.9708 30.2709C87.9952 30.2546 87.9924 30.2709 87.9979 30.2709H88.1226C88.135 30.2747 88.1482 30.2747 88.1606 30.2709C88.1606 30.2709 88.1904 30.2709 88.2039 30.2872H88.2338C88.2473 30.3034 88.2636 30.3089 88.269 30.317L88.307 30.3387C88.307 30.3387 88.3314 30.3387 88.3314 30.3522L88.3585 30.3821C88.3666 30.3913 88.3739 30.4013 88.3802 30.4119C88.3919 30.422 88.402 30.4339 88.41 30.4471C88.4114 30.4588 88.4173 30.4695 88.4263 30.477C88.4263 30.4932 88.4263 30.4987 88.4398 30.5204C88.4534 30.5421 88.4398 30.5421 88.4398 30.5502C88.4428 30.5645 88.4428 30.5793 88.4398 30.5936C88.4398 30.6098 88.4398 30.6153 88.4398 30.6315V33.6142H88.5131C88.5692 33.6104 88.6254 33.6184 88.6783 33.6375C88.7312 33.6565 88.7796 33.6864 88.8204 33.7251C88.8611 33.7639 88.8934 33.8106 88.9152 33.8625C88.937 33.9143 88.9478 33.9701 88.9469 34.0263ZM87.6589 31.8165L86.2029 33.6223H87.6589V31.8165Z" fill="white"/>
<path d="M92.5944 32.2914C92.7665 32.4588 92.9031 32.6591 92.9963 32.8803C93.0894 33.1016 93.1372 33.3393 93.1367 33.5793C93.1349 33.8178 93.0861 34.0537 92.993 34.2733C92.9 34.4929 92.7645 34.692 92.5944 34.8592C92.428 35.0302 92.229 35.1663 92.0092 35.2594C91.7894 35.3526 91.5533 35.4009 91.3146 35.4015H91.2983C91.0608 35.401 90.8258 35.3527 90.6074 35.2596C90.3889 35.1664 90.1914 35.0302 90.0266 34.8592C89.9862 34.8219 89.954 34.7766 89.9319 34.7262C89.9098 34.6758 89.8984 34.6213 89.8984 34.5663C89.8984 34.5113 89.9098 34.4569 89.9319 34.4065C89.954 34.3561 89.9862 34.3108 90.0266 34.2735C90.1043 34.1968 90.209 34.1538 90.3181 34.1538C90.4272 34.1538 90.532 34.1968 90.6096 34.2735C90.7009 34.3663 90.8098 34.44 90.9299 34.4903C91.05 34.5406 91.179 34.5665 91.3092 34.5665C91.4394 34.5665 91.5683 34.5406 91.6884 34.4903C91.8085 34.44 91.9174 34.3663 92.0087 34.2735C92.1933 34.0893 92.2984 33.8401 92.3016 33.5793C92.3019 33.4495 92.2767 33.3209 92.2272 33.2008C92.1778 33.0807 92.1051 32.9716 92.0135 32.8797C91.9218 32.7877 91.8128 32.7148 91.6929 32.665C91.573 32.6153 91.4444 32.5896 91.3146 32.5896C91.053 32.5833 90.7995 32.6808 90.6096 32.8608C90.5715 32.8994 90.5261 32.9301 90.4761 32.951C90.4261 32.9719 90.3724 32.9827 90.3181 32.9827C90.2639 32.9827 90.2102 32.9719 90.1601 32.951C90.1101 32.9301 90.0647 32.8994 90.0266 32.8608C89.9968 32.8337 89.9751 32.7957 89.9453 32.7659C89.9155 32.7361 89.9453 32.7442 89.9453 32.7442C89.95 32.7329 89.95 32.7202 89.9453 32.7089C89.9453 32.6873 89.9453 32.671 89.9453 32.6574C89.9453 32.6439 89.9453 32.6574 89.9453 32.6412C89.9398 32.6007 89.9398 32.5596 89.9453 32.5191L90.1649 30.6211C90.1855 30.503 90.2517 30.3978 90.3493 30.3282C90.3629 30.3282 90.371 30.3282 90.3791 30.3282C90.3873 30.3282 90.3927 30.3282 90.4008 30.3147C90.4592 30.2836 90.5245 30.2677 90.5906 30.2686H92.7598C92.8699 30.2686 92.9754 30.3123 93.0532 30.3901C93.131 30.4679 93.1747 30.5734 93.1747 30.6835C93.1747 30.7935 93.131 30.899 93.0532 30.9768C92.9754 31.0546 92.8699 31.0983 92.7598 31.0983H90.9133L90.8265 31.8223C90.9865 31.7783 91.1515 31.7556 91.3173 31.7545C91.5552 31.7543 91.7908 31.8017 92.0101 31.8939C92.2294 31.9861 92.4281 32.1213 92.5944 32.2914Z" fill="white"/>
<path d="M81.5088 24.0025L81.4004 24.0296C81.4034 24.0171 81.41 24.0058 81.4194 23.9971L81.5088 24.0025Z" fill="#263238"/>
<path d="M84.6289 102.338H84.5801V102.303L84.6289 102.338Z" fill="#DD6A57"/>
<path d="M26.728 25.3359C27.1998 28.8229 29.7975 37.1011 31.7362 37.6299C33.5421 38.118 41.4787 35.7535 42.5009 34.1781C43.0432 33.3349 45.2124 25.5908 44.2444 26.0436C43.0188 26.6266 34.0301 31.1711 33.6695 31.0789C32.8886 30.8837 31.3674 27.8088 30.0496 26.0897C27.1754 22.3532 26.5084 23.709 26.728 25.3359Z" fill="#774442"/>
<path d="M32.1516 28.7992L28.0843 32.5275C28.0843 32.5275 26.6445 27.2021 26.4818 24.7373C26.3191 22.2726 28.3338 22.5491 32.1516 28.7992Z" fill="#263238"/>
<path d="M16.6706 63.3439C16.6706 63.3439 12.7362 70.0386 8.38966 66.999C4.04311 63.9594 9.00517 57.9751 9.00517 57.9751L16.6706 63.3439Z" fill="#FF98B9"/>
<path d="M8.83179 58.2122L16.4961 63.5947L47.872 18.9181L40.2077 13.5355L8.83179 58.2122Z" fill="#FFD427"/>
<path opacity="0.1" d="M8.83179 58.2122L16.4961 63.5947L47.872 18.9181L40.2077 13.5355L8.83179 58.2122Z" fill="black"/>
<path d="M8.01772 58.0013L16.9668 64.2861L18.2135 62.511L9.2644 56.2261L8.01772 58.0013Z" fill="#455A64"/>
<path d="M9.39857 56.0394L18.3477 62.3242L19.5943 60.549L10.6453 54.2642L9.39857 56.0394Z" fill="#455A64"/>
<path d="M40.209 13.5361L46.9579 10.0572L49.1814 8.89941L48.8641 11.394L47.8744 18.9347L46.3153 19.5041C46.3153 19.5041 46.3451 17.8772 46.3397 17.8582L44.7806 18.4249C44.7806 18.4249 44.8104 16.798 44.805 16.7791L43.2649 17.3593C43.2649 17.3593 43.2649 15.7324 43.2649 15.7026L41.7247 16.2829C41.7247 16.2829 41.7247 14.6559 41.7247 14.6234L40.209 15.1928C40.209 15.1928 40.209 13.5632 40.209 13.5361Z" fill="#EBEBEB"/>
<path d="M46.959 10.0465L49.1824 8.88867L48.8625 11.3833L46.959 10.0465Z" fill="#37474F"/>
<g opacity="0.1">
<path d="M19.4688 55.4748C21.4066 52.606 23.3652 49.7499 25.3446 46.9065L31.2882 38.3842L37.2861 29.8999L40.3067 25.6726L43.3544 21.4644L40.4287 25.7594L37.4786 30.0354L31.5323 38.5577L25.5317 47.0393C23.5252 49.8611 21.5042 52.6729 19.4688 55.4748Z" fill="black"/>
<path d="M17.3477 54.2302C19.2873 51.3578 21.2459 48.5017 23.2235 45.6618L29.1671 37.1368L35.1677 28.6552L38.1883 24.428L41.2333 20.2197L38.3103 24.512L35.3575 28.7881L29.4139 37.3131L23.4133 45.7947C21.405 48.6147 19.3831 51.4265 17.3477 54.2302Z" fill="black"/>
<path d="M15.2285 52.9858C17.1663 50.1153 19.125 47.2582 21.1044 44.4148L27.048 35.8925L33.0486 27.4109L36.0692 23.1836L39.125 18.9727L36.202 23.2677L33.2492 27.5437L27.3083 36.066L21.3077 44.5503C19.2849 47.3703 17.2703 50.1876 15.2285 52.9858Z" fill="black"/>
</g>
<path d="M43.9291 25.4747C44.0755 26.6325 44.8672 28.2703 44.6964 29.1217C44.6622 29.3327 44.5609 29.5271 44.4075 29.676C44.2542 29.825 44.0569 29.9206 43.845 29.9487C43.845 29.9487 44.5283 30.6239 44.2463 31.3695C44.1026 31.7546 43.3596 31.8603 43.3596 31.8603C43.5066 32.0217 43.6062 32.2205 43.6473 32.4349C43.6885 32.6492 43.6696 32.8708 43.5928 33.0751C43.3624 33.5903 42.6547 33.6174 42.6547 33.6174C42.6547 33.6174 42.9041 34.3929 42.5001 34.8457C41.6866 35.7595 37.0554 34.2464 36.8981 32.3104C36.8249 31.4075 37.9339 31.8386 37.9339 31.8386C37.9339 31.8386 36.4887 30.8327 36.7761 29.8728C37.0635 28.9129 38.4708 29.5582 38.4708 29.5582C38.4708 29.5582 37.0798 28.5713 37.4784 27.606C37.877 26.6407 39.1893 27.4894 39.1893 27.4894C39.1893 27.4894 38.3759 26.4563 38.864 25.7865C39.6476 24.6802 41.0874 26.8711 42.1828 26.9552L43.2919 25.4639L43.9291 25.4747Z" fill="#774442"/>
<path d="M44.3795 27.2342C44.3334 26.1252 45.9576 25.3064 46.0688 24.2516C46.2179 22.8091 44.2684 23.6334 43.2922 25.4799L42.7852 27.0471L44.3795 27.2342Z" fill="#774442"/>
<path d="M42.5432 33.6469C42.5595 33.6469 42.5432 33.674 42.5432 33.6713C40.8361 33.5454 39.2076 32.9032 37.874 31.8301C37.8333 31.7949 37.874 31.7108 37.9255 31.7407C39.3642 32.5966 40.9197 33.2387 42.5432 33.6469Z" fill="#263238"/>
<path d="M43.3812 31.8764C43.3974 31.8764 43.3812 31.9117 43.3812 31.9117C41.4963 31.7546 39.7301 30.9273 38.4028 29.5798C38.3594 29.531 38.3676 29.4415 38.4218 29.493C39.3627 30.3688 41.8491 31.5185 43.3812 31.8764Z" fill="#263238"/>
<path d="M39.1247 27.3593C40.4316 28.6608 42.026 29.4092 43.7722 29.946C43.7966 29.946 43.7722 29.984 43.7722 29.984C42.8476 29.9542 41.7684 29.4959 40.9604 29.0702C40.2026 28.6874 39.5577 28.1136 39.0894 27.4054C39.0623 27.3755 39.1003 27.3294 39.1247 27.3593Z" fill="#263238"/>
<path d="M45.6127 109.534C44.9918 109.735 27.2667 109.504 26.5969 109.068C26.3258 108.905 26.2227 106.321 26.1712 103.195V103.097C26.1712 102.452 26.1495 101.788 26.1495 101.115C26.1495 101.023 26.1495 100.931 26.1495 100.844C26.1251 96.3293 26.1983 91.6465 26.1983 91.6465L38.0558 91.7658L37.6978 100.876L37.6843 101.237L37.6138 103.122V103.317C37.6138 103.317 44.36 106.438 45.0433 106.996C45.7266 107.555 46.2337 109.336 45.6127 109.534Z" fill="#774442"/>
<path d="M45.6136 109.534C44.9927 109.735 27.2675 109.504 26.5978 109.068C26.3266 108.905 26.2236 106.321 26.1721 103.195V103.097C26.1721 102.452 26.1504 101.787 26.1504 101.115C26.1504 101.023 26.1504 100.931 26.1504 100.844L37.6987 100.876L37.6852 101.237L37.6147 103.121V103.317C37.6147 103.317 44.3609 106.438 45.0442 106.996C45.7275 107.555 46.2345 109.336 45.6136 109.534Z" fill="#EBEBEB"/>
<path d="M45.6126 109.535C45.2276 109.659 38.3621 109.619 32.9851 109.467C29.6283 109.375 26.8544 109.236 26.5968 109.068C26.3392 108.9 26.2253 106.395 26.1738 103.325C26.1738 103.282 26.1738 103.238 26.1738 103.195C26.1738 103.152 26.1738 103.127 26.1738 103.095L37.611 103.116V103.312C37.611 103.312 44.3572 106.433 45.0405 106.991C45.7238 107.55 46.2336 109.337 45.6126 109.535Z" fill="#FFD427"/>
<path d="M45.4218 108.845C42.4392 108.731 30.3784 108.574 27.4147 108.677C27.393 108.677 27.393 108.696 27.4147 108.696C30.373 108.872 42.4338 108.945 45.4218 108.894C45.4842 108.891 45.4842 108.848 45.4218 108.845Z" fill="#263238"/>
<path d="M38.881 103.165C37.707 102.932 36.2671 103.092 35.3561 103.919C35.3208 103.951 35.3561 104 35.4049 103.989C36.5326 103.641 37.6943 103.415 38.8702 103.314C38.8879 103.312 38.9045 103.304 38.9169 103.291C38.9293 103.279 38.9369 103.262 38.9382 103.244C38.9395 103.226 38.9344 103.209 38.924 103.194C38.9135 103.18 38.8983 103.169 38.881 103.165Z" fill="#263238"/>
<path d="M39.7209 103.689C38.5495 103.453 37.1097 103.615 36.1959 104.442C36.1607 104.472 36.1959 104.524 36.2447 104.513C37.3731 104.164 38.5358 103.937 39.7127 103.838C39.7304 103.835 39.7466 103.827 39.7587 103.814C39.7708 103.801 39.778 103.784 39.779 103.766C39.7799 103.749 39.7746 103.731 39.764 103.717C39.7534 103.703 39.7382 103.693 39.7209 103.689Z" fill="#263238"/>
<path d="M40.5646 104.211C39.3905 103.975 37.9507 104.138 37.0397 104.962C37.0044 104.995 37.0397 105.043 37.0885 105.033C38.2165 104.686 39.3781 104.459 40.5538 104.357C40.5732 104.359 40.5924 104.353 40.6071 104.34C40.6219 104.327 40.631 104.309 40.6324 104.29C40.6339 104.27 40.6275 104.251 40.6148 104.236C40.6021 104.222 40.584 104.212 40.5646 104.211Z" fill="#263238"/>
<path d="M40.4419 100.621C39.9891 99.9786 39.1241 100.252 38.6279 100.659C37.7894 101.373 37.1528 102.294 36.7813 103.33C36.7796 103.334 36.779 103.339 36.7795 103.344C36.78 103.349 36.7816 103.353 36.7843 103.357C36.787 103.361 36.7905 103.365 36.7948 103.367C36.799 103.369 36.8037 103.371 36.8085 103.371C36.8085 103.46 36.8898 103.558 36.9928 103.52C37.9663 103.175 39.0536 102.923 39.8942 102.289C40.3849 101.917 40.8703 101.229 40.4419 100.621ZM38.3622 102.693C37.8876 102.874 37.405 103.032 36.9359 103.235C37.2779 102.707 37.6462 102.197 38.0395 101.706C38.2345 101.469 38.4456 101.246 38.6713 101.039C39.0238 100.727 40.4175 100.068 40.1951 101.353C40.0812 102.056 38.9289 102.476 38.3622 102.693Z" fill="#263238"/>
<path d="M33.7996 102.983C34.7622 103.408 35.8766 103.403 36.907 103.525C37.0128 103.525 37.067 103.425 37.048 103.335C37.0525 103.334 37.0567 103.331 37.0602 103.328C37.0637 103.325 37.0664 103.321 37.0682 103.317C37.0701 103.312 37.0709 103.308 37.0707 103.303C37.0704 103.298 37.0692 103.293 37.067 103.289C36.4669 102.368 35.6357 101.62 34.6565 101.12C34.0789 100.849 33.176 100.77 32.8804 101.5C32.5849 102.229 33.2356 102.736 33.7996 102.983ZM33.279 102.137C32.7638 100.936 34.2714 101.258 34.689 101.481C34.9556 101.632 35.212 101.8 35.4564 101.985C35.9564 102.372 36.436 102.785 36.8935 103.221C36.3918 103.135 35.8848 103.094 35.3804 103.026C34.7866 102.945 33.561 102.79 33.279 102.137Z" fill="#263238"/>
<path d="M32.9851 109.467C29.6283 109.375 26.8544 109.236 26.5968 109.068C26.3392 108.9 26.2253 106.395 26.1738 103.325C27.5513 104.554 30.9705 107.604 32.9851 109.467Z" fill="#263238"/>
<path d="M22.6309 40.583C22.6309 40.583 25.2963 70.5235 25.7247 72.8201C25.825 73.3408 25.8874 76.1716 25.9281 79.8104C26.0202 87.7497 25.9281 103.216 25.9281 103.216H38.4227C38.4227 103.216 38.0892 77.2589 37.536 72.6927C36.9829 68.1265 33.4471 40.583 33.4471 40.583H22.6309Z" fill="#37474F"/>
<path d="M37.8589 101.039C35.9094 100.999 36.4679 100.985 34.5184 100.966C33.5639 100.966 27.2922 100.901 26.4028 101.047C26.3987 101.049 26.3951 101.052 26.3926 101.055C26.39 101.059 26.3887 101.063 26.3887 101.068C26.3887 101.072 26.39 101.077 26.3926 101.08C26.3951 101.084 26.3987 101.087 26.4028 101.088C27.2949 101.237 33.5639 101.18 34.5184 101.172C36.4679 101.153 35.9094 101.137 37.8589 101.096C37.8942 101.096 37.8942 101.042 37.8589 101.039Z" fill="#263238"/>
<path d="M28.3407 85.7084C28.328 83.9007 28.3145 82.0885 28.3 80.2718C28.2865 78.5147 28.3 76.7468 28.2051 75.006C28.037 71.454 27.3157 67.9561 26.8033 64.4528C26.2908 60.9496 25.8651 57.4029 25.4773 53.8779C25.0435 49.9191 24.6639 45.9549 24.2517 41.9934C24.2517 41.969 24.2083 41.969 24.2111 41.9934C24.7995 49.065 25.4556 56.1366 26.4345 63.1676C26.6785 64.9174 26.9497 66.6627 27.2479 68.4035C27.5381 70.1687 27.8282 71.9285 27.9665 73.7153C28.1048 75.5022 28.1265 77.2132 28.1427 78.9621C28.1626 80.7698 28.1807 82.5775 28.197 84.3851C28.2377 88.4063 28.2377 95.7464 28.2756 99.7702C28.2756 99.8462 28.3976 99.8435 28.3976 99.7702C28.3542 96.2019 28.3678 89.2984 28.3407 85.7084Z" fill="#263238"/>
<path d="M19.9961 40.5831C19.9961 40.5831 25.2971 70.5236 25.7255 72.8203C25.8258 73.3409 25.8882 76.1717 25.9289 79.8105L31.8942 40.5723L19.9961 40.5831Z" fill="#263238"/>
<path d="M30.9085 110.591C30.274 110.746 12.6112 109.263 11.974 108.777C11.73 108.598 11.795 106.012 11.974 102.888C11.974 102.855 11.974 102.823 11.974 102.79C12.0093 102.148 12.0472 101.483 12.0933 100.814C12.0933 100.721 12.0933 100.629 12.1096 100.542C12.4051 96.0386 12.8091 91.3721 12.8091 91.3721L24.6259 92.3319L23.6254 101.391L23.5874 101.752L23.3813 103.628L23.3623 103.821C23.3623 103.821 29.87 107.413 30.5126 108.018C31.1552 108.623 31.5321 110.437 30.9085 110.591Z" fill="#774442"/>
<path d="M30.9085 110.592C30.274 110.746 12.6112 109.263 11.974 108.778C11.73 108.599 11.795 106.012 11.974 102.888C11.974 102.856 11.974 102.823 11.974 102.791C12.0093 102.148 12.0472 101.484 12.0933 100.814C12.0933 100.722 12.0933 100.63 12.1096 100.543L23.6254 101.392L23.5874 101.752L23.3813 103.629L23.3623 103.821C23.3623 103.821 29.87 107.414 30.5126 108.019C31.1552 108.623 31.5321 110.437 30.9085 110.592Z" fill="#EBEBEB"/>
<path d="M30.9085 110.592C30.274 110.747 12.6112 109.263 11.974 108.778C11.73 108.599 11.795 106.012 11.974 102.889C11.974 102.856 11.974 102.824 11.974 102.791L23.3813 103.623L23.3623 103.816C23.3623 103.816 29.87 107.409 30.5126 108.013C31.1552 108.618 31.5321 110.437 30.9085 110.592Z" fill="#FFD427"/>
<path d="M30.7673 109.89C27.7847 109.567 15.7808 108.534 12.8171 108.447C12.7927 108.447 12.7927 108.464 12.8171 108.466C15.7537 108.851 27.7792 109.779 30.7619 109.939C30.827 109.941 30.8297 109.895 30.7673 109.89Z" fill="#263238"/>
<path d="M24.6452 103.761C23.4928 103.444 22.0448 103.504 21.0768 104.263C21.0416 104.293 21.0768 104.344 21.1229 104.336C22.273 104.069 23.4483 103.925 24.6289 103.908C24.6457 103.905 24.6612 103.897 24.6731 103.885C24.6849 103.873 24.6924 103.858 24.6942 103.841C24.6961 103.824 24.6923 103.807 24.6834 103.792C24.6745 103.778 24.6611 103.767 24.6452 103.761Z" fill="#263238"/>
<path d="M25.4484 104.342C24.296 104.024 22.8481 104.071 21.8828 104.843C21.8448 104.873 21.8828 104.925 21.9262 104.917C23.0763 104.65 24.2516 104.507 25.4321 104.491C25.4502 104.49 25.4674 104.483 25.4806 104.47C25.4938 104.458 25.5021 104.441 25.5041 104.423C25.506 104.405 25.5015 104.387 25.4913 104.372C25.4811 104.357 25.4659 104.346 25.4484 104.342Z" fill="#263238"/>
<path d="M26.2511 104.922C25.0988 104.605 23.6508 104.665 22.6855 105.424C22.6476 105.454 22.6855 105.508 22.7289 105.497C23.8791 105.231 25.0544 105.088 26.2349 105.071C26.253 105.071 26.2701 105.063 26.2833 105.051C26.2965 105.038 26.3049 105.022 26.3068 105.004C26.3088 104.986 26.3042 104.968 26.294 104.953C26.2838 104.938 26.2686 104.927 26.2511 104.922Z" fill="#263238"/>
<path d="M26.3805 101.334C25.9738 100.659 25.0925 100.873 24.5692 101.242C23.6818 101.894 22.9814 102.767 22.5383 103.775C22.5361 103.779 22.5351 103.784 22.5352 103.789C22.5353 103.794 22.5366 103.799 22.5389 103.804C22.5413 103.808 22.5447 103.812 22.5488 103.815C22.5529 103.818 22.5577 103.82 22.5627 103.821C22.5598 103.844 22.5623 103.867 22.57 103.888C22.5777 103.91 22.5903 103.93 22.607 103.945C22.6236 103.961 22.6437 103.973 22.6657 103.98C22.6877 103.986 22.7109 103.988 22.7335 103.984C23.7314 103.712 24.8322 103.533 25.7162 102.959C26.2341 102.622 26.7683 101.977 26.3805 101.334ZM24.1598 103.254C23.6744 103.401 23.1809 103.525 22.701 103.691C23.0814 103.186 23.4878 102.7 23.9185 102.237C24.1299 102.016 24.3564 101.809 24.5963 101.619C24.9705 101.332 26.4076 100.773 26.0931 102.039C25.9223 102.739 24.7536 103.075 24.1625 103.254H24.1598Z" fill="#263238"/>
<path d="M19.6017 103.219C20.5344 103.713 21.6461 103.786 22.663 103.97C22.7687 103.989 22.8311 103.883 22.8202 103.794C22.8251 103.793 22.8296 103.791 22.8334 103.788C22.8373 103.785 22.8403 103.781 22.8421 103.776C22.844 103.771 22.8447 103.766 22.8442 103.761C22.8437 103.757 22.842 103.752 22.8392 103.748C22.3073 102.784 21.5311 101.977 20.5887 101.408C20.0464 101.088 19.138 100.955 18.7936 101.663C18.4493 102.37 19.0594 102.932 19.6017 103.219ZM19.1434 102.341C18.715 101.104 20.1982 101.527 20.5968 101.798C20.852 101.962 21.0957 102.143 21.3262 102.341C21.8015 102.762 22.2541 103.208 22.6819 103.677C22.1884 103.555 21.6868 103.477 21.1879 103.374C20.5697 103.249 19.3658 103.021 19.1299 102.341H19.1434Z" fill="#263238"/>
<path d="M23.8694 103.466L11.3965 102.937C11.3965 102.937 14.6015 74.8241 14.6639 73.1402C14.8293 68.772 17.7306 40.5723 17.7306 40.5723H32.9774C32.9774 40.5723 32.0148 47.0799 30.3689 51.2095C29.2688 51.5981 28.206 52.0854 27.1937 52.6656C27.1937 52.6656 26.2827 72.3729 26.2284 74.6993C26.1091 79.2953 23.8694 103.466 23.8694 103.466Z" fill="#37474F"/>
<path d="M23.5367 101.178C21.5926 101.055 22.1511 101.064 20.2043 100.961C19.2525 100.912 12.989 100.592 12.0914 100.703C12.0725 100.703 12.0697 100.738 12.0914 100.741C12.9781 100.928 19.2444 101.137 20.1989 101.169C22.1484 101.232 21.5871 101.194 23.5367 101.234C23.5412 101.236 23.5459 101.236 23.5505 101.235C23.5551 101.235 23.5595 101.233 23.5633 101.23C23.5671 101.227 23.5701 101.224 23.5722 101.219C23.5743 101.215 23.5754 101.211 23.5754 101.206C23.5754 101.201 23.5743 101.197 23.5722 101.193C23.5701 101.188 23.5671 101.185 23.5633 101.182C23.5595 101.179 23.5551 101.177 23.5505 101.177C23.5459 101.176 23.5412 101.176 23.5367 101.178Z" fill="#263238"/>
<path d="M18.8476 42.2453C18.2836 49.3468 17.7006 56.4482 17.0526 63.5442C16.4045 70.6402 13.7988 95.1225 13.1914 99.065C13.1914 99.0921 13.2267 99.103 13.2321 99.065C14.4902 92.053 15.2223 82.6305 16.0114 75.5508C16.8004 68.471 17.4403 61.375 18.0125 54.279C18.3379 50.2632 18.6307 46.2448 18.9371 42.229C18.9425 42.1857 18.853 42.1884 18.8476 42.2453Z" fill="#263238"/>
<path d="M30.9143 50.9274C29.6263 51.398 28.3816 51.9796 27.1941 52.6654C27.1841 52.6701 27.1763 52.6786 27.1725 52.689C27.1687 52.6994 27.1691 52.711 27.1738 52.721C27.1785 52.7311 27.187 52.7389 27.1974 52.7427C27.2078 52.7465 27.2193 52.746 27.2294 52.7414C28.4875 52.1991 29.7701 51.6866 30.9957 51.0765C31.0155 51.0657 31.0301 51.0475 31.0365 51.0259C31.0429 51.0043 31.0404 50.981 31.0296 50.9613C31.0188 50.9415 31.0006 50.9268 30.979 50.9204C30.9574 50.9141 30.9341 50.9166 30.9143 50.9274Z" fill="#263238"/>
<path d="M31.3163 42.2965C31.3163 42.2531 31.235 42.2423 31.235 42.2965C31.2356 43.7 31.1659 45.1027 31.0262 46.4993C30.9666 47.1474 30.446 50.7293 29.3207 50.469C29.1336 50.4229 29.0495 50.2385 29.0089 49.9565C29.0129 49.5857 29.063 49.2168 29.158 48.8583C29.2827 48.1073 29.383 47.3562 29.4454 46.5997C29.5774 45.1893 29.5629 43.769 29.402 42.3616C29.3998 42.3535 29.395 42.3465 29.3884 42.3414C29.3818 42.3364 29.3737 42.3337 29.3654 42.3337C29.3571 42.3337 29.349 42.3364 29.3424 42.3414C29.3358 42.3465 29.331 42.3535 29.3288 42.3616C29.3616 44.316 29.2474 46.2702 28.9872 48.2076C28.8462 49.1403 28.3771 50.5422 29.3505 50.6859C30.3239 50.8296 30.9774 48.4842 31.1048 47.8415C31.4153 46.0101 31.4863 44.1462 31.3163 42.2965Z" fill="#263238"/>
<path d="M29.3635 50.5558C29.2645 50.7982 29.1803 51.0463 29.1113 51.2988C29.0383 51.4937 29.0033 51.7008 29.0083 51.9089C29.0083 51.9468 29.0625 51.9523 29.0842 51.9252C29.2036 51.7418 29.2949 51.5416 29.3554 51.3313C29.4394 51.1009 29.5289 50.8731 29.6075 50.6426C29.619 50.6102 29.6172 50.5746 29.6025 50.5436C29.5877 50.5126 29.5613 50.4887 29.5289 50.4772C29.4965 50.4657 29.4609 50.4675 29.4299 50.4823C29.3989 50.497 29.375 50.5235 29.3635 50.5558Z" fill="#263238"/>
<path d="M16.7999 45.8492C16.8406 45.8953 34.742 45.4506 34.902 45.2608C35.1216 44.9897 30.2599 26.6138 28.9611 23.886C28.4188 22.7255 25.5283 22.4381 24.3515 23.4603C21.3688 26.0227 19.0125 34.6209 18.4811 37.2077C17.589 41.481 16.6454 45.6974 16.7999 45.8492Z" fill="#FFD427"/>
<path d="M26.3652 29.2602C26.4436 29.4443 26.4948 29.6388 26.5171 29.8377C26.2772 29.5206 26.1231 29.1471 26.0697 28.7531C26.1917 28.9073 26.2913 29.078 26.3652 29.2602ZM27.7942 36.207C27.818 36.4056 27.8691 36.6 27.9461 36.7846C28.0189 36.9707 28.1185 37.1451 28.2416 37.3025C28.218 37.1047 28.1669 36.9113 28.0898 36.7277C28.0158 36.5413 27.9163 36.3661 27.7942 36.207ZM29.4699 44.3253C29.4935 44.5231 29.5446 44.7165 29.6218 44.9001C29.6946 45.0871 29.7942 45.2624 29.9173 45.4208C29.865 45.0265 29.7108 44.6527 29.4699 44.3361V44.3253ZM21.6445 34.1734C21.6655 34.3725 21.7167 34.5673 21.7964 34.751C21.8683 34.9369 21.9669 35.1114 22.0892 35.2689C22.0362 34.8752 21.8831 34.5018 21.6445 34.1843V34.1734ZM18.8164 39.2982C18.8694 39.6918 19.0225 40.0652 19.2611 40.3828C19.2397 40.184 19.1895 39.9895 19.112 39.8052C19.0371 39.6235 18.9377 39.4528 18.8164 39.2982ZM25.7199 42.5167C25.7729 42.9104 25.926 43.2838 26.1646 43.6013C26.1436 43.4031 26.0924 43.2092 26.0128 43.0265C25.94 42.8435 25.8414 42.6718 25.7199 42.5167ZM31.4141 33.2434C31.4367 33.4422 31.4879 33.6367 31.5659 33.8209C31.6378 34.0069 31.7365 34.1813 31.8588 34.3388C31.8374 34.1401 31.7871 33.9455 31.7096 33.7613C31.6391 33.5763 31.5433 33.402 31.4249 33.2434H31.4141ZM23.7839 31.9662C23.9819 31.9439 24.1755 31.8928 24.3587 31.8144C24.5456 31.7426 24.7209 31.6439 24.8793 31.5216C24.6802 31.5426 24.4855 31.5938 24.3018 31.6734C24.1196 31.7462 23.9489 31.8449 23.7947 31.9662H23.7839ZM21.8858 38.4223C22.0845 38.3991 22.279 38.348 22.4634 38.2705C22.6497 38.1965 22.825 38.0971 22.984 37.9749C22.59 38.0284 22.2165 38.1825 21.8994 38.4223H21.8858ZM22.4281 45.7434H22.7454L22.8674 45.6973C23.0538 45.6233 23.229 45.5239 23.388 45.4018C23.047 45.4493 22.7198 45.5685 22.4281 45.7516V45.7434ZM29.3642 39.8839C29.7584 39.8315 30.1323 39.6773 30.4488 39.4365C30.0545 39.4888 29.6807 39.643 29.3642 39.8839ZM24.0306 26.3263C24.4249 26.274 24.7987 26.1198 25.1152 25.8789C24.721 25.9313 24.3472 26.0855 24.0306 26.3263ZM22.3902 27.2048C22.2668 27.362 22.1655 27.5354 22.0892 27.72C22.0087 27.9028 21.9557 28.0965 21.9319 28.2949C22.0572 28.139 22.1587 27.9654 22.2329 27.7797C22.3143 27.5976 22.37 27.405 22.3983 27.2075L22.3902 27.2048ZM19.6353 35.437C19.51 35.5928 19.4085 35.7665 19.3343 35.9522C19.2542 36.1353 19.2003 36.3288 19.1743 36.527C19.2985 36.3704 19.3998 36.1969 19.4753 36.0118C19.5574 35.8298 19.614 35.6372 19.6434 35.4397L19.6353 35.437ZM19.5133 42.9506C19.3905 43.1081 19.2892 43.2814 19.2123 43.4658C19.1337 43.6492 19.0807 43.8427 19.055 44.0406C19.1803 43.8847 19.2818 43.7111 19.356 43.5254C19.4378 43.3434 19.4935 43.1508 19.5214 42.9533L19.5133 42.9506ZM28.4911 32.2916C28.3682 32.4497 28.2679 32.624 28.1928 32.8095C28.1114 32.9922 28.0575 33.1859 28.0328 33.3844C28.157 33.2277 28.2583 33.0543 28.3338 32.8692C28.4139 32.6853 28.4669 32.4907 28.4911 32.2916ZM25.5979 38.924C25.3531 39.2393 25.1951 39.6132 25.1396 40.0086C25.2619 39.8506 25.363 39.6774 25.4406 39.4934C25.5188 39.3116 25.5717 39.1201 25.5979 38.924ZM32.5448 41.9798C32.4195 42.1357 32.318 42.3093 32.2438 42.495C32.1637 42.6782 32.1098 42.8717 32.0838 43.0699C32.2091 42.914 32.3106 42.7404 32.3848 42.5547C32.4644 42.3714 32.5182 42.1779 32.5448 41.9798ZM28.4124 26.5242C28.289 26.6809 28.1885 26.8544 28.1142 27.0394C28.0328 27.2221 27.9789 27.4158 27.9542 27.6143C28.199 27.299 28.357 26.925 28.4124 26.5297V26.5242ZM30.5816 30.5427C30.4245 30.4193 30.2511 30.3181 30.0665 30.2417C29.8836 30.1612 29.6899 30.1082 29.4916 30.0845C29.6479 30.2092 29.8214 30.3106 30.0068 30.3854C30.1935 30.4601 30.3897 30.5085 30.5898 30.5291L30.5816 30.5427ZM22.8837 41.9717C22.727 41.8475 22.5536 41.7462 22.3685 41.6707C22.1852 41.5912 21.9917 41.5373 21.7936 41.5108C22.1096 41.7549 22.4831 41.9137 22.8782 41.9717H22.8837ZM32.5773 37.3432C32.262 37.0983 31.8881 36.9403 31.4927 36.8849C31.6507 37.0071 31.8239 37.1083 32.0079 37.1859C32.1896 37.264 32.3812 37.317 32.5773 37.3432ZM20.3511 30.7244C20.4865 30.8196 20.632 30.8996 20.785 30.963C20.9681 31.0431 21.1616 31.097 21.3598 31.123C21.2035 30.9982 21.03 30.8969 20.8446 30.822C20.6916 30.7559 20.5315 30.7077 20.3674 30.6783C20.3608 30.6932 20.3553 30.7086 20.3511 30.7244ZM28.426 42.213C28.2694 42.0889 28.0959 41.9875 27.9108 41.9121C27.7279 41.8314 27.5343 41.7775 27.336 41.7521C27.4918 41.8774 27.6655 41.9788 27.8512 42.0531C28.0343 42.1332 28.2278 42.187 28.426 42.213ZM26.0561 34.7781C25.8995 34.6539 25.726 34.5526 25.5409 34.4771C25.358 34.3964 25.1644 34.3425 24.9661 34.3171C25.122 34.4424 25.2956 34.5439 25.4813 34.6181C25.6644 34.6982 25.8579 34.7521 26.0561 34.7781Z" fill="white"/>
<path d="M28.0502 26.4998C27.0252 26.6625 25.2031 24.8485 24.6147 23.5524C24.574 23.4629 24.7747 22.5708 24.9645 21.4781C25.0783 20.8138 25.1895 20.0708 25.2356 19.3848C25.2356 19.2438 25.7047 19.5394 25.7047 19.5394L26.5724 19.8105L29.4493 20.7433C29.1404 21.5811 28.9346 22.4534 28.8365 23.3409C28.8288 23.4311 28.8288 23.5218 28.8365 23.612C28.8365 23.6256 28.8365 23.6419 28.8365 23.6608C28.8989 24.2221 29.0399 26.3425 28.0502 26.4998Z" fill="#774442"/>
<path d="M28.8504 23.6334C28.8504 23.647 28.8504 23.6632 28.8504 23.6822C28.7033 23.6941 28.5555 23.6941 28.4084 23.6822C25.5207 23.4111 25.4258 19.6963 25.4258 19.6963L26.5646 19.8319L29.4415 20.7646C29.1326 21.6024 28.9268 22.4747 28.8287 23.3622C28.8283 23.4531 28.8355 23.5438 28.8504 23.6334Z" fill="#263238"/>
<path d="M24.8642 14.7695C24.3626 16.288 25.0676 20.7159 26.1305 21.7246C27.6734 23.1861 30.2466 23.3813 31.502 21.5158C32.7168 19.7099 31.6972 13.9534 30.5042 13.0315C28.7498 11.6838 25.6045 12.5325 24.8642 14.7695Z" fill="#774442"/>
<path d="M29.1409 17.7334C29.1409 17.7334 29.1192 17.7524 29.1219 17.7632C29.1788 18.0615 29.1924 18.4113 28.9375 18.5496C28.9375 18.5496 28.9375 18.5713 28.9375 18.5658C29.2656 18.4628 29.2412 18.0073 29.1409 17.7334Z" fill="#263238"/>
<path d="M28.8202 17.4626C28.3349 17.5005 28.446 18.4686 28.8961 18.436C29.3463 18.4035 29.2324 17.4328 28.8202 17.4626Z" fill="#263238"/>
<path d="M30.8375 17.4834C30.8375 17.4834 30.8619 17.4834 30.8619 17.5051C30.889 17.8061 30.9676 18.1477 31.2496 18.2155V18.2345C30.9134 18.2236 30.8131 17.7708 30.8375 17.4834Z" fill="#263238"/>
<path d="M31.0694 17.139C31.5493 17.0468 31.6985 18.0094 31.2538 18.0962C30.8091 18.183 30.6708 17.2149 31.0694 17.139Z" fill="#263238"/>
<path d="M28.3946 17.0633C28.517 17.0112 28.6365 16.9523 28.7525 16.8871C28.888 16.8442 29.0054 16.7573 29.086 16.6403C29.1049 16.5989 29.1092 16.5523 29.0984 16.508C29.0876 16.4638 29.0622 16.4244 29.0264 16.3963C28.948 16.3498 28.8586 16.3252 28.7674 16.3252C28.6763 16.3252 28.5868 16.3498 28.5085 16.3963C28.3354 16.4663 28.195 16.599 28.1153 16.7678C28.0973 16.8075 28.0915 16.8517 28.0987 16.8947C28.1059 16.9377 28.1257 16.9776 28.1557 17.0094C28.1857 17.0411 28.2244 17.0631 28.2669 17.0727C28.3095 17.0824 28.3539 17.0791 28.3946 17.0633Z" fill="#263238"/>
<path d="M31.3892 16.608C31.2555 16.6017 31.1224 16.5873 30.9906 16.5646C30.8483 16.5658 30.7098 16.519 30.5974 16.4317C30.5666 16.3977 30.5483 16.3542 30.5453 16.3085C30.5424 16.2627 30.555 16.2172 30.5811 16.1795C30.6423 16.1123 30.7203 16.0628 30.8071 16.0361C30.8939 16.0094 30.9863 16.0065 31.0746 16.0277C31.2608 16.0413 31.4351 16.1246 31.5627 16.2609C31.5859 16.2934 31.5997 16.3315 31.6028 16.3713C31.6059 16.4111 31.5981 16.4509 31.5803 16.4866C31.5625 16.5223 31.5353 16.5524 31.5016 16.5738C31.4679 16.5952 31.429 16.607 31.3892 16.608Z" fill="#263238"/>
<path d="M29.0546 20.4498C29.136 20.5121 29.2173 20.5989 29.3258 20.5962C29.4363 20.5813 29.5426 20.5435 29.6376 20.485C29.6376 20.485 29.6593 20.485 29.6539 20.4986C29.6176 20.5626 29.5646 20.6155 29.5007 20.6518C29.4367 20.6881 29.3641 20.7064 29.2905 20.7046C29.2267 20.6964 29.1667 20.6693 29.1184 20.6268C29.0701 20.5843 29.0356 20.5283 29.0194 20.466C29.0172 20.4613 29.017 20.456 29.0188 20.4512C29.0206 20.4463 29.0242 20.4424 29.0289 20.4403C29.0335 20.4381 29.0389 20.4379 29.0437 20.4397C29.0485 20.4415 29.0525 20.4451 29.0546 20.4498Z" fill="#263238"/>
<path d="M29.2682 19.5151C29.3576 19.6252 29.4688 19.7155 29.5948 19.7803C29.7208 19.8452 29.8589 19.8832 30.0003 19.892C30.1238 19.9016 30.248 19.8934 30.3691 19.8676C30.3932 19.8651 30.4168 19.8596 30.4396 19.8514L30.5047 19.8324C30.5202 19.8276 30.5336 19.8178 30.5429 19.8046C30.5522 19.7913 30.5569 19.7754 30.5562 19.7592C30.5575 19.7493 30.5575 19.7392 30.5562 19.7293V19.7022C30.5372 19.4718 30.4748 19.122 30.4748 19.122C30.5643 19.1545 31.0171 19.3009 30.9955 19.1789C30.8505 18.1408 30.5988 17.1204 30.2444 16.1339C30.2426 16.1285 30.2391 16.1237 30.2345 16.1204C30.2299 16.117 30.2243 16.1152 30.2186 16.1152C30.2129 16.1152 30.2073 16.117 30.2027 16.1204C30.1981 16.1237 30.1946 16.1285 30.1928 16.1339C30.3203 17.0938 30.6186 18.0319 30.765 18.9864C30.6036 18.9338 30.4357 18.9037 30.2661 18.8969C30.2335 18.9105 30.3989 19.5694 30.3989 19.6724C30.2135 19.712 30.0221 19.7142 29.8358 19.6788C29.6496 19.6434 29.4723 19.5712 29.3143 19.4663C29.2682 19.4718 29.2465 19.4934 29.2682 19.5151Z" fill="#263238"/>
<path d="M30.2203 19.7644C30.1127 19.9439 29.9604 20.0924 29.7783 20.1956C29.6785 20.2509 29.5632 20.2718 29.4503 20.2552C29.2035 20.22 29.1791 20.0003 29.1954 19.8078C29.2071 19.7048 29.2317 19.6037 29.2686 19.5068C29.5502 19.6921 29.8837 19.7824 30.2203 19.7644Z" fill="#263238"/>
<path d="M29.7783 20.1952C29.6785 20.2505 29.5632 20.2715 29.4503 20.2548C29.2035 20.2196 29.1791 19.9999 29.1954 19.8074C29.3219 19.7974 29.4482 19.8302 29.5539 19.9005C29.6596 19.9708 29.7386 20.0746 29.7783 20.1952Z" fill="#FF98B9"/>
<path d="M31.3694 14.9786C29.9513 16.0388 27.8933 14.6099 27.8933 14.6099C27.782 14.9338 27.569 15.213 27.2861 15.406C27.0032 15.599 26.6655 15.6954 26.3233 15.6809C26.3233 15.6809 26.1389 18.162 25.4882 18.1864C24.4958 18.2216 24.0484 14.8648 24.3358 14.1896C24.6232 13.5144 25.4556 13.3111 25.4556 13.3111C25.5313 12.9057 25.7581 12.5442 26.0901 12.2997C26.7436 11.7574 29.1135 12.3539 29.1135 12.3539C29.2337 12.0361 29.4269 11.7509 29.6775 11.5215C29.7378 11.4646 29.8089 11.4204 29.8867 11.3917C29.9645 11.363 30.0472 11.3502 30.13 11.3543C30.2128 11.3584 30.294 11.3791 30.3686 11.4153C30.4432 11.4515 30.5097 11.5023 30.5641 11.5648C30.448 11.7524 30.3757 11.9637 30.3526 12.1831C30.2659 12.9125 30.8543 12.8881 30.8217 12.2319C30.8202 11.9855 30.7286 11.7483 30.5641 11.5648C30.8353 11.1256 31.3071 10.9656 31.6081 11.1825C32.1476 11.5784 32.549 14.0974 31.3694 14.9786Z" fill="#263238"/>
<path d="M25.7242 18.3872C25.7242 18.3872 24.7318 16.9582 24.0837 17.3026C23.4357 17.6469 24.1786 19.7267 24.9378 20.0141C25.0326 20.0572 25.1351 20.0807 25.2392 20.0832C25.3433 20.0857 25.4468 20.0672 25.5436 20.0287C25.6403 19.9902 25.7283 19.9326 25.8022 19.8592C25.8761 19.7859 25.9344 19.6984 25.9736 19.6019L25.7242 18.3872Z" fill="#774442"/>
<path d="M24.3109 17.8984C24.2974 17.8984 24.2974 17.9147 24.3109 17.9201C24.8533 18.1371 25.1244 18.6305 25.3196 19.143C25.2882 19.09 25.2457 19.0444 25.1951 19.0092C25.1444 18.974 25.0869 18.9501 25.0262 18.939C24.9656 18.928 24.9033 18.93 24.8435 18.9451C24.7837 18.9602 24.7279 18.9879 24.6797 19.0264C24.6662 19.0264 24.6797 19.0563 24.696 19.0535C24.7895 19.024 24.8898 19.0243 24.9831 19.0544C25.0764 19.0846 25.158 19.143 25.2166 19.2217C25.3151 19.353 25.3988 19.4949 25.4661 19.6447C25.4905 19.6935 25.5772 19.6691 25.561 19.6121C25.5664 18.9207 25.0403 17.9689 24.3109 17.8984Z" fill="#263238"/>
<path d="M28.8942 59.6614L21.9473 52.4135L34.4907 46.8848L41.4376 54.1326L28.8942 59.6614Z" fill="#EBEBEB"/>
<path d="M29.3715 60.1575L22.4219 52.9096L34.9653 47.3809L41.9149 54.6287L29.3715 60.1575Z" fill="#C7C7C7"/>
<path d="M35.7035 48.1506C35.5999 48.2031 35.4869 48.2347 35.3711 48.2436C35.2552 48.2524 35.1388 48.2383 35.0284 48.2021C34.9253 48.1696 34.9985 48.0638 35.0989 48.0991C35.2431 48.1434 35.3982 48.1367 35.5381 48.0801L35.6059 48.0475C35.6805 48.0117 35.7449 47.9576 35.793 47.8903C35.8118 47.8594 35.8204 47.8233 35.8174 47.7872C35.8174 47.7872 35.8174 47.7872 35.8174 47.7737V47.7574C35.8049 47.7375 35.7871 47.7215 35.7659 47.7113C35.7247 47.6904 35.6792 47.6793 35.633 47.6788C35.5763 47.679 35.5198 47.6863 35.4649 47.7005C35.4378 47.7005 35.4107 47.7005 35.3809 47.7195H35.3646H35.3375H35.3212L35.2236 47.6164C35.3104 47.5802 35.4015 47.5556 35.4947 47.5432C35.5719 47.5282 35.6513 47.5301 35.7277 47.5488C35.804 47.5676 35.8753 47.6026 35.9367 47.6517C35.9758 47.6925 35.9977 47.7469 35.9977 47.8035C35.9977 47.8601 35.9758 47.9145 35.9367 47.9554C35.8783 48.0406 35.7977 48.1081 35.7035 48.1506Z" fill="#A6A6A6"/>
<path d="M36.2472 48.7175C36.0373 48.8244 35.7936 48.8439 35.5694 48.7718C35.4663 48.7365 35.5395 48.6308 35.6399 48.666C35.785 48.7104 35.941 48.7037 36.0818 48.647C36.1048 48.6389 36.1267 48.628 36.1469 48.6145C36.2233 48.5803 36.2889 48.5259 36.3367 48.4572C36.3556 48.4263 36.3641 48.3903 36.3611 48.3542C36.3611 48.3542 36.3611 48.3542 36.3611 48.3406C36.3479 48.3197 36.3291 48.3028 36.3069 48.2918C36.2659 48.2707 36.2201 48.2605 36.174 48.262C36.1183 48.2598 36.0625 48.2662 36.0086 48.281C35.9815 48.281 35.9544 48.2945 35.9246 48.3H35.9083H35.8812C35.8812 48.3 35.8812 48.3 35.8649 48.3L35.7646 48.1969C35.8514 48.1607 35.9425 48.1361 36.0357 48.1237C36.1133 48.1083 36.1933 48.11 36.2701 48.1287C36.3469 48.1475 36.4187 48.1828 36.4804 48.2322C36.5189 48.2734 36.5404 48.3276 36.5404 48.384C36.5404 48.4404 36.5189 48.4947 36.4804 48.5359C36.4196 48.6154 36.3393 48.678 36.2472 48.7175Z" fill="#A6A6A6"/>
<path d="M36.7895 49.2874C36.5798 49.3921 36.3374 49.4106 36.1143 49.3389C36.0113 49.3037 36.0845 49.2006 36.1848 49.2332C36.3289 49.2771 36.4836 49.2714 36.6241 49.2169L36.6918 49.1844C36.7672 49.1484 36.8317 49.0933 36.8789 49.0244C36.9 48.9955 36.9088 48.9594 36.9033 48.9241L36.8898 48.9078C36.879 48.8865 36.8606 48.8701 36.8383 48.8617C36.7975 48.8397 36.7517 48.8285 36.7054 48.8292C36.6496 48.8269 36.5938 48.8333 36.54 48.8482L36.4559 48.8698H36.437H36.4126H36.3936L36.296 48.7668C36.3827 48.7306 36.4739 48.706 36.5671 48.6936C36.6442 48.6786 36.7237 48.6805 36.8 48.6992C36.8763 48.7179 36.9477 48.753 37.0091 48.8021C37.049 48.8431 37.0713 48.898 37.0713 48.9553C37.0713 49.0125 37.049 49.0675 37.0091 49.1085C36.9508 49.1844 36.8756 49.2456 36.7895 49.2874Z" fill="#A6A6A6"/>
<path d="M37.3351 49.8534C37.1248 49.9594 36.8812 49.9779 36.6573 49.9049C36.5542 49.8724 36.6274 49.7666 36.7278 49.8019C36.8729 49.8462 37.0289 49.8395 37.1697 49.7829L37.2375 49.7503C37.3129 49.7144 37.3774 49.6592 37.4246 49.5904C37.4431 49.5603 37.4516 49.5252 37.449 49.49C37.4484 49.4855 37.4484 49.481 37.449 49.4765V49.4602C37.4367 49.4402 37.4188 49.4242 37.3975 49.4141C37.3553 49.3932 37.309 49.3821 37.2619 49.3816C37.2061 49.3818 37.1505 49.3891 37.0965 49.4033C37.068 49.4074 37.0399 49.4137 37.0125 49.4223H36.9962C36.9874 49.4195 36.9779 49.4195 36.9691 49.4223C36.9691 49.4223 36.9555 49.4223 36.9528 49.4223L36.8552 49.3192C36.9416 49.2815 37.0329 49.2559 37.1264 49.2433C37.2041 49.2282 37.2842 49.2304 37.361 49.2496C37.4378 49.2688 37.5095 49.3046 37.571 49.3545C37.6095 49.3957 37.631 49.4499 37.631 49.5063C37.631 49.5627 37.6095 49.617 37.571 49.6582C37.5103 49.7422 37.4291 49.8094 37.3351 49.8534Z" fill="#A6A6A6"/>
<path d="M37.8773 50.4205C37.7737 50.4731 37.6607 50.5047 37.5449 50.5135C37.429 50.5224 37.3126 50.5083 37.2022 50.4721C37.0991 50.4395 37.1724 50.3338 37.2727 50.369C37.4169 50.4134 37.5721 50.4067 37.7119 50.35L37.7797 50.3175C37.8544 50.2817 37.9187 50.2276 37.9668 50.1602C37.988 50.1304 37.9968 50.0934 37.9912 50.0572C37.9912 50.0572 37.9912 50.0572 37.9912 50.0436C37.9912 50.0301 37.9912 50.0274 37.9912 50.0274C37.9771 50.0079 37.9585 49.9921 37.937 49.9813C37.8959 49.96 37.8504 49.9488 37.8041 49.9487C37.7483 49.9488 37.6927 49.956 37.6387 49.9704C37.6101 49.9739 37.582 49.9802 37.5547 49.9894H37.5384C37.5294 49.9878 37.5203 49.9878 37.5113 49.9894C37.5113 49.9894 37.4977 49.9894 37.495 49.9894L37.3947 49.8864C37.4815 49.8501 37.5726 49.8255 37.6658 49.8132C37.7434 49.7977 37.8234 49.7994 37.9002 49.8182C37.977 49.8369 38.0488 49.8722 38.1105 49.9216C38.1496 49.9625 38.1715 50.0169 38.1715 50.0735C38.1715 50.13 38.1496 50.1844 38.1105 50.2253C38.053 50.3113 37.9721 50.379 37.8773 50.4205Z" fill="#A6A6A6"/>
<path d="M38.4223 51.0006C38.3188 51.0536 38.2059 51.0857 38.0901 51.095C37.9742 51.1043 37.8577 51.0906 37.7471 51.0549C37.6413 51.0196 37.7146 50.9139 37.8149 50.9491C37.9601 50.9935 38.116 50.9868 38.2569 50.9301C38.2805 50.9215 38.3032 50.9106 38.3246 50.8976C38.3998 50.8626 38.4644 50.8083 38.5117 50.7403C38.5306 50.7094 38.5391 50.6733 38.5361 50.6373C38.5361 50.6373 38.5361 50.6373 38.5361 50.6237V50.6102C38.5246 50.5888 38.5066 50.5717 38.4846 50.5614C38.4428 50.5398 38.3961 50.5295 38.3491 50.5315C38.2933 50.5296 38.2375 50.536 38.1836 50.5505C38.1565 50.5505 38.1294 50.5641 38.0996 50.5695H38.0833H38.0562C38.0562 50.5695 38.0427 50.5695 38.0399 50.5695L37.9423 50.4665C38.0289 50.4297 38.1201 50.405 38.2135 50.3932C38.291 50.3778 38.371 50.3795 38.4478 50.3983C38.5246 50.417 38.5964 50.4523 38.6582 50.5017C38.6967 50.5429 38.7181 50.5972 38.7181 50.6535C38.7181 50.7099 38.6967 50.7642 38.6582 50.8054C38.5983 50.8903 38.5169 50.9577 38.4223 51.0006Z" fill="#A6A6A6"/>
<path d="M38.968 51.5569C38.7573 51.6614 38.5141 51.6799 38.2901 51.6084C38.187 51.5732 38.2602 51.4701 38.3606 51.5027C38.5047 51.5466 38.6594 51.5409 38.7998 51.4864L38.8676 51.4538C38.943 51.4179 39.0075 51.3627 39.0547 51.2939C39.0753 51.2647 39.0849 51.2291 39.0818 51.1935V51.1773C39.0691 51.1565 39.0501 51.1404 39.0276 51.1312C38.9868 51.1092 38.9411 51.098 38.8947 51.0986C38.839 51.0964 38.7832 51.1028 38.7293 51.1176L38.6453 51.1393H38.629H38.6019H38.5856L38.4853 51.0363C38.5721 51 38.6632 50.9754 38.7565 50.9631C38.834 50.9476 38.914 50.9493 38.9908 50.9681C39.0676 50.9868 39.1394 51.0221 39.2011 51.0715C39.2404 51.1129 39.2623 51.1677 39.2623 51.2247C39.2623 51.2818 39.2404 51.3366 39.2011 51.3779C39.1393 51.4559 39.0592 51.5173 38.968 51.5569Z" fill="#A6A6A6"/>
<path d="M39.5108 52.1235C39.4072 52.176 39.2942 52.2076 39.1783 52.2164C39.0625 52.2253 38.946 52.2112 38.8356 52.175C38.7326 52.1425 38.8031 52.0367 38.9061 52.072C39.0504 52.1163 39.2055 52.1096 39.3454 52.053L39.4132 52.0204C39.4885 51.9845 39.5531 51.9293 39.6003 51.8605C39.6187 51.8304 39.6273 51.7953 39.6247 51.7601V51.7466V51.7303C39.613 51.7097 39.5949 51.6935 39.5732 51.6842C39.532 51.6633 39.4865 51.6522 39.4403 51.6517C39.3836 51.6519 39.3271 51.6592 39.2722 51.6734C39.2437 51.6774 39.2156 51.6838 39.1881 51.6923H39.1719C39.163 51.6896 39.1536 51.6896 39.1447 51.6923C39.1447 51.6923 39.1447 51.6923 39.1285 51.6923L39.0309 51.5893C39.1171 51.551 39.2084 51.5254 39.302 51.5134C39.3793 51.4987 39.4589 51.5011 39.5352 51.5203C39.6116 51.5395 39.6828 51.5751 39.744 51.6246C39.7831 51.6654 39.8049 51.7198 39.8049 51.7764C39.8049 51.833 39.7831 51.8874 39.744 51.9282C39.684 52.012 39.6038 52.0791 39.5108 52.1235Z" fill="#A6A6A6"/>
<path d="M40.0558 52.6901C39.8455 52.796 39.6019 52.8146 39.378 52.7416C39.2749 52.7091 39.3481 52.6033 39.4485 52.6386C39.5927 52.6829 39.7478 52.6762 39.8877 52.6196C39.9113 52.6109 39.934 52.6 39.9555 52.587C40.0306 52.552 40.0951 52.4977 40.1426 52.4298C40.1634 52.3996 40.173 52.3632 40.1697 52.3267C40.17 52.3222 40.17 52.3177 40.1697 52.3132V52.2969C40.1556 52.2775 40.137 52.2617 40.1155 52.2508C40.0744 52.2295 40.0289 52.2184 39.9826 52.2183C39.9268 52.2183 39.8712 52.2256 39.8172 52.24C39.7888 52.2441 39.7606 52.2504 39.7332 52.2589H39.7169C39.7079 52.2574 39.6988 52.2574 39.6898 52.2589C39.6898 52.2589 39.6762 52.2589 39.6735 52.2589L39.5732 52.1559C39.66 52.1197 39.7511 52.0951 39.8443 52.0827C39.9219 52.0673 40.0019 52.069 40.0787 52.0877C40.1555 52.1064 40.2273 52.1418 40.289 52.1912C40.3281 52.232 40.35 52.2864 40.35 52.343C40.35 52.3996 40.3281 52.454 40.289 52.4948C40.231 52.5803 40.1502 52.6479 40.0558 52.6901Z" fill="#A6A6A6"/>
<path d="M40.5961 53.2571C40.4926 53.3101 40.3798 53.3422 40.2639 53.3515C40.1481 53.3608 40.0315 53.3472 39.9209 53.3114C39.8179 53.2761 39.8911 53.1704 39.9914 53.2056C40.1357 53.25 40.2908 53.2433 40.4307 53.1866C40.4543 53.178 40.477 53.1671 40.4985 53.1541C40.5737 53.1191 40.6382 53.0649 40.6856 52.9968C40.7044 52.9659 40.713 52.9299 40.71 52.8938V52.8802C40.6984 52.8589 40.6804 52.8418 40.6585 52.8314C40.6174 52.8104 40.5717 52.8001 40.5256 52.8016C40.4698 52.7994 40.414 52.8058 40.3602 52.8206C40.3318 52.8253 40.3038 52.8317 40.2761 52.8396H40.2572H40.23H40.2138L40.1162 52.7365C40.2029 52.7003 40.2941 52.6757 40.3873 52.6633C40.4644 52.6483 40.5439 52.6502 40.6202 52.6689C40.6965 52.6877 40.7679 52.7228 40.8293 52.7718C40.869 52.8123 40.8913 52.8668 40.8913 52.9236C40.8913 52.9804 40.869 53.0349 40.8293 53.0755C40.7691 53.1557 40.6886 53.2184 40.5961 53.2571Z" fill="#A6A6A6"/>
<path d="M41.1418 53.8259C40.9311 53.9305 40.688 53.949 40.4639 53.8775C40.3609 53.8422 40.4341 53.7392 40.5344 53.7717C40.6794 53.8156 40.835 53.8099 40.9764 53.7554L41.0415 53.7229C41.118 53.6877 41.1836 53.6324 41.2313 53.5629C41.2497 53.5329 41.2583 53.4978 41.2557 53.4626V53.4463C41.243 53.4256 41.224 53.4094 41.2014 53.4002C41.1607 53.3782 41.1149 53.367 41.0686 53.3677C41.0128 53.3655 40.957 53.3719 40.9032 53.3867L40.8191 53.4084H40.8028H40.7757H40.7595L40.6591 53.3053C40.7459 53.2691 40.8371 53.2445 40.9303 53.2321C41.0078 53.2167 41.0878 53.2184 41.1646 53.2371C41.2414 53.2559 41.3132 53.2912 41.375 53.3406C41.4135 53.3818 41.4349 53.436 41.4349 53.4924C41.4349 53.5488 41.4135 53.6031 41.375 53.6443C41.3131 53.7229 41.2331 53.7852 41.1418 53.8259Z" fill="#A6A6A6"/>
<path d="M41.684 54.3933C41.5804 54.4459 41.4674 54.4775 41.3515 54.4863C41.2357 54.4951 41.1192 54.4811 41.0088 54.4449C40.9058 54.4123 40.979 54.3066 41.0793 54.3418C41.2236 54.3862 41.3787 54.3795 41.5186 54.3228L41.5864 54.2903C41.6617 54.2544 41.7263 54.1992 41.7735 54.1303C41.7945 54.1014 41.8033 54.0653 41.7979 54.03V54.0137C41.7844 53.9936 41.7657 53.9777 41.7436 53.9676C41.7024 53.9467 41.657 53.9356 41.6108 53.9351C41.5549 53.9351 41.4993 53.9424 41.4454 53.9568C41.4168 53.9602 41.3886 53.9666 41.3613 53.9758H41.3451H41.3179H41.299L41.2013 53.8754C41.2876 53.8371 41.3789 53.8115 41.4725 53.7995C41.5498 53.7849 41.6294 53.7872 41.7057 53.8064C41.782 53.8256 41.8533 53.8612 41.9145 53.9107C41.9542 53.9512 41.9765 54.0058 41.9765 54.0625C41.9765 54.1193 41.9542 54.1738 41.9145 54.2144C41.8539 54.2924 41.7746 54.354 41.684 54.3933Z" fill="#A6A6A6"/>
<path d="M22.3133 25.2928C18.4439 30.5776 16.0605 37.7414 16.253 39.3412C16.4645 41.1145 18.669 47.172 21.1066 49.9161C21.7493 50.6373 27.1181 45.2089 26.4646 44.409C25.201 42.8689 22.7634 38.3894 22.6929 37.3889C22.6278 36.467 24.2384 30.6101 24.7455 27.2804C25.2336 24.0727 24.1218 22.8362 22.3133 25.2928Z" fill="#774442"/>
<path d="M26.3101 44.2217C26.3101 44.2217 29.0216 45.5774 30.7624 46.5346C31.7304 47.0769 33.3085 48.1452 33.8399 48.8665C34.6344 49.9511 37.2619 54.9647 36.0607 55.6263C34.9761 56.2282 33.2597 51.6295 33.2597 51.6295C33.2597 51.6295 35.3963 56.1171 33.9511 56.5997C32.5059 57.0824 31.2613 51.6322 31.2613 51.6322C31.2613 51.6322 33.3546 56.2933 31.7873 56.5536C30.6024 56.7516 29.1978 51.8763 29.1978 51.8763C29.1978 51.8763 30.9685 55.8947 29.7591 56.1496C28.4223 56.4208 26.8442 52.0146 26.8442 52.0146C23.6582 52.1474 22.0883 50.9083 21.0742 49.8942C20.8328 49.6447 26.3101 44.2217 26.3101 44.2217Z" fill="#774442"/>
<path d="M32.6176 50.033C32.8888 50.5509 33.1599 51.0742 33.3877 51.6138C33.6154 52.1534 33.8161 52.6984 33.9869 53.2624C34.228 53.9873 34.3827 54.7382 34.4479 55.4994C34.2282 54.1436 33.4609 52.2103 33.2358 51.6707C33.0108 51.1311 32.8183 50.5861 32.5959 50.0438C32.5932 50.0276 32.6176 50.0221 32.6176 50.033Z" fill="#263238"/>
<path d="M30.6545 50.8025C30.9717 51.4804 31.3106 52.1393 31.5954 52.8307C31.8801 53.5221 32.0916 54.1865 32.3275 54.8996C32.3464 54.9538 32.3112 54.9457 32.2922 54.8996C32.0211 54.2054 31.7282 53.5845 31.4544 52.8904C31.1805 52.1962 30.9338 51.4966 30.6409 50.8188C30.6328 50.7998 30.649 50.7944 30.6545 50.8025Z" fill="#263238"/>
<path d="M28.8471 51.1612C29.357 52.1874 29.7604 53.2632 30.051 54.3716C30.0646 54.4258 30.0212 54.4096 30.0022 54.3553C29.6226 53.2707 29.3324 52.4356 28.8118 51.1802C28.8037 51.1612 28.8362 51.1422 28.8471 51.1612Z" fill="#263238"/>
<path d="M18.5801 30.7243L24.3014 32.1071C24.3014 32.1071 25.1799 28.0887 24.9982 25.6158C24.8165 23.1429 23.3713 23.555 21.9152 25.4748C20.4592 27.3945 18.5801 30.7243 18.5801 30.7243Z" fill="#263238"/>
</svg>
