<svg width="373" height="359" viewBox="0 0 373 359" fill="none" xmlns="http://www.w3.org/2000/svg">
<path d="M6.32115 166.711L63.9746 160.598L57.6794 104.592L0 110.141L0.78039 114.477L2.51459 113.861C3.65049 113.809 4.16208 114.546 4.32683 115.673C4.32259 115.696 4.32259 115.72 4.32683 115.743C4.45689 116.887 4.18809 117.954 3.06086 118.197L0.893114 118.067L1.33533 122.003C1.33533 122.003 5.15924 121.136 5.34133 123.564C5.34133 123.564 5.16791 125.818 1.7342 125.576L2.09838 128.853C2.09838 128.853 5.92229 127.813 6.13906 130.336C6.32115 132.478 4.09271 132.642 2.53193 132.703L2.92213 136.172C2.92213 136.172 6.72869 135.382 6.67666 137.975C6.62464 140.568 3.36435 140.073 3.36435 140.073L3.85859 144.487C3.85859 144.487 7.37901 142.944 7.67383 145.58C7.96864 148.216 5.13323 148.016 4.20543 147.808L4.57828 151.164C4.57828 151.164 8.17675 149.62 8.34149 153.002C8.46289 155.543 4.95981 154.502 4.95981 154.502L5.48007 159.176C5.48007 159.176 9.00916 157.676 9.28663 160.19C9.48606 161.976 7.32699 162.791 5.81823 161.976L6.32115 166.711Z" fill="#F5F5F5"/>
<path d="M49.6283 100.516L15.0625 101.771L15.4062 111.234L49.972 109.979L49.6283 100.516Z" fill="#E0E0E0"/>
<path d="M50.6479 119.316C50.1801 119.417 49.7043 119.478 49.2259 119.498L45.3413 119.81C42.0637 120.053 37.5374 120.356 32.5342 120.677C27.5311 120.998 22.9962 121.241 19.7098 121.405L15.8166 121.57C15.3436 121.615 14.8675 121.615 14.3945 121.57C14.8609 121.479 15.3333 121.421 15.8079 121.397L19.6925 121.085C22.9701 120.842 27.4964 120.538 32.5082 120.217C37.5201 119.897 42.0463 119.654 45.324 119.489L49.2172 119.324C49.6932 119.286 50.1715 119.283 50.6479 119.316Z" fill="#E0E0E0"/>
<path d="M52.0268 126.338C51.5591 126.441 51.0833 126.502 50.6048 126.52L46.7202 126.824C43.4426 127.075 38.9163 127.379 33.9131 127.691C28.91 128.003 24.3751 128.255 21.0888 128.419L17.2041 128.584C16.7281 128.624 16.2495 128.624 15.7734 128.584C16.239 128.487 16.7117 128.429 17.1868 128.411L21.0714 128.099C24.349 127.856 28.8753 127.544 33.8871 127.231C38.899 126.919 43.4252 126.659 46.7029 126.503L50.5961 126.33C51.0726 126.299 51.5507 126.302 52.0268 126.338Z" fill="#E0E0E0"/>
<path d="M52.5221 133.554C52.0557 133.645 51.5834 133.703 51.1087 133.727L47.2241 134.039C43.9465 134.282 39.4202 134.585 34.4171 134.906C29.4139 135.227 24.879 135.47 21.5927 135.635L17.6994 135.808C17.226 135.842 16.7507 135.842 16.2773 135.808C16.742 135.705 17.2151 135.644 17.6907 135.626L21.5753 135.314C24.853 135.071 29.3792 134.767 34.3824 134.447C39.3855 134.126 43.9205 133.883 47.2068 133.718L51.1 133.554C51.573 133.508 52.0492 133.508 52.5221 133.554Z" fill="#E0E0E0"/>
<path d="M53.4058 140.758C52.9381 140.86 52.4621 140.918 51.9837 140.932L48.1078 141.244C44.8301 141.495 40.3039 141.799 35.2921 142.111C30.2802 142.423 25.754 142.675 22.4677 142.831L18.5831 143.004C18.107 143.043 17.6284 143.043 17.1523 143.004C17.6171 142.903 18.0902 142.845 18.5657 142.831L22.4503 142.518C25.728 142.276 30.2542 141.964 35.266 141.651C40.2779 141.339 44.8041 141.079 48.0818 140.923L51.975 140.75C52.4516 140.719 52.9296 140.722 53.4058 140.758Z" fill="#E0E0E0"/>
<path d="M55.4058 148.527C54.9381 148.629 54.4621 148.687 53.9837 148.701L50.1078 149.013C46.8301 149.256 42.3039 149.568 37.2921 149.88C32.2802 150.192 27.754 150.452 24.4677 150.608L20.5831 150.782C20.1067 150.816 19.6286 150.816 19.1523 150.782C19.62 150.68 20.096 150.622 20.5744 150.608L24.4503 150.296C27.728 150.045 32.2542 149.741 37.266 149.429C42.2779 149.117 46.8041 148.866 50.0904 148.701L53.975 148.536C54.4509 148.494 54.9294 148.491 55.4058 148.527Z" fill="#E0E0E0"/>
<path d="M44.6454 15.9223L44.2812 73.8965H100.643L101.57 15.9223L97.1656 16.2171L97.5818 17.9513C97.5038 19.0958 96.7147 19.5207 95.5788 19.5554H95.5095C94.3562 19.5554 93.3244 19.1739 93.2117 18.0293L93.5845 15.8789H89.6219C89.6219 15.8789 90.0641 19.7809 87.6189 19.6855C87.6189 19.6855 85.3991 19.2693 86.0321 15.8789H82.7284C82.7284 15.8789 83.3354 19.7982 80.8035 19.7288C78.6531 19.6681 78.7484 17.4397 78.8525 15.8789H75.3841C75.3841 15.8789 75.7396 19.7462 73.173 19.408C70.6064 19.0698 71.4388 15.8789 71.4388 15.8789H67.0166C67.0166 15.8789 68.1525 19.5467 65.5078 19.5467C62.8632 19.5467 63.3661 16.7547 63.6783 15.8789H60.2966C60.2966 15.8789 61.4238 19.6161 58.0508 19.408C55.5102 19.2519 56.9322 15.8789 56.9322 15.8789H52.2325C52.2325 15.8789 53.3338 19.5467 50.8018 19.5467C48.9983 19.5467 48.3913 17.3096 49.4145 15.8789L44.6454 15.9223Z" fill="#FAFAFA"/>
<path d="M57.1895 7.63099L34.7891 23.6504L39.1722 29.7795L61.5726 13.7601L57.1895 7.63099Z" fill="#EBEBEB"/>
<path d="M107.428 60.6974L85.0273 76.7168L89.4105 82.8459L111.811 66.8265L107.428 60.6974Z" fill="#EBEBEB"/>
<path d="M95.6328 31.2356C95.4863 31.2591 95.337 31.2591 95.1906 31.2356H93.9246L89.2856 31.3137C85.3663 31.3137 79.9469 31.3744 73.9726 31.3744C67.9983 31.3744 62.5703 31.3744 58.651 31.3137L54.012 31.3223H52.746C52.6025 31.3464 52.456 31.3464 52.3125 31.3223C52.4564 31.3042 52.6021 31.3042 52.746 31.3223H54.012L58.651 31.253C62.5703 31.253 67.9897 31.1836 73.9726 31.1836C79.9556 31.1836 85.3663 31.1836 89.2856 31.253L93.9246 31.3223H95.1906C95.3338 31.2752 95.4823 31.2461 95.6328 31.2356Z" fill="#E0E0E0"/>
<path d="M94.5846 41.6403C94.4469 41.6646 94.3061 41.6646 94.1684 41.6403H92.9631L88.5323 41.7096C84.7951 41.753 79.6271 41.779 73.913 41.779C68.1988 41.779 63.0395 41.779 59.3023 41.7096L54.8801 41.753H53.6749C53.5342 41.7768 53.3906 41.7768 53.25 41.753C53.3906 41.7292 53.5342 41.7292 53.6749 41.753H54.8801L59.311 41.6836C63.0482 41.6836 68.2161 41.6143 73.9216 41.6143C79.6272 41.6143 84.8037 41.6143 88.5409 41.6836L92.9718 41.753H94.1771C94.3052 41.6915 94.4431 41.6534 94.5846 41.6403Z" fill="#E0E0E0"/>
<path d="M74.9077 51.7333C73.9016 51.8635 72.8872 51.9185 71.8729 51.898C70 51.898 67.416 51.9587 64.5632 51.9587C61.7105 51.9587 59.1179 51.9587 57.2536 51.898C56.2393 51.9185 55.2249 51.8635 54.2188 51.7333C55.2254 51.6093 56.2396 51.5571 57.2536 51.5772C59.1179 51.5772 61.7105 51.5078 64.5632 51.5078C67.416 51.5078 70 51.5078 71.8729 51.5772C72.8869 51.5571 73.9011 51.6093 74.9077 51.7333Z" fill="#E0E0E0"/>
<path d="M372.999 358.011C372.999 358.132 292.627 358.236 193.509 358.236C94.3909 358.236 14.0195 358.132 14.0195 358.011C14.0195 357.889 94.3823 357.785 193.509 357.785C292.636 357.785 372.999 357.889 372.999 358.011Z" fill="#263238"/>
<path d="M298.578 324.384C297.043 326.578 294.051 325.85 292.673 324.515C291.294 323.179 290.704 321.228 290.167 319.381C288.953 315.15 287.73 310.71 288.632 306.375C288.851 305.072 289.424 303.854 290.288 302.854C290.726 302.362 291.286 301.992 291.911 301.784C292.537 301.575 293.206 301.535 293.852 301.666C295.361 302.065 296.297 303.539 296.974 304.935C298.961 309.077 300.004 313.608 300.026 318.202C300.17 320.35 299.666 322.492 298.578 324.35" fill="#324C72"/>
<path opacity="0.2" d="M298.578 324.384C297.043 326.578 294.051 325.85 292.673 324.515C291.294 323.179 290.704 321.228 290.167 319.381C288.953 315.15 287.73 310.71 288.632 306.375C288.851 305.072 289.424 303.854 290.288 302.854C290.726 302.362 291.286 301.992 291.911 301.784C292.537 301.575 293.206 301.535 293.852 301.666C295.361 302.065 296.297 303.539 296.974 304.935C298.961 309.077 300.004 313.608 300.026 318.202C300.17 320.35 299.666 322.492 298.578 324.35" fill="black"/>
<path d="M292.821 335.492C290.247 334.286 287.355 333.933 284.566 334.486C283.041 334.626 281.605 335.266 280.482 336.307C279.468 337.434 279.277 339.411 280.482 340.383C281.246 340.898 282.167 341.129 283.084 341.033C285.269 341.033 287.688 340.625 289.431 341.9C290.428 342.654 291.096 343.894 292.284 344.267C292.879 344.404 293.503 344.344 294.062 344.095C294.62 343.846 295.082 343.423 295.379 342.889C295.944 341.794 296.068 340.525 295.726 339.342C295.572 338.52 295.229 337.744 294.725 337.076C294.221 336.408 293.57 335.866 292.821 335.492Z" fill="#324C72"/>
<path d="M302.793 327.532C302.005 326.501 301.48 325.294 301.264 324.014C301.048 322.734 301.147 321.421 301.553 320.188C302.393 317.727 303.893 315.543 305.889 313.876C308.166 311.849 310.817 310.288 313.693 309.28C314.793 308.834 315.976 308.63 317.161 308.682C317.755 308.712 318.332 308.885 318.844 309.187C319.356 309.489 319.787 309.911 320.101 310.416C320.924 311.985 320.101 313.884 319.286 315.428C317.785 318.158 316.075 320.767 314.17 323.232C312.635 325.209 310.883 327.151 308.542 328.053C306.201 328.954 303.773 328.833 302.542 327.185" fill="#324C72"/>
<path d="M298.681 357.472C298.595 357.147 298.549 356.812 298.543 356.475C298.473 355.747 298.378 354.836 298.274 353.753C298.14 352.413 297.937 351.082 297.667 349.764C297.308 348.158 296.821 346.584 296.21 345.056C295.617 343.529 294.808 342.095 293.808 340.798C292.994 339.742 291.958 338.878 290.773 338.266C289.954 337.865 289.076 337.596 288.172 337.468C287.865 337.449 287.56 337.399 287.262 337.321C287.596 337.28 287.934 337.28 288.268 337.321C289.192 337.392 290.096 337.627 290.938 338.015C292.19 338.605 293.288 339.478 294.146 340.564C295.187 341.877 296.026 343.339 296.635 344.899C297.255 346.45 297.74 348.051 298.083 349.686C298.335 351.022 298.511 352.371 298.612 353.727C298.699 354.88 298.725 355.816 298.742 356.467C298.757 356.803 298.737 357.14 298.681 357.472Z" fill="#263238"/>
<path d="M298.533 355.383C298.523 355.227 298.523 355.07 298.533 354.915C298.533 354.568 298.533 354.134 298.533 353.597C298.533 352.443 298.533 350.787 298.473 348.732C298.369 344.631 298.013 338.969 297.337 332.743C296.661 326.517 295.733 320.916 294.909 316.901C294.71 315.895 294.51 314.985 294.328 314.196C294.146 313.407 293.999 312.713 293.851 312.158C293.704 311.603 293.626 311.213 293.539 310.875C293.495 310.725 293.468 310.571 293.461 310.415C293.532 310.552 293.584 310.698 293.617 310.849L294.007 312.115C294.172 312.669 294.354 313.346 294.545 314.144C294.736 314.941 294.978 315.878 295.186 316.84C296.295 322.079 297.123 327.373 297.666 332.699C298.351 338.934 298.655 344.613 298.681 348.732C298.681 350.787 298.681 352.452 298.612 353.597C298.577 354.134 298.551 354.576 298.533 354.923C298.553 355.076 298.553 355.23 298.533 355.383Z" fill="#263238"/>
<path d="M298.465 344.423C298.428 343.964 298.428 343.503 298.465 343.044C298.517 342.177 298.638 340.876 298.889 339.298C299.189 337.458 299.594 335.637 300.103 333.844C300.713 331.643 301.475 329.488 302.384 327.393C303.969 323.547 306.24 320.021 309.087 316.988C309.578 316.466 310.102 315.976 310.656 315.522C310.899 315.314 311.116 315.115 311.332 314.95L311.939 314.525C312.311 314.248 312.702 313.999 313.11 313.779C311.77 314.836 310.496 315.974 309.295 317.187C306.539 320.257 304.331 323.776 302.765 327.592C301.859 329.669 301.091 331.804 300.468 333.983C299.869 335.986 299.479 337.833 299.176 339.385C298.872 340.937 298.725 342.211 298.629 343.087C298.606 343.536 298.551 343.982 298.465 344.423Z" fill="#263238"/>
<path d="M299.901 281.125L112.312 257.271L144.985 0.323242L337.238 24.7754C338.246 24.9031 339.163 25.4261 339.786 26.2294C340.408 27.0327 340.687 28.0505 340.559 29.0589L309.439 273.737C309.299 274.849 308.94 275.922 308.385 276.895C307.829 277.868 307.088 278.722 306.202 279.409C305.316 280.095 304.303 280.599 303.222 280.894C302.141 281.188 301.012 281.267 299.901 281.125Z" fill="#455A64"/>
<path d="M324.844 67.8397L323.254 80.3379L346.513 83.2968L348.103 70.7986L324.844 67.8397Z" fill="#324C72"/>
<path opacity="0.3" d="M324.844 67.8397L323.254 80.3379L346.513 83.2968L348.103 70.7986L324.844 67.8397Z" fill="black"/>
<path d="M333.597 31.3819L152.188 8.30371L121.104 252.643L302.513 275.721L333.597 31.3819Z" fill="#E0E0E0"/>
<path d="M325.89 27.3633L144.48 4.28516L113.397 248.624L294.806 271.702L325.89 27.3633Z" fill="#FAFAFA"/>
<path d="M147.305 28.0353L147.195 28.8955L327.968 51.8927L328.077 51.0325L147.305 28.0353Z" fill="#E0E0E0"/>
<path d="M146.895 40.3351L146.785 41.1953L327.558 64.1925L327.667 63.3323L146.895 40.3351Z" fill="#E0E0E0"/>
<path d="M145.356 52.4787L145.246 53.3389L326.019 76.336L326.128 75.4759L145.356 52.4787Z" fill="#E0E0E0"/>
<path d="M144.792 65.2822L144.68 66.1406L325.087 89.8305L325.2 88.972L144.792 65.2822Z" fill="#E0E0E0"/>
<path d="M143.214 77.4765L143.102 78.335L323.509 102.025L323.622 101.166L143.214 77.4765Z" fill="#E0E0E0"/>
<path d="M141.636 89.6631L141.523 90.5215L321.931 114.211L322.043 113.353L141.636 89.6631Z" fill="#E0E0E0"/>
<path d="M140.062 101.857L139.949 102.716L320.356 126.406L320.469 125.547L140.062 101.857Z" fill="#E0E0E0"/>
<path d="M137.625 113.227L137.516 114.087L318.288 137.084L318.398 136.224L137.625 113.227Z" fill="#E0E0E0"/>
<path d="M136.082 125.379L135.973 126.239L316.745 149.236L316.855 148.376L136.082 125.379Z" fill="#E0E0E0"/>
<path d="M135.343 138.441L135.23 139.3L315.638 162.99L315.75 162.131L135.343 138.441Z" fill="#E0E0E0"/>
<path d="M133.761 150.628L133.648 151.486L314.056 175.176L314.168 174.318L133.761 150.628Z" fill="#E0E0E0"/>
<path d="M132.183 162.822L132.07 163.681L312.478 187.371L312.59 186.512L132.183 162.822Z" fill="#E0E0E0"/>
<path d="M130.613 175.025L130.5 175.884L310.907 199.574L311.02 198.715L130.613 175.025Z" fill="#E0E0E0"/>
<path d="M127.46 199.406L127.348 200.265L307.755 223.954L307.868 223.096L127.46 199.406Z" fill="#E0E0E0"/>
<path d="M125.89 211.601L125.777 212.459L306.185 236.149L306.297 235.29L125.89 211.601Z" fill="#E0E0E0"/>
<path d="M124.312 223.786L124.199 224.645L304.606 248.334L304.719 247.476L124.312 223.786Z" fill="#E0E0E0"/>
<path d="M122.172 234.734L122.062 235.594L302.835 258.591L302.945 257.731L122.172 234.734Z" fill="#E0E0E0"/>
<path d="M172.916 9.19177L141.77 252.666L142.63 252.776L173.776 9.30179L172.916 9.19177Z" fill="#324C72"/>
<path d="M160.281 19.3562C160.188 20.0857 159.88 20.7712 159.398 21.3261C158.915 21.881 158.279 22.2804 157.569 22.4738C156.86 22.6672 156.109 22.646 155.411 22.4128C154.714 22.1796 154.101 21.7449 153.651 21.1636C153.2 20.5823 152.932 19.8805 152.88 19.1469C152.829 18.4133 152.995 17.6809 153.36 17.042C153.724 16.4032 154.27 15.8867 154.927 15.5578C155.585 15.2289 156.326 15.1023 157.055 15.1941C157.54 15.2552 158.009 15.4113 158.434 15.6536C158.859 15.8959 159.232 16.2196 159.531 16.6062C159.831 16.9928 160.051 17.4347 160.18 17.9066C160.308 18.3784 160.343 18.8711 160.281 19.3562Z" fill="#455A64"/>
<path d="M156.829 46.4611C156.737 47.1915 156.43 47.8782 155.948 48.4344C155.466 48.9905 154.829 49.391 154.119 49.5853C153.409 49.7795 152.657 49.7586 151.959 49.5254C151.261 49.2922 150.648 48.857 150.197 48.275C149.746 47.693 149.478 46.9904 149.427 46.256C149.376 45.5216 149.544 44.7886 149.909 44.1497C150.275 43.5107 150.822 42.9946 151.481 42.6667C152.14 42.3388 152.882 42.2139 153.612 42.3077C154.588 42.4353 155.473 42.9435 156.076 43.7216C156.679 44.4996 156.949 45.4843 156.829 46.4611Z" fill="#455A64"/>
<path d="M153.379 73.5759C153.285 74.303 152.977 74.9857 152.494 75.5379C152.012 76.0901 151.376 76.4869 150.668 76.6784C149.961 76.8699 149.212 76.8473 148.517 76.6137C147.822 76.38 147.212 75.9457 146.763 75.3655C146.315 74.7853 146.048 74.0853 145.997 73.3538C145.946 72.6223 146.113 71.8921 146.477 71.2553C146.841 70.6186 147.385 70.1039 148.041 69.7761C148.697 69.4484 149.435 69.3223 150.163 69.4138C150.648 69.4748 151.116 69.631 151.54 69.8734C151.965 70.1158 152.337 70.4397 152.636 70.8264C152.935 71.2131 153.154 71.6551 153.282 72.127C153.41 72.5988 153.443 73.0912 153.379 73.5759Z" fill="#455A64"/>
<path d="M149.938 100.682C149.847 101.412 149.541 102.098 149.059 102.654C148.577 103.211 147.941 103.611 147.231 103.806C146.522 104.001 145.77 103.981 145.072 103.748C144.374 103.516 143.761 103.082 143.309 102.501C142.858 101.919 142.589 101.217 142.537 100.483C142.484 99.7495 142.651 99.0165 143.015 98.3772C143.38 97.7379 143.925 97.221 144.583 96.8918C145.242 96.5627 145.983 96.4362 146.713 96.5282C147.69 96.6538 148.578 97.1611 149.182 97.9394C149.787 98.7177 150.058 99.7036 149.938 100.682Z" fill="#455A64"/>
<path d="M146.485 127.795C146.393 128.525 146.087 129.212 145.604 129.768C145.122 130.324 144.486 130.725 143.776 130.919C143.065 131.113 142.314 131.093 141.615 130.859C140.917 130.626 140.304 130.191 139.853 129.609C139.402 129.027 139.134 128.324 139.083 127.59C139.032 126.856 139.2 126.123 139.565 125.484C139.931 124.845 140.478 124.329 141.137 124.001C141.796 123.673 142.538 123.548 143.268 123.642C143.752 123.703 144.219 123.859 144.643 124.1C145.067 124.342 145.439 124.665 145.738 125.051C146.037 125.437 146.256 125.878 146.385 126.349C146.513 126.82 146.547 127.311 146.485 127.795Z" fill="#455A64"/>
<path d="M143.036 154.91C142.941 155.637 142.633 156.32 142.15 156.872C141.668 157.424 141.033 157.821 140.325 158.012C139.617 158.204 138.868 158.181 138.173 157.948C137.478 157.714 136.868 157.28 136.419 156.699C135.971 156.119 135.704 155.419 135.654 154.688C135.603 153.956 135.769 153.226 136.133 152.589C136.497 151.953 137.041 151.438 137.697 151.11C138.353 150.782 139.091 150.656 139.819 150.748C140.304 150.809 140.772 150.965 141.196 151.207C141.621 151.45 141.993 151.774 142.292 152.16C142.591 152.547 142.811 152.989 142.938 153.461C143.066 153.933 143.099 154.425 143.036 154.91Z" fill="#455A64"/>
<path d="M139.594 182.015C139.502 182.746 139.195 183.433 138.712 183.989C138.23 184.545 137.593 184.945 136.882 185.139C136.171 185.333 135.419 185.311 134.721 185.077C134.023 184.843 133.41 184.407 132.96 183.824C132.509 183.241 132.242 182.538 132.192 181.803C132.142 181.068 132.311 180.335 132.678 179.697C133.045 179.058 133.593 178.543 134.253 178.216C134.913 177.889 135.656 177.766 136.386 177.861C137.361 177.989 138.246 178.498 138.847 179.276C139.449 180.054 139.717 181.039 139.594 182.015Z" fill="#455A64"/>
<path d="M136.14 209.13C136.047 209.86 135.739 210.545 135.256 211.1C134.773 211.655 134.136 212.054 133.426 212.247C132.716 212.44 131.965 212.418 131.267 212.184C130.57 211.95 129.957 211.514 129.507 210.932C129.057 210.35 128.79 209.648 128.739 208.914C128.689 208.18 128.857 207.447 129.222 206.809C129.588 206.17 130.135 205.655 130.794 205.327C131.452 204.999 132.193 204.874 132.923 204.968C133.408 205.029 133.876 205.185 134.301 205.427C134.725 205.67 135.097 205.994 135.396 206.38C135.695 206.767 135.915 207.209 136.042 207.681C136.17 208.153 136.203 208.645 136.14 209.13Z" fill="#455A64"/>
<path d="M132.7 236.235C132.608 236.965 132.302 237.652 131.821 238.208C131.339 238.764 130.703 239.165 129.993 239.36C129.284 239.555 128.532 239.534 127.834 239.302C127.136 239.07 126.522 238.635 126.071 238.054C125.62 237.473 125.351 236.771 125.298 236.037C125.246 235.303 125.413 234.57 125.777 233.931C126.141 233.292 126.687 232.775 127.345 232.446C128.003 232.116 128.744 231.99 129.474 232.082C130.452 232.208 131.34 232.715 131.944 233.493C132.548 234.271 132.82 235.257 132.7 236.235Z" fill="#455A64"/>
<path d="M141.865 30.1166C141.865 30.1599 141.717 30.1599 141.457 30.1166C141.076 30.0545 140.701 29.9558 140.339 29.8217C139.76 29.5934 139.207 29.3027 138.691 28.9546C138.003 28.485 137.39 27.9151 136.87 27.2638C136.252 26.4615 135.771 25.5619 135.448 24.6018C135.081 23.5028 134.891 22.3527 134.885 21.1941C134.835 19.8754 135.103 18.5641 135.665 17.3702C136.326 16.1133 137.292 15.0428 138.474 14.2573C139.634 13.4771 140.946 12.9538 142.324 12.7225C143.591 12.5144 144.882 12.5144 146.148 12.7225C148.249 13.0917 150.252 13.8853 152.036 15.055C153.217 15.8115 154.321 16.6828 155.331 17.6563C156.033 18.35 156.371 18.7836 156.311 18.8529C156.25 18.9223 155.79 18.6275 154.993 18.0639C153.877 17.268 152.719 16.5328 151.524 15.8614C149.801 14.8824 147.91 14.2326 145.949 13.9452C144.816 13.7911 143.667 13.8145 142.541 14.0145C141.349 14.2294 140.215 14.6901 139.211 15.3672C138.216 16.0292 137.395 16.9215 136.818 17.9685C136.342 18.9732 136.102 20.0736 136.116 21.1854C136.098 22.2192 136.23 23.2501 136.506 24.2463C136.75 25.1116 137.128 25.9336 137.625 26.6828C138.051 27.2978 138.558 27.8521 139.133 28.3303C139.575 28.6977 140.048 29.0256 140.547 29.3102C140.954 29.5529 141.301 29.683 141.527 29.8217C141.752 29.9605 141.882 30.0732 141.865 30.1166Z" fill="#324C72"/>
<path d="M138.421 57.2484C138.421 57.3004 138.265 57.2484 138.005 57.2484C137.624 57.1815 137.249 57.0799 136.886 56.9449C136.308 56.7217 135.758 56.4306 135.248 56.0778C134.554 55.6186 133.939 55.0506 133.427 54.3956C132.802 53.5975 132.321 52.6967 132.005 51.7336C131.638 50.6317 131.448 49.4786 131.441 48.3173C131.385 46.999 131.65 45.6867 132.213 44.4934C132.879 43.2426 133.844 42.1762 135.022 41.3891C136.183 40.6047 137.499 40.0784 138.881 39.8457C140.147 39.6374 141.438 39.6374 142.705 39.8457C144.804 40.211 146.805 41.005 148.584 42.1782C149.765 42.9347 150.869 43.806 151.878 44.7795C152.589 45.4732 152.928 45.9067 152.867 45.9761C152.806 46.0455 152.347 45.742 151.54 45.187C150.427 44.3874 149.269 43.6521 148.072 42.9846C146.348 42.0039 144.458 41.3512 142.496 41.0597C141.361 40.9056 140.208 40.929 139.08 41.129C137.898 41.3549 136.776 41.8245 135.785 42.5077C134.79 43.1697 133.969 44.062 133.392 45.109C132.913 46.1129 132.673 47.2139 132.69 48.3259C132.666 49.3623 132.794 50.3965 133.071 51.3955C133.314 52.2627 133.695 53.0854 134.198 53.832C134.617 54.4479 135.122 54.9999 135.698 55.4708C136.139 55.8393 136.612 56.1673 137.112 56.4507C137.519 56.7021 137.875 56.8322 138.092 56.9709C138.308 57.1097 138.43 57.179 138.421 57.2484Z" fill="#324C72"/>
<path d="M134.97 84.3365C134.97 84.3365 134.814 84.3365 134.554 84.3365C134.176 84.2732 133.804 84.1745 133.444 84.0417C132.08 83.5267 130.882 82.6517 129.976 81.5098C129.353 80.7073 128.872 79.804 128.554 78.8391C128.187 77.7401 127.997 76.59 127.99 75.4314C127.941 74.1127 128.208 72.8014 128.771 71.6075C129.426 70.352 130.39 69.2838 131.571 68.5033C132.734 67.7217 134.049 67.1956 135.43 66.9599C136.696 66.7517 137.988 66.7517 139.254 66.9599C141.356 67.3278 143.36 68.1248 145.141 69.301C146.32 70.0571 147.421 70.9285 148.428 71.9023C149.139 72.5873 149.477 73.0209 149.416 73.0903C149.355 73.1596 148.896 72.8648 148.098 72.3012C146.981 71.5106 145.823 70.7784 144.63 70.1074C142.909 69.1216 141.017 68.4686 139.054 68.1825C137.922 68.0283 136.772 68.0517 135.647 68.2518C134.455 68.4667 133.321 68.9274 132.317 69.6045C131.322 70.2665 130.501 71.1588 129.924 72.2058C129.447 73.2105 129.207 74.3109 129.221 75.4227C129.195 76.4569 129.327 77.4891 129.612 78.4836C129.852 79.3504 130.229 80.173 130.73 80.9202C131.153 81.5346 131.658 82.0888 132.23 82.5676C132.675 82.9311 133.147 83.2587 133.644 83.5475C134.06 83.7902 134.407 83.929 134.623 84.0677C134.84 84.2064 134.988 84.2932 134.97 84.3365Z" fill="#324C72"/>
<path d="M131.521 111.451C131.521 111.494 131.373 111.494 131.113 111.451C130.732 111.385 130.357 111.283 129.995 111.147C129.414 110.927 128.864 110.636 128.356 110.28C127.661 109.819 127.044 109.251 126.526 108.598C125.908 107.795 125.427 106.896 125.104 105.936C124.745 104.832 124.555 103.68 124.541 102.519C124.493 101.201 124.76 99.8899 125.321 98.6955C125.987 97.4448 126.952 96.3783 128.13 95.5913C129.288 94.8074 130.601 94.2838 131.98 94.0565C133.246 93.8483 134.538 93.8483 135.804 94.0565C137.906 94.4202 139.911 95.2143 141.692 96.389C142.873 97.1455 143.977 98.0168 144.987 98.9903C145.689 99.684 146.027 100.118 145.975 100.187C145.923 100.256 145.446 99.9615 144.649 99.3979C143.534 98.6002 142.376 97.865 141.18 97.1954C139.455 96.2185 137.565 95.5661 135.605 95.2705C134.469 95.1208 133.317 95.1442 132.188 95.3398C130.997 95.5617 129.864 96.025 128.859 96.7012C127.876 97.3106 127.073 98.1689 126.529 99.1892C125.985 100.21 125.721 101.355 125.763 102.511C125.746 103.547 125.878 104.581 126.153 105.58C126.398 106.446 126.775 107.268 127.272 108.017C127.696 108.631 128.204 109.183 128.781 109.656C129.221 110.024 129.694 110.352 130.194 110.635C130.602 110.887 130.948 111.017 131.174 111.156C131.399 111.294 131.538 111.399 131.521 111.451Z" fill="#324C72"/>
<path d="M128.076 138.556C128.076 138.556 127.92 138.556 127.659 138.556C127.279 138.485 126.905 138.383 126.541 138.253C125.964 138.026 125.414 137.735 124.902 137.385C124.209 136.926 123.594 136.358 123.081 135.703C122.456 134.902 121.975 133.998 121.659 133.033C121.292 131.934 121.102 130.783 121.095 129.625C121.047 128.307 121.312 126.997 121.867 125.801C122.531 124.549 123.496 123.482 124.677 122.697C125.838 121.914 127.154 121.388 128.535 121.153C129.801 120.945 131.093 120.945 132.359 121.153C134.458 121.519 136.459 122.313 138.238 123.486C139.419 124.242 140.523 125.114 141.533 126.087C142.244 126.781 142.582 127.214 142.521 127.275C142.461 127.336 142.001 127.05 141.203 126.495C140.089 125.698 138.931 124.962 137.735 124.292C136.012 123.311 134.121 122.659 132.16 122.367C131.027 122.213 129.877 122.237 128.752 122.437C127.56 122.652 126.426 123.112 125.422 123.789C124.427 124.451 123.606 125.344 123.029 126.391C122.549 127.394 122.308 128.495 122.327 129.608C122.303 130.644 122.431 131.678 122.708 132.677C122.957 133.54 123.337 134.359 123.835 135.105C124.254 135.723 124.759 136.278 125.336 136.752C125.779 137.118 126.251 137.446 126.749 137.732C127.156 137.975 127.512 138.114 127.729 138.253C127.946 138.391 128.084 138.513 128.076 138.556Z" fill="#324C72"/>
<path d="M124.627 165.636C124.627 165.679 124.479 165.679 124.219 165.636C123.838 165.57 123.464 165.471 123.1 165.341C122.52 165.116 121.967 164.825 121.453 164.474C120.763 164.01 120.149 163.443 119.632 162.792C119.014 161.989 118.533 161.09 118.21 160.13C117.843 159.031 117.653 157.881 117.646 156.722C117.597 155.403 117.865 154.092 118.427 152.898C119.087 151.641 120.053 150.571 121.236 149.785C122.405 149.013 123.727 148.504 125.112 148.294C126.378 148.086 127.67 148.086 128.936 148.294C131.037 148.663 133.04 149.457 134.824 150.626C136.005 151.383 137.109 152.254 138.119 153.228C138.821 153.921 139.159 154.355 139.098 154.424C139.038 154.494 138.578 154.199 137.78 153.635C136.665 152.839 135.507 152.104 134.312 151.433C132.588 150.454 130.698 149.804 128.737 149.516C127.604 149.359 126.455 149.38 125.329 149.577C124.138 149.799 123.005 150.262 121.999 150.938C121.014 151.547 120.207 152.406 119.663 153.428C119.12 154.451 118.857 155.6 118.904 156.757C118.882 157.791 119.013 158.822 119.294 159.818C119.534 160.684 119.912 161.507 120.412 162.254C120.838 162.869 121.346 163.423 121.921 163.902C122.359 164.267 122.829 164.592 123.326 164.873C123.742 165.124 124.089 165.254 124.314 165.393C124.54 165.532 124.644 165.636 124.627 165.636Z" fill="#324C72"/>
<path d="M121.183 192.776C121.183 192.828 121.027 192.819 120.767 192.776C120.386 192.704 120.012 192.603 119.648 192.472C119.069 192.249 118.519 191.958 118.009 191.605C117.314 191.141 116.697 190.571 116.18 189.914C115.561 189.114 115.083 188.213 114.766 187.252C114.4 186.15 114.21 184.997 114.203 183.836C114.147 182.518 114.411 181.205 114.974 180.012C115.64 178.761 116.605 177.695 117.784 176.908C118.945 176.123 120.261 175.597 121.642 175.364C122.909 175.156 124.2 175.156 125.466 175.364C127.565 175.73 129.567 176.524 131.345 177.697C132.527 178.453 133.63 179.325 134.64 180.298C135.351 180.992 135.689 181.425 135.629 181.495C135.568 181.564 135.1 181.261 134.302 180.706C133.189 179.906 132.031 179.171 130.834 178.503C129.11 177.522 127.22 176.87 125.258 176.578C124.123 176.424 122.97 176.448 121.842 176.648C120.653 176.862 119.521 177.323 118.521 178C117.525 178.662 116.705 179.555 116.128 180.602C115.648 181.605 115.408 182.706 115.425 183.818C115.401 184.855 115.53 185.889 115.807 186.888C116.05 187.755 116.43 188.578 116.934 189.325C117.352 189.94 117.858 190.492 118.434 190.963C118.894 191.35 119.388 191.695 119.908 191.995C120.316 192.238 120.671 192.377 120.888 192.515C121.105 192.654 121.191 192.732 121.183 192.776Z" fill="#324C72"/>
<path d="M117.732 219.89C117.732 219.933 117.576 219.933 117.316 219.89C116.937 219.827 116.566 219.728 116.206 219.595C115.627 219.367 115.074 219.076 114.558 218.728C113.869 218.261 113.255 217.691 112.737 217.037C112.113 216.239 111.632 215.338 111.315 214.375C110.949 213.276 110.758 212.126 110.752 210.968C110.703 209.649 110.97 208.338 111.532 207.144C112.19 205.887 113.153 204.817 114.333 204.031C115.496 203.252 116.811 202.729 118.192 202.496C119.458 202.288 120.749 202.288 122.015 202.496C124.116 202.865 126.12 203.659 127.903 204.828C129.082 205.585 130.183 206.456 131.189 207.43C131.9 208.123 132.239 208.557 132.178 208.626C132.117 208.696 131.658 208.401 130.86 207.837C129.743 207.043 128.585 206.308 127.391 205.635C125.668 204.656 123.777 204.006 121.816 203.719C120.683 203.564 119.534 203.588 118.408 203.788C117.217 204.003 116.083 204.464 115.079 205.141C114.083 205.803 113.262 206.695 112.685 207.742C112.209 208.747 111.969 209.847 111.983 210.959C111.957 211.993 112.088 213.025 112.373 214.02C112.613 214.886 112.991 215.709 113.492 216.456C113.915 217.071 114.42 217.625 114.992 218.104C115.436 218.467 115.909 218.795 116.405 219.084C116.813 219.326 117.168 219.456 117.385 219.595C117.602 219.734 117.749 219.847 117.732 219.89Z" fill="#324C72"/>
<path d="M114.283 246.995C114.283 247.047 114.135 247.039 113.875 246.995C113.494 246.93 113.119 246.828 112.757 246.692C112.174 246.471 111.621 246.18 111.109 245.825C110.419 245.361 109.805 244.794 109.288 244.143C108.67 243.34 108.189 242.441 107.866 241.481C107.508 240.377 107.318 239.225 107.302 238.064C107.254 236.746 107.521 235.435 108.083 234.24C108.749 232.99 109.714 231.923 110.892 231.136C112.051 230.353 113.364 229.827 114.742 229.593C116.008 229.384 117.3 229.384 118.566 229.593C120.668 229.956 122.673 230.751 124.454 231.925C125.635 232.682 126.739 233.553 127.749 234.527C128.451 235.22 128.789 235.654 128.728 235.723C128.668 235.793 128.208 235.489 127.41 234.934C126.296 234.136 125.138 233.401 123.942 232.732C122.216 231.75 120.323 231.097 118.358 230.807C117.225 230.653 116.076 230.676 114.95 230.876C113.759 231.091 112.625 231.552 111.621 232.229C110.626 232.888 109.807 233.781 109.236 234.83C108.755 235.833 108.511 236.934 108.525 238.047C108.508 239.084 108.639 240.117 108.915 241.117C109.16 241.982 109.537 242.804 110.034 243.553C110.458 244.167 110.965 244.719 111.543 245.192C111.983 245.56 112.456 245.888 112.956 246.172C113.363 246.423 113.71 246.553 113.936 246.692C114.161 246.831 114.3 246.952 114.283 246.995Z" fill="#324C72"/>
<g opacity="0.2">
<path d="M141.865 30.1166C141.865 30.1599 141.717 30.1599 141.457 30.1166C141.076 30.0545 140.701 29.9558 140.339 29.8217C139.76 29.5934 139.207 29.3027 138.691 28.9546C138.003 28.485 137.39 27.9151 136.87 27.2638C136.252 26.4615 135.771 25.5619 135.448 24.6018C135.081 23.5028 134.891 22.3527 134.885 21.1941C134.835 19.8754 135.103 18.5641 135.665 17.3702C136.326 16.1133 137.292 15.0428 138.474 14.2573C139.634 13.4771 140.946 12.9538 142.324 12.7225C143.591 12.5144 144.882 12.5144 146.148 12.7225C148.249 13.0917 150.252 13.8853 152.036 15.055C153.217 15.8115 154.321 16.6828 155.331 17.6563C156.033 18.35 156.371 18.7836 156.311 18.8529C156.25 18.9223 155.79 18.6275 154.993 18.0639C153.877 17.268 152.719 16.5328 151.524 15.8614C149.801 14.8824 147.91 14.2326 145.949 13.9452C144.816 13.7911 143.667 13.8145 142.541 14.0145C141.349 14.2294 140.215 14.6901 139.211 15.3672C138.216 16.0292 137.395 16.9215 136.818 17.9685C136.342 18.9732 136.102 20.0736 136.116 21.1854C136.098 22.2192 136.23 23.2501 136.506 24.2463C136.75 25.1116 137.128 25.9336 137.625 26.6828C138.051 27.2978 138.558 27.8521 139.133 28.3303C139.575 28.6977 140.048 29.0256 140.547 29.3102C140.954 29.5529 141.301 29.683 141.527 29.8217C141.752 29.9605 141.882 30.0732 141.865 30.1166Z" fill="black"/>
<path d="M138.421 57.2484C138.421 57.3004 138.265 57.2484 138.005 57.2484C137.624 57.1815 137.249 57.0799 136.886 56.9449C136.308 56.7217 135.758 56.4306 135.248 56.0778C134.554 55.6186 133.939 55.0506 133.427 54.3956C132.802 53.5975 132.321 52.6967 132.005 51.7336C131.638 50.6317 131.448 49.4786 131.441 48.3173C131.385 46.999 131.65 45.6867 132.213 44.4934C132.879 43.2426 133.844 42.1762 135.022 41.3891C136.183 40.6047 137.499 40.0784 138.881 39.8457C140.147 39.6374 141.438 39.6374 142.705 39.8457C144.804 40.211 146.805 41.005 148.584 42.1782C149.765 42.9347 150.869 43.806 151.878 44.7795C152.589 45.4732 152.928 45.9067 152.867 45.9761C152.806 46.0455 152.347 45.742 151.54 45.187C150.427 44.3874 149.269 43.6521 148.072 42.9846C146.348 42.0039 144.458 41.3512 142.496 41.0597C141.361 40.9056 140.208 40.929 139.08 41.129C137.898 41.3549 136.776 41.8245 135.785 42.5077C134.79 43.1697 133.969 44.062 133.392 45.109C132.913 46.1129 132.673 47.2139 132.69 48.3259C132.666 49.3623 132.794 50.3965 133.071 51.3955C133.314 52.2627 133.695 53.0854 134.198 53.832C134.617 54.4479 135.122 54.9999 135.698 55.4708C136.139 55.8393 136.612 56.1673 137.112 56.4507C137.519 56.7021 137.875 56.8322 138.092 56.9709C138.308 57.1097 138.43 57.179 138.421 57.2484Z" fill="black"/>
<path d="M134.97 84.3365C134.97 84.3365 134.814 84.3365 134.554 84.3365C134.176 84.2732 133.804 84.1745 133.444 84.0417C132.08 83.5267 130.882 82.6517 129.976 81.5098C129.353 80.7073 128.872 79.804 128.554 78.8391C128.187 77.7401 127.997 76.59 127.99 75.4314C127.941 74.1127 128.208 72.8014 128.771 71.6075C129.426 70.352 130.39 69.2838 131.571 68.5033C132.734 67.7217 134.049 67.1956 135.43 66.9599C136.696 66.7517 137.988 66.7517 139.254 66.9599C141.356 67.3278 143.36 68.1248 145.141 69.301C146.32 70.0571 147.421 70.9285 148.428 71.9023C149.139 72.5873 149.477 73.0209 149.416 73.0903C149.355 73.1596 148.896 72.8648 148.098 72.3012C146.981 71.5106 145.823 70.7784 144.63 70.1074C142.909 69.1216 141.017 68.4686 139.054 68.1825C137.922 68.0283 136.772 68.0517 135.647 68.2518C134.455 68.4667 133.321 68.9274 132.317 69.6045C131.322 70.2665 130.501 71.1588 129.924 72.2058C129.447 73.2105 129.207 74.3109 129.221 75.4227C129.195 76.4569 129.327 77.4891 129.612 78.4836C129.852 79.3504 130.229 80.173 130.73 80.9202C131.153 81.5346 131.658 82.0888 132.23 82.5676C132.675 82.9311 133.147 83.2587 133.644 83.5475C134.06 83.7902 134.407 83.929 134.623 84.0677C134.84 84.2064 134.988 84.2932 134.97 84.3365Z" fill="black"/>
<path d="M131.521 111.451C131.521 111.494 131.373 111.494 131.113 111.451C130.732 111.385 130.357 111.283 129.995 111.147C129.414 110.927 128.864 110.636 128.356 110.28C127.661 109.819 127.044 109.251 126.526 108.598C125.908 107.795 125.427 106.896 125.104 105.936C124.745 104.832 124.555 103.68 124.541 102.519C124.493 101.201 124.76 99.8899 125.321 98.6955C125.987 97.4448 126.952 96.3783 128.13 95.5913C129.288 94.8074 130.601 94.2838 131.98 94.0565C133.246 93.8483 134.538 93.8483 135.804 94.0565C137.906 94.4202 139.911 95.2143 141.692 96.389C142.873 97.1455 143.977 98.0168 144.987 98.9903C145.689 99.684 146.027 100.118 145.975 100.187C145.923 100.256 145.446 99.9615 144.649 99.3979C143.534 98.6002 142.376 97.865 141.18 97.1954C139.455 96.2185 137.565 95.5661 135.605 95.2705C134.469 95.1208 133.317 95.1442 132.188 95.3398C130.997 95.5617 129.864 96.025 128.859 96.7012C127.876 97.3106 127.073 98.1689 126.529 99.1892C125.985 100.21 125.721 101.355 125.763 102.511C125.746 103.547 125.878 104.581 126.153 105.58C126.398 106.446 126.775 107.268 127.272 108.017C127.696 108.631 128.204 109.183 128.781 109.656C129.221 110.024 129.694 110.352 130.194 110.635C130.602 110.887 130.948 111.017 131.174 111.156C131.399 111.294 131.538 111.399 131.521 111.451Z" fill="black"/>
<path d="M128.076 138.556C128.076 138.556 127.92 138.556 127.659 138.556C127.279 138.485 126.905 138.383 126.541 138.253C125.964 138.026 125.414 137.735 124.902 137.385C124.209 136.926 123.594 136.358 123.081 135.703C122.456 134.902 121.975 133.998 121.659 133.033C121.292 131.934 121.102 130.783 121.095 129.625C121.047 128.307 121.312 126.997 121.867 125.801C122.531 124.549 123.496 123.482 124.677 122.697C125.838 121.914 127.154 121.388 128.535 121.153C129.801 120.945 131.093 120.945 132.359 121.153C134.458 121.519 136.459 122.313 138.238 123.486C139.419 124.242 140.523 125.114 141.533 126.087C142.244 126.781 142.582 127.214 142.521 127.275C142.461 127.336 142.001 127.05 141.203 126.495C140.089 125.698 138.931 124.962 137.735 124.292C136.012 123.311 134.121 122.659 132.16 122.367C131.027 122.213 129.877 122.237 128.752 122.437C127.56 122.652 126.426 123.112 125.422 123.789C124.427 124.451 123.606 125.344 123.029 126.391C122.549 127.394 122.308 128.495 122.327 129.608C122.303 130.644 122.431 131.678 122.708 132.677C122.957 133.54 123.337 134.359 123.835 135.105C124.254 135.723 124.759 136.278 125.336 136.752C125.779 137.118 126.251 137.446 126.749 137.732C127.156 137.975 127.512 138.114 127.729 138.253C127.946 138.391 128.084 138.513 128.076 138.556Z" fill="black"/>
<path d="M124.627 165.636C124.627 165.679 124.479 165.679 124.219 165.636C123.838 165.57 123.464 165.471 123.1 165.341C122.52 165.116 121.967 164.825 121.453 164.474C120.763 164.01 120.149 163.443 119.632 162.792C119.014 161.989 118.533 161.09 118.21 160.13C117.843 159.031 117.653 157.881 117.646 156.722C117.597 155.403 117.865 154.092 118.427 152.898C119.087 151.641 120.053 150.571 121.236 149.785C122.405 149.013 123.727 148.504 125.112 148.294C126.378 148.086 127.67 148.086 128.936 148.294C131.037 148.663 133.04 149.457 134.824 150.626C136.005 151.383 137.109 152.254 138.119 153.228C138.821 153.921 139.159 154.355 139.098 154.424C139.038 154.494 138.578 154.199 137.78 153.635C136.665 152.839 135.507 152.104 134.312 151.433C132.588 150.454 130.698 149.804 128.737 149.516C127.604 149.359 126.455 149.38 125.329 149.577C124.138 149.799 123.005 150.262 121.999 150.938C121.014 151.547 120.207 152.406 119.663 153.428C119.12 154.451 118.857 155.6 118.904 156.757C118.882 157.791 119.013 158.822 119.294 159.818C119.534 160.684 119.912 161.507 120.412 162.254C120.838 162.869 121.346 163.423 121.921 163.902C122.359 164.267 122.829 164.592 123.326 164.873C123.742 165.124 124.089 165.254 124.314 165.393C124.54 165.532 124.644 165.636 124.627 165.636Z" fill="black"/>
<path d="M121.183 192.776C121.183 192.828 121.027 192.819 120.767 192.776C120.386 192.704 120.012 192.603 119.648 192.472C119.069 192.249 118.519 191.958 118.009 191.605C117.314 191.141 116.697 190.571 116.18 189.914C115.561 189.114 115.083 188.213 114.766 187.252C114.4 186.15 114.21 184.997 114.203 183.836C114.147 182.518 114.411 181.205 114.974 180.012C115.64 178.761 116.605 177.695 117.784 176.908C118.945 176.123 120.261 175.597 121.642 175.364C122.909 175.156 124.2 175.156 125.466 175.364C127.565 175.73 129.567 176.524 131.345 177.697C132.527 178.453 133.63 179.325 134.64 180.298C135.351 180.992 135.689 181.425 135.629 181.495C135.568 181.564 135.1 181.261 134.302 180.706C133.189 179.906 132.031 179.171 130.834 178.503C129.11 177.522 127.22 176.87 125.258 176.578C124.123 176.424 122.97 176.448 121.842 176.648C120.653 176.862 119.521 177.323 118.521 178C117.525 178.662 116.705 179.555 116.128 180.602C115.648 181.605 115.408 182.706 115.425 183.818C115.401 184.855 115.53 185.889 115.807 186.888C116.05 187.755 116.43 188.578 116.934 189.325C117.352 189.94 117.858 190.492 118.434 190.963C118.894 191.35 119.388 191.695 119.908 191.995C120.316 192.238 120.671 192.377 120.888 192.515C121.105 192.654 121.191 192.732 121.183 192.776Z" fill="black"/>
<path d="M117.732 219.89C117.732 219.933 117.576 219.933 117.316 219.89C116.937 219.827 116.566 219.728 116.206 219.595C115.627 219.367 115.074 219.076 114.558 218.728C113.869 218.261 113.255 217.691 112.737 217.037C112.113 216.239 111.632 215.338 111.315 214.375C110.949 213.276 110.758 212.126 110.752 210.968C110.703 209.649 110.97 208.338 111.532 207.144C112.19 205.887 113.153 204.817 114.333 204.031C115.496 203.252 116.811 202.729 118.192 202.496C119.458 202.288 120.749 202.288 122.015 202.496C124.116 202.865 126.12 203.659 127.903 204.828C129.082 205.585 130.183 206.456 131.189 207.43C131.9 208.123 132.239 208.557 132.178 208.626C132.117 208.696 131.658 208.401 130.86 207.837C129.743 207.043 128.585 206.308 127.391 205.635C125.668 204.656 123.777 204.006 121.816 203.719C120.683 203.564 119.534 203.588 118.408 203.788C117.217 204.003 116.083 204.464 115.079 205.141C114.083 205.803 113.262 206.695 112.685 207.742C112.209 208.747 111.969 209.847 111.983 210.959C111.957 211.993 112.088 213.025 112.373 214.02C112.613 214.886 112.991 215.709 113.492 216.456C113.915 217.071 114.42 217.625 114.992 218.104C115.436 218.467 115.909 218.795 116.405 219.084C116.813 219.326 117.168 219.456 117.385 219.595C117.602 219.734 117.749 219.847 117.732 219.89Z" fill="black"/>
<path d="M114.283 246.995C114.283 247.047 114.135 247.039 113.875 246.995C113.494 246.93 113.119 246.828 112.757 246.692C112.174 246.471 111.621 246.18 111.109 245.825C110.419 245.361 109.805 244.794 109.288 244.143C108.67 243.34 108.189 242.441 107.866 241.481C107.508 240.377 107.318 239.225 107.302 238.064C107.254 236.746 107.521 235.435 108.083 234.24C108.749 232.99 109.714 231.923 110.892 231.136C112.051 230.353 113.364 229.827 114.742 229.593C116.008 229.384 117.3 229.384 118.566 229.593C120.668 229.956 122.673 230.751 124.454 231.925C125.635 232.682 126.739 233.553 127.749 234.527C128.451 235.22 128.789 235.654 128.728 235.723C128.668 235.793 128.208 235.489 127.41 234.934C126.296 234.136 125.138 233.401 123.942 232.732C122.216 231.75 120.323 231.097 118.358 230.807C117.225 230.653 116.076 230.676 114.95 230.876C113.759 231.091 112.625 231.552 111.621 232.229C110.626 232.888 109.807 233.781 109.236 234.83C108.755 235.833 108.511 236.934 108.525 238.047C108.508 239.084 108.639 240.117 108.915 241.117C109.16 241.982 109.537 242.804 110.034 243.553C110.458 244.167 110.965 244.719 111.543 245.192C111.983 245.56 112.456 245.888 112.956 246.172C113.363 246.423 113.71 246.553 113.936 246.692C114.161 246.831 114.3 246.952 114.283 246.995Z" fill="black"/>
</g>
<path d="M326.055 58.3328L324.465 70.8311L345.393 73.4934L346.983 60.9952L326.055 58.3328Z" fill="#324C72"/>
<path d="M309.606 67.7484C309.49 67.76 309.374 67.76 309.259 67.7484L308.244 67.653L304.36 67.1848L290.061 65.3639L242.935 59.1815L229.503 57.3953C225.168 56.823 220.98 56.2333 217 55.7478C213.24 55.2196 209.428 55.1788 205.658 55.6264C202.146 56.1206 198.825 56.875 195.738 56.4935C194.279 56.3286 192.864 55.8903 191.568 55.2015C190.345 54.5598 189.278 53.8228 188.255 53.1898C187.322 52.5764 186.332 52.0537 185.298 51.629C184.423 51.307 183.5 51.1341 182.567 51.1175C181.264 51.0506 179.983 51.4675 178.969 52.288C178.64 52.5963 178.349 52.9427 178.102 53.3199C178.146 53.2105 178.201 53.1059 178.266 53.0077C178.334 52.8809 178.416 52.7617 178.509 52.6522C178.628 52.4926 178.765 52.3471 178.917 52.2187C179.93 51.3439 181.238 50.8882 182.576 50.944C183.533 50.9469 184.483 51.111 185.385 51.4296C186.439 51.8265 187.452 52.323 188.411 52.9124C189.443 53.5453 190.518 54.265 191.724 54.8893C192.995 55.5465 194.377 55.9639 195.799 56.1206C198.817 56.4588 202.094 55.7044 205.632 55.1842C209.431 54.7125 213.276 54.7388 217.069 55.2622C221.075 55.7391 225.246 56.3287 229.59 56.8837L243.021 58.6179L290.131 64.9304L304.403 66.8987L308.288 67.4536L309.294 67.6097C309.403 67.6441 309.507 67.6906 309.606 67.7484Z" fill="#263238"/>
<path d="M305.938 80.3657H305.618L304.672 80.2616L301.031 79.8454L287.669 78.2153L243.594 72.6832L199.528 67.0124L186.183 65.2782L182.559 64.7666L181.614 64.6278C181.505 64.616 181.398 64.5957 181.293 64.5671C181.402 64.5518 181.513 64.5518 181.622 64.5671L182.568 64.6625L186.201 65.0787L199.571 66.7089L243.655 72.2496L287.712 77.9205L301.057 79.6547L304.681 80.1576L305.626 80.2963C305.733 80.3051 305.838 80.3284 305.938 80.3657Z" fill="#263238"/>
<path d="M291.128 153.167H290.824L289.957 153.072L286.489 152.673L273.786 151.129L231.896 145.875L189.981 140.49L177.295 138.756L173.827 138.279L172.96 138.14L172.656 138.079C172.757 138.07 172.859 138.07 172.96 138.079L173.827 138.166L177.295 138.565L189.998 140.109L231.896 145.372L273.777 150.765L286.463 152.447L289.931 152.933L290.798 153.063C290.913 153.079 291.025 153.114 291.128 153.167Z" fill="#263238"/>
<path d="M287.997 177.775H287.693L286.826 177.688L283.358 177.289L270.655 175.746L228.756 170.482L186.875 165.089L174.19 163.407L170.721 162.921L169.854 162.791L169.551 162.731C169.654 162.717 169.759 162.717 169.863 162.731L170.73 162.826L174.198 163.225L186.893 164.768L228.791 170.032L270.663 175.416L283.358 177.15L286.826 177.627L287.693 177.766C287.794 177.76 287.896 177.763 287.997 177.775Z" fill="#263238"/>
<path d="M287.128 164.916C287.027 164.926 286.925 164.926 286.824 164.916L285.957 164.829L282.575 164.439L270.133 162.93L229.11 157.78L188.105 152.499L175.679 150.843L172.306 150.375L171.439 150.245L171.145 150.184C171.245 150.17 171.347 150.17 171.448 150.184L172.315 150.279L175.705 150.661L188.14 152.17L229.162 157.311L270.167 162.601L282.584 164.248L285.957 164.716L286.824 164.855L287.128 164.916Z" fill="#263238"/>
<path d="M221.361 180.471C221.18 180.492 220.997 180.492 220.815 180.471L219.263 180.315L213.549 179.656L194.733 177.332L175.934 174.87L170.237 174.081L168.694 173.838C168.511 173.82 168.331 173.782 168.156 173.725C168.338 173.702 168.521 173.702 168.703 173.725L170.263 173.881L175.969 174.532L194.759 176.907L213.558 179.327L219.254 180.124L220.798 180.359C220.99 180.373 221.179 180.411 221.361 180.471Z" fill="#263238"/>
<path d="M197.237 77.5641C197.237 77.6854 192.754 77.2172 187.266 76.5235C181.777 75.8299 177.346 75.1535 177.363 75.0321C177.381 74.9107 181.838 75.3703 187.326 76.0727C192.815 76.775 197.246 77.434 197.237 77.5641Z" fill="#263238"/>
<path d="M292.843 139.692C292.742 139.706 292.64 139.706 292.539 139.692L291.672 139.605C290.909 139.519 289.782 139.397 288.334 139.276C286.886 139.155 285.099 139.016 283.036 138.894C280.972 138.773 278.613 138.652 276.003 138.539C270.801 138.305 264.584 138.149 257.699 137.741C254.231 137.533 250.641 137.273 246.904 136.787C243.166 136.302 239.351 135.669 235.415 135.053L195.112 128.888L182.903 126.963L179.591 126.417L178.724 126.261C178.625 126.252 178.529 126.229 178.438 126.191H178.732L179.599 126.304L182.929 126.764L195.146 128.55L235.467 134.62C239.403 135.201 243.27 135.816 246.956 136.354C250.641 136.891 254.274 137.108 257.716 137.325C264.592 137.75 270.801 137.949 276.012 138.192C278.613 138.331 280.972 138.461 283.044 138.617C285.117 138.773 286.886 138.92 288.342 139.076C289.799 139.233 290.944 139.371 291.681 139.493L292.548 139.623C292.647 139.64 292.746 139.663 292.843 139.692Z" fill="#263238"/>
<path d="M71.3545 213.707C71.3545 213.707 177.461 108.788 189.531 92.1659L182.265 85.4893L62.6055 204.49L71.3545 213.707Z" fill="#E0E0E0"/>
<path d="M39.0207 235.87C43.7984 235.957 56.7008 234.136 74.8665 215.372L90.8992 200.909L78.6384 189.047C78.6384 189.047 103.082 166.398 101.92 165.158C100.758 163.918 87.7516 176.04 77.4852 184.894C68.1465 192.984 36.9743 221.494 36.2459 232.809C36.2176 233.195 36.2679 233.582 36.3936 233.947C36.5194 234.312 36.718 234.648 36.9775 234.934C37.2369 235.221 37.5518 235.451 37.903 235.612C38.2542 235.773 38.6345 235.861 39.0207 235.87Z" fill="#324C72"/>
<path opacity="0.2" d="M101.919 165.185C100.748 163.945 87.7503 176.007 77.4839 184.894C76.6775 185.597 75.689 186.455 74.5877 187.444L86.7705 199.115L70.7638 213.613C54.289 230.66 42.1496 233.773 36.4961 234.146C36.7075 234.645 37.0574 235.074 37.5044 235.381C37.9515 235.688 38.4772 235.861 39.0193 235.88C43.7971 235.966 56.6995 234.145 74.8652 215.381L90.8979 200.918L78.6371 189.048C78.6371 189.048 103.081 166.425 101.919 165.185Z" fill="black"/>
<path d="M92.5982 186.134L176.23 102.078L172.692 98.8174L89.1992 182.544L92.5982 186.134Z" fill="#263238"/>
<path d="M189.473 92.2786C189.473 92.2786 197.407 79.7837 195.187 79.1247C192.967 78.4657 182.284 85.4892 182.284 85.4892L184.331 87.5962L172.191 99.2847L176.275 102.077L187.322 90.4143L189.473 92.2786Z" fill="#455A64"/>
<path d="M107.963 149.161C109.009 149.24 110.059 149.107 111.053 148.771C112.046 148.435 112.961 147.902 113.743 147.205C114.526 146.507 115.16 145.659 115.607 144.711C116.055 143.763 116.307 142.734 116.348 141.687C116.513 137.438 116.66 133.146 116.66 133.146C116.66 133.146 123.094 132.548 123.554 126.209C124.013 119.871 123.814 105.147 123.814 105.147C120.287 103.368 116.349 102.563 112.407 102.816C108.464 103.069 104.661 104.371 101.391 106.587L100.402 107.254L100.758 141.505C100.789 143.449 101.545 145.312 102.878 146.728C104.211 148.145 106.024 149.012 107.963 149.161Z" fill="#FFBE9D"/>
<path d="M107.671 96.8223C103.795 96.7095 100.283 99.2415 98.4796 102.354C96.6761 105.467 96.2945 109.083 96.1298 112.595C95.9232 119.495 96.0853 126.401 96.6154 133.284C96.5908 133.806 96.747 134.32 97.0576 134.741C97.5339 135.13 98.1248 135.352 98.7398 135.374C110.507 136.995 122.44 137.012 134.213 135.426C134.984 134.021 133.892 132.356 132.643 131.281C131.395 130.206 129.834 129.226 129.383 127.708C128.663 125.324 131.031 122.775 130.111 120.451C129.418 118.717 127.12 117.849 126.314 116.115C124.961 113.254 128.455 109.794 126.903 107.011C126.097 105.563 124.206 104.921 123.01 103.716C121.952 102.649 121.501 101.201 120.591 100.031C118.957 98.2034 116.672 97.0891 114.226 96.9263C112.058 96.5728 109.852 96.5261 107.671 96.7876" fill="#324C72"/>
<path d="M98.5926 104.071C96.9538 104.869 96.2428 106.837 95.9913 108.65C95.7398 110.462 95.8179 112.369 95.0635 114.034C94.3091 115.699 92.5749 117.173 92.1327 119.072C91.5604 121.552 93.1906 124.465 91.7165 126.538C90.7714 127.864 88.9071 128.203 87.7365 129.347C86.1237 130.934 86.2624 133.527 86.5226 135.781L107.784 135.59" fill="#324C72"/>
<path d="M103.282 100.725C103.089 99.6902 102.647 98.7182 101.995 97.8927C101.342 97.0671 100.499 96.4127 99.5367 95.986C98.5749 95.5592 97.5236 95.3729 96.4736 95.4432C95.4237 95.5134 94.4066 95.838 93.5101 96.3891C90.1197 98.4875 88.9144 103.491 85.0992 104.653C84.102 104.956 82.8794 105.043 82.3505 105.945C81.8216 106.846 82.4892 108.147 83.4604 108.615C84.4839 108.99 85.5905 109.077 86.66 108.867C86.3483 108.834 86.0334 108.875 85.7398 108.984C85.4461 109.093 85.1816 109.269 84.9669 109.497C84.7521 109.725 84.5929 110 84.5016 110.3C84.4102 110.599 84.3892 110.916 84.4402 111.225C84.6131 111.841 85.0065 112.371 85.5455 112.715C86.0845 113.059 86.7313 113.192 87.3623 113.089C87.9903 112.956 88.5713 112.658 89.0453 112.225C89.5194 111.792 89.8693 111.24 90.059 110.627C89.5908 111.962 89.1283 113.298 88.6717 114.633C91.3163 115.101 93.5708 112.717 94.9061 110.393C96.2414 108.069 97.5074 105.346 99.9439 104.323C101.045 103.863 102.32 103.777 103.265 103.048C104.21 102.32 104.401 100.499 103.265 100.152" fill="#324C72"/>
<path d="M104.383 100.803C104.383 100.803 104.877 100.993 105.311 101.67C105.601 102.128 105.78 102.648 105.833 103.188C105.887 103.728 105.812 104.272 105.617 104.778C105.421 105.284 105.109 105.737 104.707 106.101C104.304 106.465 103.822 106.729 103.299 106.872C102.885 107.028 102.429 107.028 102.016 106.872C102.016 106.794 102.501 106.82 103.195 106.543C103.646 106.382 104.058 106.126 104.401 105.792C104.745 105.458 105.013 105.054 105.188 104.608C105.362 104.162 105.438 103.683 105.412 103.204C105.385 102.726 105.256 102.259 105.033 101.835C104.712 101.176 104.305 100.863 104.383 100.803Z" fill="#263238"/>
<path d="M127.438 302.862L138.337 353.128L152.713 352.799L146.34 298.414L127.438 302.862Z" fill="#FFBE9D"/>
<path d="M76.1661 162.792C76.1661 162.792 75.9233 163.148 75.5245 163.78C73.218 167.448 66.7147 180.602 72.1948 189.403L85.947 177.316L88.2621 171.888" fill="#FFBE9D"/>
<path d="M84.0912 262.265L79.4609 348.099L93.612 351.515L104.225 264.077L84.0912 262.265Z" fill="#FFBE9D"/>
<path d="M146.602 154.363L126.659 159.176L125.506 174.567L128.281 183.342C128.281 183.654 132.772 198.412 132.772 198.412L134.168 203.294L88.5762 203.771C88.4202 198.438 91.9666 193.183 91.9666 193.183C94.5679 188.787 93.8916 182.145 92.6863 177.107C92.3048 175.512 91.8192 172.876 91.5937 171.254V170.968L88.9924 175.555L73.0898 164.109C78.2317 154.19 85.7755 144.166 86.6859 143.421C89.9819 140.664 94.1299 139.132 98.4265 139.085L118.11 139.258C118.11 139.258 133.605 137.316 142.64 135.79L146.602 154.363Z" fill="#455A64"/>
<path d="M143.056 138.027C142.322 138.443 141.633 138.934 141.001 139.493C140.385 140.03 139.7 140.759 138.911 141.608C138.029 142.605 137.051 143.511 135.989 144.314C133.184 146.388 129.851 147.629 126.373 147.895C124.332 148.049 122.279 147.855 120.303 147.323C118.248 146.759 116.245 145.848 114.121 145.241C113.077 144.932 112 144.752 110.912 144.704C109.86 144.696 108.811 144.821 107.791 145.077C105.853 145.628 103.976 146.374 102.189 147.305C100.553 148.152 98.8649 148.893 97.1342 149.525C95.2668 150.189 93.2845 150.471 91.306 150.351C89.3275 150.232 87.3933 149.715 85.6192 148.831C85.0527 148.548 84.5078 148.223 83.989 147.86C83.8045 147.739 83.6305 147.603 83.4688 147.453C83.4688 147.409 84.2144 147.982 85.6972 148.667C87.4559 149.496 89.3619 149.968 91.3045 150.054C93.2471 150.14 95.1875 149.84 97.0128 149.169C98.7226 148.528 100.391 147.781 102.007 146.932C103.813 145.975 105.714 145.208 107.678 144.643C108.741 144.375 109.834 144.247 110.93 144.262C112.053 144.302 113.166 144.485 114.242 144.808C116.419 145.424 118.413 146.343 120.425 146.898C122.36 147.425 124.371 147.621 126.373 147.479C129.783 147.236 133.058 146.05 135.833 144.054C136.889 143.283 137.868 142.412 138.755 141.452C139.44 140.726 140.16 140.034 140.914 139.38C141.4 138.97 141.926 138.609 142.484 138.305C142.63 138.227 142.78 138.157 142.934 138.097C143.015 138.045 143.056 138.021 143.056 138.027Z" fill="#263238"/>
<path d="M125.652 163.902C125.542 164.05 125.407 164.179 125.253 164.283C124.827 164.605 124.331 164.822 123.805 164.916C122.971 165.062 122.114 165.018 121.299 164.786C120.232 164.471 119.224 163.981 118.316 163.338C117.249 162.562 116.121 161.872 114.943 161.274C113.577 160.684 112.095 160.411 110.608 160.477C107.408 160.581 104.087 161.925 100.688 163.39C99.0218 164.124 97.2995 164.724 95.5377 165.185C93.8799 165.63 92.1522 165.754 90.4479 165.549C88.9016 165.337 87.4211 164.787 86.1124 163.936C84.9751 163.21 83.9399 162.335 83.0342 161.335C81.7463 159.894 80.6048 158.328 79.6265 156.661C79.2796 156.08 79.0108 155.621 78.8374 155.309C78.7416 155.15 78.6575 154.985 78.5859 154.814C78.7137 154.948 78.8244 155.096 78.9154 155.257L79.7825 156.566C80.8035 158.182 81.964 159.705 83.2509 161.118C84.1555 162.07 85.1749 162.906 86.2858 163.607C87.5601 164.405 88.9915 164.92 90.4825 165.116C92.1331 165.303 93.8041 165.176 95.4077 164.743C97.1437 164.275 98.8422 163.678 100.489 162.957C103.879 161.5 107.27 160.13 110.573 160.052C112.132 159.982 113.685 160.279 115.108 160.919C116.292 161.541 117.425 162.254 118.499 163.052C119.373 163.695 120.345 164.193 121.377 164.526C122.154 164.768 122.974 164.836 123.779 164.725C124.464 164.617 125.109 164.333 125.652 163.902Z" fill="#263238"/>
<path d="M126.319 178.642C126.319 178.642 126.258 178.746 126.094 178.92C125.862 179.175 125.603 179.405 125.322 179.605C124.259 180.318 123.033 180.751 121.758 180.862C119.873 181.018 117.976 180.76 116.2 180.107C114.188 179.422 112.133 178.33 109.914 177.428C107.851 176.52 105.611 176.085 103.358 176.153C101.523 176.249 99.7202 176.684 98.0431 177.437C96.5077 178.172 95.0856 179.124 93.8203 180.264C93.8203 180.264 93.881 180.151 94.0371 179.977C94.2641 179.719 94.5074 179.476 94.7654 179.249C95.7081 178.406 96.7648 177.699 97.9043 177.151C99.6078 176.333 101.455 175.856 103.341 175.746C105.655 175.641 107.961 176.074 110.078 177.012C112.342 177.931 114.414 179.024 116.339 179.717C118.056 180.369 119.891 180.65 121.724 180.541C122.95 180.462 124.139 180.091 125.192 179.457C125.981 178.98 126.284 178.642 126.319 178.642Z" fill="#263238"/>
<path d="M131.186 192.81C131.186 192.81 130.726 192.49 129.833 192.03C128.56 191.419 127.183 191.054 125.775 190.955C123.679 190.818 121.575 191.047 119.558 191.631C117.269 192.238 114.832 193.218 112.196 194.05C109.713 194.883 107.107 195.294 104.488 195.264C102.366 195.23 100.26 194.888 98.236 194.25C96.8632 193.813 95.5406 193.232 94.2907 192.516C93.8484 192.273 93.5189 192.056 93.3022 191.909C93.1824 191.839 93.0717 191.754 92.9727 191.657C92.9727 191.657 93.4756 191.917 94.3774 192.36C97.5262 193.956 101.001 194.805 104.531 194.839C107.102 194.844 109.656 194.428 112.092 193.608C114.693 192.784 117.156 191.813 119.489 191.215C121.552 190.642 123.702 190.442 125.836 190.625C127.277 190.751 128.676 191.173 129.946 191.865C130.288 192.057 130.612 192.278 130.917 192.524C131.108 192.698 131.186 192.793 131.186 192.81Z" fill="#263238"/>
<path d="M88.6466 202.027L79.9062 302.255L101.506 302.377L112.171 222.057L126.105 303.105L147.713 299.116L134.464 202.868L88.6466 202.027Z" fill="#263238"/>
<path d="M127.639 219.396C127.639 219.526 120.251 220.505 111.103 221.589C101.955 222.673 94.533 223.454 94.5157 223.323C94.4983 223.193 101.903 222.222 111.051 221.138C120.199 220.055 127.621 219.309 127.639 219.396Z" fill="#455A64"/>
<path d="M154.676 354.264L154.615 352.66L138.34 353.128L138.479 358.435H139.484C143.967 358.548 162.272 358.704 165.237 357.785C168.541 356.779 154.676 354.264 154.676 354.264Z" fill="#324C72"/>
<g opacity="0.6">
<path d="M144.347 358.132C144.052 356.843 143.277 355.714 142.179 354.976C141.062 354.204 139.708 353.851 138.355 353.979L138.486 358.193L144.347 358.132Z" fill="white"/>
</g>
<g opacity="0.6">
<path d="M161.454 355.721C161.454 355.721 166.319 356.883 165.79 357.637C165.261 358.391 146.714 358.877 138.52 358.435V358.097L160.11 357.698C160.11 357.698 160.509 355.781 161.454 355.721Z" fill="white"/>
</g>
<path d="M138.234 358.132H138.521H139.318L142.266 358.175C144.755 358.175 148.197 358.175 152.004 358.08C155.81 357.985 159.236 357.82 161.724 357.681L164.664 357.49L165.461 357.421H164.664L161.715 357.551C159.227 357.664 155.793 357.802 151.995 357.898C148.197 357.993 144.755 358.028 142.266 358.045H139.318H138.521L138.234 358.132Z" fill="#263238"/>
<path d="M160.087 357.932C160.204 357.474 160.376 357.031 160.598 356.614C160.864 356.216 161.179 355.851 161.535 355.53C161.045 355.703 160.637 356.053 160.39 356.51C160.248 356.715 160.148 356.947 160.096 357.191C160.044 357.435 160.041 357.687 160.087 357.932Z" fill="#263238"/>
<path d="M155.237 355.799C155.237 355.799 155.506 355.565 155.731 355.209C155.957 354.854 156.095 354.55 156.052 354.524C156.009 354.498 155.783 354.767 155.558 355.114C155.332 355.461 155.185 355.773 155.237 355.799Z" fill="#263238"/>
<path d="M153.903 355.192C153.903 355.192 154.189 355.062 154.466 354.819C154.744 354.576 154.926 354.36 154.891 354.316C154.856 354.273 154.596 354.446 154.327 354.689C154.059 354.932 153.868 355.157 153.903 355.192Z" fill="#263238"/>
<path d="M153.027 353.796C153.307 353.885 153.603 353.912 153.894 353.874C154.188 353.906 154.484 353.871 154.762 353.77C154.482 353.68 154.186 353.654 153.894 353.692C153.601 353.67 153.307 353.705 153.027 353.796Z" fill="#263238"/>
<path d="M152.715 352.799C153.323 353.07 154.012 353.098 154.64 352.877C154.32 352.851 153.998 352.851 153.677 352.877C153.359 352.823 153.037 352.797 152.715 352.799Z" fill="#263238"/>
<path d="M155.742 354.472C156.09 354.524 156.444 354.524 156.791 354.472C157.165 354.419 157.533 354.335 157.893 354.221C158.108 354.153 158.317 354.066 158.517 353.96C158.636 353.89 158.725 353.779 158.768 353.648C158.781 353.575 158.771 353.499 158.74 353.431C158.709 353.363 158.659 353.306 158.595 353.267C158.193 353.095 157.747 353.059 157.323 353.164C156.899 353.269 156.521 353.509 156.245 353.848C156.096 354.043 155.989 354.267 155.933 354.507C155.91 354.592 155.91 354.682 155.933 354.767C156.033 354.454 156.185 354.161 156.384 353.9C156.614 353.634 156.915 353.439 157.251 353.336C157.657 353.2 158.098 353.218 158.491 353.388C158.664 353.492 158.604 353.674 158.422 353.787C158.236 353.887 158.042 353.968 157.841 354.03C157.495 354.153 157.142 354.252 156.783 354.325C156.141 354.429 155.742 354.446 155.742 354.472Z" fill="#263238"/>
<path d="M156.019 354.516C156.133 354.31 156.166 354.069 156.115 353.84C156.078 353.582 155.973 353.34 155.811 353.137C155.716 352.994 155.587 352.877 155.436 352.795C155.285 352.713 155.116 352.67 154.944 352.669C154.894 352.678 154.847 352.697 154.805 352.725C154.762 352.753 154.726 352.789 154.698 352.831C154.67 352.873 154.65 352.92 154.64 352.97C154.63 353.019 154.63 353.07 154.64 353.12C154.672 353.276 154.737 353.424 154.831 353.553C154.974 353.765 155.143 353.957 155.334 354.126C155.506 354.298 155.717 354.426 155.95 354.499C155.95 354.499 155.733 354.334 155.438 354.03C155.267 353.86 155.115 353.671 154.987 353.467C154.831 353.259 154.727 352.894 154.987 352.842C155.125 352.855 155.258 352.897 155.378 352.966C155.498 353.034 155.601 353.128 155.681 353.241C155.836 353.42 155.943 353.635 155.993 353.866C156.024 354.081 156.032 354.299 156.019 354.516Z" fill="#263238"/>
<path d="M138.441 353.961C138.441 353.961 138.91 353.909 139.638 353.961C140.585 354.034 141.497 354.354 142.283 354.889C143.048 355.414 143.649 356.144 144.017 356.996C144.149 357.345 144.262 357.701 144.355 358.062C144.355 358.062 144.355 357.95 144.355 357.759C144.323 357.483 144.256 357.212 144.156 356.952C143.818 356.055 143.212 355.283 142.421 354.741C141.605 354.187 140.65 353.872 139.664 353.831C139.374 353.816 139.084 353.83 138.797 353.874C138.675 353.885 138.555 353.914 138.441 353.961Z" fill="#263238"/>
<path d="M146.344 356.632C147.126 356.782 147.924 356.835 148.72 356.788C149.515 356.804 150.31 356.725 151.087 356.554C151.087 356.493 150.02 356.554 148.72 356.606C147.419 356.658 146.352 356.58 146.344 356.632Z" fill="#263238"/>
<path d="M143.168 356.709C143.168 356.752 143.263 356.917 143.376 357.142C143.489 357.368 143.558 357.559 143.61 357.559C143.662 357.559 143.688 357.316 143.549 357.056C143.411 356.796 143.203 356.674 143.168 356.709Z" fill="#263238"/>
<path d="M141.93 355.356C141.93 355.356 141.999 355.547 142.172 355.703C142.346 355.859 142.519 355.946 142.554 355.911C142.589 355.877 142.485 355.72 142.311 355.573C142.138 355.426 141.964 355.322 141.93 355.356Z" fill="#263238"/>
<path d="M140.196 354.767C140.196 354.819 140.43 354.81 140.664 354.888C140.899 354.966 141.081 355.071 141.124 355.036C141.167 355.001 141.029 354.793 140.725 354.706C140.422 354.62 140.179 354.724 140.196 354.767Z" fill="#263238"/>
<path d="M138.988 354.508C138.988 354.551 139.066 354.629 139.196 354.672C139.326 354.716 139.457 354.716 139.474 354.672C139.491 354.629 139.404 354.551 139.266 354.508C139.127 354.464 138.988 354.455 138.988 354.508Z" fill="#263238"/>
<path d="M79.0473 347.362L76.6367 357.958H92.9208L93.6145 351.056L79.0473 347.362Z" fill="#324C72"/>
<path d="M93.2495 356.397C92.4673 356.525 91.6738 356.568 90.8823 356.528C89.4169 356.528 87.4139 356.528 85.1595 356.423L79.4453 356.181C78.652 356.192 77.8594 356.128 77.0781 355.99C77.861 355.869 78.6542 355.828 79.4453 355.869C80.9107 355.869 82.9137 355.869 85.1768 355.973L90.8823 356.215C91.6754 356.199 92.4682 356.26 93.2495 356.397Z" fill="#263238"/>
<path d="M86.3557 349.461C86.5071 350.612 86.5071 351.778 86.3557 352.929C86.3498 354.077 86.1983 355.219 85.9048 356.328C85.7453 355.178 85.7453 354.011 85.9048 352.86C85.9039 351.712 86.0555 350.569 86.3557 349.461Z" fill="#263238"/>
<path opacity="0.6" d="M76.6367 357.958H92.9208L93.0769 356.423L76.9315 356.016L76.6367 357.776" fill="white"/>
<path d="M180.86 102.337L174.92 104.479C174.842 102.103 173.186 99.623 173.186 100.811C173.186 101.999 172.622 108.147 172.622 108.147L160.24 129.694C158.506 133.162 155.41 135.131 153.182 135.486L143.02 137.654L145.924 151.068L160.084 147.6C161.896 147.154 163.578 146.289 164.995 145.075C166.412 143.862 167.525 142.333 168.243 140.611L180.019 112.369C180.801 110.553 181.464 108.688 182.004 106.785C182.144 106.005 182.114 105.204 181.916 104.436C181.719 103.669 181.358 102.953 180.86 102.337Z" fill="#FFBE9D"/>
</svg>
