<?xml version="1.0" standalone="no"?>
<!DOCTYPE svg PUBLIC "-//W3C//DTD SVG 20010904//EN"
 "http://www.w3.org/TR/2001/REC-SVG-20010904/DTD/svg10.dtd">
<svg version="1.0" xmlns="http://www.w3.org/2000/svg"
 width="711.000000pt" height="400.000000pt" viewBox="0 0 711.000000 400.000000"
 preserveAspectRatio="xMidYMid meet">

<g transform="translate(0.000000,400.000000) scale(0.100000,-0.100000)"
fill="#000000" stroke="none">
<path d="M3434 3096 c-74 -17 -154 -56 -214 -105 -132 -106 -201 -247 -203
-416 -2 -186 84 -351 234 -451 91 -60 165 -85 274 -91 306 -17 565 224 566
527 0 47 -5 107 -11 135 -27 119 -125 258 -230 325 -119 76 -283 106 -416 76z"/>
<path d="M3320 1731 c-115 -26 -169 -44 -275 -97 -269 -132 -447 -372 -471
-635 -12 -121 -122 -109 982 -109 l954 0 16 25 c32 49 -9 243 -77 364 -120
214 -334 367 -616 442 -116 31 -395 36 -513 10z"/>
</g>
</svg>
