<svg width="592" height="529" viewBox="0 0 592 529" fill="none" xmlns="http://www.w3.org/2000/svg">
<path d="M525.6 387.162H311.597C307.77 387.162 304.656 384.048 304.656 380.221V68.5051C304.656 64.6784 307.77 61.5645 311.597 61.5645H525.6C529.427 61.5645 532.541 64.6772 532.541 68.5051V380.221C532.541 384.049 529.427 387.162 525.6 387.162ZM311.597 61.8616C307.932 61.8616 304.952 64.8429 304.952 68.5062V380.221C304.952 383.886 307.934 386.866 311.597 386.866H525.6C529.265 386.866 532.245 383.886 532.245 380.221V68.5051C532.245 64.8418 529.263 61.8605 525.6 61.8605L311.597 61.8616Z" fill="#E0E0E0"/>
<path d="M278.824 387.162H64.8195C60.9928 387.162 57.8789 384.048 57.8789 380.221V68.5051C57.8789 64.6784 60.9916 61.5645 64.8195 61.5645H278.824C282.651 61.5645 285.765 64.6772 285.765 68.5051V380.221C285.765 384.049 282.651 387.162 278.824 387.162ZM64.8195 61.8616C61.1562 61.8616 58.1749 64.8429 58.1749 68.5062V380.221C58.1749 383.886 61.1562 386.866 64.8195 386.866H278.824C282.488 386.866 285.469 383.886 285.469 380.221V68.5051C285.469 64.8418 282.487 61.8605 278.824 61.8605L64.8195 61.8616Z" fill="#E0E0E0"/>
<path d="M592 459.47H0V459.766H592V459.47Z" fill="#E0E0E0"/>
<path d="M80.1947 476.356H61.1797V476.652H80.1947V476.356Z" fill="#E0E0E0"/>
<path d="M265.079 473.149H201.699V473.445H265.079V473.149Z" fill="#E0E0E0"/>
<path d="M124.297 487.357H81.377V487.653H124.297V487.357Z" fill="#E0E0E0"/>
<path d="M499.106 472.995H447.969V473.291H499.106V472.995Z" fill="#E0E0E0"/>
<path d="M517.149 472.995H509.654V473.291H517.149V472.995Z" fill="#E0E0E0"/>
<path d="M438.2 480.373H374.395V480.669H438.2V480.373Z" fill="#E0E0E0"/>
<path d="M540.048 97.7863C536.713 95.2667 531.848 94.9814 528.241 97.0937C523.455 87.4204 510.114 83.1509 500.601 88.248C498.119 77.8241 487.849 69.8119 477.134 69.941C466.42 70.07 456.345 78.3261 454.115 88.8068C453.761 90.4727 453.525 92.2973 452.334 93.5144C450.399 95.4905 447.168 94.8275 444.411 94.612C435.733 93.9347 427.002 100.028 424.643 108.404L544.137 107.97C545.183 103.924 543.382 100.306 540.047 97.7863H540.048Z" fill="#F0F0F0"/>
<path d="M138.356 107.74C135.021 105.221 130.156 104.936 126.549 107.048C121.762 97.3745 108.422 93.105 98.9087 98.2021C96.4271 87.7782 86.1571 79.766 75.4419 79.8951C64.7278 80.0241 54.6532 88.2802 52.4225 98.7609C52.0685 100.427 51.8329 102.251 50.6418 103.469C48.7071 105.445 45.476 104.782 42.7173 104.566C34.0397 103.889 25.3089 109.981 22.9492 118.359L142.443 117.923C143.49 113.877 141.689 110.259 138.354 107.739L138.356 107.74Z" fill="#F0F0F0"/>
<path d="M542.974 226.904C540.491 225.029 536.868 224.816 534.183 226.388C530.619 219.186 520.687 216.007 513.601 219.801C511.753 212.04 504.106 206.074 496.128 206.17C488.15 206.266 480.648 212.415 478.988 220.218C478.724 221.458 478.55 222.817 477.662 223.723C476.221 225.195 473.816 224.701 471.762 224.54C465.301 224.035 458.8 228.571 457.043 234.81L546.018 234.485C546.797 231.473 545.456 228.779 542.973 226.903L542.974 226.904Z" fill="#E6E6E6"/>
<path d="M141.82 338.391C139.384 332.385 136.022 326.4 130.481 322.748C124.7 318.939 117.021 318.3 110.329 319.383C106.866 319.943 103.474 321.048 100.347 322.642C96.8248 324.438 93.7985 326.956 90.8112 329.515C87.9033 332.005 84.9433 334.508 81.4576 336.158C79.9054 336.893 78.1969 337.479 76.4635 337.521C74.8106 337.56 73.4751 336.798 72.0898 335.988C70.373 334.985 68.5343 334.304 66.7287 333.482C64.8662 332.636 63.0429 331.702 61.2775 330.667C57.6805 328.559 54.3831 326.017 51.5001 323.003C50.6665 322.131 49.2966 323.415 50.1349 324.291C55.2474 329.637 61.596 333.415 68.3874 336.234C69.8959 336.86 71.229 337.745 72.6877 338.467C74.1961 339.214 75.6702 339.505 77.3491 339.329C80.8041 338.968 83.9949 337.127 86.7761 335.151C90.0996 332.79 93.0146 329.924 96.2493 327.451C99.1442 325.238 102.385 323.496 105.859 322.381C112.397 320.282 120.145 320.027 126.554 322.749C133.507 325.702 137.45 332.58 140.164 339.267C140.617 340.385 142.273 339.498 141.823 338.389L141.82 338.391Z" fill="#E0E0E0"/>
<path d="M71.9396 340.548C72.8028 342.684 75.2323 343.716 77.3683 342.854C79.5042 341.992 80.5355 339.561 79.6735 337.425C78.8116 335.289 76.3808 334.258 74.2449 335.12C72.1089 335.982 71.0765 338.412 71.9396 340.548Z" fill="#E0E0E0"/>
<path d="M73.739 339.955C65.2379 344.728 55.3278 346.618 45.664 345.342C44.4646 345.183 44.3971 347.061 45.5858 347.218C55.5504 348.533 65.8547 346.533 74.6175 341.613C75.6689 341.022 74.7939 339.362 73.739 339.954V339.955Z" fill="#E0E0E0"/>
<path d="M74.6805 338.78C65.4026 342.744 54.4163 342.36 45.4368 337.76C44.3701 337.213 43.3696 338.803 44.4482 339.356C51.8956 343.171 60.5766 344.315 68.7676 342.597C71.0989 342.108 73.3698 341.374 75.559 340.439C76.6696 339.964 75.7851 338.307 74.6805 338.78Z" fill="#E0E0E0"/>
<path d="M74.1179 337.602C64.3819 337.098 52.504 336.316 46.3898 327.478C45.7114 326.496 44.0443 327.364 44.7311 328.356C51.2999 337.853 63.4904 338.932 74.0398 339.479C75.2487 339.542 75.3244 337.665 74.1179 337.602Z" fill="#E0E0E0"/>
<path d="M73.6589 338.304C65.2939 340.622 56.1144 339.449 48.5427 335.219C46.3795 334.011 44.3584 332.567 42.5315 330.893C41.6471 330.083 40.2713 331.363 41.1652 332.181C47.9472 338.391 57.193 341.715 66.3785 341.331C68.9785 341.222 71.5573 340.83 74.065 340.135C75.2265 339.813 74.824 337.979 73.6589 338.303V338.304Z" fill="#E0E0E0"/>
<path d="M71.9613 339.203C68.0908 342.88 62.6527 344.328 57.41 344.156C52.0417 343.981 46.8818 342.273 41.9303 340.312C40.8055 339.865 40.2621 341.662 41.3786 342.105C46.6332 344.189 52.1566 345.97 57.8623 346.044C63.4306 346.117 69.1481 344.465 73.2483 340.57C74.1221 339.738 72.8387 338.37 71.9601 339.205L71.9613 339.203Z" fill="#E0E0E0"/>
<path d="M74.1028 337.55C65.3246 336.096 56.9395 332.261 50.0984 326.571C49.1819 325.809 47.8026 327.086 48.7332 327.859C55.9899 333.894 64.7136 337.883 74.0246 339.425C75.2157 339.623 75.2797 337.745 74.1028 337.55Z" fill="#E0E0E0"/>
<path d="M75.8105 310.408L79.0251 306.318L163.216 307.589L197.526 383.308L194.598 385.939L76.2048 311.153" fill="#EBEBEB"/>
<path d="M75.8105 310.406L160.028 311.854L194.598 385.937L110.762 385.222L75.8105 310.406Z" fill="#E6E6E6"/>
<path d="M167.62 372.591C162.741 381.715 142.353 380.323 122.081 369.484C101.81 358.644 89.332 342.46 94.2112 333.336C99.0905 324.212 119.479 325.604 139.75 336.443C160.021 347.283 172.5 363.467 167.62 372.591Z" fill="#E0E0E0"/>
<path d="M95.6395 331.379L82.1738 354.999L155.118 396.524L168.299 370.906L95.6395 331.379Z" fill="#E0E0E0"/>
<path d="M127.785 359.577C146.277 369.466 157.618 385.231 156.175 394.615C156.175 394.615 158.011 390.947 158.481 390.069C163.361 380.945 151.007 365.357 130.546 354.416C110.085 343.475 89.311 341.911 84.4317 351.035C83.9617 351.913 82.1738 354.996 82.1738 354.996C89.176 348.585 109.295 349.69 127.786 359.578L127.785 359.577Z" fill="#FAFAFA"/>
<path d="M155.826 395.359C160.705 386.235 148.073 369.968 127.612 359.027C107.15 348.085 86.6078 346.612 81.7288 355.736C76.8498 364.86 89.4818 381.127 109.943 392.068C130.405 403.01 150.947 404.483 155.826 395.359Z" fill="#E6E6E6"/>
<path d="M85.6771 366.71C84.2302 363.98 82.8355 360.109 84.4043 357.174C86.1376 353.931 91.3129 352.372 98.6028 352.895C106.853 353.487 116.642 356.619 126.171 361.714C138.121 368.104 147.726 376.582 151.865 384.393C153.312 387.124 154.707 390.994 153.138 393.929C151.404 397.172 146.229 398.732 138.939 398.209C130.689 397.617 120.899 394.486 111.371 389.391C99.4209 383.001 89.8163 374.522 85.6771 366.711V366.71Z" fill="#E0E0E0"/>
<path opacity="0.1" d="M166.081 366.716C166.447 365.711 161.121 351.091 142.784 341.541C142.784 341.541 126.87 348.959 141.378 364.595C148.344 372.101 152.618 376.639 155.179 379.33C157.183 381.435 160.655 380.864 161.919 378.247C164.316 373.284 166.081 366.716 166.081 366.716Z" fill="white"/>
<path d="M369.678 35.0813C365.585 31.9887 359.614 31.6395 355.187 34.2312C349.312 22.3593 332.94 17.1189 321.263 23.374C318.216 10.5808 305.612 0.747713 292.462 0.905185C279.313 1.06384 266.948 11.1977 264.211 24.0607C263.775 26.1043 263.487 28.3444 262.025 29.8374C259.65 32.2634 255.685 31.4488 252.3 31.1848C241.65 30.3536 230.934 37.8306 228.037 48.1124L374.696 47.5785C375.98 42.6128 373.77 38.1716 369.677 35.0802L369.678 35.0813Z" fill="#EBEBEB"/>
<path d="M282.266 193.753L261.898 216.103C261.898 216.103 266.426 226.854 289.637 247.602C312.429 267.976 322.799 269.564 322.799 269.564L349.885 239.841L282.267 193.753H282.266Z" fill="#EBEBEB"/>
<path d="M322.797 269.566C331.233 260.309 324.665 240.589 308.129 225.519C291.592 210.449 271.348 205.736 262.912 214.993C254.477 224.249 261.044 243.97 277.581 259.04C294.118 274.109 314.362 278.822 322.797 269.566Z" fill="#EBEBEB"/>
<path d="M282.553 253.542C268.154 240.421 262.589 221.109 266.629 210.913L262.912 214.992C254.476 224.248 261.044 243.969 277.581 259.039C294.118 274.109 314.362 278.821 322.798 269.565C323.888 268.368 326.123 265.917 326.123 265.917C316.345 270.884 296.951 266.663 282.553 253.542Z" fill="#E0E0E0"/>
<path d="M267.804 176.243L264.361 180.02L281.71 252.674L357.485 264.883L360.927 261.106L267.804 176.243Z" fill="#E0E0E0"/>
<path d="M267.805 176.241C267.406 177.141 285.462 248.774 285.462 248.774L360.929 261.103L340.769 189.7L267.805 176.24V176.241Z" fill="#F0F0F0"/>
<path d="M320.705 221.817C318.879 223.821 314.746 223.026 311.472 220.044C308.2 217.061 307.025 213.019 308.851 211.016C310.677 209.012 314.81 209.807 318.084 212.789C321.357 215.772 322.531 219.813 320.705 221.817Z" fill="#E0E0E0"/>
<path d="M315.497 216.977C319.527 212.568 324.404 208.322 330.411 207.054C337.055 205.651 344.421 208.016 349.974 211.661C352.905 213.586 355.522 215.976 357.642 218.772C359.987 221.861 361.673 225.369 363.633 228.699C365.448 231.783 367.577 234.886 370.461 237.072C371.767 238.062 373.326 238.952 374.978 239.148C376.516 239.329 378.033 238.95 379.543 238.717C381.441 238.422 383.397 238.488 385.31 238.321C387.196 238.157 389.075 237.909 390.936 237.556C394.842 236.815 398.644 235.609 402.221 233.869C403.27 233.359 402.606 231.664 401.552 232.176C395.137 235.296 388.169 236.499 381.088 236.748C379.463 236.805 377.899 237.259 376.283 237.365C374.61 237.474 373.116 236.762 371.789 235.792C368.855 233.648 366.765 230.476 364.958 227.379C362.974 223.978 361.246 220.404 358.803 217.296C356.642 214.548 354.022 212.149 351.098 210.231C345.471 206.538 338.173 204.046 331.384 205.035C324.351 206.062 318.71 210.774 314.066 215.855C313.275 216.719 314.712 217.839 315.498 216.978L315.497 216.977Z" fill="#E0E0E0"/>
<path d="M376.974 241.263C375.47 242.914 372.912 243.034 371.262 241.529C369.611 240.024 369.492 237.466 370.996 235.816C372.501 234.165 375.059 234.047 376.709 235.551C378.36 237.054 378.478 239.613 376.974 241.263Z" fill="#E0E0E0"/>
<path d="M374.133 241.262C380.516 248.778 389.234 254.059 398.847 256.249C399.989 256.51 400.231 254.704 399.095 254.446C389.987 252.372 381.643 247.299 375.597 240.181C374.842 239.292 373.375 240.369 374.134 241.263L374.133 241.262Z" fill="#E0E0E0"/>
<path d="M373.838 240.054C381.354 247.181 392.022 250.683 402.3 249.462C403.465 249.323 403.247 247.517 402.082 247.655C392.242 248.824 382.147 245.435 374.963 238.621C374.114 237.816 372.995 239.252 373.839 240.053L373.838 240.054Z" fill="#E0E0E0"/>
<path d="M375.362 239.554C385.088 242.6 396.616 245.811 405.766 239.405C406.727 238.732 405.643 237.27 404.684 237.942C396.129 243.93 385.125 240.712 376.065 237.876C374.958 237.529 374.242 239.204 375.363 239.554H375.362Z" fill="#E0E0E0"/>
<path d="M375.113 240.121C382.355 245.35 391.657 247.488 400.47 246.08C402.948 245.685 405.382 245.008 407.706 244.062C408.793 243.62 408.123 241.927 407.038 242.369C399.228 245.543 390.25 245.408 382.479 242.176C380.267 241.256 378.179 240.091 376.238 238.689C375.291 238.004 374.163 239.433 375.115 240.121H375.113Z" fill="#E0E0E0"/>
<path d="M375.748 240.772C378.162 245.698 382.749 249.164 387.85 250.982C393.148 252.869 398.827 253.105 404.396 252.981C405.568 252.955 405.341 251.148 404.178 251.174C394.47 251.391 382.261 249.938 377.44 240.104C376.926 239.057 375.231 239.72 375.747 240.772H375.748Z" fill="#E0E0E0"/>
<path d="M375.62 239.574C384.499 241.291 393.763 240.584 402.29 237.583C403.398 237.192 402.723 235.501 401.621 235.89C393.377 238.793 384.447 239.43 375.869 237.771C374.718 237.548 374.473 239.353 375.621 239.574H375.62Z" fill="#E0E0E0"/>
<path d="M548.485 343.213C545.15 340.693 540.285 340.408 536.678 342.52C531.891 332.847 518.551 328.578 509.038 333.675C506.556 323.251 496.286 315.24 485.571 315.368C474.857 315.497 464.782 323.753 462.551 334.234C462.197 335.899 461.962 337.724 460.771 338.941C458.836 340.917 455.605 340.254 452.846 340.039C444.169 339.361 435.438 345.454 433.078 353.831L552.572 353.395C553.619 349.35 551.818 345.731 548.483 343.212L548.485 343.213Z" fill="#F0F0F0"/>
<path d="M267.814 276.073C264.479 273.554 259.613 273.268 256.007 275.381C251.22 265.707 237.88 261.438 228.367 266.535C225.885 256.111 215.615 248.1 204.9 248.228C194.186 248.357 184.111 256.613 181.88 267.094C181.526 268.76 181.291 270.584 180.1 271.802C178.165 273.778 174.934 273.115 172.176 272.899C163.499 272.222 154.768 278.315 152.408 286.691L271.902 286.257C272.949 282.211 271.149 278.593 267.814 276.073Z" fill="#F0F0F0"/>
<path d="M232.596 468.638C229.161 466.043 224.149 465.749 220.434 467.926C215.502 457.961 201.761 453.564 191.961 458.813C189.404 448.076 178.824 439.822 167.787 439.955C156.75 440.087 146.372 448.593 144.075 459.389C143.71 461.104 143.468 462.985 142.241 464.237C140.247 466.273 136.919 465.589 134.078 465.368C125.139 464.671 116.146 470.946 113.715 479.576L236.809 479.127C237.887 474.96 236.032 471.232 232.597 468.637L232.596 468.638Z" fill="#E6E6E6"/>
<path d="M491.08 423.097C488.598 421.222 484.974 421.009 482.289 422.582C478.725 415.38 468.793 412.201 461.709 415.996C459.861 408.235 452.213 402.269 444.235 402.364C436.258 402.46 428.756 408.609 427.096 416.413C426.832 417.652 426.658 419.011 425.77 419.917C424.329 421.389 421.923 420.895 419.87 420.735C413.409 420.231 406.907 424.767 405.15 431.005L494.126 430.681C494.905 427.669 493.563 424.974 491.08 423.099V423.097Z" fill="#E6E6E6"/>
<path d="M294.021 122.29C291.247 120.195 287.2 119.957 284.201 121.715C280.219 113.668 269.124 110.118 261.21 114.358C259.145 105.687 250.602 99.0236 241.69 99.1302C232.778 99.2379 224.399 106.105 222.544 114.823C222.249 116.208 222.054 117.726 221.063 118.738C219.454 120.382 216.766 119.83 214.471 119.651C207.254 119.089 199.992 124.155 198.029 131.123L297.423 130.761C298.293 127.396 296.795 124.386 294.021 122.29Z" fill="#F0F0F0"/>
<path d="M453.341 514.597C453.341 522.048 386.774 528.087 304.659 528.087C222.543 528.087 155.977 522.048 155.977 514.597C155.977 507.146 222.543 501.106 304.659 501.106C386.774 501.106 453.341 507.146 453.341 514.597Z" fill="#F5F5F5"/>
<path d="M220.926 361.46L216.506 422.345C216.506 422.345 236.738 433.781 298.377 437.81C358.903 441.767 377.033 431.368 377.033 431.368L382.911 350.396L220.927 361.459L220.926 361.46Z" fill="#263238"/>
<path d="M377.026 431.472C378.953 406.263 344.633 383.085 300.37 379.701C256.106 376.318 218.662 394.011 216.735 419.22C214.808 444.429 249.128 467.608 293.392 470.991C337.655 474.375 375.099 456.681 377.026 431.472Z" fill="#263238"/>
<path d="M294.59 456.074C256.047 453.176 223.711 429.435 217.53 408.205C217.53 408.205 216.961 416.055 216.724 419.316C214.894 444.533 249.295 467.673 293.562 471.001C337.83 474.329 375.199 456.586 377.031 431.369C377.267 428.108 377.752 421.432 377.752 421.432C368.572 441.506 333.133 458.973 294.59 456.074Z" fill="#324C72"/>
<path opacity="0.2" d="M219.16 385.788C219.16 385.788 267.38 471.223 357.751 458.397C357.751 458.397 372.467 450.428 375.967 437.134L376.878 433.493L380.389 385.133L220.041 373.655L219.16 385.787V385.788Z" fill="black"/>
<path d="M176.909 351.672L176.162 361.961L292.214 455.747L425.44 380.704L426.187 370.415L176.909 351.672Z" fill="#263238"/>
<path opacity="0.4" d="M176.909 351.672L176.162 361.961L292.214 455.747L425.44 380.704L426.187 370.415L176.909 351.672Z" fill="black"/>
<path d="M176.91 351.672C177.39 353.597 293.297 444.881 293.297 444.881L426.19 370.415L307.279 282.119L176.91 351.672Z" fill="#263238"/>
<path opacity="0.4" d="M315.295 358.135C314.899 363.593 307.475 367.483 298.712 366.824C289.951 366.166 283.169 361.208 283.565 355.749C283.961 350.291 291.386 346.402 300.147 347.06C308.909 347.718 315.691 352.677 315.295 358.135Z" fill="black"/>
<path d="M301.235 356.941C302.127 344.915 304.54 332.094 312.364 322.59C321.015 312.08 335.406 306.658 348.54 305.529C355.473 304.934 362.484 305.469 369.219 307.266C376.661 309.252 383.59 312.722 390.727 315.568C397.337 318.204 404.461 320.482 411.639 320.359C414.89 320.303 418.411 319.776 421.23 318.026C423.854 316.397 425.757 313.906 427.826 311.653C430.427 308.82 433.562 306.487 436.344 303.836C439.086 301.224 441.717 298.489 444.189 295.61C449.377 289.564 453.834 282.91 457.287 275.689C458.299 273.571 455.186 271.706 454.169 273.834C447.977 286.783 438.573 297.379 427.825 306.6C425.36 308.714 423.475 311.385 421.08 313.568C418.602 315.825 415.398 316.558 412.139 316.671C404.932 316.922 397.788 314.486 391.173 311.819C383.912 308.891 376.838 305.366 369.217 303.475C362.478 301.803 355.451 301.257 348.54 301.854C335.235 303.003 320.789 308.138 311.406 318.172C301.685 328.568 298.652 343.081 297.625 356.941C297.45 359.3 301.061 359.289 301.235 356.941Z" fill="#324C72"/>
<path d="M426.938 318.897C426.611 323.394 422.764 326.771 418.346 326.438C413.927 326.106 410.609 322.191 410.936 317.694C411.263 313.198 415.11 309.821 419.529 310.153C423.947 310.486 427.265 314.4 426.938 318.897Z" fill="#324C72"/>
<path d="M422.497 322.439C441.665 326.422 461.741 323.945 479.428 315.443C481.528 314.434 479.697 311.264 477.606 312.27C460.85 320.324 441.612 322.668 423.459 318.895C421.19 318.424 420.221 321.965 422.499 322.439H422.497Z" fill="#324C72"/>
<path d="M420.565 320.88C441.024 322.835 461.963 315.101 476.511 300.354C478.159 298.684 475.607 296.085 473.959 297.755C460.03 311.873 440.122 319.074 420.565 317.205C418.253 316.983 418.267 320.66 420.565 320.88Z" fill="#324C72"/>
<path d="M422.327 318.199C441.239 310.914 463.163 301.649 469.601 280.071C470.277 277.804 466.794 276.834 466.119 279.094C460.1 299.27 438.983 307.87 421.368 314.656C419.216 315.484 420.149 319.039 422.328 318.199H422.327Z" fill="#324C72"/>
<path d="M422.64 319.404C440.347 318.685 457.485 310.488 469.516 297.269C472.899 293.551 475.869 289.443 478.34 285.044C479.495 282.988 476.377 281.135 475.222 283.19C466.92 297.965 452.742 308.941 436.652 313.49C432.074 314.784 427.388 315.537 422.64 315.73C420.324 315.823 420.312 319.499 422.64 319.405V319.404Z" fill="#324C72"/>
<path d="M424.426 319.645C434.227 324.459 445.629 324.25 455.819 320.779C466.401 317.174 475.551 310.471 484.094 303.332C485.891 301.831 483.323 299.244 481.541 300.733C466.652 313.177 445.818 326.084 426.249 316.472C424.165 315.449 422.331 318.616 424.426 319.645Z" fill="#324C72"/>
<path d="M422.757 317.905C438.718 309.568 452.312 296.9 461.945 281.503C463.196 279.502 460.073 277.658 458.826 279.649C449.513 294.534 436.356 306.676 420.933 314.732C418.865 315.812 420.691 318.984 422.755 317.905H422.757Z" fill="#324C72"/>
<path opacity="0.3" d="M426.938 318.897C426.611 323.394 422.764 326.771 418.346 326.438C413.927 326.106 410.609 322.191 410.936 317.694C411.263 313.198 415.11 309.821 419.529 310.153C423.947 310.486 427.265 314.4 426.938 318.897Z" fill="black"/>
<path opacity="0.1" d="M309.046 287.341C308.167 284.689 186 349.167 186.368 352.915C186.736 356.662 262.188 416.685 264.803 416.685C273.621 416.685 262.594 378.398 274.377 346.919C286.161 315.44 312.359 297.344 309.045 287.341H309.046Z" fill="white"/>
<path d="M376.839 111.244L350.113 153.778C350.113 153.778 360.678 170.025 404.732 197.119C447.991 223.724 465.412 223.271 465.412 223.271L500.955 166.704L376.84 111.243L376.839 111.244Z" fill="#263238"/>
<path d="M465.412 223.273C476.481 205.656 459.941 175.345 428.469 155.57C396.997 135.796 362.511 134.046 351.442 151.663C340.373 169.28 356.913 199.591 388.385 219.365C419.857 239.14 454.343 240.889 465.412 223.273Z" fill="#263238"/>
<path d="M394.899 208.915C367.498 191.697 352.718 161.76 356.323 143.901C356.323 143.901 352.878 149.386 351.446 151.664C340.377 169.28 356.917 199.591 388.389 219.366C419.861 239.14 454.346 240.89 465.416 223.273C466.847 220.995 469.777 216.331 469.777 216.331C455.252 227.328 422.303 226.133 394.9 208.915H394.899Z" fill="#324C72"/>
<path opacity="0.2" d="M366.16 128.241C366.16 128.241 368.926 209.262 440.733 235.365C440.733 235.365 454.691 235.341 462.402 227.048L464.478 224.758L485.706 190.974L371.485 119.766L366.16 128.241Z" fill="black"/>
<path d="M357.056 76.292L352.539 83.4812L402.279 197.165L529.764 194.835L534.281 187.646L357.056 76.292Z" fill="#263238"/>
<path opacity="0.4" d="M357.056 76.292L352.539 83.4812L402.279 197.165L529.764 194.835L534.281 187.646L357.056 76.292Z" fill="black"/>
<path d="M357.057 76.292C356.67 77.8797 407.266 189.69 407.266 189.69L534.28 187.646L480.312 76.8331L357.057 76.292Z" fill="#263238"/>
<path opacity="0.4" d="M456.961 135.246C454.566 139.058 447.573 138.977 441.344 135.062C435.115 131.148 432.007 124.885 434.402 121.072C436.797 117.26 443.79 117.341 450.019 121.256C456.248 125.17 459.356 131.432 456.961 135.246Z" fill="black"/>
<path d="M445.414 129.843C445.736 129.894 446.052 129.983 446.367 130.062C446.528 130.103 446.686 130.154 446.846 130.199C446.123 129.994 446.902 130.22 447.102 130.287C447.612 130.458 448.116 130.646 448.615 130.846C450.044 131.42 451.431 132.099 452.777 132.846C454.612 133.864 455.916 134.714 457.778 136.084C470.034 145.097 478.875 158.391 485.737 171.753C492.678 185.268 497.871 199.634 502.113 214.201C502.728 216.31 505.909 215.064 505.297 212.964C498.719 190.373 489.869 167.393 475.227 148.691C468.74 140.406 460.712 132.388 450.922 128.111C449.354 127.426 447.654 126.738 445.951 126.471C443.781 126.131 443.237 129.504 445.412 129.843H445.414Z" fill="#324C72"/>
<path d="M504.918 228.333C500.907 227.871 498.03 224.247 498.492 220.237C498.954 216.227 502.578 213.35 506.588 213.811C510.598 214.273 513.476 217.897 513.014 221.908C512.552 225.918 508.928 228.795 504.918 228.333Z" fill="#324C72"/>
<path d="M501.792 224.395C497.565 241.507 499.045 259.855 505.915 276.083C506.77 278.103 509.959 276.877 509.099 274.845C502.441 259.118 501.069 241.51 505.164 224.934C505.691 222.8 502.315 222.273 501.792 224.395Z" fill="#324C72"/>
<path d="M503.339 222.258C500.831 240.813 506.814 260.21 519.489 274.02C520.959 275.622 523.74 273.635 522.254 272.017C510.169 258.85 504.314 240.53 506.711 222.798C507.004 220.623 503.634 220.076 503.339 222.259V222.258Z" fill="#324C72"/>
<path d="M505.726 224.404C511.48 241.708 518.981 261.974 537.855 268.565C539.916 269.285 541.345 266.181 539.271 265.456C521.259 259.165 514.389 239.641 508.911 223.167C508.217 221.081 505.032 222.319 505.726 224.404Z" fill="#324C72"/>
<path d="M504.57 224.657C504.556 240.71 511.324 256.39 522.532 267.804C525.707 271.037 529.252 273.882 533.091 276.291C533.878 276.784 534.849 276.823 535.494 276.054C536.028 275.417 536.038 274.139 535.257 273.65C522.269 265.502 512.779 252.092 509.389 237.126C508.434 232.91 507.961 228.603 507.965 224.28C507.967 222.088 504.572 222.477 504.57 224.657Z" fill="#324C72"/>
<path d="M504.171 226.195C499.461 235.024 499.447 245.56 502.229 254.995C505.036 264.515 510.615 272.96 516.541 280.808C517.866 282.563 520.634 280.562 519.307 278.805C513.73 271.419 508.518 263.585 505.699 254.691C502.897 245.85 502.845 235.928 507.281 227.613C508.318 225.67 505.202 224.265 504.172 226.196L504.171 226.195Z" fill="#324C72"/>
<path d="M505.823 224.408C512.692 239.248 523.437 252.149 536.867 261.493C538.663 262.742 540.839 260.109 539.034 258.853C526.083 249.843 515.637 237.495 509.005 223.171C508.086 221.186 504.894 222.406 505.821 224.408H505.823Z" fill="#324C72"/>
<path opacity="0.3" d="M504.918 228.333C500.907 227.871 498.03 224.247 498.492 220.237C498.954 216.227 502.578 213.35 506.588 213.811C510.598 214.273 513.476 217.897 513.014 221.908C512.552 225.918 508.928 228.795 504.918 228.333Z" fill="black"/>
<path opacity="0.1" d="M361.99 79.3926L478.501 80.7814L499.351 125.744C499.351 125.744 376.693 95.4393 372.042 91.3995C367.392 87.3597 361.99 79.3926 361.99 79.3926Z" fill="white"/>
<path opacity="0.1" d="M365.043 135.245C365.043 135.245 351.7 153.069 351.272 159.042C350.843 165.015 351.018 176.932 357.615 181.76C364.211 186.589 372.502 143.389 371.137 134.574C369.772 125.76 365.042 135.245 365.042 135.245H365.043Z" fill="white"/>
<path d="M150.18 133.489C139.25 132.373 127.616 132.657 117.749 138.059C107.455 143.697 100.404 154.692 96.7145 165.574C94.8047 171.207 93.7675 177.165 93.6728 183.112C93.5674 189.814 94.9385 196.345 96.3995 202.85C97.8227 209.182 99.2222 215.603 98.9274 222.135C98.7959 225.044 98.3188 228.07 97.0057 230.698C95.7531 233.206 93.5508 234.6 91.2385 236.033C88.3732 237.809 85.8939 240.022 83.2311 242.076C80.4854 244.193 77.6379 246.184 74.6873 248.007C68.6762 251.721 62.2494 254.644 55.4473 256.57C53.4807 257.126 54.3166 260.197 56.2927 259.637C68.3565 256.223 79.0563 249.712 88.6692 241.774C90.8051 240.011 93.1873 238.716 95.4275 237.106C97.7445 235.44 99.35 233.461 100.419 230.808C102.62 225.345 102.394 219.104 101.643 213.371C100.745 206.52 98.7663 199.88 97.6297 193.072C96.6126 186.979 96.5759 180.741 97.6629 174.655C99.7088 163.195 105.475 151.388 114.638 143.948C124.58 135.875 138.012 135.427 150.182 136.671C152.217 136.879 152.203 133.695 150.182 133.489H150.18Z" fill="#324C72"/>
<path d="M97.952 239.869C101.836 240.272 105.311 237.45 105.713 233.567C106.116 229.683 103.294 226.208 99.4107 225.806C95.5272 225.403 92.0521 228.225 91.6496 232.108C91.247 235.992 94.0685 239.467 97.952 239.869Z" fill="#324C72"/>
<path d="M98.4857 236.707C98.8882 253.228 93.8538 269.575 84.2741 283.037C83.0842 284.708 85.8429 286.299 87.0222 284.642C96.9015 270.761 102.084 253.736 101.668 236.707C101.619 234.663 98.4347 234.655 98.4857 236.707Z" fill="#324C72"/>
<path d="M97.4785 234.365C96.053 251.409 86.7586 267.561 72.7412 277.359C71.0753 278.525 72.6631 281.284 74.3467 280.106C85.9724 271.979 94.5754 259.882 98.5027 246.251C99.6204 242.372 100.324 238.387 100.66 234.365C100.83 232.325 97.6479 232.336 97.4785 234.365Z" fill="#324C72"/>
<path d="M95.2621 234.27C86.78 248.453 76.1808 265.626 58.0881 267.769C56.0788 268.007 56.0552 271.192 58.0881 270.95C77.527 268.647 88.8188 251.242 98.009 235.875C99.0628 234.113 96.3124 232.511 95.2621 234.27Z" fill="#324C72"/>
<path d="M95.9535 235.515C92.7863 249.884 83.7441 262.703 71.3997 270.688C67.8726 272.97 64.1051 274.85 60.1482 276.259C58.2325 276.941 59.0577 280.017 60.9936 279.328C75.6787 274.097 87.9947 262.887 94.7115 248.822C96.6118 244.841 98.0717 240.668 99.0213 236.36C99.4605 234.365 96.394 233.513 95.9535 235.515Z" fill="#324C72"/>
<path d="M95.9551 238.773C98.3905 247.488 96.2428 256.783 91.8253 264.5C87.3012 272.401 80.6495 278.777 73.7799 284.635C72.2194 285.966 74.4797 288.207 76.0295 286.885C83.3206 280.668 90.3737 273.807 95.0126 265.319C99.5402 257.036 101.604 247.16 99.0228 237.928C98.4722 235.959 95.4009 236.794 95.9551 238.773Z" fill="#324C72"/>
<path d="M95.1711 234.254C86.0259 246.249 73.6259 255.765 59.6748 261.496C57.8065 262.264 58.6246 265.343 60.5202 264.564C75.3202 258.483 88.2187 248.582 97.9192 235.859C99.16 234.231 96.3978 232.645 95.1711 234.254Z" fill="#324C72"/>
<path opacity="0.3" d="M97.952 239.869C101.836 240.272 105.311 237.45 105.713 233.567C106.116 229.683 103.294 226.208 99.4107 225.806C95.5272 225.403 92.0521 228.225 91.6496 232.108C91.247 235.992 94.0685 239.467 97.952 239.869Z" fill="black"/>
<path d="M55.8714 210.15L52.2969 202.088L121.02 76.9854L262.47 85.1455L265.076 92.1619L57.3005 210.15" fill="#263238"/>
<path opacity="0.1" d="M55.8714 210.15L52.2969 202.088L121.02 76.9854L262.47 85.1455L265.076 92.1619L57.3005 210.15" fill="white"/>
<path d="M54.0859 210.149L124.883 85.1445L263.29 92.1609L195.682 217.174L54.0859 210.149Z" fill="#263238"/>
<path opacity="0.3" d="M54.0859 210.149L124.883 85.1445L263.29 92.1609L195.682 217.174L54.0859 210.149Z" fill="black"/>
<path d="M181.088 187.732C213.415 165.97 231.68 136.534 221.885 121.984C212.09 107.434 177.944 113.28 145.618 135.042C113.292 156.804 95.0263 186.24 104.821 200.79C114.616 215.34 148.762 209.494 181.088 187.732Z" fill="#263238"/>
<path d="M103.023 197.091L127.716 236.008L247.811 159.7L219.898 119.623L103.023 197.091Z" fill="#263238"/>
<path d="M170.784 171.322C200.272 151.471 232.888 146.994 245.799 156.605C245.799 156.605 241.762 150.941 240.82 149.541C231.024 134.991 197.872 141.124 165.244 163.089C132.615 185.055 113.785 214.931 123.58 229.481C124.522 230.882 127.721 236.008 127.721 236.008C123.675 220.43 141.297 191.173 170.786 171.322H170.784Z" fill="#324C72"/>
<path d="M205.287 223.842C237.916 201.876 256.427 172.275 246.632 157.725C236.837 143.175 202.446 149.186 169.816 171.152C137.187 193.117 118.677 222.719 128.472 237.269C138.266 251.819 172.658 245.807 205.287 223.842Z" fill="#263238"/>
<path opacity="0.5" d="M148.047 240.052C142.809 240.052 135.904 239.069 132.753 234.389C129.272 229.218 131.043 220.228 137.611 209.725C145.044 197.838 157.506 185.658 172.7 175.429C191.757 162.6 212.08 154.942 227.065 154.942C232.303 154.942 239.208 155.925 242.358 160.604C245.839 165.775 244.068 174.765 237.5 185.269C230.067 197.157 217.606 209.337 202.411 219.565C183.355 232.394 163.032 240.052 148.047 240.052Z" fill="black"/>
<path opacity="0.1" d="M211.868 119.625C210.653 118.277 184.526 114.654 155.666 134.542C155.666 134.542 154.147 164.267 189.084 154.943C205.856 150.468 216.046 147.668 222.11 145.965C226.853 144.634 228.754 138.979 225.837 135.009C220.305 127.479 211.869 119.623 211.869 119.623L211.868 119.625Z" fill="white"/>
<path opacity="0.1" d="M145.364 206.299C145.364 205.137 114.775 239.234 153.883 236.706L171.695 232.837C171.695 232.837 145.364 225.272 145.364 206.299Z" fill="white"/>
</svg>
