<svg width="141" height="154" viewBox="0 0 141 154" fill="none" xmlns="http://www.w3.org/2000/svg">
<path d="M74.7496 0.904297C88.8095 0.904297 101.299 2.84874 112.218 6.73762C123.136 10.4769 132.709 16.2355 140.936 24.0133L125.385 48.2296C125.385 48.2296 120.62 45.4788 117.497 43.8476C103.84 36.7148 95.6556 33.1107 80.6881 29.6442C64.3573 25.862 50.8905 24.0133 37.7636 29.6442C37.0147 29.9655 36.159 30.2656 35.0312 31.5738C32.7334 34.734 35.656 38.2007 36.9875 38.8006C34.7575 39.7576 32.5938 40.894 30.5253 42.124L30.5083 42.1341C30.0997 42.3761 27.4747 43.9311 28.1385 46.7998C28.8423 50.6432 32.7255 52.1385 33.2841 51.9781C33.2841 51.9781 31.3387 53.4787 30.7347 54.3873C29.4373 56.3389 29.6281 58.4344 30.0122 59.4988C30.6662 61.3115 32.8433 63.9359 36.7585 64.0349C39.5302 64.105 41.9245 62.6525 44.326 61.1956C44.6295 61.0115 44.9331 60.8273 45.2375 60.6461C46.3059 60.0104 47.3568 59.3546 48.392 58.7086C48.624 58.5639 48.8552 58.4196 49.0856 58.2762C52.5416 56.1247 55.825 54.1594 59.0058 53.5124C60.7868 53.1501 61.6702 53.4033 61.9276 53.755C62.1932 54.1175 61.3625 55.033 59.6258 56.2915C56.345 58.6694 54.6681 59.9567 54.0779 60.5506C53.1416 61.4929 51.9498 63.6608 51.8624 64.5808C51.6363 66.9603 53.1933 69.2891 55.4384 69.9301C56.7819 70.3136 57.8127 70.3009 59.6262 69.8788C63.3102 69.021 66.8457 67.1758 70.2445 64.3368C72.6101 62.3606 73.482 61.3871 75.2946 58.6982C75.7422 58.034 76.0764 57.5329 76.3412 57.1144C76.4731 56.906 76.5878 56.7181 76.6907 56.5408L94.2689 60.5838C103.027 62.5982 108.491 64.4891 116.621 68.3194C120.334 70.1132 124.661 73.0507 127.698 75.8402C135.027 82.4214 138.692 91.4705 138.692 102.988C138.692 114.206 135.85 123.554 130.166 131.032C124.632 138.511 117.004 144.12 107.282 147.859C97.5595 151.599 86.5659 153.468 74.3009 153.468C64.5787 153.468 55.0808 152.496 45.8073 150.552C36.6834 148.607 28.3073 145.84 20.6791 142.25C13.0509 138.511 6.46973 134.099 0.935547 129.013L20.2164 98.4252C25.4748 101.989 45.2311 116.719 64.0365 121.848C73.6769 124.477 92.9578 127.106 104.104 122.293C105.303 121.776 105.709 121.672 106.836 120.364C109.134 117.204 106.212 113.737 104.88 113.137C107.11 112.18 109.274 111.044 111.342 109.814L111.359 109.804C111.768 109.561 114.393 108.007 113.729 105.138C113.025 101.294 109.142 99.7991 108.583 99.9595C108.583 99.9595 110.529 98.4589 111.133 97.5503C112.43 95.5987 112.239 93.5033 111.855 92.4388C111.201 90.6261 109.024 88.0018 105.109 87.9027C102.337 87.8326 99.9431 89.2851 97.5416 90.742C97.2381 90.9261 96.9345 91.1103 96.63 91.2915C95.5616 91.9272 94.5107 92.583 93.4756 93.229C89.7642 95.545 86.2546 97.7351 82.8618 98.4252C81.0807 98.7875 80.1974 98.5343 79.9399 98.1826C79.6744 97.8201 80.5051 96.9046 82.2418 95.6461C85.5226 93.2682 87.1994 91.9809 87.7896 91.387C88.726 90.4447 89.9178 88.2768 90.0051 87.3568C90.2312 84.9773 88.6743 82.6485 86.4291 82.0076C85.0857 81.6241 84.0548 81.6367 82.2414 82.0588C78.5574 82.9166 75.0219 84.7618 71.6231 87.6009C69.2575 89.577 68.3856 90.5505 66.573 93.2395C65.7134 94.5148 65.272 95.1891 64.9368 95.8317L52.9868 93.1158C44.9099 91.321 37.4313 88.853 30.5509 85.712C23.6706 82.5709 18.1364 78.2333 13.9484 72.6992C9.9099 67.0154 7.89067 59.6116 7.89067 50.4876C7.89067 40.7654 10.5082 32.165 15.7432 24.6863C20.9783 17.2077 28.6065 11.3744 38.6279 7.18635C48.6492 2.99831 60.6898 0.904297 74.7496 0.904297Z" fill="white"/>
</svg>
