<svg width="399" height="117" viewBox="0 0 399 117" fill="none" xmlns="http://www.w3.org/2000/svg">
<path d="M383.538 50.9998V87.9998H364.538V50.9998H383.538Z" fill="white"/>
<path d="M209.326 27.457V88H190.772V79.754C188.892 82.4304 186.324 84.6004 183.069 86.264C179.886 87.8554 176.406 88 172.5 88C167.871 88 163.72 87.6384 160.176 85.613C156.631 83.5154 153.883 80.5135 151.93 76.6075C149.977 72.7015 149 68.1084 149 62.828V27.457H167.445V60.3325C167.445 64.3832 168.494 67.5297 170.591 69.772C172.689 72.0144 175.51 73.1355 179.055 73.1355C182.671 73.1355 185.528 72.0144 187.626 69.772C189.724 67.5297 190.772 64.3832 190.772 60.3325V27.457H209.326Z" fill="white"/>
<path d="M43.112 1C51.1333 1 58.2587 2.10933 64.488 4.328C70.7173 6.46133 76.1787 9.74667 80.872 14.184L72 27.9998C72 27.9998 69.282 26.4304 67.5 25.4998C59.7083 21.4304 55.0392 19.3742 46.5 17.3965C37.183 15.2387 29.5 14.184 22.0109 17.3965C21.5837 17.5798 21.0955 17.7511 20.4521 18.4974C19.1411 20.3003 20.8085 22.2781 21.5681 22.6204C20.2959 23.1663 19.0615 23.8147 17.8814 24.5164L17.8717 24.5222C17.6385 24.6603 16.141 25.5474 16.5197 27.184C16.9212 29.3767 19.1366 30.2298 19.4553 30.1384C19.4553 30.1384 18.3455 30.9945 18.0009 31.5128C17.2606 32.6263 17.3695 33.8217 17.5886 34.429C17.9617 35.4632 19.2038 36.9604 21.4375 37.0169C23.0188 37.0569 24.3848 36.2282 25.7549 35.397C25.928 35.292 26.1012 35.1869 26.2749 35.0836C26.8845 34.7209 27.484 34.3467 28.0746 33.9782C28.2069 33.8956 28.3388 33.8133 28.4703 33.7315C30.442 32.504 32.3152 31.3828 34.1299 31.0137C35.146 30.807 35.65 30.9514 35.7969 31.1521C35.9483 31.3589 35.4744 31.8812 34.4836 32.5992C32.6119 33.9558 31.6552 34.6902 31.3185 35.0291C30.7843 35.5667 30.1044 36.8035 30.0545 37.3284C29.9255 38.6859 30.8138 40.0145 32.0947 40.3802C32.8611 40.599 33.4492 40.5918 34.4839 40.3509C36.5856 39.8616 38.6027 38.8089 40.5417 37.1891C41.8914 36.0617 42.3888 35.5063 43.4229 33.9722C43.6783 33.5933 43.8689 33.3074 44.02 33.0687C44.0953 32.9498 44.1607 32.8426 44.2194 32.7414L54.248 35.048C59.2448 36.1973 62.3618 37.276 67 39.4613C69.1186 40.4847 71.5871 42.1605 73.32 43.752C77.5013 47.5067 79.592 52.6693 79.592 59.24C79.592 65.64 77.9707 70.9733 74.728 75.24C71.5707 79.5067 67.2187 82.7067 61.672 84.84C56.1253 86.9733 49.8533 88.04 42.856 88.04C37.3093 88.04 31.8907 87.4853 26.6 86.376C21.3947 85.2667 16.616 83.688 12.264 81.64C7.912 79.5067 4.15733 76.9893 1 74.088L12 56.6371C15 58.6704 26.2713 67.074 37 70C42.5 71.5 53.5 73 59.8591 70.2542C60.5433 69.9588 60.7745 69.8997 61.4179 69.1534C62.7289 67.3504 61.0615 65.3726 60.3019 65.0304C61.5741 64.4844 62.8085 63.8361 63.9886 63.1343L63.9983 63.1286C64.2315 62.9905 65.729 62.1034 65.3503 60.4667C64.9488 58.274 62.7334 57.4209 62.4147 57.5124C62.4147 57.5124 63.5245 56.6563 63.8691 56.1379C64.6093 55.0245 64.5005 53.829 64.2814 53.2217C63.9082 52.1876 62.6662 50.6903 60.4325 50.6339C58.8512 50.5939 57.4852 51.4225 56.1151 52.2537C55.942 52.3587 55.7688 52.4638 55.5951 52.5672C54.9855 52.9299 54.386 53.304 53.7954 53.6726C51.678 54.9939 49.6757 56.2434 47.7401 56.6371C46.724 56.8438 46.22 56.6993 46.0731 56.4987C45.9216 56.2919 46.3956 55.7695 47.3864 55.0515C49.2581 53.6949 50.2148 52.9605 50.5515 52.6217C51.0857 52.0841 51.7656 50.8473 51.8155 50.3224C51.9445 48.9649 51.0562 47.6362 49.7753 47.2706C49.0089 47.0518 48.4208 47.059 47.3861 47.2998C45.2844 47.7892 43.2673 48.8419 41.3283 50.4616C39.9786 51.589 39.4812 52.1444 38.4471 53.6785C37.9567 54.4062 37.7049 54.7908 37.5136 55.1575L30.696 53.608C26.088 52.584 21.8213 51.176 17.896 49.384C13.9707 47.592 10.8133 45.1173 8.424 41.96C6.12 38.7173 4.968 34.4933 4.968 29.288C4.968 23.7413 6.46133 18.8347 9.448 14.568C12.4347 10.3013 16.7867 6.97333 22.504 4.584C28.2213 2.19467 35.0907 1 43.112 1Z" fill="white"/>
<path d="M95.1665 30.3864C99.2171 27.8547 103.738 26.5889 108.729 26.5889C112.997 26.5889 116.722 27.4569 119.904 29.1929C123.159 30.9289 125.655 33.2074 127.391 36.0284V27.4569H145.944V87.9999H127.391V79.4284C125.583 82.2494 123.051 84.5279 119.796 86.2639C116.613 87.9999 112.997 87.9999 108.729 87.9999C103.81 87.9999 99.2171 87.602 95.1665 85.0704C91.1158 82.4664 87.897 78.8135 85.51 74.1119C83.1953 69.3379 82.038 63.8405 82.038 57.6199C82.038 53.9876 82.7108 51.1141 83.5 47.9998C83.6452 48.0911 86.8418 49.8221 89 51C92.2053 52.7494 93.7903 53.753 96.5 56C98.0479 57.2836 99.5248 58.6144 100.261 59.5168C100.587 59.9167 101.138 60.8029 101.138 60.8029C101.601 63.9726 102.793 66.6006 104.714 68.6869C107.318 71.3632 110.465 72.7014 114.154 72.7014C117.843 72.7014 120.953 71.3632 123.485 68.6869C125.433 66.6844 126.653 64.1353 127.143 61.0395C127.308 59.9977 127.391 58.894 127.391 57.7284C127.391 53.099 126.089 49.4462 123.485 46.7699C120.953 44.0935 117.843 42.7554 114.154 42.7554C110.465 42.7554 107.318 44.0935 104.714 46.7699C104.661 46.8247 104.608 46.88 104.556 46.9358C103.123 45.8454 99.0705 43.2364 95.1665 40.9998C92.5452 39.498 88.5852 37.1955 88.1087 36.9853C90.0833 34.2926 92.4359 32.093 95.1665 30.3864Z" fill="white"/>
<path fill-rule="evenodd" clip-rule="evenodd" d="M307.038 47.4998C311.763 46.8865 317.967 46.1871 323.024 46.0125C321.174 48.2217 320.249 51.2285 320.249 55.0329V63V87.9084H301.695V48.4407C303.422 48.0625 305.206 47.7376 307.038 47.4998ZM320.249 30.9215V27.3654H301.695V35.1623L302.538 34.9998C305.564 34.4157 309.766 33.4137 314.575 32.2671C316.39 31.8343 318.291 31.3808 320.249 30.9215ZM279.538 87.9998V54.9893C282.463 54.0401 285.159 53.2129 287.538 52.4998C288.555 52.195 289.624 51.8583 290.742 51.5064L290.745 51.5054L290.747 51.505L290.753 51.503L290.756 51.5021C291.279 51.3374 291.813 51.1694 292.357 50.9998H298.538V87.9998H279.538ZM255.376 87.9083L265.263 60.0449L264.888 60.1868L264.879 60.1901L264.872 60.1925L264.869 60.1938L264.868 60.1943C261.417 61.497 258.661 62.5374 254.538 63.9998C251.574 65.051 247.537 66.4172 244.979 67.2763L243.984 70.5483L243.173 67.881L238.504 52.523L230.855 27.3653H211L232.483 87.9083H255.376ZM250.732 48.3514C256.424 46.4474 262.794 44.376 267.538 42.9998C268.978 42.582 270.373 42.1886 271.732 41.8161L276.859 27.3653H257.112L250.732 48.3514ZM278.473 40.0598C285.919 38.2223 292.533 36.9294 299.93 35.5026C299.614 33.3065 298.602 31.4452 296.895 29.9187C294.872 27.9728 292.271 26.9998 289.092 26.9998C285.841 26.9998 283.168 27.9728 281.073 29.9187C279.05 31.7926 278.038 34.171 278.038 37.0539C278.038 38.1178 278.183 39.1198 278.473 40.0598Z" fill="white"/>
<path fill-rule="evenodd" clip-rule="evenodd" d="M361.913 52.5374V87.9084H343.468V63C343.468 57.5 340.995 52 332.5 52C323.019 52 320.249 58 320.249 63V55.0329C320.249 51.2285 321.174 48.2217 323.024 46.0125C327.114 45.8712 330.454 46.0731 331.657 46.941C332.002 47.1896 332.215 47.3831 332.418 47.5758C332.447 47.6032 332.476 47.631 332.505 47.6586C332.811 47.9502 333.133 48.2579 333.888 48.7679C335.435 49.8137 336.11 50.1459 337.799 50.6919C339.669 51.2966 341.455 51.5684 343.162 51.5078C343.669 51.4897 344.169 51.4423 344.662 51.3656C345.721 51.2006 346.275 50.9854 346.909 50.4914C347.97 49.6658 348.3 48.087 347.667 46.865C347.423 46.3925 346.32 45.4913 345.617 45.1897C345.174 44.9996 344.001 44.6732 341.737 44.1096C340.539 43.8114 339.898 43.5013 339.962 43.2506C340.024 43.0074 340.441 42.682 341.47 42.492C343.43 42.1302 345.776 42.5442 348.257 42.982L348.258 42.9822C348.949 43.1042 349.651 43.2281 350.358 43.3376C350.56 43.3688 350.762 43.4018 350.963 43.4348C352.559 43.6958 354.151 43.956 355.616 43.3219C357.685 42.4262 358.283 40.556 358.242 39.4472C358.218 38.7961 357.869 37.636 356.756 36.8731C356.238 36.518 354.876 36.1354 354.876 36.1354C354.951 36.1276 355.097 36.0387 355.275 35.8806C355.275 35.8806 356.379 36.1442 357 36.5C357.741 36.9244 357.776 37.0538 358.629 37.958C361.5 41.5 361.913 46.7872 361.913 52.5374Z" fill="white"/>
<path fill-rule="evenodd" clip-rule="evenodd" d="M366.073 44.1889C368.168 46.0628 370.841 46.9998 374.092 46.9998C377.271 46.9998 379.872 46.0628 381.895 44.1889C383.99 42.243 385.038 39.8646 385.038 37.0538C385.038 34.4297 384.17 32.2236 382.434 30.4355L381.84 30.8173L374.432 35.5753L369.03 35.5365C367.242 35.5237 365.05 35.5074 363.144 35.4929C363.073 35.9957 363.038 36.5159 363.038 37.0538C363.038 39.8646 364.05 42.243 366.073 44.1889Z" fill="white"/>
<path d="M354.876 30.4361C357.516 28.7401 361.39 26.1906 364.39 24.2525C367.389 22.3144 369.986 20.6995 370.16 20.6638C370.334 20.6283 375.906 20.6394 382.542 20.6888C391.425 20.7549 394.691 20.8199 394.92 20.9352C395.33 21.1409 395.461 21.596 395.231 22.0155C395.075 22.3013 393.797 23.1824 391.291 24.7331L390.984 24.9235L394.443 36.8694L394.8 36.9186C394.997 36.9456 395.229 37.0549 395.315 37.1614C395.479 37.3626 397.709 41.98 397.808 42.3251C397.84 42.4329 397.779 42.6793 397.673 42.8726L397.48 43.2241L393.623 44.3411L393.272 44.1469C393.079 44.04 392.896 43.8653 392.865 43.7587C392.718 43.2492 392.181 38.1651 392.25 37.9255C392.293 37.7752 392.435 37.5898 392.566 37.5134L392.803 37.3746L391.14 31.6305C389.821 27.0779 389.453 25.9043 389.362 25.9728C389.302 26.018 386.238 27.9916 382.434 30.4355M381.84 30.8173L374.432 35.5753L369.03 35.5365C367.242 35.5237 365.05 35.5074 363.144 35.4929M381.84 30.8173L382.434 30.4355M381.84 30.8173C382.04 30.6889 382.238 30.5616 382.434 30.4355M63.9886 63.1343C62.8085 63.8361 61.5741 64.4844 60.3019 65.0304C61.0615 65.3726 62.7289 67.3504 61.4179 69.1534C60.7745 69.8997 60.5433 69.9588 59.8591 70.2542C53.5 73 42.5 71.5 37 70C26.2713 67.074 15 58.6704 12 56.6371L1 74.088C4.15733 76.9893 7.912 79.5067 12.264 81.64C16.616 83.688 21.3947 85.2667 26.6 86.376C31.8907 87.4853 37.3093 88.04 42.856 88.04C49.8533 88.04 56.1253 86.9733 61.672 84.84C67.2187 82.7067 71.5707 79.5067 74.728 75.24C77.9707 70.9733 79.592 65.64 79.592 59.24C79.592 52.6693 77.5013 47.5067 73.32 43.752C71.5871 42.1605 69.1186 40.4847 67 39.4613M63.9886 63.1343L63.9983 63.1286M63.9886 63.1343C63.9916 63.1326 63.9948 63.1307 63.9983 63.1286M17.8814 24.5164C19.0615 23.8147 20.2959 23.1663 21.5681 22.6204C20.8085 22.2781 19.1411 20.3003 20.4521 18.4974C21.0955 17.7511 21.5837 17.5798 22.0109 17.3965C29.5 14.184 37.183 15.2387 46.5 17.3965C55.0392 19.3742 59.7083 21.4304 67.5 25.4998C69.282 26.4304 72 27.9998 72 27.9998M17.8814 24.5164C17.8784 24.5182 17.8752 24.5201 17.8717 24.5222M17.8814 24.5164L17.8717 24.5222M17.8717 24.5222C17.6385 24.6603 16.141 25.5474 16.5197 27.184C16.9212 29.3767 19.1366 30.2298 19.4553 30.1384C19.4553 30.1384 18.3455 30.9945 18.0009 31.5128C17.2606 32.6263 17.3695 33.8217 17.5886 34.429C17.9617 35.4632 19.2038 36.9604 21.4375 37.0169C23.0188 37.0569 24.3848 36.2282 25.7549 35.397C25.928 35.292 26.1012 35.1869 26.2749 35.0836C26.8845 34.7209 27.484 34.3467 28.0746 33.9782C28.2069 33.8956 28.3388 33.8133 28.4703 33.7315C30.442 32.504 32.3152 31.3828 34.1299 31.0137C35.146 30.807 35.65 30.9514 35.7969 31.1521C35.9483 31.3589 35.4744 31.8812 34.4836 32.5992C32.6119 33.9558 31.6552 34.6902 31.3185 35.0291C30.7843 35.5667 30.1044 36.8035 30.0545 37.3284C29.9255 38.6859 30.8138 40.0145 32.0947 40.3802C32.8611 40.599 33.4492 40.5918 34.4839 40.3509C36.5856 39.8616 38.6027 38.8089 40.5417 37.1891C41.8914 36.0617 42.3888 35.5063 43.4229 33.9722C43.6783 33.5933 43.8689 33.3074 44.02 33.0687C44.0953 32.9498 44.1607 32.8426 44.2194 32.7414L54.248 35.048C59.2448 36.1973 62.3618 37.276 67 39.4613M63.9983 63.1286C64.2315 62.9905 65.729 62.1034 65.3503 60.4667C64.9488 58.274 62.7334 57.4209 62.4147 57.5124C62.4147 57.5124 63.5245 56.6563 63.8691 56.1379C64.6093 55.0245 64.5005 53.829 64.2814 53.2217C63.9083 52.1876 62.6662 50.6903 60.4325 50.6339C58.8512 50.5939 57.4852 51.4225 56.1151 52.2537C55.942 52.3587 55.7688 52.4638 55.5951 52.5672C54.9855 52.9299 54.386 53.304 53.7954 53.6726C51.678 54.9939 49.6757 56.2434 47.7401 56.6371C46.724 56.8437 46.22 56.6993 46.0731 56.4987C45.9216 56.2919 46.3956 55.7695 47.3864 55.0515C49.2581 53.6949 50.2148 52.9605 50.5515 52.6217C51.0857 52.0841 51.7656 50.8473 51.8155 50.3224C51.9445 48.9649 51.0562 47.6363 49.7753 47.2706C49.0089 47.0518 48.4208 47.059 47.3861 47.2998C45.2844 47.7892 43.2673 48.8419 41.3283 50.4616C39.9786 51.589 39.4812 52.1444 38.4471 53.6785C37.9567 54.4062 37.7049 54.7908 37.5136 55.1575L30.696 53.608C26.088 52.584 21.8213 51.176 17.896 49.384C13.9707 47.592 10.8133 45.1173 8.424 41.96C6.12 38.7173 4.968 34.4933 4.968 29.288C4.968 23.7413 6.46133 18.8347 9.448 14.568C12.4347 10.3013 16.7867 6.97333 22.504 4.584C28.2213 2.19467 35.0907 1 43.112 1C51.1333 1 58.2587 2.10933 64.488 4.328C70.7173 6.46133 76.1787 9.74667 80.872 14.184L72 27.9998M83.5 47.9998C83.6452 48.0911 86.8418 49.8221 89 51C92.2053 52.7494 93.7903 53.753 96.5 56C98.0479 57.2836 99.5248 58.6144 100.261 59.5168C100.587 59.9167 101.138 60.8029 101.138 60.8029M83.5 47.9998C82.7108 51.1141 82.038 53.9876 82.038 57.6199C82.038 63.8405 83.1953 69.3379 85.51 74.1119C87.897 78.8135 91.1158 82.4664 95.1665 85.0704C99.2171 87.602 103.81 87.9999 108.729 87.9999C112.997 87.9999 116.613 87.9999 119.796 86.2639C123.051 84.5279 125.583 82.2494 127.391 79.4284V87.9999H145.944V27.4569H127.391V36.0284C125.655 33.2074 123.159 30.9289 119.904 29.1929C116.722 27.4569 112.997 26.5889 108.729 26.5889C103.738 26.5889 99.2171 27.8547 95.1665 30.3864C92.4359 32.093 90.0833 34.2926 88.1087 36.9853M83.5 47.9998C83.5 47.9998 74.5 42.4998 67 39.4613M101.138 60.8029C101.601 63.9726 102.793 66.6006 104.714 68.6869C107.318 71.3632 110.465 72.7014 114.154 72.7014C117.843 72.7014 120.953 71.3632 123.485 68.6869C125.433 66.6844 126.653 64.1353 127.143 61.0395C127.308 59.9977 127.391 58.894 127.391 57.7284C127.391 53.099 126.089 49.4462 123.485 46.7699C120.953 44.0935 117.843 42.7554 114.154 42.7554C110.465 42.7554 107.318 44.0935 104.714 46.7699C104.661 46.8247 104.608 46.88 104.556 46.9358C103.123 45.8454 99.0705 43.2364 95.1665 40.9998C92.5451 39.498 88.5852 37.1955 88.1087 36.9853M101.138 60.8029C101.153 60.8276 101.122 60.778 101.138 60.8029ZM88.1087 36.9853L72 27.9998M338.585 26.7144C338.741 26.7144 338.897 26.7155 339.052 26.7178M343.468 87.9084H361.913V52.5374C361.913 46.7872 361.5 41.5 358.629 37.958C357.776 37.0538 357.741 36.9244 357 36.5C356.379 36.1442 355.275 35.8806 355.275 35.8806M343.468 87.9084C343.468 87.9084 343.468 72.7273 343.468 63M343.468 87.9084V63M320.249 55.0329C320.249 51.2285 321.174 48.2217 323.024 46.0125M320.249 55.0329C320.249 55.0329 320.249 59.8887 320.249 63M320.249 55.0329V63M320.249 87.9084H301.695V48.4407M320.249 87.9084C320.249 87.9084 320.249 72.7273 320.249 63M320.249 87.9084V63M327.844 29.1014C327.734 29.1537 327.625 29.2066 327.517 29.2602M347.602 25.1739L347.675 25.173M347.602 25.1739C347.627 25.1736 347.651 25.1733 347.675 25.173M347.602 25.1739C346.058 25.1925 342.796 25.8787 339.052 26.7178M354.227 30.2792L354.239 30.2809M354.227 30.2792C354.231 30.2797 354.235 30.2803 354.239 30.2809M354.227 30.2792C353.183 30.1178 352.121 29.9975 351.056 29.9357C350.816 29.7881 350.574 29.6456 350.328 29.5082C350.826 28.5756 351.172 26.6297 349.55 25.6152C348.666 25.1594 348.212 25.1656 347.675 25.173M302.538 34.9998C305.564 34.4157 309.766 33.4137 314.575 32.2671C316.39 31.8343 318.291 31.3808 320.249 30.9215M302.538 34.9998L301.695 35.1623M302.538 34.9998C302.256 35.0542 301.975 35.1084 301.695 35.1623M354.239 30.2809C354.509 30.3222 356.246 30.5874 356.509 32.2623C356.683 33.1116 356.529 33.8764 356.256 34.4976C356.095 34.8639 355.893 35.1803 355.691 35.4347M292.357 50.9998H298.538V87.9998H279.538V54.9893M292.357 50.9998C295.211 50.1096 298.345 49.1746 301.695 48.4407M292.357 50.9998C291.813 51.1694 291.279 51.3374 290.756 51.5021L290.753 51.503L290.747 51.505L290.745 51.5054L290.742 51.5064C289.624 51.8583 288.555 52.195 287.538 52.4998C285.159 53.2129 282.463 54.0401 279.538 54.9893M279.538 54.9893C275.988 56.1414 272.102 57.4734 268.038 58.9998C267.045 59.3727 266.131 59.7176 265.263 60.0449M264.879 60.1901L264.872 60.1925M264.879 60.1901C264.877 60.1909 264.875 60.1917 264.872 60.1925M264.879 60.1901L264.888 60.1868M264.879 60.1901C264.882 60.189 264.885 60.1879 264.888 60.1868M264.872 60.1925L264.869 60.1938L264.868 60.1943C261.417 61.497 258.661 62.5374 254.538 63.9998C251.574 65.051 247.537 66.4172 244.979 67.2763M300.97 35.3022L299.93 35.5026M300.97 35.3022C300.622 35.3693 300.275 35.4361 299.93 35.5026M300.97 35.3022L301.695 35.1623M300.97 35.3022C301.211 35.2557 301.452 35.2091 301.695 35.1623M301.695 35.1623V27.3654H320.249V30.9215M301.695 48.4407C303.422 48.0625 305.206 47.7376 307.038 47.4998C311.763 46.8865 317.967 46.1871 323.024 46.0125M264.888 60.1868C265.012 60.1398 265.137 60.0926 265.263 60.0449M264.888 60.1868L265.263 60.0449M265.263 60.0449L255.376 87.9083H232.483L211 27.3653H230.855L238.504 52.523M271.732 41.8161C270.373 42.1886 268.978 42.582 267.538 42.9998C262.794 44.376 256.424 46.4474 250.732 48.3514M271.732 41.8161C274.075 41.1736 276.309 40.5937 278.473 40.0598M271.732 41.8161L276.859 27.3653H257.112L250.732 48.3514M278.473 40.0598C278.183 39.1198 278.038 38.1178 278.038 37.0539C278.038 34.171 279.05 31.7926 281.073 29.9187C283.168 27.9728 285.841 26.9998 289.092 26.9998C292.271 26.9998 294.872 27.9728 296.895 29.9187C298.602 31.4452 299.614 33.3065 299.93 35.5026M278.473 40.0598C285.919 38.2223 292.533 36.9294 299.93 35.5026M238.504 52.523C237.569 52.8481 237.038 53.0342 237.038 53.0342L242.518 68.0992C242.518 68.0992 242.756 68.0202 243.173 67.881M238.504 52.523L243.173 67.881M238.504 52.523L250.732 48.3514M244.979 67.2763C244.228 67.5285 243.605 67.7369 243.173 67.881M244.979 67.2763L243.984 70.5483L243.173 67.881M327.517 29.2602C328.687 29.002 329.862 28.7476 331.038 28.4998C332.959 28.0949 334.973 27.6392 336.923 27.1981C337.644 27.0349 338.356 26.8737 339.052 26.7178M327.517 29.2602C325.049 29.8054 322.608 30.3678 320.249 30.9215M323.024 46.0125C327.114 45.8712 330.454 46.0731 331.657 46.941C332.002 47.1896 332.215 47.3831 332.418 47.5758C332.447 47.6032 332.476 47.631 332.505 47.6586C332.811 47.9502 333.133 48.2579 333.888 48.7679C335.435 49.8137 336.11 50.1459 337.799 50.6919C339.669 51.2966 341.455 51.5684 343.162 51.5078C343.669 51.4897 344.169 51.4423 344.662 51.3656C345.721 51.2006 346.275 50.9854 346.909 50.4914C347.97 49.6658 348.3 48.087 347.667 46.865C347.423 46.3925 346.32 45.4913 345.617 45.1897C345.174 44.9996 344.001 44.6732 341.737 44.1096C340.539 43.8114 339.898 43.5013 339.962 43.2506C340.024 43.0074 340.441 42.682 341.47 42.492C343.43 42.1302 345.776 42.5442 348.257 42.982L348.258 42.9822C348.949 43.1042 349.651 43.2281 350.358 43.3376C350.56 43.3688 350.762 43.4018 350.963 43.4348C352.559 43.6958 354.151 43.956 355.616 43.3219C357.685 42.4262 358.283 40.556 358.242 39.4472C358.218 38.7961 357.869 37.636 356.756 36.8731C356.238 36.518 354.876 36.1354 354.876 36.1354C354.95 36.1276 355.097 36.0387 355.275 35.8806M343.468 63C343.468 57.5 340.995 52 332.5 52C323.019 52 320.249 58 320.249 63M357.008 35.4447C356.567 35.4413 356.124 35.4379 355.691 35.4347M357.008 35.4447C358.056 35.4528 359.09 35.4609 359.935 35.4678C360.744 35.4744 361.881 35.4832 363.144 35.4929M357.008 35.4447L355.691 35.4347M355.691 35.4347C355.546 35.6164 355.403 35.7665 355.275 35.8806M382.434 30.4355C384.17 32.2236 385.038 34.4297 385.038 37.0538C385.038 39.8646 383.99 42.243 381.895 44.1889C379.872 46.0628 377.271 46.9998 374.092 46.9998C370.841 46.9998 368.168 46.0628 366.073 44.1889C364.05 42.243 363.038 39.8646 363.038 37.0538C363.038 36.5159 363.073 35.9957 363.144 35.4929M383.538 50.9998H364.538V87.9998H383.538V50.9998ZM209.326 27.457V88H190.772V79.754C188.892 82.4304 186.324 84.6004 183.069 86.264C179.886 87.8554 176.406 88 172.5 88C167.871 88 163.72 87.6384 160.176 85.613C156.631 83.5154 153.883 80.5135 151.93 76.6075C149.977 72.7015 149 68.1084 149 62.828V27.457H167.445V60.3325C167.445 64.3832 168.494 67.5297 170.591 69.772C172.689 72.0144 175.51 73.1355 179.055 73.1355C182.671 73.1355 185.528 72.0144 187.626 69.772C189.724 67.5297 190.772 64.3832 190.772 60.3325V27.457H209.326Z" stroke="white" stroke-width="0.5"/>
</svg>
