<svg xmlns="http://www.w3.org/2000/svg" width="232" height="68" viewBox="0 0 232 68" fill="none">
  <path d="M105.469 57.4879L102.734 62.1317V65.1121H101.806V62.1317L99.0705 57.4879H100.172L101.656 60.0986L102.27 61.1845L102.884 60.0986L104.368 57.4879H105.469Z" fill="#27364D"/>
  <path d="M107.997 59.2207C108.545 59.2207 109.028 59.34 109.446 59.5788C109.871 59.8175 110.203 60.1641 110.442 60.6184C110.682 61.0651 110.802 61.6003 110.802 62.2241C110.802 62.8479 110.682 63.387 110.442 63.8414C110.203 64.288 109.871 64.6307 109.446 64.8695C109.028 65.1082 108.545 65.2276 107.997 65.2276C107.456 65.2276 106.973 65.1082 106.547 64.8695C106.122 64.6307 105.79 64.288 105.551 63.8414C105.311 63.387 105.191 62.8479 105.191 62.2241C105.191 61.6003 105.311 61.0651 105.551 60.6184C105.79 60.1641 106.122 59.8175 106.547 59.5788C106.973 59.34 107.456 59.2207 107.997 59.2207ZM107.997 60.0177C107.602 60.0177 107.266 60.1063 106.988 60.2834C106.71 60.4606 106.493 60.7147 106.339 61.0458C106.192 61.3693 106.119 61.7621 106.119 62.2241C106.119 62.6785 106.192 63.0713 106.339 63.4024C106.493 63.7336 106.71 63.9877 106.988 64.1648C107.266 64.3419 107.602 64.4305 107.997 64.4305C108.391 64.4305 108.727 64.3419 109.005 64.1648C109.283 63.9877 109.496 63.7336 109.643 63.4024C109.797 63.0713 109.874 62.6785 109.874 62.2241C109.874 61.7621 109.797 61.3693 109.643 61.0458C109.496 60.7147 109.283 60.4606 109.005 60.2834C108.727 60.1063 108.391 60.0177 107.997 60.0177Z" fill="#27364D"/>
  <path d="M114.414 65.2276C114.043 65.2276 113.692 65.1583 113.359 65.0196C113.035 64.881 112.768 64.6577 112.559 64.3496C112.358 64.0339 112.258 63.6257 112.258 63.1252V59.3362H113.185V62.8826C113.185 63.4679 113.313 63.8722 113.568 64.0955C113.823 64.3111 114.182 64.419 114.646 64.419C114.862 64.419 115.075 64.3843 115.284 64.315C115.492 64.238 115.678 64.1225 115.84 63.9684C116.01 63.8067 116.141 63.6026 116.234 63.3562C116.335 63.1098 116.385 62.8171 116.385 62.4783V59.3362H117.312V65.1121H116.501L116.443 64.2341C116.242 64.5807 115.967 64.8348 115.62 64.9965C115.28 65.1506 114.878 65.2276 114.414 65.2276Z" fill="#27364D"/>
  <path d="M119.239 65.1121V59.3362H119.992L120.12 60.2834C120.282 59.9292 120.518 59.6635 120.827 59.4864C121.144 59.3092 121.526 59.2207 121.974 59.2207C122.075 59.2207 122.183 59.2284 122.299 59.2438C122.423 59.2592 122.527 59.29 122.612 59.3362L122.45 60.1795C122.365 60.1487 122.272 60.1256 122.171 60.1102C122.071 60.0948 121.928 60.0871 121.743 60.0871C121.503 60.0871 121.26 60.1564 121.012 60.295C120.773 60.4336 120.572 60.6454 120.409 60.9303C120.247 61.2076 120.166 61.5618 120.166 61.9931V65.1121H119.239Z" fill="#27364D"/>
  <path d="M129.324 56.6215C129.525 56.6215 129.715 56.6446 129.892 56.6908C130.07 56.737 130.209 56.8025 130.31 56.8872L130.066 57.6381C129.973 57.5765 129.873 57.5341 129.765 57.511C129.657 57.4802 129.537 57.4648 129.405 57.4648C129.073 57.4648 128.814 57.5457 128.629 57.7074C128.443 57.8614 128.351 58.1117 128.351 58.4583V65.1121H127.423V58.3658C127.423 58.1117 127.462 57.8768 127.539 57.6612C127.616 57.4456 127.732 57.2607 127.887 57.1067C128.049 56.9527 128.25 56.8333 128.49 56.7486C128.729 56.6639 129.007 56.6215 129.324 56.6215ZM130.286 59.3362V60.1333H126.264V59.3362H130.286Z" fill="#27364D"/>
  <path d="M133.388 65.2276C133.017 65.2276 132.666 65.1583 132.333 65.0196C132.009 64.881 131.742 64.6577 131.534 64.3496C131.333 64.0339 131.232 63.6257 131.232 63.1252V59.3362H132.159V62.8826C132.159 63.4679 132.287 63.8722 132.542 64.0955C132.797 64.3111 133.156 64.419 133.62 64.419C133.837 64.419 134.049 64.3843 134.258 64.315C134.466 64.238 134.652 64.1225 134.814 63.9684C134.984 63.8067 135.116 63.6026 135.208 63.3562C135.309 63.1098 135.359 62.8171 135.359 62.4783V59.3362H136.286V65.1121H135.475L135.417 64.2341C135.216 64.5807 134.942 64.8348 134.594 64.9965C134.254 65.1506 133.852 65.2276 133.388 65.2276Z" fill="#27364D"/>
  <path d="M139.581 57.6958V63.5179C139.581 63.8029 139.662 64.0146 139.824 64.1533C139.986 64.2919 140.195 64.3612 140.45 64.3612C140.674 64.3612 140.867 64.3227 141.03 64.2457C141.192 64.1687 141.339 64.0647 141.47 63.9338L141.795 64.7078C141.617 64.8695 141.405 64.9965 141.157 65.089C140.918 65.1814 140.639 65.2276 140.323 65.2276C140.029 65.2276 139.755 65.1775 139.5 65.0774C139.245 64.9696 139.04 64.804 138.885 64.5807C138.738 64.3496 138.661 64.0493 138.653 63.6796V57.95L139.581 57.6958ZM141.69 59.3362V60.1333H137.494V59.3362H141.69Z" fill="#27364D"/>
  <path d="M144.936 65.2276C144.565 65.2276 144.213 65.1583 143.881 65.0196C143.556 64.881 143.29 64.6577 143.081 64.3496C142.88 64.0339 142.78 63.6257 142.78 63.1252V59.3362H143.707V62.8826C143.707 63.4679 143.834 63.8722 144.089 64.0955C144.344 64.3111 144.704 64.419 145.168 64.419C145.384 64.419 145.596 64.3843 145.805 64.315C146.014 64.238 146.199 64.1225 146.362 63.9684C146.532 63.8067 146.663 63.6026 146.756 63.3562C146.856 63.1098 146.906 62.8171 146.906 62.4783V59.3362H147.834V65.1121H147.022L146.964 64.2341C146.763 64.5807 146.489 64.8348 146.141 64.9965C145.801 65.1506 145.399 65.2276 144.936 65.2276Z" fill="#27364D"/>
  <path d="M149.76 65.1121V59.3362H150.514L150.641 60.2834C150.804 59.9292 151.039 59.6635 151.348 59.4864C151.665 59.3092 152.048 59.2207 152.496 59.2207C152.596 59.2207 152.705 59.2284 152.821 59.2438C152.944 59.2592 153.049 59.29 153.134 59.3362L152.971 60.1795C152.886 60.1487 152.794 60.1256 152.693 60.1102C152.593 60.0948 152.45 60.0871 152.264 60.0871C152.025 60.0871 151.781 60.1564 151.534 60.295C151.294 60.4336 151.093 60.6454 150.931 60.9303C150.769 61.2076 150.688 61.5618 150.688 61.9931V65.1121H149.76Z" fill="#27364D"/>
  <path d="M156.502 65.2276C155.953 65.2276 155.463 65.1082 155.03 64.8695C154.605 64.6307 154.272 64.288 154.033 63.8414C153.793 63.387 153.674 62.8479 153.674 62.2241C153.674 61.6003 153.793 61.0651 154.033 60.6184C154.272 60.1641 154.601 59.8175 155.018 59.5788C155.436 59.34 155.911 59.2207 156.444 59.2207C156.985 59.2207 157.445 59.3362 157.824 59.5672C158.21 59.7983 158.504 60.114 158.705 60.5145C158.906 60.9072 159.006 61.35 159.006 61.8429C159.006 61.9738 159.002 62.0932 158.994 62.201C158.987 62.3088 158.975 62.4051 158.96 62.4898H154.276V61.6696H158.554L158.079 61.7621C158.079 61.2076 157.924 60.7802 157.615 60.4798C157.314 60.1795 156.916 60.0293 156.421 60.0293C156.042 60.0293 155.714 60.1179 155.436 60.295C155.165 60.4644 154.953 60.7147 154.798 61.0458C154.651 61.3693 154.578 61.7621 154.578 62.2241C154.578 62.6785 154.655 63.0713 154.81 63.4024C154.964 63.7336 155.181 63.9877 155.459 64.1648C155.745 64.3342 156.085 64.419 156.479 64.419C156.904 64.419 157.248 64.3381 157.511 64.1764C157.781 64.0146 157.997 63.7952 158.16 63.5179L158.89 63.9453C158.743 64.2072 158.554 64.4344 158.322 64.6269C158.098 64.8194 157.831 64.9696 157.522 65.0774C157.221 65.1775 156.881 65.2276 156.502 65.2276Z" fill="#27364D"/>
  <path d="M166.344 65.2276C165.779 65.2276 165.258 65.1082 164.779 64.8695C164.307 64.6307 163.944 64.2919 163.689 63.8529L164.477 63.2869C164.647 63.6411 164.894 63.9184 165.219 64.1186C165.551 64.3188 165.949 64.419 166.413 64.419C166.823 64.419 167.143 64.3419 167.375 64.1879C167.607 64.0262 167.723 63.8183 167.723 63.5641C167.723 63.4024 167.669 63.2561 167.561 63.1252C167.46 62.9865 167.263 62.8864 166.969 62.8248L165.578 62.536C165.014 62.4205 164.609 62.228 164.361 61.9584C164.122 61.6889 164.002 61.3539 164.002 60.9534C164.002 60.6377 164.091 60.3489 164.268 60.0871C164.454 59.8252 164.713 59.6173 165.045 59.4633C165.385 59.3015 165.783 59.2207 166.239 59.2207C166.811 59.2207 167.294 59.3323 167.688 59.5557C168.082 59.779 168.376 60.0948 168.569 60.5029L167.793 61.0112C167.661 60.6723 167.449 60.4259 167.155 60.2719C166.861 60.1102 166.556 60.0293 166.239 60.0293C165.961 60.0293 165.721 60.0678 165.52 60.1448C165.327 60.2218 165.177 60.3296 165.068 60.4683C164.968 60.5992 164.918 60.7494 164.918 60.9188C164.918 61.0882 164.976 61.2461 165.092 61.3924C165.207 61.531 165.424 61.6311 165.741 61.6927L167.19 61.9931C167.731 62.1009 168.109 62.278 168.326 62.5245C168.542 62.7709 168.65 63.0713 168.65 63.4255C168.65 63.7875 168.554 64.1071 168.361 64.3843C168.167 64.6538 167.897 64.8618 167.549 65.0081C167.201 65.1544 166.799 65.2276 166.344 65.2276Z" fill="#27364D"/>
  <path d="M171.506 57.6958V63.5179C171.506 63.8029 171.587 64.0146 171.749 64.1533C171.912 64.2919 172.12 64.3612 172.375 64.3612C172.6 64.3612 172.793 64.3227 172.955 64.2457C173.117 64.1687 173.264 64.0647 173.396 63.9338L173.72 64.7078C173.542 64.8695 173.33 64.9965 173.083 65.089C172.843 65.1814 172.565 65.2276 172.248 65.2276C171.954 65.2276 171.68 65.1775 171.425 65.0774C171.17 64.9696 170.965 64.804 170.811 64.5807C170.664 64.3496 170.586 64.0493 170.579 63.6796V57.95L171.506 57.6958ZM173.616 59.3362V60.1333H169.419V59.3362H173.616Z" fill="#27364D"/>
  <path d="M178.148 61.3808C178.148 60.9496 178.032 60.6184 177.8 60.3874C177.568 60.1487 177.24 60.0293 176.815 60.0293C176.413 60.0293 176.073 60.1179 175.795 60.295C175.516 60.4644 175.312 60.7416 175.18 61.1267L174.427 60.6646C174.581 60.2334 174.867 59.8868 175.285 59.625C175.702 59.3554 176.22 59.2207 176.838 59.2207C177.255 59.2207 177.634 59.2938 177.974 59.4402C178.314 59.5788 178.581 59.7944 178.774 60.0871C178.975 60.372 179.075 60.7417 179.075 61.196V63.9915C179.075 64.2688 179.222 64.4074 179.516 64.4074C179.662 64.4074 179.805 64.3882 179.945 64.3496L179.898 65.0774C179.744 65.1544 179.543 65.1929 179.295 65.1929C179.071 65.1929 178.87 65.1506 178.693 65.0659C178.515 64.9811 178.376 64.8541 178.275 64.6847C178.175 64.5075 178.125 64.288 178.125 64.0262V63.9107L178.356 63.9453C178.264 64.2457 178.105 64.4921 177.881 64.6847C177.657 64.8695 177.406 65.0081 177.128 65.1005C176.849 65.1852 176.575 65.2276 176.305 65.2276C175.965 65.2276 175.648 65.1698 175.354 65.0543C175.06 64.9388 174.825 64.7655 174.647 64.5345C174.477 64.2957 174.392 64.0031 174.392 63.6565C174.392 63.2253 174.535 62.871 174.821 62.5938C175.114 62.3088 175.52 62.1163 176.038 62.0162L178.333 61.5657V62.3281L176.467 62.7093C176.088 62.7863 175.806 62.8941 175.621 63.0327C175.435 63.1714 175.342 63.3639 175.342 63.6103C175.342 63.8491 175.435 64.0455 175.621 64.1995C175.814 64.3458 176.084 64.419 176.432 64.419C176.656 64.419 176.869 64.392 177.07 64.3381C177.278 64.2765 177.464 64.1879 177.626 64.0724C177.788 63.9492 177.916 63.799 178.009 63.6219C178.101 63.4371 178.148 63.2214 178.148 62.975V61.3808Z" fill="#27364D"/>
  <path d="M181.097 65.1121V59.3362H181.85L181.978 60.2834C182.14 59.9292 182.376 59.6635 182.685 59.4864C183.002 59.3092 183.384 59.2207 183.833 59.2207C183.933 59.2207 184.041 59.2284 184.157 59.2438C184.281 59.2592 184.385 59.29 184.47 59.3362L184.308 60.1795C184.223 60.1487 184.13 60.1256 184.03 60.1102C183.929 60.0948 183.786 60.0871 183.601 60.0871C183.361 60.0871 183.118 60.1564 182.871 60.295C182.631 60.4336 182.43 60.6454 182.268 60.9303C182.105 61.2076 182.024 61.5618 182.024 61.9931V65.1121H181.097Z" fill="#27364D"/>
  <path d="M186.614 57.6958V63.5179C186.614 63.8029 186.695 64.0146 186.857 64.1533C187.02 64.2919 187.228 64.3612 187.483 64.3612C187.708 64.3612 187.901 64.3227 188.063 64.2457C188.225 64.1687 188.372 64.0647 188.504 63.9338L188.828 64.7078C188.65 64.8695 188.438 64.9965 188.191 65.089C187.951 65.1814 187.673 65.2276 187.356 65.2276C187.062 65.2276 186.788 65.1775 186.533 65.0774C186.278 64.9696 186.073 64.804 185.918 64.5807C185.772 64.3496 185.694 64.0493 185.687 63.6796V57.95L186.614 57.6958ZM188.724 59.3362V60.1333H184.527V59.3362H188.724Z" fill="#27364D"/>
  <path d="M191.957 65.2276C191.393 65.2276 190.872 65.1082 190.392 64.8695C189.921 64.6307 189.558 64.2919 189.303 63.8529L190.091 63.2869C190.261 63.6411 190.508 63.9184 190.833 64.1186C191.165 64.3188 191.563 64.419 192.027 64.419C192.437 64.419 192.757 64.3419 192.989 64.1879C193.221 64.0262 193.337 63.8183 193.337 63.5641C193.337 63.4024 193.283 63.2561 193.175 63.1252C193.074 62.9865 192.877 62.8864 192.583 62.8248L191.192 62.536C190.628 62.4205 190.222 62.228 189.975 61.9584C189.736 61.6889 189.616 61.3539 189.616 60.9534C189.616 60.6377 189.705 60.3489 189.882 60.0871C190.068 59.8252 190.327 59.6173 190.659 59.4633C190.999 59.3015 191.397 59.2207 191.853 59.2207C192.425 59.2207 192.908 59.3323 193.302 59.5557C193.696 59.779 193.99 60.0948 194.183 60.5029L193.406 61.0112C193.275 60.6723 193.063 60.4259 192.769 60.2719C192.475 60.1102 192.17 60.0293 191.853 60.0293C191.575 60.0293 191.335 60.0678 191.134 60.1448C190.941 60.2218 190.79 60.3296 190.682 60.4683C190.582 60.5992 190.532 60.7494 190.532 60.9188C190.532 61.0882 190.59 61.2461 190.705 61.3924C190.821 61.531 191.038 61.6311 191.355 61.6927L192.804 61.9931C193.345 62.1009 193.723 62.278 193.94 62.5245C194.156 62.7709 194.264 63.0713 194.264 63.4255C194.264 63.7875 194.168 64.1071 193.974 64.3843C193.781 64.6538 193.511 64.8618 193.163 65.0081C192.815 65.1544 192.413 65.2276 191.957 65.2276Z" fill="#27364D"/>
  <path d="M199.471 65.1121V56.6793H200.398V60.2026C200.599 59.856 200.866 59.6057 201.198 59.4517C201.531 59.2977 201.894 59.2207 202.288 59.2207C202.705 59.2207 203.084 59.3015 203.424 59.4633C203.764 59.6173 204.035 59.856 204.236 60.1795C204.444 60.5029 204.549 60.9149 204.549 61.4155V65.1121H203.621V61.7389C203.621 61.0998 203.482 60.6569 203.204 60.4105C202.933 60.1564 202.597 60.0293 202.195 60.0293C201.917 60.0293 201.639 60.0948 201.361 60.2257C201.082 60.3566 200.851 60.5722 200.665 60.8726C200.487 61.1652 200.398 61.558 200.398 62.0508V65.1121H199.471Z" fill="#27364D"/>
  <path d="M208.839 65.2276C208.291 65.2276 207.8 65.1082 207.367 64.8695C206.942 64.6307 206.61 64.288 206.37 63.8414C206.131 63.387 206.011 62.8479 206.011 62.2241C206.011 61.6003 206.131 61.0651 206.37 60.6184C206.61 60.1641 206.938 59.8175 207.355 59.5788C207.773 59.34 208.248 59.2207 208.781 59.2207C209.322 59.2207 209.782 59.3362 210.161 59.5672C210.547 59.7983 210.841 60.114 211.042 60.5145C211.243 60.9072 211.343 61.35 211.343 61.8429C211.343 61.9738 211.339 62.0932 211.332 62.201C211.324 62.3088 211.312 62.4051 211.297 62.4898H206.614V61.6696H210.891L210.416 61.7621C210.416 61.2076 210.261 60.7802 209.952 60.4798C209.651 60.1795 209.253 60.0293 208.758 60.0293C208.379 60.0293 208.051 60.1179 207.773 60.295C207.502 60.4644 207.29 60.7147 207.135 61.0458C206.988 61.3693 206.915 61.7621 206.915 62.2241C206.915 62.6785 206.992 63.0713 207.147 63.4024C207.301 63.7336 207.518 63.9877 207.796 64.1648C208.082 64.3342 208.422 64.419 208.816 64.419C209.241 64.419 209.585 64.3381 209.848 64.1764C210.118 64.0146 210.335 63.7952 210.497 63.5179L211.227 63.9453C211.08 64.2072 210.891 64.4344 210.659 64.6269C210.435 64.8194 210.169 64.9696 209.859 65.0774C209.558 65.1775 209.218 65.2276 208.839 65.2276Z" fill="#27364D"/>
  <path d="M212.875 65.1121V59.3362H213.629L213.756 60.2834C213.918 59.9292 214.154 59.6635 214.463 59.4864C214.78 59.3092 215.163 59.2207 215.611 59.2207C215.711 59.2207 215.82 59.2284 215.935 59.2438C216.059 59.2592 216.163 59.29 216.248 59.3362L216.086 60.1795C216.001 60.1487 215.908 60.1256 215.808 60.1102C215.707 60.0948 215.564 60.0871 215.379 60.0871C215.139 60.0871 214.896 60.1564 214.649 60.295C214.409 60.4336 214.208 60.6454 214.046 60.9303C213.884 61.2076 213.802 61.5618 213.802 61.9931V65.1121H212.875Z" fill="#27364D"/>
  <path d="M219.617 65.2276C219.068 65.2276 218.577 65.1082 218.145 64.8695C217.72 64.6307 217.387 64.288 217.148 63.8414C216.908 63.387 216.788 62.8479 216.788 62.2241C216.788 61.6003 216.908 61.0651 217.148 60.6184C217.387 60.1641 217.716 59.8175 218.133 59.5788C218.55 59.34 219.026 59.2207 219.559 59.2207C220.1 59.2207 220.56 59.3362 220.938 59.5672C221.325 59.7983 221.618 60.114 221.819 60.5145C222.02 60.9072 222.121 61.35 222.121 61.8429C222.121 61.9738 222.117 62.0932 222.109 62.201C222.102 62.3088 222.09 62.4051 222.074 62.4898H217.391V61.6696H221.669L221.193 61.7621C221.193 61.2076 221.039 60.7802 220.73 60.4798C220.428 60.1795 220.03 60.0293 219.536 60.0293C219.157 60.0293 218.829 60.1179 218.55 60.295C218.28 60.4644 218.067 60.7147 217.913 61.0458C217.766 61.3693 217.693 61.7621 217.693 62.2241C217.693 62.6785 217.77 63.0713 217.924 63.4024C218.079 63.7336 218.295 63.9877 218.574 64.1648C218.86 64.3342 219.2 64.419 219.594 64.419C220.019 64.419 220.363 64.3381 220.625 64.1764C220.896 64.0146 221.112 63.7952 221.275 63.5179L222.005 63.9453C221.858 64.2072 221.669 64.4344 221.437 64.6269C221.213 64.8194 220.946 64.9696 220.637 65.0774C220.336 65.1775 219.996 65.2276 219.617 65.2276Z" fill="#27364D"/>
  <path d="M222.724 29.8792V51.25H211.711V29.8792H222.724Z" fill="#27364D"/>
  <path d="M121.748 16.2812V51.2501H110.995V46.4873C109.905 48.0332 108.416 49.2865 106.53 50.2474C104.685 51.1666 102.668 51.2501 100.404 51.2501C97.7204 51.2501 95.3145 51.0412 93.2602 49.8714C91.2058 48.6598 89.6127 46.926 88.4807 44.67C87.3487 42.4139 86.7827 39.7609 86.7827 36.7111V16.2812H97.4737V35.2697C97.4737 37.6093 98.0816 39.4267 99.2974 40.7219C100.513 42.017 102.148 42.6646 104.203 42.6646C106.299 42.6646 107.955 42.017 109.171 40.7219C110.387 39.4267 110.995 37.6093 110.995 35.2697V16.2812H121.748Z" fill="#27364D"/>
  <path d="M25.4087 1C30.0579 1 34.1879 1.64074 37.7985 2.92221C41.4091 4.1544 44.5745 6.05196 47.2948 8.61491L42.1525 16.5947C42.1525 16.5947 40.5771 15.6883 39.5443 15.1508C35.0281 12.8004 32.3218 11.6127 27.3724 10.4704C21.9722 9.2241 17.519 8.61491 13.1782 10.4704C12.9306 10.5763 12.6476 10.6752 12.2747 11.1063C11.5148 12.1476 12.4813 13.29 12.9216 13.4877C12.1842 13.803 11.4687 14.1775 10.7847 14.5828L10.779 14.5861C10.6439 14.6659 9.77589 15.1783 9.99542 16.1236C10.2281 17.39 11.5122 17.8828 11.6969 17.8299C11.6969 17.8299 11.0537 18.3244 10.8539 18.6238C10.4249 19.2669 10.488 19.9574 10.615 20.3082C10.8312 20.9055 11.5512 21.7703 12.8459 21.8029C13.7624 21.826 14.5541 21.3474 15.3482 20.8673C15.4486 20.8066 15.549 20.7459 15.6497 20.6862C16.003 20.4768 16.3505 20.2607 16.6928 20.0478C16.7695 20.0001 16.8459 19.9526 16.9221 19.9053C18.065 19.1963 19.1507 18.5487 20.2025 18.3355C20.7915 18.2162 21.0836 18.2996 21.1687 18.4155C21.2565 18.5349 20.9818 18.8366 20.4075 19.2513C19.3226 20.0349 18.7681 20.459 18.573 20.6548C18.2634 20.9653 17.8693 21.6796 17.8404 21.9828C17.7656 22.7669 18.2805 23.5343 19.0229 23.7455C19.4671 23.8719 19.808 23.8677 20.4077 23.7286C21.6259 23.446 22.795 22.8379 23.9189 21.9024C24.7012 21.2512 24.9895 20.9304 25.5889 20.0443C25.7369 19.8255 25.8474 19.6604 25.935 19.5225C25.9786 19.4538 26.0165 19.3919 26.0505 19.3334L31.8632 20.6657C34.7594 21.3295 36.5661 21.9526 39.2544 23.2148C40.4824 23.8058 41.9132 24.7738 42.9176 25.693C45.3412 27.8617 46.5529 30.8436 46.5529 34.6387C46.5529 38.3353 45.6132 41.4157 43.7337 43.8801C41.9037 46.3445 39.3812 48.1927 36.1663 49.4249C32.9513 50.6571 29.316 51.2732 25.2603 51.2732C22.0454 51.2732 18.9046 50.9528 15.8381 50.3121C12.821 49.6714 10.0512 48.7595 7.52876 47.5766C5.00628 46.3445 2.83003 44.8905 1 43.2147L7.37574 33.1353C9.11458 34.3097 15.6475 39.1635 21.8661 40.8535C25.0539 41.7199 31.4297 42.5863 35.1155 41.0004C35.512 40.8297 35.6461 40.7956 36.019 40.3645C36.7788 39.3232 35.8124 38.1808 35.3721 37.9831C36.1095 37.6678 36.825 37.2933 37.509 36.888L37.5146 36.8847C37.6498 36.8049 38.5178 36.2925 38.2983 35.3472C38.0655 34.0808 36.7814 33.588 36.5967 33.6409C36.5967 33.6409 37.24 33.1464 37.4398 32.847C37.8688 32.2039 37.8057 31.5134 37.6787 31.1626C37.4624 30.5653 36.7425 29.7005 35.4478 29.6679C34.5313 29.6448 33.7396 30.1234 32.9454 30.6035C32.8451 30.6642 32.7447 30.7249 32.644 30.7846C32.2907 30.994 31.9432 31.2101 31.6009 31.423C30.3736 32.1862 29.2131 32.9079 28.0912 33.1353C27.5022 33.2546 27.2101 33.1712 27.125 33.0553C27.0372 32.9359 27.3119 32.6342 27.8861 32.2195C28.971 31.4359 29.5255 31.0118 29.7207 30.816C30.0303 30.5055 30.4244 29.7912 30.4533 29.488C30.5281 28.7039 30.0132 27.9365 29.2708 27.7253C28.8266 27.5989 28.4857 27.6031 27.886 27.7422C26.6678 28.0248 25.4987 28.6329 24.3748 29.5684C23.5925 30.2196 23.3042 30.5404 22.7048 31.4265C22.4206 31.8467 22.2746 32.0689 22.1638 32.2807L18.2122 31.3857C15.5413 30.7943 13.0683 29.981 10.7931 28.946C8.51797 27.9109 6.68793 26.4816 5.30305 24.658C3.96762 22.7851 3.2999 20.3453 3.2999 17.3388C3.2999 14.1351 4.16546 11.3011 5.89657 8.83671C7.62768 6.37233 10.1502 4.45012 13.464 3.07007C16.7778 1.69002 20.7594 1 25.4087 1Z" fill="#27364D"/>
  <path d="M55.5801 17.9732C57.9279 16.5109 60.5482 15.7798 63.4411 15.7798C65.9147 15.7798 68.0738 16.2812 69.9185 17.2838C71.8052 18.2865 73.2516 19.6026 74.2578 21.2319V16.2812H85.0117V51.25H74.2578V46.2992C73.2097 47.9286 71.7423 49.2446 69.8557 50.2473C68.0109 51.25 65.9147 51.25 63.4411 51.25C60.5902 51.25 57.9279 51.0202 55.5801 49.558C53.2323 48.054 51.3666 45.9441 49.9831 43.2285C48.6414 40.4711 47.9706 37.2959 47.9706 33.7029C47.9706 31.605 48.3607 29.9453 48.8181 28.1465C48.9022 28.1992 50.755 29.199 52.0059 29.8794C53.8637 30.8898 54.7825 31.4695 56.353 32.7673C57.2502 33.5087 58.1063 34.2774 58.533 34.7985C58.7221 35.0295 59.041 35.5414 59.041 35.5414C59.3094 37.3722 60.0005 38.8901 61.1142 40.0951C62.6235 41.6409 64.4473 42.4138 66.5855 42.4138C68.7237 42.4138 70.5265 41.6409 71.9939 40.0951C73.1231 38.9385 73.8299 37.4662 74.1143 35.6781C74.21 35.0763 74.2578 34.4388 74.2578 33.7656C74.2578 31.0917 73.5032 28.9819 71.9939 27.4361C70.5265 25.8903 68.7237 25.1174 66.5855 25.1174C64.4473 25.1174 62.6235 25.8903 61.1142 27.4361C61.0833 27.4678 61.0527 27.4997 61.0225 27.5319C60.1919 26.9022 57.8429 25.3952 55.5801 24.1034C54.0607 23.236 51.7655 21.9061 51.4893 21.7847C52.6338 20.2294 53.9974 18.9589 55.5801 17.9732Z" fill="#27364D"/>
  <path d="M193.946 28.5902C194.843 29.1942 195.234 29.386 196.213 29.7014C197.297 30.0507 198.332 30.2077 199.321 30.1726C199.615 30.1622 199.905 30.1349 200.191 30.0905C200.805 29.9952 201.126 29.871 201.494 29.5856C202.108 29.1088 202.3 28.1969 201.933 27.491C201.791 27.2181 201.152 26.6976 200.744 26.5234C200.487 26.4136 199.808 26.2251 198.496 25.8996C197.801 25.7273 197.43 25.5482 197.467 25.4034C197.502 25.2629 197.744 25.075 198.341 24.9653C199.477 24.7563 200.837 24.9954 202.274 25.2483L202.275 25.2484C202.676 25.3189 203.083 25.3904 203.493 25.4537C203.609 25.4717 203.726 25.4907 203.843 25.5098C204.768 25.6606 205.691 25.8109 206.54 25.4446C207.739 24.9272 208.086 23.8471 208.062 23.2066C208.048 22.8305 207.846 22.1605 207.201 21.7199C206.9 21.5147 206.111 21.2938 206.111 21.2938C206.154 21.2893 206.239 21.2379 206.342 21.1466C206.416 21.0807 206.5 20.994 206.583 20.889C206.7 20.7421 206.818 20.5594 206.911 20.3478C207.069 19.989 207.158 19.5473 207.057 19.0567C206.905 18.0893 205.898 17.9361 205.742 17.9123L205.735 17.9113C205.13 17.8181 204.514 17.7486 203.897 17.7129C203.758 17.6277 203.617 17.5453 203.475 17.466C203.763 16.9273 203.964 15.8034 203.024 15.2174C202.512 14.9541 202.249 14.9577 201.938 14.962L201.895 14.9625C201 14.9733 199.11 15.3696 196.939 15.8543C196.536 15.9443 196.123 16.0374 195.705 16.1317C194.575 16.3865 193.408 16.6497 192.294 16.8835C191.613 17.0266 190.931 17.1736 190.254 17.3228C188.823 17.6376 187.408 17.9624 186.041 18.2823C184.906 18.5476 183.804 18.8095 182.752 19.0595C179.965 19.7217 177.529 20.3005 175.775 20.6378L175.287 20.7317L174.866 20.8125L174.264 20.9283C169.976 21.7524 166.143 22.4991 161.827 23.5604C160.573 23.8688 159.278 24.2038 157.92 24.5749C157.132 24.79 156.323 25.0172 155.489 25.2585C152.739 26.0534 149.047 27.2498 145.748 28.3496L138.66 30.759L141.367 39.6296C141.617 39.5464 141.978 39.426 142.413 39.2804C143.896 38.7841 146.236 37.9951 147.954 37.3879C150.343 36.5432 151.941 35.9423 153.941 35.1899L153.942 35.1896L153.944 35.1889L153.948 35.1874L153.953 35.1855L154.171 35.1036C154.673 34.9146 155.203 34.7153 155.779 34.4999C158.134 33.6183 160.387 32.849 162.444 32.1835C164.139 31.6353 165.702 31.1575 167.081 30.7456C167.67 30.5696 168.29 30.3751 168.938 30.1719L168.94 30.1713L168.941 30.171L168.945 30.1699L168.946 30.1694C169.249 30.0743 169.559 29.9772 169.874 29.8793C171.529 29.3651 173.345 28.8251 175.287 28.4012C176.287 28.1827 177.321 27.995 178.384 27.8577C181.122 27.5035 184.718 27.0995 187.649 26.9986C190.02 26.917 191.956 27.0336 192.653 27.5349C192.881 27.6991 193.01 27.8216 193.145 27.9494C193.322 28.1178 193.509 28.2955 193.946 28.5902Z" fill="white"/>
  <path fill-rule="evenodd" clip-rule="evenodd" d="M178.384 27.8577C181.122 27.5035 184.718 27.0995 187.649 26.9986C186.577 28.2747 186.041 30.0114 186.041 32.2087V36.8104V51.1972H175.287V28.4012C176.287 28.1827 177.321 27.995 178.384 27.8577ZM186.041 18.2823V16.2283H175.287V20.7317L175.775 20.6378C177.529 20.3005 179.965 19.7217 182.752 19.0595C183.804 18.8095 184.906 18.5476 186.041 18.2823ZM162.444 51.25V32.1835C164.139 31.6353 165.702 31.1575 167.081 30.7456C167.67 30.5696 168.29 30.3751 168.938 30.1719L168.94 30.1713L168.941 30.171L168.945 30.1699L168.946 30.1694C169.249 30.0743 169.559 29.9772 169.874 29.8793H173.457V51.25H162.444ZM148.44 51.1971L154.171 35.1036L153.953 35.1855L153.948 35.1874L153.944 35.1889L153.942 35.1896L153.941 35.1899C151.941 35.9423 150.343 36.5432 147.954 37.3879C146.236 37.9951 143.896 38.7841 142.413 39.2804L141.837 41.1702L141.367 39.6296L138.66 30.759L134.227 16.2283H122.719L135.171 51.1971H148.44ZM145.748 28.3496C149.047 27.2498 152.739 26.0534 155.489 25.2585C156.323 25.0172 157.132 24.79 157.92 24.5749L160.892 16.2283H149.446L145.748 28.3496ZM161.827 23.5604C166.143 22.4991 169.976 21.7524 174.264 20.9283C174.08 19.6599 173.494 18.5848 172.505 17.7031C171.332 16.5791 169.825 16.0172 167.982 16.0172C166.098 16.0172 164.548 16.5791 163.334 17.7031C162.161 18.7854 161.575 20.1591 161.575 21.8243C161.575 22.4388 161.659 23.0175 161.827 23.5604Z" fill="#27364D"/>
  <path fill-rule="evenodd" clip-rule="evenodd" d="M210.19 30.7674V51.1972H199.499V36.8104C199.499 33.6337 198.065 30.457 193.142 30.457C187.646 30.457 186.041 33.9225 186.041 36.8104V32.2087C186.041 30.0114 186.577 28.2747 187.649 26.9986C190.02 26.917 191.956 27.0336 192.653 27.5349C192.881 27.6991 193.01 27.8216 193.145 27.9494C193.322 28.1178 193.509 28.2955 193.946 28.5902C194.843 29.1942 195.234 29.386 196.213 29.7014C197.297 30.0507 198.332 30.2077 199.321 30.1726C199.615 30.1622 199.905 30.1349 200.191 30.0905C200.805 29.9952 201.126 29.871 201.494 29.5856C202.108 29.1088 202.3 28.1969 201.933 27.491C201.791 27.2181 201.152 26.6976 200.744 26.5234C200.487 26.4136 199.808 26.2251 198.496 25.8996C197.801 25.7273 197.43 25.5482 197.467 25.4034C197.502 25.2629 197.744 25.075 198.341 24.9653C199.477 24.7563 200.837 24.9954 202.274 25.2483L202.275 25.2484C202.676 25.3189 203.083 25.3904 203.493 25.4537C203.609 25.4717 203.726 25.4907 203.843 25.5098C204.768 25.6606 205.691 25.8109 206.54 25.4446C207.739 24.9272 208.086 23.8471 208.062 23.2066C208.048 22.8305 207.846 22.1605 207.201 21.7199C206.9 21.5147 206.111 21.2938 206.111 21.2938C206.154 21.2893 206.239 21.2379 206.342 21.1466C206.342 21.1466 206.982 21.2988 207.342 21.5044C207.772 21.7495 207.792 21.8242 208.286 22.3465C209.95 24.3923 210.19 27.4461 210.19 30.7674Z" fill="#27364D"/>
  <path fill-rule="evenodd" clip-rule="evenodd" d="M212.601 25.9454C213.815 27.0277 215.365 27.5689 217.249 27.5689C219.092 27.5689 220.599 27.0277 221.772 25.9454C222.986 24.8214 223.593 23.4477 223.593 21.8242C223.593 20.3086 223.09 19.0344 222.084 18.0016L221.74 18.2221L217.446 20.9703L214.315 20.9479C213.279 20.9405 212.008 20.9311 210.903 20.9227C210.862 21.2131 210.842 21.5135 210.842 21.8242C210.842 23.4477 211.428 24.8214 212.601 25.9454Z" fill="#27364D"/>
  <path d="M206.111 18.0019C207.641 17.0224 209.887 15.5498 211.625 14.4304C213.364 13.3109 214.869 12.3782 214.97 12.3576C215.071 12.337 218.3 12.3435 222.147 12.372C227.295 12.4102 229.188 12.4477 229.321 12.5143C229.559 12.6331 229.635 12.896 229.501 13.1383C229.411 13.3034 228.67 13.8123 227.218 14.708L227.04 14.8179L229.044 21.7177L229.252 21.7461C229.366 21.7617 229.5 21.8249 229.55 21.8864C229.645 22.0026 230.937 24.6695 230.995 24.8688C231.013 24.9311 230.978 25.0735 230.917 25.1851L230.805 25.3881L228.569 26.0333L228.366 25.9211C228.254 25.8594 228.148 25.7585 228.13 25.6969C228.045 25.4026 227.734 22.4661 227.773 22.3277C227.798 22.2409 227.881 22.1338 227.956 22.0897L228.094 22.0095L227.13 18.6918C226.366 16.0623 226.152 15.3844 226.1 15.424C226.065 15.4501 224.289 16.59 222.084 18.0016M221.74 18.2221L217.446 20.9703L214.315 20.9479C213.279 20.9405 212.008 20.9311 210.903 20.9227M221.74 18.2221L222.084 18.0016M221.74 18.2221C221.855 18.148 221.97 18.0744 222.084 18.0016M37.509 36.888C36.825 37.2933 36.1095 37.6678 35.3721 37.9831C35.8124 38.1808 36.7788 39.3232 36.019 40.3645C35.6461 40.7956 35.512 40.8297 35.1155 41.0004C31.4297 42.5863 25.0539 41.7199 21.8661 40.8535C15.6475 39.1635 9.11458 34.3097 7.37574 33.1353L1 43.2147C2.83003 44.8905 5.00628 46.3445 7.52876 47.5766C10.0512 48.7595 12.821 49.6714 15.8381 50.3121C18.9046 50.9528 22.0454 51.2732 25.2603 51.2732C29.316 51.2732 32.9513 50.6571 36.1663 49.4249C39.3812 48.1927 41.9037 46.3445 43.7337 43.8801C45.6132 41.4157 46.5529 38.3353 46.5529 34.6387C46.5529 30.8436 45.3412 27.8617 42.9176 25.693C41.9132 24.7738 40.4824 23.8058 39.2544 23.2148M37.509 36.888L37.5146 36.8847M37.509 36.888C37.5107 36.887 37.5126 36.8859 37.5146 36.8847M10.7847 14.5828C11.4687 14.1775 12.1842 13.803 12.9216 13.4877C12.4813 13.29 11.5148 12.1476 12.2747 11.1063C12.6476 10.6752 12.9306 10.5763 13.1782 10.4704C17.519 8.61491 21.9722 9.2241 27.3724 10.4704C32.3218 11.6127 35.0281 12.8004 39.5443 15.1508C40.5771 15.6883 42.1525 16.5947 42.1525 16.5947M10.7847 14.5828C10.783 14.5838 10.7811 14.5849 10.779 14.5861M10.7847 14.5828L10.779 14.5861M10.779 14.5861C10.6439 14.6659 9.77589 15.1783 9.99542 16.1236C10.2281 17.39 11.5122 17.8828 11.6969 17.8299C11.6969 17.8299 11.0537 18.3244 10.8539 18.6238C10.4249 19.2669 10.488 19.9574 10.615 20.3082C10.8312 20.9055 11.5512 21.7703 12.8459 21.8029C13.7624 21.826 14.5541 21.3474 15.3482 20.8673C15.4486 20.8066 15.549 20.7459 15.6497 20.6862C16.003 20.4768 16.3505 20.2607 16.6928 20.0478C16.7695 20.0001 16.8459 19.9526 16.9221 19.9053C18.065 19.1963 19.1507 18.5487 20.2025 18.3355C20.7915 18.2162 21.0836 18.2996 21.1687 18.4155C21.2565 18.5349 20.9818 18.8366 20.4075 19.2513C19.3226 20.0349 18.7681 20.459 18.573 20.6548C18.2634 20.9653 17.8693 21.6796 17.8404 21.9828C17.7656 22.7669 18.2805 23.5343 19.0229 23.7455C19.4671 23.8719 19.808 23.8677 20.4077 23.7286C21.6259 23.446 22.795 22.8379 23.9189 21.9024C24.7012 21.2512 24.9895 20.9304 25.5889 20.0443C25.7369 19.8255 25.8474 19.6604 25.935 19.5225C25.9786 19.4538 26.0165 19.3919 26.0505 19.3334L31.8632 20.6657C34.7594 21.3295 36.5661 21.9526 39.2544 23.2148M37.5146 36.8847C37.6498 36.8049 38.5178 36.2925 38.2983 35.3472C38.0655 34.0808 36.7814 33.588 36.5967 33.6409C36.5967 33.6409 37.24 33.1464 37.4398 32.847C37.8688 32.2039 37.8057 31.5134 37.6787 31.1626C37.4624 30.5653 36.7425 29.7005 35.4478 29.6679C34.5313 29.6448 33.7396 30.1234 32.9454 30.6035C32.8451 30.6642 32.7447 30.7249 32.644 30.7846C32.2907 30.994 31.9432 31.2101 31.6009 31.423C30.3736 32.1862 29.2131 32.9079 28.0912 33.1353C27.5022 33.2546 27.2101 33.1712 27.125 33.0553C27.0372 32.9359 27.3119 32.6342 27.8861 32.2195C28.971 31.4359 29.5255 31.0118 29.7207 30.816C30.0303 30.5055 30.4244 29.7912 30.4533 29.488C30.5281 28.7039 30.0132 27.9365 29.2708 27.7253C28.8266 27.5989 28.4857 27.6031 27.886 27.7422C26.6678 28.0248 25.4987 28.6329 24.3748 29.5684C23.5925 30.2196 23.3042 30.5404 22.7048 31.4265C22.4206 31.8467 22.2746 32.0689 22.1638 32.2807L18.2122 31.3857C15.5413 30.7943 13.0683 29.981 10.7931 28.946C8.51797 27.911 6.68793 26.4816 5.30305 24.658C3.96762 22.7851 3.2999 20.3453 3.2999 17.3388C3.2999 14.1351 4.16546 11.3011 5.89657 8.83671C7.62768 6.37233 10.1502 4.45012 13.464 3.07007C16.7778 1.69002 20.7594 1 25.4087 1C30.0579 1 34.1879 1.64074 37.7985 2.92221C41.4091 4.1544 44.5745 6.05196 47.2948 8.61491L42.1525 16.5947M48.8181 28.1465C48.9022 28.1992 50.755 29.199 52.0059 29.8794C53.8637 30.8898 54.7825 31.4695 56.353 32.7673C57.2502 33.5087 58.1062 34.2774 58.533 34.7985C58.7221 35.0295 59.041 35.5414 59.041 35.5414M48.8181 28.1465C48.3607 29.9453 47.9706 31.605 47.9706 33.7029C47.9706 37.2959 48.6414 40.4711 49.9831 43.2285C51.3666 45.9441 53.2323 48.054 55.5801 49.558C57.9279 51.0202 60.5902 51.25 63.4411 51.25C65.9147 51.25 68.0109 51.25 69.8557 50.2473C71.7423 49.2446 73.2097 47.9286 74.2578 46.2992V51.25H85.0117V16.2812H74.2578V21.2319C73.2516 19.6026 71.8052 18.2865 69.9185 17.2838C68.0738 16.2812 65.9147 15.7798 63.4411 15.7798C60.5482 15.7798 57.9279 16.5109 55.5801 17.9732C53.9974 18.9589 52.6338 20.2294 51.4893 21.7847M48.8181 28.1465C48.8181 28.1465 43.6015 24.9697 39.2544 23.2148M59.041 35.5414C59.3094 37.3722 60.0005 38.8901 61.1142 40.0951C62.6235 41.6409 64.4473 42.4138 66.5855 42.4138C68.7237 42.4138 70.5265 41.6409 71.9939 40.0951C73.1231 38.9385 73.8299 37.4662 74.1143 35.6781C74.21 35.0763 74.2578 34.4388 74.2578 33.7656C74.2578 31.0917 73.5032 28.9819 71.9939 27.4361C70.5265 25.8903 68.7237 25.1174 66.5855 25.1174C64.4473 25.1174 62.6235 25.8903 61.1142 27.4361C61.0833 27.4678 61.0527 27.4997 61.0225 27.5319C60.1919 26.9022 57.8429 25.3952 55.5801 24.1034C54.0607 23.236 51.7655 21.9061 51.4893 21.7847M59.041 35.5414C59.0499 35.5557 59.032 35.527 59.041 35.5414ZM51.4893 21.7847L42.1525 16.5947M196.669 15.8523C196.759 15.8523 196.849 15.853 196.939 15.8543M199.499 51.1972H210.19V30.7674C210.19 27.4461 209.95 24.3923 208.286 22.3465C207.792 21.8242 207.772 21.7495 207.342 21.5044C206.982 21.2988 206.342 21.1466 206.342 21.1466M199.499 51.1972C199.499 51.1972 199.499 42.4288 199.499 36.8104M199.499 51.1972V36.8104M186.041 32.2087C186.041 30.0114 186.577 28.2747 187.649 26.9986M186.041 32.2087C186.041 32.2087 186.041 35.0133 186.041 36.8104M186.041 32.2087V36.8104M186.041 51.1972H175.287V28.4012M186.041 51.1972C186.041 51.1972 186.041 42.4288 186.041 36.8104M186.041 51.1972V36.8104M190.443 17.231C190.379 17.2612 190.316 17.2918 190.254 17.3228M201.895 14.9625L201.938 14.962M201.895 14.9625C201.909 14.9624 201.923 14.9622 201.938 14.962M201.895 14.9625C201 14.9733 199.11 15.3696 196.939 15.8543M205.735 17.9113L205.742 17.9123M205.735 17.9113C205.737 17.9116 205.739 17.9119 205.742 17.9123M205.735 17.9113C205.13 17.8181 204.514 17.7486 203.897 17.7129C203.758 17.6277 203.617 17.5453 203.475 17.466C203.763 16.9273 203.964 15.8034 203.024 15.2174C202.512 14.9541 202.249 14.9577 201.938 14.962M175.775 20.6378C177.529 20.3005 179.965 19.7217 182.752 19.0595C183.804 18.8095 184.906 18.5476 186.041 18.2823M175.775 20.6378L175.287 20.7317M175.775 20.6378C175.612 20.6693 175.449 20.7006 175.287 20.7317M205.742 17.9123C205.898 17.9361 206.905 18.0893 207.057 19.0567C207.158 19.5473 207.069 19.989 206.911 20.3478C206.818 20.5594 206.7 20.7421 206.583 20.889M169.874 29.8793H173.457V51.25H162.444V32.1835M169.874 29.8793C171.529 29.3651 173.345 28.8251 175.287 28.4012M169.874 29.8793C169.559 29.9772 169.249 30.0743 168.946 30.1694L168.945 30.1699L168.941 30.171L168.94 30.1713L168.938 30.1719C168.29 30.3751 167.67 30.5696 167.081 30.7456C165.702 31.1575 164.139 31.6353 162.444 32.1835M162.444 32.1835C160.387 32.849 158.134 33.6183 155.779 34.4999C155.203 34.7153 154.673 34.9146 154.17 35.1036M153.948 35.1874L153.944 35.1889M153.948 35.1874C153.946 35.1879 153.945 35.1884 153.944 35.1889M153.948 35.1874L153.953 35.1855M153.948 35.1874C153.949 35.1868 153.951 35.1862 153.953 35.1855M153.944 35.1889L153.942 35.1896L153.941 35.1899C151.941 35.9423 150.343 36.5432 147.954 37.3879C146.236 37.9951 143.896 38.7841 142.413 39.2804M174.866 20.8125L174.264 20.9283M174.866 20.8125C174.664 20.8513 174.464 20.8899 174.264 20.9283M174.866 20.8125L175.287 20.7317M174.866 20.8125C175.006 20.7857 175.146 20.7587 175.287 20.7317M175.287 20.7317V16.2283H186.041V18.2823M175.287 28.4012C176.287 28.1827 177.321 27.995 178.384 27.8577C181.122 27.5035 184.718 27.0995 187.649 26.9986M153.953 35.1855C154.025 35.1584 154.097 35.1311 154.17 35.1036M153.953 35.1855L154.17 35.1036M154.17 35.1036L148.44 51.1971H135.171L122.719 16.2283H134.227L138.66 30.759M157.92 24.5749C157.132 24.79 156.323 25.0172 155.489 25.2585C152.739 26.0534 149.047 27.2498 145.748 28.3496M157.92 24.5749C159.278 24.2038 160.573 23.8688 161.827 23.5604M157.92 24.5749L160.892 16.2283H149.446L145.748 28.3496M161.827 23.5604C161.659 23.0175 161.575 22.4388 161.575 21.8243C161.575 20.1591 162.161 18.7854 163.334 17.7031C164.548 16.5791 166.098 16.0172 167.982 16.0172C169.825 16.0172 171.332 16.5791 172.505 17.7031C173.494 18.5848 174.08 19.6599 174.264 20.9283M161.827 23.5604C166.143 22.4991 169.976 21.7524 174.264 20.9283M138.66 30.759C138.118 30.9468 137.811 31.0543 137.811 31.0543L140.987 39.7556C140.987 39.7556 141.125 39.71 141.367 39.6296M138.66 30.759L141.367 39.6296M138.66 30.759L145.748 28.3496M142.413 39.2804C141.978 39.426 141.617 39.5464 141.367 39.6296M142.413 39.2804L141.837 41.1702L141.367 39.6296M190.254 17.3228C190.931 17.1736 191.613 17.0266 192.294 16.8835C193.408 16.6497 194.575 16.3865 195.705 16.1317C196.123 16.0374 196.536 15.9443 196.939 15.8543M190.254 17.3228C188.823 17.6376 187.408 17.9624 186.041 18.2823M187.649 26.9986C190.02 26.917 191.956 27.0336 192.653 27.5349C192.881 27.6991 193.01 27.8216 193.145 27.9494C193.322 28.1178 193.509 28.2955 193.946 28.5902C194.843 29.1942 195.234 29.386 196.213 29.7014C197.297 30.0507 198.332 30.2077 199.321 30.1726C199.615 30.1622 199.905 30.1349 200.191 30.0905C200.805 29.9952 201.126 29.871 201.494 29.5856C202.108 29.1088 202.3 28.1969 201.933 27.491C201.791 27.2181 201.152 26.6976 200.744 26.5234C200.487 26.4136 199.808 26.2251 198.496 25.8996C197.801 25.7273 197.43 25.5482 197.467 25.4034C197.502 25.2629 197.744 25.075 198.341 24.9653C199.477 24.7563 200.837 24.9954 202.274 25.2483L202.275 25.2484C202.676 25.3189 203.083 25.3904 203.493 25.4537C203.609 25.4717 203.726 25.4907 203.843 25.5098C204.768 25.6606 205.691 25.8109 206.54 25.4446C207.739 24.9272 208.086 23.8471 208.062 23.2066C208.048 22.8305 207.846 22.1605 207.201 21.7199C206.9 21.5147 206.111 21.2938 206.111 21.2938C206.154 21.2893 206.239 21.2379 206.342 21.1466M199.499 36.8104C199.499 33.6337 198.065 30.457 193.142 30.457C187.646 30.457 186.041 33.9225 186.041 36.8104M207.347 20.8948C207.091 20.8929 206.834 20.8909 206.583 20.889M207.347 20.8948C207.954 20.8995 208.553 20.9042 209.043 20.9082C209.512 20.912 210.171 20.9171 210.903 20.9227M207.347 20.8948L206.583 20.889M206.583 20.889C206.5 20.994 206.416 21.0807 206.342 21.1466M222.084 18.0016C223.09 19.0344 223.593 20.3086 223.593 21.8242C223.593 23.4477 222.986 24.8214 221.772 25.9454C220.599 27.0277 219.092 27.5689 217.249 27.5689C215.365 27.5689 213.815 27.0277 212.601 25.9454C211.428 24.8214 210.842 23.4477 210.842 21.8242C210.842 21.5135 210.862 21.2131 210.903 20.9227M105.469 57.4879L102.734 62.1317V65.1121H101.806V62.1317L99.0705 57.4879H100.172L101.656 60.0986L102.27 61.1845L102.884 60.0986L104.368 57.4879H105.469ZM107.997 59.2207C108.545 59.2207 109.028 59.34 109.446 59.5788C109.871 59.8175 110.203 60.1641 110.442 60.6184C110.682 61.0651 110.802 61.6003 110.802 62.2241C110.802 62.8479 110.682 63.387 110.442 63.8414C110.203 64.288 109.871 64.6307 109.446 64.8695C109.028 65.1082 108.545 65.2276 107.997 65.2276C107.456 65.2276 106.973 65.1082 106.547 64.8695C106.122 64.6307 105.79 64.288 105.551 63.8414C105.311 63.387 105.191 62.8479 105.191 62.2241C105.191 61.6003 105.311 61.0651 105.551 60.6184C105.79 60.1641 106.122 59.8175 106.547 59.5788C106.973 59.34 107.456 59.2207 107.997 59.2207ZM107.997 60.0177C107.602 60.0177 107.266 60.1063 106.988 60.2834C106.71 60.4606 106.493 60.7147 106.339 61.0458C106.192 61.3693 106.119 61.7621 106.119 62.2241C106.119 62.6785 106.192 63.0713 106.339 63.4024C106.493 63.7336 106.71 63.9877 106.988 64.1648C107.266 64.3419 107.602 64.4305 107.997 64.4305C108.391 64.4305 108.727 64.3419 109.005 64.1648C109.283 63.9877 109.496 63.7336 109.643 63.4024C109.797 63.0713 109.874 62.6785 109.874 62.2241C109.874 61.7621 109.797 61.3693 109.643 61.0458C109.496 60.7147 109.283 60.4606 109.005 60.2834C108.727 60.1063 108.391 60.0177 107.997 60.0177ZM114.414 65.2276C114.043 65.2276 113.692 65.1583 113.359 65.0196C113.035 64.881 112.768 64.6577 112.559 64.3496C112.358 64.0339 112.258 63.6257 112.258 63.1252V59.3362H113.185V62.8826C113.185 63.4679 113.313 63.8722 113.568 64.0955C113.823 64.3111 114.182 64.419 114.646 64.419C114.862 64.419 115.075 64.3843 115.284 64.315C115.492 64.238 115.678 64.1225 115.84 63.9684C116.01 63.8067 116.141 63.6026 116.234 63.3562C116.335 63.1098 116.385 62.8171 116.385 62.4783V59.3362H117.312V65.1121H116.501L116.443 64.2341C116.242 64.5807 115.967 64.8348 115.62 64.9965C115.28 65.1506 114.878 65.2276 114.414 65.2276ZM119.239 65.1121V59.3362H119.992L120.12 60.2834C120.282 59.9292 120.518 59.6635 120.827 59.4864C121.144 59.3092 121.526 59.2207 121.974 59.2207C122.075 59.2207 122.183 59.2284 122.299 59.2438C122.423 59.2592 122.527 59.29 122.612 59.3362L122.45 60.1795C122.365 60.1487 122.272 60.1256 122.171 60.1102C122.071 60.0948 121.928 60.0871 121.743 60.0871C121.503 60.0871 121.26 60.1564 121.012 60.295C120.773 60.4336 120.572 60.6454 120.409 60.9303C120.247 61.2076 120.166 61.5618 120.166 61.9931V65.1121H119.239ZM129.324 56.6215C129.525 56.6215 129.715 56.6446 129.892 56.6908C130.07 56.737 130.209 56.8025 130.31 56.8872L130.066 57.6381C129.973 57.5765 129.873 57.5341 129.765 57.511C129.657 57.4802 129.537 57.4648 129.405 57.4648C129.073 57.4648 128.814 57.5457 128.629 57.7074C128.443 57.8614 128.351 58.1117 128.351 58.4583V65.1121H127.423V58.3658C127.423 58.1117 127.462 57.8768 127.539 57.6612C127.616 57.4456 127.732 57.2607 127.887 57.1067C128.049 56.9527 128.25 56.8333 128.49 56.7486C128.729 56.6639 129.007 56.6215 129.324 56.6215ZM130.286 59.3362V60.1333H126.264V59.3362H130.286ZM133.388 65.2276C133.017 65.2276 132.666 65.1583 132.333 65.0196C132.009 64.881 131.742 64.6577 131.534 64.3496C131.333 64.0339 131.232 63.6257 131.232 63.1252V59.3362H132.159V62.8826C132.159 63.4679 132.287 63.8722 132.542 64.0955C132.797 64.3111 133.156 64.419 133.62 64.419C133.837 64.419 134.049 64.3843 134.258 64.315C134.466 64.238 134.652 64.1225 134.814 63.9684C134.984 63.8067 135.116 63.6026 135.208 63.3562C135.309 63.1098 135.359 62.8171 135.359 62.4783V59.3362H136.286V65.1121H135.475L135.417 64.2341C135.216 64.5807 134.942 64.8348 134.594 64.9965C134.254 65.1506 133.852 65.2276 133.388 65.2276ZM139.581 57.6958V63.5179C139.581 63.8029 139.662 64.0146 139.824 64.1533C139.986 64.2919 140.195 64.3612 140.45 64.3612C140.674 64.3612 140.867 64.3227 141.03 64.2457C141.192 64.1687 141.339 64.0647 141.47 63.9338L141.795 64.7078C141.617 64.8695 141.405 64.9965 141.157 65.089C140.918 65.1814 140.639 65.2276 140.323 65.2276C140.029 65.2276 139.755 65.1775 139.5 65.0774C139.245 64.9696 139.04 64.804 138.885 64.5807C138.738 64.3496 138.661 64.0493 138.653 63.6796V57.95L139.581 57.6958ZM141.69 59.3362V60.1333H137.494V59.3362H141.69ZM144.936 65.2276C144.565 65.2276 144.213 65.1583 143.881 65.0196C143.556 64.881 143.29 64.6577 143.081 64.3496C142.88 64.0339 142.78 63.6257 142.78 63.1252V59.3362H143.707V62.8826C143.707 63.4679 143.834 63.8722 144.089 64.0955C144.344 64.3111 144.704 64.419 145.168 64.419C145.384 64.419 145.596 64.3843 145.805 64.315C146.014 64.238 146.199 64.1225 146.362 63.9684C146.532 63.8067 146.663 63.6026 146.756 63.3562C146.856 63.1098 146.906 62.8171 146.906 62.4783V59.3362H147.834V65.1121H147.022L146.964 64.2341C146.763 64.5807 146.489 64.8348 146.141 64.9965C145.801 65.1506 145.399 65.2276 144.936 65.2276ZM149.76 65.1121V59.3362H150.514L150.641 60.2834C150.804 59.9292 151.039 59.6635 151.348 59.4864C151.665 59.3092 152.048 59.2207 152.496 59.2207C152.596 59.2207 152.705 59.2284 152.821 59.2438C152.944 59.2592 153.049 59.29 153.134 59.3362L152.971 60.1795C152.886 60.1487 152.794 60.1256 152.693 60.1102C152.593 60.0948 152.45 60.0871 152.264 60.0871C152.025 60.0871 151.781 60.1564 151.534 60.295C151.294 60.4336 151.093 60.6454 150.931 60.9303C150.769 61.2076 150.688 61.5618 150.688 61.9931V65.1121H149.76ZM156.502 65.2276C155.953 65.2276 155.463 65.1082 155.03 64.8695C154.605 64.6307 154.272 64.288 154.033 63.8414C153.793 63.387 153.674 62.8479 153.674 62.2241C153.674 61.6003 153.793 61.0651 154.033 60.6184C154.272 60.1641 154.601 59.8175 155.018 59.5788C155.436 59.34 155.911 59.2207 156.444 59.2207C156.985 59.2207 157.445 59.3362 157.824 59.5672C158.21 59.7983 158.504 60.114 158.705 60.5145C158.906 60.9072 159.006 61.35 159.006 61.8429C159.006 61.9738 159.002 62.0932 158.994 62.201C158.987 62.3088 158.975 62.4051 158.96 62.4898H154.276V61.6696H158.554L158.079 61.7621C158.079 61.2076 157.924 60.7802 157.615 60.4798C157.314 60.1795 156.916 60.0293 156.421 60.0293C156.042 60.0293 155.714 60.1179 155.436 60.295C155.165 60.4644 154.953 60.7147 154.798 61.0458C154.651 61.3693 154.578 61.7621 154.578 62.2241C154.578 62.6785 154.655 63.0713 154.81 63.4024C154.964 63.7336 155.181 63.9877 155.459 64.1648C155.745 64.3342 156.085 64.419 156.479 64.419C156.904 64.419 157.248 64.3381 157.511 64.1764C157.781 64.0146 157.997 63.7952 158.16 63.5179L158.89 63.9453C158.743 64.2072 158.554 64.4344 158.322 64.6269C158.098 64.8194 157.831 64.9696 157.522 65.0774C157.221 65.1775 156.881 65.2276 156.502 65.2276ZM166.344 65.2276C165.779 65.2276 165.258 65.1082 164.779 64.8695C164.307 64.6307 163.944 64.2919 163.689 63.8529L164.477 63.2869C164.647 63.6411 164.894 63.9184 165.219 64.1186C165.551 64.3188 165.949 64.419 166.413 64.419C166.823 64.419 167.143 64.3419 167.375 64.1879C167.607 64.0262 167.723 63.8183 167.723 63.5641C167.723 63.4024 167.669 63.2561 167.561 63.1252C167.46 62.9865 167.263 62.8864 166.969 62.8248L165.578 62.536C165.014 62.4205 164.609 62.228 164.361 61.9584C164.122 61.6889 164.002 61.3539 164.002 60.9534C164.002 60.6377 164.091 60.3489 164.268 60.0871C164.454 59.8252 164.713 59.6173 165.045 59.4633C165.385 59.3015 165.783 59.2207 166.239 59.2207C166.811 59.2207 167.294 59.3323 167.688 59.5557C168.082 59.779 168.376 60.0948 168.569 60.5029L167.793 61.0112C167.661 60.6723 167.449 60.4259 167.155 60.2719C166.861 60.1102 166.556 60.0293 166.239 60.0293C165.961 60.0293 165.721 60.0678 165.52 60.1448C165.327 60.2218 165.177 60.3296 165.068 60.4683C164.968 60.5992 164.918 60.7494 164.918 60.9188C164.918 61.0882 164.976 61.2461 165.092 61.3924C165.207 61.531 165.424 61.6311 165.741 61.6927L167.19 61.9931C167.731 62.1009 168.109 62.278 168.326 62.5245C168.542 62.7709 168.65 63.0713 168.65 63.4255C168.65 63.7875 168.554 64.1071 168.361 64.3843C168.167 64.6538 167.897 64.8618 167.549 65.0081C167.201 65.1544 166.799 65.2276 166.344 65.2276ZM171.506 57.6958V63.5179C171.506 63.8029 171.587 64.0146 171.749 64.1533C171.912 64.2919 172.12 64.3612 172.375 64.3612C172.6 64.3612 172.793 64.3227 172.955 64.2457C173.117 64.1687 173.264 64.0647 173.396 63.9338L173.72 64.7078C173.542 64.8695 173.33 64.9965 173.083 65.089C172.843 65.1814 172.565 65.2276 172.248 65.2276C171.954 65.2276 171.68 65.1775 171.425 65.0774C171.17 64.9696 170.965 64.804 170.811 64.5807C170.664 64.3496 170.586 64.0493 170.579 63.6796V57.95L171.506 57.6958ZM173.616 59.3362V60.1333H169.419V59.3362H173.616ZM178.148 61.3808C178.148 60.9496 178.032 60.6184 177.8 60.3874C177.568 60.1487 177.24 60.0293 176.815 60.0293C176.413 60.0293 176.073 60.1179 175.795 60.295C175.516 60.4644 175.312 60.7417 175.18 61.1267L174.427 60.6646C174.581 60.2334 174.867 59.8868 175.284 59.625C175.702 59.3554 176.22 59.2207 176.838 59.2207C177.255 59.2207 177.634 59.2938 177.974 59.4402C178.314 59.5788 178.581 59.7944 178.774 60.0871C178.975 60.372 179.075 60.7417 179.075 61.196V63.9915C179.075 64.2688 179.222 64.4074 179.516 64.4074C179.662 64.4074 179.805 64.3882 179.945 64.3496L179.898 65.0774C179.744 65.1544 179.543 65.1929 179.295 65.1929C179.071 65.1929 178.87 65.1506 178.693 65.0659C178.515 64.9811 178.376 64.8541 178.275 64.6846C178.175 64.5075 178.125 64.288 178.125 64.0262V63.9107L178.356 63.9453C178.264 64.2457 178.105 64.4921 177.881 64.6846C177.657 64.8695 177.406 65.0081 177.128 65.1005C176.849 65.1852 176.575 65.2276 176.305 65.2276C175.965 65.2276 175.648 65.1698 175.354 65.0543C175.06 64.9388 174.825 64.7655 174.647 64.5345C174.477 64.2957 174.392 64.0031 174.392 63.6565C174.392 63.2253 174.535 62.871 174.821 62.5938C175.114 62.3088 175.52 62.1163 176.038 62.0162L178.333 61.5657V62.3281L176.467 62.7093C176.088 62.7863 175.806 62.8941 175.621 63.0327C175.435 63.1714 175.342 63.3639 175.342 63.6103C175.342 63.8491 175.435 64.0455 175.621 64.1995C175.814 64.3458 176.084 64.419 176.432 64.419C176.656 64.419 176.869 64.392 177.07 64.3381C177.278 64.2765 177.464 64.1879 177.626 64.0724C177.788 63.9492 177.916 63.799 178.009 63.6219C178.101 63.4371 178.148 63.2214 178.148 62.975V61.3808ZM181.097 65.1121V59.3362H181.85L181.978 60.2834C182.14 59.9292 182.376 59.6635 182.685 59.4864C183.002 59.3092 183.384 59.2207 183.833 59.2207C183.933 59.2207 184.041 59.2284 184.157 59.2438C184.281 59.2592 184.385 59.29 184.47 59.3362L184.308 60.1795C184.223 60.1487 184.13 60.1256 184.03 60.1102C183.929 60.0948 183.786 60.0871 183.601 60.0871C183.361 60.0871 183.118 60.1564 182.871 60.295C182.631 60.4336 182.43 60.6454 182.268 60.9303C182.105 61.2076 182.024 61.5618 182.024 61.9931V65.1121H181.097ZM186.614 57.6958V63.5179C186.614 63.8029 186.695 64.0146 186.857 64.1533C187.02 64.2919 187.228 64.3612 187.483 64.3612C187.708 64.3612 187.901 64.3227 188.063 64.2457C188.225 64.1687 188.372 64.0647 188.504 63.9338L188.828 64.7078C188.65 64.8695 188.438 64.9965 188.191 65.089C187.951 65.1814 187.673 65.2276 187.356 65.2276C187.062 65.2276 186.788 65.1775 186.533 65.0774C186.278 64.9696 186.073 64.804 185.918 64.5807C185.772 64.3496 185.694 64.0493 185.687 63.6796V57.95L186.614 57.6958ZM188.724 59.3362V60.1333H184.527V59.3362H188.724ZM191.957 65.2276C191.393 65.2276 190.872 65.1082 190.392 64.8695C189.921 64.6307 189.558 64.2919 189.303 63.8529L190.091 63.2869C190.261 63.6411 190.508 63.9184 190.833 64.1186C191.165 64.3188 191.563 64.419 192.027 64.419C192.437 64.419 192.757 64.3419 192.989 64.1879C193.221 64.0262 193.337 63.8183 193.337 63.5641C193.337 63.4024 193.283 63.2561 193.175 63.1252C193.074 62.9865 192.877 62.8864 192.583 62.8248L191.192 62.536C190.628 62.4205 190.222 62.228 189.975 61.9584C189.736 61.6889 189.616 61.3539 189.616 60.9534C189.616 60.6377 189.705 60.3489 189.882 60.0871C190.068 59.8252 190.327 59.6173 190.659 59.4633C190.999 59.3015 191.397 59.2207 191.853 59.2207C192.425 59.2207 192.908 59.3323 193.302 59.5557C193.696 59.779 193.99 60.0948 194.183 60.5029L193.406 61.0112C193.275 60.6723 193.063 60.4259 192.769 60.2719C192.475 60.1102 192.17 60.0293 191.853 60.0293C191.575 60.0293 191.335 60.0678 191.134 60.1448C190.941 60.2218 190.79 60.3296 190.682 60.4683C190.582 60.5992 190.532 60.7494 190.532 60.9188C190.532 61.0882 190.59 61.2461 190.705 61.3924C190.821 61.531 191.038 61.6311 191.355 61.6927L192.804 61.9931C193.345 62.1009 193.723 62.278 193.94 62.5245C194.156 62.7709 194.264 63.0713 194.264 63.4255C194.264 63.7875 194.168 64.1071 193.974 64.3843C193.781 64.6538 193.511 64.8618 193.163 65.0081C192.815 65.1544 192.413 65.2276 191.957 65.2276ZM199.471 65.1121V56.6793H200.398V60.2026C200.599 59.856 200.866 59.6057 201.198 59.4517C201.531 59.2977 201.894 59.2207 202.288 59.2207C202.705 59.2207 203.084 59.3015 203.424 59.4633C203.764 59.6173 204.035 59.856 204.236 60.1795C204.444 60.5029 204.549 60.9149 204.549 61.4155V65.1121H203.621V61.739C203.621 61.0998 203.482 60.6569 203.204 60.4105C202.933 60.1564 202.597 60.0293 202.195 60.0293C201.917 60.0293 201.639 60.0948 201.361 60.2257C201.082 60.3566 200.851 60.5722 200.665 60.8726C200.487 61.1652 200.398 61.558 200.398 62.0508V65.1121H199.471ZM208.839 65.2276C208.291 65.2276 207.8 65.1082 207.367 64.8695C206.942 64.6307 206.61 64.288 206.37 63.8414C206.131 63.387 206.011 62.8479 206.011 62.2241C206.011 61.6003 206.131 61.0651 206.37 60.6184C206.61 60.1641 206.938 59.8175 207.355 59.5788C207.773 59.34 208.248 59.2207 208.781 59.2207C209.322 59.2207 209.782 59.3362 210.161 59.5672C210.547 59.7983 210.841 60.114 211.042 60.5145C211.243 60.9072 211.343 61.35 211.343 61.8429C211.343 61.9738 211.339 62.0932 211.332 62.201C211.324 62.3088 211.312 62.4051 211.297 62.4898H206.614V61.6696H210.891L210.416 61.7621C210.416 61.2076 210.261 60.7802 209.952 60.4798C209.651 60.1795 209.253 60.0293 208.758 60.0293C208.379 60.0293 208.051 60.1179 207.773 60.295C207.502 60.4644 207.29 60.7147 207.135 61.0458C206.988 61.3693 206.915 61.7621 206.915 62.2241C206.915 62.6785 206.992 63.0713 207.147 63.4024C207.301 63.7336 207.518 63.9877 207.796 64.1648C208.082 64.3342 208.422 64.419 208.816 64.419C209.241 64.419 209.585 64.3381 209.848 64.1764C210.118 64.0146 210.335 63.7952 210.497 63.5179L211.227 63.9453C211.08 64.2072 210.891 64.4344 210.659 64.6269C210.435 64.8194 210.169 64.9696 209.859 65.0774C209.558 65.1775 209.218 65.2276 208.839 65.2276ZM212.875 65.1121V59.3362H213.629L213.756 60.2834C213.918 59.9292 214.154 59.6635 214.463 59.4864C214.78 59.3092 215.163 59.2207 215.611 59.2207C215.711 59.2207 215.82 59.2284 215.935 59.2438C216.059 59.2592 216.163 59.29 216.248 59.3362L216.086 60.1795C216.001 60.1487 215.908 60.1256 215.808 60.1102C215.707 60.0948 215.565 60.0871 215.379 60.0871C215.139 60.0871 214.896 60.1564 214.649 60.295C214.409 60.4336 214.208 60.6454 214.046 60.9303C213.884 61.2076 213.802 61.5618 213.802 61.9931V65.1121H212.875ZM219.617 65.2276C219.068 65.2276 218.577 65.1082 218.145 64.8695C217.72 64.6307 217.387 64.288 217.148 63.8414C216.908 63.387 216.788 62.8479 216.788 62.2241C216.788 61.6003 216.908 61.0651 217.148 60.6184C217.387 60.1641 217.716 59.8175 218.133 59.5788C218.55 59.34 219.026 59.2207 219.559 59.2207C220.1 59.2207 220.56 59.3362 220.938 59.5672C221.325 59.7983 221.619 60.114 221.819 60.5145C222.02 60.9072 222.121 61.35 222.121 61.8429C222.121 61.9738 222.117 62.0932 222.109 62.201C222.102 62.3088 222.09 62.4051 222.074 62.4898H217.391V61.6696H221.669L221.193 61.7621C221.193 61.2076 221.039 60.7802 220.73 60.4798C220.428 60.1795 220.03 60.0293 219.536 60.0293C219.157 60.0293 218.829 60.1179 218.55 60.295C218.28 60.4644 218.067 60.7147 217.913 61.0458C217.766 61.3693 217.693 61.7621 217.693 62.2241C217.693 62.6785 217.77 63.0713 217.924 63.4024C218.079 63.7336 218.295 63.9877 218.574 64.1648C218.86 64.3342 219.2 64.419 219.594 64.419C220.019 64.419 220.363 64.3381 220.625 64.1764C220.896 64.0146 221.112 63.7952 221.275 63.5179L222.005 63.9453C221.858 64.2072 221.669 64.4344 221.437 64.6269C221.213 64.8194 220.946 64.9696 220.637 65.0774C220.336 65.1775 219.996 65.2276 219.617 65.2276ZM222.724 29.8792H211.711V51.25H222.724V29.8792ZM121.748 16.2812V51.2501H110.995V46.4873C109.905 48.0332 108.416 49.2865 106.53 50.2474C104.685 51.1666 102.668 51.2501 100.404 51.2501C97.7204 51.2501 95.3145 51.0412 93.2602 49.8714C91.2058 48.6598 89.6127 46.926 88.4807 44.67C87.3487 42.4139 86.7827 39.7609 86.7827 36.7111V16.2812H97.4737V35.2697C97.4737 37.6093 98.0816 39.4267 99.2974 40.7219C100.513 42.017 102.148 42.6646 104.203 42.6646C106.299 42.6646 107.955 42.017 109.171 40.7219C110.387 39.4267 110.995 37.6093 110.995 35.2697V16.2812H121.748Z" stroke="#27364D" stroke-width="0.5"/>
</svg>