<svg width="471" height="456" viewBox="0 0 471 456" fill="none" xmlns="http://www.w3.org/2000/svg">
<path d="M43.4285 443.969C42.0912 442.822 39.1149 439.192 41.4175 434.979C42.2521 433.431 44.0419 432.667 45.6608 431.963C47.3259 431.399 48.8956 430.585 50.3162 429.55C52.8401 427.398 53.5339 423.838 55.2131 420.973C57.1336 417.685 60.7232 415.221 64.514 415.392C68.8578 415.593 72.4776 419.133 74.1267 423.185C75.7757 427.237 75.826 431.711 75.8561 436.085C75.8561 438.499 75.7656 441.223 73.9959 442.852C72.2262 444.481 69.8935 444.371 67.6814 444.31L43.9514 443.576" fill="#F5F5F5"/>
<path d="M88.8137 378.7H26.3516L37.5931 445.737C37.8257 447.135 38.4498 448.438 39.3931 449.495C40.3364 450.552 41.5601 451.32 42.9223 451.71L43.1435 451.77C43.325 451.827 43.5097 451.874 43.6966 451.911C44.1138 451.997 44.5377 452.047 44.9635 452.062V452.122L45.2652 452.072H73.1479C73.6611 452.072 74.1731 452.022 74.6762 451.921C76.2991 451.669 77.7949 450.892 78.9351 449.71C80.0753 448.528 80.7973 447.006 80.9908 445.375L86.4105 399.182L86.6518 397.342L88.8036 379.042L88.8137 378.7ZM77.0392 421.464H70.5939L71.2776 402.048H78.6983L77.0392 421.464ZM79.3217 402.048H85.4553L83.1728 421.504H77.6324L79.3217 402.048ZM61.0215 443.072L60.6293 426.18H69.8498L69.2968 443.082L61.0215 443.072ZM51.0468 426.18H60.0059L60.398 443.082H52.354L51.0468 426.18ZM51.7406 443.082H44.2295C43.5156 438.517 42.5805 432.585 41.5749 426.18H50.4234L51.7406 443.082ZM50.7351 421.514L49.1766 402.048H59.4529L59.9053 421.504L50.7351 421.514ZM60.569 421.514L60.0763 402.048H70.6542L70.0107 421.504L60.569 421.514ZM60.016 397.382L59.5333 379.324H71.4083L70.8151 397.342L60.016 397.382ZM59.3925 397.382H48.8045L47.4069 379.324H58.93L59.3925 397.382ZM48.2415 397.382H37.0401C36.648 394.889 36.2659 392.536 35.934 390.414C34.7677 383.134 34.3353 380.359 34.094 379.354H46.7835L48.2415 397.382ZM48.6034 402.048L50.1117 421.504H40.8409C40.5292 419.493 40.2175 417.533 39.9058 415.532C39.1818 410.937 38.4579 406.351 37.7741 402.048H48.6034ZM40.2678 421.504H34.2347L30.9266 402.048H37.1507C38.1059 408.021 39.1517 414.717 40.2175 421.464L40.2678 421.504ZM41.0018 426.17C41.9168 432.022 42.8218 437.783 43.6463 443.072H37.8143L34.9788 426.18L41.0018 426.17ZM69.9604 443.072L70.4732 426.18H76.6269L75.179 443.082L69.9604 443.072ZM71.4787 397.382L72.082 379.364H80.649L79.1105 397.382H71.4787ZM33.5007 379.324C33.742 380.621 34.8883 387.72 36.4066 397.342H30.1423L27.1258 379.324H33.5007ZM80.649 443.032H75.8225L77.2604 426.18H82.66L80.649 443.032ZM86.0083 397.342H79.7138L81.2523 379.324H88.1098L86.0083 397.342Z" fill="#E0E0E0"/>
<path d="M138.136 18.8486H37.4844V164.737H138.136V18.8486Z" fill="#E0E0E0"/>
<path d="M133.05 18.8486H32.3984V164.737H133.05V18.8486Z" fill="#F5F5F5"/>
<path d="M120.566 34.6338H44.9219V148.919H120.566V34.6338Z" fill="white"/>
<path d="M120.526 148.928C120.526 148.928 120.526 148.737 120.526 148.365C120.526 147.993 120.526 147.45 120.526 146.746C120.526 145.309 120.526 143.207 120.526 140.482C120.526 135.002 120.526 127.019 120.456 116.943C120.456 96.8334 120.385 68.247 120.335 34.6431L120.586 34.8945H44.9523L45.2338 34.623C45.2338 77.7389 45.2338 117.486 45.1735 148.908L44.9523 148.687L100.014 148.808L115.227 148.858H119.249C120.144 148.858 120.627 148.858 120.627 148.858C120.627 148.858 120.184 148.858 119.289 148.858H115.338L100.175 148.908L44.9824 149.029H44.7713V148.808C44.7713 117.386 44.7713 77.6384 44.7109 34.5225V34.251H44.9925H120.627H120.878V34.5024C120.828 68.1766 120.788 96.7731 120.757 116.953C120.757 127.008 120.697 134.972 120.687 140.442C120.687 143.147 120.687 145.228 120.687 146.656C120.687 147.35 120.687 147.883 120.687 148.245C120.687 148.607 120.526 148.928 120.526 148.928Z" fill="#E0E0E0"/>
<path d="M133.284 18.8486C132.754 19.763 132.152 20.6339 131.484 21.453C130.317 23.0116 128.658 25.1434 126.768 27.4863C124.877 29.8292 123.098 31.8202 121.79 33.2682C121.121 34.0827 120.38 34.8365 119.578 35.5206C120.146 34.6327 120.788 33.795 121.499 33.0168C122.846 31.3778 124.515 29.3566 126.345 27.1344L131.182 21.2519C131.812 20.3916 132.515 19.5875 133.284 18.8486Z" fill="#E0E0E0"/>
<path d="M120.938 148.556C124.699 154.536 129.124 160.072 134.13 165.057L120.938 148.556Z" fill="white"/>
<path d="M134.181 165.057C133.344 164.443 132.576 163.742 131.888 162.965C130.112 161.187 128.434 159.314 126.86 157.354C125.293 155.401 123.83 153.367 122.476 151.261C121.87 150.416 121.354 149.509 120.938 148.556C121.617 149.341 122.238 150.175 122.798 151.049C123.904 152.608 125.463 154.73 127.283 157.012C129.103 159.295 130.842 161.276 132.119 162.704C132.861 163.438 133.55 164.225 134.181 165.057Z" fill="#E0E0E0"/>
<path d="M32.3594 164.609L45.5422 148.339L32.3594 164.609Z" fill="white"/>
<path d="M45.5375 148.339C43.5641 151.221 41.4359 153.993 39.1623 156.645C37.034 159.417 34.7617 162.075 32.3547 164.609C32.2441 164.518 35.0998 160.798 38.7399 156.303C40.8702 153.535 43.139 150.877 45.5375 148.339Z" fill="#E0E0E0"/>
<path d="M32.3594 18.8486C34.6266 21.2795 36.7615 23.8306 38.7547 26.4908C40.89 29.0446 42.884 31.7133 44.7277 34.4849C42.4775 32.0521 40.3627 29.4975 38.3927 26.8327C36.2372 24.2836 34.223 21.6183 32.3594 18.8486Z" fill="#E0E0E0"/>
<path d="M97.0319 57.8516H71.7031V129.765H97.0319V57.8516Z" fill="#E0E0E0"/>
<path d="M443.549 9.06055H348.539V108.102H443.549V9.06055Z" fill="#E0E0E0"/>
<path d="M437.143 9.06055H342.133V108.102H437.143V9.06055Z" fill="#FAFAFA"/>
<path d="M437.153 108.14H342.133V9.03809H437.153V108.14ZM342.133 108.08H437.083V9.09842H342.133V108.08Z" fill="#E0E0E0"/>
<path d="M424.345 22.3721H354.875V94.7883H424.345V22.3721Z" fill="white"/>
<path d="M354.813 95.2754C354.322 96.0091 353.748 96.6839 353.103 97.2865C351.987 98.4529 350.429 100.042 348.689 101.761C346.949 103.481 345.33 105.019 344.144 106.105C343.542 106.739 342.867 107.299 342.133 107.774C342.626 107.042 343.199 106.368 343.842 105.763C344.948 104.597 346.517 103.008 348.267 101.279C350.016 99.549 351.635 98.0105 352.812 96.9245C353.41 96.2961 354.082 95.7423 354.813 95.2754Z" fill="#E0E0E0"/>
<path d="M424.359 95.0918C425.096 95.5793 425.771 96.1532 426.37 96.8012C427.547 97.9174 429.126 99.476 430.845 101.226C432.565 102.975 434.103 104.574 435.199 105.761C435.833 106.363 436.394 107.038 436.868 107.772C436.135 107.281 435.46 106.707 434.857 106.062C433.691 104.956 432.102 103.388 430.373 101.638C428.643 99.8883 427.115 98.2693 426.019 97.0928C425.39 96.4919 424.834 95.8205 424.359 95.0918Z" fill="#E0E0E0"/>
<path d="M424.055 22.5744C424.548 21.8401 425.125 21.1652 425.774 20.5634C426.88 19.3869 428.439 17.8082 430.189 16.0887C431.938 14.3692 433.537 12.8307 434.724 11.7447C435.324 11.1063 435.999 10.5425 436.735 10.0654C436.248 10.8021 435.674 11.4774 435.025 12.0765C433.919 13.243 432.351 14.8317 430.601 16.5613C428.851 18.2908 427.242 19.8193 426.056 20.9153C425.457 21.5463 424.786 22.1034 424.055 22.5744Z" fill="#E0E0E0"/>
<path d="M354.642 22.7639C353.908 22.2702 353.233 21.6932 352.631 21.0445C351.464 19.9384 349.876 18.3798 348.156 16.6301C346.437 14.8805 344.898 13.2716 343.812 12.0951C343.174 11.4945 342.61 10.8193 342.133 10.084C342.87 10.5708 343.545 11.1447 344.144 11.7934C345.31 12.8995 346.899 14.4581 348.629 16.2178C350.358 17.9775 351.887 19.5764 352.983 20.7629C353.617 21.3577 354.175 22.03 354.642 22.7639Z" fill="#E0E0E0"/>
<path d="M424.05 94.7884C424.05 94.7884 424.05 94.6577 424.05 94.4365C424.05 94.2153 424.05 93.8533 424.05 93.431C424.05 92.526 424.05 91.2189 424.05 89.5196C424.05 86.0908 424.05 81.1035 423.979 74.7689C423.979 62.0795 423.899 44.0106 423.839 22.3823L424.11 22.6437H354.841L355.152 22.3421C355.152 48.9175 355.152 73.7835 355.102 94.7381L354.841 94.4667L405.005 94.6074L419.082 94.6778H422.813H423.818C423.929 94.6696 424.04 94.6696 424.15 94.6778H423.849H422.913H419.233L405.206 94.7482L354.871 94.8789H354.609V94.6175C354.609 73.6427 354.609 48.7767 354.609 22.2214V22.0605H354.921H424.19H424.462V22.332C424.402 44.0307 424.351 62.1599 424.321 74.8896C424.321 81.194 424.321 86.1713 424.251 89.5799C424.251 91.2558 424.251 92.5428 424.251 93.441C424.251 93.8634 424.251 94.1851 424.251 94.4465C424.195 94.5668 424.128 94.6814 424.05 94.7884Z" fill="#E0E0E0"/>
<path d="M401.208 46.9951H378.031V70.1719H401.208V46.9951Z" fill="#EBEBEB"/>
<path d="M292.258 420.328V450.604H336.53H385.368V420.328H292.258Z" fill="#F5F5F5"/>
<path d="M288.352 411.865V420.332H388.621V411.865H336.535H288.352Z" fill="#E0E0E0"/>
<path d="M338.38 450.607H385.267V420.332H388.515V411.865H336.43V419.547L338.38 450.607Z" fill="#E0E0E0"/>
<path d="M324.025 425.204H305.141V429.759H324.025V425.204Z" fill="#E0E0E0"/>
<path d="M327.001 435.465H302.758V445.087H327.001V435.465Z" fill="white"/>
<path d="M306.516 381.626V411.902H350.798H399.626V381.626H306.516Z" fill="#F5F5F5"/>
<path d="M302.945 373.156V381.623H403.225V373.156H351.129H302.945Z" fill="#EBEBEB"/>
<path d="M352.654 411.898H399.983V381.623H402.788V373.156H350.703V380.838L352.654 411.898Z" fill="#EBEBEB"/>
<path d="M338.4 386.504H319.516V391.059H338.4V386.504Z" fill="#E0E0E0"/>
<path d="M341.407 396.756H317.164V406.379H341.407V396.756Z" fill="white"/>
<path d="M471 451.595C471 451.736 365.552 451.856 235.51 451.856C105.468 451.856 0 451.736 0 451.595C0 451.454 105.428 451.313 235.5 451.313C365.572 451.313 471 451.444 471 451.595Z" fill="#263238"/>
<path d="M233.241 199.329V200.335H229.219V199.54L231.532 196.805H229.279V195.8H233.191V196.594L230.878 199.329H233.241Z" fill="#263238"/>
<path d="M225.853 194.921V197.294H216.391V195.433L221.801 189.038H216.531V186.665H225.692V188.525L220.262 194.921H225.853Z" fill="#263238"/>
<path d="M212.362 189.467V194.244H193.258V190.503L204.168 177.602H193.539V172.786H212V176.527L201.101 189.427L212.362 189.467Z" fill="#263238"/>
<path d="M169 65.0566C169 55.7125 176.336 48.8623 186.278 48.8623C196.221 48.8623 203.573 55.6963 203.573 65.0566C203.573 74.417 196.237 81.251 186.278 81.251C176.319 81.251 169 74.3846 169 65.0566ZM194.683 65.0566C194.733 63.9229 194.552 62.7909 194.153 61.7287C193.753 60.6666 193.143 59.6964 192.358 58.8765C191.574 58.0567 190.631 57.4042 189.588 56.9585C188.544 56.5127 187.421 56.2829 186.287 56.2829C185.152 56.2829 184.029 56.5127 182.985 56.9585C181.942 57.4042 180.999 58.0567 180.215 58.8765C179.43 59.6964 178.82 60.6666 178.42 61.7287C178.021 62.7909 177.84 63.9229 177.89 65.0566C177.84 66.1903 178.021 67.3224 178.42 68.3845C178.82 69.4467 179.43 70.4169 180.215 71.2367C180.999 72.0566 181.942 72.709 182.985 73.1548C184.029 73.6005 185.152 73.8303 186.287 73.8303C187.421 73.8303 188.544 73.6005 189.588 73.1548C190.631 72.709 191.574 72.0566 192.358 71.2367C193.143 70.4169 193.753 69.4467 194.153 68.3845C194.552 67.3224 194.733 66.1903 194.683 65.0566Z" fill="#324C72"/>
<path d="M206.258 68.5259C206.258 61.2709 211.99 56.1211 219.86 56.1211C227.73 56.1211 233.447 61.2709 233.447 68.5259C233.447 75.781 227.811 80.9956 219.86 80.9956C211.909 80.9956 206.258 75.7972 206.258 68.5259ZM224.913 68.5259C224.913 64.8822 222.743 62.8255 219.86 62.8255C216.978 62.8255 214.792 64.8822 214.792 68.5259C214.792 72.1697 217.01 74.2911 219.86 74.2911C222.71 74.2911 224.913 72.2021 224.913 68.5259Z" fill="#324C72"/>
<path d="M264.307 68.5589C264.307 76.2026 259.028 80.9961 252.486 80.9961C251.255 81.0572 250.024 80.8645 248.871 80.4299C247.718 79.9953 246.666 79.3281 245.782 78.4698V89.2228H237.312V56.5265H245.409V58.9232C246.303 57.9467 247.408 57.1869 248.64 56.7014C249.872 56.216 251.198 56.0177 252.518 56.1216C259.028 56.1216 264.307 60.9151 264.307 68.5589ZM255.773 68.5589C255.773 64.9151 253.555 62.8261 250.721 62.8261C247.887 62.8261 245.652 64.9151 245.652 68.5589C245.652 72.2026 247.871 74.2916 250.721 74.2916C253.571 74.2916 255.773 72.2026 255.773 68.5589Z" fill="#324C72"/>
<path d="M266.344 78.5139L268.87 72.7325C271.43 74.1913 274.328 74.956 277.274 74.9512C280.108 74.9512 281.047 74.3358 281.047 73.3317C281.047 70.0929 266.83 73.769 266.83 64.1333C266.83 59.5989 271.007 56.1333 278.554 56.1333C281.838 56.0661 285.092 56.7647 288.059 58.1738L285.533 63.9066C283.414 62.7289 281.027 62.1155 278.602 62.1252C275.752 62.1252 274.732 62.935 274.732 63.7447C274.732 67.0645 288.901 63.4694 288.901 73.024C288.901 77.4613 284.821 80.9269 276.999 80.9269C273.302 81.0241 269.639 80.1946 266.344 78.5139Z" fill="#324C72"/>
<path d="M291.508 76.3301C291.631 75.0776 292.215 73.9157 293.148 73.0704C294.08 72.2251 295.294 71.7569 296.552 71.7569C297.811 71.7569 299.024 72.2251 299.956 73.0704C300.889 73.9157 301.473 75.0776 301.596 76.3301C301.523 77.6186 300.96 78.8302 300.022 79.7166C299.084 80.603 297.843 81.0968 296.552 81.0968C295.262 81.0968 294.02 80.603 293.082 79.7166C292.144 78.8302 291.581 77.6186 291.508 76.3301ZM291.508 49.4961H301.548L299.847 69.2694H293.143L291.508 49.4961Z" fill="#324C72"/>
<path d="M123.361 359.164H110.953V418.76H123.361V359.164Z" fill="#E0E0E0"/>
<path d="M72.8438 351.493C73.0449 351.493 111.053 363.408 111.053 363.408H123.451L166.979 351.493H72.8438Z" fill="#E0E0E0"/>
<path d="M38.1312 151.614C32.6311 152.851 27.7142 157.928 28.5387 168.064C28.5387 168.064 24.1547 168.888 24.4262 176.842C24.6977 184.795 23.8832 234.155 33.7472 261.002C41.8617 283.073 55.8684 330.281 60.6345 346.4C61.1055 347.994 62.0798 349.393 63.4119 350.388C64.744 351.383 66.3623 351.921 68.0249 351.92H175.333C177.223 351.913 179.092 351.526 180.829 350.781C182.567 350.036 184.136 348.949 185.444 347.585C186.752 346.221 187.772 344.607 188.443 342.84C189.114 341.073 189.422 339.189 189.349 337.3C189.186 333.662 187.618 330.228 184.976 327.721C182.334 325.215 178.824 323.829 175.182 323.856L96.9333 324.671C96.9333 324.671 92.137 298.829 87.2 298.528C87.2 298.528 89.392 282.349 81.1669 277.694C81.1669 277.694 82.8059 257.724 74.0379 255.925C74.0379 255.925 75.4054 239.213 68.0048 236.247C68.0048 236.247 72.1174 221.215 64.4453 213.543C64.4453 213.543 66.6373 195.997 64.4453 182.835C62.2533 169.673 61.4489 146.415 38.1312 151.614Z" fill="#455A64"/>
<path d="M180.767 338.919C180.767 338.919 180.586 338.919 180.224 338.919H178.635L172.471 338.969L149.496 339.04L70.875 339.13H70.694L70.6337 338.959L59.5731 306.884C53.1479 288.091 47.0646 270.173 41.7052 253.823C40.3679 249.731 39.0809 245.779 37.8743 241.838C37.2492 239.924 36.7323 237.977 36.3258 236.006C36.1186 235.043 35.9641 234.07 35.8632 233.09C35.7526 232.084 35.5817 231.159 35.5214 230.204C34.8276 222.572 34.6667 215.433 34.5159 208.928C34.3449 195.917 34.5159 185.379 34.6969 178.109C34.7974 174.479 34.8779 171.664 34.9281 169.733L35.0186 167.551C35.0186 167.059 35.0689 166.817 35.0689 166.817C35.0689 166.817 35.0689 167.069 35.0689 167.551C35.0689 168.034 35.0689 168.788 35.0689 169.733C35.0689 171.664 34.9885 174.489 34.9281 178.109C34.8276 185.389 34.6969 195.917 34.9281 208.928C35.0689 215.423 35.2499 222.552 35.9336 230.164C36.004 231.169 36.1649 232.064 36.2755 233.03C36.3791 234 36.5368 234.963 36.7481 235.915C37.1753 237.889 37.7158 239.836 38.367 241.747C39.5736 245.639 40.8707 249.62 42.2181 253.713C47.5975 270.052 53.7009 287.96 60.1161 306.753C63.937 317.813 67.6373 328.653 71.1767 338.839L70.9353 338.668L149.556 338.758L172.532 338.828H178.696H180.284C180.586 338.899 180.767 338.919 180.767 338.919Z" fill="#263238"/>
<path d="M85.1719 324.784C84.8671 325.109 84.5302 325.402 84.1664 325.659C83.4927 326.192 82.5375 326.996 81.3912 328.002C78.3993 330.638 75.6158 333.503 73.0656 336.569C70.5178 339.635 68.1989 342.885 66.1276 346.292C65.3333 347.599 64.7099 348.675 64.2976 349.429C64.1017 349.83 63.8659 350.211 63.5938 350.565C63.7254 350.139 63.9006 349.728 64.1166 349.338C64.4786 348.554 65.0517 347.448 65.8059 346.111C67.7976 342.622 70.0923 339.314 72.6634 336.227C75.225 333.137 78.0659 330.289 81.1499 327.72C82.3364 326.715 83.3319 325.981 84.0357 325.498C84.3878 325.22 84.7687 324.981 85.1719 324.784Z" fill="#263238"/>
<path d="M96.9738 324.621C96.9738 324.621 96.7123 324.621 96.1995 324.621L93.9472 324.681L85.2998 324.822H85.1892V324.712L85.0082 323.646C84.8997 323.302 84.7687 322.966 84.6161 322.64C84.2611 321.935 83.6438 321.397 82.8967 321.142C81.1456 320.764 79.3165 321.055 77.7686 321.957L77.4066 322.127L77.5373 321.755C78.7509 318.208 78.9253 314.388 78.0401 310.745C77.0431 306.447 74.6448 302.601 71.2227 299.815L71.092 299.715L71.1524 299.564C72.2321 296.496 72.3786 293.176 71.5733 290.025C70.7679 286.873 69.047 284.031 66.6276 281.857L66.4969 281.757L66.5572 281.596C67.8642 277.358 67.7892 272.815 66.3431 268.623C64.897 264.431 62.1548 260.808 58.5131 258.278L58.3925 258.198V258.057C58.4732 255.282 58.3859 252.505 58.1311 249.741C57.8915 246.915 57.3694 244.119 56.5725 241.396C55.748 238.761 54.5012 236.127 52.2991 234.599L52.1382 234.488L52.1986 234.307C53.3649 230.267 53.8242 226.056 53.556 221.859C53.3973 219.867 52.9712 217.905 52.2891 216.027C51.588 214.22 50.5661 212.554 49.2725 211.11L49.1519 210.969L49.2424 210.819C51.4476 207.317 52.6573 203.282 52.7415 199.145C52.7578 195.409 51.5421 191.773 49.2826 188.798V188.738V188.667C49.4061 183.702 48.4059 178.773 46.3566 174.248C45.4782 172.416 44.2163 170.794 42.6563 169.492C41.3256 168.421 39.7676 167.668 38.1014 167.29C36.761 167.002 35.3863 166.907 34.019 167.009L32.38 167.19L31.0326 167.461C30.2282 167.612 29.635 167.833 29.2328 167.924C28.8306 168.014 28.6094 168.075 28.6094 168.075C29.394 167.792 30.1928 167.551 31.0025 167.351L32.3499 167.049L34.0089 166.838C35.3909 166.716 36.7832 166.798 38.1416 167.079C39.8536 167.438 41.4582 168.192 42.8272 169.281C44.4312 170.596 45.7313 172.243 46.6381 174.108C48.7359 178.673 49.7674 183.655 49.6546 188.677V188.557C51.9827 191.595 53.2412 195.317 53.2342 199.145C53.1614 203.371 51.9378 207.497 49.6949 211.08V210.788C51.0276 212.265 52.0866 213.968 52.822 215.816C53.5314 217.758 53.9712 219.788 54.1291 221.849C54.4171 226.112 53.9577 230.393 52.7717 234.498L52.5505 234.126C54.9335 235.785 56.1904 238.52 57.035 241.165C57.8546 243.918 58.387 246.748 58.6238 249.611C58.8805 252.398 58.9644 255.199 58.8751 257.997L58.7645 257.765C62.5046 260.355 65.3216 264.069 66.8061 268.369C68.2907 272.669 68.3655 277.331 67.0197 281.676L66.9493 281.405C69.441 283.653 71.2061 286.593 72.0192 289.849C72.8323 293.105 72.6565 296.529 71.5143 299.685L71.444 299.433C74.9376 302.28 77.3738 306.218 78.3618 310.615C79.2513 314.329 79.0524 318.221 77.7887 321.826L77.5675 321.625C78.4241 321.202 79.334 320.898 80.2723 320.72C81.1583 320.523 82.0802 320.562 82.947 320.83C83.3669 320.982 83.7513 321.218 84.0765 321.524C84.4016 321.831 84.6605 322.2 84.8373 322.61C84.9978 322.969 85.1323 323.338 85.2395 323.716L85.4205 324.822L85.2998 324.712H93.9472H96.1995L96.9738 324.621Z" fill="#263238"/>
<g opacity="0.3">
<path d="M82.5819 277.367L46.6953 281.992C47.2353 282.946 47.988 283.763 48.8948 284.378C49.8017 284.994 50.8382 285.392 51.924 285.542C54.094 285.815 56.2923 285.771 58.4497 285.411C67.7411 284.403 77.0932 284.067 86.4329 284.406C85.3865 281.937 84.0964 279.579 82.5819 277.367Z" fill="black"/>
</g>
<path d="M64.8622 211.602C62.3888 211.926 59.8952 212.07 57.401 212.035C54.9111 212.168 52.4151 212.134 49.9297 211.934C52.4031 211.611 54.8967 211.466 57.3909 211.502C59.8808 211.368 62.3768 211.402 64.8622 211.602Z" fill="#263238"/>
<path d="M64.5234 442.267C64.5234 442.267 70.2649 424.751 78.1782 420.508C90.8878 413.701 120.198 410.453 120.198 410.453L123.406 418.738C123.406 418.738 84.3219 420.277 78.1581 428.16C74.6435 432.678 71.3678 437.377 68.3444 442.237L64.5234 442.267Z" fill="#E0E0E0"/>
<path d="M69.4521 451.568C74.0337 451.568 77.7479 447.854 77.7479 443.272C77.7479 438.691 74.0337 434.977 69.4521 434.977C64.8704 434.977 61.1562 438.691 61.1562 443.272C61.1562 447.854 64.8704 451.568 69.4521 451.568Z" fill="#263238"/>
<path d="M170.461 441.955C170.461 441.955 164.719 424.439 156.806 420.196C144.096 413.388 114.796 410.141 114.796 410.141L111.578 418.426C111.578 418.426 150.662 419.964 156.826 427.858C160.342 432.374 163.618 437.073 166.64 441.935L170.461 441.955Z" fill="#E0E0E0"/>
<path d="M167.476 451.568C172.057 451.568 175.771 447.854 175.771 443.272C175.771 438.691 172.057 434.977 167.476 434.977C162.894 434.977 159.18 438.691 159.18 443.272C159.18 447.854 162.894 451.568 167.476 451.568Z" fill="#263238"/>
<path d="M112.883 414.917L114.703 437.46L119.831 438.476V414.917" fill="#E0E0E0"/>
<path d="M117.124 451.568C121.706 451.568 125.42 447.854 125.42 443.272C125.42 438.691 121.706 434.977 117.124 434.977C112.542 434.977 108.828 438.691 108.828 443.272C108.828 447.854 112.542 451.568 117.124 451.568Z" fill="#263238"/>
<path d="M55.4609 238.399C57.4538 237.724 59.4985 237.213 61.5747 236.871C63.6181 236.364 65.7001 236.028 67.7991 235.865C65.8067 236.542 63.7619 237.053 61.6853 237.394C59.6416 237.899 57.5598 238.235 55.4609 238.399Z" fill="#263238"/>
<path d="M73.3126 255.934C72.6571 256.244 71.9642 256.467 71.2512 256.598C69.954 256.93 68.1541 257.312 66.143 257.603C64.1319 257.895 62.3018 258.106 60.9744 258.187C60.257 258.283 59.5299 258.283 58.8125 258.187C58.8125 258.036 62.0705 257.724 66.0626 257.09C70.0546 256.457 73.2724 255.793 73.3126 255.934Z" fill="#263238"/>
<path d="M88.1585 299.395C87.3784 299.612 86.5747 299.733 85.7653 299.757C84.277 299.907 82.2157 300.038 79.933 300.108C77.6504 300.179 75.5891 300.108 74.0908 300.108C73.2833 300.129 72.4763 300.051 71.6875 299.877C72.4853 299.75 73.2937 299.703 74.1008 299.736L79.923 299.606L85.7351 299.405C86.5405 299.32 87.3524 299.317 88.1585 299.395Z" fill="#263238"/>
<path d="M92.2831 315.137C92.2831 315.298 88.9447 316.022 85.0532 317.681C81.1617 319.34 78.2858 321.23 78.1953 321.1C78.7265 320.555 79.3367 320.094 80.0053 319.732C81.5487 318.756 83.1697 317.908 84.8521 317.198C86.5304 316.483 88.2661 315.911 90.0407 315.489C90.7695 315.273 91.5234 315.155 92.2831 315.137Z" fill="#263238"/>
<path d="M159.424 352.105C159.424 352.245 139.646 352.326 115.252 352.266C90.8587 352.205 71.0703 352.064 71.0703 351.914C71.0703 351.763 90.8486 351.692 115.252 351.743C139.656 351.793 159.424 351.954 159.424 352.105Z" fill="#263238"/>
<path d="M122.768 363.839C120.813 364.103 118.837 364.19 116.866 364.1C114.891 364.191 112.912 364.103 110.953 363.839C112.913 363.58 114.891 363.493 116.866 363.577C118.837 363.493 120.812 363.58 122.768 363.839Z" fill="#263238"/>
<path d="M123.258 411.883C121.444 412.905 119.406 413.468 117.324 413.522C115.242 413.577 113.178 413.121 111.312 412.195C113.285 412.697 115.31 412.967 117.346 412.999C119.353 412.856 121.337 412.481 123.258 411.883Z" fill="#263238"/>
<path d="M245.554 225.618C245.554 225.618 240.828 218.368 238.093 215.895C235.982 213.994 225.735 210.224 221.13 208.585C219.654 208.063 218.101 207.791 216.535 207.78C210.502 207.72 194.555 207.78 186.43 209.228C176.305 211.078 243.483 263.907 243.483 263.907L299.439 264.038L303.099 250.223L265.745 242.51L245.132 226.161" fill="#E0E0E0"/>
<g opacity="0.3">
<path d="M201.797 211.128C201.797 211.128 205.497 211.309 210.655 212.133C215.814 212.958 221.475 213.219 224.31 215.733C226.211 217.412 237.834 217.744 237.834 217.744L221.746 217.151L201.797 211.128Z" fill="black"/>
</g>
<path d="M196.438 209.809C196.777 209.804 197.115 209.845 197.443 209.93C198.097 210.05 199.052 210.241 200.208 210.533C202.531 211.106 205.708 211.991 209.197 213.037L213.048 214.233H212.988C215.611 214.35 218.217 214.717 220.771 215.329C220.983 215.723 221.146 216.142 221.253 216.576C220.985 216.22 220.755 215.835 220.57 215.43L220.63 215.49C218.072 215.06 215.489 214.788 212.898 214.676H212.837L208.976 213.509L200.047 210.865L197.332 210.09C197.024 210.034 196.723 209.939 196.438 209.809Z" fill="#263238"/>
<path d="M342.68 263.512C342.76 263.089 341.573 258.273 341.453 257.79C341.332 257.308 337.652 251.757 337.652 251.757L335.641 251.144C335.641 251.144 326.29 248.922 324.399 249.052L323.082 249.193C323.082 249.193 320.629 249.374 319.663 249.545C318.698 249.716 312.715 251.818 312.715 251.818C311.249 252.128 309.747 252.24 308.251 252.149C306.188 251.815 304.144 251.372 302.127 250.822L299.734 263.994L304.259 263.853C305.672 264.354 307.13 264.715 308.613 264.929C310.242 265.04 314.857 265.543 314.857 265.543C314.857 265.543 321.986 268.559 323.776 264.356C325.566 260.153 318.688 259.721 318.688 259.721L320.82 258.213L326.28 257.649L327.698 258.102L329.256 260.515C329.256 260.515 328.834 265.844 332.273 265.482L333.178 265.382L333.66 259.912L332.031 254.382L335.631 259.841C335.631 259.841 335.943 264.567 337.501 265.181C337.621 265.235 337.752 265.259 337.883 265.251C339.774 265.191 340.146 264.658 340.146 264.658L340.538 263.703C340.538 263.703 342.408 264.949 342.68 263.512Z" fill="#FFBF9D"/>
<path d="M322.18 249.213C322.749 249.129 323.329 249.153 323.889 249.283C325.27 249.47 326.622 249.831 327.912 250.359C329.227 250.865 330.392 251.695 331.3 252.772C331.701 253.204 331.961 253.748 332.044 254.331C331.954 254.331 331.703 253.758 331.039 253.013C330.1 252.062 328.969 251.321 327.721 250.841C324.764 249.665 322.15 249.404 322.18 249.213Z" fill="#FF9A6C"/>
<path d="M325.719 254.966C325.86 254.966 325.96 255.539 326.031 256.223C326.101 256.907 326.121 257.49 325.98 257.53C325.84 257.57 325.588 257.007 325.508 256.283C325.427 255.559 325.568 254.956 325.719 254.966Z" fill="#FF9A6C"/>
<path d="M322.18 255.15C322.29 255.049 323.286 256.156 324.875 256.92C326.463 257.684 327.891 257.925 327.891 258.046C326.758 258.208 325.604 257.973 324.623 257.382C323.572 256.948 322.707 256.158 322.18 255.15Z" fill="#FF9A6C"/>
<path d="M310.789 255.639C311.294 255.682 311.779 255.855 312.197 256.141C313.268 256.73 314.187 257.56 314.882 258.565C315.097 258.887 315.292 259.223 315.465 259.57L315.193 259.43C316.502 259.167 317.859 259.282 319.105 259.761C317.826 259.742 316.546 259.799 315.274 259.932H315.093L315.002 259.771C314.837 259.449 314.652 259.137 314.449 258.836C313.443 257.548 312.201 256.463 310.789 255.639Z" fill="#FF9A6C"/>
<path d="M335.797 251.094C336.331 251.521 336.79 252.034 337.154 252.612C338.116 253.95 338.894 255.411 339.467 256.956C340.045 258.501 340.407 260.119 340.543 261.763C340.659 262.428 340.659 263.108 340.543 263.774C340.234 261.514 339.722 259.286 339.015 257.117C338.123 255.018 337.046 253.002 335.797 251.094Z" fill="#FF9A6C"/>
<path d="M246.708 408.861L245.703 436.07C245.703 436.07 272.982 446.286 273.284 451.313L220.454 451.203L220.344 408.73L246.708 408.861Z" fill="#455A64"/>
<path d="M229.433 433.755C228.925 433.908 228.492 434.243 228.217 434.696C227.942 435.149 227.845 435.688 227.944 436.209C228.076 436.724 228.401 437.169 228.853 437.45C229.304 437.731 229.847 437.827 230.368 437.717C230.907 437.553 231.366 437.195 231.656 436.712C231.945 436.229 232.045 435.655 231.936 435.103C231.739 434.583 231.349 434.159 230.847 433.919C230.345 433.679 229.77 433.642 229.241 433.816" fill="#E0E0E0"/>
<path d="M220.562 451.196L220.723 446.912L271.31 448.621C271.31 448.621 273.653 449.627 273.392 451.306L220.562 451.196Z" fill="#263238"/>
<path d="M246.535 435.803C246.535 436.065 245.228 436.175 243.961 437C242.694 437.824 242.01 438.91 241.769 438.81C241.527 438.709 241.92 437.221 243.478 436.246C245.037 435.27 246.585 435.572 246.535 435.803Z" fill="white"/>
<path d="M252.143 438.104C252.203 438.355 251.087 438.788 250.202 439.884C249.317 440.98 249.076 442.126 248.815 442.116C248.553 442.106 248.392 440.638 249.519 439.311C250.645 437.983 252.143 437.863 252.143 438.104Z" fill="white"/>
<path d="M255.203 444.741C254.961 444.802 254.609 443.515 255.273 442.097C255.937 440.679 257.143 440.086 257.284 440.347C257.425 440.609 256.64 441.353 256.118 442.479C255.595 443.605 255.454 444.721 255.203 444.741Z" fill="white"/>
<path d="M246.116 429.578C246.005 429.809 244.819 429.457 243.361 429.578C241.903 429.699 240.766 430.131 240.636 429.91C240.505 429.689 241.591 428.774 243.31 428.683C245.03 428.593 246.237 429.377 246.116 429.578Z" fill="white"/>
<path d="M204.364 406.074L187.27 427.189C187.27 427.189 202.976 451.723 200.231 455.946L158 424.173L183.349 390.116L204.364 406.074Z" fill="#455A64"/>
<path d="M175.668 415.539C175.168 415.36 174.62 415.371 174.127 415.569C173.634 415.767 173.231 416.139 172.994 416.615C172.792 417.102 172.783 417.648 172.97 418.141C173.157 418.635 173.525 419.038 173.999 419.269C174.529 419.46 175.11 419.449 175.632 419.237C176.153 419.026 176.578 418.629 176.825 418.123C176.981 417.588 176.923 417.014 176.665 416.521C176.406 416.028 175.966 415.654 175.437 415.478" fill="#E0E0E0"/>
<path d="M158 424.169L160.685 420.841L200.151 452.534C200.151 452.534 201.418 454.766 200.211 455.933L158 424.169Z" fill="#263238"/>
<path d="M188.183 427.499C188.022 427.7 186.916 427.016 185.408 426.916C183.899 426.815 182.703 427.278 182.572 427.047C182.441 426.815 183.648 425.87 185.478 426.041C187.308 426.212 188.374 427.338 188.183 427.499Z" fill="white"/>
<path d="M191.233 432.652C191.132 432.894 189.976 432.572 188.618 432.914C187.261 433.256 186.366 434.03 186.165 433.869C185.963 433.708 186.718 432.441 188.407 432.039C190.096 431.637 191.383 432.451 191.233 432.652Z" fill="white"/>
<path d="M189.747 439.844C189.525 439.754 190.008 438.507 191.396 437.773C192.783 437.039 194.071 437.32 194.03 437.561C193.99 437.803 192.934 437.944 191.818 438.567C190.702 439.19 189.968 439.985 189.747 439.844Z" fill="white"/>
<path d="M191.472 422.241C191.251 422.361 190.517 421.366 189.29 420.571C188.063 419.777 186.877 419.455 186.907 419.204C186.937 418.953 188.355 418.862 189.793 419.827C191.231 420.793 191.693 422.16 191.472 422.241Z" fill="white"/>
<path d="M244.109 218.308C249.229 216.944 254.457 216.025 259.735 215.563C265.04 215.11 270.374 215.981 275.26 218.097C275.984 218.429 280.83 221.224 280.68 222.008C280.579 222.571 276.004 220.731 275.491 221.003C270.544 223.366 264.813 223.657 259.403 222.772C254.157 221.865 249.028 220.377 244.109 218.338" fill="#263238"/>
<path d="M216.72 216.301L264.241 219.428C277.513 220.081 288.192 228.337 287.176 241.549L287.015 242.766C286.213 248.679 283.215 254.074 278.618 257.878C274.02 261.682 268.159 263.617 262.2 263.298C250.697 262.664 237.997 261.83 231.914 260.925C219.295 259.095 219.053 246.194 219.053 246.194C219.053 246.194 217.927 246.054 214.207 245.712L202.141 237.014L216.72 216.301Z" fill="#FFBF9D"/>
<path d="M219.09 246.188C219.891 240.355 222.351 234.875 226.179 230.401C226.179 230.401 216.123 233.076 215.57 245.826L219.09 246.188Z" fill="#FF9A6C"/>
<path d="M253.155 251.869C253.417 252.071 252.572 253.569 252.824 255.509C253.075 257.45 254.231 258.747 254.02 258.989C253.809 259.23 253.477 258.938 252.944 258.375C252.256 257.607 251.82 256.645 251.697 255.62C251.564 254.607 251.758 253.579 252.25 252.684C252.633 252.03 253.035 251.779 253.155 251.869Z" fill="#263238"/>
<path d="M254.737 234.516C254.968 234.748 253.932 236.115 253.902 238.076C253.872 240.037 254.837 241.485 254.586 241.686C254.485 241.796 254.063 241.555 253.58 240.922C253.009 240.066 252.714 239.055 252.735 238.026C252.76 237.001 253.112 236.01 253.741 235.2C254.204 234.607 254.686 234.406 254.737 234.516Z" fill="#263238"/>
<path d="M243.269 245.749C243.447 246.815 243.494 247.899 243.41 248.977C243.41 249.48 243.41 249.982 243.752 250.093C244.259 250.207 244.79 250.161 245.27 249.962L249.242 249.007C254.893 247.7 259.509 246.825 259.559 247.056C259.61 247.288 255.074 248.524 249.423 249.832L245.401 250.726C244.752 250.965 244.039 250.965 243.39 250.726C243.224 250.631 243.083 250.499 242.977 250.34C242.87 250.182 242.802 250.001 242.777 249.811C242.741 249.528 242.741 249.241 242.777 248.957C242.803 247.871 242.968 246.793 243.269 245.749Z" fill="#263238"/>
<path d="M265.029 242.262C264.576 241.93 265.35 240.12 265.712 237.827C266.074 235.535 265.974 233.584 266.517 233.423C266.768 233.353 267.17 233.805 267.462 234.66C267.798 235.795 267.87 236.992 267.673 238.16C267.476 239.327 267.015 240.435 266.326 241.397C265.773 242.121 265.25 242.413 265.029 242.262Z" fill="#263238"/>
<path d="M262.646 260.755C262.254 260.293 262.907 258.744 263.159 256.864C263.41 254.984 263.279 253.314 263.792 253.003C264.034 252.862 264.446 253.174 264.798 253.928C265.201 254.96 265.319 256.082 265.14 257.176C265.006 258.278 264.571 259.322 263.883 260.192C263.35 260.796 262.867 260.957 262.646 260.755Z" fill="#263238"/>
<path d="M254.668 219.202C254.789 219.001 258.409 210.866 249.741 209.971C241.073 209.076 241.958 218.016 242.199 218.016C242.441 218.016 254.668 219.202 254.668 219.202Z" fill="#FFBF9D"/>
<path d="M245.901 215.7C245.901 215.7 245.811 215.54 245.72 215.268C245.608 214.894 245.644 214.491 245.821 214.142C246.253 213.257 247.781 212.634 249.35 212.754C250.096 212.808 250.821 213.028 251.472 213.398C251.726 213.514 251.95 213.688 252.125 213.906C252.3 214.124 252.42 214.381 252.477 214.655C252.504 214.835 252.468 215.018 252.374 215.174C252.281 215.33 252.136 215.448 251.965 215.509C251.713 215.6 251.542 215.509 251.522 215.57C251.502 215.63 251.653 215.771 252.015 215.741C252.236 215.711 252.441 215.608 252.598 215.449C252.802 215.228 252.91 214.935 252.9 214.635C252.867 214.273 252.742 213.925 252.536 213.625C252.33 213.326 252.05 213.085 251.723 212.925C251.013 212.473 250.2 212.207 249.36 212.151C247.6 212.02 245.871 212.744 245.388 213.961C245.295 214.187 245.254 214.43 245.268 214.674C245.282 214.918 245.351 215.155 245.469 215.369C245.7 215.66 245.891 215.731 245.901 215.7Z" fill="#FF9A6C"/>
<path d="M277.169 259.083C277.813 260.561 282.76 256.77 284.66 253.472C287.516 248.445 289.688 240.642 288.813 235.705C287.717 229.752 285.294 224.644 280.296 221.266C275.186 217.955 269.286 216.063 263.203 215.786C261.364 215.54 259.493 215.79 257.783 216.51C255.772 217.515 254.324 219.758 251.68 219.406C251.203 219.327 250.716 219.344 250.246 219.456C249.776 219.568 249.334 219.774 248.945 220.059C247.104 221.487 248.512 223.579 250.02 224.624C253.238 226.847 257.28 227.45 261.161 227.983C263.899 228.511 266.704 228.589 269.467 228.214C270.955 227.922 272.383 227.369 273.881 227.208C274.625 227.055 275.394 227.066 276.134 227.24C276.873 227.413 277.566 227.746 278.165 228.214C278.401 228.453 278.616 228.712 278.808 228.988C279.75 230.298 280.326 231.835 280.478 233.441C280.63 235.047 280.352 236.665 279.673 238.128C277.481 242.854 274.112 250.958 275.56 253.301C277.652 256.66 279.14 257.555 279.14 257.555L277.169 259.083Z" fill="#263238"/>
<path d="M254.799 214.964C254.636 213.937 254.188 212.976 253.505 212.192C252.822 211.408 251.932 210.832 250.938 210.529C250.938 210.459 251.33 210.419 251.943 210.58C252.723 210.796 253.422 211.237 253.954 211.847C254.488 212.449 254.837 213.193 254.96 213.988C254.96 214.592 254.869 214.964 254.799 214.964Z" fill="white"/>
<path d="M238.933 241.239C238.738 240.783 238.382 240.415 237.933 240.205C237.484 239.996 236.973 239.959 236.499 240.103L236.751 239.992C236.308 239.932 235.859 240.026 235.478 240.259C235.097 240.492 234.808 240.848 234.659 241.269C234.53 241.697 234.53 242.153 234.659 242.58C234.788 243.007 235.04 243.387 235.383 243.673C235.766 243.983 236.236 244.166 236.728 244.196C237.22 244.227 237.709 244.104 238.128 243.844C238.535 243.563 238.836 243.153 238.982 242.681C239.128 242.208 239.11 241.701 238.933 241.239Z" fill="#FF9A6C"/>
<path d="M238.583 243.479C238.874 243.136 239.034 242.701 239.036 242.252C239.075 241.783 238.981 241.312 238.764 240.894C238.37 240.487 237.833 240.249 237.266 240.231C236.7 240.143 236.121 240.265 235.637 240.572C235.442 240.695 235.274 240.856 235.144 241.047C235.014 241.237 234.925 241.452 234.883 241.679C234.844 242.122 234.939 242.567 235.154 242.956C235.154 242.956 234.993 242.956 234.823 242.714C234.598 242.402 234.488 242.022 234.511 241.638C234.538 241.349 234.627 241.068 234.773 240.817C234.919 240.565 235.118 240.348 235.355 240.18C235.939 239.767 236.66 239.597 237.367 239.708C237.72 239.722 238.066 239.812 238.382 239.972C238.698 240.131 238.976 240.357 239.197 240.633C239.462 241.139 239.547 241.721 239.438 242.282C239.405 242.657 239.25 243.01 238.996 243.287C238.724 243.489 238.583 243.509 238.583 243.479Z" fill="#263238"/>
<g opacity="0.1">
<path d="M287.662 233.382C286.282 228.924 283.591 224.986 279.939 222.08C276.287 219.174 271.844 217.436 267.19 217.093L263.691 216.932C263.082 216.851 262.463 216.909 261.881 217.103C261.591 217.207 261.344 217.406 261.18 217.666C261.016 217.927 260.944 218.235 260.976 218.541C261.127 219.225 261.881 219.547 262.555 219.728C266.577 220.804 270.8 220.603 274.691 221.97C278.414 223.28 281.506 225.945 283.352 229.434C285.197 232.922 285.659 236.979 284.646 240.793C284.445 241.361 284.357 241.961 284.384 242.563C284.402 242.864 284.521 243.151 284.721 243.378C284.922 243.604 285.193 243.756 285.49 243.809C285.769 243.787 286.038 243.698 286.274 243.549C286.51 243.4 286.707 243.196 286.848 242.955C288.849 240.29 288.648 236.56 287.662 233.382Z" fill="white"/>
</g>
<path d="M252.462 241.879C252.462 241.94 252.009 241.95 251.376 241.658C250.541 241.263 249.877 240.579 249.507 239.732C249.137 238.886 249.087 237.934 249.365 237.053C249.586 236.389 249.898 236.047 249.948 236.107C249.998 236.168 249.837 236.52 249.727 237.113C249.57 237.915 249.661 238.746 249.988 239.495C250.315 240.244 250.862 240.876 251.557 241.306C252.09 241.678 252.522 241.799 252.462 241.879Z" fill="#FF9A6C"/>
<path d="M250.002 258.404C249.57 257.573 249.425 256.623 249.589 255.701C249.753 254.779 250.216 253.937 250.907 253.306C251.037 253.406 250.343 254.382 250.102 255.799C249.861 257.217 250.152 258.364 250.002 258.404Z" fill="#FF9A6C"/>
<path d="M158 291.759C158.603 291.538 201.237 293.62 215.073 294.836C228.908 296.053 252.89 302.579 254.076 318.868C255.082 331.939 254.85 423.038 254.85 423.038H217.647L216.762 326.761L158.975 312.181L158 291.759Z" fill="#263238"/>
<g opacity="0.3">
<path d="M188.617 297.889C188.617 297.889 209.331 301.629 225.871 306.325C242.412 311.02 249.712 321.065 252.125 327.048C254.538 333.031 255.685 341.97 250.607 350.356C247.399 355.665 231.321 374.347 231.321 374.347C231.321 374.347 228.003 320.734 227.842 319.919C227.681 319.105 188.617 297.889 188.617 297.889Z" fill="black"/>
</g>
<path d="M250.404 333.135C248.654 322.798 236.95 315.569 222.602 310.189C208.464 304.87 171.472 291.728 171.472 291.728L162.613 289.546H158.652L157.344 285.625C157.344 285.625 132.207 278.355 95.8978 291.748L94.661 292.754C94.661 292.754 93.565 319.239 98.6831 324.93C98.6831 324.93 156.52 324.116 159.556 324.367C162.593 324.618 205.005 343.864 205.005 343.864L168.697 399.558L198.721 420.533C198.721 420.533 216.82 394.732 227.881 379.308C243.677 357.166 252.475 345.342 250.404 333.135Z" fill="#263238"/>
<path d="M250.377 333.141C250.377 333.141 250.467 333.764 250.618 334.981C250.772 336.782 250.704 338.595 250.417 340.38C249.911 343.271 249.022 346.081 247.773 348.736C246.095 352.341 244.163 355.822 241.991 359.153C237.185 366.724 230.669 375.492 223.439 385.829L198.865 420.659L198.744 420.83L198.573 420.71L168.539 399.755L168.358 399.624L168.478 399.433C179.589 382.39 191.846 363.557 204.767 343.728L204.868 344.101C196.824 340.454 188.572 336.767 180.112 333.04C175.889 331.2 171.636 329.35 167.322 327.55C165.16 326.675 162.998 325.75 160.786 324.986C160.52 324.888 160.248 324.808 159.972 324.745C159.703 324.653 159.42 324.612 159.137 324.624C158.564 324.624 157.971 324.624 157.388 324.624H153.838C134.884 324.725 116.403 324.986 98.6659 325.217H98.5453L98.4648 325.137C97.5786 324.001 96.9228 322.703 96.5342 321.316C96.1078 319.976 95.7718 318.609 95.5287 317.223C95.0466 314.498 94.711 311.749 94.5232 308.988C94.1713 303.508 94.1411 298.119 94.3121 292.81V292.699L94.4026 292.629L95.6393 291.623C105.897 287.834 116.582 285.321 127.454 284.142C132.542 283.597 137.664 283.429 142.778 283.64C147.692 283.73 152.584 284.323 157.377 285.409H157.488V285.52C157.941 286.898 158.363 288.185 158.785 289.452L158.584 289.311H162.606L171.475 291.503L207.432 304.524L222.213 309.883C226.353 311.41 230.384 313.218 234.279 315.293C241.317 319.033 246.003 323.427 248.084 327.118C248.553 327.914 248.969 328.741 249.331 329.591C249.576 330.216 249.787 330.854 249.965 331.502C250.206 332.557 250.306 333.09 250.306 333.09C250.306 333.09 250.166 332.557 249.914 331.512C249.794 330.989 249.512 330.375 249.251 329.631C249.12 329.249 248.889 328.877 248.698 328.465C248.493 328.019 248.254 327.588 247.984 327.178C245.882 323.528 241.197 319.194 234.168 315.484C230.272 313.432 226.241 311.648 222.102 310.145L207.401 304.876L171.424 291.925L162.566 289.743H158.544V289.602L157.126 285.691L157.277 285.832C152.566 284.731 147.755 284.111 142.918 283.982C137.828 283.778 132.729 283.952 127.665 284.504C116.833 285.689 106.189 288.201 95.9712 291.985H96.0415L94.8048 292.991L94.8953 292.81C94.7243 298.089 94.7645 303.488 95.1165 308.898C95.2874 311.641 95.6029 314.373 96.0616 317.083C96.3157 318.442 96.6515 319.785 97.0672 321.105C97.4384 322.424 98.0597 323.66 98.8972 324.745L98.7061 324.654C116.453 324.423 134.904 324.151 153.888 324.051H157.438C158.031 324.051 158.624 324.051 159.218 324.051C159.525 324.048 159.83 324.096 160.123 324.192C160.424 324.256 160.72 324.343 161.007 324.453C163.25 325.227 165.401 326.142 167.573 327.027C171.887 328.827 176.15 330.677 180.363 332.527C188.796 336.227 197.051 339.914 205.129 343.588L205.401 343.708L205.24 343.96L168.921 399.644L168.86 399.323L198.865 420.318H198.573L223.218 385.527C230.468 375.211 237.014 366.423 241.84 358.932C244.005 355.646 245.937 352.212 247.622 348.655C248.878 346.02 249.78 343.231 250.306 340.36C250.602 338.583 250.69 336.778 250.568 334.981C250.427 333.774 250.377 333.141 250.377 333.141Z" fill="#455A64"/>
<path d="M222.901 337.086C221.953 337.308 220.993 337.48 220.026 337.599C215.419 338.439 211.024 340.181 207.094 342.727C205.586 343.733 204.701 344.376 204.641 344.316C205.299 343.587 206.053 342.951 206.883 342.425C208.815 341.051 210.909 339.92 213.117 339.057C215.324 338.191 217.626 337.593 219.975 337.277C220.94 337.096 221.922 337.032 222.901 337.086Z" fill="#455A64"/>
<path d="M216.418 245.564V248.752L208.646 249.476L208.203 247.847L210.295 242.99L216.418 245.564Z" fill="#324C72"/>
<path d="M210.329 248.077L200.294 268.167L202.516 304.224L197.479 312.087L192.18 303.017L193.095 268.71L208.72 246.599L210.329 248.077Z" fill="#324C72"/>
<path d="M213.387 214.553C213.387 214.553 199.229 209.183 185.544 208.289C171.859 207.394 154.937 216.574 146.852 220.164C138.768 223.753 107.859 254.351 101.172 264.526C97.3411 270.378 92.2331 283.631 92.2331 283.631C91.3684 288.256 94.5961 292.761 94.5961 292.761L156.827 293.223H168.501L173.438 282.676C173.438 282.676 182.859 282.002 185.554 276.844C188.249 271.685 198.123 264.054 198.123 264.054L209.365 245.452L216.765 247.021L220.868 215.418L213.387 214.553Z" fill="#E0E0E0"/>
<path d="M167.239 228.7C167.187 229.072 167.092 229.436 166.957 229.786C166.726 230.591 166.434 231.556 166.082 232.702C165.156 235.908 164.397 239.16 163.81 242.445C163.238 245.736 162.846 249.056 162.633 252.39C162.573 253.576 162.513 254.592 162.472 255.406C162.476 255.781 162.438 256.155 162.362 256.522C162.28 256.156 162.246 255.781 162.261 255.406C162.261 254.692 162.261 253.647 162.261 252.39C162.354 249.018 162.691 245.658 163.267 242.335C163.85 239.028 164.663 235.765 165.7 232.571C166.102 231.345 166.464 230.369 166.706 229.706C166.844 229.351 167.023 229.014 167.239 228.7Z" fill="#263238"/>
<path d="M194.616 352.686C194.616 352.686 198.879 357.653 200.196 359.453C201.383 361.062 202.559 366.954 203.012 372.706C203.043 373.048 202.99 373.392 202.856 373.708C202.721 374.024 202.511 374.302 202.242 374.516C201.974 374.731 201.657 374.875 201.319 374.937C200.981 374.998 200.633 374.974 200.307 374.868C200.022 374.759 199.771 374.577 199.578 374.341C199.386 374.104 199.259 373.821 199.211 373.52C198.296 369.358 198.054 367.588 198.054 367.588C197.934 365.577 197.723 365.858 197.662 367.216C197.602 368.573 198.668 376.084 198.668 376.084C198.668 376.084 201.543 386.33 200.769 387.477C200.604 387.705 200.39 387.893 200.142 388.026C199.894 388.16 199.619 388.236 199.338 388.248C199.056 388.261 198.776 388.21 198.517 388.099C198.258 387.988 198.028 387.82 197.843 387.607C197.451 387.074 194.213 378.558 194.213 378.558L193.359 373.892C193.359 373.892 195.028 388.633 194.093 389.789C193.954 390 193.767 390.175 193.548 390.3C193.329 390.425 193.083 390.496 192.831 390.508C192.579 390.52 192.328 390.472 192.098 390.368C191.868 390.264 191.666 390.107 191.509 389.91C190.855 389.327 190.191 382.811 190.191 382.811L188.673 374.114L188.944 390.694C188.944 390.694 188.774 392.263 187.537 392.323C186.3 392.383 185.526 390.564 185.526 390.564L183.746 373.47C183.746 373.47 184.319 382.972 183.676 383.475C182.821 384.138 182.047 383.917 181.765 383.183C181.192 381.705 180.357 373.128 180.357 373.128L179.573 356.859L179 351.48L193.238 346.382L194.616 352.686Z" fill="#FFBF9D"/>
<g opacity="0.3">
<path d="M163.725 251.085C159.302 264.78 156.184 278.863 154.414 293.145C154.588 298.316 155.18 303.464 156.184 308.539C157.823 316.674 171.166 351.947 171.166 351.947L180.306 352.741L172.604 290.078L180.306 260.788L163.725 251.085Z" fill="black"/>
</g>
<path d="M204.625 224.368C210.89 226.299 212.066 238.998 210.719 242.618C206.405 254.232 192.62 265.141 192.821 264.508L183.862 300.143L196.561 348.407L176.029 355.757C176.029 355.757 157.296 306.206 156.924 298.443C156.552 290.681 162.133 270.45 162.957 258.354C163.49 250.582 167.432 234.815 177.034 225.535" fill="#E0E0E0"/>
<path d="M177.139 225.461C177.139 225.461 176.989 225.642 176.677 225.984C176.365 226.326 175.882 226.818 175.289 227.502C173.598 229.519 172.091 231.683 170.785 233.967C168.742 237.614 167.09 241.466 165.858 245.46C165.064 247.951 164.429 250.49 163.957 253.062C163.716 254.429 163.495 255.837 163.364 257.295C163.233 258.753 163.143 260.311 162.932 261.81C162.208 267.963 160.86 274.63 159.503 281.809C158.839 285.389 158.135 289.109 157.633 292.96C157.346 294.903 157.255 296.871 157.361 298.832L157.572 300.3L157.914 301.768C158.125 302.774 158.407 303.779 158.688 304.785C159.784 308.746 161.091 312.768 162.459 316.851C163.826 320.933 165.274 325.126 166.773 329.379C169.789 337.876 172.987 346.664 176.365 355.653L176.033 355.502L185.576 352.084L196.566 348.152L196.405 348.464C191.89 331.3 187.617 315.031 183.725 300.2V300.079C187.054 286.927 190.08 274.942 192.725 264.454L193.097 264.555C193.105 264.528 193.107 264.499 193.101 264.471C193.096 264.443 193.084 264.417 193.066 264.395C193.048 264.373 193.025 264.356 192.999 264.345C192.972 264.335 192.944 264.331 192.916 264.334H192.976L193.117 264.253L193.398 264.062L193.961 263.64L195.047 262.765C195.751 262.162 196.435 261.558 197.058 260.945C198.386 259.728 199.633 258.481 200.799 257.235C203.006 254.899 205.024 252.39 206.832 249.734C208.433 247.435 209.734 244.941 210.703 242.313C211.201 240.016 211.262 237.645 210.884 235.325C210.321 231.112 208.933 227.975 207.425 226.275C206.66 225.428 205.71 224.768 204.65 224.345C204.65 224.345 204.932 224.445 205.464 224.666C205.798 224.806 206.109 224.992 206.39 225.22C206.804 225.504 207.18 225.842 207.506 226.225C209.064 227.874 210.522 231.031 211.095 235.275C211.257 236.394 211.345 237.522 211.357 238.653C211.393 239.906 211.257 241.157 210.955 242.373C209.996 245.034 208.694 247.559 207.083 249.884C205.277 252.565 203.259 255.097 201.05 257.456C199.874 258.713 198.627 259.97 197.3 261.196C196.636 261.82 195.952 262.433 195.289 263.036C194.937 263.328 194.575 263.63 194.203 263.921L193.63 264.354L193.328 264.555L193.167 264.655H193.067H192.976C192.941 264.659 192.905 264.655 192.871 264.642C192.838 264.63 192.808 264.609 192.784 264.583C192.761 264.556 192.744 264.524 192.735 264.489C192.727 264.455 192.726 264.418 192.735 264.384L193.117 264.484L184.198 300.129V300.009L196.918 348.273L196.978 348.504L196.757 348.584L185.767 352.516L176.214 355.935L175.973 356.025L175.882 355.784C172.504 346.785 169.306 337.986 166.3 329.49C164.812 325.237 163.354 321.054 161.996 316.951C160.639 312.849 159.342 308.807 158.236 304.825C157.954 303.82 157.683 302.814 157.472 301.809C157.351 301.306 157.24 300.803 157.13 300.32C157.019 299.838 156.979 299.315 156.909 298.792C156.803 296.803 156.9 294.809 157.2 292.839C157.713 288.958 158.417 285.248 159.101 281.658C160.478 274.479 161.846 267.833 162.59 261.689C162.801 260.161 162.881 258.673 163.032 257.194C163.183 255.716 163.404 254.299 163.655 252.931C164.139 250.352 164.787 247.806 165.596 245.309C166.849 241.304 168.534 237.447 170.624 233.806C171.944 231.515 173.483 229.357 175.219 227.361C176.446 226.084 177.139 225.461 177.139 225.461Z" fill="#263238"/>
<path d="M210.413 232.62C210.31 231.731 210.31 230.834 210.413 229.945C210.511 227.797 210.719 225.656 211.036 223.53C211.352 221.403 211.782 219.295 212.323 217.215C212.498 216.336 212.778 215.482 213.158 214.671C213.072 215.557 212.914 216.435 212.685 217.295C212.354 218.904 211.931 221.137 211.559 223.61C211.187 226.084 210.946 228.336 210.785 229.975C210.741 230.866 210.616 231.751 210.413 232.62Z" fill="#263238"/>
<g opacity="0.3">
<path d="M212.709 215.408C212.498 215.318 212.276 215.529 212.136 215.72C210.822 217.245 209.772 218.978 209.029 220.848C207.912 224.186 209.099 227.887 210.115 231.305C211.061 234.567 211.401 237.975 211.12 241.36L210.869 242.537C211.95 240.419 212.256 237.989 211.733 235.669C211.205 233.372 210.796 231.05 210.507 228.711C210.275 224.397 212.015 220.255 212.88 216.032C212.93 215.831 212.94 215.499 212.709 215.408Z" fill="black"/>
</g>
<path d="M142.491 309.88H136.086V355.711H142.491V309.88Z" fill="#E0E0E0"/>
<path d="M44.4223 279.936C44.9943 281.291 46.0418 282.39 47.3676 283.027C48.6934 283.664 50.2063 283.795 51.6217 283.395C66.6327 279.261 82.4603 279.098 97.5532 282.922C118.739 288.181 126.472 299.593 129.347 306.772C130.053 308.491 131.256 309.96 132.802 310.99C134.348 312.02 136.167 312.565 138.025 312.554H138.89C139.783 312.548 140.664 312.343 141.469 311.955C142.274 311.566 142.982 311.004 143.543 310.308C144.104 309.613 144.504 308.801 144.713 307.932C144.922 307.063 144.935 306.159 144.752 305.284C142.56 295.33 129.317 278.035 105.648 271.64C77.1616 263.938 57.3832 269.066 48.1829 271.932C47.3921 272.184 46.662 272.597 46.0381 273.145C45.4142 273.692 44.91 274.362 44.5571 275.114C44.2041 275.865 44.0099 276.681 43.9867 277.511C43.9635 278.34 44.1118 279.166 44.4223 279.936Z" fill="#455A64"/>
<path d="M44.4932 279.943C44.4932 279.943 44.4027 279.752 44.2619 279.359C44.0195 278.588 43.9346 277.776 44.0123 276.971C44.09 276.166 44.3288 275.385 44.7144 274.674C45.3817 273.459 46.4469 272.511 47.7309 271.989C55.935 269.275 64.484 267.745 73.12 267.444C79.0751 267.232 85.0374 267.545 90.9376 268.379C92.5263 268.631 94.1452 268.862 95.7741 269.144L100.731 270.149L105.759 271.396C107.428 271.939 109.167 272.401 110.857 273.015C112.546 273.628 114.275 274.272 115.945 275.086C116.779 275.488 117.644 275.83 118.468 276.283L120.962 277.62C124.324 279.531 127.505 281.746 130.464 284.236C133.525 286.824 136.299 289.734 138.739 292.914L139.664 294.13L140.519 295.417C140.791 295.84 141.092 296.262 141.354 296.704L142.118 298.052C143.159 299.861 143.999 301.78 144.622 303.773C144.752 304.286 144.903 304.779 145.034 305.301C145.136 305.831 145.173 306.371 145.144 306.91C145.049 308.527 144.328 310.044 143.135 311.14C141.941 312.235 140.369 312.824 138.749 312.782C136.676 312.897 134.617 312.366 132.857 311.264C131.128 310.167 129.798 308.542 129.066 306.629C128.341 304.841 127.445 303.127 126.392 301.511C125.899 300.686 125.306 299.942 124.753 299.178C124.2 298.414 123.586 297.69 122.933 297.016C120.445 294.312 117.596 291.964 114.466 290.038C111.485 288.212 108.337 286.673 105.065 285.443C101.963 284.307 98.7885 283.38 95.5629 282.668C89.7856 281.337 83.8922 280.572 77.9665 280.385C69.3779 280.094 60.793 281.066 52.487 283.271C51.7966 283.499 51.0806 283.641 50.3553 283.693C49.5323 283.729 48.7107 283.596 47.9412 283.302C47.1716 283.008 46.4704 282.559 45.8808 281.984C45.2915 281.421 44.8348 280.734 44.5435 279.973C44.8957 280.705 45.3759 281.369 45.9612 281.934C46.6724 282.59 47.5312 283.066 48.465 283.321C49.0691 283.474 49.6924 283.539 50.3151 283.512C51.0265 283.448 51.7282 283.303 52.4065 283.08C60.7367 280.795 69.3636 279.778 77.9967 280.063C83.958 280.209 89.8897 280.95 95.7037 282.275C98.9486 282.986 102.143 283.909 105.266 285.041C108.574 286.274 111.756 287.823 114.768 289.666C117.938 291.605 120.824 293.974 123.345 296.704C124.009 297.378 124.572 298.152 125.195 298.886C125.819 299.62 126.352 300.425 126.854 301.259C127.932 302.898 128.845 304.639 129.579 306.458C130.276 308.271 131.539 309.811 133.179 310.852C134.856 311.898 136.816 312.4 138.79 312.29C140.277 312.331 141.722 311.792 142.819 310.786C143.915 309.779 144.576 308.386 144.662 306.9C144.688 306.405 144.655 305.909 144.561 305.422C144.441 304.929 144.29 304.417 144.159 303.944C143.548 301.987 142.725 300.102 141.706 298.323L140.972 296.976C140.71 296.543 140.419 296.121 140.137 295.699L139.262 294.462L138.347 293.255C135.929 290.107 133.181 287.225 130.152 284.658C127.218 282.187 124.065 279.99 120.731 278.093L118.267 276.755C117.453 276.303 116.588 275.971 115.764 275.569C114.104 274.754 112.395 274.151 110.736 273.507C109.077 272.864 107.337 272.421 105.708 271.889L100.681 270.632L95.7439 269.626C94.115 269.335 92.5062 269.103 90.9275 268.842C85.0519 267.995 79.114 267.659 73.1803 267.836C64.5787 268.104 56.0566 269.573 47.8617 272.2C46.609 272.688 45.5666 273.598 44.9155 274.774C44.4278 275.627 44.1616 276.588 44.1413 277.57C44.1172 278.375 44.2363 279.179 44.4932 279.943Z" fill="#263238"/>
<path d="M55.0652 277.514C55.0652 278.475 54.7804 279.414 54.2467 280.212C53.713 281.011 52.9545 281.634 52.067 282.001C51.1796 282.369 50.203 282.465 49.2609 282.278C48.3187 282.09 47.4533 281.628 46.7741 280.948C46.0949 280.269 45.6323 279.404 45.4449 278.462C45.2575 277.519 45.3537 276.543 45.7213 275.655C46.0889 274.768 46.7114 274.009 47.5101 273.476C48.3088 272.942 49.2478 272.657 50.2084 272.657C50.8466 272.656 51.4787 272.781 52.0686 273.024C52.6584 273.268 53.1944 273.626 53.6456 274.077C54.0969 274.528 54.4546 275.064 54.6982 275.654C54.9418 276.244 55.0665 276.876 55.0652 277.514Z" fill="white"/>
<path d="M343.156 245.039H366.062L364.272 257.638C364.272 257.638 362.784 263.832 359.244 263.832H349.32C348.1 263.084 347.044 262.097 346.214 260.931C345.385 259.764 344.8 258.443 344.494 257.045L343.156 245.039Z" fill="#455A64"/>
<path d="M343.156 245.031C343.19 245.163 343.213 245.298 343.227 245.434C343.227 245.715 343.317 246.087 343.388 246.55C343.518 247.555 343.709 248.973 343.951 250.743C344.192 252.512 344.473 254.704 344.795 257.168C345.107 258.515 345.688 259.785 346.501 260.902C347.315 262.02 348.345 262.962 349.531 263.673H349.441H357.374C358.078 263.673 358.792 263.673 359.486 263.673C360.172 263.634 360.823 263.357 361.326 262.889C362.377 261.88 363.167 260.631 363.628 259.249C363.831 258.719 364.006 258.179 364.151 257.63C364.765 253.176 365.348 248.943 365.881 245.031L366.062 245.242L349.622 245.152L344.886 245.102H343.609H343.156C343.293 245.085 343.432 245.085 343.569 245.102H344.805L349.501 245.051L366.062 244.961H366.263V245.162C365.73 249.073 365.157 253.317 364.563 257.761C364.421 258.328 364.243 258.885 364.031 259.43C363.54 260.873 362.709 262.177 361.607 263.231C361.04 263.753 360.306 264.059 359.536 264.096C358.812 264.096 358.108 264.096 357.404 264.096H349.471H349.421C348.196 263.355 347.135 262.373 346.302 261.21C345.469 260.047 344.881 258.726 344.574 257.329C344.242 254.805 344.021 252.603 343.81 250.793C343.599 248.983 343.458 247.605 343.357 246.6L343.237 245.504C343.191 245.35 343.164 245.192 343.156 245.031Z" fill="#263238"/>
<path d="M364.247 251.533L364.589 251.453C364.378 251.453 364.649 251.453 364.689 251.453C364.937 251.437 365.186 251.437 365.434 251.453C365.192 251.453 365.434 251.453 365.524 251.453L365.916 251.553L366.238 251.654C366.389 251.704 366.238 251.654 366.178 251.654L366.389 251.754C366.607 251.873 366.819 252.004 367.022 252.146C367.153 252.237 367.022 252.146 366.972 252.146L367.103 252.257C367.202 252.346 367.296 252.44 367.384 252.539C367.455 252.619 367.596 252.81 367.465 252.619C367.545 252.73 367.616 252.84 367.686 252.951C367.756 253.061 367.797 253.162 367.847 253.263C367.897 253.363 367.847 253.263 367.847 253.202C367.88 253.274 367.907 253.348 367.927 253.423C367.973 253.551 368.01 253.682 368.038 253.816C368.038 253.866 368.108 254.198 368.088 254.037C368.068 253.876 368.088 254.208 368.088 254.258C368.098 254.395 368.098 254.533 368.088 254.67C368.088 254.751 368.088 254.831 368.088 254.912C368.088 254.992 368.088 255.123 368.088 254.912C368.076 254.986 368.059 255.06 368.038 255.133C368.018 255.249 367.988 255.364 367.947 255.475C367.947 255.565 367.797 255.877 367.947 255.636C367.839 255.869 367.715 256.094 367.575 256.309L367.475 256.45C367.475 256.45 367.616 256.289 367.475 256.4C367.334 256.51 367.264 256.621 367.153 256.732C367.042 256.842 366.861 256.963 366.982 256.883C367.103 256.802 366.831 256.973 366.791 256.993L366.489 257.164L366.339 257.245C366.419 257.245 366.509 257.154 366.339 257.245C366.258 257.245 365.816 257.385 365.554 257.456C365.293 257.526 365.625 257.456 365.645 257.456H365.413H364.629H364.408L363.965 257.315C364.157 257.395 363.815 257.234 363.815 257.234C363.658 257.143 363.485 257.083 363.305 257.058C363.126 257.033 362.943 257.044 362.767 257.089C362.592 257.135 362.427 257.215 362.282 257.324C362.138 257.434 362.016 257.571 361.924 257.727C361.832 257.884 361.772 258.057 361.747 258.236C361.723 258.416 361.733 258.599 361.779 258.774C361.825 258.95 361.905 259.115 362.014 259.259C362.124 259.404 362.26 259.526 362.417 259.618C363.738 260.305 365.269 260.469 366.706 260.078C368.143 259.686 369.38 258.768 370.17 257.506C370.915 256.184 371.144 254.633 370.813 253.152C370.646 252.432 370.337 251.752 369.906 251.151C369.474 250.551 368.928 250.041 368.299 249.653C367.606 249.217 366.83 248.929 366.021 248.806C365.211 248.683 364.385 248.728 363.593 248.939C363.24 249.036 362.94 249.27 362.759 249.588C362.578 249.907 362.531 250.285 362.628 250.638C362.725 250.991 362.959 251.292 363.278 251.473C363.597 251.654 363.974 251.701 364.327 251.603L364.247 251.533Z" fill="#455A64"/>
<path d="M364.128 251.538C363.985 251.607 363.825 251.635 363.666 251.619C363.428 251.607 363.198 251.536 362.994 251.414C362.79 251.291 362.621 251.119 362.499 250.915C362.4 250.749 362.335 250.565 362.308 250.373C362.28 250.182 362.291 249.987 362.34 249.8C362.388 249.613 362.474 249.437 362.591 249.283C362.708 249.129 362.855 249 363.022 248.904C363.444 248.711 363.897 248.596 364.36 248.562C364.871 248.497 365.387 248.497 365.898 248.562C367.071 248.738 368.166 249.255 369.046 250.05C370.072 250.962 370.73 252.217 370.896 253.579C371.1 255.086 370.742 256.614 369.89 257.873C369.422 258.53 368.823 259.084 368.131 259.499C367.439 259.914 366.668 260.182 365.868 260.287C365.153 260.388 364.425 260.367 363.716 260.226C363.375 260.147 363.039 260.046 362.711 259.925L362.228 259.703C362.051 259.624 361.893 259.507 361.765 259.361C361.528 259.067 361.398 258.699 361.398 258.321C361.398 257.942 361.528 257.575 361.765 257.28C362.014 257.006 362.349 256.824 362.714 256.766C363.08 256.708 363.455 256.775 363.777 256.958L363.515 257.119C363.517 257.075 363.534 257.033 363.563 257C363.593 256.967 363.632 256.945 363.676 256.938C363.777 256.938 363.787 256.938 363.777 256.938H363.847C363.847 256.827 363.988 257.22 363.766 257.26H363.656H363.575V257.21C363.475 256.807 363.857 256.918 363.746 256.908H363.807L363.947 256.958C364.135 257.018 364.327 257.065 364.521 257.099C364.521 257.099 364.521 257.099 364.621 257.149C364.722 257.199 364.682 257.149 364.671 257.32C364.661 257.491 364.531 257.461 364.521 257.461H364.43H364.35H364.279C364.279 257.461 364.179 257.411 364.229 257.24C364.279 257.069 364.36 257.159 364.38 257.149H364.832C365.023 257.159 365.215 257.159 365.406 257.149V257.491H365.345H365.255C365.209 257.491 365.166 257.473 365.134 257.441C365.114 257.413 365.103 257.38 365.103 257.345C365.103 257.311 365.114 257.277 365.134 257.25C365.134 257.179 365.134 257.199 365.134 257.189L365.214 257.139H365.375L365.667 257.059L365.969 256.978H366.099C366.029 256.908 366.099 257.32 366.2 257.27H366.27H366.21L366.049 256.968L366.441 256.757L366.622 256.646C366.658 256.636 366.697 256.636 366.733 256.646C366.766 256.657 366.797 256.674 366.823 256.697C366.85 256.729 366.865 256.77 366.865 256.812C366.865 256.855 366.85 256.895 366.823 256.928H366.763C366.731 256.94 366.695 256.94 366.662 256.928C366.634 256.923 366.608 256.911 366.585 256.893C366.562 256.876 366.544 256.853 366.532 256.827C366.471 256.737 366.592 256.606 366.532 256.636C366.648 256.553 366.756 256.459 366.854 256.355L366.994 256.204C366.994 256.204 367.165 256.204 367.205 256.315C367.246 256.425 367.205 256.395 367.205 256.415L367.145 256.486L366.884 256.294C367.065 256.043 367.195 255.772 367.346 255.52L367.628 255.651V255.701C367.628 255.701 367.628 255.701 367.507 255.701C367.487 255.7 367.468 255.695 367.45 255.686C367.432 255.677 367.416 255.665 367.403 255.65C367.39 255.635 367.38 255.618 367.374 255.599C367.368 255.58 367.365 255.56 367.366 255.54V255.43C367.394 255.368 367.418 255.304 367.437 255.239C367.437 255.108 367.507 254.977 367.537 254.846V254.746C367.537 254.746 367.537 254.746 367.598 254.655C367.619 254.643 367.643 254.637 367.668 254.637C367.693 254.637 367.717 254.643 367.738 254.655H367.799C367.809 254.695 367.809 254.737 367.799 254.776V254.877C367.899 254.987 367.376 254.937 367.517 254.877V254.786C367.512 254.756 367.512 254.726 367.517 254.696C367.517 254.565 367.517 254.434 367.517 254.314C367.527 254.19 367.527 254.065 367.517 253.942V253.831C367.52 253.807 367.527 253.784 367.54 253.763C367.552 253.742 367.568 253.724 367.588 253.71C367.608 253.695 367.633 253.688 367.658 253.688C367.683 253.688 367.708 253.695 367.728 253.71C367.74 253.714 367.751 253.721 367.759 253.729C367.768 253.738 367.775 253.749 367.779 253.76C367.779 253.811 367.779 253.811 367.779 253.811V253.871C367.783 253.891 367.783 253.912 367.779 253.931C367.779 253.931 367.779 253.931 367.698 253.982C367.667 253.99 367.635 253.987 367.605 253.975C367.576 253.962 367.552 253.94 367.537 253.911L367.487 253.69C367.437 253.462 367.374 253.237 367.296 253.016L367.537 252.926V252.976C367.54 252.991 367.54 253.007 367.536 253.022C367.533 253.037 367.526 253.052 367.516 253.064C367.507 253.076 367.495 253.087 367.481 253.094C367.467 253.101 367.452 253.106 367.437 253.107C367.336 253.107 367.336 253.107 367.326 253.107C367.326 253.107 367.326 253.026 367.256 252.986L367.155 252.775L366.914 252.403L367.115 252.272V252.323C367.125 252.339 367.13 252.358 367.13 252.378C367.13 252.397 367.125 252.416 367.115 252.433C367.104 252.45 367.089 252.463 367.071 252.473C367.054 252.482 367.034 252.487 367.014 252.487C366.995 252.487 366.975 252.482 366.957 252.473C366.94 252.463 366.925 252.45 366.914 252.433L366.843 252.343C366.799 252.284 366.748 252.23 366.693 252.182L366.401 251.9L366.542 251.739H366.602C366.361 252.071 366.502 251.82 366.451 251.89L366.321 251.81L366.069 251.649C365.923 251.548 365.768 251.461 365.607 251.387L365.687 251.216H365.768H365.828C365.828 251.216 365.878 251.337 365.828 251.357H365.778H366.14L365.979 251.297L365.677 251.206L365.395 251.136H365.265C365.325 251.136 365.144 251.206 365.265 250.995H365.375V251.136H364.712H364.46C364.46 251.136 364.46 251.136 364.46 251.076H364.611C364.611 251.076 364.611 251.076 364.611 251.126H364.531C364.405 251.155 364.277 251.172 364.149 251.176C364.266 251.118 364.391 251.077 364.521 251.056H364.571H364.46H365.375V251.196H365.265C365.385 250.975 365.194 251.076 365.265 251.056H365.426L365.727 251.116L366.039 251.206L366.2 251.257C366.14 251.498 366.14 251.408 366.13 251.418H366.029L366.109 251.247C366.276 251.322 366.438 251.409 366.592 251.508L366.854 251.659L366.994 251.739L366.944 251.82L366.874 251.759L367.014 251.599C367.123 251.687 367.227 251.781 367.326 251.88C367.326 251.94 367.437 251.981 367.497 252.051L367.567 252.142C367.567 252.142 367.517 252.142 367.497 252.142V252.091L367.698 251.961C367.779 252.081 367.869 252.202 367.95 252.343L368.06 252.554C368.06 252.554 368.131 252.614 368.06 252.664L367.99 252.725C367.964 252.716 367.936 252.716 367.909 252.725H367.859V252.654L368.1 252.564C368.191 252.796 368.265 253.035 368.322 253.278V253.368V253.439C368.322 253.439 368.322 253.439 368.241 253.439C368.161 253.439 368.241 253.439 368.191 253.439C368.18 253.434 368.168 253.432 368.156 253.432C368.144 253.432 368.132 253.434 368.121 253.439H368.06H368.141H368.191C368.191 253.439 368.241 253.439 368.251 253.439H368.151V253.509C368.151 253.63 368.151 253.781 368.151 253.911C368.166 254.045 368.166 254.18 368.151 254.314C368.156 254.35 368.156 254.387 368.151 254.424C368.151 254.424 368.1 254.424 368.03 254.424H367.859V254.334C367.859 254.334 367.96 254.334 367.94 254.334C368.161 254.334 368.07 254.334 368.09 254.334V254.434C368.09 254.565 368.02 254.716 367.98 254.857C367.964 254.929 367.941 255 367.909 255.068V255.158C367.517 254.997 367.658 255.038 367.648 255.017V254.967L367.929 255.098C367.769 255.369 367.638 255.661 367.447 255.932L367.185 255.741L367.256 255.661H367.316C367.316 255.661 367.386 255.661 367.407 255.731V255.782C367.407 255.782 367.467 255.862 367.457 255.842L367.306 256.003C367.203 256.111 367.092 256.212 366.974 256.305C366.904 256.244 366.904 256.194 366.884 256.204C366.864 256.214 366.884 256.204 366.884 256.154L366.833 256.063C366.833 256.063 366.884 256.124 366.833 256.134C366.783 256.144 366.833 256.224 366.833 256.224C366.832 256.245 366.837 256.266 366.847 256.284C366.858 256.302 366.874 256.316 366.894 256.325H366.843L366.652 256.445L366.25 256.667L366.089 256.365H366.16H366.28C366.431 256.365 366.461 256.737 366.381 256.656H366.331L366.17 256.717L365.868 256.797L365.556 256.878H365.406C365.406 256.878 365.406 256.958 365.345 256.727C365.345 256.727 365.345 256.526 365.345 256.546H365.486V256.888C365.282 256.903 365.077 256.903 364.873 256.888C364.769 256.898 364.665 256.898 364.561 256.888H364.45V256.717C364.45 256.717 364.45 256.616 364.45 256.566H364.561C364.561 256.566 364.561 256.646 364.561 256.656C364.561 256.667 364.561 256.656 364.561 256.717C364.561 256.717 364.561 256.717 364.561 256.787C364.57 256.817 364.57 256.848 364.561 256.878C364.354 256.838 364.149 256.788 363.947 256.727L363.797 256.677H363.706V256.616C363.709 256.583 363.709 256.549 363.706 256.516C363.837 256.254 363.766 256.375 363.787 256.345H363.847C363.847 256.345 363.847 256.465 363.797 256.486L363.716 256.626H363.646C363.682 256.637 363.72 256.637 363.756 256.626C363.784 256.62 363.811 256.608 363.833 256.591C363.856 256.573 363.874 256.551 363.887 256.526V256.475C363.887 256.475 363.887 256.475 363.746 256.475L363.626 256.646C363.381 256.515 363.1 256.467 362.826 256.51C362.551 256.554 362.299 256.687 362.107 256.888C361.932 257.114 361.837 257.391 361.837 257.677C361.837 257.963 361.932 258.241 362.107 258.466C362.341 258.667 362.61 258.821 362.902 258.919C363.212 259.035 363.532 259.126 363.857 259.19C364.518 259.33 365.199 259.353 365.868 259.261C366.62 259.168 367.345 258.92 367.996 258.532C368.646 258.145 369.21 257.626 369.649 257.008C370.47 255.838 370.828 254.405 370.655 252.986C370.509 251.703 369.901 250.516 368.945 249.648C368.105 248.875 367.056 248.368 365.928 248.19C365.02 248.02 364.082 248.096 363.213 248.411C363.057 248.503 362.921 248.625 362.813 248.77C362.704 248.915 362.625 249.08 362.58 249.256C362.509 249.558 362.56 249.875 362.721 250.141C362.821 250.329 362.965 250.49 363.139 250.613C363.314 250.735 363.515 250.814 363.726 250.844C363.825 251.094 363.961 251.328 364.128 251.538Z" fill="#263238"/>
<path d="M358.572 240.583C358.838 240.333 359.077 240.057 359.286 239.759C359.544 239.343 359.716 238.879 359.792 238.396C359.868 237.912 359.846 237.418 359.729 236.943C359.555 236.293 359.178 235.715 358.653 235.294C358.1 234.812 357.396 234.429 356.742 233.856C356.406 233.556 356.127 233.199 355.918 232.801C355.691 232.372 355.626 231.875 355.737 231.403C355.863 230.923 356.121 230.488 356.481 230.146C356.813 229.794 357.185 229.492 357.486 229.14C357.827 228.839 358.095 228.464 358.271 228.044C358.401 227.629 358.401 227.183 358.271 226.767C358 225.951 357.546 225.208 356.943 224.596C356.374 224.012 355.914 223.331 355.586 222.585C355.338 221.913 355.262 221.191 355.365 220.483C355.511 219.461 356.004 218.52 356.762 217.819C356.968 217.636 357.194 217.478 357.436 217.346L357.697 217.235C357.4 217.444 357.115 217.669 356.843 217.909C356.148 218.615 355.706 219.53 355.586 220.513C355.498 221.193 355.581 221.884 355.827 222.524C356.16 223.23 356.612 223.873 357.164 224.425C357.806 225.064 358.289 225.846 358.572 226.707C358.722 227.182 358.722 227.691 358.572 228.165C358.385 228.634 358.093 229.054 357.717 229.392C357.034 230.076 356.219 230.639 356.018 231.483C355.964 231.893 356.019 232.31 356.178 232.691C356.337 233.073 356.594 233.405 356.923 233.655C357.526 234.198 358.23 234.59 358.803 235.103C359.087 235.345 359.331 235.63 359.527 235.948C359.706 236.241 359.839 236.559 359.92 236.893C360.04 237.394 360.054 237.914 359.958 238.42C359.863 238.926 359.661 239.407 359.367 239.829C359.167 240.141 358.894 240.4 358.572 240.583Z" fill="#263238"/>
<path d="M354.149 240.583C354.409 240.331 354.645 240.055 354.853 239.759C355.116 239.345 355.29 238.881 355.367 238.397C355.443 237.912 355.418 237.418 355.296 236.943C355.131 236.289 354.753 235.708 354.22 235.294C353.667 234.812 352.963 234.429 352.319 233.856C351.981 233.559 351.701 233.201 351.495 232.801C351.264 232.373 351.196 231.877 351.304 231.403C351.439 230.926 351.695 230.493 352.048 230.146C352.39 229.794 352.752 229.492 353.053 229.14C353.388 228.835 353.652 228.462 353.827 228.044C353.966 227.63 353.966 227.182 353.827 226.767C353.557 225.951 353.103 225.208 352.5 224.596C351.931 224.01 351.468 223.329 351.133 222.585C350.885 221.913 350.809 221.191 350.911 220.483C351.056 219.458 351.554 218.516 352.319 217.819C352.522 217.632 352.748 217.473 352.993 217.346C353.073 217.295 353.162 217.258 353.254 217.235C352.957 217.444 352.672 217.669 352.4 217.909C351.705 218.616 351.26 219.53 351.133 220.513C351.043 221.194 351.13 221.886 351.384 222.524C351.717 223.23 352.169 223.873 352.721 224.425C353.36 225.067 353.842 225.848 354.129 226.707C354.279 227.182 354.279 227.691 354.129 228.165C353.938 228.632 353.646 229.051 353.274 229.392C352.591 230.076 351.766 230.639 351.565 231.483C351.513 231.893 351.569 232.309 351.728 232.69C351.887 233.071 352.143 233.404 352.47 233.655C353.073 234.198 353.787 234.59 354.35 235.103C354.637 235.345 354.885 235.63 355.084 235.948C355.255 236.245 355.387 236.562 355.476 236.893C355.592 237.394 355.603 237.914 355.508 238.419C355.412 238.924 355.214 239.404 354.923 239.829C354.727 240.137 354.462 240.395 354.149 240.583Z" fill="#263238"/>
<path d="M386.384 180.141L384.164 182.001L412.295 215.586L414.515 213.726L386.384 180.141Z" fill="#263238"/>
<path d="M389.657 175.422L387.438 177.281L415.569 210.866L417.789 209.006L389.657 175.422Z" fill="#263238"/>
<path d="M416.16 215.023L413.711 213.478L385.593 258.024L388.042 259.57L416.16 215.023Z" fill="#263238"/>
<path d="M422.433 216.262L419.984 214.717L392.414 258.396L394.863 259.942L422.433 216.262Z" fill="#263238"/>
<path d="M416.26 209.434L411.846 215.407C411.306 216.135 411.052 217.035 411.132 217.938C411.211 218.841 411.619 219.683 412.278 220.304C412.834 220.825 413.535 221.164 414.289 221.273C415.042 221.383 415.811 221.259 416.492 220.918L422.435 217.901C422.953 217.646 423.406 217.273 423.755 216.812C424.104 216.351 424.34 215.815 424.446 215.246L424.506 214.884C424.624 214.224 424.56 213.544 424.321 212.917C424.081 212.29 423.676 211.739 423.148 211.325L420.132 208.922C419.849 208.689 419.521 208.518 419.169 208.418C418.817 208.317 418.448 208.291 418.085 208.339C417.722 208.387 417.373 208.509 417.059 208.697C416.745 208.886 416.473 209.137 416.26 209.434Z" fill="#263238"/>
<path d="M416.29 209.429C416.29 209.429 416.34 209.289 416.521 209.087C416.796 208.782 417.141 208.547 417.527 208.404C418.133 208.178 418.801 208.178 419.407 208.404C419.776 208.537 420.117 208.738 420.413 208.997L421.418 209.781L422.545 210.646C422.975 210.945 423.379 211.282 423.751 211.652C424.156 212.097 424.453 212.63 424.618 213.209C424.784 213.788 424.814 214.398 424.706 214.99C424.64 215.654 424.41 216.292 424.036 216.845C423.662 217.398 423.156 217.849 422.565 218.158L418.965 219.978L417.145 220.903C416.548 221.26 415.884 221.489 415.194 221.576C414.559 221.635 413.92 221.539 413.331 221.296C412.742 221.053 412.221 220.671 411.811 220.183C411.402 219.695 411.117 219.115 410.981 218.492C410.845 217.87 410.862 217.223 411.031 216.609C411.182 216.089 411.435 215.603 411.775 215.181L412.63 214.055L415.244 210.656C415.549 210.233 415.885 209.833 416.25 209.46C416.009 209.924 415.726 210.364 415.405 210.777L412.921 214.276C412.293 215.001 411.793 215.827 411.443 216.72C411.311 217.236 411.297 217.776 411.404 218.298C411.51 218.821 411.733 219.312 412.057 219.736C412.417 220.198 412.888 220.561 413.425 220.793C413.963 221.025 414.551 221.118 415.134 221.064C415.76 220.981 416.363 220.768 416.903 220.44L418.723 219.515L422.313 217.695C422.799 217.42 423.219 217.043 423.544 216.59C423.87 216.136 424.093 215.618 424.198 215.07C424.303 214.522 424.288 213.957 424.154 213.416C424.019 212.874 423.769 212.368 423.419 211.933C423.068 211.569 422.688 211.233 422.283 210.928C421.901 210.616 421.539 210.314 421.177 210.033L420.171 209.218C419.9 208.971 419.586 208.774 419.246 208.635C418.685 208.445 418.078 208.445 417.517 208.635C417.061 208.82 416.645 209.089 416.29 209.429Z" fill="#455A64"/>
<path d="M371.555 264.032C371.555 264.032 374.994 256.732 388.497 256.752H394.712C394.712 256.752 406.848 259.366 408.306 264.052L371.555 264.032Z" fill="#263238"/>
<path d="M379.909 173.557L382.705 184.618C382.734 184.738 382.797 184.846 382.885 184.932C382.972 185.018 383.082 185.078 383.202 185.105C383.322 185.132 383.447 185.126 383.564 185.086C383.68 185.046 383.783 184.975 383.861 184.88L392.197 176.343C392.274 176.253 392.325 176.144 392.345 176.028C392.366 175.912 392.355 175.792 392.314 175.682C392.273 175.571 392.204 175.473 392.112 175.399C392.021 175.324 391.911 175.275 391.795 175.257L380.653 172.793C380.55 172.777 380.445 172.786 380.345 172.819C380.246 172.852 380.157 172.908 380.084 172.983C380.011 173.058 379.957 173.149 379.927 173.249C379.896 173.349 379.89 173.455 379.909 173.557Z" fill="#263238"/>
<path d="M379.96 173.565C379.96 173.565 379.889 173.484 379.899 173.293C379.913 173.147 379.972 173.009 380.067 172.897C380.163 172.786 380.29 172.706 380.432 172.67C380.631 172.63 380.837 172.63 381.036 172.67L381.709 172.8L383.359 173.132L387.733 174.047L390.367 174.61L391.785 174.912C391.947 174.93 392.102 174.987 392.237 175.078C392.372 175.169 392.482 175.292 392.559 175.435C392.639 175.596 392.67 175.777 392.649 175.956C392.627 176.134 392.554 176.303 392.439 176.441L388.728 180.252L384.093 184.978C383.991 185.098 383.859 185.19 383.711 185.245C383.563 185.3 383.403 185.315 383.247 185.29C383.091 185.265 382.945 185.2 382.821 185.101C382.698 185.002 382.603 184.873 382.544 184.726C382.413 184.234 382.323 183.841 382.212 183.419C382.011 182.584 381.82 181.78 381.629 181.026C381.277 179.538 380.955 178.22 380.684 177.084C380.412 175.948 380.261 175.184 380.101 174.5C380.009 174.193 379.958 173.875 379.95 173.555C380.081 173.846 380.185 174.149 380.261 174.46C380.452 175.133 380.694 175.978 380.975 177.004C381.257 178.029 381.639 179.447 382.031 180.925L382.665 183.298L382.997 184.555C383.024 184.622 383.069 184.681 383.126 184.726C383.183 184.771 383.251 184.801 383.322 184.812C383.394 184.823 383.468 184.815 383.536 184.79C383.604 184.764 383.664 184.722 383.71 184.666L388.326 179.92L392.047 176.119C392.099 176.054 392.132 175.974 392.141 175.891C392.149 175.808 392.134 175.723 392.095 175.649C392.057 175.574 391.998 175.512 391.925 175.471C391.852 175.429 391.768 175.41 391.685 175.415L390.277 175.093L387.642 174.49L383.288 173.484L381.649 173.082L380.985 172.921C380.819 172.855 380.641 172.828 380.463 172.841C380.346 172.864 380.239 172.92 380.154 173.002C380.068 173.084 380.008 173.188 379.98 173.303C379.95 173.464 379.98 173.565 379.96 173.565Z" fill="#455A64"/>
<path d="M371.686 205.091C377.206 197.7 380.333 190.179 379.81 182.487L369.443 172.502C359.388 169.154 345.562 179.702 345.562 179.702C345.562 179.702 348.991 198.303 371.686 205.091Z" fill="#263238"/>
<path d="M385.414 165.177L385.737 165.48C387.2 166.852 388.058 168.749 388.122 170.753C388.187 172.758 387.452 174.706 386.08 176.168L376.719 186.151L365.364 175.504L374.733 165.513C375.412 164.789 376.227 164.206 377.131 163.798C378.036 163.389 379.012 163.162 380.004 163.131C380.996 163.1 381.984 163.265 382.913 163.616C383.841 163.967 384.691 164.497 385.414 165.177Z" fill="#263238"/>
<path d="M379.161 182.142C378.414 182.168 377.669 182.045 376.969 181.78C375.248 181.246 373.661 180.352 372.313 179.156C370.956 177.963 369.867 176.496 369.116 174.852C368.772 174.192 368.561 173.471 368.492 172.73C368.861 173.366 369.197 174.021 369.498 174.691C370.308 176.231 371.392 177.611 372.695 178.764C374.005 179.91 375.506 180.815 377.13 181.439C378.357 181.901 379.171 182.052 379.161 182.142Z" fill="#455A64"/>
<path d="M419.886 213.018C419.886 213.203 419.831 213.384 419.728 213.538C419.626 213.691 419.48 213.811 419.309 213.882C419.138 213.953 418.95 213.971 418.768 213.935C418.587 213.899 418.42 213.81 418.29 213.679C418.159 213.549 418.07 213.382 418.034 213.201C417.998 213.019 418.016 212.831 418.087 212.66C418.158 212.489 418.277 212.343 418.431 212.241C418.585 212.138 418.766 212.083 418.951 212.083C419.074 212.083 419.195 212.107 419.309 212.154C419.422 212.201 419.525 212.27 419.612 212.357C419.699 212.444 419.768 212.547 419.815 212.66C419.862 212.774 419.886 212.895 419.886 213.018Z" fill="#455A64"/>
<path d="M385.23 180.634C385.23 180.819 385.175 181 385.072 181.154C384.969 181.308 384.823 181.428 384.652 181.498C384.482 181.569 384.294 181.588 384.112 181.552C383.931 181.515 383.764 181.426 383.633 181.296C383.502 181.165 383.413 180.998 383.377 180.817C383.341 180.635 383.36 180.447 383.431 180.277C383.501 180.106 383.621 179.96 383.775 179.857C383.929 179.754 384.11 179.699 384.295 179.699C384.543 179.699 384.78 179.798 384.956 179.973C385.131 180.149 385.23 180.386 385.23 180.634Z" fill="#455A64"/>
<path d="M388.769 177.007C388.769 177.192 388.714 177.373 388.611 177.527C388.508 177.681 388.362 177.801 388.191 177.871C388.021 177.942 387.833 177.961 387.651 177.925C387.47 177.889 387.303 177.799 387.172 177.669C387.042 177.538 386.952 177.371 386.916 177.19C386.88 177.008 386.899 176.82 386.97 176.65C387.04 176.479 387.16 176.333 387.314 176.23C387.468 176.127 387.649 176.072 387.834 176.072C387.956 176.072 388.078 176.096 388.191 176.143C388.305 176.19 388.408 176.259 388.495 176.346C388.582 176.433 388.651 176.536 388.698 176.65C388.745 176.763 388.769 176.885 388.769 177.007Z" fill="#455A64"/>
<path d="M415.98 216.413C415.98 216.598 415.925 216.778 415.822 216.932C415.719 217.086 415.573 217.206 415.402 217.277C415.232 217.347 415.043 217.366 414.862 217.33C414.681 217.294 414.514 217.205 414.383 217.074C414.252 216.943 414.163 216.777 414.127 216.595C414.091 216.414 414.11 216.226 414.181 216.055C414.251 215.884 414.371 215.738 414.525 215.635C414.679 215.532 414.86 215.478 415.045 215.478C415.293 215.478 415.53 215.576 415.706 215.751C415.881 215.927 415.98 216.165 415.98 216.413Z" fill="#455A64"/>
<path d="M378.973 280.344L378.692 442.581H227.383V279.901H217.68V442.581V451.601H227.383H378.692H388.395V442.581L388.676 280.344H378.973Z" fill="#E0E0E0"/>
<path d="M379.016 280.387H388.719H388.769C388.769 302.015 388.699 363.944 388.638 451.644V451.845H388.397H217.682H217.461V451.594C217.461 404.053 217.461 352.32 217.461 298.637V279.633H227.687V279.894C227.687 337.288 227.687 392.078 227.687 442.574L227.446 442.333L378.754 442.383L378.563 442.574C378.855 342.467 379.036 281.855 379.036 280.337C379.036 281.855 379.036 342.467 378.955 442.574V442.765H378.754L227.446 442.816H227.204V442.574C227.204 392.078 227.204 337.288 227.204 279.894L227.466 280.156H217.763L218.024 279.894V298.637C218.024 352.32 218.024 404.053 218.024 451.594L217.773 451.342L388.488 451.392L388.287 451.594C388.508 363.894 388.659 301.965 388.719 280.337L388.769 280.387H379.016Z" fill="#263238"/>
<path d="M417.819 264.031H198.578V281.527H417.819V264.031Z" fill="#AE7461"/>
<path d="M253.576 263.706L253.013 263.837C252.651 263.907 252.108 263.988 251.414 264.148C250.027 264.43 248.036 264.913 245.613 265.627C243.189 266.34 240.324 267.306 237.166 268.432C234.009 269.558 230.55 270.825 226.84 271.961C223.358 273.04 219.788 273.814 216.171 274.274C213.235 274.648 210.265 274.672 207.323 274.344C205.325 274.119 203.359 273.67 201.461 273.007C200.945 272.831 200.438 272.63 199.943 272.404C199.601 272.263 199.43 272.172 199.43 272.172C199.43 272.172 199.621 272.223 199.973 272.353C200.325 272.484 200.827 272.705 201.501 272.896C203.404 273.508 205.365 273.919 207.353 274.123C210.298 274.421 213.266 274.38 216.202 274.002C219.797 273.523 223.345 272.743 226.81 271.67C230.51 270.533 233.969 269.277 237.136 268.17C240.304 267.064 243.169 266.109 245.603 265.425C247.529 264.864 249.482 264.401 251.455 264.038C252.148 263.897 252.701 263.837 253.063 263.776C253.425 263.716 253.576 263.706 253.576 263.706Z" fill="#6F4439"/>
<path d="M365.343 279.871C365.263 279.796 365.19 279.716 365.122 279.63C364.923 279.384 364.712 279.149 364.488 278.926C363.634 278.05 362.655 277.304 361.582 276.714C359.884 275.788 358.036 275.168 356.122 274.884C353.585 274.531 351.007 274.595 348.491 275.075C345.431 275.67 342.409 276.445 339.441 277.398C336.038 278.519 332.52 279.261 328.954 279.61C327.011 279.748 325.058 279.616 323.152 279.218C321.171 278.781 319.243 278.134 317.4 277.287C313.63 275.628 309.99 273.376 305.968 271.747C297.873 268.489 289.317 268.238 281.886 269.193C275.266 270.144 268.782 271.875 262.57 274.351C257.241 276.362 253.048 278.373 250.142 279.64L246.794 281.158C246.029 281.51 245.617 281.681 245.617 281.681C245.617 281.681 246.009 281.47 246.763 281.108L250.082 279.529C252.977 278.182 257.17 276.221 262.49 274.15C268.705 271.64 275.201 269.888 281.836 268.931C289.296 267.926 297.924 268.197 306.068 271.475C310.09 273.124 313.76 275.377 317.501 277.026C319.325 277.866 321.232 278.51 323.192 278.946C325.071 279.345 326.997 279.477 328.913 279.338C332.46 278.996 335.96 278.271 339.351 277.177C342.319 276.233 345.341 275.467 348.4 274.884C350.942 274.411 353.544 274.36 356.102 274.733C358.029 275.036 359.888 275.676 361.592 276.624C362.663 277.232 363.636 277.998 364.478 278.896C364.791 279.199 365.08 279.525 365.343 279.871Z" fill="#6F4439"/>
<path d="M416.638 269.443C414.321 270.348 411.938 271.074 409.509 271.615C408.383 271.876 407.146 272.148 405.809 272.339C404.472 272.53 403.024 272.731 401.505 272.902C394.898 273.494 388.238 273.005 381.787 271.454C380.309 271.072 378.901 270.73 377.625 270.287C376.348 269.845 375.141 269.443 374.065 269.03C371.739 268.142 369.487 267.073 367.328 265.833C367.492 265.889 367.65 265.96 367.801 266.044L369.138 266.678C369.711 266.969 370.425 267.311 371.27 267.683C372.114 268.055 373.06 268.477 374.145 268.85C375.231 269.222 376.398 269.684 377.695 270.066C378.992 270.448 380.39 270.83 381.858 271.202C388.271 272.703 394.882 273.179 401.445 272.61C402.953 272.449 404.391 272.329 405.728 272.087C407.066 271.846 408.292 271.645 409.419 271.403C410.545 271.162 411.55 270.891 412.435 270.659C413.32 270.428 414.074 270.217 414.677 270.016L416.095 269.573C416.271 269.512 416.453 269.468 416.638 269.443Z" fill="#6F4439"/>
<path d="M290.981 259.631H223.702C222.447 259.631 221.43 260.648 221.43 261.903V262.034C221.43 263.289 222.447 264.306 223.702 264.306H290.981C292.236 264.306 293.253 263.289 293.253 262.034V261.903C293.253 260.648 292.236 259.631 290.981 259.631Z" fill="#455A64"/>
<path d="M310.218 201.946L293.406 262.377C293.23 263.002 292.814 263.532 292.249 263.852C291.684 264.172 291.016 264.256 290.389 264.086C289.764 263.91 289.234 263.494 288.914 262.929C288.594 262.365 288.51 261.696 288.68 261.07L305.502 200.589C305.676 199.962 306.091 199.43 306.657 199.11C307.222 198.789 307.892 198.706 308.518 198.879C308.833 198.967 309.126 199.117 309.382 199.319C309.638 199.521 309.851 199.772 310.009 200.058C310.167 200.343 310.267 200.657 310.303 200.981C310.339 201.305 310.31 201.633 310.218 201.946Z" fill="#455A64"/>
<path d="M296.521 206.635C296.42 206.745 291.714 202.341 286.013 196.821C280.311 191.3 275.776 186.765 275.877 186.624C275.977 186.484 280.673 190.908 286.375 196.439C292.076 201.969 296.621 206.534 296.521 206.635Z" fill="#263238"/>
<path d="M294.262 213.859C293.686 213.693 293.124 213.481 292.582 213.226L288.108 211.346C284.317 209.757 279.058 207.595 273.256 205.313C267.455 203.03 262.105 201.059 258.254 199.652L253.649 197.932C253.082 197.756 252.531 197.534 252 197.269C252.586 197.375 253.161 197.533 253.719 197.741C254.815 198.083 256.394 198.596 258.335 199.259C262.226 200.577 267.565 202.497 273.417 204.79C279.269 207.082 284.478 209.304 288.218 210.974C290.099 211.818 291.607 212.512 292.643 212.985C293.202 213.238 293.743 213.53 294.262 213.859Z" fill="#263238"/>
<path d="M293.328 221.058C291.957 221.269 290.564 221.3 289.185 221.149C287.798 221.178 286.413 221.033 285.062 220.716C287.821 220.481 290.598 220.596 293.328 221.058Z" fill="#263238"/>
<path d="M415.796 422.999C415.796 422.999 411.623 394.251 411.965 377.53C412.307 360.808 411.965 341.985 411.965 341.985H413.896C413.896 341.985 412.589 375.167 414.006 395.207C415.424 415.246 419.165 422.999 419.165 422.999H415.816" fill="#263238"/>
<path d="M428.127 309.644C427.826 308.628 427.214 307.731 426.378 307.08C425.151 306.306 423.552 306.628 422.185 307.08C416.363 309.141 411.204 319.991 408.852 325.702L416.574 351.744C430.53 338.834 432.943 321.851 428.127 309.644Z" fill="#455A64"/>
<path d="M425.953 308.132C425.927 308.247 425.887 308.359 425.833 308.464C425.742 308.715 425.611 309.037 425.461 309.419C425.119 310.233 424.646 311.43 424.073 312.908C422.937 315.864 421.489 319.946 420.192 324.652C418.895 329.358 418.01 333.611 417.467 336.718C417.185 338.277 416.984 339.544 416.854 340.418C416.783 340.831 416.733 341.163 416.683 341.424C416.669 341.541 416.642 341.655 416.602 341.766C416.591 341.649 416.591 341.531 416.602 341.414C416.602 341.142 416.662 340.811 416.703 340.408C416.803 339.524 416.974 338.247 417.226 336.678C417.889 332.613 418.779 328.588 419.89 324.622C421.008 320.634 422.351 316.713 423.912 312.878C424.505 311.4 425.008 310.223 425.39 309.419C425.561 309.047 425.702 308.735 425.823 308.494C425.846 308.367 425.89 308.245 425.953 308.132Z" fill="#263238"/>
<path d="M413.218 358.019C409.699 356.018 406.754 353.145 404.667 349.675C402.58 346.206 401.421 342.258 401.303 338.211C401.021 332.439 402.801 326.768 404.812 321.338C404.934 320.851 405.222 320.42 405.627 320.122C405.96 319.996 406.319 319.958 406.671 320.01C407.024 320.063 407.356 320.205 407.638 320.423C412.896 323.44 416.094 329.141 417.783 334.953C419.006 338.809 419.414 342.877 418.98 346.898C418.316 351.125 416.306 355.026 413.248 358.019" fill="#455A64"/>
<path d="M413.143 358.012C413.13 357.895 413.13 357.777 413.143 357.66V356.655C413.143 355.78 413.143 354.523 413.032 352.975C412.828 348.929 412.378 344.9 411.685 340.909C410.89 336.243 409.915 332.07 409.191 329.054L408.336 325.474L408.115 324.469C408.081 324.358 408.061 324.243 408.055 324.127C408.108 324.229 408.148 324.337 408.175 324.449C408.246 324.71 408.336 325.022 408.457 325.454C408.688 326.289 409.02 327.465 409.412 329.004C410.186 332.02 411.202 336.193 412.006 340.869C412.695 344.858 413.115 348.889 413.263 352.935C413.263 354.483 413.263 355.74 413.263 356.615C413.263 357.017 413.263 357.349 413.263 357.62C413.24 357.756 413.199 357.887 413.143 358.012Z" fill="#263238"/>
<g opacity="0.3">
<path d="M413.218 358.019C409.699 356.018 406.754 353.145 404.667 349.675C402.58 346.206 401.421 342.258 401.303 338.211C401.021 332.439 402.801 326.768 404.812 321.338C404.934 320.851 405.222 320.42 405.627 320.122C405.96 319.996 406.319 319.958 406.671 320.01C407.024 320.063 407.356 320.205 407.638 320.423C412.896 323.44 416.094 329.141 417.783 334.953C419.006 338.809 419.414 342.877 418.98 346.898C418.316 351.125 416.306 355.026 413.248 358.019" fill="black"/>
</g>
<path d="M421.312 402.048C428.442 403.617 434.304 408.644 441.191 411.098C445.736 412.716 450.884 413.29 454.514 416.467C453.65 414.265 451.578 412.797 449.567 411.55C443.901 407.988 437.85 405.08 431.528 402.883C428.301 401.766 424.782 400.872 421.473 401.756" fill="#455A64"/>
<path d="M411.014 408.352C402.085 408.201 392.683 400.599 383.805 400.147C393.096 397.13 406.419 399.594 411.014 408.352Z" fill="#455A64"/>
<path d="M414.453 386.968C419.054 385.449 423.962 385.104 428.731 385.963C433.474 386.832 438.136 388.096 442.668 389.744C442.205 386.647 439.701 384.324 437.338 382.263C435.618 380.652 433.746 379.21 431.748 377.959C429.738 376.704 427.411 376.048 425.041 376.069C423.618 376.157 422.227 376.534 420.954 377.175C419.68 377.816 418.549 378.709 417.631 379.799C415.827 381.768 414.711 384.27 414.453 386.928" fill="#455A64"/>
<path d="M396.161 377.071C390.54 372.275 382.023 372.737 374.633 372.908C386.508 378.565 397.706 385.544 408.016 393.712C408.317 388.484 403.26 383.134 396.161 377.071Z" fill="#455A64"/>
<g opacity="0.3">
<path d="M396.161 377.071C390.54 372.275 382.023 372.737 374.633 372.908C386.508 378.565 397.706 385.544 408.016 393.712C408.317 388.484 403.26 383.134 396.161 377.071Z" fill="black"/>
</g>
<path d="M416.984 370.442C419.726 368.541 422.614 366.86 425.621 365.414C428.587 364.077 431.342 361.935 434.198 360.387C437.908 358.376 441.116 355.59 444.515 353.107C447.913 350.623 451.654 348.371 455.816 347.717C452.389 347.103 448.864 347.306 445.53 348.311C442.212 349.309 438.978 350.566 435.857 352.071C431.473 354.082 427.009 356.093 423.429 359.281C419.849 362.468 416.602 365.646 416.984 370.442Z" fill="#455A64"/>
<path d="M441.116 408.348L440.835 408.217L440.061 407.815C439.387 407.463 438.422 406.93 437.205 406.317C436.602 406.005 435.938 405.673 435.194 405.311C434.45 404.949 433.696 404.607 432.871 404.245C431.097 403.45 429.256 402.811 427.371 402.335C425.505 401.816 423.54 401.764 421.65 402.184C420.822 402.364 420.008 402.606 419.216 402.908C418.537 403.184 417.884 403.52 417.266 403.914C416.361 404.475 415.533 405.151 414.802 405.925C414.279 406.478 414.028 406.81 414.008 406.799C414.048 406.705 414.102 406.616 414.169 406.538C414.334 406.292 414.516 406.057 414.712 405.834C415.418 405.013 416.233 404.292 417.135 403.692C417.772 403.281 418.445 402.927 419.146 402.637C419.946 402.319 420.77 402.064 421.609 401.872C423.546 401.422 425.565 401.463 427.482 401.993C429.384 402.473 431.239 403.126 433.022 403.944C433.846 404.316 434.621 404.678 435.335 405.04C436.049 405.402 436.722 405.734 437.346 406.045C438.552 406.689 439.507 407.252 440.161 407.644L440.905 408.097C441.036 408.278 441.126 408.338 441.116 408.348Z" fill="#263238"/>
<path d="M404.488 403.919C404.683 403.948 404.873 404.006 405.051 404.09C405.547 404.269 406.031 404.48 406.499 404.723C408.066 405.51 409.507 406.527 410.772 407.74C412.037 408.949 413.112 410.342 413.96 411.873C414.22 412.335 414.451 412.811 414.654 413.301C414.741 413.475 414.802 413.662 414.835 413.854C414.785 413.854 414.453 413.12 413.769 411.994C411.972 409.041 409.43 406.613 406.398 404.955C405.192 404.281 404.427 403.979 404.488 403.919Z" fill="#263238"/>
<path d="M384.555 376.618C384.686 376.641 384.814 376.678 384.937 376.729L386.013 377.111L387.702 377.734C388.356 377.986 389.069 378.348 389.884 378.74C394.073 380.679 397.982 383.171 401.508 386.15C403.436 387.802 405.247 389.586 406.927 391.49C408.295 393.043 409.581 394.668 410.778 396.356C411.784 397.804 412.568 399.011 413.101 399.835L413.704 400.841C413.787 400.945 413.854 401.06 413.905 401.183C413.811 401.088 413.726 400.983 413.654 400.871C413.503 400.67 413.272 400.358 412.99 399.946C412.427 399.131 411.633 397.935 410.587 396.527C409.542 395.119 408.244 393.511 406.706 391.721C405.02 389.842 403.213 388.075 401.296 386.432C397.791 383.452 393.923 380.928 389.783 378.921C388.989 378.559 388.285 378.187 387.632 377.915L385.962 377.242L384.957 376.799C384.816 376.754 384.681 376.694 384.555 376.618Z" fill="#263238"/>
<path d="M427.956 381.935C427.715 381.934 427.475 381.903 427.242 381.845L426.417 381.694C426.105 381.634 425.733 381.634 425.321 381.593C423.203 381.404 421.075 381.822 419.187 382.8C418.154 383.343 417.212 384.041 416.392 384.871C415.716 385.545 415.116 386.29 414.602 387.094C414.135 387.843 413.725 388.626 413.375 389.437C413.398 389.197 413.459 388.963 413.556 388.743C413.778 388.124 414.064 387.531 414.411 386.973C414.902 386.132 415.501 385.358 416.191 384.67C417.011 383.798 417.973 383.071 419.036 382.518C420.975 381.511 423.171 381.108 425.341 381.362C425.753 381.422 426.135 381.443 426.447 381.523L427.272 381.724C427.506 381.773 427.735 381.844 427.956 381.935Z" fill="#263238"/>
<path d="M436.986 354.064C436.887 354.151 436.775 354.223 436.654 354.276L435.648 354.819C434.774 355.281 433.527 355.975 432.019 356.83C430.51 357.684 428.731 358.841 426.84 360.188C424.779 361.633 422.848 363.254 421.069 365.034C420.149 365.93 419.355 366.944 418.706 368.051C418.122 369.167 417.559 370.253 417.047 371.299C416.124 373.138 415.299 375.024 414.573 376.95C414.089 378.248 413.682 379.574 413.356 380.921C413.268 381.423 413.153 381.92 413.014 382.41C413.006 382.279 413.006 382.148 413.014 382.017C413.014 381.756 413.075 381.384 413.195 380.901C413.478 379.537 413.85 378.194 414.312 376.879C415.012 374.934 415.825 373.03 416.745 371.178C417.258 370.173 417.811 369.036 418.394 367.91C419.051 366.765 419.86 365.713 420.797 364.783C422.589 362.99 424.541 361.364 426.629 359.927C428.539 358.579 430.339 357.483 431.868 356.598C433.396 355.713 434.663 355.07 435.548 354.638L436.553 354.145L436.986 354.064Z" fill="#263238"/>
<path d="M411.869 381.108C411.785 380.863 411.728 380.61 411.698 380.353C411.588 379.81 411.457 379.117 411.306 378.292C410.473 373.751 409.046 369.339 407.063 365.17L406.198 363.259C406.071 363.031 405.974 362.787 405.906 362.535C406.062 362.742 406.197 362.965 406.308 363.199C406.54 363.641 406.872 364.275 407.314 365.069C408.35 367.144 409.234 369.292 409.959 371.495C410.664 373.703 411.201 375.962 411.568 378.252C411.708 379.137 411.809 379.841 411.859 380.343C411.887 380.597 411.891 380.853 411.869 381.108Z" fill="#263238"/>
<path d="M411.146 360.818C410.864 357.435 409.874 354.15 408.24 351.175C406.04 347.08 402.968 343.516 399.242 340.737C395.515 337.957 391.225 336.029 386.672 335.087L406.641 364.84L409.225 370.159C410.84 367.328 411.513 364.056 411.146 360.818Z" fill="#455A64"/>
<path d="M444.761 412.667H388.523V422.632H444.761V412.667Z" fill="#324C72"/>
<path d="M392.734 420.646L400.276 451.576H434.855L440.566 420.646H392.734Z" fill="#324C72"/>
<path d="M444.754 422.643C444.754 422.754 432.065 422.845 416.429 422.845C400.793 422.845 388.094 422.754 388.094 422.643C388.094 422.533 400.773 422.442 416.429 422.442C432.085 422.442 444.754 422.533 444.754 422.643Z" fill="#263238"/>
</svg>
