<svg xmlns="http://www.w3.org/2000/svg" width="93" height="85" viewBox="0 0 93 85" fill="none">
  <path d="M84.3904 43.8413C84.3313 43.6401 84.3127 43.4293 84.3358 43.2209C84.3185 43.0131 84.3429 42.8038 84.4078 42.6055C84.4704 42.8051 84.4899 43.0157 84.4649 43.2234C84.4835 43.4323 84.4581 43.6428 84.3904 43.8413Z" fill="#FFD427"/>
  <path d="M84.2505 46.3081C84.1936 45.8945 84.2241 45.4735 84.3399 45.0723C84.397 45.4859 84.3666 45.9069 84.2505 46.3081Z" fill="#FFD427"/>
  <path d="M83.9569 48.7621C83.9208 48.5563 83.9267 48.3452 83.9743 48.1417C83.9817 47.9324 84.0306 47.7266 84.1183 47.5361C84.1574 47.7426 84.1515 47.955 84.101 48.159C84.0943 48.3677 84.0453 48.5728 83.9569 48.7621Z" fill="#FFD427"/>
  <path d="M83.5217 51.2048C83.498 50.9965 83.5166 50.7855 83.5763 50.5844C83.5954 50.3764 83.6571 50.1746 83.7576 49.9912C83.7813 50.1988 83.7627 50.4089 83.703 50.6091C83.6841 50.818 83.6224 51.0207 83.5217 51.2048Z" fill="#FFD427"/>
  <path d="M82.9473 53.5996C82.9637 53.184 83.0677 52.7764 83.2527 52.4033C83.2363 52.819 83.1322 53.2266 82.9473 53.5996Z" fill="#FFD427"/>
  <path d="M82.2246 55.9646C82.2242 55.7554 82.2673 55.5484 82.3513 55.3566C82.3945 55.1523 82.4789 54.9589 82.5996 54.7881C82.5998 54.9973 82.5567 55.2043 82.4729 55.3961C82.4313 55.6009 82.3467 55.7947 82.2246 55.9646Z" fill="#FFD427"/>
  <path d="M81.3672 58.2827C81.3806 58.0743 81.4364 57.8708 81.5311 57.6845C81.5851 57.4821 81.6816 57.2935 81.8142 57.1309C81.8004 57.34 81.7446 57.5442 81.6503 57.7315C81.5948 57.9326 81.4984 58.1202 81.3672 58.2827Z" fill="#FFD427"/>
  <path d="M80.3691 60.5485C80.3948 60.341 80.4623 60.1409 80.5678 59.9602C80.6366 59.7626 80.7438 59.5803 80.8832 59.4238C80.8588 59.6323 80.7911 59.8335 80.6845 60.0146C80.6169 60.212 80.5096 60.3936 80.3691 60.5485Z" fill="#FFD427"/>
  <path d="M79.2402 62.7506C79.2796 62.5454 79.3589 62.3497 79.4737 62.1747C79.6351 61.8732 79.789 61.6408 79.8213 61.6581C79.7842 61.8641 79.7047 62.0601 79.5879 62.234C79.429 62.5356 79.2849 62.7679 79.2402 62.7506Z" fill="#FFD427"/>
  <path d="M77.9844 64.8799C78.0346 64.6767 78.1258 64.4858 78.2526 64.3188C78.4289 64.0271 78.5977 63.8047 78.63 63.8245C78.5792 64.0275 78.4881 64.2183 78.3618 64.3855C78.183 64.6772 78.0142 64.8997 77.9844 64.8799Z" fill="#FFD427"/>
  <path d="M76.6055 66.9348C76.6694 66.7352 76.7714 66.5497 76.9059 66.3886C77.0996 66.1093 77.2809 65.8942 77.3107 65.9189C77.2493 66.1184 77.1479 66.3033 77.0127 66.4627C76.8165 66.7445 76.6353 66.9546 76.6055 66.9348Z" fill="#FFD427"/>
  <path d="M75.1055 68.9052C75.178 68.709 75.2904 68.5298 75.4357 68.3788C75.6468 68.1093 75.8405 67.9091 75.8678 67.9314C75.8951 67.9536 75.7486 68.1785 75.5375 68.4578C75.3265 68.7372 75.1328 68.9275 75.1055 68.9052Z" fill="#FFD427"/>
  <path d="M73.4952 70.784C73.4679 70.7592 73.6293 70.5368 73.8553 70.2896C74.0812 70.0424 74.2873 69.8447 74.3147 69.8669C74.342 69.8892 74.1806 70.1141 73.9521 70.3736C73.7237 70.6332 73.52 70.8062 73.4952 70.784Z" fill="#FFD427"/>
  <path d="M71.7738 72.5636C71.749 72.5388 71.9228 72.3164 72.1637 72.0692C72.4046 71.822 72.6206 71.6515 72.6479 71.6762C72.6752 71.7009 72.4989 71.9234 72.2556 72.1706C72.0122 72.4177 71.7987 72.5883 71.7738 72.5636Z" fill="#FFD427"/>
  <path d="M69.9553 74.2406C69.9305 74.2134 70.1192 74.0083 70.3725 73.7809C70.6258 73.5535 70.8542 73.3878 70.8691 73.415C70.884 73.4422 70.7077 73.6474 70.452 73.8748C70.1962 74.1022 69.9777 74.2678 69.9553 74.2406Z" fill="#FFD427"/>
  <path d="M68.0369 75.8112C68.0145 75.7816 68.2132 75.5888 68.4814 75.3762C68.6318 75.2306 68.81 75.1163 69.0053 75.04C69.0301 75.0672 68.829 75.2625 68.5608 75.4751C68.4112 75.6217 68.2328 75.7361 68.0369 75.8112Z" fill="#FFD427"/>
  <path d="M66.0306 77.2636C66.0107 77.234 66.2218 77.0511 66.4999 76.8558C66.6583 76.7183 66.8434 76.6148 67.0437 76.5518C67.0661 76.5814 66.855 76.7643 66.5744 76.9596C66.416 77.097 66.2309 77.2005 66.0306 77.2636Z" fill="#FFD427"/>
  <path d="M63.9426 78.5988C63.9228 78.5692 64.1438 78.3986 64.4393 78.2182C64.6065 78.0916 64.7973 77.9992 65.0005 77.9463C65.0204 77.9784 64.7993 78.1465 64.5038 78.3269C64.3378 78.4554 64.1467 78.548 63.9426 78.5988Z" fill="#FFD427"/>
  <path d="M61.7822 79.8111C61.7648 79.7789 61.9957 79.6232 62.2962 79.4601C62.4686 79.3382 62.6649 79.254 62.8723 79.2129C62.7261 79.3627 62.5513 79.482 62.3583 79.5639C62.1854 79.6849 61.9893 79.769 61.7822 79.8111Z" fill="#FFD427"/>
  <path d="M59.5488 80.8912C59.7034 80.7503 59.885 80.6418 60.0827 80.5723C60.2634 80.4642 60.4646 80.3944 60.6737 80.3672C60.5187 80.5095 60.3362 80.6188 60.1373 80.6885C59.9575 80.796 59.757 80.8651 59.5488 80.8912Z" fill="#FFD427"/>
  <path d="M57.2578 81.8391C57.4205 81.7059 57.609 81.6075 57.8116 81.5499C57.9984 81.454 58.2028 81.3968 58.4125 81.3818C58.2489 81.5136 58.0607 81.6119 57.8587 81.671C57.6718 81.7667 57.4674 81.8239 57.2578 81.8391Z" fill="#FFD427"/>
  <path d="M54.9121 82.6512C55.083 82.5316 55.2764 82.4475 55.4808 82.404C55.6726 82.317 55.8808 82.2715 56.0916 82.2705C55.7296 82.4796 55.328 82.6118 54.9121 82.6586V82.6512Z" fill="#FFD427"/>
  <path d="M52.5273 83.3224C52.7037 83.2095 52.9015 83.1338 53.1084 83.1C53.3059 83.0268 53.5162 82.994 53.7267 83.0036C53.549 83.1156 53.3506 83.1912 53.1432 83.226C52.9465 83.2989 52.737 83.3317 52.5273 83.3224Z" fill="#FFD427"/>
  <path d="M50.1016 83.8521C50.2857 83.751 50.4884 83.688 50.6975 83.6667C50.8981 83.6043 51.1093 83.5833 51.3183 83.6049C51.1346 83.7073 50.9318 83.7712 50.7224 83.7928C50.5215 83.8538 50.3104 83.8739 50.1016 83.8521Z" fill="#FFD427"/>
  <path d="M47.6506 84.2375C47.8369 84.1464 48.0394 84.0926 48.2465 84.0793C48.4506 84.0305 48.6624 84.0221 48.8698 84.0546C48.4773 84.1996 48.0582 84.2594 47.6406 84.23L47.6506 84.2375Z" fill="#FFD427"/>
  <path d="M45.1797 84.4794C45.3744 84.4005 45.5829 84.361 45.793 84.3632C45.9996 84.325 46.2118 84.3301 46.4163 84.3781C46.2217 84.4568 46.013 84.4955 45.803 84.4918C45.5967 84.5314 45.3842 84.5272 45.1797 84.4794Z" fill="#FFD427"/>
  <path d="M42.6953 84.5727C42.8935 84.5032 43.1042 84.4762 43.3136 84.4936C43.5224 84.4675 43.7344 84.4835 43.9369 84.5405C43.7378 84.6101 43.5265 84.6378 43.3161 84.6221C43.1079 84.647 42.8969 84.6302 42.6953 84.5727Z" fill="#FFD427"/>
  <path d="M40.2129 84.5326C40.4152 84.474 40.6276 84.4589 40.8362 84.4881C41.0459 84.4743 41.2562 84.5029 41.4545 84.5721C41.0423 84.6448 40.6195 84.6313 40.2129 84.5326Z" fill="#FFD427"/>
  <path d="M37.7363 84.344C37.9421 84.3033 38.1539 84.3033 38.3596 84.344C38.5702 84.3424 38.7789 84.3836 38.973 84.4652C38.7665 84.5075 38.5536 84.5075 38.3472 84.4652C38.1373 84.4674 37.9293 84.4262 37.7363 84.344Z" fill="#FFD427"/>
  <path d="M35.2773 84.0123C35.6946 83.987 36.1126 84.0493 36.504 84.1953C36.2966 84.2292 36.0844 84.2199 35.8808 84.1681C35.6711 84.1574 35.4658 84.1044 35.2773 84.0123Z" fill="#FFD427"/>
  <path d="M32.8496 83.5345C33.0588 83.5145 33.2699 83.5364 33.4704 83.5988C33.6797 83.6206 33.882 83.6863 34.0639 83.7916C33.6464 83.7925 33.2332 83.7084 32.8496 83.5444V83.5345Z" fill="#FFD427"/>
  <path d="M30.4395 82.915C30.8572 82.9397 31.265 83.0518 31.6364 83.2438C31.4263 83.2515 31.2169 83.217 31.0205 83.1424C30.8133 83.1069 30.6155 83.0295 30.4395 82.915Z" fill="#FFD427"/>
  <path d="M28.0723 82.1553C28.2823 82.1582 28.4895 82.2045 28.6806 82.2912C28.8852 82.3405 29.0783 82.4286 29.2493 82.5508C29.0392 82.5477 28.8321 82.5014 28.6409 82.4148C28.4361 82.3663 28.2429 82.2781 28.0723 82.1553Z" fill="#FFD427"/>
  <path d="M25.7598 81.2559C25.969 81.2725 26.1726 81.3313 26.3582 81.4289C26.5605 81.4878 26.7482 81.588 26.9095 81.723C26.4975 81.6494 26.1058 81.4902 25.7598 81.2559Z" fill="#FFD427"/>
  <path d="M23.5107 80.2236C23.9168 80.3233 24.298 80.5051 24.6306 80.7575C24.4224 80.7282 24.2223 80.6576 24.0421 80.5499C23.7317 80.4016 23.4933 80.2558 23.5107 80.2236Z" fill="#FFD427"/>
  <path d="M21.3193 79.0596C21.5251 79.103 21.7202 79.1871 21.8929 79.3067C22.0859 79.3886 22.2599 79.5089 22.4044 79.6602C22.1982 79.6181 22.0029 79.5339 21.8308 79.413C21.5304 79.2499 21.3019 79.0917 21.3193 79.0596Z" fill="#FFD427"/>
  <path d="M19.1914 77.7686C19.3947 77.8218 19.5849 77.916 19.7501 78.0454C20.0407 78.2283 20.2592 78.3988 20.2468 78.431C20.0429 78.3755 19.8527 78.2787 19.688 78.1467C19.4 77.9712 19.1914 77.7982 19.1914 77.7686Z" fill="#FFD427"/>
  <path d="M17.1618 76.3564C17.3601 76.422 17.5432 76.5262 17.7006 76.6629C17.9788 76.8607 18.1973 77.0461 18.1675 77.0757C17.9676 77.011 17.7833 76.9058 17.6262 76.7668C17.348 76.569 17.1394 76.3861 17.1618 76.3564Z" fill="#FFD427"/>
  <path d="M15.2178 74.8301C15.4142 74.9055 15.5926 75.0208 15.7418 75.1687C16.0075 75.3838 16.2036 75.5815 16.1838 75.6087C15.9877 75.5326 15.8094 75.4174 15.6598 75.27C15.3867 75.055 15.188 74.8573 15.2178 74.8301Z" fill="#FFD427"/>
  <path d="M13.3534 73.2031C13.542 73.2915 13.7109 73.4168 13.85 73.5714C14.0983 73.8013 14.287 74.0089 14.2647 74.0361C14.2423 74.0633 14.0164 73.8977 13.7681 73.6678C13.5197 73.4379 13.331 73.2155 13.3534 73.2031Z" fill="#FFD427"/>
  <path d="M11.6004 71.4453C11.7843 71.5461 11.947 71.6812 12.0796 71.8433C12.328 72.0904 12.4918 72.3055 12.4645 72.3376C12.4372 72.3697 12.2162 72.1868 11.9853 71.9421C11.7543 71.6974 11.5731 71.4725 11.6004 71.4453Z" fill="#FFD427"/>
  <path d="M9.94446 69.6047C9.97426 69.58 10.1779 69.7703 10.4014 70.0274C10.5522 70.1727 10.6736 70.3456 10.7589 70.5365C10.7316 70.5613 10.528 70.3709 10.302 70.1139C10.0761 69.8568 9.91714 69.6269 9.94446 69.6047Z" fill="#FFD427"/>
  <path d="M8.40419 67.6664C8.43399 67.6466 8.62519 67.8468 8.83378 68.1187C8.97764 68.2713 9.08912 68.4512 9.16156 68.6477C9.13176 68.6674 8.94056 68.4672 8.73197 68.1953C8.52338 67.9234 8.37439 67.6886 8.40419 67.6664Z" fill="#FFD427"/>
  <path d="M6.98242 65.6448C7.01222 65.6251 7.19101 65.8376 7.38221 66.1194C7.51757 66.2792 7.61819 66.4652 7.67771 66.6657C7.6504 66.6879 7.46913 66.4753 7.27544 66.1911C7.14138 66.0308 7.04167 65.8449 6.98242 65.6448Z" fill="#FFD427"/>
  <path d="M5.67773 63.541C5.71002 63.5237 5.87639 63.7461 6.05269 64.0353C6.17254 64.2047 6.25698 64.3964 6.30101 64.5989C6.27121 64.6162 6.10484 64.3937 5.92853 64.1045C5.80739 63.9356 5.72206 63.7438 5.67773 63.541Z" fill="#FFD427"/>
  <path d="M4.50391 61.3691C4.53619 61.3518 4.69015 61.5841 4.84659 61.8857C4.96101 62.0612 5.03871 62.2579 5.07504 62.464C5.04276 62.4813 4.8888 62.249 4.73236 61.945C4.61694 61.7709 4.53914 61.5747 4.50391 61.3691Z" fill="#FFD427"/>
  <path d="M3.45898 59.127C3.70105 59.4644 3.87016 59.8482 3.95562 60.2541C3.92334 60.2714 3.7818 60.0291 3.64274 59.7177C3.54236 59.535 3.47988 59.3341 3.45898 59.127Z" fill="#FFD427"/>
  <path d="M2.55664 56.8271C2.68365 56.9928 2.77649 57.1818 2.82979 57.3833C2.92288 57.5708 2.97693 57.7751 2.98871 57.9839C2.85866 57.8195 2.76399 57.6302 2.7106 57.4278C2.61784 57.2404 2.5654 57.0358 2.55664 56.8271Z" fill="#FFD427"/>
  <path d="M1.77742 54.4795C1.89794 54.6513 1.9824 54.8455 2.02574 55.0505C2.10831 55.2434 2.14974 55.4513 2.14741 55.661C2.02743 55.4889 1.94302 55.2948 1.8991 55.09C1.81674 54.897 1.77531 54.6892 1.77742 54.4795Z" fill="#FFD427"/>
  <path d="M1.14551 52.0928C1.25725 52.27 1.33003 52.4688 1.35907 52.6761C1.4294 52.8733 1.45814 53.0828 1.44349 53.2916C1.3335 53.1137 1.26163 52.9151 1.23242 52.7082C1.1622 52.511 1.13264 52.3017 1.14551 52.0928Z" fill="#FFD427"/>
  <path d="M0.661872 49.668C0.761522 49.8531 0.821553 50.0568 0.838178 50.2661C0.896372 50.4667 0.913264 50.6769 0.887841 50.8841C0.788716 50.6996 0.728707 50.4969 0.711535 50.2884C0.653342 50.087 0.636453 49.876 0.661872 49.668Z" fill="#FFD427"/>
  <path d="M0.320857 47.2199C0.409723 47.4098 0.457925 47.616 0.462398 47.8254C0.50434 48.0301 0.50434 48.2411 0.462398 48.4458C0.323797 48.0494 0.27132 47.6281 0.30844 47.21L0.320857 47.2199Z" fill="#FFD427"/>
  <path d="M0.121554 44.7588C0.196966 44.9533 0.232431 45.1609 0.225849 45.3693C0.261033 45.5764 0.252575 45.7885 0.201016 45.9922C0.125406 45.7969 0.0899414 45.5884 0.0967223 45.3792C0.0625939 45.1729 0.0710425 44.9618 0.121554 44.7588Z" fill="#FFD427"/>
  <path d="M0.0712927 42.2861C0.134344 42.4857 0.157129 42.6957 0.138338 42.9041C0.161764 43.1118 0.14233 43.322 0.0812256 43.522C0.0164987 43.3228 -0.0079759 43.1128 0.00921301 42.9041C-0.0141371 42.696 0.00701994 42.4854 0.0712927 42.2861Z" fill="#FFD427"/>
  <path d="M0.158881 39.8184C0.211261 40.0209 0.22224 40.2319 0.191164 40.4388C0.201785 40.6476 0.168808 40.8563 0.094318 41.0518C0.0421381 40.8492 0.0311634 40.6382 0.0620373 40.4314C0.0505318 40.2225 0.0835354 40.0136 0.158881 39.8184Z" fill="#FFD427"/>
  <path d="M0.391332 37.3629C0.435275 37.5674 0.435275 37.7788 0.391332 37.9833C0.388519 38.1927 0.343777 38.3994 0.259724 38.5913C0.216898 38.1746 0.262584 37.7535 0.393816 37.3555L0.391332 37.3629Z" fill="#FFD427"/>
  <path d="M0.770226 34.9141C0.800642 35.1214 0.787109 35.3327 0.730496 35.5345C0.715912 35.7411 0.660201 35.9427 0.566605 36.1277C0.536188 35.9204 0.549724 35.7091 0.606336 35.5073C0.620389 35.3006 0.676127 35.0988 0.770226 34.9141Z" fill="#FFD427"/>
  <path d="M1.29905 32.4971C1.29107 32.9142 1.19548 33.3251 1.01845 33.7033C1.00199 33.4942 1.02817 33.284 1.09543 33.0853C1.12211 32.8774 1.19141 32.6772 1.29905 32.4971Z" fill="#FFD427"/>
  <path d="M1.96398 30.1152C1.92939 30.5303 1.81026 30.934 1.61385 31.3017C1.60809 31.0927 1.64615 30.8847 1.72559 30.6912C1.7656 30.4853 1.84666 30.2894 1.96398 30.1152Z" fill="#FFD427"/>
  <path d="M2.77122 27.7803C2.76443 27.9895 2.71368 28.1949 2.62223 28.3834C2.56973 28.5855 2.47776 28.7753 2.35156 28.942C2.35835 28.7328 2.4091 28.5274 2.50055 28.3389C2.55236 28.1365 2.6444 27.9466 2.77122 27.7803Z" fill="#FFD427"/>
  <path d="M3.7177 25.499C3.69727 25.7071 3.63477 25.9089 3.53395 26.0922C3.46899 26.2917 3.36521 26.4765 3.22852 26.636C3.24917 26.4277 3.31256 26.2258 3.41475 26.0428C3.47675 25.8426 3.57992 25.6574 3.7177 25.499Z" fill="#FFD427"/>
  <path d="M4.79061 23.2739C4.68328 23.6763 4.49394 24.0524 4.23438 24.3788C4.26703 24.1721 4.34227 23.9743 4.45538 23.7979C4.61679 23.4865 4.76578 23.2517 4.79061 23.2739Z" fill="#FFD427"/>
  <path d="M6.00841 21.1116C5.96646 21.3155 5.88185 21.5084 5.76009 21.6776C5.58875 21.9717 5.42486 22.1991 5.39258 22.1719C5.43718 21.9681 5.52155 21.7749 5.6409 21.6034C5.81472 21.3167 5.97861 21.0918 6.00841 21.1116Z" fill="#FFD427"/>
  <path d="M7.34303 19.0276C7.28577 19.229 7.18774 19.4166 7.05498 19.5788C6.86626 19.8631 6.68995 20.0732 6.66016 20.0583C6.7185 19.8574 6.81642 19.67 6.94821 19.5071C7.13693 19.2229 7.31323 19.0079 7.34303 19.0276Z" fill="#FFD427"/>
  <path d="M8.79716 17.0262C8.72975 17.2242 8.62148 17.4061 8.47931 17.5601C8.27321 17.8319 8.08448 18.0371 8.05469 18.0173C8.02489 17.9975 8.16891 17.7702 8.37502 17.4834C8.58112 17.1967 8.76239 17.0039 8.79716 17.0262Z" fill="#FFD427"/>
  <path d="M10.3671 15.1168C10.3945 15.1415 10.2355 15.364 10.017 15.6309C9.79848 15.8979 9.59486 16.0857 9.56755 16.0635C9.54023 16.0412 9.69668 15.8163 9.91768 15.5494C10.1387 15.2824 10.3398 15.0896 10.3671 15.1168Z" fill="#FFD427"/>
  <path d="M12.0495 13.2962C12.0768 13.3209 11.9054 13.5434 11.6695 13.7905C11.4336 14.0377 11.2226 14.2181 11.1977 14.1959C11.1729 14.1737 11.3418 13.9487 11.5777 13.7015C11.8136 13.4544 12.0246 13.2715 12.0495 13.2962Z" fill="#FFD427"/>
  <path d="M13.8319 11.5771C13.8568 11.6043 13.673 11.8243 13.4247 12.0467C13.1764 12.2692 12.9529 12.4472 12.9281 12.4224C12.9032 12.3977 13.0845 12.1876 13.3353 11.9528C13.5861 11.718 13.8071 11.5499 13.8319 11.5771Z" fill="#FFD427"/>
  <path d="M15.7151 9.96777C15.7374 9.99496 15.5412 10.1952 15.2805 10.4127C15.1326 10.5615 14.9561 10.6792 14.7615 10.7587C14.7392 10.7315 14.9329 10.5313 15.1961 10.3138C15.3432 10.164 15.5199 10.0462 15.7151 9.96777Z" fill="#FFD427"/>
  <path d="M17.6869 8.4707C17.7092 8.50036 17.5031 8.68575 17.2275 8.88843C17.0712 9.02784 16.889 9.13534 16.6911 9.20481C16.6688 9.17762 16.8749 8.98977 17.1505 8.78462C17.3056 8.64428 17.4882 8.5374 17.6869 8.4707Z" fill="#FFD427"/>
  <path d="M19.7443 7.0918C19.7642 7.12146 19.5457 7.29695 19.2601 7.48233C19.0966 7.61314 18.9082 7.70981 18.7063 7.76658C18.6865 7.73692 18.9025 7.56143 19.1906 7.37358C19.3532 7.24192 19.5419 7.1459 19.7443 7.0918Z" fill="#FFD427"/>
  <path d="M21.8803 5.83496C21.8977 5.86709 21.6717 6.02776 21.3836 6.19831C21.212 6.31826 21.0177 6.40235 20.8125 6.44548C20.9524 6.29303 21.1212 6.16955 21.3091 6.08214C21.4806 5.96181 21.6749 5.8777 21.8803 5.83496Z" fill="#FFD427"/>
  <path d="M24.089 4.7041C23.9377 4.84867 23.7587 4.96133 23.5626 5.03532C23.3846 5.14768 23.185 5.22177 22.9766 5.25283C23.1278 5.10826 23.3069 4.9956 23.503 4.92162C23.6812 4.80964 23.8807 4.73559 24.089 4.7041Z" fill="#FFD427"/>
  <path d="M26.3591 3.70508C26.1997 3.84187 26.0137 3.94452 25.8128 4.00663C25.6291 4.1079 25.426 4.16939 25.2168 4.18707C25.3764 4.05121 25.5624 3.94942 25.7631 3.88799C25.9475 3.78795 26.1501 3.72575 26.3591 3.70508Z" fill="#FFD427"/>
  <path d="M28.6827 2.84277C28.5166 2.97057 28.3254 3.06234 28.1215 3.11219C27.9313 3.20045 27.7253 3.25003 27.5156 3.25803C27.6821 3.13136 27.8732 3.04046 28.0768 2.99108C28.2667 2.90165 28.4728 2.85121 28.6827 2.84277Z" fill="#FFD427"/>
  <path d="M31.0572 2.12109C30.8822 2.23685 30.6853 2.31591 30.4786 2.35344C30.2841 2.43252 30.0752 2.4704 29.8652 2.46467C30.2338 2.26774 30.64 2.15065 31.0572 2.12109Z" fill="#FFD427"/>
  <path d="M33.4671 1.53687C33.0876 1.71111 32.6757 1.80456 32.2578 1.81123C32.4384 1.7037 32.6398 1.63546 32.8488 1.61102C33.0476 1.54415 33.2581 1.5189 33.4671 1.53687Z" fill="#FFD427"/>
  <path d="M35.9117 1.09721C35.5225 1.24955 35.1053 1.31861 34.6875 1.2999C34.8745 1.20473 35.0789 1.14839 35.2884 1.13429C35.4917 1.08083 35.7035 1.06823 35.9117 1.09721Z" fill="#FFD427"/>
  <path d="M38.3744 0.803134C37.9741 0.931951 37.5512 0.975739 37.1328 0.931666C37.3256 0.84814 37.5334 0.804414 37.7437 0.803134C37.9515 0.75833 38.1666 0.75833 38.3744 0.803134Z" fill="#FFD427"/>
  <path d="M40.8549 0.649904C40.6578 0.724407 40.447 0.756423 40.2366 0.743831C40.0285 0.773099 39.8168 0.761341 39.6133 0.709227C39.8104 0.634723 40.0211 0.602708 40.2316 0.6153C40.4396 0.586032 40.6514 0.59779 40.8549 0.649904Z" fill="#FFD427"/>
  <path d="M43.3373 0.643186C43.1364 0.704009 42.9252 0.723353 42.7165 0.700035C42.5068 0.717145 42.2959 0.692785 42.0957 0.628356C42.5061 0.547558 42.9289 0.552608 43.3373 0.643186Z" fill="#FFD427"/>
  <path d="M45.8178 0.779917C45.4023 0.835718 44.9798 0.806275 44.5762 0.693404C44.7804 0.644889 44.9923 0.637328 45.1994 0.67116C45.4109 0.664246 45.6215 0.701287 45.8178 0.779917Z" fill="#FFD427"/>
  <path d="M48.2824 1.05907C48.0749 1.09501 47.8623 1.08997 47.6567 1.04424C47.4471 1.03762 47.241 0.988855 47.0508 0.900874C47.4712 0.86611 47.8943 0.920014 48.2924 1.05907H48.2824Z" fill="#FFD427"/>
  <path d="M50.7295 1.48124C50.3107 1.48959 49.8947 1.41132 49.5078 1.25137C49.717 1.22618 49.9291 1.24384 50.1311 1.30327C50.3406 1.32189 50.5441 1.38242 50.7295 1.48124Z" fill="#FFD427"/>
  <path d="M53.1477 2.04667C52.7292 2.03296 52.3186 1.93013 51.9434 1.74512C52.3614 1.76199 52.7714 1.86465 53.1477 2.04667Z" fill="#FFD427"/>
  <path d="M55.5263 2.75897C55.1094 2.71945 54.7056 2.59223 54.3418 2.38574C54.551 2.38731 54.7578 2.43015 54.9502 2.5118C55.1574 2.55341 55.3536 2.6376 55.5263 2.75897Z" fill="#FFD427"/>
  <path d="M57.8569 3.60455C57.6471 3.59125 57.442 3.53665 57.2535 3.44389C57.0505 3.38914 56.8612 3.29321 56.6973 3.16211C56.9071 3.1754 57.1122 3.23001 57.3007 3.32277C57.5037 3.37724 57.6932 3.47321 57.8569 3.60455Z" fill="#FFD427"/>
  <path d="M60.1357 4.58828C59.9277 4.56262 59.7269 4.49626 59.5447 4.39301C59.3455 4.32604 59.1621 4.21922 59.0059 4.0791C59.2141 4.10371 59.4152 4.17014 59.5969 4.27437C59.9172 4.41526 60.1655 4.55615 60.1357 4.58828Z" fill="#FFD427"/>
  <path d="M62.351 5.70333C62.1434 5.66735 61.9456 5.58909 61.7699 5.47345C61.4669 5.31526 61.2335 5.16202 61.2509 5.12988C61.4575 5.16653 61.6543 5.24475 61.8295 5.35976C62.0244 5.43889 62.2016 5.55566 62.351 5.70333Z" fill="#FFD427"/>
  <path d="M64.4951 6.94533C64.291 6.89803 64.099 6.80879 63.9315 6.68332C63.6384 6.50783 63.415 6.33975 63.4348 6.30762C63.6391 6.35801 63.8315 6.44787 64.001 6.57209C64.2915 6.74759 64.515 6.91567 64.4951 6.94533Z" fill="#FFD427"/>
  <path d="M66.5657 8.31474C66.365 8.25267 66.1785 8.15188 66.0169 8.01813C65.7363 7.82533 65.5203 7.6449 65.5426 7.61523C65.7438 7.67607 65.9305 7.77699 66.0914 7.91185C66.3745 8.10464 66.5855 8.28508 66.5657 8.31474Z" fill="#FFD427"/>
  <path d="M68.547 9.80082C68.3498 9.72719 68.1692 9.61547 68.0156 9.47208C67.7474 9.26198 67.5438 9.07165 67.5661 9.04199C67.763 9.11483 67.9429 9.22666 68.0951 9.37073C68.3583 9.58083 68.5693 9.77116 68.547 9.80082Z" fill="#FFD427"/>
  <path d="M70.4398 11.41C70.415 11.4371 70.1915 11.2765 69.9307 11.0515C69.67 10.8266 69.4813 10.6239 69.5061 10.5968C69.5309 10.5696 69.7544 10.7302 70.0152 10.9552C70.2759 11.1801 70.4646 11.3729 70.4398 11.41Z" fill="#FFD427"/>
  <path d="M72.2357 13.1028C72.2109 13.1275 71.9874 12.9545 71.7391 12.7172C71.5768 12.5844 71.4419 12.4215 71.3418 12.2377C71.3666 12.213 71.5901 12.386 71.8384 12.6258C72.0868 12.8655 72.2606 13.0781 72.2357 13.1028Z" fill="#FFD427"/>
  <path d="M73.9286 14.9093C73.9013 14.934 73.6952 14.7486 73.4642 14.4965C73.2333 14.2444 73.0694 14.0194 73.0967 14.0021C73.124 13.9848 73.3301 14.1628 73.5611 14.4174C73.792 14.672 73.9559 14.887 73.9286 14.9093Z" fill="#FFD427"/>
  <path d="M75.5141 16.8122C75.4843 16.8345 75.2881 16.6367 75.0746 16.3723C74.9271 16.2229 74.8114 16.0456 74.7344 15.8507C74.7642 15.826 74.9603 16.0237 75.1739 16.2907C75.3214 16.44 75.4371 16.6174 75.5141 16.8122Z" fill="#FFD427"/>
  <path d="M76.9799 18.8055C76.9501 18.8253 76.7639 18.6152 76.5677 18.3383C76.4293 18.1814 76.3245 17.9981 76.2598 17.7995C76.2896 17.7772 76.4733 17.9849 76.672 18.2642C76.8091 18.4229 76.9137 18.6068 76.9799 18.8055Z" fill="#FFD427"/>
  <path d="M78.3221 20.8794C78.2923 20.8967 78.121 20.6767 77.9397 20.385C77.8112 20.2191 77.7175 20.0291 77.6641 19.8264C77.6939 19.8067 77.8677 20.0266 78.049 20.3208C78.1786 20.4857 78.2717 20.6761 78.3221 20.8794Z" fill="#FFD427"/>
  <path d="M79.5487 23.0279C79.5164 23.0452 79.3575 22.8153 79.1936 22.5162C79.0731 22.3445 78.9887 22.1503 78.9453 21.9453C78.9776 21.928 79.1365 22.1554 79.3004 22.4544C79.4216 22.6267 79.5061 22.8219 79.5487 23.0279Z" fill="#FFD427"/>
  <path d="M80.6383 25.251C80.4957 25.0974 80.3859 24.9166 80.3155 24.7196C80.2067 24.5407 80.1365 24.3412 80.1094 24.1338C80.252 24.2874 80.3618 24.4682 80.4322 24.6652C80.5416 24.8438 80.6119 25.0435 80.6383 25.251Z" fill="#FFD427"/>
  <path d="M81.6005 27.5204C81.4668 27.3593 81.3679 27.1725 81.31 26.9717C81.211 26.7875 81.1526 26.5844 81.1387 26.376C81.2714 26.5377 81.3702 26.7243 81.4292 26.9247C81.5278 27.109 81.5862 27.312 81.6005 27.5204Z" fill="#FFD427"/>
  <path d="M82.4254 29.8513C82.3061 29.6816 82.2217 29.49 82.1771 29.2877C82.0914 29.0962 82.0458 28.8893 82.043 28.6797C82.162 28.8505 82.2463 29.0428 82.2913 29.2457C82.3784 29.4359 82.4241 29.6423 82.4254 29.8513Z" fill="#FFD427"/>
  <path d="M83.106 32.2275C82.9166 31.857 82.8067 31.4512 82.7832 31.0361C82.9726 31.4067 83.0826 31.8124 83.106 32.2275Z" fill="#FFD427"/>
  <path d="M83.6468 34.6438C83.4823 34.261 83.3978 33.8489 83.3984 33.4326C83.5027 33.6151 83.5678 33.8171 83.5896 34.0258C83.6507 34.2258 83.6701 34.4361 83.6468 34.6438Z" fill="#FFD427"/>
  <path d="M84.048 37.079C83.9544 36.891 83.9019 36.6855 83.894 36.4759C83.8434 36.273 83.8341 36.062 83.8667 35.8555C84.0125 36.2505 84.0742 36.6713 84.048 37.0913V37.079Z" fill="#FFD427"/>
  <path d="M84.2969 39.5356C84.2146 39.3435 84.174 39.1363 84.1777 38.9276C84.1361 38.722 84.1361 38.5102 84.1777 38.3047C84.2599 38.4977 84.3005 38.7056 84.2969 38.9152C84.3388 39.1199 84.3388 39.3309 84.2969 39.5356Z" fill="#FFD427"/>
  <path d="M84.4052 42.0039C84.3341 41.8069 84.3062 41.5971 84.3232 41.3884C84.2967 41.1816 84.3119 40.9715 84.3679 40.7705C84.4394 40.9674 84.4682 41.1772 84.4524 41.386C84.4789 41.593 84.4628 41.8032 84.4052 42.0039Z" fill="#FFD427"/>
  <path d="M81.0566 44.3213C81.079 43.8788 81.0914 43.4413 81.0939 43.0014C81.0964 42.5614 81.0939 42.0769 81.0939 41.6172C81.0939 42.0769 81.1063 42.5391 81.0939 43.0014C81.0815 43.4636 81.079 43.8788 81.0566 44.3213Z" fill="#263238"/>
  <path d="M76.7797 49.1923C76.5314 48.2876 76.5761 47.3385 76.4569 46.4116C76.3924 45.9172 76.2409 45.371 75.8212 45.0941C75.5431 44.9112 75.188 44.8791 74.8851 44.7382C73.795 44.2439 73.7155 42.6076 72.7098 41.9624C72.381 41.7834 72.0269 41.6551 71.6594 41.5818C70.2415 41.2036 68.8211 40.4942 68.0787 39.2361C67.8304 38.8283 67.6714 38.3661 67.3486 38.0175C67.0258 37.669 66.4671 37.4565 66.0623 37.7086C66.2808 38.3586 66.4894 39.0062 66.7005 39.6489C66.8967 40.2347 67.0928 40.8378 67.4926 41.3025C67.8924 41.7672 68.5455 42.086 69.1365 41.9105C69.3234 41.8183 69.5319 41.7781 69.7399 41.7944C69.8834 41.8468 70.0026 41.9496 70.0751 42.0836C70.7357 43.0723 70.2713 44.4614 69.3749 45.2375C68.4785 46.0136 67.2865 46.3028 66.1468 46.5772C65.7419 46.7098 65.3084 46.7303 64.8927 46.6365C64.1602 46.3893 63.8771 45.5143 63.7629 44.7481C63.5146 43.0549 63.5146 41.258 62.715 39.7428C62.4543 39.2658 62.1091 38.8134 61.9874 38.282C61.8608 37.7086 62.0023 37.0783 61.7391 36.5518C61.4759 36.0253 60.7905 35.6051 60.8302 34.9921C60.86 34.5645 61.2673 34.2506 61.6845 34.1147C62.1016 33.9787 62.5461 33.9911 62.9732 33.8848C63.1396 33.8403 63.3333 33.7513 63.3656 33.5832C63.4003 33.3361 63.0626 33.1754 63.0055 32.9257C62.9484 32.6761 63.2538 32.4314 63.4103 32.1842C63.748 31.6256 63.2141 30.936 62.6455 30.6073C62.0768 30.2785 61.3865 29.9992 61.1903 29.3714C61.1285 29.0774 61.1051 28.7766 61.1208 28.4766C61.0885 27.7227 60.649 26.9367 59.9239 26.7069C59.1988 26.477 58.2701 27.0208 58.285 27.7771C58.285 28.1924 58.5557 28.5532 58.6674 28.9512C58.7791 29.3491 58.6525 29.9028 58.2453 29.9671C57.5773 30.0684 57.1328 28.8177 56.5393 29.139C56.6486 29.9176 56.7553 30.6938 56.8646 31.4748C55.9632 31.7789 55.0693 30.8643 54.8383 29.9399C54.6074 29.0155 54.7365 28.0268 54.4311 27.1295C54.1256 26.2323 53.0678 25.4364 52.2508 25.9258C52.0596 26.9985 53.4254 27.6412 53.932 28.6027C54.297 29.2997 54.0809 30.3131 53.3484 30.6171C52.6159 30.9212 51.6549 30.0709 52.0174 29.3813C52.1465 29.1341 52.3899 28.9586 52.4545 28.6892C52.529 28.353 52.2806 28.0391 52.0522 27.7845C51.6946 27.3792 51.3345 26.9812 50.977 26.5833C50.7609 26.3092 50.4914 26.0814 50.1848 25.9134C49.3803 25.5501 48.4466 26.1062 47.8904 26.7884C47.3341 27.4706 46.9592 28.3184 46.2539 28.8548C45.2383 29.6359 43.5572 29.4505 42.8669 28.3777C42.1766 27.305 42.8669 25.5871 44.1308 25.4117C44.6126 25.3499 45.1936 25.4463 45.4966 25.0755C46.028 24.4155 44.9428 23.3206 45.4693 22.6532C45.874 22.1415 46.6885 22.5197 47.3366 22.4209C47.9847 22.322 48.4143 21.7535 48.8588 21.274C49.3033 20.7944 49.9365 20.3471 50.5499 20.5769C50.5183 20.1987 50.5967 19.8195 50.7758 19.4844C50.9894 19.168 51.486 19.0173 51.7567 19.2793C51.3743 19.744 51.6425 20.5151 52.1465 20.8365C52.6506 21.1578 53.2938 21.1998 53.8997 21.2196C54.5056 21.2394 55.2853 21.1232 55.4219 20.5349C55.4666 20.3446 55.4219 20.1271 55.5237 19.9565C55.8887 19.2867 57.0608 20.4509 57.6493 19.9565C57.9845 19.7093 57.7387 19.1285 57.3463 18.9678C56.954 18.8072 56.517 18.8961 56.1047 18.8492C55.6925 18.8022 55.2158 18.518 55.258 18.1077C55.3002 17.6974 55.7968 17.4749 55.9036 17.0819C56.0824 16.4145 54.9501 16.0709 54.4634 16.5653C53.9767 17.0596 54.0114 17.8358 54.0338 18.5254C54.0561 19.215 54.0114 20.0084 53.4428 20.4187C53.182 20.7104 52.6531 20.4608 52.5215 20.0949C52.3899 19.7291 52.4843 19.3238 52.5091 18.9357C52.5339 18.5476 52.4272 18.0829 52.0646 17.9272C51.8163 17.816 51.5158 17.9025 51.2427 17.9C50.165 17.8753 49.6261 16.417 50.1079 15.4481C50.5896 14.4791 51.6375 13.965 52.6457 13.5943C53.3906 13.3174 54.2771 13.0999 54.8979 13.5646C55.1884 13.7871 55.3648 14.1207 55.6429 14.3481C56.1395 14.7411 56.8125 14.7214 57.4258 14.8202C58.3947 14.9936 59.2736 15.4948 59.914 16.239C60.1623 16.5257 60.346 16.9805 60.0903 17.2426C59.8345 17.5046 59.1392 17.4897 59.2013 17.8803C59.3732 17.9555 59.5591 17.9938 59.7469 17.9926C59.9346 17.9914 60.12 17.9507 60.2909 17.8733C60.4618 17.7958 60.6143 17.6833 60.7385 17.5431C60.8627 17.4029 60.9557 17.2381 61.0115 17.0596C61.176 17.1656 61.3096 17.3127 61.3989 17.4862C61.4883 17.6597 61.5302 17.8536 61.5206 18.0483C61.7477 17.8914 62.0052 17.7834 62.2766 17.7311C62.548 17.6789 62.8274 17.6837 63.0969 17.7451C63.3664 17.8065 63.6201 17.9232 63.8416 18.0878C64.0632 18.2524 64.2478 18.4612 64.3837 18.7009C64.4827 18.978 64.6298 19.2356 64.8182 19.4622C65.0392 19.655 65.4763 19.6377 65.5483 19.3559C65.5693 19.2656 65.5693 19.1718 65.5483 19.0815C65.4614 18.649 65.3695 18.2214 65.2826 17.7937C65.891 17.5738 66.4919 18.1423 66.8023 18.7058C67.952 20.8068 69.134 19.8156 71.0957 20.4138C72.4242 20.8142 72.896 21.7683 73.5094 22.9251C75.3917 26.4869 78.1107 29.5765 79.7571 33.252C79.9226 33.636 80.0799 34.0232 80.2289 34.4137C80.2066 34.3173 80.1892 34.2234 80.1643 34.127C79.6487 31.8199 78.9154 29.5664 77.9742 27.3965C77.7738 26.9367 77.5669 26.4803 77.3534 26.0271C77.2193 25.7478 77.0802 25.4636 76.9412 25.1892C76.7624 24.8283 76.5712 24.4798 76.38 24.1313C76.2285 23.8495 76.0745 23.5727 75.9156 23.3033C75.8063 23.1129 75.6921 22.9251 75.5754 22.7348C75.4587 22.5444 75.3271 22.3096 75.1831 22.0971L74.7584 21.4346C74.7158 21.3638 74.6694 21.2953 74.6194 21.2295C74.4729 20.9996 74.3139 20.7722 74.155 20.5448C74.145 20.5184 74.1288 20.4947 74.1078 20.4756C74.0681 20.4138 74.0209 20.352 73.9738 20.2902C73.8471 20.0974 73.7056 19.9096 73.5715 19.7242C73.348 19.4202 73.1195 19.1161 72.8811 18.822C72.6899 18.5748 72.4888 18.3276 72.2827 18.0805C72.0766 17.8333 71.9226 17.6454 71.7364 17.4329C71.5502 17.2203 71.3738 17.0152 71.1876 16.81C70.9616 16.5628 70.7332 16.3156 70.4948 16.0536C69.8417 15.3591 69.1638 14.6917 68.4586 14.0589C68.2848 13.8983 68.1134 13.7426 67.9371 13.5893C67.7608 13.4361 67.5795 13.2779 67.4008 13.1271C67.222 12.9763 67.0432 12.8231 66.8569 12.6772C66.6707 12.5314 66.4919 12.3782 66.3082 12.2348C66.1244 12.0914 66.0127 12 65.8612 11.8912C65.7873 11.8289 65.7102 11.7703 65.6302 11.7157C65.3124 11.4686 64.9871 11.2214 64.6593 11.0063C64.4954 10.8902 64.3315 10.774 64.1627 10.6628C63.9541 10.5145 63.7381 10.3736 63.522 10.2376C63.4921 10.2129 63.4597 10.1913 63.4252 10.1734C63.2315 10.0473 63.0403 9.92619 62.8391 9.79766C62.561 9.62959 62.2804 9.45903 61.9998 9.30332C61.6795 9.11546 61.3592 8.92761 61.0289 8.74965C60.6986 8.57168 60.3038 8.35417 59.9338 8.17126C59.5638 7.98835 59.1889 7.79803 58.8089 7.62006C58.429 7.44209 58.0491 7.27649 57.6642 7.10841C56.9043 6.78214 56.1271 6.47812 55.3424 6.19881L55.3002 6.18151C54.9997 6.07522 54.6968 5.97141 54.3938 5.87748C54.3751 5.86724 54.3551 5.85975 54.3342 5.85524C54.2051 5.81322 54.0685 5.76873 53.932 5.72918C53.3658 5.54874 52.7947 5.38808 52.2136 5.23483C52.1442 5.2132 52.0738 5.19505 52.0025 5.18045C51.8362 5.13102 51.6673 5.09394 51.4935 5.05192C51.1111 4.95799 50.7237 4.87148 50.3338 4.79239C49.944 4.71329 49.5169 4.62431 49.1071 4.54521C48.6974 4.46612 48.2455 4.39691 47.8134 4.33512C46.6695 4.17033 45.5297 4.05746 44.394 3.99649C44.1234 3.97671 43.8602 3.96436 43.592 3.95694C43.3238 3.94953 43.0357 3.93716 42.7576 3.93469C42.4795 3.93222 42.1989 3.93469 41.9258 3.93469C41.6526 3.93469 41.3695 3.9347 41.0889 3.94953C40.853 3.94953 40.6097 3.94952 40.3713 3.97671C39.7819 4.00472 39.1984 4.04428 38.6206 4.09536C38.35 4.1176 38.0793 4.14726 37.8061 4.18187C37.533 4.21647 37.2623 4.24613 36.9966 4.28321C36.5472 4.34253 36.1077 4.41421 35.6681 4.48836L34.5954 4.6861H34.5706C34.2055 4.75778 33.8529 4.83688 33.4929 4.92092H33.4357C33.1055 4.99754 32.7777 5.07911 32.4549 5.16809C32.0476 5.26943 31.6454 5.38561 31.2505 5.50178C30.9128 5.60065 30.5801 5.70199 30.2573 5.81075C29.9345 5.9195 29.552 6.04309 29.2044 6.16667L29.1671 6.17903C28.8319 6.29768 28.4967 6.42621 28.1739 6.55474C27.8511 6.68327 27.496 6.82169 27.1558 6.96999C26.8379 7.10346 26.5275 7.23694 26.2146 7.37783C26.0954 7.42974 25.9812 7.48659 25.8595 7.54344C25.5293 7.69421 25.2065 7.85241 24.8663 8.01554C24.464 8.21081 24.0741 8.4209 23.6843 8.631C23.3391 8.81638 23.0014 9.00918 22.6686 9.20198C20.7399 10.318 18.9113 11.5973 17.2032 13.0258C16.6022 13.5201 16.0311 14.0342 15.4649 14.5582C14.9906 15.0106 14.5263 15.4678 14.0768 15.9474C14.1762 15.9474 14.2755 15.9474 14.3723 15.9474C14.9261 15.9844 15.5022 16.0858 16.0311 15.9202C16.5277 15.762 16.9002 15.4011 17.3571 15.1786C18.5242 14.5805 20.2798 14.6843 20.7491 13.4707C20.9081 13.0604 20.8609 12.5833 21.0769 12.2002C21.4842 11.4859 22.5172 11.5229 23.3317 11.6539C23.6793 11.7034 24.0766 11.8097 24.1933 12.1483C24.2209 12.2677 24.2227 12.3915 24.1988 12.5116C24.1748 12.6318 24.1256 12.7455 24.0543 12.8453C23.3392 14.1953 22.1791 15.2592 20.769 15.8584C19.6168 16.3527 18.1642 16.6469 17.6973 17.8036C17.7842 18.2312 18.5317 18.298 18.5292 18.7404C18.5292 19.0865 18.0599 19.1977 17.8562 19.4819C17.5607 19.8898 18.0127 20.5053 18.5217 20.5547C19.0308 20.6041 19.5026 20.3075 19.9247 20.0134C21.1812 19.1483 22.5023 18.2139 23.1156 16.8174C23.3639 16.2415 23.5378 15.5469 24.0816 15.2182C24.2472 15.1345 24.43 15.0901 24.6157 15.0886C24.8014 15.0871 24.985 15.1284 25.152 15.2093C25.3189 15.2903 25.4648 15.4086 25.5781 15.5551C25.6914 15.7016 25.769 15.8723 25.8049 16.0536C26.3264 15.8559 27.1036 15.7644 27.2799 16.3008C27.3085 16.4939 27.316 16.6895 27.3023 16.8841C27.347 17.6825 28.3601 18.1868 28.3576 18.9851C28.3576 19.9046 27.116 20.2037 26.1948 20.221C25.3555 20.221 24.5161 20.2383 23.6743 20.2531C23.3082 20.227 22.9411 20.2889 22.6041 20.4336C22.4374 20.5118 22.3027 20.6445 22.2223 20.8095C22.1419 20.9745 22.1206 21.162 22.1621 21.3407C22.2614 21.5201 22.3832 21.6862 22.5246 21.835C23.1082 22.6112 22.3433 23.9286 21.3774 23.8124C21.0471 23.7754 20.7417 23.6098 20.4164 23.5504C19.448 23.3675 18.5515 24.1091 17.963 24.8975C17.3745 25.686 16.8878 26.6105 16.0261 27.0801C14.6355 27.8389 12.505 27.31 11.688 28.6645C11.3602 29.2107 11.3925 29.883 11.3999 30.5207C11.4074 31.1585 11.3478 31.8505 10.9033 32.3128C10.4588 32.775 9.5177 32.7428 9.33146 32.1348C9.27795 31.8624 9.30646 31.5804 9.4134 31.3241C9.68821 30.4491 9.96053 29.5732 10.2304 28.6966C10.4315 28.0441 10.6302 27.3124 10.3148 26.7192C9.87031 25.8763 8.61878 25.7701 7.81175 26.2792C7.00471 26.7884 6.57015 27.703 6.23989 28.5878C5.99157 29.2453 5.68366 30.1796 5.19447 30.8989C4.94615 31.6404 4.74253 32.382 4.55132 33.1383C4.36012 33.8947 4.19126 34.6906 4.05469 35.484C4.17711 35.4087 4.29486 35.3262 4.4073 35.2368C4.84682 34.8982 5.86245 33.3435 6.43855 34.2605C6.50791 34.3803 6.53576 34.5195 6.51781 34.6566C6.49986 34.7937 6.43711 34.9212 6.33922 35.0193C6.0909 35.2665 5.65138 35.2665 5.44527 35.5334C5.19695 35.8572 5.40802 36.3343 5.69359 36.6111C5.97916 36.888 6.36902 37.1055 6.55277 37.4639C6.9029 38.1634 6.33922 39.0656 6.67693 39.7774C6.96746 40.3879 7.75215 40.5387 8.41516 40.7068L8.64113 40.7785C9.02354 39.4709 9.80823 38.4773 11.693 38.329C14.2953 38.1214 17.305 40.6771 18.4497 42.7781C19.7236 45.1213 20.039 48.2159 22.3061 49.6298C23.9301 50.6383 26.4356 50.7198 27.0242 52.5316C27.558 54.1555 25.9961 55.6682 25.5516 57.3169C25.2636 58.4094 25.4672 59.5637 25.3927 60.6834C25.3182 61.8031 24.7918 63.0612 23.7066 63.3801C23.1057 63.5531 22.398 63.4196 21.879 63.778C20.9577 64.4256 21.3824 66.0965 20.4735 66.7441C20.1482 66.969 19.7286 67.0086 19.366 67.1347C17.4117 67.7872 17.074 70.4591 17.6501 72.4291C17.6725 72.5008 17.6948 72.5651 17.7147 72.6367C23.1618 77.0438 29.7068 79.8994 36.6539 80.8998C42.9459 81.8149 49.3674 81.1714 55.3499 79.0262C56.6085 78.5737 57.8426 78.0564 59.0473 77.4764C60.9045 76.5895 62.6866 75.5546 64.3762 74.3818C65.5456 73.5748 66.6682 72.7025 67.7385 71.7692C68.4834 71.1216 69.211 70.4394 69.9113 69.7374C70.2664 69.3741 70.619 69.0107 70.9542 68.6301C73.4549 65.9086 75.546 62.8405 77.1622 59.5217C78.1507 57.5051 78.9568 55.4049 79.5708 53.2459C79.8192 52.4006 80.0302 51.5429 80.219 50.6729C79.9885 50.8537 79.7245 50.9876 79.442 51.067C79.1595 51.1463 78.8641 51.1694 78.5726 51.1351C77.6762 50.9719 77.0281 50.092 76.7797 49.1923Z" fill="#FFD427"/>
  <path d="M56.3022 63.8877C55.1277 65.1953 54.6906 66.9799 54.1741 68.6557C53.6576 70.3315 52.9325 72.0914 51.4426 73.0307C49.9527 73.9699 47.5316 73.5522 47.0325 71.869C46.7593 70.9569 47.1095 69.9756 47.0325 69.0265C46.9257 67.7906 46.1038 66.7302 45.8157 65.524C45.5674 64.4933 45.7263 63.4181 45.8455 62.3651C46.5061 56.6208 45.9722 50.4464 42.667 45.6907C42.2623 45.1049 41.788 44.5241 41.1324 44.2473C40.7379 44.0869 40.305 44.0439 39.8864 44.1233C39.4677 44.2027 39.0811 44.4011 38.7734 44.6946C38.4009 45.0629 38.1601 45.5672 37.7255 45.8613C36.7794 46.5015 35.3988 45.7476 34.9816 44.6872C34.5644 43.6268 34.8177 42.4355 35.0735 41.3257C35.3946 39.9481 35.7133 38.5713 36.0295 37.1954C36.1959 36.4761 36.392 35.7123 36.9532 35.218C37.7503 34.5284 38.9795 34.6693 39.9057 34.165C41.12 33.5075 41.4925 31.9701 42.3542 30.8924C43.2158 29.8148 45.4532 29.6294 45.5823 30.9987C48.577 26.4557 52.5799 34.4246 55.6665 34.3133C56.563 34.2787 57.4743 33.9846 58.336 34.2342C59.8557 34.6742 60.4094 36.4909 60.7248 38.0358C61.2462 40.5998 61.7685 43.163 62.2917 45.7253C62.4903 46.7017 62.7709 47.7967 63.645 48.2861C64.313 48.6618 65.1647 48.5703 65.8401 48.9312C67.628 49.8878 66.5851 52.7525 64.8767 53.8426C63.1682 54.9326 60.9085 55.4541 59.9153 57.214C59.1703 58.5413 59.3615 60.2493 58.5743 61.5544C58.0156 62.4862 57.0323 63.0696 56.3022 63.8877Z" fill="#263238"/>
  <path d="M63.2326 66.5073C62.5993 66.5073 61.9115 66.0945 61.3826 66.4381C61.0722 66.6383 60.953 67.0214 60.7941 67.3527C60.5861 67.8239 60.2126 68.2035 59.7437 68.4204C59.5082 68.5234 59.2478 68.5563 58.994 68.515C58.7401 68.4738 58.5037 68.3602 58.3134 68.1881C58.1338 68.006 58.0332 67.7611 58.0332 67.5059C58.0332 67.2508 58.1338 67.0058 58.3134 66.8237C58.5063 66.6938 58.7061 66.5741 58.9118 66.4653C59.8455 65.8103 59.4904 64.2926 60.2503 63.4621C60.6997 62.9678 61.3602 62.5056 61.8445 62.0162C62.2169 61.638 62.3808 61.3191 62.9693 61.2895C65.5444 61.1585 65.9243 66.5296 63.2326 66.5073Z" fill="#263238"/>
  <path d="M7.34267 47.8523C7.37991 46.7376 7.90387 45.6945 8.08762 44.5896C8.21178 43.8259 8.27386 43.0127 8.37319 42.2415C7.7188 42.1178 7.07773 41.9324 6.45865 41.6878C6.32408 41.651 6.20649 41.5689 6.1259 41.4555C6.07831 41.3212 6.0714 41.1759 6.10604 41.0378C6.18302 40.1702 5.43061 39.4806 4.74525 38.9417C4.40451 38.6572 4.03502 38.4087 3.64272 38.2002C3.64272 38.2916 3.61789 38.3757 3.61044 38.4671C3.15418 42.6396 3.38483 46.8583 4.29331 50.9569C4.69858 52.7801 5.24061 54.5705 5.91483 56.3131C6.19047 57.0546 6.50583 57.8085 6.84106 58.5377C7.25576 59.4448 7.69776 60.3371 8.18695 61.2047C8.63641 62.0377 9.12559 62.8558 9.65203 63.6492C10.368 64.7477 11.1405 65.8087 11.9664 66.8279C12.6981 67.7375 13.472 68.6117 14.2881 69.4504C13.0043 63.538 11.8596 57.5267 8.9617 52.2372C8.19192 50.858 7.293 49.4293 7.34267 47.8523Z" fill="#FFD427"/>
  <path d="M3.89718 36.375C3.85993 36.6049 3.81771 36.8323 3.78295 37.0621C3.81771 36.8372 3.85993 36.6222 3.89718 36.375Z" fill="#263238"/>
  <g opacity="0.6">
    <path d="M16.2129 71.3174C16.5059 71.5819 16.8014 71.8414 17.1044 72.096C16.7964 71.8414 16.5009 71.5819 16.2129 71.3174Z" fill="#263238"/>
  </g>
  <path d="M64.8809 53.8465C66.5894 52.7564 67.6323 49.8917 65.8444 48.9351C65.169 48.5742 64.3172 48.6657 63.6493 48.29C62.7752 47.7956 62.4946 46.7056 62.2959 45.7293C61.7745 43.1652 61.2522 40.602 60.729 38.0397C60.4137 36.4948 59.8599 34.6781 58.3402 34.2381C57.4785 33.991 56.5672 34.2826 55.6708 34.3172C52.5842 34.4285 48.5813 26.4596 45.5866 31.0026C45.4599 29.6333 43.2251 29.8187 42.3584 30.8963C41.4918 31.974 41.1168 33.5114 39.91 34.1689C38.9838 34.6633 37.7546 34.5323 36.9575 35.2219C36.3963 35.7162 36.2125 36.4751 36.0338 37.1993C35.7159 38.5752 35.3972 39.952 35.0777 41.3296C34.8294 42.4394 34.5811 43.6283 34.9858 44.6911C35.3906 45.754 36.7837 46.5054 37.7298 45.8652C38.1643 45.5711 38.4052 45.0668 38.7777 44.6985C39.0854 44.405 39.472 44.2066 39.8906 44.1272C40.3093 44.0478 40.7421 44.0908 41.1367 44.2512C41.7923 44.528 42.2665 45.1089 42.6713 45.6947C45.9764 50.4503 46.5103 56.6247 45.8498 62.369C45.7306 63.422 45.5741 64.4972 45.82 65.5279C46.108 66.7341 46.93 67.7945 47.0368 69.0304C47.1187 69.9795 46.7686 70.9608 47.0368 71.8729C47.5334 73.5561 49.9595 73.9739 51.4469 73.0346C52.9343 72.0953 53.6594 70.3379 54.1784 68.6596C54.6974 66.9813 55.1319 65.1992 56.3065 63.8916C57.0365 63.0809 58.0199 62.4902 58.5836 61.5583C59.3707 60.2532 59.1746 58.5452 59.9245 57.2179C60.9078 55.4531 63.1601 54.934 64.8809 53.8465Z" fill="#FFD427"/>
  <g opacity="0.6">
    <path d="M4.04849 35.4795C4.03359 35.5512 4.01621 35.6154 4.00628 35.6896C4.02117 35.6154 4.04849 35.5512 4.04849 35.4795Z" fill="#263238"/>
  </g>
  <path d="M8.651 40.7694L8.42503 40.6978C7.75953 40.5297 6.97485 40.3789 6.6868 39.7684C6.34908 39.0565 6.91277 38.1543 6.56264 37.4548C6.37888 37.089 5.99896 36.8863 5.70346 36.6021C5.40796 36.3178 5.19192 35.8482 5.45514 35.5244C5.66124 35.2525 6.0958 35.2525 6.34908 35.0103C6.44732 34.9123 6.51013 34.7846 6.52766 34.6473C6.54518 34.51 6.51644 34.3708 6.44593 34.2515C5.87231 33.3344 4.85669 34.8892 4.41717 35.2278C4.30473 35.3172 4.18698 35.3997 4.06455 35.475C4.04965 35.5466 4.03227 35.6109 4.02234 35.6851C3.98013 35.91 3.94784 36.1423 3.9106 36.3747C3.87335 36.607 3.83113 36.8319 3.79637 37.0618C3.76905 37.2497 3.74919 37.4375 3.72436 37.6254C3.69952 37.8132 3.67221 38.0011 3.65234 38.1865C4.04464 38.395 4.41413 38.6435 4.75488 38.928C5.44024 39.4668 6.19264 40.1639 6.11566 41.024C6.08102 41.1622 6.08793 41.3075 6.13553 41.4417C6.21611 41.5552 6.33371 41.6373 6.46828 41.6741C7.08736 41.9187 7.72843 42.1041 8.38281 42.2278" fill="#FFD427"/>
  <path d="M8.36843 42.2419C8.2691 43.0131 8.20702 43.8263 8.08286 44.5901C7.90407 45.6949 7.38012 46.738 7.33791 47.8528C7.28824 49.4297 8.18716 50.8584 8.94949 52.2426C11.8474 57.5321 12.9921 63.5434 14.2759 69.4558C14.6211 69.8216 14.9737 70.1701 15.3338 70.5112C15.6169 70.7864 15.9041 71.055 16.1954 71.317C16.4884 71.5815 16.7839 71.841 17.0869 72.0956C17.2955 72.2736 17.5066 72.4466 17.7251 72.6196C17.7052 72.5479 17.6829 72.4837 17.6605 72.412C17.0844 70.4346 17.4122 67.7701 19.3764 67.1175C19.7489 66.9915 20.1586 66.9519 20.4839 66.727C21.4027 66.0794 20.9681 64.4085 21.8894 63.7609C22.4084 63.4025 23.1161 63.536 23.717 63.363C24.8022 63.0441 25.3187 61.7934 25.4031 60.6663C25.4875 59.5392 25.274 58.3923 25.562 57.2998C26.0065 55.6511 27.5684 54.1384 27.0345 52.5145C26.4336 50.7027 23.9281 50.6211 22.3165 49.6127C20.0493 48.2038 19.734 45.1042 18.4601 42.761C17.3153 40.6674 14.3057 38.1116 11.7033 38.3118C9.81861 38.4602 9.03392 39.4538 8.65151 40.7613" fill="#FFD427"/>
  <path d="M7.81934 26.2676C8.62638 25.7584 9.8779 25.8647 10.3224 26.7076C10.6378 27.3107 10.4391 28.0423 10.238 28.685C9.96647 29.56 9.69415 30.4358 9.421 31.3124C9.31406 31.5688 9.28555 31.8508 9.33905 32.1232C9.52529 32.7312 10.4788 32.7584 10.9109 32.3011C11.343 31.8439 11.4075 31.1419 11.4075 30.5091C11.4075 29.8764 11.3678 29.1991 11.6956 28.6528C12.5126 27.2983 14.6431 27.8273 16.0337 27.0685C16.8954 26.5988 17.3846 25.6744 17.9706 24.8859C18.5566 24.0974 19.4605 23.3559 20.424 23.5388C20.7493 23.5981 21.0547 23.7637 21.385 23.8008C22.351 23.9071 23.1232 22.5897 22.5322 21.8234C22.3908 21.6746 22.269 21.5085 22.1697 21.3291C22.1283 21.1504 22.1495 20.9629 22.2299 20.7979C22.3103 20.6329 22.445 20.5002 22.6117 20.422C22.9487 20.2773 23.3158 20.2154 23.6819 20.2415C24.5237 20.2267 25.3631 20.2193 26.2024 20.2094C27.1311 20.2094 28.3603 19.9004 28.3652 18.9735C28.3652 18.1751 27.3546 17.6709 27.3099 16.8725C27.3236 16.6779 27.3161 16.4823 27.2875 16.2892C27.1112 15.7553 26.334 15.8468 25.8125 16.042C25.7766 15.8606 25.699 15.69 25.5857 15.5435C25.4724 15.397 25.3265 15.2787 25.1596 15.1977C24.9926 15.1168 24.809 15.0754 24.6233 15.077C24.4376 15.0785 24.2548 15.1229 24.0892 15.2066C23.5454 15.5353 23.3815 16.2299 23.1232 16.8058C22.5099 18.2023 21.1888 19.1366 19.9323 20.0018C19.5102 20.2885 19.0384 20.59 18.5293 20.5431C18.0203 20.4961 17.5683 19.8782 17.8638 19.4703C18.0675 19.1885 18.5318 19.0773 18.5368 18.7288C18.5368 18.2963 17.7918 18.2196 17.7049 17.792C18.1717 16.6352 19.6244 16.3362 20.7766 15.8468C22.189 15.2479 23.351 14.183 24.0668 12.8312C24.1381 12.7314 24.1874 12.6177 24.2113 12.4975C24.2353 12.3774 24.2335 12.2536 24.2059 12.1342C24.0917 11.8079 23.6919 11.7016 23.3442 11.6398C22.5297 11.5088 21.4967 11.4718 21.0895 12.1861C20.8735 12.5692 20.9206 13.0463 20.7617 13.4566C20.2924 14.6751 18.5268 14.5664 17.3697 15.1646C16.9128 15.3944 16.5328 15.7553 16.0437 15.9061C15.5147 16.0717 14.9386 15.9703 14.3849 15.9333C14.288 15.9333 14.1887 15.9333 14.0894 15.9333C13.6871 16.3485 13.2948 16.7761 12.9148 17.2112C12.5349 17.6462 12.1699 18.0911 11.8024 18.5434C10.0871 20.6862 8.60849 23.0065 7.39224 25.4643C6.96016 26.3269 6.56533 27.2094 6.20031 28.1115C5.83528 29.0137 5.50501 29.9332 5.20703 30.87C5.70367 30.1507 6.00662 29.2164 6.25245 28.5589C6.58023 27.6913 7.02472 26.7768 7.81934 26.2676Z" fill="#FFD427"/>
  <g opacity="0.6">
    <path d="M80.2207 34.4238C80.3333 34.9363 80.4343 35.4488 80.5237 35.9613C80.4343 35.4471 80.3333 34.9347 80.2207 34.4238Z" fill="#263238"/>
  </g>
  <path d="M80.758 47.611C80.835 47.0598 80.8996 46.5111 80.9467 45.9624C80.9939 45.4137 81.0336 44.8674 81.056 44.3212C81.0783 43.8787 81.0908 43.4412 81.0932 43.0012C81.0957 42.5613 81.0932 42.0768 81.0932 41.6171C81.0625 40.2438 80.9564 38.8732 80.7754 37.5115C80.7059 36.9924 80.6264 36.4734 80.5271 35.9593C80.4277 35.4451 80.3359 34.9335 80.2241 34.4218C80.0818 34.0313 79.9245 33.6441 79.7523 33.2601C78.106 29.5846 75.3869 26.495 73.5046 22.9332C72.8913 21.7764 72.4195 20.8223 71.091 20.4219C69.1292 19.8237 67.9472 20.8149 66.7975 18.7139C66.4871 18.1504 65.8862 17.5819 65.2778 17.8018C65.3647 18.2294 65.4566 18.6571 65.5435 19.0896C65.5645 19.1799 65.5645 19.2737 65.5435 19.364C65.4715 19.6458 65.0345 19.6631 64.8135 19.4703C64.6269 19.2409 64.4823 18.9807 64.3864 18.7016C64.2505 18.4626 64.066 18.2544 63.8449 18.0903C63.6237 17.9262 63.3706 17.8098 63.1017 17.7484C62.8329 17.687 62.5541 17.682 62.2832 17.7338C62.0123 17.7855 61.7552 17.8929 61.5282 18.049C61.5379 17.8543 61.4959 17.6604 61.4066 17.4869C61.3172 17.3133 61.1836 17.1662 61.0192 17.0603C60.9634 17.2388 60.8703 17.4035 60.7462 17.5437C60.622 17.6839 60.4695 17.7965 60.2986 17.8739C60.1277 17.9514 59.9423 17.9921 59.7545 17.9933C59.5667 17.9945 59.3808 17.9562 59.2089 17.8809C59.1468 17.4953 59.8223 17.525 60.0979 17.2432C60.3735 16.9614 60.1575 16.5264 59.9216 16.2397C59.2793 15.5001 58.4006 15.0034 57.4334 14.8333C56.8201 14.7344 56.1397 14.7542 55.6505 14.3612C55.3674 14.1338 55.1911 13.8001 54.9056 13.5776C54.2848 13.1006 53.3883 13.3305 52.6533 13.6073C51.6451 13.9879 50.5898 14.4971 50.1155 15.4611C49.6412 16.4251 50.1726 17.8883 51.2503 17.9131C51.5235 17.9131 51.8214 17.829 52.0722 17.9403C52.4348 18.096 52.5416 18.5582 52.5167 18.9487C52.4919 19.3393 52.3876 19.7422 52.5292 20.108C52.6707 20.4738 53.1897 20.7234 53.4504 20.4318C54.0191 20.0313 54.0712 19.2305 54.0414 18.5384C54.0116 17.8463 53.9893 17.0702 54.471 16.5783C54.9527 16.0864 56.09 16.4275 55.9112 17.0949C55.8045 17.4879 55.3053 17.7129 55.2656 18.1207C55.2259 18.5285 55.6977 18.8251 56.1124 18.8622C56.5271 18.8993 56.9716 18.8202 57.354 18.9809C57.7364 19.1415 57.9922 19.71 57.6569 19.9696C57.0684 20.4639 55.8963 19.3022 55.5313 19.9696C55.432 20.1401 55.4742 20.3576 55.4295 20.5479C55.2929 21.1362 54.5132 21.245 53.9073 21.2326C53.3014 21.2203 52.6657 21.1832 52.1542 20.8495C51.6426 20.5158 51.3819 19.757 51.7643 19.2923C51.4937 19.0303 50.997 19.1811 50.7835 19.4975C50.6044 19.8325 50.5259 20.2118 50.5575 20.59C49.9442 20.3601 49.301 20.8099 48.8665 21.287C48.4319 21.764 47.9849 22.335 47.3443 22.4339C46.7036 22.5328 45.8817 22.1546 45.4769 22.6662C44.9505 23.3336 46.0356 24.4286 45.5042 25.0885C45.2013 25.4593 44.6202 25.3629 44.1385 25.4247C42.8646 25.5928 42.1792 27.3131 42.8745 28.3908C43.5698 29.4685 45.246 29.6489 46.2616 28.8678C46.9668 28.3315 47.3443 27.4886 47.898 26.8014C48.4518 26.1143 49.3879 25.5656 50.1925 25.9264C50.4991 26.0944 50.7685 26.3223 50.9846 26.5963C51.3422 26.9942 51.7022 27.3922 52.0598 27.7976C52.2883 28.0447 52.5366 28.3661 52.4621 28.7022C52.3975 28.9716 52.1542 29.1521 52.0251 29.3943C51.6625 30.0913 52.6285 30.9391 53.356 30.6302C54.0836 30.3212 54.3046 29.3127 53.9396 28.6157C53.443 27.6542 52.0673 27.0115 52.2585 25.9388C53.0755 25.4445 54.1358 26.2379 54.4387 27.1425C54.7417 28.0472 54.6125 29.0359 54.846 29.9529C55.0794 30.8699 55.9708 31.7919 56.8722 31.4879C56.763 30.7068 56.6562 29.9307 56.5469 29.1521C57.1404 28.8307 57.5849 30.0814 58.2529 29.9801C58.6601 29.9158 58.7893 29.3646 58.675 28.9642C58.5608 28.5638 58.305 28.2054 58.2926 27.7901C58.2777 27.0338 59.2015 26.4925 59.9315 26.7199C60.6616 26.9473 61.0961 27.7358 61.1284 28.4896C61.1128 28.7896 61.1361 29.0904 61.198 29.3844C61.3941 30.0048 62.0919 30.2866 62.6531 30.6203C63.2143 30.954 63.7556 31.6386 63.4179 32.1973C63.2664 32.4444 62.956 32.6496 63.0132 32.9388C63.0703 33.228 63.408 33.3417 63.3732 33.5963C63.3409 33.7643 63.1473 33.8434 62.9809 33.8978C62.5538 34.0041 62.1093 33.9942 61.6921 34.1277C61.2749 34.2612 60.8677 34.5775 60.8379 35.0052C60.7982 35.6181 61.4785 36.0136 61.7467 36.5648C62.0149 37.116 61.8659 37.7216 61.9951 38.295C62.1167 38.8265 62.4619 39.2837 62.7226 39.7558C63.5321 41.271 63.5148 43.068 63.7705 44.7611C63.8848 45.5274 64.1678 46.4024 64.9004 46.6495C65.3161 46.7434 65.7495 46.7229 66.1544 46.5902C67.3041 46.3158 68.5035 46.0192 69.3825 45.2505C70.2616 44.4818 70.7433 43.0754 70.0828 42.0966C70.0103 41.9627 69.891 41.8598 69.7476 41.8074C69.5396 41.7911 69.331 41.8313 69.1441 41.9236C68.5532 42.0991 67.9026 41.7901 67.5003 41.3155C67.098 40.8409 66.9043 40.2477 66.7081 39.6619C66.4971 39.0193 66.2885 38.3717 66.07 37.7216C66.4747 37.4744 67.0285 37.6796 67.3563 38.0306C67.684 38.3816 67.8405 38.8413 68.0863 39.2491C68.8313 40.5073 70.2492 41.2265 71.6671 41.5948C72.0345 41.6681 72.3887 41.7964 72.7174 41.9755C73.7231 42.6206 73.8026 44.247 74.8927 44.7512C75.1957 44.8921 75.5508 44.9243 75.8289 45.1072C76.2485 45.384 76.4 45.9253 76.4646 46.4246C76.5838 47.3515 76.5341 48.3007 76.7874 49.2053C77.0407 50.11 77.6838 50.985 78.6076 51.1308C78.899 51.1651 79.1945 51.142 79.4769 51.0627C79.7594 50.9834 80.0234 50.8495 80.2539 50.6686C80.4253 49.8405 80.5767 49.0076 80.6984 48.1598C80.7208 47.9645 80.7456 47.789 80.758 47.611Z" fill="#FFD427"/>
  <path d="M62.9693 61.2895C62.3808 61.3191 62.2244 61.638 61.8445 62.0162C61.3602 62.5105 60.6997 62.9727 60.2502 63.4621C59.4904 64.2926 59.8455 65.8103 58.9118 66.4653C58.7061 66.5741 58.5063 66.6938 58.3134 66.8237C58.1338 67.0058 58.0332 67.2508 58.0332 67.5059C58.0332 67.7611 58.1338 68.006 58.3134 68.1881C58.5037 68.3602 58.7401 68.4738 58.994 68.515C59.2478 68.5563 59.5082 68.5234 59.7437 68.4204C60.2126 68.2035 60.5861 67.8239 60.7941 67.3527C60.953 67.0214 61.0722 66.6383 61.3826 66.4381C61.9115 66.0945 62.5993 66.5048 63.2326 66.5073C65.9268 66.5296 65.5469 61.1585 62.9693 61.2895Z" fill="#FFD427"/>
  <g opacity="0.3">
    <path d="M64.8829 53.8474C66.5913 52.7574 67.6342 49.8927 65.8464 48.9361C65.1709 48.5752 64.3192 48.6667 63.6512 48.291C62.7771 47.7966 62.4965 46.7066 62.2979 45.7302C61.7764 43.1662 61.2541 40.603 60.731 38.0406C60.4156 36.4958 59.8619 34.6791 58.3422 34.2391C57.4805 33.9919 56.5692 34.2836 55.6727 34.3182C52.5861 34.4294 48.5832 26.4605 45.5885 31.0036C45.4619 29.6343 43.227 29.8196 42.3604 30.8973C41.4937 31.975 41.1188 33.5124 39.912 34.1699C38.9857 34.6642 37.7566 34.5332 36.9595 35.2229C36.3982 35.7172 36.2145 36.476 36.0357 37.2003C35.7179 38.5762 35.3992 39.953 35.0797 41.3305C34.8314 42.4403 34.583 43.6293 34.9878 44.6921C35.3926 45.755 36.7856 46.5064 37.7317 45.8662C38.1663 45.572 38.4071 45.0678 38.7796 44.6995C39.0873 44.406 39.4739 44.2075 39.8926 44.1281C40.3113 44.0487 40.7441 44.0918 41.1387 44.2521C41.7942 44.529 42.2685 45.1098 42.6733 45.6956C45.9784 50.4513 46.5123 56.6257 45.8517 62.37C45.7325 63.423 45.5761 64.4982 45.8219 65.5289C46.11 66.7351 46.9319 67.7955 47.0387 69.0313C47.1207 69.9805 46.7705 70.9618 47.0387 71.8739C47.5353 73.5571 49.9614 73.9748 51.4488 73.0356C52.9363 72.0963 53.6614 70.3389 54.1803 68.6606C54.6993 66.9823 55.1339 65.2001 56.3084 63.8926C57.0385 63.0819 58.0218 62.4911 58.5855 61.5593C59.3727 60.2542 59.1765 58.5462 59.9264 57.2189C60.9098 55.4541 63.162 54.935 64.8829 53.8474Z" fill="black"/>
  </g>
  <path opacity="0.3" d="M14.2802 69.4561C14.6254 69.8219 14.978 70.1704 15.338 70.5115C15.6211 70.7867 15.9083 71.0553 16.1997 71.3173C16.4927 71.5818 16.7882 71.8413 17.0912 72.0959C17.2997 72.2738 17.5108 72.4469 17.7293 72.6199C17.7095 72.5482 17.6871 72.4839 17.6648 72.4123C17.0887 70.4349 17.4165 67.7703 19.3807 67.1178C19.7531 66.9917 20.1629 66.9522 20.4882 66.7273C21.4069 66.0797 20.9724 64.4088 21.8936 63.7612C22.4126 63.4028 23.1203 63.5362 23.7213 63.3632C24.8064 63.0444 25.3229 61.7937 25.4073 60.6666C25.4918 59.5394 25.2782 58.3926 25.5663 57.3C26.0108 55.6514 27.5727 54.1387 27.0388 52.5147C26.4379 50.703 23.9323 50.6214 22.3207 49.6129C20.0536 48.204 19.7382 45.1045 18.4644 42.7613C17.3196 40.6677 14.31 38.1119 11.7076 38.3121C9.82287 38.4604 9.03819 39.4541 8.65578 40.7616L8.42981 40.6899C7.76431 40.5219 6.97963 40.3711 6.69158 39.7606C6.35386 39.0487 6.91755 38.1465 6.56742 37.447C6.38366 37.0812 6.00373 36.8785 5.70823 36.5943C5.41273 36.31 5.1967 35.8404 5.45991 35.5166C5.66602 35.2447 6.10058 35.2447 6.35386 35.0025C6.4521 34.9045 6.51491 34.7768 6.53243 34.6395C6.54996 34.5022 6.52122 34.363 6.45071 34.2436C5.87709 33.3266 4.86147 34.8813 4.42194 35.22C4.3095 35.3093 4.19175 35.3919 4.06933 35.4671C4.05443 35.5388 4.03705 35.6031 4.02712 35.6772C3.9849 35.9022 3.95262 36.1345 3.91537 36.3669C3.87813 36.5992 3.83591 36.8241 3.80115 37.054C3.77383 37.2419 3.75397 37.4297 3.72914 37.6176C3.7043 37.8054 3.67699 37.9933 3.65712 38.1786C3.65712 38.2701 3.63229 38.3541 3.62484 38.4456C3.16124 42.6246 3.38687 46.851 4.29282 50.9576C4.69809 52.7808 5.24011 54.5712 5.91434 56.3138C6.18997 57.0553 6.50534 57.8092 6.84057 58.5384C7.25526 59.4455 7.69727 60.3378 8.18645 61.2054C8.63591 62.0384 9.1251 62.8565 9.65153 63.6499C10.3675 64.7484 11.14 65.8094 11.9659 66.8286C12.6976 67.7382 13.4715 68.6124 14.2876 69.4511" fill="black"/>
  <g opacity="0.3">
    <path d="M7.81739 26.2676C8.62442 25.7584 9.87595 25.8647 10.3204 26.7076C10.6358 27.3107 10.4372 28.0423 10.236 28.685C9.96452 29.56 9.6922 30.4358 9.41904 31.3124C9.3121 31.5688 9.2836 31.8508 9.3371 32.1232C9.52334 32.7312 10.4769 32.7584 10.909 32.3011C11.341 31.8439 11.4056 31.1419 11.4056 30.5091C11.4056 29.8764 11.3659 29.1991 11.6936 28.6528C12.5106 27.2983 14.6412 27.8273 16.0318 27.0685C16.8934 26.5988 17.3826 25.6744 17.9687 24.8859C18.5547 24.0974 19.4586 23.3559 20.422 23.5388C20.7473 23.5981 21.0528 23.7637 21.383 23.8008C22.349 23.9071 23.1213 22.5897 22.5303 21.8234C22.3889 21.6746 22.267 21.5085 22.1677 21.3291C22.1263 21.1504 22.1475 20.9629 22.228 20.7979C22.3084 20.6329 22.4431 20.5002 22.6097 20.422C22.9468 20.2773 23.3139 20.2154 23.68 20.2415C24.5218 20.2267 25.3611 20.2193 26.2004 20.2094C27.1291 20.2094 28.3583 19.9004 28.3633 18.9735C28.3633 18.1751 27.3526 17.6709 27.3079 16.8725C27.3217 16.6779 27.3142 16.4823 27.2856 16.2892C27.1093 15.7553 26.332 15.8468 25.8106 16.042C25.7747 15.8606 25.697 15.69 25.5837 15.5435C25.4704 15.397 25.3246 15.2787 25.1576 15.1977C24.9906 15.1168 24.8071 15.0754 24.6214 15.077C24.4357 15.0785 24.2528 15.1229 24.0872 15.2066C23.5434 15.5353 23.3795 16.2299 23.1213 16.8058C22.5079 18.2023 21.1869 19.1366 19.9304 20.0018C19.5082 20.2885 19.0364 20.59 18.5274 20.5431C18.0183 20.4961 17.5664 19.8782 17.8619 19.4703C18.0655 19.1885 18.5299 19.0773 18.5348 18.7288C18.5348 18.2963 17.7899 18.2196 17.703 17.792C18.1698 16.6352 19.6225 16.3362 20.7747 15.8468C22.187 15.2479 23.349 14.183 24.0649 12.8312C24.1362 12.7314 24.1854 12.6177 24.2094 12.4975C24.2334 12.3774 24.2315 12.2536 24.2039 12.1342C24.0897 11.8079 23.6899 11.7016 23.3423 11.6398C22.5278 11.5088 21.4948 11.4718 21.0875 12.1861C20.8715 12.5692 20.9187 13.0463 20.7598 13.4566C20.2904 14.6751 18.5249 14.5664 17.3677 15.1646C16.9108 15.3944 16.5309 15.7553 16.0417 15.9061C15.5128 16.0717 14.9367 15.9703 14.3829 15.9333C14.2861 15.9333 14.1868 15.9333 14.0874 15.9333C13.6852 16.3485 13.2928 16.7761 12.9129 17.2112C12.533 17.6462 12.1679 18.0911 11.8004 18.5434C10.0851 20.6862 8.60654 23.0065 7.39028 25.4643C6.95821 26.3269 6.56338 27.2094 6.19835 28.1115C5.83332 29.0137 5.50306 29.9332 5.20508 30.87C5.70172 30.1507 6.00466 29.2164 6.2505 28.5589C6.57828 27.6913 7.02277 26.7768 7.81739 26.2676Z" fill="black"/>
  </g>
  <g opacity="0.3">
    <path d="M80.7584 47.6106C80.8354 47.0594 80.8999 46.5107 80.9471 45.962C80.9943 45.4132 81.034 44.867 81.0564 44.3207C81.0787 43.8783 81.0911 43.4408 81.0936 43.0008C81.0961 42.5609 81.0936 42.0764 81.0936 41.6166C81.0628 40.2434 80.9567 38.8728 80.7758 37.5111C80.7062 36.992 80.6268 36.473 80.5274 35.9588C80.4281 35.4447 80.3362 34.9331 80.2245 34.4214C80.0821 34.0309 79.9249 33.6436 79.7527 33.2597C78.1063 29.5842 75.3872 26.4945 73.505 22.9328C72.8916 21.776 72.4198 20.8219 71.0913 20.4215C69.1296 19.8233 67.9476 20.8145 66.7979 18.7135C66.4875 18.1499 65.8866 17.5814 65.2782 17.8014C65.3651 18.229 65.457 18.6566 65.5439 19.0892C65.5649 19.1795 65.5649 19.2733 65.5439 19.3636C65.4719 19.6453 65.0348 19.6626 64.8138 19.4698C64.6273 19.2405 64.4827 18.9803 64.3867 18.7011C64.2508 18.4622 64.0664 18.254 63.8452 18.0899C63.6241 17.9258 63.371 17.8094 63.1021 17.748C62.8332 17.6866 62.5545 17.6816 62.2835 17.7334C62.0126 17.7851 61.7555 17.8925 61.5286 18.0486C61.5382 17.8538 61.4963 17.66 61.4069 17.4864C61.3176 17.3129 61.184 17.1658 61.0195 17.0599C60.9637 17.2384 60.8707 17.4031 60.7465 17.5433C60.6224 17.6835 60.4698 17.796 60.2989 17.8735C60.128 17.951 59.9426 17.9917 59.7549 17.9929C59.5671 17.9941 59.3812 17.9558 59.2093 17.8805C59.1472 17.4949 59.8226 17.5246 60.0983 17.2428C60.3739 16.961 60.1579 16.526 59.922 16.2393C59.2797 15.4997 58.401 15.003 57.4338 14.8329C56.8205 14.734 56.1401 14.7538 55.6509 14.3608C55.3678 14.1334 55.1915 13.7997 54.9059 13.5772C54.2851 13.1002 54.5235 14.1111 53.7885 14.3904C52.7803 14.7711 52.234 14.8848 51.7572 15.8487C51.662 16.0419 51.5791 16.2409 51.5089 16.4444C51.4115 16.707 51.4077 16.9949 51.4981 17.2599C51.5885 17.525 51.7677 17.751 52.0056 17.9003L52.0801 17.9398C52.4426 18.0956 52.5494 18.5578 52.5245 18.9483C52.4997 19.3388 52.3954 19.7417 52.537 20.1076C52.6785 20.4734 53.1975 20.723 53.4582 20.4314C54.0269 20.0309 54.079 19.2301 54.0492 18.538C54.0194 17.8459 53.9971 17.0698 54.4788 16.5779C54.9606 16.086 56.0978 16.4271 55.9191 17.0945C55.8123 17.4875 55.3132 17.7124 55.2734 18.1203C55.2337 18.5281 55.7055 18.8247 56.1202 18.8618C56.5349 18.8989 56.9794 18.8198 57.3618 18.9804C57.7442 19.1411 58 19.7096 57.6647 19.9691C57.0762 20.4635 55.9042 19.3018 55.5391 19.9691C55.4398 20.1397 55.482 20.3572 55.4373 20.5475C55.3007 21.1358 54.521 21.2446 53.9151 21.2322C53.3092 21.2198 52.6735 21.1828 52.162 20.8491C51.6505 20.5154 51.3897 19.7566 51.7721 19.2919C51.5015 19.0299 51.0048 19.1806 50.7913 19.497C50.6122 19.8321 50.5337 20.2113 50.5653 20.5895C49.952 20.3597 49.3088 20.8095 48.8743 21.2866C48.4397 21.7636 47.9927 22.3346 47.3521 22.4335C46.7114 22.5323 45.8895 22.1542 45.4847 22.6658C44.9583 23.3332 46.0434 24.4282 45.512 25.0881C45.2091 25.4589 44.628 25.3625 44.1463 25.4243C42.8724 25.5923 42.187 27.3127 42.8823 28.3904C43.5776 29.468 45.2538 29.6485 46.2694 28.8674C46.9746 28.331 47.3521 27.4882 47.9058 26.801C48.4596 26.1139 49.3957 25.5652 50.2003 25.926C50.5069 26.094 50.7763 26.3218 50.9924 26.5959C51.35 26.9938 51.7101 27.3918 52.0676 27.7971C52.2961 28.0443 52.5444 28.3656 52.4699 28.7018C52.4054 28.9712 52.162 29.1517 52.0329 29.3939C51.6703 30.0909 52.6363 30.9387 53.3639 30.6298C54.0914 30.3208 54.3124 29.3123 53.9474 28.6153C53.4508 27.6538 52.0751 27.0111 52.2663 25.9384C53.0833 25.444 54.1436 26.2375 54.4465 27.1421C54.7495 28.0468 54.6204 29.0355 54.8538 29.9525C55.0872 30.8695 55.9787 31.7915 56.8801 31.4875C56.7708 30.7064 56.664 29.9303 56.5548 29.1517C57.1482 28.8303 57.5927 30.081 58.2607 29.9797C58.6679 29.9154 58.7971 29.3642 58.6828 28.9638C58.5686 28.5634 58.3129 28.205 58.3004 27.7897C58.2855 27.0334 59.2093 26.4921 59.9393 26.7195C60.6694 26.9469 61.104 27.7353 61.1362 28.4892C61.1206 28.7892 61.1439 29.09 61.2058 29.384C61.4019 30.0044 62.0997 30.2862 62.6609 30.6199C63.2221 30.9536 63.7634 31.6382 63.4257 32.1968C63.2743 32.444 62.9639 32.6492 63.021 32.9384C63.0781 33.2276 63.4158 33.3413 63.381 33.5959C63.3488 33.7639 63.1551 33.843 62.9887 33.8974C62.5616 34.0037 62.1171 33.9938 61.6999 34.1273C61.2827 34.2607 60.8755 34.5771 60.8457 35.0047C60.806 35.6177 61.4864 36.0132 61.7545 36.5644C62.0227 37.1156 61.8737 37.7212 62.0029 38.2946C62.1245 38.8261 62.4697 39.2833 62.7304 39.7554C63.54 41.2706 63.5226 43.0676 63.7783 44.7607C63.8926 45.5269 64.1757 46.4019 64.9082 46.6491C65.3239 46.743 65.7573 46.7224 66.1622 46.5898C67.3119 46.3154 68.5113 46.0188 69.3903 45.2501C70.2694 44.4814 70.7511 43.075 70.0906 42.0962C70.0181 41.9623 69.8988 41.8594 69.7554 41.807C69.5474 41.7907 69.3389 41.8309 69.152 41.9232C68.561 42.0986 67.9104 41.7897 67.5081 41.3151C67.1058 40.8405 66.9121 40.2473 66.716 39.6615C66.5049 39.0188 66.2963 38.3713 66.0778 37.7212C66.4825 37.474 67.0363 37.6792 67.3641 38.0302C67.6918 38.3811 67.8483 38.8409 68.0941 39.2487C68.8391 40.5068 70.257 41.2261 71.6749 41.5944C72.0423 41.6677 72.3965 41.796 72.7253 41.9751C73.731 42.6202 73.8104 44.2466 74.9005 44.7508C75.2035 44.8917 75.5586 44.9238 75.8367 45.1067C76.2564 45.3836 76.4078 45.9249 76.4724 46.4242C76.5916 47.3511 76.5419 48.3002 76.7952 49.2049C77.0485 50.1096 77.6916 50.9846 78.6154 51.1304C78.9068 51.1647 79.2023 51.1416 79.4847 51.0623C79.7672 50.983 80.0312 50.849 80.2617 50.6682C80.4331 49.8401 80.5845 49.0072 80.7062 48.1593C80.7211 47.9641 80.746 47.7886 80.7584 47.6106Z" fill="black"/>
  </g>
  <g opacity="0.3">
    <path d="M62.9693 61.2904C62.3808 61.3201 62.2244 61.639 61.8445 62.0171C61.3602 62.5115 60.6997 62.9737 60.2502 63.4631C59.4904 64.2936 59.8455 65.8113 58.9118 66.4663C58.7061 66.5751 58.5063 66.6948 58.3134 66.8247C58.1338 67.0068 58.0332 67.2517 58.0332 67.5069C58.0332 67.762 58.1338 68.007 58.3134 68.1891C58.5037 68.3612 58.7401 68.4748 58.994 68.516C59.2478 68.5573 59.5082 68.5244 59.7437 68.4214C60.2126 68.2045 60.5861 67.8249 60.7941 67.3536C60.953 67.0224 61.0722 66.6393 61.3826 66.4391C61.9115 66.0955 62.5993 66.5058 63.2326 66.5083C65.9268 66.5305 65.5469 61.1594 62.9693 61.2904Z" fill="black"/>
  </g>
  <path d="M9.10466 5.53368C8.59153 5.37617 8.0477 5.34472 7.51969 5.442C6.99168 5.53928 6.49519 5.76241 6.07269 6.0923C6.07269 6.0923 4.02903 7.64702 4.8311 9.92844C5.13409 10.7652 5.72772 11.4666 6.50477 11.9058C6.79765 12.0752 7.10718 12.2144 7.42851 12.3211C8.54098 12.6795 11.7741 13.5001 11.7741 13.5001L12.1292 13.2282C12.1019 12.2395 11.6325 9.27343 11.4662 8.32428C11.2452 7.15021 10.4009 5.9168 9.10466 5.53368ZM9.84962 10.3041C9.50448 10.5673 9.08869 10.7226 8.65485 10.7505C8.22101 10.7784 7.78861 10.6775 7.41235 10.4607C7.0361 10.2439 6.73289 9.92093 6.5411 9.53257C6.34931 9.14422 6.27755 8.70796 6.33489 8.279C6.39223 7.85004 6.57611 7.44765 6.86325 7.12273C7.15039 6.79781 7.5279 6.56496 7.94802 6.45365C8.36814 6.34234 8.81198 6.35756 9.22341 6.49739C9.63483 6.63721 9.99535 6.89537 10.2593 7.23919C10.4348 7.46715 10.5634 7.72729 10.6377 8.00475C10.7121 8.28222 10.7308 8.57155 10.6927 8.85621C10.6547 9.14086 10.5606 9.41526 10.416 9.66371C10.2713 9.91216 10.0788 10.1298 9.84962 10.3041Z" fill="#FFD427"/>
  <path opacity="0.4" d="M9.10466 5.53368C8.59153 5.37617 8.0477 5.34472 7.51969 5.442C6.99168 5.53928 6.49519 5.76241 6.07269 6.0923C6.07269 6.0923 4.02903 7.64702 4.8311 9.92844C5.13409 10.7652 5.72772 11.4666 6.50477 11.9058C6.79765 12.0752 7.10718 12.2144 7.42851 12.3211C8.54098 12.6795 11.7741 13.5001 11.7741 13.5001L12.1292 13.2282C12.1019 12.2395 11.6325 9.27343 11.4662 8.32428C11.2452 7.15021 10.4009 5.9168 9.10466 5.53368ZM9.84962 10.3041C9.50448 10.5673 9.08869 10.7226 8.65485 10.7505C8.22101 10.7784 7.78861 10.6775 7.41235 10.4607C7.0361 10.2439 6.73289 9.92093 6.5411 9.53257C6.34931 9.14422 6.27755 8.70796 6.33489 8.279C6.39223 7.85004 6.57611 7.44765 6.86325 7.12273C7.15039 6.79781 7.5279 6.56496 7.94802 6.45365C8.36814 6.34234 8.81198 6.35756 9.22341 6.49739C9.63483 6.63721 9.99535 6.89537 10.2593 7.23919C10.4348 7.46715 10.5634 7.72729 10.6377 8.00475C10.7121 8.28222 10.7308 8.57155 10.6927 8.85621C10.6547 9.14086 10.5606 9.41526 10.416 9.66371C10.2713 9.91216 10.0788 10.1298 9.84962 10.3041Z" fill="black"/>
  <path d="M9.47327 5.27489C8.96055 5.11738 8.4171 5.08593 7.88949 5.18321C7.36188 5.2805 6.86581 5.50364 6.44379 5.83351C6.44379 5.83351 4.40012 7.38823 5.20219 9.66965C5.50518 10.5064 6.09881 11.2078 6.87586 11.647C7.16884 11.8179 7.47935 11.9572 7.80209 12.0623C8.91207 12.4207 12.1452 13.2413 12.1452 13.2413C12.1452 13.2413 12.0459 9.20002 11.8373 8.06549C11.6113 6.89141 10.7695 5.66048 9.47327 5.27489ZM9.86065 10.3172C9.63219 10.495 9.37041 10.6255 9.09064 10.7013C8.81087 10.7771 8.51873 10.7965 8.2313 10.7586C7.94388 10.7206 7.66696 10.6259 7.41674 10.4801C7.16652 10.3343 6.94802 10.1403 6.77405 9.90941C6.50969 9.56586 6.35364 9.15199 6.32564 8.72014C6.29764 8.2883 6.39895 7.85789 6.61675 7.48337C6.83455 7.10885 7.15905 6.80705 7.5492 6.61614C7.93935 6.42523 8.37763 6.3538 8.80857 6.41088C9.23952 6.46796 9.64377 6.65098 9.9702 6.9368C10.2966 7.22262 10.5305 7.59839 10.6424 8.01657C10.7542 8.43475 10.7389 8.87655 10.5984 9.28608C10.458 9.69561 10.1986 10.0545 9.8532 10.3172H9.86065Z" fill="#FFD427"/>
  <path d="M7.17892 6.82906C6.82068 7.10561 6.5569 7.48546 6.42357 7.91677C6.29025 8.34808 6.29388 8.80983 6.43397 9.23901C6.34098 8.8404 6.38166 8.42245 6.54978 8.04902C6.71791 7.67559 7.00423 7.36722 7.36501 7.17102C7.72579 6.97483 8.14118 6.9016 8.5477 6.96253C8.95423 7.02346 9.32954 7.2152 9.61628 7.50845C9.90301 7.80169 10.0854 8.18032 10.1356 8.58647C10.1858 8.99262 10.101 9.40396 9.89425 9.75764C9.68746 10.1113 9.37003 10.3879 8.99046 10.5451C8.61089 10.7023 8.19006 10.7314 7.79227 10.6281C8.15117 10.7548 8.53697 10.7865 8.91187 10.72C9.28677 10.6536 9.63789 10.4913 9.93082 10.2492C10.2237 10.007 10.4484 9.69319 10.5828 9.33855C10.7173 8.98391 10.7568 8.60059 10.6976 8.22617C10.6383 7.85175 10.4824 7.49907 10.245 7.2027C10.0076 6.90633 9.69693 6.67645 9.34341 6.53558C8.98989 6.39472 8.60567 6.3477 8.2284 6.39915C7.85113 6.4506 7.49377 6.59874 7.19134 6.82906H7.17892Z" fill="#FFD427"/>
  <path opacity="0.4" d="M7.17892 6.82906C6.82068 7.10561 6.5569 7.48546 6.42357 7.91677C6.29025 8.34808 6.29388 8.80983 6.43397 9.23901C6.34098 8.8404 6.38166 8.42245 6.54978 8.04902C6.71791 7.67559 7.00423 7.36722 7.36501 7.17102C7.72579 6.97483 8.14118 6.9016 8.5477 6.96253C8.95423 7.02346 9.32954 7.2152 9.61628 7.50845C9.90301 7.80169 10.0854 8.18032 10.1356 8.58647C10.1858 8.99262 10.101 9.40396 9.89425 9.75764C9.68746 10.1113 9.37003 10.3879 8.99046 10.5451C8.61089 10.7023 8.19006 10.7314 7.79227 10.6281C8.15117 10.7548 8.53697 10.7865 8.91187 10.72C9.28677 10.6536 9.63789 10.4913 9.93082 10.2492C10.2237 10.007 10.4484 9.69319 10.5828 9.33855C10.7173 8.98391 10.7568 8.60059 10.6976 8.22617C10.6383 7.85175 10.4824 7.49907 10.245 7.2027C10.0076 6.90633 9.69693 6.67645 9.34341 6.53558C8.98989 6.39472 8.60567 6.3477 8.2284 6.39915C7.85113 6.4506 7.49377 6.59874 7.19134 6.82906H7.17892Z" fill="black"/>
  <path d="M91.9776 35.5268C92.3547 35.1461 92.6335 34.6801 92.79 34.1687C92.9466 33.6573 92.9763 33.1157 92.8765 32.5904C92.8765 32.5904 92.432 30.0692 90.0308 29.7182C89.1445 29.5986 88.2446 29.8004 87.4954 30.2867C87.2083 30.4656 86.9411 30.6744 86.6983 30.9096C85.8689 31.7277 83.6465 34.2044 83.6465 34.2044L83.7235 34.6469C84.6124 35.0745 87.488 36.0384 88.4018 36.3178C89.554 36.6687 91.0389 36.4932 91.9776 35.5268ZM87.3812 33.9844C87.3063 33.5583 87.3599 33.1197 87.5354 32.7239C87.7108 32.3282 88.0002 31.9931 88.367 31.7611C88.7338 31.529 89.1614 31.4104 89.5959 31.4202C90.0303 31.4301 90.4521 31.5679 90.8079 31.8163C91.1637 32.0648 91.4375 32.4126 91.5947 32.8159C91.7519 33.2192 91.7854 33.6598 91.6911 34.082C91.5968 34.5043 91.3788 34.8892 91.0647 35.1882C90.7506 35.4872 90.3545 35.6867 89.9265 35.7616C89.6421 35.8117 89.3505 35.8055 89.0686 35.7432C88.7866 35.681 88.5197 35.5639 88.2833 35.3988C88.0468 35.2337 87.8454 35.0238 87.6906 34.7811C87.5358 34.5384 87.4307 34.2677 87.3812 33.9844Z" fill="#FFD427"/>
  <path opacity="0.4" d="M91.9776 35.5268C92.3547 35.1461 92.6335 34.6801 92.79 34.1687C92.9466 33.6573 92.9763 33.1157 92.8765 32.5904C92.8765 32.5904 92.432 30.0692 90.0308 29.7182C89.1445 29.5986 88.2446 29.8004 87.4954 30.2867C87.2083 30.4656 86.9411 30.6744 86.6983 30.9096C85.8689 31.7277 83.6465 34.2044 83.6465 34.2044L83.7235 34.6469C84.6124 35.0745 87.488 36.0384 88.4018 36.3178C89.554 36.6687 91.0389 36.4932 91.9776 35.5268ZM87.3812 33.9844C87.3063 33.5583 87.3599 33.1197 87.5354 32.7239C87.7108 32.3282 88.0002 31.9931 88.367 31.7611C88.7338 31.529 89.1614 31.4104 89.5959 31.4202C90.0303 31.4301 90.4521 31.5679 90.8079 31.8163C91.1637 32.0648 91.4375 32.4126 91.5947 32.8159C91.7519 33.2192 91.7854 33.6598 91.6911 34.082C91.5968 34.5043 91.3788 34.8892 91.0647 35.1882C90.7506 35.4872 90.3545 35.6867 89.9265 35.7616C89.6421 35.8117 89.3505 35.8055 89.0686 35.7432C88.7866 35.681 88.5197 35.5639 88.2833 35.3988C88.0468 35.2337 87.8454 35.0238 87.6906 34.7811C87.5358 34.5384 87.4307 34.2677 87.3812 33.9844Z" fill="black"/>
  <path d="M92.0406 35.9721C92.418 35.592 92.6974 35.1266 92.8548 34.6157C93.0122 34.1047 93.043 33.5635 92.9445 33.0381C92.9445 33.0381 92.4975 30.5145 90.0988 30.1659C89.2121 30.0476 88.3121 30.2484 87.5609 30.732C87.2747 30.912 87.0083 31.1216 86.7663 31.3573C85.9295 32.173 83.707 34.6447 83.707 34.6447C83.707 34.6447 87.3573 36.4194 88.4648 36.7581C89.6145 37.1165 91.0995 36.941 92.0406 35.9721ZM87.3648 33.9947C87.2893 33.5686 87.3425 33.1298 87.5176 32.7338C87.6927 32.3378 87.9819 32.0024 88.3485 31.7699C88.7151 31.5375 89.1428 31.4185 89.5773 31.4281C90.0119 31.4376 90.4339 31.5751 90.7899 31.8234C91.1459 32.0716 91.4199 32.4193 91.5774 32.8226C91.7349 33.2259 91.7686 33.6666 91.6745 34.089C91.5803 34.5114 91.3624 34.8965 91.0483 35.1956C90.7342 35.4947 90.3381 35.6944 89.91 35.7694C89.6255 35.8212 89.3334 35.8162 89.0508 35.7546C88.7682 35.6931 88.5007 35.5762 88.2639 35.4109C88.027 35.2455 87.8256 35.0349 87.6712 34.7914C87.5169 34.5478 87.4127 34.2762 87.3648 33.9922V33.9947Z" fill="#FFD427"/>
  <path d="M91.7018 33.2274C91.6229 32.7823 91.4075 32.3725 91.0851 32.0543C90.7627 31.7361 90.3493 31.525 89.9015 31.4502C90.2998 31.552 90.6537 31.7809 90.909 32.1018C91.1644 32.4227 91.3071 32.818 91.3153 33.2273C91.3236 33.6366 91.1969 34.0373 90.9548 34.3682C90.7126 34.699 90.3682 34.9419 89.9743 35.0595C89.5804 35.1771 89.1586 35.1631 88.7735 35.0196C88.3883 34.876 88.061 34.6109 87.8415 34.2646C87.6221 33.9184 87.5226 33.5102 87.5583 33.1024C87.594 32.6946 87.7629 32.3096 88.0391 32.0063C87.7605 32.2648 87.5541 32.591 87.4403 32.9528C87.3265 33.3146 87.309 33.6996 87.3898 34.0701C87.4705 34.4406 87.6465 34.7839 87.9007 35.0663C88.1549 35.3486 88.4784 35.5604 88.8396 35.6808C89.2007 35.8012 89.5871 35.8261 89.9609 35.7531C90.3346 35.68 90.6829 35.5116 90.9715 35.2642C91.2601 35.0168 91.4792 34.699 91.6072 34.3419C91.7352 33.9848 91.7678 33.6008 91.7018 33.2274Z" fill="#FFD427"/>
  <path opacity="0.4" d="M91.7018 33.2274C91.6229 32.7823 91.4075 32.3725 91.0851 32.0543C90.7627 31.7361 90.3493 31.525 89.9015 31.4502C90.2998 31.552 90.6537 31.7809 90.909 32.1018C91.1644 32.4227 91.3071 32.818 91.3153 33.2273C91.3236 33.6366 91.1969 34.0373 90.9548 34.3682C90.7126 34.699 90.3682 34.9419 89.9743 35.0595C89.5804 35.1771 89.1586 35.1631 88.7735 35.0196C88.3883 34.876 88.061 34.6109 87.8415 34.2646C87.6221 33.9184 87.5226 33.5102 87.5583 33.1024C87.594 32.6946 87.7629 32.3096 88.0391 32.0063C87.7605 32.2648 87.5541 32.591 87.4403 32.9528C87.3265 33.3146 87.309 33.6996 87.3898 34.0701C87.4705 34.4406 87.6465 34.7839 87.9007 35.0663C88.1549 35.3486 88.4784 35.5604 88.8396 35.6808C89.2007 35.8012 89.5871 35.8261 89.9609 35.7531C90.3346 35.68 90.6829 35.5116 90.9715 35.2642C91.2601 35.0168 91.4792 34.699 91.6072 34.3419C91.7352 33.9848 91.7678 33.6008 91.7018 33.2274Z" fill="black"/>
  <path d="M2.27813 73.6979C2.20598 74.228 2.26408 74.7676 2.44746 75.2704C2.63084 75.7733 2.93402 76.2243 3.331 76.5849C3.331 76.5849 5.20829 78.3349 7.33638 77.1781C8.11853 76.7417 8.71695 76.0398 9.02246 75.2007C9.13994 74.885 9.22318 74.5577 9.27078 74.2244C9.44212 73.075 9.72272 69.7752 9.72272 69.7752L9.39494 69.4688C8.4265 69.6591 5.546 70.6057 4.64709 70.9295C3.52717 71.3423 2.4445 72.3706 2.27813 73.6979ZM6.88196 72.1827C7.19952 72.4783 7.42187 72.861 7.52085 73.2825C7.61984 73.7039 7.59102 74.145 7.43804 74.5501C7.28506 74.9552 7.0148 75.3061 6.66145 75.5583C6.3081 75.8104 5.88754 75.9526 5.45299 75.9668C5.01844 75.981 4.58943 75.8665 4.22023 75.638C3.85104 75.4094 3.55826 75.0769 3.37894 74.6827C3.19962 74.2884 3.14182 73.8501 3.21285 73.4231C3.28388 72.9961 3.48055 72.5997 3.77797 72.2841C4.17732 71.8623 4.72848 71.6155 5.31045 71.5979C5.89241 71.5803 6.45762 71.7933 6.88196 72.1901V72.1827Z" fill="#263238"/>
  <path d="M1.95978 73.3862C1.88761 73.9159 1.94572 74.4551 2.12911 74.9576C2.31251 75.46 2.6157 75.9106 3.01265 76.2707C3.01265 76.2707 4.88994 78.0207 7.01803 76.8664C7.80089 76.4308 8.39958 75.7287 8.70411 74.889C8.82245 74.5693 8.9057 74.2378 8.95243 73.9003C9.12377 72.7509 9.40437 69.4512 9.40437 69.4512C9.40437 69.4512 5.41637 70.2125 4.32874 70.6055C3.20882 71.0207 2.12615 72.049 1.95978 73.3862ZM6.89138 72.175C7.20895 72.4706 7.4313 72.8533 7.53028 73.2748C7.62927 73.6962 7.60045 74.1373 7.44747 74.5424C7.29449 74.9476 7.02422 75.2984 6.67087 75.5506C6.31752 75.8027 5.89697 75.9449 5.46242 75.9591C5.02787 75.9733 4.59885 75.8588 4.22966 75.6303C3.86047 75.4017 3.56769 75.0692 3.38837 74.675C3.20905 74.2807 3.15125 73.8424 3.22228 73.4154C3.29331 72.9884 3.48998 72.592 3.7874 72.2764C3.98357 72.0653 4.21989 71.8951 4.48265 71.7756C4.74542 71.6561 5.02939 71.5897 5.31813 71.5803C5.60686 71.5708 5.89459 71.6186 6.16466 71.7206C6.43472 71.8227 6.68174 71.9772 6.89138 72.175Z" fill="#455A64"/>
  <path d="M3.87765 75.3833C4.20901 75.6919 4.62823 75.8909 5.07774 75.9529C5.52725 76.0148 5.98501 75.9367 6.38815 75.7294C6.00823 75.8858 5.58728 75.9142 5.18965 75.8101C4.79202 75.706 4.43957 75.4751 4.18617 75.1528C3.93278 74.8305 3.79238 74.4345 3.78643 74.0252C3.78048 73.616 3.90931 73.2161 4.15323 72.8866C4.39714 72.5572 4.74273 72.3163 5.13717 72.2007C5.53161 72.0852 5.95321 72.1014 6.33752 72.2469C6.72183 72.3924 7.04772 72.6591 7.26538 73.0063C7.48303 73.3535 7.58048 73.7621 7.54283 74.1697C7.60962 73.7964 7.5778 73.4123 7.4505 73.055C7.32319 72.6977 7.10477 72.3794 6.81666 72.1314C6.52855 71.8835 6.18064 71.7143 5.80704 71.6405C5.43344 71.5667 5.04699 71.5908 4.68558 71.7105C4.32417 71.8301 4.00022 72.0412 3.74548 72.3231C3.49074 72.605 3.31397 72.9479 3.2325 73.3182C3.15103 73.6886 3.16766 74.0737 3.28076 74.4357C3.39386 74.7977 3.59955 75.1243 3.87765 75.3833Z" fill="#263238"/>
  <path d="M78.1867 11.261C78.2384 10.8853 78.1976 10.5027 78.0678 10.1462C77.938 9.78972 77.7232 9.46993 77.4418 9.21436C77.4418 9.21436 76.1083 7.9785 74.596 8.7917C74.0425 9.10021 73.618 9.59552 73.3991 10.1882C73.3133 10.4126 73.2517 10.6454 73.2154 10.8828C73.0937 11.6985 72.8926 14.0466 72.8926 14.0466L73.126 14.2641C73.8138 14.1282 75.8575 13.4583 76.4982 13.2285C77.3002 12.9393 78.07 12.2101 78.1867 11.261ZM74.9189 12.3386C74.6937 12.129 74.536 11.8575 74.4657 11.5586C74.3955 11.2598 74.4158 10.9469 74.5242 10.6595C74.6326 10.3721 74.8242 10.1232 75.0746 9.94416C75.3251 9.76514 75.6233 9.66405 75.9315 9.65369C76.2397 9.64333 76.5441 9.72415 76.8061 9.88594C77.0682 10.0477 77.2762 10.2832 77.4038 10.5627C77.5314 10.8421 77.5729 11.1529 77.5231 11.4558C77.4733 11.7587 77.3344 12.0402 77.1239 12.2645C76.8411 12.565 76.4502 12.7415 76.0368 12.7554C75.6234 12.7693 75.2214 12.6194 74.9189 12.3386Z" fill="#263238"/>
  <path d="M78.4094 11.4895C78.461 11.1138 78.4202 10.7313 78.2905 10.3747C78.1607 10.0182 77.9459 9.69844 77.6644 9.44288C77.6644 9.44288 76.331 8.20701 74.8187 9.02021C74.2637 9.32926 73.8389 9.82669 73.6218 10.4217C73.536 10.6461 73.4744 10.8789 73.438 11.1163C73.3164 11.9319 73.1152 14.2801 73.1152 14.2801C73.1152 14.2801 75.9485 13.7388 76.7208 13.4619C77.4931 13.1851 78.2902 12.4386 78.4094 11.4895ZM74.9081 12.3497C74.757 12.2112 74.6352 12.0441 74.5497 11.8583C74.4641 11.6725 74.4166 11.4715 74.4099 11.2672C74.4032 11.0629 74.4375 10.8593 74.5106 10.6683C74.5838 10.4773 74.6944 10.3027 74.8361 10.1547C75.047 9.93081 75.3199 9.77414 75.6202 9.70455C75.9206 9.63496 76.2349 9.65557 76.5235 9.76377C76.8121 9.87197 77.0619 10.0629 77.2415 10.3125C77.4211 10.562 77.5223 10.8589 77.5324 11.1657C77.5424 11.4725 77.4609 11.7754 77.2981 12.0361C77.1352 12.2967 76.8984 12.5035 76.6175 12.6302C76.3366 12.7569 76.0243 12.7979 75.7201 12.748C75.4158 12.698 75.1332 12.5594 74.9081 12.3497Z" fill="#455A64"/>
  <path d="M77.0483 10.0727C76.8133 9.85312 76.5156 9.71145 76.1963 9.66718C75.877 9.62292 75.5518 9.67824 75.2654 9.82553C75.5351 9.71444 75.8338 9.69428 76.116 9.76814C76.3983 9.842 76.6484 10.0058 76.8283 10.2345C77.0082 10.4632 77.1079 10.7443 77.1122 11.0347C77.1164 11.3252 77.0251 11.609 76.852 11.8429C76.6789 12.0768 76.4337 12.2478 76.1537 12.3299C75.8738 12.4119 75.5746 12.4005 75.3018 12.2973C75.029 12.1941 74.7977 12.0049 74.6431 11.7585C74.4886 11.5121 74.4193 11.2221 74.446 10.9329C74.3987 11.1976 74.4213 11.4701 74.5116 11.7236C74.6019 11.977 74.7568 12.2028 74.9612 12.3787C75.1655 12.5546 75.4122 12.6747 75.6772 12.7271C75.9422 12.7796 76.2163 12.7626 76.4728 12.6779C76.7292 12.5931 76.9591 12.4435 77.1399 12.2437C77.3207 12.0439 77.4463 11.8008 77.5044 11.5381C77.5624 11.2755 77.5509 11.0023 77.4709 10.7454C77.391 10.4885 77.2454 10.2567 77.0483 10.0727Z" fill="#263238"/>
  <path d="M31.2012 59.3843H40.4113C40.4113 59.3843 39.5968 57.9013 37.2254 58.1237C34.9607 58.3289 34.8465 57.397 33.6943 57.2833C32.5421 57.1696 31.5861 58.0471 31.2012 59.3843Z" fill="white"/>
  <path d="M37.5352 51.4294H51.1654C51.1654 51.4294 49.961 49.2469 46.4473 49.5632C43.095 49.8673 42.9262 48.4905 41.2326 48.3274C39.5391 48.1642 38.1038 49.452 37.5352 51.4294Z" fill="white"/>
  <path d="M19.8555 31.1495H28.7726C28.7726 31.1495 27.9829 29.7233 25.6885 29.931C23.4958 30.1287 23.3841 29.2265 22.2716 29.1178C21.1591 29.009 20.2279 29.8568 19.8555 31.1495Z" fill="white"/>
</svg>