<svg width="373" height="377" viewBox="0 0 373 377" fill="none" xmlns="http://www.w3.org/2000/svg">
<path d="M16.0901 82.9609L162.934 82.9609V76.519L16.0901 76.519V82.9609Z" fill="#EBEBEB"/>
<path d="M154.692 82.9697H148.25V104.27H154.692V82.9697Z" fill="#EBEBEB"/>
<path d="M154.692 82.9697H148.25V89.5527H154.692V82.9697Z" fill="#DBDBDB"/>
<path d="M30.7545 82.9697H24.3125V104.27H30.7545V82.9697Z" fill="#EBEBEB"/>
<path d="M30.7545 82.9697H24.3125V89.5527H30.7545V82.9697Z" fill="#DBDBDB"/>
<path d="M135.52 76.5274V35.4873H125.182V76.5274H135.52Z" fill="#C7C7C7"/>
<path d="M135.52 37.805V33.293H125.182V37.805H135.52Z" fill="#DBDBDB"/>
<path d="M135.52 45.2515V43.5771H125.182V45.2515H135.52Z" fill="#DBDBDB"/>
<path d="M135.52 71.1429V66.6309H123.896V71.1429H135.52Z" fill="#DBDBDB"/>
<path d="M125.184 76.527V28.6484H117.957V76.527H125.184Z" fill="#DBDBDB"/>
<path d="M123.77 51.5618V33.1523H119.434V51.5618H123.77Z" fill="#EBEBEB"/>
<path d="M71.6573 76.5445L105.707 42.8848L100.627 37.7457L66.5771 71.4054L71.6573 76.5445Z" fill="#C7C7C7"/>
<path d="M78.6109 67.6014L91.7031 54.6592L88.655 51.5757L75.5628 64.518L78.6109 67.6014Z" fill="#DBDBDB"/>
<path d="M117.965 76.5276V40.167H105.698V76.5276H117.965Z" fill="#A6A6A6"/>
<path d="M117.965 72.6848V69.292H105.698V72.6848H117.965Z" fill="#C7C7C7"/>
<path d="M117.965 67.0631V65.75H105.698V67.0631H117.965Z" fill="#C7C7C7"/>
<path d="M143.996 76.5364V42.3613H135.527V76.5364H143.996Z" fill="#A6A6A6"/>
<path d="M143.996 72.9059V69.7246H135.527V72.9059H143.996Z" fill="#C7C7C7"/>
<path d="M143.996 52.5837V49.4023H135.527V52.5837H143.996Z" fill="#C7C7C7"/>
<path d="M143.988 56.0033V54.7695H135.519V56.0033H143.988Z" fill="#C7C7C7"/>
<path d="M45.7819 32.7473C53.0082 39.7973 54.2243 50.7778 52.6997 60.3658C52.6997 60.5773 52.3208 60.5245 52.3208 60.313C52.3208 58.1363 52.3913 55.9684 52.3825 53.8181C52.3825 53.7124 52.312 53.6242 52.2679 53.5273C50.3206 52.2443 48.7098 50.5126 47.5708 48.4777C46.3635 46.1071 45.8876 43.4281 44.9711 40.943C44.883 40.705 45.1386 40.7755 45.2972 40.8989C49.7035 44.1419 51.0959 47.6317 52.3472 52.2935C52.3184 49.8544 52.0617 47.4234 51.5806 45.032C50.7413 40.5245 48.6667 36.3387 45.588 32.9412C45.5715 32.9142 45.5645 32.8824 45.5682 32.851C45.572 32.8195 45.5862 32.7903 45.6086 32.7679C45.631 32.7455 45.6602 32.7313 45.6917 32.7275C45.7231 32.7238 45.7549 32.7308 45.7819 32.7473Z" fill="#A6A6A6"/>
<path d="M44.423 33.5749C43.1717 33.5749 42.3962 35.6018 41.4268 36.2187C41.3248 36.3015 41.2064 36.3619 41.0795 36.3958C40.9526 36.4298 40.8199 36.4366 40.6902 36.4158C40.5604 36.395 40.4365 36.3471 40.3265 36.2752C40.2166 36.2032 40.123 36.1089 40.052 35.9983C39.0915 34.6588 40.4133 33.0109 41.6471 32.0856C40.83 32.5436 39.9676 32.9157 39.0738 33.196C38.9518 33.2389 38.8217 33.2544 38.693 33.2414C38.5642 33.2285 38.4399 33.1873 38.3288 33.1208C38.2178 33.0544 38.1228 32.9643 38.0505 32.8569C37.9782 32.7496 37.9304 32.6276 37.9106 32.4998C37.4876 30.6756 39.7788 29.856 41.3563 29.856C40.5896 29.3272 38.4041 27.8908 39.5938 27.2122C40.7835 26.5337 43.3391 28.5606 44.1675 29.2391C45.4012 30.2349 46.8641 31.7331 46.9258 33.2929C46.9699 35.073 45.3748 33.9538 44.423 33.5749Z" fill="#DBDBDB"/>
<path d="M44.7753 33.8831C43.1891 33.1517 40.1311 34.2004 39.8756 33.5923C39.3468 32.3673 41.7879 31.5301 43.1098 31.3627C41.8936 31.0366 39.5847 30.4815 39.6376 29.3446C39.7257 27.917 43.2067 29.142 44.9692 30.4903C47.1812 32.1911 47.1723 33.839 46.8022 34.1651C46.2999 34.6145 45.0397 33.9977 44.7753 33.8831Z" fill="#EBEBEB"/>
<path d="M62.2441 32.0505C54.7534 38.845 53.1231 49.7373 54.3128 59.3694C54.3128 59.5897 54.6829 59.5457 54.6918 59.3694C54.7711 57.1927 54.7887 55.0248 54.8768 52.8746L55.0002 52.5838C56.995 51.3822 58.6699 49.7163 59.8823 47.728C61.1866 45.4015 61.7594 42.7401 62.7729 40.2991C62.8698 40.0611 62.6142 40.1228 62.4468 40.2374C57.926 43.3129 56.3926 46.7498 54.9561 51.3588C55.0763 48.9228 55.4244 46.5035 55.996 44.1325C57.0106 39.6553 59.2501 35.5484 62.4644 32.2708C62.4936 32.2416 62.5101 32.202 62.5101 32.1607C62.5101 32.1193 62.4936 32.0797 62.4644 32.0505C62.4352 32.0213 62.3956 32.0049 62.3543 32.0049C62.313 32.0049 62.2733 32.0213 62.2441 32.0505Z" fill="#A6A6A6"/>
<path d="M63.5649 32.9221C64.8075 33.0102 65.5125 35.0283 66.4555 35.6452C66.5542 35.7321 66.6703 35.7971 66.7959 35.8361C66.9216 35.875 67.0541 35.887 67.1847 35.8712C67.3153 35.8554 67.4412 35.8122 67.5539 35.7444C67.6667 35.6766 67.7638 35.5857 67.839 35.4777C68.8525 34.1735 67.5923 32.4726 66.3938 31.5033C67.1909 32.0171 68.0383 32.4482 68.923 32.7899C69.0434 32.8376 69.1729 32.8581 69.3022 32.8501C69.4315 32.842 69.5574 32.8056 69.671 32.7433C69.7846 32.681 69.8831 32.5945 69.9594 32.4898C70.0358 32.3852 70.0881 32.265 70.1127 32.1378C70.5974 30.3224 68.3502 29.4235 66.7727 29.3266C67.5482 28.8243 69.7866 27.4671 68.6586 26.6828C67.5306 25.8985 64.8868 27.9077 64.0056 28.5687C62.7366 29.5204 61.2208 30.9569 61.1062 32.5079C60.9652 34.3233 62.5956 33.2658 63.5649 32.9221Z" fill="#DBDBDB"/>
<path d="M63.1939 33.197C64.8154 32.536 67.8205 33.6905 68.1025 33.1C68.6753 31.9015 66.2695 30.9674 64.9653 30.7559C66.1902 30.4739 68.4903 30.0333 68.4903 28.8612C68.4903 27.4336 64.9653 28.5263 63.1234 29.8129C60.8498 31.4256 60.7969 33.0648 61.1494 33.4085C61.6429 33.8931 62.9296 33.3291 63.1939 33.197Z" fill="#EBEBEB"/>
<path d="M54.5765 50.0013C54.0748 53.636 53.2971 57.2272 52.25 60.7438C52.2359 60.8128 52.1951 60.8733 52.1364 60.9121C52.0778 60.951 52.0061 60.9649 51.9371 60.9509C51.8682 60.9369 51.8076 60.896 51.7688 60.8374C51.7299 60.7787 51.716 60.707 51.73 60.6381C52.2235 57.3245 53.1224 54.0727 53.6071 50.768C54.1484 47.4158 54.3433 44.0168 54.1887 40.6248C53.8715 35.0464 52.3557 29.1068 48.7161 24.7622C48.6368 24.6564 48.8042 24.5066 48.8836 24.6035C56.1803 33.1076 55.0523 43.5329 55.0523 44.467C56.0834 40.942 57.1497 36.9147 61.0537 33.328C61.2211 33.1693 61.3533 33.2486 61.3269 33.513C60.6307 40.0343 58.8153 43.4448 55.0259 46.9345C54.8761 47.948 54.7439 48.979 54.5765 50.0013Z" fill="#A6A6A6"/>
<path d="M48.6459 25.7232C47.3328 25.1416 45.5263 26.8071 44.2396 26.9217C44.0951 26.9563 43.945 26.9606 43.7988 26.9343C43.6525 26.908 43.5133 26.8517 43.3899 26.7689C43.2666 26.6861 43.1617 26.5786 43.0819 26.4532C43.0022 26.3278 42.9493 26.1873 42.9266 26.0404C42.6005 24.1722 44.8036 23.1147 46.5485 22.7798C45.447 22.7093 44.363 23.0089 43.2791 22.7181C43.1298 22.7007 42.986 22.6512 42.8577 22.5729C42.7294 22.4947 42.6196 22.3895 42.5358 22.2647C42.452 22.1399 42.3963 21.9984 42.3725 21.85C42.3487 21.7016 42.3573 21.5498 42.3978 21.405C42.8825 19.2988 45.6673 19.6425 47.324 20.3564C46.7953 19.4751 45.2531 16.8313 46.8129 16.6815C48.3727 16.5317 50.0207 19.9598 50.5406 21.0878C51.3161 22.7446 52.0916 25.027 51.3602 26.6749C50.5406 28.5608 49.4479 26.5956 48.6459 25.7232Z" fill="#DBDBDB"/>
<path d="M48.866 26.2171C47.5793 24.6749 43.8869 24.2167 43.9221 23.4588C43.9926 21.9254 46.9448 22.2779 48.3989 22.7714C47.3061 21.8197 45.1559 20.1277 45.8168 18.9292C46.6276 17.4927 49.615 20.5154 50.7695 22.8067C52.2147 25.6884 51.3687 27.3804 50.8224 27.539C50.0733 27.7505 49.0775 26.4815 48.866 26.2171Z" fill="#EBEBEB"/>
<path d="M59.3756 51.9581L62.5922 76.5275H43.0195C43.4249 74.3508 47.0645 51.9316 47.0645 51.9316L59.3756 51.9581Z" fill="#DBDBDB"/>
<path d="M292.79 58.2498C293.323 55.9894 294.293 53.855 295.645 51.9665C296.932 50.204 299.005 48.9232 301.867 48.1242C302.748 47.8598 303.779 47.5778 305.021 47.243C306.3 46.9323 307.55 46.5136 308.758 45.9916C309.987 45.467 311.122 44.7435 312.116 43.8501C313.123 42.9407 313.827 41.7442 314.134 40.4221C314.397 39.4712 314.43 38.4714 314.231 37.5051C314.045 36.6369 313.685 35.8155 313.173 35.0905C312.643 34.3592 311.972 33.7419 311.199 33.2751C310.408 32.7855 309.546 32.4228 308.643 32.1999C307.607 31.9337 306.528 31.8827 305.471 32.0501C304.51 32.1929 303.573 32.4657 302.686 32.8609C301.821 33.2486 301.005 33.7366 300.254 34.315C299.561 34.8407 298.899 35.4057 298.271 36.007L292.895 29.8382C293.896 28.4862 295.118 27.3124 296.509 26.366C297.863 25.4461 299.348 24.7361 300.915 24.2598C302.511 23.7825 304.166 23.5304 305.832 23.5108C307.552 23.4862 309.268 23.6907 310.935 24.1188C312.833 24.5981 314.653 25.3491 316.337 26.3484C318.02 27.3407 319.488 28.659 320.655 30.2259C321.858 31.8624 322.688 33.7423 323.087 35.7338C323.535 38.0752 323.433 40.4888 322.788 42.7838C322.453 44.2196 321.906 45.5977 321.166 46.8728C320.509 47.971 319.682 48.9585 318.716 49.7986C317.76 50.6198 316.703 51.3157 315.57 51.8696C314.341 52.4616 313.072 52.9652 311.772 53.3765C310.617 53.729 309.481 54.0463 308.344 54.3459C307.247 54.6289 306.18 55.0124 305.154 55.4915C304.173 55.9366 303.278 56.5511 302.51 57.3069C301.721 58.1379 301.173 59.1674 300.924 60.2855L292.79 58.2498ZM288.551 75.7251L291.15 65.3968L299.461 67.4854L296.861 77.8137L288.551 75.7251Z" fill="#EBEBEB"/>
<path d="M30.5872 249.79C30.9654 251.46 31.0133 253.187 30.7282 254.875C30.3075 256.671 29.3034 258.276 27.8729 259.44C27.3794 259.89 26.7713 260.418 26.0487 261.018C25.3006 261.635 24.6076 262.316 23.9778 263.053C23.3284 263.796 22.8072 264.642 22.4356 265.556C22.0626 266.485 21.9827 267.506 22.2064 268.482C22.3436 269.199 22.6453 269.875 23.0877 270.456C23.4922 270.97 23.9956 271.399 24.5682 271.716C25.1569 272.024 25.8009 272.213 26.4629 272.271C27.1458 272.342 27.8355 272.307 28.5074 272.165C29.2728 272.017 30.0009 271.718 30.6489 271.284C31.2415 270.881 31.7754 270.398 32.2351 269.848C32.6828 269.306 33.0672 268.714 33.3807 268.085C33.6735 267.515 33.9296 266.926 34.1474 266.323L39.6993 268.649C39.4678 269.87 39.0329 271.044 38.4127 272.121C37.8099 273.174 37.049 274.128 36.1567 274.95C35.2546 275.788 34.2366 276.491 33.134 277.039C32.001 277.608 30.7981 278.026 29.5561 278.281C28.1433 278.579 26.6948 278.671 25.2556 278.555C23.8196 278.441 22.4206 278.042 21.1401 277.382C19.8116 276.682 18.651 275.702 17.7385 274.51C16.6895 273.101 15.9807 271.47 15.6675 269.742C15.4227 268.683 15.3395 267.592 15.4208 266.508C15.4991 265.567 15.7282 264.644 16.0993 263.776C16.4636 262.92 16.9408 262.117 17.5182 261.388C18.1372 260.592 18.8147 259.844 19.545 259.149C20.1972 258.55 20.8493 257.968 21.5102 257.387C22.1492 256.853 22.739 256.263 23.2728 255.624C23.7487 255.008 24.1126 254.313 24.3479 253.571C24.6051 252.763 24.6356 251.901 24.436 251.077L30.5872 249.79ZM27.7495 236.827L29.3622 244.52L23.1934 245.816L21.5807 238.131L27.7495 236.827Z" fill="#EBEBEB"/>
<path d="M308.114 171.156C309.151 172.518 309.915 174.068 310.361 175.721C310.716 177.536 310.459 179.417 309.63 181.07C309.374 181.687 309.039 182.419 308.634 183.265C308.206 184.136 307.858 185.044 307.594 185.979C307.312 186.924 307.19 187.91 307.233 188.896C307.283 189.895 307.633 190.856 308.237 191.654C308.658 192.248 309.214 192.734 309.859 193.073C310.442 193.375 311.081 193.554 311.736 193.602C312.4 193.644 313.065 193.551 313.692 193.328C314.339 193.104 314.948 192.783 315.499 192.377C316.134 191.926 316.671 191.35 317.076 190.685C317.462 190.072 317.759 189.407 317.957 188.711C318.135 188.034 318.239 187.339 318.266 186.64C318.302 186.003 318.302 185.364 318.266 184.727L324.276 184.534C324.579 185.736 324.674 186.982 324.558 188.217C324.443 189.43 324.146 190.618 323.677 191.742C323.199 192.877 322.564 193.939 321.791 194.897C321 195.894 320.081 196.783 319.059 197.541C317.895 198.4 316.613 199.086 315.252 199.577C313.898 200.069 312.461 200.287 311.022 200.22C309.525 200.135 308.065 199.73 306.739 199.03C305.199 198.182 303.876 196.991 302.87 195.549C302.208 194.688 301.679 193.731 301.302 192.712C300.98 191.823 300.804 190.889 300.782 189.944C300.756 189.013 300.854 188.083 301.073 187.177C301.312 186.199 301.621 185.239 301.998 184.304C302.342 183.485 302.685 182.683 303.055 181.899C303.423 181.144 303.718 180.356 303.937 179.546C304.136 178.784 304.201 177.994 304.131 177.21C304.026 176.37 303.694 175.575 303.17 174.91L308.114 171.156ZM300.182 160.581L304.844 166.9L299.759 170.654L295.098 164.335L300.182 160.581Z" fill="#EBEBEB"/>
<path d="M337.055 155.259C337.025 153.375 337.366 151.503 338.06 149.751C338.92 147.911 340.372 146.413 342.184 145.495C342.809 145.116 343.585 144.693 344.502 144.208C345.431 143.713 346.316 143.138 347.145 142.489C348.014 141.841 348.765 141.048 349.366 140.145C349.969 139.225 350.277 138.143 350.247 137.043C350.262 136.283 350.107 135.529 349.793 134.837C349.479 134.145 349.014 133.532 348.432 133.042C347.874 132.573 347.226 132.222 346.528 132.011C345.81 131.784 345.061 131.668 344.308 131.668C343.451 131.658 342.6 131.816 341.805 132.135C341.077 132.44 340.392 132.84 339.769 133.324C339.164 133.802 338.617 134.349 338.139 134.955C337.699 135.503 337.293 136.076 336.923 136.673L331.477 132.919C331.999 131.658 332.729 130.494 333.636 129.473C334.527 128.483 335.56 127.63 336.702 126.944C337.866 126.251 339.121 125.723 340.43 125.375C341.776 125.021 343.163 124.843 344.554 124.847C346.145 124.847 347.727 125.079 349.251 125.534C350.77 125.981 352.185 126.727 353.411 127.728C354.677 128.779 355.702 130.089 356.416 131.571C357.25 133.323 357.669 135.244 357.641 137.184C357.657 138.376 357.5 139.563 357.174 140.709C356.871 141.701 356.416 142.641 355.826 143.494C355.24 144.331 354.547 145.086 353.763 145.741C352.912 146.451 352.011 147.099 351.067 147.68C350.238 148.182 349.401 148.667 348.564 149.125C347.758 149.566 346.994 150.08 346.282 150.659C345.611 151.201 345.041 151.857 344.598 152.597C344.14 153.401 343.911 154.316 343.937 155.241L337.055 155.259ZM337.178 169.835V161.198H344.123V169.835H337.178Z" fill="#EBEBEB"/>
<path d="M119.808 205.322C119.389 203.485 119.335 201.584 119.649 199.726C120.111 197.749 121.222 195.984 122.804 194.712C123.342 194.21 124.003 193.637 124.805 192.95C125.62 192.265 126.381 191.516 127.078 190.711C127.785 189.889 128.354 188.958 128.761 187.953C129.171 186.931 129.257 185.808 129.008 184.736C128.858 183.948 128.526 183.206 128.039 182.568C127.587 182.022 127.029 181.573 126.4 181.247C125.755 180.902 125.048 180.692 124.32 180.63C123.572 180.56 122.817 180.602 122.081 180.753C121.241 180.923 120.442 181.255 119.729 181.731C119.073 182.179 118.48 182.712 117.966 183.317C117.477 183.911 117.058 184.559 116.715 185.247C116.381 185.875 116.087 186.522 115.833 187.186L109.832 184.613C110.083 183.272 110.557 181.982 111.233 180.797C111.894 179.639 112.73 178.59 113.71 177.686C114.698 176.763 115.814 175.985 117.023 175.377C118.27 174.755 119.591 174.293 120.953 174.003C122.509 173.678 124.102 173.577 125.686 173.703C127.262 173.826 128.799 174.26 130.207 174.981C131.667 175.744 132.943 176.818 133.943 178.127C135.778 180.686 136.686 183.795 136.516 186.939C136.428 187.971 136.178 188.982 135.776 189.936C135.377 190.881 134.856 191.77 134.225 192.579C133.538 193.449 132.794 194.27 131.996 195.038C131.282 195.699 130.568 196.342 129.845 196.959C129.148 197.559 128.505 198.22 127.924 198.933C127.383 199.606 126.96 200.366 126.673 201.181C126.398 202.07 126.367 203.016 126.585 203.921L119.808 205.322ZM122.954 219.555L121.191 211.112L127.986 209.667L129.748 218.118L122.954 219.555Z" fill="#EBEBEB"/>
<path d="M331.722 273.682L343.496 273.435L349.295 273.338C351.225 273.294 353.137 273.338 355.058 273.285L354.67 273.682L354.617 263.821L355.058 264.261L343.364 264.208C339.477 264.208 335.591 264.103 331.696 264.058L331.943 263.821C331.943 265.433 331.863 267.055 331.819 268.703L331.722 273.682ZM331.722 273.682L331.599 268.8C331.599 267.16 331.502 265.495 331.484 263.821V263.583H331.722C335.617 263.538 339.504 263.442 343.39 263.433L355.058 263.38H355.499V263.821V273.682V274.078H355.102C353.137 274.078 351.163 274.078 349.206 274.025L343.337 273.929L331.722 273.682Z" fill="#EBEBEB"/>
<path d="M344.738 286.116L356.512 285.87L362.31 285.773C364.24 285.729 366.152 285.773 368.074 285.72L367.686 286.116L367.642 276.255L368.074 276.696L356.406 276.643C352.519 276.643 348.633 276.537 344.738 276.493L344.985 276.255C344.985 277.868 344.905 279.489 344.87 281.137L344.738 286.116ZM344.738 286.116L344.615 281.234C344.615 279.595 344.518 277.929 344.5 276.255V276.017H344.738C348.633 275.973 352.519 275.876 356.406 275.867L368.074 275.814H368.523V276.255L368.47 286.116V286.513H368.038C366.073 286.513 364.108 286.513 362.143 286.46L356.274 286.363L344.738 286.116Z" fill="#EBEBEB"/>
<path d="M318.687 286.116L330.461 285.87L336.259 285.773C338.181 285.729 340.102 285.773 342.023 285.72L341.635 286.116L341.6 276.255L342.04 276.696L330.373 276.643C326.486 276.643 322.591 276.537 318.705 276.493L318.943 276.255C318.943 277.868 318.872 279.489 318.828 281.137L318.687 286.116ZM318.687 286.116L318.564 281.234C318.52 279.595 318.467 277.929 318.449 276.255V276.017H318.687C322.573 275.973 326.469 275.876 330.355 275.867L342.023 275.814H342.463V276.255L342.481 286.116V286.513H342.093C340.128 286.513 338.154 286.513 336.198 286.46L330.329 286.363L318.687 286.116Z" fill="#EBEBEB"/>
<path d="M17.9421 286.116L29.7068 285.87L35.5055 285.773C37.4354 285.729 39.3566 285.773 41.2777 285.72L40.8811 286.116L40.8371 276.255L41.2777 276.696L29.6363 276.643C25.7412 276.643 21.8548 276.537 17.9685 276.493L18.2064 276.255C18.2064 277.868 18.1271 279.489 18.0919 281.137L17.9421 286.116ZM17.9421 286.116L17.8099 281.234C17.8099 279.595 17.7129 277.929 17.6953 276.255V276.017H17.9421C21.8284 275.973 25.7147 275.876 29.6099 275.867L41.2777 275.814H41.7183V276.255L41.6654 286.116V286.513H41.2777C39.3125 286.513 37.3385 286.513 35.3733 286.46L29.5041 286.363L17.9421 286.116Z" fill="#EBEBEB"/>
<path d="M17.9421 11.8429L29.7068 11.5961L35.5055 11.4904C37.4354 11.4904 39.3566 11.4904 41.2777 11.4904L40.8811 11.8869L40.8371 2.02568L41.2777 2.4575L29.6363 2.35175C25.7412 2.35175 21.8548 2.25481 17.9685 2.21075L18.2064 1.97281C18.2064 3.5855 18.1271 5.20701 18.0919 6.84615L17.9421 11.8429ZM17.9421 11.8429L17.8099 6.96071C17.8099 5.31276 17.7129 3.64719 17.6953 1.98162V1.74368H17.9421C21.8284 1.74368 25.7147 1.60268 29.6099 1.60268L41.2777 1.5498H41.7183V1.99924L41.6654 11.8605V12.2482H41.2777C39.3125 12.2482 37.3385 12.2482 35.3733 12.2042L29.5041 12.0456L17.9421 11.8429Z" fill="#EBEBEB"/>
<path d="M4.96159 24.2784L16.7263 24.0317L22.525 23.9259C24.455 23.9259 26.3673 23.9259 28.2972 23.9259L27.9007 24.3225V14.4612L28.3413 14.893L16.5942 14.7961C12.699 14.7961 8.81268 14.6904 4.96159 14.6904L5.19953 14.4524C5.19953 16.0651 5.12022 17.6866 5.08497 19.3258L4.96159 24.2784ZM4.96159 24.2784L4.8294 19.3963C4.8294 17.7483 4.73247 16.0827 4.71484 14.4172V14.1792H4.96159C8.84793 14.1792 12.7343 14.0382 16.6294 14.0382L28.2972 13.9854H28.7379V14.4348L28.685 24.296V24.6838H28.2972C26.3232 24.6838 24.358 24.6838 22.3928 24.6838L16.5237 24.578L4.96159 24.2784Z" fill="#EBEBEB"/>
<path d="M344.738 11.8517L356.512 11.6049L362.31 11.508C364.24 11.508 366.152 11.508 368.074 11.4551L367.686 11.8517L367.642 1.99043L368.074 2.43106L356.406 2.35175C352.519 2.35175 348.633 2.25481 344.738 2.21075L344.985 1.97281C344.985 3.5855 344.905 5.20701 344.87 6.84615L344.738 11.8517ZM344.738 11.8517L344.615 6.96952C344.615 5.32158 344.518 3.66482 344.5 1.99043V1.75249H344.738C348.633 1.70843 352.519 1.6203 356.406 1.61149L368.038 1.5498H368.488V1.99043L368.444 11.8517V12.2482H368.038C366.073 12.2482 364.108 12.2482 362.143 12.2482L356.274 12.1513L344.738 11.8517Z" fill="#EBEBEB"/>
<path d="M218.409 139.678L206.644 139.925L200.846 140.022C198.916 140.066 196.995 140.022 195.073 140.074L195.47 139.678L195.514 149.539L195.073 149.098L206.741 149.16C210.636 149.16 214.523 149.257 218.409 149.301L218.171 149.539C218.171 147.926 218.25 146.305 218.286 144.666L218.409 139.678ZM218.409 139.678L218.541 144.56C218.541 146.208 218.638 147.865 218.656 149.539V149.777H218.409C214.523 149.777 210.636 149.909 206.741 149.918L195.073 149.971H194.633V149.521L194.686 139.66V139.264H195.073C197.039 139.264 199.013 139.264 200.978 139.308L206.847 139.405L218.409 139.678Z" fill="#EBEBEB"/>
<path d="M205.394 127.243L193.63 127.49L187.831 127.587C185.901 127.587 183.98 127.587 182.059 127.64L182.455 127.243L182.499 137.105L182.059 136.664L193.727 136.726C197.613 136.726 201.508 136.823 205.394 136.867L205.157 137.105C205.157 135.492 205.227 133.87 205.271 132.231L205.394 127.243ZM205.394 127.243L205.518 132.125C205.562 133.773 205.624 135.43 205.632 137.105V137.342H205.386C201.499 137.387 197.604 137.475 193.718 137.483L182.05 137.536H181.609V137.096L181.662 127.234V126.838H182.094C184.059 126.838 186.033 126.838 187.998 126.882L193.868 126.979L205.394 127.243Z" fill="#EBEBEB"/>
<path d="M0 330.637L46.6272 330.425L93.2544 330.346L186.5 330.196L279.746 330.346L326.373 330.425L373 330.637L326.373 330.857L279.746 330.937L186.5 331.078L93.2544 330.937L46.6272 330.857L0 330.637Z" fill="#263238"/>
<path d="M186.501 376.181C274.297 376.181 345.47 369.253 345.47 360.706C345.47 352.16 274.297 345.231 186.501 345.231C98.7044 345.231 27.5312 352.16 27.5312 360.706C27.5312 369.253 98.7044 376.181 186.501 376.181Z" fill="#EBEBEB"/>
<path d="M342.484 233.673C339.135 230.395 334.808 226.429 329.688 227.848C324.876 229.179 323.035 234.431 322.171 238.811C321.061 244.46 320.197 250.152 319.298 255.837C318.399 261.521 317.536 267.293 316.716 273.065C316.246 276.308 315.788 279.554 315.341 282.803C315.112 284.424 314.886 286.046 314.663 287.667C314.442 289.263 314.178 290.858 314.09 292.461C314.09 292.973 314.865 293.043 314.971 292.558C315.597 289.853 315.852 287.033 316.249 284.292C316.645 281.552 317.051 278.758 317.447 276C318.249 270.509 319.087 265.028 319.906 259.538C320.726 254.048 321.589 248.575 322.471 243.094C323.211 238.441 323.563 232.668 327.679 229.602C328.798 228.838 330.092 228.37 331.441 228.244C332.79 228.118 334.149 228.336 335.39 228.879C338.095 229.919 340.263 231.858 342.387 233.779C342.484 233.84 342.572 233.743 342.484 233.673Z" fill="#263238"/>
<path d="M337.929 230.324C337.929 230.324 331.082 227.865 327.706 232.853C324.331 237.841 328.367 250.549 359.52 257.713C358.608 247.976 356.077 238.46 352.029 229.557C345.349 214.99 333.443 220.507 337.929 230.324Z" fill="#324C72"/>
<path d="M357.729 255.633C357.258 254.762 356.735 253.92 356.16 253.113C355.64 252.311 355.112 251.509 354.583 250.716C354.186 250.117 353.772 249.517 353.367 248.953C353.367 248.812 353.367 248.663 353.42 248.513L353.525 247.702C353.605 247.12 353.693 246.53 353.772 245.94C353.851 245.349 353.957 244.785 354.072 244.177C354.143 243.554 354.279 242.939 354.477 242.344C354.477 242.247 354.354 242.203 354.345 242.344C354.278 242.697 354.184 243.045 354.063 243.384L353.851 244.168C353.702 244.759 353.561 245.349 353.428 245.931C353.296 246.512 353.199 247.032 353.102 247.579C353.058 247.852 353.023 248.116 352.988 248.381C352.433 247.588 351.86 246.803 351.278 246.037C349.621 243.86 347.876 241.762 346.061 239.709C346.061 239.709 346.061 239.709 346.061 239.656C346.228 236.387 346.149 233.144 346.872 229.962C346.872 229.874 346.766 229.821 346.74 229.91C345.918 232.945 345.527 236.08 345.576 239.224C344.933 238.502 344.272 237.779 343.611 237.065C342.087 235.435 340.544 233.822 338.967 232.254C338.905 232.192 338.799 232.254 338.861 232.351C341.505 235.179 343.981 238.123 346.414 241.119C344.511 241.088 342.607 241.159 340.712 241.331C338.606 241.48 336.508 241.754 334.411 242.044C334.314 242.044 334.34 242.194 334.411 242.185C336.496 241.878 338.597 241.69 340.703 241.621C342.739 241.533 344.757 241.621 346.792 241.621C348.108 243.243 349.404 244.882 350.679 246.539H350.414C349.939 246.539 349.463 246.539 348.987 246.539C348.035 246.539 347.092 246.627 346.149 246.706C344.213 246.867 342.29 247.161 340.395 247.588C340.376 247.588 340.358 247.595 340.345 247.608C340.331 247.621 340.324 247.639 340.324 247.658C340.324 247.677 340.331 247.695 340.345 247.708C340.358 247.721 340.376 247.729 340.395 247.729C342.307 247.508 344.228 247.332 346.149 247.261C347.03 247.261 347.991 247.261 348.907 247.261H350.414C350.678 247.297 350.946 247.273 351.199 247.191C352.033 248.278 352.867 249.368 353.702 250.46C354.362 251.342 355.015 252.223 355.658 253.104C356.301 253.985 356.909 254.999 357.632 255.845C357.667 255.783 357.764 255.704 357.729 255.633Z" fill="#263238"/>
<path d="M340.908 237.4C339.804 237.259 338.69 237.206 337.577 237.241C336.467 237.241 335.348 237.241 334.237 237.312C334.14 237.312 334.149 237.453 334.237 237.453C335.365 237.364 336.493 237.347 337.621 237.364C338.749 237.382 339.807 237.488 340.891 237.453C340.944 237.453 340.944 237.408 340.908 237.4Z" fill="#263238"/>
<path d="M350.688 239.912C350.811 238.846 350.943 237.779 351.172 236.731C351.172 236.712 351.165 236.694 351.152 236.681C351.139 236.668 351.121 236.66 351.102 236.66C351.083 236.66 351.065 236.668 351.052 236.681C351.039 236.694 351.031 236.712 351.031 236.731C350.873 237.779 350.67 238.819 350.52 239.868C350.441 240.388 350.37 240.917 350.3 241.437C350.211 241.928 350.169 242.427 350.177 242.926C350.183 242.946 350.195 242.963 350.212 242.975C350.228 242.987 350.248 242.994 350.269 242.994C350.29 242.994 350.31 242.987 350.327 242.975C350.343 242.963 350.355 242.946 350.362 242.926C350.454 242.434 350.507 241.936 350.52 241.437C350.564 240.925 350.626 240.414 350.688 239.912Z" fill="#263238"/>
<path d="M348.652 228.12C348.379 229.16 348.106 230.209 347.921 231.258C347.824 231.795 347.736 232.333 347.665 232.87C347.568 233.39 347.533 233.92 347.559 234.448C347.559 234.46 347.564 234.471 347.572 234.479C347.58 234.487 347.592 234.492 347.603 234.492C347.615 234.492 347.626 234.487 347.635 234.479C347.643 234.471 347.647 234.46 347.647 234.448C347.771 233.957 347.851 233.455 347.885 232.95C347.956 232.43 348.035 231.919 348.123 231.399C348.317 230.315 348.511 229.24 348.784 228.173C348.793 228.085 348.652 228.032 348.652 228.12Z" fill="#263238"/>
<path d="M308.116 291.306C307.94 289.35 307.746 287.385 307.543 285.428C307.126 281.551 306.659 277.676 306.142 273.805C305.622 269.954 305.129 266.085 304.503 262.243C304.278 260.446 303.88 258.675 303.313 256.955C303.112 256.221 302.745 255.544 302.241 254.974C301.737 254.404 301.109 253.957 300.405 253.668C296.739 252.408 294.236 256.206 292.791 258.894C292.747 258.973 292.862 259.035 292.915 258.964C293.796 257.686 296.246 254.117 299.03 254.285C300.899 254.391 302.397 255.721 303.296 260.383C305.534 272.007 307.552 295.633 307.79 297.14C307.913 297.96 308.486 297.925 308.495 297.043C308.46 295.157 308.24 293.227 308.116 291.306Z" fill="#263238"/>
<path d="M293.731 257.493C293.731 257.493 296.939 246.177 289.854 251.835C278.063 261.256 277.648 281.71 277.648 281.71C277.648 281.71 298.605 269.54 301.204 261.511C305.091 249.579 293.731 257.493 293.731 257.493Z" fill="#324C72"/>
<path d="M297.698 263.045C296.059 263.38 294.384 263.601 292.728 263.839L290.366 264.173C289.837 264.244 289.3 264.297 288.762 264.359C290.322 262.208 291.899 260.067 293.397 257.873C293.411 257.854 293.417 257.83 293.414 257.807C293.411 257.784 293.399 257.763 293.38 257.749C293.361 257.735 293.338 257.729 293.314 257.732C293.291 257.736 293.27 257.748 293.256 257.767C292.007 259.048 290.83 260.399 289.731 261.812L288.797 259.168C288.445 258.155 288.057 257.15 287.801 256.101C287.801 256.013 287.643 256.101 287.669 256.145C287.951 257.176 288.154 258.243 288.436 259.283C288.718 260.322 289.009 261.274 289.361 262.252C288.595 263.248 287.854 264.27 287.141 265.301C286.779 264.279 286.33 263.292 286.021 262.252C286.021 262.164 285.854 262.208 285.88 262.252C286.259 263.407 286.462 264.596 286.814 265.777C286.33 266.482 285.854 267.187 285.396 267.892C284.514 269.205 283.748 270.536 282.972 271.876C282.911 271.902 282.861 271.947 282.827 272.004C282.794 272.061 282.78 272.127 282.787 272.193C281.465 274.484 280.205 276.802 278.962 279.146C278.953 279.162 278.951 279.182 278.956 279.2C278.961 279.218 278.973 279.234 278.989 279.243C279.005 279.252 279.025 279.255 279.043 279.25C279.061 279.245 279.076 279.233 279.086 279.217C280.328 276.899 281.73 274.643 283.148 272.431C283.371 272.357 283.602 272.313 283.836 272.299L284.558 272.14C285.096 272.025 285.634 271.884 286.171 271.752C287.237 271.488 288.286 271.232 289.37 271.047C289.458 271.047 289.414 270.897 289.37 270.915C288.101 271.153 286.832 271.303 285.545 271.444C284.937 271.514 284.338 271.594 283.739 271.691H283.651C284.397 270.551 285.161 269.417 285.942 268.289C286.7 267.187 287.484 266.095 288.269 265.002C289 264.905 289.714 264.711 290.436 264.579L292.869 264.103C294.49 263.777 296.112 263.416 297.742 263.151C297.83 263.204 297.786 263.028 297.698 263.045Z" fill="#263238"/>
<path d="M285.103 264.164C285.007 263.864 284.918 263.565 284.821 263.283C284.625 262.657 284.463 262.022 284.337 261.379C284.337 261.291 284.187 261.335 284.205 261.379C284.346 262.022 284.495 262.657 284.636 263.291C284.765 263.931 284.947 264.559 285.183 265.168C285.197 265.194 285.22 265.214 285.248 265.225C285.275 265.236 285.305 265.238 285.334 265.23C285.362 265.222 285.387 265.204 285.404 265.18C285.422 265.156 285.431 265.127 285.43 265.098C285.333 264.798 285.2 264.481 285.103 264.164Z" fill="#263238"/>
<path d="M299.841 260.427C298.889 260.568 297.929 260.639 296.959 260.727C295.99 260.815 295.047 260.938 294.087 261.088C294.034 261.088 294.034 261.176 294.087 261.167C295.047 261.106 296.008 261.026 296.968 260.903C297.929 260.78 298.881 260.639 299.85 260.568C299.938 260.559 299.929 260.418 299.841 260.427Z" fill="#263238"/>
<path d="M323.49 276.986C323.111 268.658 322.609 260.339 321.728 252.047C321.314 247.913 320.847 243.789 320.265 239.709C319.751 235.666 318.953 231.664 317.877 227.733C317.139 224.676 315.783 221.803 313.894 219.29C312.96 218.068 311.731 217.103 310.322 216.486C308.913 215.87 307.37 215.622 305.839 215.765C302.199 216.215 299.256 218.515 296.718 221.009C293.871 223.811 291.263 226.869 288.628 229.821C287.958 230.579 287.297 231.346 286.636 232.113C286.583 232.183 286.68 232.28 286.742 232.209C289.324 229.248 292.03 226.367 294.806 223.617C297.396 221.07 300.093 218.33 303.618 217.237C305.287 216.708 307.072 216.665 308.765 217.114C310.113 217.539 311.327 218.307 312.29 219.343C314.317 221.441 315.445 224.287 316.255 227.045C318.494 234.703 319.296 242.732 320.124 250.637C320.952 258.541 321.543 266.719 321.948 274.792C322.354 282.864 322.671 291.016 323.455 299.106C323.552 300.101 323.675 301.097 323.808 302.093C323.887 302.754 324.927 302.763 324.874 302.093C324.248 293.721 323.861 285.358 323.49 276.986Z" fill="#263238"/>
<path d="M296.28 221.89C296.28 221.89 301.039 213.077 295.399 210.257C289.759 207.437 270.971 228.429 265.48 259.132C265.48 259.132 295.857 245.693 306.177 232.298C316.496 218.902 304.811 215.959 296.28 221.89Z" fill="#324C72"/>
<path d="M300.747 229.045C297.337 229.045 293.926 228.79 290.516 228.807L292.437 226.613C293.386 225.639 294.269 224.602 295.081 223.511C295.125 223.441 295.028 223.344 294.957 223.397C294.03 224.191 293.166 225.057 292.375 225.987C291.494 226.869 290.666 227.803 289.82 228.719C288.515 230.138 287.238 231.566 285.96 233.011C285.96 232.87 285.96 232.729 285.96 232.597C285.96 231.998 285.96 231.398 285.96 230.834C285.96 229.68 285.96 228.517 285.96 227.362C285.96 225.018 285.96 222.656 286.136 220.312C286.136 220.224 286.004 220.224 285.995 220.312C285.836 222.674 285.59 225.018 285.475 227.362C285.422 228.525 285.396 229.68 285.378 230.843C285.378 231.434 285.378 232.033 285.378 232.606C285.378 232.932 285.378 233.275 285.378 233.61C285.184 233.839 284.973 234.06 284.779 234.28C282.056 237.4 279.491 240.616 276.936 243.895C276.936 243.718 276.936 243.524 276.892 243.348C276.892 242.987 276.812 242.626 276.777 242.264C276.689 241.48 276.583 240.704 276.46 239.92C276.336 239.136 276.24 238.457 276.116 237.726C275.993 236.994 275.772 236.078 275.711 235.249C275.715 235.239 275.716 235.227 275.715 235.216C275.713 235.205 275.709 235.194 275.703 235.185C275.696 235.175 275.687 235.168 275.677 235.162C275.667 235.157 275.656 235.154 275.645 235.154C275.633 235.154 275.622 235.157 275.612 235.162C275.602 235.168 275.593 235.175 275.587 235.185C275.58 235.194 275.576 235.205 275.575 235.216C275.573 235.227 275.575 235.239 275.579 235.249C275.716 236.078 275.811 236.914 275.861 237.752L276.072 240.008C276.134 240.757 276.204 241.506 276.284 242.264L276.389 243.348C276.389 243.524 276.433 243.71 276.46 243.886C276.468 244.04 276.517 244.188 276.601 244.318L275.305 246.01C273.543 248.292 271.886 250.601 270.194 252.901C270.141 252.972 270.247 253.068 270.3 252.998C271.904 250.909 273.552 248.856 275.217 246.829C276.469 246.882 277.746 246.785 278.998 246.767C280.249 246.75 281.642 246.767 282.946 246.767C282.965 246.767 282.982 246.76 282.996 246.747C283.009 246.734 283.016 246.716 283.016 246.697C283.016 246.678 283.009 246.66 282.996 246.647C282.982 246.634 282.965 246.626 282.946 246.626C281.624 246.626 280.302 246.671 278.989 246.679C277.676 246.688 276.566 246.626 275.367 246.679C276.83 244.917 278.319 243.154 279.773 241.348L281.501 239.409C282.006 239.475 282.516 239.493 283.025 239.462H284.788C285.907 239.462 287.026 239.462 288.154 239.418C290.472 239.418 292.789 239.303 295.107 239.294C295.118 239.298 295.129 239.3 295.141 239.298C295.152 239.297 295.163 239.293 295.172 239.286C295.181 239.28 295.189 239.271 295.194 239.261C295.199 239.251 295.202 239.24 295.202 239.228C295.202 239.217 295.199 239.206 295.194 239.196C295.189 239.186 295.181 239.177 295.172 239.17C295.163 239.164 295.152 239.16 295.141 239.158C295.129 239.157 295.118 239.158 295.107 239.162C292.781 239.162 290.463 239.03 288.145 238.968C287.017 238.968 285.898 238.907 284.77 238.889H283.008C282.673 238.889 282.32 238.889 281.968 238.889L285.801 234.351C285.831 234.331 285.855 234.303 285.872 234.271C287.114 232.8 288.357 231.337 289.617 229.865C289.793 229.671 289.969 229.477 290.137 229.275C293.662 229.38 297.187 229.151 300.712 229.222C300.844 229.186 300.844 229.045 300.747 229.045Z" fill="#263238"/>
<path d="M299.003 235.083H298.175C298.159 235.083 298.143 235.09 298.131 235.101C298.12 235.113 298.113 235.128 298.113 235.145C298.113 235.161 298.12 235.177 298.131 235.188C298.143 235.2 298.159 235.206 298.175 235.206H298.995C299.006 235.201 299.016 235.193 299.023 235.182C299.03 235.172 299.035 235.16 299.036 235.147C299.036 235.135 299.034 235.122 299.028 235.111C299.023 235.099 299.014 235.09 299.003 235.083Z" fill="#263238"/>
<path d="M297.162 235.091C296.069 235.091 294.976 235.091 293.884 235.02L292.253 235.002C291.747 234.941 291.235 234.941 290.729 235.002C290.715 235.002 290.701 235.008 290.691 235.018C290.681 235.028 290.676 235.041 290.676 235.055C290.676 235.069 290.681 235.083 290.691 235.093C290.701 235.103 290.715 235.108 290.729 235.108C291.233 235.21 291.749 235.245 292.262 235.214H293.901H297.179C297.259 235.232 297.259 235.091 297.162 235.091Z" fill="#263238"/>
<path d="M287.619 245.349C285.396 244.975 283.148 244.772 280.895 244.741V244.785C283.133 244.997 285.363 245.12 287.583 245.481C287.671 245.499 287.707 245.358 287.619 245.349Z" fill="#263238"/>
<path d="M278.478 235.567C278.478 235.373 278.434 235.179 278.408 234.985C278.355 234.545 278.284 234.104 278.214 233.672C278.082 232.835 277.941 232.007 277.782 231.17C277.782 231.099 277.632 231.117 277.641 231.17C277.747 232.051 277.844 232.888 277.923 233.752L278.029 235.021C278.017 235.427 278.074 235.832 278.196 236.219C278.214 236.246 278.238 236.266 278.267 236.279C278.296 236.292 278.329 236.297 278.36 236.292C278.391 236.287 278.421 236.274 278.445 236.253C278.469 236.233 278.487 236.205 278.496 236.175C278.526 235.973 278.52 235.767 278.478 235.567Z" fill="#263238"/>
<path d="M323.193 210.583C322.1 208.556 320.717 205.886 318.003 206.053C315.764 206.194 314.751 208.477 314.275 210.372C312.794 216.214 312.689 222.383 312.407 228.376C311.79 241.039 311.243 253.712 311.164 266.393C311.164 269.918 311.164 273.443 311.164 276.968C311.164 280.555 311.164 284.159 311.411 287.737C311.411 287.807 311.439 287.874 311.488 287.924C311.538 287.973 311.605 288.001 311.675 288.001C311.745 288.001 311.813 287.973 311.862 287.924C311.912 287.874 311.94 287.807 311.94 287.737C311.94 284.67 311.851 281.568 311.843 278.537C311.834 275.505 311.843 272.553 311.896 269.557C311.995 263.499 312.157 257.442 312.38 251.385C312.609 245.366 312.874 239.347 313.129 233.328C313.253 230.323 313.385 227.309 313.517 224.304C313.649 221.299 313.773 218.479 314.107 215.58C314.293 213.949 314.53 212.328 314.874 210.733C315.041 209.543 315.525 208.42 316.275 207.481C316.793 206.97 317.476 206.66 318.202 206.609C318.927 206.557 319.647 206.766 320.232 207.199C321.475 208.094 322.447 209.314 323.043 210.724C323.062 210.744 323.088 210.756 323.115 210.756C323.142 210.757 323.169 210.747 323.189 210.728C323.209 210.71 323.22 210.684 323.221 210.657C323.222 210.629 323.212 210.603 323.193 210.583Z" fill="#263238"/>
<path d="M322.452 209.614C322.452 209.614 320.222 201.736 325.157 205.675C333.37 212.232 333.661 226.499 333.661 226.499C333.661 226.499 319.059 218.022 317.243 212.399C314.538 204.098 322.452 209.614 322.452 209.614Z" fill="#324C72"/>
<path d="M330.586 220.656C330.454 220.436 330.313 220.224 330.172 220.004C330.19 219.781 330.19 219.557 330.172 219.334C330.172 218.999 330.172 218.656 330.172 218.321C330.172 217.651 330.172 216.981 330.243 216.32C330.243 216.302 330.235 216.284 330.222 216.271C330.209 216.257 330.191 216.25 330.172 216.25C330.154 216.25 330.136 216.257 330.122 216.271C330.109 216.284 330.102 216.302 330.102 216.32C330.102 216.972 330.04 217.633 330.022 218.286C330.022 218.612 330.022 218.938 330.022 219.264C330.022 219.387 330.022 219.537 330.022 219.687C329.45 218.806 328.859 217.924 328.26 217.043C328.084 216.787 327.899 216.541 327.722 216.294C327.628 215.439 327.614 214.578 327.678 213.721C327.678 212.839 327.678 211.888 327.731 210.971C327.731 210.883 327.59 210.883 327.59 210.971C327.59 211.923 327.52 212.875 327.467 213.826C327.409 214.503 327.392 215.183 327.414 215.862C326.004 213.95 324.506 212.099 323.008 210.257C322.955 210.196 322.849 210.257 322.902 210.345C323.836 211.535 324.735 212.751 325.616 213.985C323.898 213.58 322.153 213.351 320.408 213.104C320.32 213.104 320.285 213.227 320.408 213.245C322.259 213.527 324.074 213.985 325.898 214.39C326.594 215.377 327.291 216.364 327.969 217.36L328.798 218.576H328.727L328.154 218.497L326.938 218.391C326.101 218.321 325.255 218.277 324.409 218.233C324.321 218.233 324.33 218.374 324.409 218.374C325.237 218.374 326.066 218.453 326.885 218.541L328.198 218.7L328.762 218.77H328.93C329.397 219.458 329.873 220.145 330.331 220.832C331.159 222.057 331.9 223.362 332.772 224.534C332.783 224.544 332.797 224.549 332.812 224.551C332.827 224.552 332.842 224.548 332.855 224.54C332.868 224.533 332.878 224.521 332.883 224.507C332.889 224.493 332.89 224.478 332.887 224.463C332.197 223.149 331.429 221.878 330.586 220.656Z" fill="#263238"/>
<path d="M326.957 211.756C326.957 211.448 326.957 211.139 326.957 210.831C326.939 210.186 326.965 209.541 327.036 208.901C327.04 208.89 327.041 208.879 327.04 208.867C327.038 208.856 327.034 208.845 327.028 208.836C327.021 208.827 327.012 208.819 327.002 208.814C326.992 208.808 326.981 208.806 326.97 208.806C326.958 208.806 326.947 208.808 326.937 208.814C326.927 208.819 326.918 208.827 326.912 208.836C326.905 208.845 326.901 208.856 326.9 208.867C326.898 208.879 326.9 208.89 326.904 208.901C326.904 209.544 326.833 210.179 326.798 210.813C326.798 211.139 326.798 211.456 326.798 211.774V212.214C326.776 212.366 326.776 212.521 326.798 212.672C326.798 212.689 326.804 212.705 326.816 212.716C326.827 212.728 326.843 212.734 326.86 212.734C326.876 212.734 326.892 212.728 326.903 212.716C326.915 212.705 326.921 212.689 326.921 212.672C326.943 212.532 326.943 212.39 326.921 212.249L326.957 211.756Z" fill="#263238"/>
<path d="M325.149 215.017C324.603 214.92 324.047 214.893 323.501 214.849C322.955 214.805 322.302 214.743 321.738 214.664C321.72 214.664 321.702 214.671 321.689 214.685C321.675 214.698 321.668 214.716 321.668 214.735C321.668 214.753 321.675 214.771 321.689 214.784C321.702 214.798 321.72 214.805 321.738 214.805C322.893 214.876 324.039 215.087 325.193 215.122C325.202 215.131 325.211 215.025 325.149 215.017Z" fill="#263238"/>
<path d="M329.732 215.06C329.776 215.122 329.732 215.298 329.732 215.369V216.171C329.732 216.356 329.732 216.541 329.732 216.726C329.701 216.883 329.701 217.045 329.732 217.202C329.732 217.202 329.776 217.202 329.785 217.202C329.803 217.126 329.803 217.048 329.785 216.973C329.78 216.888 329.78 216.802 329.785 216.717V216.171C329.785 215.986 329.785 215.801 329.785 215.616V215.369C329.785 215.289 329.785 215.122 329.785 215.06C329.785 214.999 329.644 214.928 329.732 215.06Z" fill="#263238"/>
<path d="M323.529 252.628C320.462 250.328 317.704 247.014 313.571 246.847C310.16 246.715 307.772 249.279 306.406 252.134C305.723 253.658 305.166 255.235 304.741 256.849C304.124 258.999 303.536 261.164 302.978 263.344C301.915 267.627 301.004 271.945 300.246 276.298C299.832 278.722 299.444 281.154 299.136 283.595C298.748 286.069 298.51 288.565 298.422 291.068C298.42 291.164 298.455 291.258 298.518 291.33C298.582 291.402 298.67 291.448 298.765 291.459C298.861 291.47 298.957 291.445 299.035 291.389C299.114 291.333 299.168 291.25 299.189 291.156C299.603 289.112 299.779 287.005 300.07 284.943C300.361 282.881 300.687 280.793 301.03 278.73C301.735 274.618 302.552 270.505 303.48 266.393C304.362 262.524 305.243 258.603 306.468 254.84C307.349 252.143 308.794 248.997 311.711 248.028C316.118 246.556 320.162 250.301 323.406 252.742C323.502 252.786 323.599 252.681 323.529 252.628Z" fill="#263238"/>
<path d="M320.354 250.425C320.354 250.425 317.517 242.344 321.614 240.732C327.783 238.361 343.804 256.444 340.658 284.151C340.658 284.151 328.259 277.321 319.094 269.628C309.929 261.935 307.638 251.897 311.63 249.306C315.622 246.715 320.354 250.425 320.354 250.425Z" fill="#324C72"/>
<path d="M338.807 278.238C338.38 277.271 337.883 276.337 337.317 275.444C336.789 274.493 336.26 273.55 335.714 272.615C334.647 270.791 333.59 268.967 332.497 267.152L331.959 266.27C331.959 266.165 332.003 266.05 332.021 265.944L332.206 265.142C332.347 264.543 332.453 263.935 332.559 263.327C332.788 262.146 332.99 260.948 333.308 259.802C333.308 259.723 333.193 259.696 333.176 259.802C332.92 260.983 332.541 262.155 332.197 263.327C332.021 263.9 331.836 264.464 331.686 265.046L331.528 265.636C330.214 263.477 328.884 261.327 327.421 259.247C327.515 258.962 327.566 258.665 327.571 258.366C327.615 257.96 327.659 257.555 327.712 257.149C327.817 256.268 327.923 255.325 328.055 254.418C328.32 252.655 328.584 250.893 329.025 249.13C329.025 249.042 328.91 249.015 328.893 249.13C328.443 250.893 327.967 252.655 327.632 254.418C327.474 255.299 327.315 256.18 327.201 257.061C327.148 257.502 327.095 257.943 327.051 258.383C327.051 258.507 327.051 258.648 326.998 258.78C326.557 258.154 326.117 257.52 325.65 256.912C324.231 255.043 322.759 253.228 321.243 251.412C321.19 251.342 321.067 251.412 321.129 251.492C323.667 254.738 325.998 258.14 328.108 261.679L329.316 263.644L328.91 263.591C328.39 263.521 327.87 263.494 327.35 263.442L324.213 263.168C322.125 263.001 320.027 262.878 317.947 262.657C317.859 262.657 317.833 262.781 317.947 262.789C320.062 263.036 322.16 263.371 324.266 263.671C325.306 263.821 326.337 263.962 327.377 264.094C328.163 264.25 328.963 264.33 329.765 264.332C330.585 265.671 331.413 266.975 332.233 268.333C332.047 268.333 331.854 268.333 331.677 268.333H328.69C327.342 268.333 325.993 268.333 324.654 268.333C324.557 268.333 324.574 268.465 324.654 268.465C326.02 268.465 327.377 268.553 328.743 268.623L330.682 268.738L331.651 268.808C331.941 268.876 332.242 268.876 332.532 268.808L334.63 272.21C335.273 273.259 335.925 274.299 336.586 275.339C337.209 276.441 337.913 277.495 338.692 278.493C338.727 278.37 338.842 278.326 338.807 278.238Z" fill="#263238"/>
<path d="M332.896 255.846C332.772 256.739 332.587 257.622 332.341 258.489C332.112 259.371 331.856 260.252 331.565 261.133C331.561 261.144 331.558 261.156 331.559 261.169C331.559 261.181 331.562 261.193 331.567 261.204C331.572 261.215 331.579 261.225 331.589 261.233C331.598 261.241 331.609 261.247 331.62 261.251C331.632 261.254 331.644 261.256 331.656 261.254C331.668 261.253 331.68 261.249 331.691 261.243C331.701 261.237 331.711 261.229 331.718 261.219C331.725 261.209 331.73 261.198 331.733 261.186C332.006 260.305 332.253 259.423 332.464 258.542C332.676 257.661 332.817 256.78 333.037 255.854C333.038 255.836 333.032 255.817 333.019 255.803C333.007 255.789 332.99 255.781 332.971 255.779C332.952 255.778 332.934 255.785 332.92 255.797C332.906 255.809 332.897 255.827 332.896 255.846Z" fill="#263238"/>
<path d="M323.783 261.256C323.592 261.096 323.353 261.006 323.104 261.001L321.932 260.842C321.209 260.745 320.478 260.666 319.755 260.578C318.24 260.401 316.733 260.251 315.217 260.066C315.129 260.066 315.102 260.19 315.217 260.199C316.645 260.375 318.063 260.595 319.491 260.78L321.58 261.053L322.593 261.159C322.984 261.163 323.371 261.231 323.739 261.362C323.751 261.362 323.763 261.359 323.773 261.352C323.784 261.345 323.792 261.335 323.797 261.324C323.801 261.313 323.803 261.3 323.8 261.288C323.798 261.276 323.792 261.265 323.783 261.256Z" fill="#263238"/>
<path d="M332.876 273.444C332.162 273.382 331.439 273.356 330.726 273.338H329.642H329.122C328.896 273.36 328.669 273.36 328.443 273.338C328.346 273.338 328.337 273.488 328.443 273.47C328.654 273.448 328.867 273.448 329.078 273.47H329.642L330.717 273.541C331.431 273.585 332.153 273.629 332.867 273.629C332.955 273.593 332.964 273.444 332.876 273.444Z" fill="#263238"/>
<path d="M337.248 270.341L337.486 269.125C337.627 268.323 337.777 267.521 337.927 266.728C337.927 266.709 337.919 266.691 337.906 266.678C337.893 266.665 337.875 266.657 337.856 266.657C337.837 266.657 337.819 266.665 337.806 266.678C337.793 266.691 337.786 266.709 337.786 266.728L337.257 269.063C337.169 269.451 337.081 269.839 337.001 270.226C337.001 270.411 336.931 270.588 336.887 270.773C336.831 270.958 336.81 271.152 336.825 271.345C336.827 271.363 336.834 271.38 336.845 271.394C336.857 271.407 336.872 271.417 336.889 271.422C336.906 271.427 336.925 271.426 336.941 271.421C336.958 271.415 336.973 271.404 336.984 271.39C337.137 271.06 337.227 270.704 337.248 270.341Z" fill="#263238"/>
<path d="M295.25 287.967L296.114 297.793L299.048 330.954H325.019L328.685 297.793L329.769 287.967H295.25Z" fill="#37474F"/>
<path d="M295.25 287.967L296.114 297.793H328.685L329.769 287.967H295.25Z" fill="#263238"/>
<path d="M292.675 293.263H332.34V285.296H292.675V293.263Z" fill="#37474F"/>
<path d="M154.775 255.387C154.775 241.287 157.078 228.617 161.684 217.378C166.29 206.139 175.79 196.349 190.184 188.006C194.508 185.415 199.837 182.478 206.17 179.193C212.687 175.771 218.899 171.797 224.738 167.314C230.707 162.8 235.888 157.33 240.072 151.126C244.289 144.801 246.475 137.339 246.337 129.737C246.464 124.201 245.286 118.713 242.901 113.716C240.7 109.255 237.615 105.288 233.832 102.057C229.948 98.8199 225.453 96.3955 220.614 94.9279C215.653 93.362 210.482 92.5626 205.28 92.5573C199.384 92.4767 193.531 93.567 188.06 95.7651C183.027 97.839 178.306 100.6 174.03 103.97C169.864 107.268 166.093 111.039 162.794 115.206C159.758 118.993 156.948 122.957 154.379 127.076H147.875L116.793 101.167C120.388 92.4549 125.426 84.4109 131.695 77.3733C137.825 70.5114 144.955 64.614 152.845 59.8804C160.871 55.1086 169.532 51.495 178.569 49.1467C187.872 46.6895 197.455 45.4541 207.078 45.4719C218.049 45.478 228.961 47.0781 239.472 50.2218C249.955 53.3068 259.718 58.4474 268.193 65.3442C276.947 72.5909 284.023 81.6537 288.929 91.9052C294.251 102.703 296.913 115.59 296.913 130.566C297.046 138.815 295.956 147.038 293.678 154.968C291.611 161.827 288.473 168.316 284.381 174.197C280.329 179.978 275.539 185.204 270.131 189.742C264.26 194.633 258.052 199.106 251.555 203.128C245.791 206.595 240.034 209.908 234.282 213.069C228.715 216.106 223.438 219.646 218.516 223.644C213.881 227.4 209.934 231.933 206.848 237.039C203.829 242.08 202.319 248.199 202.319 255.396L154.775 255.387ZM155.656 356.017V296.418H203.597V356.017H155.656Z" fill="#324C72"/>
<g opacity="0.2">
<path d="M154.775 255.387C154.775 241.287 157.078 228.617 161.684 217.378C166.29 206.139 175.79 196.349 190.184 188.006C194.508 185.415 199.837 182.478 206.17 179.193C212.687 175.771 218.899 171.797 224.738 167.314C230.707 162.8 235.888 157.33 240.072 151.126C244.289 144.801 246.475 137.339 246.337 129.737C246.464 124.201 245.286 118.713 242.901 113.716C240.7 109.255 237.615 105.288 233.832 102.057C229.948 98.8199 225.453 96.3955 220.614 94.9279C215.653 93.362 210.482 92.5626 205.28 92.5573C199.384 92.4767 193.531 93.567 188.06 95.7651C183.027 97.839 178.306 100.6 174.03 103.97C169.864 107.268 166.093 111.039 162.794 115.206C159.758 118.993 156.948 122.957 154.379 127.076H147.875L116.793 101.167C120.388 92.4549 125.426 84.4109 131.695 77.3733C137.825 70.5114 144.955 64.614 152.845 59.8804C160.871 55.1086 169.532 51.495 178.569 49.1467C187.872 46.6895 197.455 45.4541 207.078 45.4719C218.049 45.478 228.961 47.0781 239.472 50.2218C249.955 53.3068 259.718 58.4474 268.193 65.3442C276.947 72.5909 284.023 81.6537 288.929 91.9052C294.251 102.703 296.913 115.59 296.913 130.566C297.046 138.815 295.956 147.038 293.678 154.968C291.611 161.827 288.473 168.316 284.381 174.197C280.329 179.978 275.539 185.204 270.131 189.742C264.26 194.633 258.052 199.106 251.555 203.128C245.791 206.595 240.034 209.908 234.282 213.069C228.715 216.106 223.438 219.646 218.516 223.644C213.881 227.4 209.934 231.933 206.848 237.039C203.829 242.08 202.319 248.199 202.319 255.396L154.775 255.387ZM155.656 356.017V296.418H203.597V356.017H155.656Z" fill="black"/>
</g>
<path d="M148.305 255.387C148.305 241.287 150.608 228.617 155.214 217.378C159.82 206.139 169.323 196.349 183.723 188.006C188.041 185.415 193.367 182.478 199.7 179.194C206.221 175.773 212.436 171.799 218.277 167.314C224.244 162.798 229.425 157.329 233.611 151.126C237.822 144.798 240.004 137.337 239.868 129.738C239.981 124.215 238.798 118.743 236.413 113.76C234.213 109.299 231.127 105.332 227.345 102.101C223.461 98.864 218.965 96.4396 214.126 94.972C209.165 93.4061 203.995 92.6067 198.793 92.6015C192.897 92.5038 187.04 93.5792 181.564 95.7652C176.529 97.8395 171.804 100.6 167.526 103.97C163.362 107.269 159.594 111.039 156.298 115.206C153.259 118.993 150.446 122.957 147.874 127.076L110.297 101.167C113.889 92.4537 118.928 84.4093 125.199 77.3734C131.326 70.509 138.457 64.6112 146.349 59.8805C154.373 55.1101 163.03 51.4965 172.064 49.1468C181.376 46.6865 190.968 45.4511 200.599 45.4719C211.57 45.4775 222.483 47.0775 232.994 50.2219C243.477 53.3049 253.24 58.4457 261.714 65.3442C270.471 72.589 277.546 81.6523 282.45 91.9053C287.773 102.704 290.437 115.59 290.443 130.566C290.574 138.815 289.481 147.039 287.2 154.968C285.127 161.83 281.98 168.32 277.876 174.197C273.824 179.978 269.034 185.204 263.626 189.742C257.758 194.638 251.55 199.111 245.05 203.128C239.298 206.595 233.54 209.908 227.777 213.069C222.21 216.106 216.933 219.646 212.011 223.644C207.379 227.401 203.434 231.933 200.352 237.039C197.333 242.08 195.82 248.199 195.814 255.396L148.305 255.387ZM149.187 356.017V296.418H197.074V356.017H149.187Z" fill="#324C72"/>
<path d="M128.551 360.785C126.674 361.384 73.1552 360.696 71.1371 359.375C70.3616 358.881 70.0091 351.082 69.8505 341.635V341.344C69.8505 339.397 69.7888 337.387 69.78 335.36C69.78 335.078 69.78 334.796 69.78 334.523C69.7095 320.899 69.921 306.755 69.921 306.755L105.726 307.116L104.642 334.585L104.598 335.678L104.378 341.371V341.952C104.378 341.952 124.726 351.417 126.797 353.091C128.868 354.766 130.428 360.185 128.551 360.785Z" fill="#AD6359"/>
<path d="M128.548 360.785C126.671 361.384 73.1525 360.697 71.1345 359.375C70.359 358.881 70.0065 351.082 69.8478 341.635V341.344C69.8478 339.397 69.7862 337.388 69.7773 335.361C69.7773 335.079 69.7773 334.797 69.7773 334.523L104.649 334.62L104.605 335.713L104.384 341.406V341.988C104.384 341.988 124.724 351.417 126.795 353.091C128.865 354.766 130.425 360.186 128.548 360.785Z" fill="#EBEBEB"/>
<path d="M128.551 360.785C127.397 361.155 106.661 361.032 90.4279 360.574C80.2934 360.301 71.9215 359.878 71.1372 359.375C70.3529 358.873 70.018 351.303 69.8594 342.032C69.8594 341.9 69.8594 341.768 69.8594 341.636C69.8594 341.503 69.8594 341.433 69.8594 341.336L104.396 341.406V341.988C104.396 341.988 124.77 351.417 126.833 353.101C128.895 354.784 130.428 360.186 128.551 360.785Z" fill="#324C72"/>
<path d="M127.977 358.696C118.953 358.362 82.5484 357.815 73.6037 358.194C73.5332 358.194 73.5332 358.247 73.6037 358.256C82.5396 358.785 118.944 359.005 127.968 358.846C128.162 358.846 128.162 358.705 127.977 358.696Z" fill="#263238"/>
<path d="M108.219 341.547C104.694 340.842 100.331 341.326 97.5818 343.82C97.4761 343.917 97.5818 344.067 97.7316 344.032C101.139 342.985 104.649 342.302 108.201 341.996C108.253 341.988 108.302 341.962 108.337 341.922C108.372 341.883 108.393 341.832 108.395 341.779C108.397 341.726 108.381 341.673 108.348 341.631C108.316 341.589 108.27 341.559 108.219 341.547Z" fill="#263238"/>
<path d="M110.765 343.124C107.24 342.419 102.878 342.904 100.129 345.397C100.023 345.494 100.129 345.644 100.279 345.609C103.675 344.563 107.172 343.881 110.713 343.573C110.767 343.571 110.819 343.549 110.859 343.512C110.899 343.475 110.924 343.425 110.931 343.371C110.937 343.317 110.924 343.262 110.894 343.217C110.863 343.172 110.818 343.139 110.765 343.124Z" fill="#263238"/>
<path d="M113.305 344.702C109.779 343.997 105.417 344.482 102.668 346.976C102.562 347.073 102.668 347.222 102.818 347.187C106.226 346.143 109.735 345.463 113.287 345.16C113.348 345.163 113.407 345.141 113.451 345.099C113.496 345.058 113.522 345.001 113.525 344.94C113.527 344.879 113.505 344.82 113.464 344.775C113.423 344.731 113.365 344.704 113.305 344.702Z" fill="#263238"/>
<path d="M112.945 333.862C111.57 331.923 108.962 332.76 107.464 333.985C104.931 336.137 103.009 338.918 101.894 342.049C101.888 342.062 101.886 342.077 101.887 342.091C101.888 342.106 101.893 342.12 101.901 342.132C101.909 342.144 101.919 342.154 101.932 342.161C101.945 342.168 101.959 342.172 101.973 342.172C101.973 342.445 102.22 342.736 102.529 342.622C105.472 341.573 108.75 340.859 111.288 338.903C112.769 337.784 114.24 335.704 112.945 333.862ZM106.662 340.119C105.225 340.674 103.771 341.15 102.361 341.749C103.454 340.181 104.467 338.577 105.719 337.114C106.312 336.406 106.948 335.735 107.622 335.105C108.697 334.162 112.91 332.17 112.222 336.056C111.852 338.198 108.38 339.467 106.662 340.119Z" fill="#263238"/>
<path d="M92.8732 341C95.7813 342.287 99.1477 342.269 102.259 342.613C102.576 342.613 102.743 342.305 102.69 342.04C102.704 342.036 102.717 342.028 102.727 342.018C102.737 342.008 102.745 341.996 102.75 341.982C102.755 341.969 102.757 341.954 102.756 341.94C102.755 341.926 102.751 341.912 102.743 341.899C100.931 339.113 98.4215 336.85 95.4641 335.334C93.7016 334.453 90.9873 334.276 90.106 336.48C89.2248 338.683 91.1724 340.251 92.8732 341ZM91.3045 338.445C89.7535 334.823 94.3096 335.801 95.561 336.471C96.3693 336.919 97.144 337.426 97.8787 337.987C99.3882 339.156 100.835 340.403 102.214 341.723C100.699 341.459 99.1741 341.335 97.6496 341.124C95.8342 340.886 92.2034 340.445 91.3222 338.445H91.3045Z" fill="#263238"/>
<path d="M90.4435 360.574C80.3091 360.301 71.9371 359.878 71.1528 359.375C70.3685 358.873 70.0336 351.303 69.875 342.032C74.0169 345.742 84.3452 354.951 90.4435 360.574Z" fill="#263238"/>
<path d="M58.9297 152.588C58.9297 152.588 66.9667 243.022 68.271 249.922C68.5794 251.5 68.7645 260.048 68.8879 271.029C69.1611 295.008 69.0024 338.242 69.0024 338.242H106.729C106.729 338.242 105.61 263.335 103.935 249.544C102.261 235.752 91.5978 152.606 91.5978 152.606L58.9297 152.588Z" fill="#37474F"/>
<path d="M105.018 331.668C99.1313 331.545 100.823 331.501 94.9366 331.439C92.0549 331.439 73.1255 331.254 70.4289 331.695C70.4125 331.695 70.3968 331.701 70.3853 331.713C70.3737 331.724 70.3672 331.74 70.3672 331.756C70.3672 331.773 70.3737 331.788 70.3853 331.8C70.3968 331.811 70.4125 331.818 70.4289 331.818C73.1255 332.259 92.0549 332.1 94.9366 332.065C100.823 332.012 99.1313 331.968 105.018 331.844C105.042 331.844 105.064 331.835 105.08 331.819C105.097 331.802 105.106 331.78 105.106 331.756C105.106 331.733 105.097 331.71 105.08 331.694C105.064 331.677 105.042 331.668 105.018 331.668Z" fill="#263238"/>
<path d="M76.1655 288.849C76.1185 283.373 76.0773 277.9 76.0421 272.431C76.0421 267.143 76.0421 261.856 75.7601 256.568C75.249 245.843 73.1163 235.304 71.5301 224.702C69.9438 214.101 68.6924 203.455 67.5204 192.801C66.2073 180.851 65.0528 168.875 63.8279 156.916C63.8279 156.837 63.6869 156.837 63.6957 156.916C65.4582 178.278 67.4587 199.63 70.4109 220.86C71.1511 226.147 71.956 231.417 72.8255 236.67C73.7068 241.957 74.588 247.315 75.0022 252.7C75.4164 258.084 75.4781 263.275 75.531 268.562C75.5956 274.038 75.6514 279.507 75.6984 284.971C75.813 297.115 75.9275 315.815 76.0509 327.959C76.06 328 76.0829 328.037 76.1158 328.063C76.1486 328.089 76.1895 328.104 76.2316 328.104C76.2737 328.104 76.3145 328.089 76.3474 328.063C76.3802 328.037 76.4031 328 76.4122 327.959C76.3417 317.066 76.2448 299.679 76.1655 288.849Z" fill="#263238"/>
<path d="M50.9727 152.588C50.9727 152.588 66.9674 243.022 68.2717 249.923C68.5801 251.5 68.7652 260.048 68.8886 271.029L86.919 152.588H50.9727Z" fill="#263238"/>
<path d="M84.7439 363.974C82.8316 364.441 29.4892 359.956 27.5681 358.502C26.8278 357.955 27.0305 350.147 27.5681 340.718C27.5681 340.621 27.5681 340.515 27.5681 340.418C27.6738 338.479 27.7884 336.479 27.9294 334.452L27.9823 333.571C28.8635 319.973 30.0885 305.882 30.0885 305.882L65.7705 308.825L62.7478 336.144L62.6332 337.228L62.0163 342.895L61.9547 343.476C61.9547 343.476 81.5978 354.324 83.5454 356.149C85.493 357.973 86.6562 363.507 84.7439 363.974Z" fill="#AD6359"/>
<path d="M84.7439 363.976C82.8316 364.443 29.4892 359.957 27.5681 358.503C26.8278 357.957 27.0305 350.149 27.5681 340.719C27.5681 340.622 27.5681 340.517 27.5681 340.42C27.6738 338.481 27.7884 336.48 27.9294 334.454L27.9823 333.572L62.7478 336.137L62.6332 337.221L62.0163 342.887L61.9547 343.469C61.9547 343.469 81.5978 354.317 83.5454 356.141C85.493 357.965 86.6562 363.508 84.7439 363.976Z" fill="#EBEBEB"/>
<path d="M84.7439 363.975C82.8316 364.442 29.4892 359.956 27.5681 358.502C26.8278 357.956 27.0305 350.148 27.5681 340.719C27.5681 340.622 27.5681 340.516 27.5681 340.419L62.0163 342.931L61.9547 343.512C61.9547 343.512 81.5978 354.36 83.5454 356.185C85.493 358.009 86.6562 363.508 84.7439 363.975Z" fill="#324C72"/>
<path d="M84.2729 361.85C75.3018 360.872 39.0205 357.788 30.0758 357.497C30.0053 357.497 29.9964 357.55 30.0758 357.559C38.9412 358.722 75.2489 361.516 84.2641 361.965C84.4844 362.009 84.5021 361.903 84.2729 361.85Z" fill="#263238"/>
<path d="M65.8199 343.344C62.2948 342.392 57.9679 342.569 55.0509 344.86C54.9364 344.948 55.0509 345.115 55.1831 345.089C58.6516 344.28 62.197 343.846 65.7582 343.794C65.8133 343.793 65.8665 343.773 65.908 343.737C65.9495 343.7 65.9764 343.65 65.9839 343.596C65.9914 343.541 65.979 343.485 65.9488 343.439C65.9187 343.393 65.8729 343.359 65.8199 343.344Z" fill="#263238"/>
<path d="M68.2545 345.098C64.7295 344.146 60.3937 344.323 57.4768 346.614C57.371 346.702 57.4768 346.869 57.6089 346.843C61.0775 346.034 64.6228 345.6 68.184 345.547C68.24 345.549 68.2947 345.531 68.3379 345.495C68.3811 345.46 68.4098 345.409 68.4184 345.354C68.4271 345.299 68.4152 345.242 68.385 345.195C68.3548 345.148 68.3084 345.113 68.2545 345.098Z" fill="#263238"/>
<path d="M70.6762 346.852C67.1512 345.9 62.8154 346.076 59.8984 348.368C59.7927 348.456 59.8984 348.623 60.0394 348.597C63.5078 347.787 67.0532 347.353 70.6145 347.301C70.6696 347.301 70.7229 347.281 70.7643 347.245C70.8058 347.208 70.8328 347.158 70.8403 347.103C70.8478 347.049 70.8353 346.993 70.8051 346.947C70.775 346.901 70.7292 346.867 70.6762 346.852Z" fill="#263238"/>
<path d="M71.0554 336.021C69.8305 333.985 67.1691 334.629 65.5828 335.748C62.8876 337.709 60.7593 340.348 59.4141 343.397C59.4141 343.468 59.4141 343.512 59.4846 343.529C59.4764 343.598 59.4846 343.668 59.5084 343.733C59.5322 343.798 59.571 343.856 59.6217 343.903C59.6723 343.951 59.7334 343.985 59.7999 344.004C59.8664 344.024 59.9365 344.027 60.0045 344.014C63.0096 343.177 66.3407 342.657 69.0021 340.921C70.6236 339.872 72.2363 337.942 71.0554 336.021ZM64.3491 341.811C62.8774 342.26 61.3969 342.63 59.9428 343.133C61.0919 341.602 62.3185 340.132 63.6176 338.726C64.2562 338.058 64.9393 337.434 65.6622 336.858C66.799 335.977 71.1348 334.294 70.183 338.127C69.6807 340.26 66.1204 341.282 64.3667 341.811H64.3491Z" fill="#263238"/>
<path d="M50.5579 341.713C53.3691 343.203 56.7267 343.423 59.8023 343.978C60.1196 344.04 60.3134 343.714 60.2782 343.449C60.2919 343.445 60.3044 343.437 60.3148 343.427C60.3251 343.417 60.3332 343.405 60.3382 343.392C60.3433 343.378 60.3453 343.364 60.344 343.349C60.3428 343.335 60.3384 343.321 60.3311 343.308C58.7264 340.401 56.3826 337.969 53.5366 336.258C51.8622 335.28 49.1303 334.884 48.1169 337.016C47.1034 339.149 48.9188 340.841 50.5579 341.713ZM49.1744 339.07C47.8789 335.342 52.3557 336.637 53.5806 337.395C54.3522 337.906 55.0883 338.468 55.7838 339.078C57.2073 340.352 58.5634 341.699 59.8464 343.115C58.3482 342.744 56.8413 342.506 55.3343 342.233C53.519 341.801 49.9058 341.114 49.1744 339.052V339.07Z" fill="#263238"/>
<path d="M63.5389 340.278L25.8477 338.683C25.8477 338.683 36.1407 255.968 36.3258 250.866C36.8193 237.647 45.5878 152.526 45.5878 152.526H91.6245C91.6245 152.526 88.7164 172.187 83.7549 184.648C80.4153 185.817 77.1909 187.292 74.1228 189.054C74.1228 189.054 69.8047 245.358 69.646 252.381C69.2935 266.288 63.5389 340.278 63.5389 340.278Z" fill="#37474F"/>
<path d="M62.5378 333.369C56.6686 332.999 58.3606 333.025 52.4738 332.717C49.601 332.567 30.6892 331.606 27.9838 331.932C27.9221 331.932 27.9221 332.038 27.9838 332.056C30.6275 332.611 49.5833 333.254 52.4562 333.342C58.343 333.536 56.6598 333.422 62.5466 333.545C62.57 333.544 62.5919 333.533 62.6076 333.516C62.6233 333.499 62.6315 333.476 62.6303 333.452C62.6291 333.429 62.6187 333.407 62.6014 333.391C62.584 333.376 62.5611 333.368 62.5378 333.369Z" fill="#263238"/>
<path d="M48.9611 157.603C47.2515 179.043 45.4978 200.493 43.5326 221.934C41.5674 243.375 39.2673 264.904 36.4826 286.31C34.9227 298.251 33.1602 315.092 31.3008 327.006C31.3008 327.086 31.4065 327.121 31.4242 327.006C35.2224 305.856 38.0159 279.559 40.3865 258.189C42.7571 236.819 44.7047 215.386 46.4407 193.954C47.4189 181.828 48.3002 169.693 49.2343 157.567C49.2431 157.453 49.0228 157.453 48.9611 157.603Z" fill="#263238"/>
<path d="M85.3953 183.82C81.491 185.25 77.7195 187.019 74.1241 189.108C74.0937 189.122 74.0701 189.147 74.0586 189.179C74.047 189.21 74.0484 189.245 74.0624 189.275C74.0764 189.305 74.1019 189.329 74.1333 189.341C74.1647 189.352 74.1994 189.351 74.2298 189.337C78.028 187.706 81.8968 186.147 85.598 184.305C85.6623 184.278 85.7133 184.227 85.7397 184.162C85.7661 184.098 85.7659 184.025 85.739 183.961C85.7121 183.897 85.6608 183.846 85.5964 183.819C85.5319 183.793 85.4596 183.793 85.3953 183.82Z" fill="#263238"/>
<path d="M86.6012 157.762C86.6012 157.629 86.3633 157.603 86.3633 157.762C86.3633 162.265 86.1077 166.23 85.7288 170.452C85.5525 172.408 83.9663 183.212 80.5823 182.428C80.0183 182.296 79.701 181.732 79.6393 180.877C79.6458 179.758 79.7968 178.644 80.0888 177.563C80.4589 175.299 80.7673 173.034 80.97 170.743C81.3638 166.487 81.3165 162.202 80.829 157.956C80.8222 157.932 80.8077 157.91 80.7879 157.896C80.768 157.881 80.7438 157.872 80.7189 157.872C80.694 157.872 80.6697 157.881 80.6499 157.896C80.63 157.91 80.6155 157.932 80.6087 157.956C80.709 163.848 80.3644 169.74 79.5776 175.581C79.1546 178.392 77.7358 182.631 80.6792 183.054C83.6226 183.477 85.6142 176.409 85.9667 174.47C86.902 168.952 87.1153 163.335 86.6012 157.762Z" fill="#263238"/>
<path d="M80.6699 182.7C80.3649 183.427 80.1116 184.175 79.912 184.938C79.6895 185.526 79.5818 186.151 79.5948 186.78C79.5948 186.903 79.7622 186.912 79.8239 186.833C80.1744 186.288 80.4417 185.694 80.6171 185.07C80.8726 184.374 81.1458 183.687 81.3837 182.982C81.4211 182.887 81.4194 182.781 81.3789 182.688C81.3384 182.595 81.2625 182.521 81.1678 182.484C81.0732 182.446 80.9675 182.448 80.8742 182.489C80.7808 182.529 80.7073 182.605 80.6699 182.7Z" fill="#263238"/>
<path d="M65.3188 161.295C65.3295 160.824 65.2822 160.353 65.1778 159.894C65.1711 159.881 65.161 159.87 65.1486 159.862C65.1361 159.855 65.1219 159.851 65.1073 159.851C65.0927 159.851 65.0785 159.855 65.066 159.862C65.0536 159.87 65.0435 159.881 65.0368 159.894C64.9437 160.293 64.8905 160.7 64.8782 161.11C64.8782 161.577 64.7724 161.991 64.7195 162.502C64.6216 163.455 64.4567 164.401 64.226 165.331C63.7971 167.087 62.902 168.695 61.6351 169.984C60.3718 171.227 58.874 172.206 57.2289 172.866C55.4081 173.51 53.5514 174.049 51.6682 174.478C51.6495 174.478 51.6315 174.486 51.6183 174.499C51.6051 174.512 51.5977 174.53 51.5977 174.549C51.5977 174.568 51.6051 174.585 51.6183 174.599C51.6315 174.612 51.6495 174.619 51.6682 174.619C53.7533 174.615 55.818 174.208 57.7488 173.421C59.4604 172.779 61.0184 171.785 62.3225 170.504C63.6244 169.18 64.5388 167.525 64.9663 165.719C65.1821 164.787 65.306 163.837 65.3364 162.881C65.3614 162.352 65.3555 161.823 65.3188 161.295Z" fill="#263238"/>
<path d="M110.378 75.126C113.216 78.5541 116.3 87.8161 116.186 90.3453C116.071 92.8745 100.482 98.6203 98.2784 97.2455C96.0753 95.8708 87.4038 83.6213 87.3245 79.0829C87.2451 74.5444 107.435 71.5834 110.378 75.126Z" fill="#AD6359"/>
<path d="M86.9206 68.8331C85.493 67.3438 80.8752 62.8935 78.8219 64.9027C77.5352 66.1541 80.6373 69.5822 81.9415 70.9393C84.6293 73.7241 86.7091 78.6503 87.6785 81.0561C88.6479 83.4619 93.1863 78.712 93.1863 78.712C93.1863 78.712 90.6483 72.7018 86.9206 68.8331Z" fill="#AD6359"/>
<path d="M90.7102 83.7448C90.7102 83.7448 92.3052 88.0277 94.9049 87.9308C97.5046 87.8338 96.8437 84.1502 96.8085 83.8858C96.8878 84.1149 98.4564 88.0101 101.065 87.6488C103.673 87.2874 102.563 83.6655 102.484 83.4364C102.625 83.6214 104.634 86.0801 106.546 85.3487C109.842 84.0973 104.898 77.6906 105.374 74.8794C105.374 74.8794 110.239 75.1526 110.38 75.1261C110.38 75.1261 105.797 68.9573 101.964 68.4991C101.406 68.4218 100.838 68.5391 100.357 68.8312C99.8754 69.1234 99.5092 69.5725 99.32 70.103C99.32 70.103 98.0598 67.9439 95.9977 68.1642C94.9402 68.2788 94.1823 70.0765 94.1823 70.0765C93.8731 69.602 93.4386 69.2224 92.9268 68.9797C92.415 68.7371 91.8461 68.6409 91.283 68.7018C89.8289 68.9397 89.1063 70.7551 89.027 71.4601C88.4101 76.8534 90.7102 83.7448 90.7102 83.7448Z" fill="#AD6359"/>
<path d="M89.1925 70.9668C89.1925 70.9668 89.1308 70.9668 89.122 70.9668C88.3274 75.3468 88.8837 79.8648 90.717 83.9212C90.7787 84.0446 91.0079 84.0006 90.9638 83.8507C89.7545 79.6641 89.1579 75.3244 89.1925 70.9668Z" fill="#263238"/>
<path d="M94.1711 70.0152C94.1711 69.9624 94.0917 69.9624 94.0829 70.0152C93.2613 74.8518 94.1992 79.8226 96.7267 84.0272C96.8236 84.177 97.0528 84.2123 96.9558 84.0272C95.3431 81.1014 94.0829 74.0955 94.1711 70.0152Z" fill="#263238"/>
<path d="M102.779 83.6646C100.364 79.5227 99.5093 75.0283 99.3066 70.2784C99.3066 70.2167 99.2185 70.2255 99.2009 70.2784C98.6721 72.6313 99.1216 75.6364 99.6679 77.9541C100.136 80.1101 101.16 82.1061 102.638 83.7439C102.682 83.8144 102.779 83.7528 102.779 83.6646Z" fill="#263238"/>
<path d="M90.707 83.7453C91.0905 84.5367 91.5447 85.2918 92.0642 86.0013C92.5412 86.712 93.198 87.2836 93.9677 87.6581C94.3336 87.7986 94.7386 87.7986 95.1045 87.6581C95.4788 87.5242 95.8125 87.2967 96.0739 86.9972C96.305 86.6762 96.4666 86.3106 96.5486 85.9237C96.6305 85.5368 96.6309 85.137 96.5497 84.75L96.2237 82.8464L97.1931 84.5208C97.6168 85.2694 98.1584 85.9449 98.7969 86.5213C99.0758 86.8043 99.4119 87.0247 99.7827 87.1675C100.153 87.3104 100.55 87.3725 100.947 87.3497C101.317 87.3273 101.667 87.1785 101.94 86.9281C102.213 86.6778 102.391 86.3412 102.445 85.9749C102.548 85.1511 102.442 84.3148 102.137 83.5426L101.353 81.3924L102.789 83.1549C103.189 83.647 103.647 84.088 104.155 84.468C104.626 84.8407 105.196 85.0674 105.794 85.1201C106.064 85.1324 106.332 85.0698 106.568 84.9391C106.805 84.8084 107 84.6149 107.134 84.3798C107.341 83.8162 107.387 83.2056 107.266 82.6173C107.013 81.3169 106.66 80.0381 106.208 78.7927C105.997 78.1582 105.785 77.5149 105.609 76.8627C105.393 76.2225 105.315 75.5437 105.38 74.8711C105.392 75.5371 105.529 76.1949 105.785 76.8099C106.014 77.4355 106.27 78.0524 106.526 78.6781C107.072 79.9246 107.5 81.2199 107.803 82.5468C107.985 83.2598 107.954 84.0101 107.715 84.7059C107.543 85.0708 107.268 85.3772 106.923 85.5871C106.578 85.797 106.18 85.9012 105.776 85.8868C105.032 85.8448 104.317 85.5808 103.723 85.1289C103.15 84.7182 102.631 84.2354 102.181 83.6925L102.833 83.3047C103.213 84.2084 103.35 85.1958 103.23 86.1688C103.149 86.7102 102.881 87.2062 102.472 87.57C102.064 87.9093 101.563 88.1181 101.035 88.1692C100.531 88.2003 100.027 88.1227 99.5554 87.9418C99.0841 87.7608 98.6572 87.4808 98.3034 87.1205C97.5947 86.4852 96.9988 85.7343 96.5409 84.8998L97.1842 84.6707C97.2667 85.1538 97.2432 85.6492 97.1154 86.1224C96.9876 86.5956 96.7585 87.0354 96.444 87.4114C96.1044 87.7655 95.6796 88.0264 95.2102 88.1692C94.7323 88.3167 94.2164 88.279 93.765 88.0635C92.9546 87.6203 92.2856 86.9575 91.835 86.1512C91.3692 85.3945 90.9908 84.5874 90.707 83.7453Z" fill="#263238"/>
<path d="M96.4351 95.4214C96.4351 95.4214 79.6296 86.8291 86.2125 81.9117C88.1601 80.4489 97.9332 76.774 98.7087 78.7216C99.7134 81.2332 95.9152 83.5333 93.3066 84.5908C93.3066 84.5908 99.4314 86.7146 99.2287 91.4117C99.1777 92.2725 98.8899 93.1026 98.3969 93.8102C97.9039 94.5177 97.225 95.0753 96.4351 95.4214Z" fill="#AD6359"/>
<path d="M85.6953 82.3523C86.3889 81.6853 87.1792 81.1267 88.0395 80.6956C88.8942 80.2401 89.7773 79.8397 90.6832 79.4971C92.4827 78.7903 94.3403 78.2418 96.2351 77.8579C96.739 77.7523 97.2558 77.7226 97.7685 77.7698C98.0787 77.7889 98.3803 77.8794 98.6498 78.0342C98.7897 78.1153 98.9149 78.2196 99.0199 78.3426C99.1237 78.4651 99.2043 78.6055 99.2578 78.7568C99.4605 79.2996 99.4605 79.8973 99.2578 80.44C99.0721 80.9351 98.7973 81.3921 98.4471 81.7883C97.7831 82.5397 96.9927 83.169 96.1117 83.6478C95.2643 84.1328 94.3803 84.5512 93.468 84.8992V84.2735C94.1584 84.5431 94.8222 84.8764 95.4508 85.2693C96.083 85.6504 96.6737 86.0964 97.2133 86.6C97.745 87.1176 98.1965 87.7116 98.5528 88.3625C98.9135 88.9964 99.1498 89.6933 99.249 90.4158C99.0624 89.7288 98.7648 89.0769 98.3678 88.4859C97.9624 87.9134 97.4822 87.3977 96.9401 86.9525C96.3959 86.4978 95.8051 86.1019 95.1776 85.7716C94.5678 85.4356 93.9275 85.1583 93.2653 84.9432L92.4457 84.6877L93.2389 84.3175C94.0982 83.9453 94.9314 83.5154 95.7328 83.0309C96.5246 82.574 97.2385 81.9939 97.8478 81.3125C98.1396 81.0302 98.3544 80.6779 98.4716 80.2892C98.5889 79.9005 98.6047 79.4883 98.5176 79.0917C98.3237 78.4748 97.275 78.5013 96.3849 78.6334C95.4949 78.7656 94.5519 79.0036 93.6266 79.2327C92.7013 79.4618 91.7936 79.7174 90.8859 80.0082C89.0447 80.5159 87.2936 81.3067 85.6953 82.3523Z" fill="#263238"/>
<path d="M77.0926 107.582C91.9506 125.921 113.55 137.801 118.882 133.932C124.213 130.063 106.245 109.812 105.936 109.512C104.887 108.508 96.9385 104.375 82.5035 98.2939C68.3417 92.3278 70.4567 99.3955 77.0926 107.582Z" fill="#AD6359"/>
<path d="M99.2564 105.459L88.0644 120.176C88.0644 120.176 78.6702 110.482 73.7 104.067C68.7297 97.6513 69.2232 92.6634 80.3446 96.8053C86.855 99.2155 93.1765 102.108 99.2564 105.459Z" fill="#324C72"/>
<path d="M86.9987 116.8C88.3646 114.791 89.7922 112.817 91.2551 110.887C91.9866 109.935 92.6916 108.966 93.4406 108.023C94.1897 107.08 95.0445 106.137 95.8112 105.168C95.8641 105.097 95.9698 105.168 95.917 105.238C95.212 106.208 94.5774 107.221 93.8724 108.191C93.1674 109.16 92.3919 110.165 91.6429 111.152C90.1682 113.09 88.6495 114.994 87.0868 116.862C87.0427 116.915 86.9193 116.862 86.9987 116.8Z" fill="#263238"/>
<path d="M93.4247 113.108L88.0667 120.158C88.0667 120.158 78.6725 110.464 73.7022 104.048L73.2263 103.423L73.0236 103.132L72.7152 102.682C72.4508 102.295 72.2129 101.916 72.0014 101.545C71.9221 101.413 71.8516 101.281 71.7811 101.149C71.4135 100.48 71.1181 99.774 70.8998 99.0427C70.8349 98.8171 70.7849 98.5875 70.75 98.3554C70.75 98.2408 70.75 98.135 70.75 98.0293C75.6322 101.413 87.0885 108.825 93.4247 113.108Z" fill="#263238"/>
<path d="M93.8721 161.621C93.8721 161.621 42.8739 162.502 42.5743 162.185C41.7811 161.304 52.083 108.79 62.7374 97.9681C66.5003 94.1434 74.2642 95.7032 75.5597 96.3289C78.5471 97.7742 81.3583 100.894 83.7113 106.675C88.4172 118.237 94.5154 160.793 93.8721 161.621Z" fill="#324C72"/>
<path opacity="0.1" d="M78.1066 98.0565H62.6582L62.7375 97.9684C63.097 97.6048 63.4961 97.2826 63.9272 97.0078H76.7495C77.2295 97.3201 77.6834 97.6708 78.1066 98.0565ZM79.8074 99.819H61.2042C60.9574 100.145 60.7195 100.498 60.4815 100.868H80.6182C80.3627 100.498 80.0983 100.172 79.8691 99.819H79.8074ZM81.7286 102.63H59.4152C59.2213 102.974 59.0275 103.326 58.8424 103.688H82.3278C82.1428 103.326 81.9489 102.965 81.7462 102.63H81.7286ZM83.165 105.45H57.9523L57.45 106.499H83.6321C83.4911 106.138 83.3413 105.785 83.1827 105.459L83.165 105.45ZM84.2842 108.261H56.6745L56.2251 109.31H84.6455C84.531 108.984 84.4164 108.596 84.2754 108.261H84.2842ZM85.1655 111.073H55.5113C55.3791 111.425 55.2381 111.769 55.0971 112.13H85.4739L85.1655 111.073ZM85.9234 113.884H54.4449C54.3216 114.236 54.1894 114.58 54.066 114.941H86.2054C86.0937 114.583 86.0056 114.23 85.941 113.884H85.9234ZM86.6107 116.704H53.4315C53.3081 117.048 53.1936 117.4 53.079 117.753H86.8487L86.6107 116.704ZM87.2452 119.515H52.5502C52.4357 119.859 52.3299 120.211 52.2154 120.564H87.5361C87.4127 120.211 87.3422 119.859 87.2629 119.559L87.2452 119.515ZM87.8445 122.326H51.669C51.5544 122.67 51.4487 123.022 51.3429 123.384H88.1265C88.0119 123.031 87.9414 122.679 87.8621 122.326H87.8445ZM88.4173 125.137H50.7877C50.682 125.49 50.5762 125.842 50.4793 126.195H88.6817L88.4173 125.137ZM88.9637 127.957H49.9594C49.8536 128.31 49.7567 128.654 49.6597 129.006H89.1752C89.1135 128.654 89.0518 128.301 88.9813 127.957H88.9637ZM89.4836 130.769H49.175C49.0781 131.121 48.9812 131.474 48.893 131.817H89.6951C89.6334 131.465 89.5629 131.121 89.5013 130.769H89.4836ZM89.986 133.58H48.426C48.329 133.932 48.2409 134.285 48.1528 134.637H90.1886C90.1358 134.285 90.0741 133.932 90.0036 133.58H89.986ZM90.4883 136.4H47.6945C47.6152 136.752 47.5271 137.096 47.439 137.449H90.6733C90.6205 137.105 90.5588 136.752 90.5059 136.4H90.4883ZM90.9465 139.211H46.9983C46.919 139.564 46.8309 139.916 46.7516 140.26H91.1404C91.0875 139.916 91.0258 139.564 90.9641 139.211H90.9465ZM91.4048 142.022H46.3286C46.2493 142.384 46.17 142.736 46.0818 143.08H91.5898C91.537 142.727 91.4841 142.384 91.4224 142.022H91.4048ZM91.8542 144.834H45.6853C45.606 145.186 45.5266 145.547 45.4473 145.891H92.0216C91.9688 145.547 91.9159 145.195 91.8718 144.834H91.8542ZM92.2684 147.654H45.0596C44.9891 148.006 44.9098 148.359 44.8393 148.702H92.427L92.2684 147.654ZM92.6738 150.465H44.4603C44.3898 150.826 44.3193 151.17 44.2488 151.513H92.8412C92.7883 151.17 92.7443 150.817 92.6914 150.465H92.6738ZM93.0615 153.276H43.9051C43.8229 153.64 43.7524 153.993 43.6936 154.333H93.2202C93.1761 153.99 93.088 153.637 93.088 153.276H93.0615ZM93.414 156.087H43.3676C43.2971 156.457 43.2354 156.81 43.1737 157.145H93.5638C93.5286 156.81 93.4845 156.457 93.4317 156.087H93.414ZM93.7401 158.907H42.8564C42.7948 159.286 42.7507 159.639 42.6978 159.956H93.8106C93.8282 159.647 93.793 159.295 93.7577 158.907H93.7401ZM42.5216 161.718C42.4824 161.872 42.4824 162.032 42.5216 162.185C42.7595 162.423 74.3877 161.939 87.8621 161.718H42.5216Z" fill="#030402"/>
<path d="M65.6468 104.33C62.2099 109.045 44.5848 128.529 43.9326 130.336C43.2805 132.142 47.3607 136.134 47.2902 136.883C47.0259 139.933 40.4429 160.219 37.8079 158.157C34.3358 155.443 19.6364 136.002 21.7162 127.586C23.796 119.17 58.1209 98.9631 63.567 97.2094C69.0132 95.4557 69.0396 99.6769 65.6468 104.33Z" fill="#AD6359"/>
<path d="M51.8001 122.07L41.7891 108.014C41.7891 108.014 52.9898 100.664 60.4805 97.5269C67.9711 94.3896 71.6636 96.1345 64.8163 105.82C60.8136 111.497 56.4667 116.924 51.8001 122.07Z" fill="#324C72"/>
<path d="M44.7481 107.098C46.3343 108.937 47.8765 110.817 49.3746 112.738C50.1149 113.681 50.864 114.615 51.5778 115.575C52.2916 116.536 52.9966 117.611 53.7457 118.598C53.7985 118.669 53.6928 118.757 53.6399 118.686C52.882 117.805 52.0713 116.924 51.3134 115.954C50.5555 114.985 49.78 114.016 49.0221 113.046C47.524 111.125 46.0699 109.16 44.6687 107.168C44.6159 107.115 44.704 107.045 44.7481 107.098Z" fill="#263238"/>
<path d="M51.7848 122.141C53.3182 120.105 55.1248 118.29 56.7816 116.36C58.4383 114.43 60.0863 112.438 61.6637 110.429C61.6637 110.429 61.7783 110.429 61.743 110.482C61.0116 111.53 60.2978 112.588 59.5311 113.61C59.1521 114.112 58.7556 114.606 58.3502 115.099L58.9406 114.615C59.5447 114.161 60.1712 113.737 60.8177 113.346C60.8177 113.346 60.8882 113.346 60.8177 113.399C60.2569 113.917 59.6685 114.406 59.0552 114.861C58.6146 115.196 58.1739 115.505 57.7069 115.813L57.0019 116.694C55.4637 118.68 53.7501 120.523 51.8818 122.202C51.8289 122.282 51.732 122.202 51.7848 122.141Z" fill="#263238"/>
<path d="M46.427 165.86C48.78 164.265 45.5458 162.396 45.5458 162.396C45.5458 162.396 50.8333 163.965 52.5958 161.383C54.3583 158.801 50.3398 156.774 50.0578 156.615C50.3398 156.703 55.2396 158.008 56.773 155.232C58.3063 152.456 54.0058 150.905 53.7238 150.825C54.0146 150.825 57.8305 150.658 58.5178 148.279C59.6899 144.198 48.7271 143.723 46.3653 141.229C46.3653 141.229 47.4228 135.835 47.511 135.686C46.8019 136.896 45.7015 137.828 44.3913 138.329C42.0207 138.999 39.8881 139.387 38.9275 140.524C38.4794 141.021 38.2031 141.649 38.1397 142.316C38.0762 142.983 38.2288 143.652 38.575 144.225C38.575 144.225 35.5788 143.881 34.301 146.031C33.6488 147.133 34.8385 149.169 34.8385 149.169C34.1605 149.12 33.4822 149.259 32.8776 149.57C32.2731 149.881 31.7655 150.352 31.4104 150.931C30.5909 152.518 31.9128 154.306 31.9128 154.306C31.9128 154.306 29.5157 155.188 29.2073 157.091C28.6169 160.907 41.3862 169.261 46.427 165.86Z" fill="#AD6359"/>
<path d="M32.1241 154.633C32.1241 154.633 32.0272 154.633 32.0624 154.694C35.7153 158.63 40.4797 161.359 45.7219 162.52C45.8893 162.52 46.0127 162.291 45.8364 162.22C40.9222 160.369 36.3031 157.813 32.1241 154.633Z" fill="#263238"/>
<path d="M34.8026 149.134C34.7968 149.13 34.7902 149.126 34.7831 149.124C34.776 149.122 34.7685 149.122 34.7611 149.122C34.7538 149.123 34.7466 149.125 34.7401 149.129C34.7337 149.133 34.7279 149.137 34.7233 149.143C34.7187 149.149 34.7152 149.156 34.7132 149.163C34.7111 149.17 34.7105 149.177 34.7113 149.185C34.7121 149.192 34.7144 149.199 34.7179 149.206C34.7215 149.212 34.7263 149.218 34.7321 149.223C38.8044 153.516 44.277 156.214 50.1629 156.828C50.3656 156.828 50.5683 156.652 50.3303 156.616C46.3823 156.017 38.6801 152.166 34.8026 149.134Z" fill="#263238"/>
<path d="M54.1982 150.694C48.4524 150.041 43.4909 147.609 38.7586 144.384C38.6969 144.384 38.644 144.428 38.6793 144.481C40.5652 146.693 43.7994 148.438 46.4343 149.583C48.854 150.691 51.5221 151.144 54.1717 150.896C54.3127 150.887 54.3127 150.711 54.1982 150.694Z" fill="#263238"/>
<path d="M31.7981 154.307C31.3195 153.825 30.9837 153.22 30.8282 152.559C30.6726 151.898 30.7033 151.207 30.9169 150.562C31.1929 149.955 31.6776 149.467 32.2828 149.187C33.0042 148.938 33.7756 148.868 34.53 148.984C34.1094 148.392 33.8783 147.685 33.8673 146.958C33.8563 146.231 34.0658 145.518 34.4683 144.913C34.9196 144.395 35.5484 144.065 36.2308 143.988C37.0097 143.912 37.7952 143.942 38.5662 144.076C38.245 143.698 38.0165 143.25 37.8987 142.768C37.7809 142.286 37.7771 141.783 37.8876 141.3C38.0335 140.775 38.3009 140.291 38.6684 139.888C39.0358 139.486 39.4929 139.175 40.0026 138.982C41.2017 138.548 42.4465 138.252 43.7127 138.101C44.3627 138.003 44.9987 137.829 45.6074 137.581C46.2633 137.281 46.8132 136.789 47.1848 136.171C47.2553 136.065 47.2553 136.171 47.1848 136.268C46.9381 136.688 46.6223 137.063 46.2507 137.378C45.8649 137.714 45.435 137.996 44.9729 138.215C43.8258 138.648 42.6474 138.993 41.4479 139.247C40.3964 139.527 39.467 140.146 38.8041 141.009C38.5012 141.466 38.3309 141.997 38.3122 142.545C38.2935 143.093 38.4272 143.635 38.6984 144.111C38.6984 144.111 38.6984 144.226 38.619 144.217C37.9154 144.214 37.214 144.297 36.5305 144.464C35.9635 144.599 35.4524 144.907 35.0676 145.345C34.711 145.903 34.5071 146.545 34.4762 147.207C34.4453 147.869 34.5884 148.527 34.8913 149.117C34.1313 149.168 33.3874 149.359 32.697 149.681C32.2488 149.956 31.8882 150.354 31.6571 150.826C31.3932 151.371 31.2855 151.978 31.3462 152.58C31.4069 153.182 31.6335 153.756 32.0008 154.237C32.0042 154.251 32.0042 154.266 32.0008 154.281C32.0008 154.281 31.2341 154.598 31.1989 154.598C31.3925 154.489 31.5926 154.392 31.7981 154.307Z" fill="#263238"/>
<path d="M75.5428 104.146C72.7404 105.177 67.259 101.361 64.8708 98.0298C64.7121 97.8007 64.5535 87.8866 64.3244 85.9302C64.2715 85.5248 76.988 87.446 76.988 87.446C76.5815 89.9805 76.4868 92.5553 76.706 95.1129C76.7413 95.3949 78.2482 103.159 75.5428 104.146Z" fill="#AD6359"/>
<path d="M76.988 87.4459C76.988 87.4459 76.847 88.2654 76.7325 89.4816C73.2074 93.8085 67.5498 94.2668 64.6769 94.1698C64.5799 91.0943 64.4654 87.1198 64.3244 85.9301C64.2715 85.5335 76.988 87.4459 76.988 87.4459Z" fill="#263238"/>
<path d="M64.3796 64.8066C64.3796 64.8066 60.3259 66.3753 59.4975 70.429C58.6691 74.4828 59.4975 78.7833 59.8324 79.0037C60.1672 79.224 64.3796 64.8066 64.3796 64.8066Z" fill="#263238"/>
<path d="M80.7464 70.0418C81.7863 74.5098 78.6314 87.0148 75.3179 89.6233C70.5238 93.4127 63.086 93.307 59.9664 87.6405C56.9525 82.1503 61.3588 65.9352 65.016 63.5999C70.3916 60.1718 79.1866 63.4324 80.7464 70.0418Z" fill="#AD6359"/>
<path d="M68.1729 77.0645C68.1729 77.0645 68.2345 77.1173 68.2257 77.1526C68.0495 78.0338 67.9878 79.0297 68.7281 79.4527C68.7281 79.4527 68.7281 79.5055 68.7281 79.4967C67.7763 79.1971 67.8644 77.8488 68.1729 77.0645Z" fill="#263238"/>
<path d="M69.0994 76.2895C70.5183 76.4217 70.1393 79.2417 68.8351 79.1184C67.5308 78.995 67.9186 76.175 69.0994 76.2895Z" fill="#263238"/>
<path d="M63.2562 76.1924C63.2562 76.1924 63.1857 76.1924 63.1769 76.2629C63.0976 77.1441 62.8596 78.1223 62.0312 78.3162V78.3691C63.0183 78.3515 63.3179 77.0296 63.2562 76.1924Z" fill="#263238"/>
<path d="M62.5958 75.1791C61.2035 74.8971 60.7364 77.6995 62.0318 77.9639C63.3273 78.2282 63.7591 75.417 62.5958 75.1791Z" fill="#263238"/>
<path d="M67.9792 84.3525C67.75 84.5376 67.5121 84.8019 67.1949 84.8019C66.8688 84.7681 66.5535 84.666 66.2695 84.5023C66.3776 84.6864 66.5342 84.8373 66.7223 84.9383C66.9104 85.0394 67.1227 85.0867 67.3358 85.0751C67.5216 85.0521 67.6952 84.9704 67.8315 84.8421C67.9677 84.7138 68.0596 84.5454 68.0937 84.3613C68.0937 84.3613 68.0144 84.3084 67.9792 84.3525Z" fill="#263238"/>
<path d="M63.9015 80.3335C63.9015 80.3335 63.5314 81.6025 63.4433 82.2193C64.6414 82.3945 65.8078 82.7418 66.9066 83.2504C67.1622 83.3738 67.1974 83.1535 66.9066 82.9243C66.0867 82.2583 65.0861 81.8532 64.0337 81.7611C64.0337 81.5848 64.6418 79.8135 64.5449 79.7871C64.0689 79.7597 63.5914 79.7983 63.126 79.9016C63.8134 77.2579 64.8886 74.6846 65.5759 71.9704C65.5759 71.8734 65.4614 71.8205 65.4173 71.8998C64.1457 74.5913 63.1421 77.4014 62.421 80.2894C62.3065 80.6772 63.6372 80.404 63.9015 80.3335Z" fill="#263238"/>
<path d="M70.1753 75.3286C69.8404 75.1171 69.576 74.8615 69.294 74.6236C69.012 74.3857 68.6419 74.1653 68.5097 73.7423C68.4814 73.615 68.4975 73.4819 68.5552 73.3649C68.6129 73.2479 68.7087 73.1541 68.827 73.099C69.0749 73.0179 69.3401 73.0054 69.5945 73.0628C69.849 73.1202 70.0832 73.2454 70.2722 73.4251C70.7173 73.7239 71.0323 74.1807 71.1535 74.7029C71.1767 74.8256 71.1627 74.9525 71.1132 75.0672C71.0637 75.1818 70.981 75.2791 70.8758 75.3464C70.7706 75.4137 70.6477 75.4479 70.5228 75.4448C70.398 75.4416 70.2769 75.4011 70.1753 75.3286Z" fill="#263238"/>
<path d="M61.9793 72.0767C62.367 72.015 62.7195 71.9093 63.0985 71.8123C63.5066 71.7774 63.8914 71.6068 64.1912 71.3276C64.2698 71.2236 64.3124 71.0967 64.3124 70.9663C64.3124 70.8359 64.2698 70.709 64.1912 70.605C63.998 70.4292 63.7615 70.3079 63.506 70.2537C63.2504 70.1995 62.9851 70.2143 62.7371 70.2966C62.2075 70.3852 61.73 70.6679 61.3976 71.0897C61.3306 71.1891 61.293 71.3054 61.2894 71.4252C61.2857 71.5451 61.3161 71.6635 61.3769 71.7668C61.4378 71.8701 61.5267 71.954 61.6333 72.0088C61.7399 72.0637 61.8598 72.0872 61.9793 72.0767Z" fill="#263238"/>
<path d="M78.6707 80.722C76.0798 80.4664 77.4898 69.0365 77.4898 69.0365C75.8905 69.5813 74.2174 69.8785 72.5283 69.9178C70.8218 69.8578 69.1277 69.6035 67.4787 69.1599C67.1262 69.0277 71.8057 67.7058 71.8057 67.7058C71.8057 67.7058 60.2965 68.7105 59.9087 66.5426C59.7677 65.7935 61.9092 58.9726 71.462 59.4044C78.512 59.7217 81.7991 67.089 81.7991 67.089C81.7991 67.089 85.2272 70.9048 84.6368 72.6321C83.6321 75.6636 81.4202 80.9952 78.6707 80.722Z" fill="#263238"/>
<path d="M77.1014 80.7836C77.1014 80.7836 80.318 76.9413 82.0893 78.1398C83.8606 79.3384 81.208 85.0577 78.9344 85.6834C78.6511 85.7818 78.3509 85.8221 78.0517 85.8019C77.7525 85.7816 77.4605 85.7012 77.1931 85.5654C76.9257 85.4297 76.6885 85.2414 76.4956 85.0118C76.3026 84.7822 76.158 84.5161 76.0703 84.2293L77.1014 80.7836Z" fill="#AD6359"/>
<path d="M120.024 133.271C127.18 127.746 120.342 99.6955 116.182 89.3672C114.957 86.3269 95.5255 92.011 96.4332 95.4214C101.624 114.712 112.19 139.326 120.024 133.271Z" fill="#AD6359"/>
<path d="M99.6523 106.005L101.794 111.292C102.525 113.055 103.239 114.817 104.032 116.58C104.825 118.342 105.592 120.043 106.403 121.762C107.214 123.48 108.112 125.163 108.994 126.855C107.879 125.303 106.863 123.681 105.953 122C105.072 120.316 104.191 118.589 103.424 116.844C102.657 115.099 101.952 113.319 101.318 111.504C100.683 109.689 100.137 107.864 99.6523 106.005Z" fill="#263238"/>
<path d="M98.3737 50.2474C98.4587 51.2385 98.248 52.2326 97.7683 53.104C97.2886 53.9755 96.5614 54.6852 95.6785 55.1435C94.7957 55.6018 93.7968 55.7882 92.808 55.6791C91.8193 55.5699 90.8851 55.1702 90.1234 54.5303C89.3618 53.8905 88.8068 53.0393 88.5288 52.0842C88.2507 51.1291 88.2619 50.113 88.561 49.1643C88.8601 48.2156 89.4337 47.3769 90.2093 46.754C90.985 46.1312 91.9278 45.7522 92.9187 45.6649C93.5779 45.6069 94.2421 45.6794 94.8732 45.8784C95.5044 46.0774 96.0901 46.3989 96.5968 46.8246C97.1035 47.2503 97.5212 47.7717 97.8261 48.359C98.131 48.9464 98.3171 49.5881 98.3737 50.2474Z" fill="white"/>
<path d="M98.3732 50.2483C98.4824 51.5976 98.0698 52.9374 97.2205 53.9916C96.3713 55.0459 95.15 55.7342 93.8084 55.9148C93.0778 56.0614 92.3244 56.0519 91.5978 55.887C90.8711 55.7221 90.1875 55.4054 89.5917 54.9578C88.996 54.5102 88.5016 53.9417 88.141 53.2896C87.7804 52.6376 87.5616 51.9166 87.4991 51.1741C87.4366 50.4316 87.5318 49.6842 87.7783 48.9811C88.0249 48.2779 88.4173 47.6347 88.9298 47.0938C89.4423 46.5529 90.0634 46.1265 90.7523 45.8424C91.4411 45.5583 92.1823 45.4231 92.9271 45.4455C94.2765 45.3994 95.5923 45.8712 96.605 46.7642C97.6176 47.6572 98.2503 48.9038 98.3732 50.2483ZM98.3732 50.2483C98.3169 49.6 98.1299 48.9699 97.8235 48.3958C97.5171 47.8218 97.0976 47.3157 96.5904 46.9081C96.0831 46.5005 95.4986 46.1998 94.8721 46.0242C94.2455 45.8486 93.5899 45.8016 92.9447 45.8861C91.7112 46.0446 90.5866 46.6737 89.8061 47.642C89.0256 48.6103 88.6495 49.8427 88.7565 51.0818C88.8634 52.3209 89.4451 53.4707 90.38 54.2909C91.3149 55.1111 92.5306 55.5382 93.7731 55.483C94.4238 55.4557 95.0622 55.2968 95.6498 55.0159C96.2374 54.735 96.762 54.338 97.1919 53.8488C97.6219 53.3596 97.9482 52.7883 98.1512 52.1695C98.3542 51.5507 98.4298 50.8971 98.3732 50.2483Z" fill="#263238"/>
<path d="M87.4268 59.5275C87.4736 60.0797 87.3556 60.6333 87.0878 61.1185C86.82 61.6036 86.4143 61.9984 85.9221 62.2531C85.4299 62.5077 84.8733 62.6107 84.3226 62.5491C83.7719 62.4874 83.2518 62.2638 82.8282 61.9067C82.4045 61.5495 82.0962 61.0747 81.9423 60.5424C81.7884 60.01 81.7958 59.444 81.9635 58.9159C82.1312 58.3877 82.4518 57.9211 82.8846 57.5751C83.3175 57.2291 83.8432 57.0192 84.3953 56.9719C84.7624 56.9393 85.1324 56.9796 85.4838 57.0906C85.8353 57.2016 86.1613 57.3811 86.4431 57.6186C86.7249 57.8562 86.9568 58.1472 87.1257 58.4748C87.2945 58.8024 87.3969 59.1602 87.4268 59.5275Z" fill="white"/>
<path d="M87.4299 59.5279C87.4794 60.1327 87.3457 60.7384 87.0462 61.2661C86.7468 61.7939 86.2954 62.2193 85.7509 62.487C85.2064 62.7548 84.5939 62.8524 83.9931 62.7673C83.3923 62.6821 82.831 62.4181 82.3823 62.0096C81.9336 61.6011 81.6183 61.067 81.4773 60.4769C81.3363 59.8867 81.3762 59.2677 81.5917 58.7005C81.8073 58.1333 82.1887 57.6441 82.6861 57.2966C83.1835 56.9491 83.774 56.7593 84.3807 56.752C85.1442 56.7489 85.8811 57.0324 86.4457 57.5464C87.0103 58.0604 87.3615 58.7675 87.4299 59.5279ZM87.4299 59.5279C87.4008 59.1704 87.2976 58.8228 87.1268 58.5074C86.956 58.1919 86.7213 57.9155 86.4378 57.6958C86.1542 57.4761 85.828 57.3179 85.4799 57.2312C85.1318 57.1446 84.7695 57.1314 84.416 57.1926C83.9198 57.2766 83.4587 57.5033 83.0892 57.845C82.7197 58.1867 82.4577 58.6286 82.3353 59.1167C82.2128 59.6049 82.2352 60.1182 82.3996 60.5938C82.5641 61.0695 82.8635 61.4869 83.2614 61.7952C83.6592 62.1035 84.1382 62.2892 84.6398 62.3297C85.1415 62.3702 85.6441 62.2637 86.0862 62.0232C86.5283 61.7827 86.8908 61.4187 87.1295 60.9756C87.3681 60.5324 87.4725 60.0294 87.4299 59.5279Z" fill="#263238"/>
<path d="M135.968 26.8419C136.436 30.7106 135.349 34.6069 132.947 37.6752C130.544 40.7435 127.022 42.733 123.154 43.2068C120.609 43.5237 118.024 43.1619 115.664 42.1581C114.512 43.6654 113.029 44.8869 111.328 45.7277C109.628 46.5685 107.757 47.0058 105.86 47.0058C103.963 47.0058 102.092 46.5685 100.391 45.7277C98.6908 44.8869 97.2073 43.6654 96.0557 42.1581C95.5139 42.3182 94.9598 42.4332 94.399 42.5018C92.4801 42.7361 90.5344 42.4088 88.7978 41.5596C87.0611 40.7103 85.6081 39.3756 84.6147 37.7172C83.6214 36.0588 83.1303 34.1479 83.2011 32.216C83.2719 30.2842 83.9015 28.4143 85.0136 26.8331C82.848 24.0779 81.7381 20.6396 81.8838 17.1382C82.0296 13.6368 83.4215 10.3027 85.8086 7.73699C88.1956 5.17129 91.4208 3.54281 94.9026 3.14519C98.3844 2.74757 101.894 3.60696 104.798 5.56841C106.16 3.87473 107.945 2.57094 109.973 1.789C112.001 1.00705 114.2 0.774709 116.346 1.11548C118.493 1.45625 120.511 2.35804 122.197 3.72958C123.883 5.10112 125.177 6.89373 125.948 8.92599C126.463 8.75282 126.994 8.63467 127.534 8.57349C129.164 8.37819 130.814 8.6842 132.265 9.45073C133.716 10.2173 134.899 11.4079 135.657 12.8639C136.414 14.32 136.709 15.9722 136.503 17.6004C136.298 19.2287 135.6 20.7555 134.505 21.9774C135.275 23.5 135.771 25.1469 135.968 26.8419Z" fill="white"/>
<path d="M135.97 26.842C136.429 30.7094 135.356 34.6027 132.983 37.6903C132.187 38.696 131.27 39.5989 130.251 40.3781C128.188 41.9393 125.754 42.9359 123.189 43.2697C120.624 43.6035 118.016 43.2629 115.622 42.2816H115.763C114.605 43.8177 113.108 45.0656 111.388 45.9277C109.668 46.7899 107.773 47.243 105.849 47.2519C103.916 47.2587 102.008 46.8215 100.271 45.974C98.5344 45.1118 97.0137 43.8711 95.8203 42.3433L96.1376 42.449C94.0872 43.0682 91.8953 43.0374 89.8631 42.3609C87.8215 41.6871 86.0429 40.3894 84.7782 38.6508C84.1592 37.7768 83.6695 36.8182 83.3241 35.8044C82.9939 34.7847 82.8186 33.7212 82.8042 32.6495C82.785 30.4894 83.4379 28.3767 84.6725 26.6041V27.0976C82.4184 24.2755 81.2688 20.7295 81.4383 17.1218C81.5339 14.4344 82.351 11.8222 83.804 9.5595C85.257 7.29676 87.2923 5.46681 89.6962 4.26169C92.1001 3.05657 94.7841 2.52071 97.4665 2.71033C100.149 2.89995 102.731 3.80806 104.941 5.33938L104.554 5.39226C105.953 3.66954 107.784 2.34792 109.859 1.56163C111.935 0.775349 114.182 0.552415 116.371 0.91548C118.548 1.27659 120.59 2.20585 122.292 3.60933C123.994 5.01282 125.296 6.84078 126.065 8.90846L125.95 8.84678C127.673 8.28674 129.531 8.31152 131.238 8.91728C132.493 9.36598 133.617 10.1173 134.512 11.1047C135.407 12.092 136.044 13.2849 136.367 14.5775C136.691 15.8702 136.69 17.2226 136.366 18.515C136.041 19.8073 135.403 20.9997 134.507 21.9863C135.279 23.5055 135.774 25.1496 135.97 26.842ZM135.97 26.842C135.762 25.1475 135.255 23.5034 134.472 21.9863C135.67 20.6716 136.395 18.9954 136.534 17.2224C136.673 15.4494 136.217 13.6806 135.239 12.1955C134.271 10.7145 132.839 9.59675 131.168 9.01775C129.496 8.43875 127.68 8.43131 126.003 8.99659H125.915V8.90846C125.133 6.90769 123.842 5.14582 122.17 3.79718C120.497 2.4509 118.495 1.57482 116.371 1.25917C114.257 0.9434 112.097 1.18646 110.105 1.96418C108.126 2.74993 106.39 4.0451 105.074 5.71832L104.906 5.92982L104.677 5.7712C101.84 3.88064 98.4234 3.06123 95.0379 3.4596C91.6523 3.85797 88.519 5.44812 86.1986 7.94548C83.8783 10.4428 82.5224 13.6844 82.3735 17.0901C82.2247 20.4958 83.2926 23.8433 85.3863 26.5336L85.5802 26.7803L85.3951 27.0359C84.2438 28.6611 83.6277 30.6049 83.6326 32.5966C83.6466 33.5864 83.8039 34.5689 84.0997 35.5135C84.4087 36.4563 84.8572 37.3475 85.4303 38.1573C86.5966 39.7883 88.2398 41.0175 90.1338 41.6757C92.0277 42.3338 94.0791 42.3885 96.0054 41.8322L96.2081 41.7793L96.3227 41.9379C97.4441 43.4145 98.8839 44.6194 100.535 45.4629C103.049 46.7365 105.928 47.0953 108.678 46.4778C111.427 45.8603 113.876 44.3051 115.605 42.0789L115.666 41.9996H115.754C118.103 43.0154 120.678 43.3924 123.219 43.0923C125.775 42.7782 128.204 41.8032 130.269 40.2635C131.285 39.4991 132.203 38.611 133 37.6197C133.783 36.6057 134.437 35.4986 134.948 34.3239C135.926 31.9592 136.278 29.3824 135.97 26.842Z" fill="#263238"/>
<path d="M110.843 27.3001C110.825 26.2276 111.016 25.1618 111.407 24.1629C111.898 23.1145 112.727 22.2612 113.76 21.7394C114.121 21.5191 114.553 21.2812 115.082 21.008C115.617 20.7261 116.127 20.3989 116.607 20.0298C117.099 19.655 117.528 19.2026 117.876 18.6903C118.223 18.169 118.405 17.5544 118.396 16.9278C118.405 16.4703 118.305 16.0173 118.105 15.6059C117.924 15.2375 117.669 14.9105 117.356 14.6453C117.037 14.38 116.669 14.1822 116.272 14.0637C115.865 13.9314 115.44 13.8631 115.012 13.861C114.522 13.8519 114.036 13.9449 113.584 14.1342C113.171 14.3043 112.782 14.5296 112.429 14.804C112.1 15.0795 111.804 15.3931 111.548 15.7381C111.295 16.0489 111.063 16.3756 110.852 16.7163L107.75 14.5748C108.051 13.8592 108.468 13.1982 108.984 12.6184C109.48 12.0468 110.063 11.5562 110.711 11.1644C111.372 10.7747 112.084 10.4781 112.826 10.2831C113.594 10.0807 114.385 9.97992 115.179 9.98349C116.074 9.98813 116.964 10.1187 117.823 10.3712C118.687 10.6292 119.493 11.0544 120.193 11.6226C120.915 12.2185 121.498 12.9642 121.903 13.8081C122.359 14.8083 122.582 15.8992 122.555 16.9983C122.566 17.6774 122.477 18.3543 122.291 19.0075C122.122 19.574 121.863 20.1095 121.524 20.5938C121.19 21.0714 120.796 21.5039 120.352 21.8804C119.869 22.2851 119.356 22.6533 118.819 22.982L117.391 23.8016C116.934 24.056 116.5 24.3509 116.095 24.6828C115.705 24.9873 115.373 25.3607 115.117 25.7844C114.852 26.2444 114.721 26.7694 114.738 27.3001H110.843ZM110.914 35.6016V30.6842H114.862V35.6016H110.914Z" fill="#324C72"/>
<path d="M102.02 18.1007C102.264 19.1443 102.294 20.2265 102.108 21.282C101.857 22.4042 101.236 23.4096 100.345 24.1373C100.037 24.4193 99.658 24.7454 99.1998 25.1243C98.7336 25.5108 98.3003 25.9352 97.9043 26.3933C97.5006 26.8602 97.1761 27.3901 96.9438 27.962C96.711 28.5443 96.6618 29.1839 96.8028 29.795C96.8827 30.2416 97.0702 30.662 97.3491 31.0199C97.602 31.3463 97.9201 31.6165 98.2833 31.813C98.6491 32.009 99.0508 32.1289 99.4641 32.1655C99.8912 32.2044 100.322 32.1806 100.742 32.095C101.222 32.0031 101.677 31.8142 102.081 31.5399C102.45 31.2905 102.785 30.9942 103.077 30.6586C103.359 30.322 103.599 29.952 103.791 29.557C103.971 29.1995 104.13 28.8317 104.267 28.4555L107.739 29.9183C107.597 30.6813 107.326 31.4145 106.937 32.0862C106.56 32.7425 106.085 33.337 105.527 33.8487C104.961 34.3681 104.327 34.807 103.641 35.153C102.933 35.5092 102.18 35.77 101.403 35.9285C100.517 36.1168 99.6085 36.1733 98.7063 36.0959C97.8079 36.0286 96.9325 35.7798 96.133 35.3645C95.3082 34.9341 94.5842 34.3333 94.0092 33.602C92.9687 32.1444 92.4558 30.3758 92.5551 28.5876C92.604 28.0017 92.7468 27.4274 92.9781 26.8868C93.2044 26.3507 93.5008 25.847 93.8594 25.3887C94.2479 24.8915 94.672 24.4232 95.1284 23.9875C95.5338 23.6174 95.9479 23.2472 96.3533 22.8947C96.7451 22.5451 97.1022 22.1585 97.4196 21.7403C97.7294 21.3587 97.9709 20.9264 98.1334 20.4625C98.2942 19.9573 98.3125 19.4176 98.1863 18.9027L102.02 18.1007ZM100.257 9.99316L101.271 14.8048L97.402 15.6156L96.3886 10.8039L100.257 9.99316Z" fill="#324C72"/>
</svg>
