<svg width="169" height="169" viewBox="0 0 169 169" fill="none" xmlns="http://www.w3.org/2000/svg">
<path d="M78.6152 151.956C79.4036 151.99 80.0627 152.174 80.5928 152.506C81.123 152.838 81.5098 153.293 81.752 153.869L80.6504 154.526C80.4894 154.05 80.2112 153.695 79.8154 153.465C79.4201 153.224 79.0033 153.094 78.5664 153.075C78.1829 153.059 77.8499 153.098 77.5684 153.192C77.2975 153.288 77.0832 153.428 76.9258 153.613C76.7796 153.788 76.7015 153.993 76.6914 154.228C76.6813 154.462 76.7522 154.684 76.9033 154.894C77.0549 155.092 77.3472 155.244 77.7803 155.348L79.7607 155.849C80.5002 156.03 81.0121 156.298 81.2959 156.651C81.5796 157.005 81.7105 157.428 81.6895 157.918C81.6679 158.419 81.5163 158.855 81.2334 159.228C80.951 159.589 80.5654 159.861 80.0771 160.043C79.5889 160.225 79.03 160.301 78.4014 160.274C77.6236 160.241 76.9111 160.045 76.2646 159.687C75.6291 159.328 75.1488 158.838 74.8232 158.216L75.9434 157.479C76.1568 157.979 76.4813 158.378 76.917 158.674C77.3633 158.971 77.9065 159.133 78.5459 159.16C79.1104 159.184 79.557 159.097 79.8857 158.897C80.215 158.687 80.3872 158.406 80.4023 158.055C80.412 157.831 80.3465 157.625 80.2051 157.438C80.0748 157.24 79.8085 157.09 79.4072 156.987L77.5068 156.505C76.7357 156.312 76.1873 156.021 75.8623 155.634C75.548 155.247 75.403 154.776 75.4268 154.222C75.4455 153.785 75.585 153.39 75.8457 153.038C76.117 152.687 76.4868 152.415 76.9541 152.222C77.4326 152.018 77.9865 151.929 78.6152 151.956Z" fill="white"/>
<path d="M94.7314 152.421C94.878 151.886 95.1467 151.458 95.5361 151.136C95.9257 150.813 96.3839 150.582 96.9102 150.444C97.4672 150.298 98.0011 150.274 98.5117 150.372C99.0198 150.459 99.4648 150.685 99.8467 151.048C100.239 151.408 100.522 151.924 100.698 152.595L101.996 157.547L100.758 157.871L99.5742 153.353C99.3498 152.496 99.0078 151.952 98.5498 151.719C98.0996 151.473 97.6067 151.42 97.0703 151.561C96.6989 151.658 96.3499 151.843 96.0244 152.115C95.699 152.388 95.4654 152.758 95.3232 153.226C95.1887 153.68 95.2078 154.237 95.3809 154.897L96.4561 158.999L95.2178 159.323L92.2568 148.025L93.4941 147.7L94.7314 152.421Z" fill="white"/>
<path d="M69.5576 150.784L72.415 151.35L72.2002 152.433L69.3428 151.867L68.4336 156.466C68.357 156.853 68.4104 157.163 68.5928 157.395C68.7752 157.626 69.0395 157.776 69.3848 157.845C69.688 157.905 69.9599 157.905 70.2002 157.844C70.4406 157.783 70.6678 157.681 70.8809 157.538L71.1123 158.676C70.8282 158.848 70.506 158.964 70.1465 159.023C69.7973 159.085 69.4075 159.073 68.9785 158.988C68.581 158.91 68.2226 158.768 67.9043 158.563C67.5881 158.349 67.3552 158.068 67.2061 157.724C67.0695 157.37 67.0459 156.942 67.1348 156.438L68.0879 151.619L66.5186 151.309L66.7334 150.226L68.3027 150.535L68.6758 148.652L69.999 148.556L69.5576 150.784Z" fill="white"/>
<path d="M61.2158 148.258L60.9521 149.556C61.3243 149.165 61.7529 148.923 62.2363 148.831C62.7298 148.742 63.269 148.8 63.8535 149.002C63.9845 149.047 64.1225 149.106 64.2666 149.179C64.4207 149.255 64.543 149.342 64.6328 149.44L64.0391 150.471C63.9422 150.392 63.8311 150.32 63.707 150.255C63.583 150.189 63.4 150.115 63.1582 150.031C62.8457 149.923 62.4967 149.904 62.1113 149.974C61.7362 150.047 61.3778 150.234 61.0371 150.533C60.7001 150.823 60.4336 151.249 60.2383 151.813L58.8252 155.896L57.6162 155.478L60.2324 147.918L61.2158 148.258Z" fill="white"/>
<path fill-rule="evenodd" clip-rule="evenodd" d="M108.828 146.716C109.447 146.779 110 147.003 110.486 147.387C110.968 147.761 111.355 148.257 111.645 148.875C111.722 149.039 111.787 149.191 111.841 149.331C111.895 149.471 111.936 149.599 111.967 149.714L106.505 152.277C106.738 152.694 107.009 153.032 107.319 153.292C107.707 153.617 108.127 153.808 108.579 153.867C109.036 153.912 109.511 153.819 110.003 153.588C110.534 153.339 110.916 153.035 111.149 152.678C111.392 152.316 111.534 151.914 111.573 151.472L112.737 151.579C112.708 151.993 112.605 152.389 112.429 152.767C112.262 153.139 112.017 153.484 111.694 153.801C111.377 154.103 110.981 154.366 110.508 154.588C109.822 154.91 109.139 155.047 108.458 155.002C107.786 154.952 107.17 154.717 106.607 154.298C106.041 153.869 105.573 153.263 105.206 152.481C104.839 151.699 104.674 150.957 104.71 150.257C104.742 149.547 104.948 148.92 105.329 148.376C105.71 147.832 106.234 147.403 106.9 147.09C107.576 146.773 108.219 146.648 108.828 146.716ZM109.104 147.982C108.551 147.783 107.965 147.828 107.347 148.118C106.874 148.34 106.516 148.644 106.272 149.029C106.034 149.4 105.916 149.838 105.918 150.344C105.922 150.625 105.97 150.921 106.061 151.231L110.38 149.204C110.059 148.575 109.636 148.167 109.104 147.982Z" fill="white"/>
<path fill-rule="evenodd" clip-rule="evenodd" d="M51.1523 143.805C51.836 143.744 52.5546 143.914 53.3086 144.313C53.8176 144.583 54.2328 144.917 54.5527 145.315C54.8776 145.705 55.0624 146.141 55.1084 146.624C55.1688 147.103 55.0522 147.62 54.7578 148.176L52.9453 151.598C52.7656 151.937 52.8557 152.202 53.2139 152.392C53.3929 152.486 53.5799 152.555 53.7744 152.598L53.2461 153.459C53.0076 153.453 52.7372 153.371 52.4355 153.211C52.1623 153.066 51.9451 152.884 51.7832 152.666C51.6213 152.448 51.5332 152.202 51.5205 151.93C51.5164 151.781 51.5385 151.627 51.584 151.467C51.413 151.561 51.2321 151.631 51.04 151.675C50.6469 151.756 50.2508 151.764 49.8516 151.697C49.4574 151.621 49.0955 151.496 48.7656 151.321C48.3509 151.102 48.0011 150.826 47.7178 150.495C47.4346 150.164 47.2594 149.8 47.1924 149.402C47.1398 149 47.2256 148.587 47.4502 148.163C47.7297 147.635 48.1338 147.294 48.6621 147.14C49.205 146.981 49.825 147.007 50.5215 147.219L53.3633 148.074L53.5068 147.804C53.7864 147.276 53.8596 146.795 53.7266 146.362C53.5985 145.921 53.2751 145.563 52.7568 145.288C52.2666 145.029 51.794 144.917 51.3398 144.954C50.8909 144.982 50.4614 145.189 50.0518 145.575L49.4316 144.523C49.8997 144.095 50.4736 143.856 51.1523 143.805ZM50.5957 148.344C50.0839 148.193 49.6696 148.143 49.3535 148.193C49.0374 148.243 48.7994 148.419 48.6396 148.721C48.4851 149.013 48.4713 149.313 48.5977 149.621C48.7385 149.925 49.0211 150.189 49.4453 150.414C49.7186 150.559 49.9955 150.663 50.2754 150.727C50.5697 150.786 50.8533 150.797 51.126 150.761C51.4037 150.715 51.6569 150.614 51.8848 150.457C52.1177 150.291 52.3139 150.056 52.4736 149.755L52.8682 149.009L50.5957 148.344Z" fill="white"/>
<path d="M118.046 142.311C117.925 142.341 117.801 142.386 117.674 142.446C117.547 142.506 117.378 142.608 117.166 142.751C116.892 142.936 116.667 143.204 116.492 143.555C116.326 143.899 116.261 144.298 116.297 144.75C116.327 145.194 116.509 145.663 116.844 146.157L119.265 149.735L118.204 150.452L113.721 143.827L114.582 143.244L115.463 144.232C115.373 143.701 115.437 143.213 115.653 142.771C115.878 142.322 116.247 141.925 116.759 141.578C116.874 141.5 117.003 141.425 117.147 141.354C117.301 141.276 117.444 141.231 117.577 141.218L118.046 142.311Z" fill="white"/>
<path d="M46.9424 137.455L45.5771 139.271L47.9062 141.021L47.2432 141.903L44.9141 140.153L42.0986 143.901C41.8617 144.217 41.7753 144.519 41.8389 144.807C41.9026 145.095 42.075 145.345 42.3564 145.557C42.6036 145.742 42.8488 145.86 43.0918 145.909C43.335 145.958 43.584 145.965 43.8379 145.929L43.5518 147.055C43.2211 147.086 42.8809 147.051 42.5312 146.948C42.1901 146.852 41.8447 146.673 41.4951 146.41C41.1711 146.167 40.91 145.884 40.7119 145.562C40.5202 145.231 40.432 144.877 40.4473 144.502C40.4775 144.124 40.6414 143.727 40.9404 143.312L43.8906 139.384L42.6123 138.424L43.2754 137.541L44.5537 138.502L45.708 136.967L46.9424 137.455Z" fill="white"/>
<path fill-rule="evenodd" clip-rule="evenodd" d="M124.273 136.119C124.882 135.99 125.477 136.033 126.058 136.25C126.631 136.459 127.151 136.813 127.616 137.312C127.74 137.445 127.848 137.57 127.942 137.687C128.036 137.803 128.115 137.911 128.18 138.012L123.766 142.125C124.115 142.45 124.476 142.69 124.851 142.842C125.319 143.032 125.778 143.085 126.227 143.003C126.675 142.906 127.098 142.672 127.496 142.301C127.925 141.901 128.197 141.495 128.31 141.084C128.43 140.666 128.441 140.24 128.343 139.807L129.484 139.553C129.583 139.956 129.606 140.364 129.554 140.777C129.509 141.183 129.382 141.586 129.172 141.986C128.962 142.371 128.666 142.742 128.283 143.099C127.729 143.615 127.121 143.956 126.459 144.121C125.804 144.279 125.145 144.245 124.481 144.018C123.81 143.783 123.18 143.349 122.591 142.717C122.002 142.085 121.618 141.429 121.438 140.751C121.251 140.065 121.255 139.405 121.451 138.771C121.647 138.136 122.014 137.568 122.553 137.066C123.099 136.557 123.673 136.241 124.273 136.119ZM124.924 137.24C124.336 137.22 123.792 137.442 123.293 137.907C122.911 138.264 122.663 138.662 122.549 139.104C122.436 139.53 122.458 139.984 122.614 140.465C122.704 140.731 122.84 140.998 123.021 141.266L126.513 138.013C126.015 137.512 125.486 137.253 124.924 137.24Z" fill="white"/>
<path d="M36.1738 131.786C36.612 131.716 37.068 131.769 37.541 131.948C38.029 132.127 38.4929 132.442 38.9326 132.892C39.4843 133.456 39.84 134.041 39.999 134.646C40.1581 135.252 40.129 135.848 39.9111 136.434L38.6582 136.159C38.8671 135.701 38.9062 135.252 38.7754 134.813C38.6522 134.367 38.4375 133.988 38.1318 133.675C37.8635 133.4 37.5943 133.201 37.3242 133.077C37.0615 132.961 36.8091 132.917 36.5674 132.944C36.3409 132.972 36.1434 133.067 35.9756 133.231C35.8078 133.395 35.7079 133.606 35.6748 133.862C35.6495 134.111 35.7594 134.421 36.0039 134.793L37.1035 136.515C37.5187 137.153 37.7091 137.698 37.6738 138.15C37.6385 138.602 37.4454 139 37.0947 139.343C36.7362 139.693 36.3262 139.908 35.8652 139.985C35.412 140.056 34.9452 139.99 34.4648 139.788C33.9844 139.587 33.5239 139.261 33.084 138.811C32.5397 138.254 32.1545 137.623 31.9287 136.919C31.7105 136.223 31.6951 135.536 31.8838 134.859L33.2051 135.09C33.0183 135.6 32.9829 136.113 33.0977 136.627C33.2199 137.149 33.5048 137.639 33.9521 138.097C34.3472 138.501 34.7332 138.743 35.1094 138.822C35.4931 138.894 35.8109 138.808 36.0625 138.562C36.2225 138.405 36.3155 138.21 36.3408 137.977C36.3811 137.743 36.2896 137.452 36.0674 137.103L35.0117 135.449C34.5821 134.781 34.3809 134.194 34.4092 133.689C34.445 133.192 34.6611 132.749 35.0576 132.361C35.3704 132.056 35.743 131.864 36.1738 131.786Z" fill="white"/>
<path fill-rule="evenodd" clip-rule="evenodd" d="M64.1689 54.2139C65.0562 53.8538 67.0154 53.9707 67.9287 54.4385C69.6512 55.3207 71.8617 58.4569 72.9307 61.5352L73.167 62.2158L74.042 61.7344C75.8924 60.7166 78.3454 61.8316 79.5537 64.2393C81.0898 67.3005 81.6341 70.8562 81.6426 77.8828C81.6494 83.6036 81.2921 87.2997 80.1602 93.2109C77.7239 105.936 73.3795 114.628 65.7529 122.036C64.7663 122.995 63.7229 123.854 63.4346 123.945C62.6319 124.199 61.792 123.542 61.792 122.66C61.792 122.065 62.1682 121.556 64.0303 119.631C67.3831 116.164 67.6417 115.813 72 108.842C72.7852 107.586 74.6426 103.024 75.543 100.14C76.9162 95.7401 78.3078 87.8059 78.707 82.1016C79.3017 73.6074 78.1011 65.7591 75.9922 64.3545C75.5016 64.028 75.4636 64.0502 75.1338 64.8428C74.9174 65.363 74.7066 67.0616 74.5684 69.3936C74.3827 72.5284 74.1874 73.7837 73.3311 77.3525C72.2615 81.8105 72.0487 82.4437 70.7588 85.0244C69.6134 87.3156 68.9614 88.1162 68.2422 88.1162C67.4684 88.116 66.8106 87.5086 66.8105 86.7939C66.8105 86.4837 67.1595 85.6496 67.5859 84.9404C68.0125 84.2312 68.624 83.0213 68.9443 82.252C69.7192 80.3905 71.3765 73.7245 71.5293 71.8555C71.6567 70.2971 71.1522 66.1533 70.5391 63.7256C69.4822 59.5418 66.5129 55.7955 65.2549 57.0586C64.7329 57.5833 64.6567 60.539 65.0762 63.9639C65.5326 67.6904 65.541 71.1815 65.1025 74.7256C64.7353 77.6935 63.3385 84.3658 62.9102 85.1982C62.2069 86.5636 61.2952 86.896 60.542 86.0605C60.06 85.5258 60.0927 85.2202 61.0986 80.8262C62.5572 74.454 62.9935 69.2943 62.2832 66.8174C61.5694 64.3279 59.2517 60.1442 57.8828 58.874C57.2503 58.2868 56.3592 57.9328 55.8213 58.0547C54.9292 58.2574 54.7412 60.3137 55.292 63.8398C56.9578 74.5042 57.2459 83.7955 55.9717 85.749C55.5663 86.3701 54.612 86.4634 54.0342 85.9385C53.6949 85.63 53.6644 85.034 53.7529 80.3848L53.8525 75.1768L52.4805 72.4287C50.3608 68.1824 48.0545 65.4434 46.5986 65.4434C45.4913 65.4439 45.5947 67.5034 47.0508 74.4502C48.5529 81.618 48.7081 87.3396 47.543 92.582C46.237 98.4567 43.8246 104.247 40.8418 108.663C38.8183 111.659 37.8938 112.622 37.041 112.622C36.4372 112.622 35.7871 112.074 35.7871 111.564C35.7879 111.378 36.6716 109.88 37.751 108.233C38.8306 106.587 40.0456 104.608 40.4521 103.835C41.3105 102.203 43.5787 96.5102 43.9941 94.9443C44.2732 93.8917 44.262 93.8448 43.4121 92.4258C42.9358 91.6304 41.1849 88.9519 39.5215 86.4746C35.5923 80.623 35.0144 79.4959 35 77.6572C34.9865 75.9668 35.4143 75.3782 37.2217 74.5977C39.1905 73.7473 40.7448 74.1643 43.2939 76.2266L44.708 77.3701L44.5508 76.502C44.4645 76.0247 44.1528 74.5519 43.8574 73.2295C42.5535 67.3944 42.6267 65.0047 44.1582 63.4668C44.8168 62.8056 45.0834 62.6953 46.0195 62.6953C48.4351 62.6954 50.5578 64.0551 52.127 66.6074C52.5875 67.3566 52.9931 67.9406 53.0273 67.9062C53.0606 67.8676 52.9476 67.23 52.7754 66.4854C52.6023 65.7381 52.3346 63.9736 52.1807 62.5645C51.9302 60.2724 51.943 59.8453 52.3027 58.5107C52.8997 56.297 54.1185 55.3008 56.2305 55.3008C58.0586 55.3008 59.6979 56.4101 61.1982 58.6621L61.792 59.5527V58.875C61.792 57.087 63.0193 54.6808 64.1689 54.2139ZM43.6426 80.4219C40.8837 77.6877 39.3752 76.7524 38.3535 77.1416C37.5933 77.4315 37.7082 78.162 38.8096 80.0391C40.0937 82.2276 44.9745 89.489 45.1621 89.4902C45.4313 89.4902 45.6294 85.8517 45.4639 83.9463L45.3008 82.0654L43.6426 80.4219Z" fill="white"/>
<path d="M21.1992 48.75C15.0308 59.4133 11.5 71.7938 11.5 85C11.5 98.2062 15.0308 110.587 21.1992 121.25L20.333 121.75C14.0791 110.939 10.5 98.3866 10.5 85C10.5 71.6134 14.0791 59.0613 20.333 48.25L21.1992 48.75Z" fill="white"/>
<path d="M147.667 48.25C153.921 59.0613 157.5 71.6135 157.5 85C157.5 98.3865 153.921 110.939 147.667 121.75L146.801 121.25C152.969 110.587 156.5 98.2062 156.5 85C156.5 71.7938 152.969 59.4132 146.801 48.75L147.667 48.25Z" fill="white"/>
<path d="M104.221 53.667C105.976 52.666 108.271 52.9992 109.417 54.4219C110.026 55.1776 110.621 56.838 110.783 58.2334L110.95 59.6699L112.417 58.7773C113.662 58.0204 114.077 57.8863 115.155 57.8906C115.898 57.8937 116.814 58.0728 117.361 58.3223C119.553 59.3215 119.928 62.3617 118.604 68.4209C117.794 72.1339 116.771 79.1188 116.769 80.9609L116.768 82.165L118.421 80.2793C122.218 75.9517 124.564 74.0979 127.241 73.3096C128.765 72.861 131.604 72.9788 132.666 73.5342C133.65 74.0492 134.472 75.183 134.826 76.5127C135.107 77.5672 135.092 77.6603 134.44 78.834C134.067 79.5066 132.988 81.0753 132.042 82.3203C130.189 84.7599 127.842 88.7662 126.892 91.1152C125.828 93.7438 126.158 96.0626 128.036 99.1641C129.535 101.639 130.664 102.936 132.792 104.63C134.338 105.861 134.788 106.347 134.788 106.787C134.788 107.452 134.055 108.27 133.459 108.271C132.371 108.271 128.903 105.298 126.956 102.697C123.782 98.4556 122.741 94.7621 123.744 91.3066C124.507 88.6787 127.896 82.8012 130.666 79.3008C131.428 78.3387 132.051 77.4262 132.051 77.2734C132.051 77.1205 131.89 76.767 131.695 76.4873C131.384 76.0407 131.137 75.9785 129.68 75.9785C128.268 75.9785 127.798 76.0882 126.556 76.71C124.823 77.5773 121.69 80.6586 118.94 84.2002C117.94 85.4891 116.911 86.5781 116.57 86.707C116.24 86.8318 115.083 86.9936 114.001 87.0664C111.431 87.2392 108.532 88.0807 105.704 89.4746C102.945 90.8341 101.079 92.2331 98.543 94.8467C97.4474 95.9759 96.4421 96.8192 96.1904 96.8193C95.3256 96.8193 94.8683 96.3832 94.8682 95.5576C94.8682 94.9235 95.1404 94.453 96.2637 93.1426C99.1965 89.7215 103.793 86.722 108.191 85.3584C110.041 84.7852 112.744 84.2227 113.651 84.2227H114.384L114.295 81.8057C114.246 80.4762 114.329 78.05 114.479 76.4141C114.745 73.5293 114.977 72.2379 116.18 66.9316C116.905 63.7327 116.953 61.5068 116.312 60.8623C115.094 59.6396 112.481 60.9849 110.751 63.7256C109.348 65.9482 108.302 68.9954 107.617 72.8564C107.203 75.1927 107.146 76.1341 107.265 78.7725C107.417 82.1798 107.293 82.62 106.18 82.6201C104.939 82.6201 104.63 81.428 104.656 76.7246C104.677 72.9204 104.916 71.6315 106.53 66.6338C107.843 62.5667 108.268 59.872 107.88 58.0557C107.404 55.8252 106.714 55.372 105.214 56.3027C102.42 58.0369 100.125 65.2648 99.3301 74.833C99.1364 77.1633 98.9324 79.6182 98.877 80.2881C98.7237 82.1323 97.9445 82.7141 97.0137 81.6787C96.6149 81.2351 96.5816 80.8149 96.6025 76.583C96.6151 74.0467 96.7487 71.198 96.9004 70.2529C97.582 66.0103 98.9464 60.6624 99.7607 59.04C100.086 58.3931 100.003 57.9055 99.5 57.5029C98.6452 56.8185 96.463 58.6996 95.2666 61.1523C94.3464 63.0395 93.3838 66.1011 92.6924 69.3369C92.1783 71.7428 92.0537 73.0398 91.915 77.4668C91.8243 80.3625 91.6712 82.9124 91.5742 83.1348C91.4641 83.3857 91.1469 83.5361 90.7266 83.5361C89.7721 83.5361 89.3772 82.4472 89.1514 79.1914C88.8266 74.509 89.6767 68.1725 91.2305 63.6865C92.2613 60.7101 92.2429 60.7873 91.8809 60.9072C90.7494 61.2819 89.0667 65.2346 88.0381 69.9346C86.1621 78.5089 86.4126 90.1644 88.6162 96.8193C89.8414 100.519 92.2663 105.247 94.4121 108.122C96.4478 110.849 99.8067 114.345 102.263 116.294C104.996 118.462 105.361 118.827 105.361 119.385C105.361 120.051 104.797 120.638 104.157 120.638C103.078 120.637 98.5301 116.979 95.4385 113.626C91.1419 108.966 88.3624 104.522 86.3594 99.1094C85.2946 96.2318 84.956 94.8311 84.3643 90.8643C83.9186 87.8756 83.8815 86.9255 83.9912 81.3604C84.118 74.9276 84.3761 72.6869 85.5078 68.1914C86.7806 63.1359 88.0489 60.4216 89.7471 59.1211C90.3922 58.6271 90.8936 58.4618 91.9824 58.3857C93.3476 58.2905 93.4153 58.2545 94.4893 57.0537C96.0584 55.2987 97.3843 54.5723 99.0146 54.5723C100.02 54.5723 100.479 54.6941 101.036 55.1074L101.756 55.6416L102.476 54.9473C102.871 54.5651 103.656 53.989 104.221 53.667Z" fill="white"/>
<path d="M96.5049 45.5752C97.9286 44.1099 98.222 43.9686 98.9893 44.3809C100.014 44.9317 99.4517 46.2282 96.29 50.5986C94.2091 53.4753 93.5056 54.0238 92.5508 53.5186C91.8442 53.1447 91.683 52.8697 91.6787 52.0332C91.6762 51.5037 92.0931 50.8085 93.3945 49.1709C94.3403 47.9809 95.74 46.3626 96.5049 45.5752Z" fill="white"/>
<path d="M74.9189 41.6904C75.3647 41.0074 76.0191 41.0254 76.5752 41.7354C77.1477 42.4661 79.1284 48.4262 79.1289 49.4199C79.1289 50.7868 78.0018 51.434 76.9316 50.6816C76.3954 50.3047 75.9596 48.9052 75.1348 44.9111C74.6318 42.4769 74.6103 42.1634 74.9189 41.6904Z" fill="white"/>
<path d="M87.1836 40.2012C88.2245 39.5368 89.0217 40.5837 88.8164 42.3457C88.446 45.5237 87.5289 49.5359 87.0576 50.041C86.0986 51.0684 84.6035 50.4543 84.6035 49.0332C84.6038 48.0419 85.9023 42.742 86.4727 41.4062C86.7146 40.8392 87.0346 40.2965 87.1836 40.2012Z" fill="white"/>
<path d="M40.9043 36.4072C41.06 36.9458 41.1312 37.4087 41.1172 37.7949C41.1181 38.1831 41.0388 38.5189 40.8789 38.8018C40.7339 39.0866 40.5085 39.3454 40.2031 39.5781C39.9149 39.7979 39.6152 39.9588 39.3047 40.0615C39.0091 40.1662 38.7158 40.222 38.4258 40.2285L38.0264 39.125C38.3124 39.1484 38.5751 39.1222 38.8135 39.0479C39.0664 38.9755 39.2862 38.8686 39.4727 38.7266C39.6932 38.5584 39.8498 38.3313 39.9414 38.0469C40.0329 37.7624 40.0013 37.3508 39.8457 36.8125L39.5459 35.7334L37.7549 34.7041L32.0459 31.4111L33.2041 30.5283L37.957 33.4639L39.2148 34.2959L38.7119 32.6875L37.1357 27.5312L38.2305 26.6973L40.9043 36.4072Z" fill="white"/>
<path fill-rule="evenodd" clip-rule="evenodd" d="M129.199 25.2061C129.861 25.2573 130.496 25.4898 131.104 25.9043C131.721 26.3249 132.156 26.8152 132.407 27.374C132.668 27.9387 132.756 28.5282 132.673 29.1426C132.596 29.7482 132.365 30.3334 131.98 30.8975C131.878 31.0472 131.78 31.1805 131.688 31.2979C131.595 31.4151 131.507 31.5167 131.423 31.6016L126.437 28.2012C126.196 28.6138 126.043 29.0197 125.978 29.4189C125.895 29.9181 125.944 30.3779 126.123 30.7969C126.317 31.213 126.639 31.5745 127.088 31.8809C127.573 32.2113 128.028 32.3861 128.454 32.4053C128.889 32.4305 129.307 32.3473 129.708 32.1562L130.208 33.2129C129.836 33.3983 129.443 33.5117 129.028 33.5518C128.623 33.5978 128.201 33.5622 127.765 33.4453C127.343 33.3256 126.915 33.1186 126.483 32.8242C125.858 32.3976 125.391 31.8792 125.084 31.2695C124.786 30.666 124.675 30.0156 124.75 29.3184C124.831 28.6121 125.115 27.9014 125.602 27.1875C126.088 26.4739 126.642 25.9548 127.264 25.6299C127.891 25.2962 128.537 25.1548 129.199 25.2061ZM129.116 26.3496C128.676 26.3332 128.237 26.4551 127.803 26.7139C127.563 26.8603 127.333 27.0516 127.112 27.2871L131.053 29.9746C131.432 29.3785 131.569 28.807 131.457 28.2559C131.348 27.6778 131.011 27.1961 130.447 26.8115C130.015 26.5172 129.572 26.3632 129.116 26.3496Z" fill="white"/>
<path fill-rule="evenodd" clip-rule="evenodd" d="M46.5059 22.0645C47.1793 22.0653 47.8145 22.2599 48.4111 22.6465C49.0025 23.0238 49.5103 23.5886 49.9336 24.3418C50.3568 25.0948 50.5785 25.8266 50.5986 26.5371C50.6135 27.2384 50.4461 27.8774 50.0967 28.4531C49.7566 29.0235 49.2567 29.4942 48.5967 29.8652C47.9458 30.2311 47.2828 30.4139 46.6094 30.4131C45.9362 30.4122 45.3041 30.2228 44.7129 29.8457C44.1163 29.4591 43.6059 28.8889 43.1826 28.1357C42.7594 27.3826 42.5403 26.6554 42.5254 25.9541C42.5053 25.2435 42.6702 24.6001 43.0195 24.0244C43.3689 23.4489 43.8688 22.9781 44.5195 22.6123C45.1796 22.2413 45.8418 22.0585 46.5059 22.0645ZM46.4541 23.2139C45.9992 23.1882 45.5347 23.3087 45.0605 23.5752C44.5864 23.8417 44.2419 24.1762 44.0273 24.5781C43.813 24.98 43.7249 25.4333 43.7637 25.9375C43.8065 26.4273 43.9853 26.951 44.2988 27.5088C44.6072 28.0573 44.9619 28.4817 45.3633 28.7822C45.7739 29.0775 46.2063 29.2389 46.6611 29.2646C47.1161 29.2904 47.5814 29.1699 48.0557 28.9033C48.5298 28.6368 48.8743 28.3024 49.0889 27.9004C49.3034 27.4985 49.3859 27.0478 49.3379 26.5488C49.2991 26.0445 49.1257 25.5174 48.8174 24.9688C48.5039 24.411 48.1446 23.9891 47.7393 23.7031C47.3379 23.4026 46.9091 23.2396 46.4541 23.2139Z" fill="white"/>
<path d="M121.639 20.5703L121.196 21.8184C121.62 21.4842 122.077 21.3047 122.568 21.2812C123.069 21.2627 123.595 21.3953 124.146 21.6777C124.269 21.741 124.397 21.8183 124.529 21.9102C124.671 22.007 124.78 22.1112 124.855 22.2217L124.123 23.1582C124.038 23.0667 123.939 22.9797 123.825 22.8975C123.712 22.8152 123.541 22.7154 123.313 22.5986C123.019 22.4477 122.676 22.3806 122.285 22.3955C121.903 22.4153 121.522 22.549 121.143 22.7979C120.768 23.0372 120.445 23.4228 120.172 23.9541L118.199 27.7979L117.061 27.2129L120.713 20.0957L121.639 20.5703Z" fill="white"/>
<path d="M61.8936 23.707L60.8447 24.1006L60.3428 22.9902C60.2518 23.5369 60.0208 23.9996 59.6504 24.3779C59.286 24.7426 58.8033 25.0378 58.2041 25.2627C57.7249 25.4425 57.237 25.5234 56.7402 25.5049C56.2534 25.4826 55.8004 25.3216 55.3809 25.0234C54.9675 24.7115 54.6382 24.2311 54.3945 23.582L52.5508 18.6689L53.749 18.2188L55.4756 22.8174C55.7604 23.5761 56.1215 24.0391 56.5596 24.2051C56.994 24.361 57.5112 24.3264 58.1104 24.1016C58.39 23.9966 58.6479 23.8483 58.8838 23.6572C59.1159 23.4562 59.2999 23.2169 59.4346 22.9385C59.5756 22.6463 59.6456 22.3177 59.6455 21.9531C59.6554 21.5848 59.578 21.1806 59.4131 20.7412L57.8838 16.667L59.082 16.2178L61.8936 23.707Z" fill="white"/>
<path d="M110.404 15.9609L108.741 20.583C108.467 21.3458 108.443 21.9325 108.669 22.3428C108.899 22.7429 109.315 23.0518 109.917 23.2686C110.198 23.3697 110.491 23.4234 110.794 23.4307C111.101 23.4278 111.397 23.3641 111.68 23.2393C111.976 23.108 112.243 22.9027 112.479 22.625C112.724 22.3508 112.927 21.9932 113.086 21.5518L114.56 17.457L115.764 17.8906L113.055 25.418L112.001 25.0381L112.338 23.8672C111.914 24.2249 111.439 24.4274 110.911 24.4756C110.397 24.5174 109.839 24.4305 109.237 24.2139C108.756 24.0405 108.331 23.7852 107.965 23.4492C107.608 23.1168 107.367 22.7011 107.24 22.2021C107.127 21.6968 107.188 21.118 107.423 20.4658L109.2 15.5283L110.404 15.9609Z" fill="white"/>
<path d="M68.3438 13.6074C68.5148 13.5891 68.6651 13.5974 68.7939 13.6328L68.8428 14.8213C68.7189 14.8067 68.587 14.8044 68.4473 14.8154C68.3075 14.8265 68.1132 14.8613 67.8643 14.9199C67.5424 14.9957 67.2374 15.1666 66.9492 15.4316C66.6714 15.6943 66.4684 16.0431 66.3408 16.4785C66.2108 16.9036 66.2137 17.407 66.3506 17.9883L67.3408 22.1934L66.0947 22.4873L64.2617 14.7002L65.2734 14.4619L65.7461 15.6982C65.8517 15.1693 66.0833 14.736 66.4424 14.3994C66.8118 14.0604 67.2982 13.8205 67.9004 13.6787C68.0353 13.6469 68.1831 13.6233 68.3438 13.6074Z" fill="white"/>
<path d="M102.222 13.8262L105.067 14.4473L104.832 15.5264L101.986 14.9053L100.987 19.4863C100.903 19.8715 100.95 20.1818 101.128 20.417C101.306 20.6523 101.567 20.8078 101.911 20.8828C102.213 20.9487 102.485 20.9538 102.727 20.8975C102.968 20.841 103.197 20.743 103.413 20.6045L103.622 21.7471C103.335 21.9136 103.01 22.0239 102.649 22.0762C102.299 22.1307 101.91 22.1107 101.483 22.0176C101.087 21.9312 100.732 21.7828 100.418 21.5723C100.106 21.3514 99.8788 21.0673 99.7363 20.7197C99.6065 20.3639 99.5908 19.9342 99.6895 19.4316L100.736 14.6328L99.1729 14.292L99.4082 13.2129L100.972 13.5537L101.381 11.6787L102.706 11.6074L102.222 13.8262Z" fill="white"/>
<path d="M89.3408 12.0977L88.9268 16.9922C88.8584 17.8 88.9869 18.373 89.3115 18.7109C89.637 19.0382 90.1183 19.2292 90.7559 19.2832C91.0535 19.3084 91.3504 19.2852 91.6455 19.2139C91.9413 19.1319 92.2101 18.9944 92.4512 18.8008C92.7039 18.5974 92.9081 18.3303 93.0645 18.001C93.2314 17.6726 93.3344 17.2742 93.374 16.8066L93.7412 12.4707L95.0166 12.5781L94.3418 20.5498L93.2256 20.4561L93.249 19.2373C92.9323 19.692 92.5253 20.0106 92.0283 20.1934C91.5427 20.3663 90.9805 20.4261 90.3428 20.3721C89.8326 20.3289 89.3568 20.1919 88.916 19.9619C88.486 19.7328 88.1454 19.3937 87.8945 18.9443C87.6551 18.4853 87.5646 17.9104 87.623 17.2197L88.0654 11.9902L89.3408 12.0977Z" fill="white"/>
<path d="M82.5264 8.30859C82.8034 8.29674 83.0657 8.31767 83.3135 8.37109C83.5613 8.42453 83.7568 8.50689 83.9004 8.61816L83.6094 9.6709C83.478 9.59126 83.3369 9.53924 83.1865 9.51367C83.0356 9.47746 82.8695 9.46298 82.6885 9.4707C82.2302 9.49034 81.878 9.61779 81.6318 9.85254C81.3853 10.0766 81.2715 10.4279 81.292 10.9072L81.3447 12.1221L84.0137 12.0078L84.0615 13.1113L81.3916 13.2246L81.6865 20.1152L80.4082 20.1699L80.1123 13.2793L78.5146 13.3486L78.4668 12.2461L80.0645 12.1768L80.0078 10.835C79.9927 10.4833 80.0322 10.1555 80.126 9.85254C80.2198 9.5496 80.3692 9.28671 80.5732 9.06445C80.7878 8.84191 81.0577 8.66451 81.3828 8.5332C81.7081 8.40186 82.0895 8.32732 82.5264 8.30859Z" fill="white"/>
<path fill-rule="evenodd" clip-rule="evenodd" d="M84.5 0C131.168 0.000197918 169 37.8321 169 84.5C169 131.168 131.168 169 84.5 169C37.8319 169 0 131.168 0 84.5C0 37.8319 37.8319 0 84.5 0ZM84.5 1C38.3842 1 1 38.3842 1 84.5C1 130.616 38.3842 168 84.5 168C130.616 168 168 130.616 168 84.5C168 38.3843 130.616 1.0002 84.5 1Z" fill="white"/>
</svg>
