<svg xmlns="http://www.w3.org/2000/svg" width="242" height="180" viewBox="0 0 242 180" fill="none">
  <path d="M241.688 158.18H0.116211V158.3H241.688V158.18Z" fill="#EBEBEB"/>
  <path d="M217.483 165.953H201.481V166.074H217.483V165.953Z" fill="#EBEBEB"/>
  <path d="M160.142 167.268H155.943V167.388H160.142V167.268Z" fill="#EBEBEB"/>
  <path d="M200.997 161.47H191.726V161.591H200.997V161.47Z" fill="#EBEBEB"/>
  <path d="M46.3298 162.281H25.4629V162.402H46.3298V162.281Z" fill="#EBEBEB"/>
  <path d="M53.6921 162.281H50.6338V162.402H53.6921V162.281Z" fill="#EBEBEB"/>
  <path d="M108.895 164.319H63.6338V164.44H108.895V164.319Z" fill="#EBEBEB"/>
  <path d="M114.622 136.631H21.332C20.6012 136.63 19.9008 136.339 19.3844 135.822C18.8681 135.304 18.5781 134.604 18.5781 133.873V2.73456C18.5845 2.00793 18.8773 1.31316 19.3929 0.801148C19.9086 0.289138 20.6054 0.00124475 21.332 0H114.622C115.354 0 116.055 0.29065 116.573 0.80801C117.09 1.32537 117.381 2.02706 117.381 2.75872V133.873C117.381 134.604 117.09 135.306 116.573 135.823C116.055 136.341 115.354 136.631 114.622 136.631ZM21.332 0.096628C20.6332 0.0979078 19.9635 0.376396 19.4698 0.870966C18.9762 1.36554 18.6989 2.03577 18.6989 2.73456V133.873C18.6989 134.571 18.9762 135.242 19.4698 135.736C19.9635 136.231 20.6332 136.509 21.332 136.511H114.622C115.321 136.509 115.992 136.231 116.486 135.737C116.98 135.242 117.259 134.572 117.26 133.873V2.73456C117.259 2.03533 116.98 1.3651 116.486 0.870671C115.992 0.376239 115.321 0.0979051 114.622 0.096628H21.332Z" fill="#EBEBEB"/>
  <path d="M219.13 136.631H125.835C125.104 136.63 124.403 136.339 123.886 135.822C123.369 135.305 123.077 134.604 123.076 133.873V2.73456C123.084 2.00749 123.378 1.31272 123.894 0.800846C124.41 0.288969 125.108 0.00123118 125.835 0H219.13C219.856 0.00251449 220.551 0.290969 221.066 0.802844C221.58 1.31472 221.873 2.00877 221.879 2.73456V133.873C221.879 134.603 221.59 135.303 221.074 135.82C220.559 136.337 219.86 136.629 219.13 136.631ZM125.835 0.096628C125.136 0.0979051 124.465 0.376239 123.971 0.870671C123.477 1.3651 123.198 2.03533 123.197 2.73456V133.873C123.198 134.572 123.477 135.242 123.971 135.737C124.465 136.231 125.136 136.509 125.835 136.511H219.13C219.829 136.509 220.499 136.231 220.994 135.737C221.488 135.242 221.766 134.572 221.768 133.873V2.73456C221.766 2.03533 221.488 1.3651 220.994 0.870671C220.499 0.376239 219.829 0.0979051 219.13 0.096628H125.835Z" fill="#EBEBEB"/>
  <path d="M213.167 35.665H28.6357V157.967H213.167V35.665Z" fill="#E0E0E0"/>
  <path d="M120.902 157.42V32.7704C120.902 32.7704 144.417 25.1416 207.288 25.1416V157.42H120.902Z" fill="#F5F5F5"/>
  <path d="M120.902 157.42V32.7704C120.902 32.7704 97.387 25.1416 34.5156 25.1416V157.42H120.902Z" fill="#F0F0F0"/>
  <path d="M127.626 45.652C127.306 45.6764 126.989 45.5725 126.745 45.3632C126.502 45.1539 126.351 44.8563 126.327 44.536C126.302 44.2156 126.406 43.8987 126.616 43.655C126.825 43.4113 127.122 43.2607 127.443 43.2363C151.012 39.9886 174.774 38.3341 198.566 38.2842C198.887 38.2842 199.194 38.4114 199.42 38.6379C199.647 38.8645 199.774 39.1717 199.774 39.492C199.774 39.8124 199.647 40.1196 199.42 40.3461C199.194 40.5726 198.887 40.6999 198.566 40.6999C174.897 40.7539 151.258 42.4036 127.81 45.6375C127.749 45.6472 127.688 45.652 127.626 45.652Z" fill="#E6E6E6"/>
  <path d="M127.628 54.5954C127.307 54.6153 126.992 54.5071 126.752 54.2946C126.511 54.0821 126.365 53.7828 126.345 53.4624C126.325 53.1421 126.433 52.827 126.646 52.5864C126.858 52.3459 127.158 52.1996 127.478 52.1797C127.836 52.1362 163.651 47.6865 198.568 47.6865C198.888 47.6865 199.195 47.8138 199.422 48.0403C199.648 48.2668 199.776 48.574 199.776 48.8944C199.776 49.2147 199.648 49.5219 199.422 49.7484C199.195 49.975 198.888 50.1022 198.568 50.1022C163.806 50.1022 128.135 54.5326 127.778 54.5761L127.628 54.5954Z" fill="#E6E6E6"/>
  <path d="M127.628 63.5562C127.308 63.5723 126.994 63.4604 126.756 63.2452C126.519 63.03 126.376 62.7291 126.36 62.4088C126.344 62.0884 126.456 61.7749 126.671 61.537C126.886 61.2992 127.187 61.1566 127.507 61.1405C127.899 61.0971 167.149 57.0967 198.568 57.0967C198.888 57.0967 199.196 57.2239 199.422 57.4505C199.649 57.677 199.776 57.9842 199.776 58.3045C199.776 58.6249 199.649 58.9321 199.422 59.1586C199.196 59.3851 198.888 59.5124 198.568 59.5124C167.275 59.5124 128.145 63.5031 127.754 63.5417L127.628 63.5562Z" fill="#E6E6E6"/>
  <path d="M127.628 72.5132C127.307 72.5267 126.995 72.4123 126.759 72.1953C126.523 71.9783 126.383 71.6764 126.369 71.3561C126.356 71.0358 126.47 70.7232 126.687 70.4872C126.904 70.2511 127.206 70.111 127.526 70.0975C127.956 70.0637 170.647 66.5078 198.548 66.5078C198.869 66.5078 199.176 66.6351 199.402 66.8616C199.629 67.0881 199.756 67.3953 199.756 67.7157C199.756 68.036 199.629 68.3432 199.402 68.5697C199.176 68.7962 198.869 68.9235 198.548 68.9235C170.729 68.9235 128.14 72.4697 127.71 72.5084L127.628 72.5132Z" fill="#E6E6E6"/>
  <path d="M127.629 81.4662C127.308 81.4771 126.997 81.3603 126.762 81.1415C126.528 80.9227 126.39 80.6198 126.38 80.2995C126.369 79.9791 126.486 79.6676 126.704 79.4334C126.923 79.1991 127.226 79.0614 127.546 79.0506C128.03 79.0216 174.141 75.9102 198.568 75.9102C198.889 75.9102 199.196 76.0374 199.422 76.2639C199.649 76.4904 199.776 76.7977 199.776 77.118C199.776 77.4383 199.649 77.7456 199.422 77.9721C199.196 78.1986 198.889 78.3258 198.568 78.3258C174.223 78.3258 128.174 81.4324 127.711 81.4614L127.629 81.4662Z" fill="#E6E6E6"/>
  <path d="M127.625 90.4193C127.305 90.4276 126.995 90.3083 126.762 90.0877C126.53 89.8671 126.394 89.5632 126.386 89.2428C126.378 88.9225 126.497 88.612 126.718 88.3796C126.938 88.1471 127.242 88.0119 127.563 88.0036C128.046 87.9794 177.631 85.3125 198.585 85.3125C198.905 85.3125 199.212 85.4398 199.439 85.6663C199.665 85.8928 199.792 86.2 199.792 86.5203C199.792 86.8407 199.665 87.1479 199.439 87.3744C199.212 87.6009 198.905 87.7282 198.585 87.7282C177.713 87.7282 128.21 90.3903 127.712 90.4193H127.625Z" fill="#E6E6E6"/>
  <path d="M127.629 99.3713C127.308 99.3777 126.999 99.2566 126.768 99.0346C126.537 98.8126 126.403 98.508 126.397 98.1876C126.39 97.8673 126.511 97.5575 126.733 97.3265C126.955 97.0954 127.26 96.962 127.58 96.9556C128.112 96.9556 181.122 94.7139 198.569 94.7139C198.889 94.7139 199.196 94.8411 199.423 95.0676C199.649 95.2942 199.776 95.6014 199.776 95.9217C199.776 96.2421 199.649 96.5493 199.423 96.7758C199.196 97.0023 198.889 97.1296 198.569 97.1296C181.175 97.1296 128.213 99.3472 127.682 99.3713H127.629Z" fill="#E6E6E6"/>
  <path d="M127.626 108.325C127.467 108.328 127.31 108.299 127.162 108.241C127.015 108.182 126.88 108.096 126.766 107.985C126.652 107.875 126.561 107.743 126.498 107.598C126.435 107.452 126.401 107.295 126.399 107.137C126.396 106.978 126.425 106.821 126.483 106.673C126.541 106.526 126.628 106.391 126.739 106.277C126.849 106.163 126.981 106.072 127.126 106.009C127.272 105.946 127.429 105.912 127.587 105.91C128.157 105.91 184.598 104.112 198.566 104.112C198.886 104.112 199.193 104.24 199.42 104.466C199.646 104.693 199.773 105 199.773 105.32C199.773 105.64 199.646 105.948 199.42 106.174C199.193 106.401 198.886 106.528 198.566 106.528C184.651 106.528 128.235 108.306 127.664 108.32L127.626 108.325Z" fill="#E6E6E6"/>
  <path d="M127.626 117.282C127.306 117.285 126.997 117.161 126.769 116.937C126.54 116.713 126.41 116.407 126.406 116.086C126.403 115.766 126.527 115.458 126.752 115.229C126.976 115 127.282 114.87 127.602 114.867C128.206 114.867 188.101 113.519 198.566 113.519C198.886 113.519 199.194 113.646 199.42 113.872C199.647 114.099 199.774 114.406 199.774 114.726C199.774 115.047 199.647 115.354 199.42 115.58C199.194 115.807 198.886 115.934 198.566 115.934C188.13 115.934 128.259 117.268 127.655 117.282H127.626Z" fill="#E6E6E6"/>
  <path d="M127.627 126.234C127.306 126.234 126.999 126.107 126.773 125.88C126.546 125.654 126.419 125.347 126.419 125.026C126.419 124.706 126.546 124.399 126.773 124.172C126.999 123.946 127.306 123.819 127.627 123.819C128.265 123.819 191.605 122.92 198.581 122.92C198.902 122.92 199.209 123.047 199.435 123.274C199.662 123.5 199.789 123.807 199.789 124.128C199.789 124.448 199.662 124.755 199.435 124.982C199.209 125.208 198.902 125.336 198.581 125.336C191.624 125.336 128.298 126.225 127.661 126.234H127.627Z" fill="#E6E6E6"/>
  <path d="M127.627 135.186C127.306 135.186 126.999 135.059 126.773 134.833C126.546 134.606 126.419 134.299 126.419 133.978C126.419 133.658 126.546 133.351 126.773 133.124C126.999 132.898 127.306 132.771 127.627 132.771C128.298 132.771 195.083 132.321 198.572 132.321C198.892 132.321 199.199 132.449 199.426 132.675C199.652 132.902 199.779 133.209 199.779 133.529C199.779 133.849 199.652 134.157 199.426 134.383C199.199 134.61 198.892 134.737 198.572 134.737C195.093 134.737 128.313 135.181 127.641 135.186H127.627Z" fill="#E6E6E6"/>
  <path d="M198.567 144.14H127.627C127.306 144.14 126.999 144.013 126.773 143.787C126.546 143.56 126.419 143.253 126.419 142.932C126.419 142.612 126.546 142.305 126.773 142.078C126.999 141.852 127.306 141.725 127.627 141.725H198.567C198.887 141.725 199.194 141.852 199.421 142.078C199.647 142.305 199.775 142.612 199.775 142.932C199.775 143.253 199.647 143.56 199.421 143.787C199.194 144.013 198.887 144.14 198.567 144.14Z" fill="#E6E6E6"/>
  <path d="M114.177 45.6512C114.497 45.6756 114.814 45.5717 115.058 45.3624C115.302 45.1531 115.452 44.8555 115.477 44.5352C115.501 44.2148 115.397 43.8979 115.188 43.6542C114.979 43.4105 114.681 43.2599 114.361 43.2355C90.7908 39.9926 67.029 38.3429 43.2372 38.2979C42.9168 38.2979 42.6096 38.4251 42.3831 38.6516C42.1566 38.8781 42.0293 39.1854 42.0293 39.5057C42.0293 39.826 42.1566 40.1333 42.3831 40.3598C42.6096 40.5863 42.9168 40.7135 43.2372 40.7135C66.9064 40.7628 90.5454 42.4076 113.993 45.6367C114.054 45.6463 114.116 45.6512 114.177 45.6512Z" fill="#E0E0E0"/>
  <path d="M114.177 54.5954C114.497 54.6153 114.812 54.5071 115.053 54.2946C115.294 54.0821 115.44 53.7828 115.46 53.4624C115.48 53.1421 115.371 52.827 115.159 52.5864C114.946 52.3459 114.647 52.1996 114.327 52.1797C113.969 52.1362 78.1539 47.6865 43.2372 47.6865C42.9168 47.6865 42.6096 47.8138 42.3831 48.0403C42.1566 48.2668 42.0293 48.574 42.0293 48.8944C42.0293 49.2147 42.1566 49.5219 42.3831 49.7484C42.6096 49.975 42.9168 50.1022 43.2372 50.1022C77.9993 50.1022 113.67 54.5326 114.027 54.5761L114.177 54.5954Z" fill="#E0E0E0"/>
  <path d="M114.177 63.5562C114.497 63.5723 114.811 63.4604 115.049 63.2452C115.287 63.03 115.429 62.7291 115.445 62.4088C115.461 62.0884 115.349 61.7749 115.134 61.537C114.919 61.2992 114.618 61.1566 114.298 61.1405C113.906 61.0971 74.6559 57.0967 43.2372 57.0967C42.9168 57.0967 42.6096 57.2239 42.3831 57.4505C42.1566 57.677 42.0293 57.9842 42.0293 58.3045C42.0293 58.6249 42.1566 58.9321 42.3831 59.1586C42.6096 59.3851 42.9168 59.5124 43.2372 59.5124C74.5303 59.5124 113.66 63.5031 114.051 63.5417L114.177 63.5562Z" fill="#E0E0E0"/>
  <path d="M114.175 72.5132C114.496 72.5267 114.808 72.4123 115.044 72.1953C115.28 71.9783 115.42 71.6764 115.434 71.3561C115.447 71.0358 115.333 70.7232 115.116 70.4872C114.899 70.2511 114.597 70.111 114.277 70.0975C113.847 70.0637 71.1562 66.5078 43.2547 66.5078C42.9344 66.5078 42.6272 66.6351 42.4006 66.8616C42.1741 67.0881 42.0469 67.3953 42.0469 67.7157C42.0469 68.036 42.1741 68.3432 42.4006 68.5697C42.6272 68.7962 42.9344 68.9235 43.2547 68.9235C71.0741 68.9235 113.663 72.4697 114.093 72.5084L114.175 72.5132Z" fill="#E0E0E0"/>
  <path d="M114.177 81.4662C114.336 81.4716 114.494 81.4457 114.642 81.39C114.791 81.3343 114.927 81.2499 115.043 81.1415C115.159 81.0332 115.253 80.903 115.318 80.7586C115.384 80.6141 115.421 80.4581 115.426 80.2995C115.431 80.1409 115.405 79.9827 115.35 79.8341C115.294 79.6855 115.21 79.5493 115.101 79.4334C114.993 79.3174 114.863 79.2239 114.718 79.1582C114.574 79.0925 114.418 79.0559 114.259 79.0506C113.776 79.0216 67.6649 75.9102 43.2372 75.9102C42.9168 75.9102 42.6096 76.0374 42.3831 76.2639C42.1566 76.4904 42.0293 76.7977 42.0293 77.118C42.0293 77.4383 42.1566 77.7456 42.3831 77.9721C42.6096 78.1986 42.9168 78.3258 43.2372 78.3258C67.5827 78.3258 113.631 81.4324 114.095 81.4614L114.177 81.4662Z" fill="#E0E0E0"/>
  <path d="M114.176 90.4193C114.496 90.4276 114.807 90.3083 115.039 90.0877C115.272 89.8671 115.407 89.5632 115.415 89.2428C115.423 88.9225 115.304 88.612 115.084 88.3796C114.863 88.1471 114.559 88.0119 114.239 88.0036C113.756 87.9794 64.1706 85.3125 43.2166 85.3125C42.8963 85.3125 42.5891 85.4398 42.3626 85.6663C42.136 85.8928 42.0088 86.2 42.0088 86.5203C42.0088 86.8407 42.136 87.1479 42.3626 87.3744C42.5891 87.6009 42.8963 87.7282 43.2166 87.7282C64.0884 87.7282 113.591 90.3903 114.089 90.4193H114.176Z" fill="#E0E0E0"/>
  <path d="M114.177 99.3713C114.336 99.3745 114.493 99.3464 114.641 99.2886C114.789 99.2308 114.924 99.1445 115.038 99.0346C115.153 98.9247 115.244 98.7933 115.308 98.648C115.371 98.5027 115.406 98.3463 115.409 98.1876C115.412 98.029 115.384 97.8713 115.326 97.7236C115.269 97.5758 115.182 97.4409 115.072 97.3265C114.962 97.2121 114.831 97.1204 114.686 97.0568C114.54 96.9932 114.384 96.9588 114.225 96.9556C113.694 96.9556 60.6834 94.7139 43.2372 94.7139C42.9168 94.7139 42.6096 94.8411 42.3831 95.0676C42.1566 95.2942 42.0293 95.6014 42.0293 95.9217C42.0293 96.2421 42.1566 96.5493 42.3831 96.7758C42.6096 97.0023 42.9168 97.1296 43.2372 97.1296C60.6303 97.1296 113.592 99.3472 114.124 99.3713H114.177Z" fill="#E0E0E0"/>
  <path d="M114.177 108.325C114.497 108.33 114.807 108.208 115.037 107.985C115.267 107.762 115.399 107.457 115.404 107.137C115.409 106.816 115.287 106.507 115.064 106.277C114.841 106.047 114.536 105.915 114.216 105.91C113.646 105.91 57.2048 104.112 43.2372 104.112C42.9168 104.112 42.6096 104.24 42.3831 104.466C42.1566 104.693 42.0293 105 42.0293 105.32C42.0293 105.64 42.1566 105.948 42.3831 106.174C42.6096 106.401 42.9168 106.528 43.2372 106.528C57.1517 106.528 113.568 108.306 114.138 108.32L114.177 108.325Z" fill="#E0E0E0"/>
  <path d="M114.176 117.282C114.496 117.282 114.803 117.155 115.03 116.928C115.256 116.702 115.384 116.395 115.384 116.074C115.384 115.754 115.256 115.447 115.03 115.22C114.803 114.994 114.496 114.867 114.176 114.867C113.572 114.867 53.6766 113.519 43.2118 113.519C42.8914 113.519 42.5842 113.646 42.3577 113.872C42.1312 114.099 42.0039 114.406 42.0039 114.726C42.0039 115.047 42.1312 115.354 42.3577 115.58C42.5842 115.807 42.8914 115.934 43.2118 115.934C53.6476 115.934 113.519 117.268 114.123 117.282H114.176Z" fill="#E0E0E0"/>
  <path d="M114.177 126.234C114.497 126.234 114.804 126.107 115.031 125.88C115.257 125.654 115.385 125.347 115.385 125.026C115.385 124.706 115.257 124.399 115.031 124.172C114.804 123.946 114.497 123.819 114.177 123.819C113.539 123.819 50.1991 122.92 43.2225 122.92C42.9022 122.92 42.5949 123.047 42.3684 123.274C42.1419 123.5 42.0146 123.807 42.0146 124.128C42.0146 124.448 42.1419 124.755 42.3684 124.982C42.5949 125.208 42.9022 125.336 43.2225 125.336C50.1798 125.336 113.505 126.225 114.143 126.234H114.177Z" fill="#E0E0E0"/>
  <path d="M114.177 135.186C114.497 135.186 114.805 135.059 115.031 134.833C115.258 134.606 115.385 134.299 115.385 133.978C115.385 133.658 115.258 133.351 115.031 133.124C114.805 132.898 114.497 132.771 114.177 132.771C113.505 132.771 46.7206 132.321 43.2323 132.321C42.9119 132.321 42.6047 132.449 42.3782 132.675C42.1517 132.902 42.0244 133.209 42.0244 133.529C42.0244 133.849 42.1517 134.157 42.3782 134.383C42.6047 134.61 42.9119 134.737 43.2323 134.737C46.7109 134.737 113.486 135.181 114.162 135.186H114.177Z" fill="#E0E0E0"/>
  <path d="M43.2372 144.14H114.177C114.497 144.14 114.805 144.013 115.031 143.787C115.258 143.56 115.385 143.253 115.385 142.932C115.385 142.612 115.258 142.305 115.031 142.078C114.805 141.852 114.497 141.725 114.177 141.725H43.2372C42.9168 141.725 42.6096 141.852 42.3831 142.078C42.1566 142.305 42.0293 142.612 42.0293 142.932C42.0293 143.253 42.1566 143.56 42.3831 143.787C42.6096 144.013 42.9168 144.14 43.2372 144.14Z" fill="#E0E0E0"/>
  <path d="M128.685 75.6066L124.709 71.7415L120.737 75.6066V31.5686L128.685 30.1191V75.6066Z" fill="#E0E0E0"/>
  <path d="M120.902 180C172.638 180 214.579 177.551 214.579 174.531C214.579 171.51 172.638 169.062 120.902 169.062C69.166 169.062 27.2256 171.51 27.2256 174.531C27.2256 177.551 69.166 180 120.902 180Z" fill="#F5F5F5"/>
  <path d="M36.5548 173.501C36.3626 173.501 36.1783 173.424 36.0423 173.288C35.9064 173.153 35.8301 172.968 35.8301 172.776V82.9703C35.8267 77.4667 37.5061 72.0936 40.643 67.5715C43.78 63.0494 48.2245 59.5944 53.3806 57.6698C58.5368 55.7452 64.1581 55.443 69.4909 56.8037C74.8237 58.1643 79.613 61.1229 83.2167 65.2826C83.2802 65.3546 83.3288 65.4384 83.3599 65.5292C83.3909 65.6201 83.4038 65.7161 83.3978 65.8119C83.3917 65.9077 83.3668 66.0013 83.3246 66.0875C83.2823 66.1737 83.2235 66.2507 83.1515 66.3141C83.0795 66.3776 82.9957 66.4262 82.9049 66.4573C82.8141 66.4883 82.718 66.5012 82.6223 66.4951C82.5265 66.4891 82.4328 66.4642 82.3466 66.422C82.2605 66.3797 82.1834 66.3209 82.12 66.2489C78.7098 62.316 74.179 59.5193 69.1347 58.2336C64.0904 56.9479 58.7737 57.2346 53.897 59.0554C49.0202 60.8761 44.8165 64.1439 41.8491 68.4207C38.8816 72.6976 37.2923 77.7793 37.294 82.9848V172.776C37.294 172.872 37.2748 172.968 37.2375 173.057C37.2002 173.146 37.1455 173.226 37.0766 173.294C37.0078 173.361 36.9262 173.414 36.8366 173.45C36.747 173.485 36.6512 173.503 36.5548 173.501Z" fill="#263238"/>
  <path d="M52.2519 174.36H31.2158L32.4865 170.92H50.9812L52.2519 174.36Z" fill="black"/>
  <path opacity="0.2" d="M52.2519 174.36H31.2158L32.4865 170.92H50.9812L52.2519 174.36Z" fill="white"/>
  <path opacity="0.2" d="M52.253 174.36H38.8506V170.92H50.9823L52.253 174.36Z" fill="white"/>
  <path d="M81.4676 63.7896L81.714 63.7199C83.3094 63.2684 85.0189 63.4692 86.4663 64.2781C87.9137 65.0871 88.9804 66.4378 89.4319 68.0332L89.6647 68.8561L77.3824 72.3316L77.1495 71.5088C76.9259 70.7184 76.8602 69.8917 76.9562 69.0759C77.0521 68.2601 77.308 67.4713 77.709 66.7544C78.11 66.0375 78.6483 65.4067 79.2932 64.898C79.9382 64.3893 80.677 64.0126 81.4676 63.7896Z" fill="#263238"/>
  <path opacity="0.2" d="M89.4584 68.1631L89.6565 68.8637L77.375 72.3423L77.1769 71.6417C76.7202 70.0144 76.9276 68.2724 77.7536 66.7979C78.5797 65.3233 79.9569 64.2367 81.5832 63.7762C82.0391 63.6498 82.5071 63.5721 82.9794 63.5443C84.4249 63.4667 85.8538 63.8831 87.0312 64.7251C88.2086 65.5672 89.0646 66.7847 89.4584 68.1776V68.1631Z" fill="white"/>
  <path opacity="0.2" d="M89.4601 68.162L89.6582 68.8626L81.812 71.085L81.6139 70.3844C80.7829 67.4566 81.4013 64.6399 82.9812 63.5287C84.4266 63.4511 85.8555 63.8675 87.0329 64.7095C88.2104 65.5515 89.0663 66.7691 89.4601 68.162Z" fill="white"/>
  <path d="M136.845 104.574C136.425 104.325 136.058 103.996 135.763 103.607C134.961 102.511 134.69 97.254 133.347 95.877C133.11 95.6355 132.197 95.3166 130.854 94.9543C126.549 93.8044 117.809 92.2294 112.785 91.3597L112.186 91.2534V87.4463L112.669 87.5864C117.162 88.8426 126.38 91.4515 131.453 93.2101C133.362 93.8672 134.676 94.3938 134.942 94.6595C135.908 95.6693 137.169 101.539 137.671 103.984C137.691 104.089 137.679 104.197 137.64 104.296C137.6 104.394 137.532 104.48 137.446 104.541C137.359 104.603 137.256 104.639 137.15 104.645C137.044 104.65 136.938 104.626 136.845 104.574Z" fill="#263238"/>
  <path opacity="0.4" d="M131.464 93.2009L130.85 94.9353C126.545 93.7855 117.805 92.2104 112.78 91.3408L112.534 88.2197C112.523 88.064 112.545 87.9078 112.597 87.7607C112.62 87.6979 112.648 87.6366 112.679 87.5771C117.172 88.8333 126.391 91.4664 131.464 93.2009Z" fill="white"/>
  <path d="M112.205 87.4472L111.325 87.2008C111.161 87.1573 111.755 86.0605 111.755 86.0605L109.412 86.9012C109.268 86.9497 109.144 87.0429 109.057 87.1672C108.97 87.2915 108.925 87.4404 108.929 87.5921L108.977 90.1092C108.981 90.2768 109.042 90.438 109.151 90.565C109.261 90.692 109.411 90.7769 109.576 90.805L112.195 91.2494L112.205 87.4472Z" fill="#263238"/>
  <path opacity="0.1" d="M111.723 86.0449C111.515 86.2584 111.25 86.4063 110.959 86.4701C110.32 86.6684 109.701 86.9256 109.109 87.2383C108.925 87.3929 109.109 90.0115 109.109 90.2627C109.109 90.5139 111.351 90.8183 111.351 90.8183L111.293 87.1851L111.723 86.0449Z" fill="white"/>
  <path opacity="0.1" d="M111.24 86.6211C110.565 86.8245 109.902 87.0648 109.254 87.341C109.229 87.6626 109.229 87.9856 109.254 88.3072C109.254 88.3072 109.505 87.6743 109.737 87.8241C109.969 87.9739 109.853 88.4087 110.288 88.3072C110.723 88.2058 110.95 88.7276 110.95 88.7276C110.95 88.7276 110.868 86.9641 111.24 86.6211Z" fill="white"/>
  <path d="M192.808 94.6646C191.605 93.3795 167.26 86.659 167.26 86.659C167.26 86.659 164.747 85.8957 163.583 85.6348L163.206 90.5676H166.588C166.588 90.5676 189.866 94.481 191.204 95.8821C192.542 97.2832 192.808 102.525 193.62 103.612C193.894 103.975 194.229 104.287 194.61 104.535C194.711 104.598 194.827 104.63 194.945 104.628C195.064 104.625 195.179 104.588 195.276 104.52C195.373 104.453 195.449 104.358 195.493 104.248C195.537 104.139 195.547 104.018 195.523 103.902C195.002 101.385 193.741 95.6599 192.808 94.6646Z" fill="#263238"/>
  <path d="M135.043 89.1819C135.127 90.3239 135.064 91.4719 134.855 92.5977C134.512 93.965 133.541 94.2065 132.487 96.0956C131.434 97.9847 134.241 88.0707 135.043 89.1819Z" fill="#263238"/>
  <path d="M142.928 89.0462C143.455 90.1473 143.855 91.3046 144.121 92.4958C144.334 93.8776 143.455 94.1192 143.155 96.0227C142.856 97.9263 141.677 87.9302 142.928 89.0462Z" fill="#263238"/>
  <path d="M165.226 86.6594C165.21 86.4632 165.132 86.2772 165.004 86.128C164.883 86.0023 161.941 83.031 153.587 83.031C145.963 83.031 141.726 85.9299 141.547 86.0796C141.519 86.1038 141.49 86.1424 141.461 86.1714C140.552 85.5965 138.33 84.6254 135.45 86.1714C135.426 86.1306 135.397 86.0933 135.363 86.0603C135.213 85.9347 131.619 83.0117 124 83.0117C115.641 83.0117 112.052 85.983 111.921 86.1086C111.762 86.2522 111.643 86.4356 111.578 86.6401C111.529 86.7961 111.507 86.9597 111.515 87.1232L112.351 98.2837C112.636 102.081 114.868 104.729 117.782 104.729H123.048C126.913 104.729 130.643 101.419 132.358 96.4816C132.358 96.4816 135.204 89.3408 135.315 89.2732C138.518 87.2633 140.794 89.1572 140.886 89.2394C140.977 89.3215 142.292 96.4864 142.292 96.4864C142.92 101.424 145.934 104.734 149.785 104.734H155.051C157.95 104.734 160.786 102.086 161.902 98.2885L165.197 87.128C165.236 86.975 165.246 86.8161 165.226 86.6594ZM142.799 87.6595C142.865 87.4371 143.013 87.2486 143.214 87.1329C146.39 85.6578 149.859 84.9211 153.36 84.9781C158.815 84.9781 161.82 86.2971 163.144 87.1087C163.228 87.167 163.297 87.2432 163.347 87.3319C163.397 87.4205 163.427 87.5192 163.434 87.6209C163.458 87.7827 163.445 87.948 163.395 88.104L160.496 97.8585C159.636 100.782 157.457 102.835 155.216 102.835H149.949C146.741 102.835 144.21 100.047 143.668 95.9453L142.702 88.1861C142.688 88.0052 142.722 87.8237 142.799 87.6595ZM113.119 87.6209C113.189 87.4056 113.335 87.2233 113.53 87.1087C115.033 86.2971 118.328 84.9781 123.787 84.9781C128.778 84.9781 131.967 86.3067 133.45 87.1329C133.539 87.1908 133.613 87.2685 133.666 87.3599C133.72 87.4513 133.752 87.5538 133.759 87.6595C133.784 87.8336 133.766 88.0111 133.706 88.1765L131.049 95.9308C129.624 100.037 126.473 102.825 123.265 102.825H117.999C115.757 102.825 114.028 100.772 113.81 97.8489L113.081 88.0943C113.064 87.9355 113.077 87.7749 113.119 87.6209Z" fill="#263238"/>
  <path d="M164.698 86.8274C164.681 86.6348 164.601 86.4531 164.471 86.3105C164.35 86.1849 161.403 83.2909 153.049 83.2909C145.425 83.2909 141.198 86.1365 141.019 86.2573C140.987 86.2855 140.958 86.3162 140.932 86.3491C140.019 85.7935 137.796 84.8417 134.922 86.3491L134.835 86.2428C134.685 86.122 131.081 83.2764 123.461 83.2764C115.103 83.2764 111.518 86.1752 111.383 86.296C111.223 86.4331 111.104 86.6121 111.04 86.8129C110.99 86.9688 110.97 87.1328 110.982 87.2961L111.847 98.1715C112.141 101.872 114.383 104.452 117.297 104.452H122.563C126.428 104.452 130.148 101.23 131.849 96.4177C131.849 96.4177 134.675 89.4557 134.781 89.3929C137.985 87.4362 140.265 89.2818 140.357 89.3639C140.449 89.446 141.782 96.4177 141.782 96.4177C142.425 101.249 145.444 104.452 149.3 104.452H154.566C157.465 104.452 160.291 101.872 161.398 98.1715L164.659 87.2961C164.703 87.144 164.716 86.9847 164.698 86.8274ZM142.27 87.7937C142.34 87.5757 142.49 87.3925 142.691 87.2816C145.875 85.8369 149.34 85.119 152.837 85.1799C158.291 85.1799 161.301 86.4699 162.625 87.2574C162.706 87.3117 162.775 87.383 162.826 87.4664C162.877 87.5499 162.909 87.6434 162.92 87.7406C162.943 87.9025 162.93 88.0675 162.881 88.2237L160.035 97.727C159.185 100.573 157.011 102.558 154.764 102.558H149.498C146.29 102.558 143.753 99.8432 143.217 95.8476L142.212 88.2913C142.192 88.1248 142.212 87.9559 142.27 87.7985V87.7937ZM112.596 87.7551C112.669 87.5509 112.813 87.3796 113.001 87.2719C114.504 86.4844 117.794 85.1944 123.254 85.1944C128.245 85.1944 131.438 86.4892 132.917 87.2961C133.006 87.3506 133.08 87.4255 133.135 87.5145C133.19 87.6035 133.222 87.7041 133.231 87.8082C133.256 87.9791 133.237 88.1535 133.177 88.3155L130.506 95.8669C129.09 99.8673 125.95 102.583 122.742 102.583H117.519C115.277 102.583 113.543 100.582 113.315 97.7512L112.557 88.2479C112.537 88.0843 112.55 87.9184 112.596 87.7599V87.7551Z" fill="#263238"/>
  <path opacity="0.1" d="M135.204 88.7221C135.204 88.7221 135.557 87.2727 135.407 86.862C135.257 86.4513 136.61 85.9441 137.412 85.9199C137.885 85.8551 138.367 85.8947 138.823 86.0359C138.948 86.1421 138.195 86.0069 137.697 86.4369C137.199 86.8668 137.731 87.2147 137.137 87.606C136.542 87.9974 136.861 88.0457 136.707 88.1665C136.217 88.3805 135.715 88.566 135.204 88.7221Z" fill="white"/>
  <path opacity="0.1" d="M133.048 85.4661C133.048 85.4661 129.922 83.4756 122.965 83.4756C116.008 83.4756 112.143 86.0072 111.558 86.6595C110.973 87.3117 111.297 88.6258 111.717 93.6118C112.138 98.5978 112.287 101.221 114.481 102.825C114.481 102.825 112.891 100.25 112.998 99.2694C113.104 98.2886 112.573 95.5685 112.389 92.3605C112.205 89.1525 111.814 87.2634 112.389 86.8962C112.964 86.529 115.892 84.5723 121.264 84.3742C126.637 84.1761 129.507 85.4371 130.067 85.1859C130.628 84.9347 132.038 85.5338 132.372 85.5338C132.599 85.5303 132.825 85.5077 133.048 85.4661Z" fill="white"/>
  <g opacity="0.4">
    <path d="M122.734 102.945H117.468C115.154 102.945 113.385 100.853 113.158 97.8577L112.429 88.1031C112.42 87.9266 112.443 87.7498 112.496 87.5813C112.58 87.3348 112.752 87.1282 112.979 87.0016C114.467 86.1996 117.782 84.8564 123.294 84.8564C128.358 84.8564 131.566 86.2189 133.03 87.0257C133.136 87.0912 133.225 87.181 133.29 87.2877C133.354 87.3944 133.393 87.5149 133.402 87.6393C133.431 87.8328 133.411 88.0304 133.344 88.2143L130.648 95.9445C129.184 100.143 126.01 102.945 122.734 102.945ZM123.28 85.098C117.82 85.098 114.545 86.4218 113.081 87.2142C112.909 87.3123 112.783 87.4735 112.728 87.6635C112.68 87.7981 112.66 87.9412 112.67 88.0838L113.4 97.8384C113.612 100.703 115.289 102.704 117.468 102.704H122.734C125.903 102.704 128.986 99.9642 130.402 95.8865L133.097 88.1563C133.154 88.002 133.171 87.8357 133.146 87.6731C133.141 87.586 133.116 87.501 133.073 87.4249C133.031 87.3487 132.971 87.2832 132.899 87.2335C131.455 86.4411 128.285 85.098 123.28 85.098Z" fill="white"/>
    <path d="M154.722 102.947H149.456C146.176 102.947 143.61 100.135 143.069 95.951L142.103 88.1918C142.077 87.9975 142.101 87.8 142.17 87.6169C142.248 87.3646 142.421 87.1529 142.654 87.0275C145.849 85.5374 149.342 84.7955 152.867 84.8582C158.375 84.8582 161.399 86.2013 162.714 87.0081C162.813 87.0756 162.895 87.1645 162.956 87.2682C163.016 87.3719 163.052 87.4877 163.061 87.6072C163.085 87.7822 163.07 87.9603 163.018 88.129L160.119 97.8836C159.259 100.865 157.042 102.947 154.722 102.947ZM152.848 85.0997C149.361 85.0369 145.906 85.7706 142.745 87.2449C142.569 87.3426 142.439 87.5058 142.383 87.699C142.323 87.8525 142.303 88.0188 142.325 88.1822L143.291 95.9413C143.813 99.9997 146.282 102.705 149.437 102.705H154.722C156.916 102.705 159.042 100.695 159.887 97.8159L162.786 88.0614C162.828 87.9255 162.84 87.7819 162.82 87.641C162.815 87.5574 162.792 87.4759 162.752 87.4024C162.712 87.3288 162.656 87.2651 162.588 87.2159C161.298 86.4235 158.317 85.0997 152.867 85.0997H152.848Z" fill="white"/>
  </g>
  <path opacity="0.1" d="M141.194 86.5334C140.899 86.7991 141.03 87.1276 141.054 87.8282C141.053 88.3171 140.991 88.804 140.87 89.2776C140.87 89.2776 142.291 97.2301 142.522 97.863C142.754 98.4959 142.88 98.2301 142.962 98.1287C143.044 98.0272 143.523 98.7906 143.523 98.7906C142.887 96.6343 142.466 94.4204 142.266 92.1813C141.832 88.0263 141.662 87.4369 141.943 87.031C142.223 86.6252 145.702 85.0695 148.649 84.7361C151.55 84.4179 154.478 84.4179 157.379 84.7361C159.452 85.0357 159.524 84.3641 159.843 84.4994C160.241 84.6046 160.649 84.6614 161.061 84.6685C161.061 84.6685 155.403 82.9098 149.465 83.7022C143.527 84.4945 141.194 86.5334 141.194 86.5334Z" fill="white"/>
  <path d="M150.2 87.8958C151.128 86.1662 150.046 86.8958 149.321 88.0263C148.596 89.1568 145.905 98.3944 146.369 100.52C145.801 99.3916 145.155 98.3036 144.437 97.2639C144.214 97.0175 143.982 95.7372 143.779 94.196C143.596 92.7997 143.436 91.1909 143.33 89.9299C143.243 88.8476 143.19 88.0263 143.205 87.8234C143.229 87.1325 147.123 85.6348 152.606 85.6348C152.606 85.6348 149.311 92.4422 148.398 95.3362C148.384 95.3362 149.278 89.6207 150.2 87.8958Z" fill="white"/>
  <path opacity="0.2" d="M143.765 94.2104C143.581 92.8142 143.422 91.2053 143.315 89.9443C143.675 90.7684 143.945 91.6284 144.122 92.5098C144.213 93.1013 144.086 93.7055 143.765 94.2104Z" fill="black"/>
  <path opacity="0.1" d="M166.999 86.726C166.999 86.726 165.067 86.1414 163.98 85.8805V85.9191C162.859 85.0978 159.631 83.2909 153.027 83.2909C145.403 83.2909 141.175 86.1365 140.996 86.2573C140.965 86.2855 140.936 86.3162 140.909 86.3491C139.996 85.7935 137.774 84.8417 134.899 86.3491C134.87 86.3153 134.846 86.2767 134.812 86.2428C134.662 86.122 131.058 83.2764 123.439 83.2764C115.081 83.2764 111.496 86.1752 111.36 86.296C111.2 86.4331 111.082 86.6121 111.017 86.8129C110.967 86.9688 110.948 87.1328 110.959 87.2961L111.824 98.1715C112.119 101.872 114.361 104.452 117.274 104.452H122.54C126.405 104.452 130.126 101.23 131.826 96.4177C131.826 96.4177 134.653 89.4557 134.759 89.3929C137.962 87.4362 140.243 89.2818 140.334 89.3639C140.426 89.446 141.76 96.4177 141.76 96.4177C142.402 101.249 145.422 104.452 149.277 104.452H154.544C157.443 104.452 160.269 101.872 161.375 98.1715L164.144 88.9436L163.965 90.1273H166.381C166.381 90.1273 166.7 90.0693 166.758 89.8954C166.816 89.7214 167.241 87.4797 167.241 87.2091C167.219 87.0247 167.134 86.8538 166.999 86.726ZM133.179 88.3058L130.507 95.8573C129.092 99.8577 125.951 102.573 122.743 102.573H117.52C115.279 102.573 113.544 100.573 113.317 97.7415L112.559 88.2382C112.547 88.0746 112.569 87.9104 112.621 87.7551C112.695 87.5509 112.839 87.3796 113.027 87.2719C114.53 86.4844 117.82 85.1944 123.28 85.1944C128.27 85.1944 131.464 86.4892 132.942 87.2961C133.031 87.3506 133.106 87.4255 133.161 87.5145C133.215 87.6035 133.248 87.7041 133.256 87.8082C133.278 87.9763 133.258 88.1472 133.198 88.3058H133.179ZM162.868 88.2237L160.037 97.727C159.187 100.573 157.013 102.558 154.766 102.558H149.5C146.292 102.558 143.755 99.8432 143.219 95.8476L142.214 88.2913C142.192 88.12 142.211 87.9459 142.272 87.784C142.342 87.566 142.492 87.3829 142.692 87.2719C145.876 85.8273 149.342 85.1093 152.838 85.1703C158.293 85.1703 161.303 86.4602 162.627 87.2478C162.708 87.302 162.777 87.3733 162.827 87.4568C162.878 87.5402 162.91 87.6338 162.921 87.7309C162.948 87.8956 162.936 88.0641 162.888 88.2237H162.868Z" fill="white"/>
  <path opacity="0.1" d="M164.386 86.3018C164.719 86.4854 164.787 86.6061 164.695 87.1714C164.603 87.7367 164.386 88.6933 164.386 88.6933C164.386 88.6933 164.536 88.0411 165.106 88.0749C165.674 88.1133 166.245 88.0276 166.777 87.8236C166.879 87.6932 167.029 87.1134 166.942 87.0603C166.855 87.0071 165.492 86.5047 165.106 86.4032C164.87 86.3419 164.629 86.3078 164.386 86.3018Z" fill="white"/>
  <path d="M123.162 85.6348C123.162 85.6348 122.017 87.6205 120.747 89.8912C120.263 90.7512 119.78 91.6547 119.297 92.505C118.456 94.0414 117.751 95.4038 117.509 96.0319C117.543 95.8435 117.891 94.196 118.34 92.3359C118.582 91.3696 118.848 90.326 119.123 89.4371C119.299 88.8143 119.509 88.2014 119.751 87.6011C119.713 87.6591 119.365 88.1084 118.785 88.7413C118.671 88.9034 118.577 89.0786 118.505 89.2631C118.229 89.8767 117.823 90.9493 117.389 92.162C116.234 95.399 114.818 99.7376 114.818 99.7376C114.453 99.4046 114.235 98.941 114.21 98.4476C114.21 98.4476 113.9 94.5535 113.678 91.5049C113.548 89.6545 113.446 88.1229 113.47 87.9248C113.478 87.8876 113.495 87.8528 113.519 87.8234C114.045 87.2291 117.935 85.6976 123.162 85.6348Z" fill="white"/>
  <path opacity="0.2" d="M118.538 89.2444C118.263 89.858 117.857 90.9306 117.422 92.1433C116.093 91.9065 114.837 91.6601 113.711 91.4862C113.581 89.6358 113.479 88.1042 113.504 87.9061C113.511 87.8689 113.528 87.8341 113.552 87.8047C114.953 88.2154 116.683 88.7082 118.538 89.2444Z" fill="black"/>
  <path opacity="0.2" d="M120.758 89.8926C120.275 90.7526 119.792 91.6561 119.309 92.5064L118.343 92.3373C118.584 91.371 118.85 90.3275 119.125 89.4385L120.758 89.8926Z" fill="black"/>
  <path d="M113.454 145.868H142.559V133.244H113.454V145.868Z" fill="#9663FE"/>
  <path opacity="0.8" d="M113.454 145.868H142.559V133.244H113.454V145.868Z" fill="white"/>
  <path opacity="0.2" d="M140.219 134.48H113.448V133.248H140.195L140.219 134.48Z" fill="black"/>
  <path opacity="0.2" d="M140.226 135.558L116.073 136.075L140.226 136.587V135.558Z" fill="black"/>
  <path opacity="0.2" d="M140.226 140.224L114.648 140.658L140.226 141.021V140.224Z" fill="black"/>
  <path opacity="0.2" d="M140.225 142.953L114.874 143.465L140.225 143.982V142.953Z" fill="black"/>
  <path opacity="0.2" d="M113.448 137.355L137.973 138.1L113.448 138.612V137.355Z" fill="black"/>
  <path d="M178.398 139.496C178.399 140.247 178.251 140.99 177.964 141.684C177.676 142.378 177.255 143.008 176.723 143.539C176.192 144.069 175.561 144.49 174.867 144.776C174.172 145.062 173.428 145.208 172.678 145.207H112.106C111.994 145.208 111.887 145.253 111.808 145.333C111.73 145.412 111.686 145.52 111.686 145.632V146.081C111.685 146.137 111.695 146.192 111.716 146.243C111.737 146.295 111.768 146.342 111.807 146.381C111.846 146.421 111.893 146.452 111.944 146.474C111.995 146.495 112.05 146.506 112.106 146.506H172.982C173.908 146.505 174.825 146.321 175.679 145.964C176.534 145.608 177.31 145.086 177.962 144.428C178.614 143.771 179.13 142.992 179.48 142.134C179.83 141.277 180.008 140.359 180.002 139.433C179.956 137.56 179.176 135.78 177.829 134.477C176.482 133.175 174.677 132.454 172.803 132.471H112.106C111.994 132.471 111.888 132.515 111.809 132.594C111.73 132.673 111.686 132.78 111.686 132.891V133.345C111.685 133.401 111.695 133.456 111.716 133.508C111.737 133.559 111.768 133.606 111.807 133.646C111.846 133.685 111.893 133.717 111.944 133.738C111.995 133.76 112.05 133.771 112.106 133.771H172.499C174.035 133.765 175.513 134.361 176.615 135.431C177.718 136.501 178.358 137.96 178.398 139.496Z" fill="#263238"/>
  <path opacity="0.4" d="M178.398 139.496C178.399 140.247 178.251 140.99 177.964 141.684C177.676 142.378 177.255 143.008 176.723 143.539C176.192 144.069 175.561 144.49 174.867 144.776C174.172 145.062 173.428 145.208 172.678 145.207H112.106C111.994 145.208 111.887 145.253 111.808 145.333C111.73 145.412 111.686 145.52 111.686 145.632V146.081C111.685 146.137 111.695 146.192 111.716 146.243C111.737 146.295 111.768 146.342 111.807 146.381C111.846 146.421 111.893 146.452 111.944 146.474C111.995 146.495 112.05 146.506 112.106 146.506H172.982C173.908 146.505 174.825 146.321 175.679 145.964C176.534 145.608 177.31 145.086 177.962 144.428C178.614 143.771 179.13 142.992 179.48 142.134C179.83 141.277 180.008 140.359 180.002 139.433C179.956 137.56 179.176 135.78 177.829 134.477C176.482 133.175 174.677 132.454 172.803 132.471H112.106C111.994 132.471 111.888 132.515 111.809 132.594C111.73 132.673 111.686 132.78 111.686 132.891V133.345C111.685 133.401 111.695 133.456 111.716 133.508C111.737 133.559 111.768 133.606 111.807 133.646C111.846 133.685 111.893 133.717 111.944 133.738C111.995 133.76 112.05 133.771 112.106 133.771H172.499C174.035 133.765 175.513 134.361 176.615 135.431C177.718 136.501 178.358 137.96 178.398 139.496Z" fill="white"/>
  <path d="M200.503 139.568C200.505 140.399 200.344 141.223 200.027 141.992C199.711 142.761 199.246 143.46 198.658 144.049C198.071 144.637 197.374 145.105 196.606 145.423C195.838 145.742 195.015 145.906 194.183 145.906H140.23V133.248H194.183C195.859 133.248 197.466 133.914 198.652 135.099C199.837 136.284 200.503 137.891 200.503 139.568Z" fill="#9663FE"/>
  <path opacity="0.7" d="M140.23 133.248V145.906H194.183C195.829 145.861 197.393 145.175 198.542 143.994C199.69 142.814 200.333 141.231 200.333 139.584C200.333 137.937 199.69 136.355 198.542 135.175C197.393 133.994 195.829 133.308 194.183 133.263L140.23 133.248Z" fill="white"/>
  <path opacity="0.2" d="M140.226 136.587V135.558L194.009 135.992L140.226 136.587Z" fill="black"/>
  <path opacity="0.2" d="M140.226 141.021V140.224L164.368 141.088L140.226 141.021Z" fill="black"/>
  <path opacity="0.2" d="M140.226 143.982V142.953L179.152 143.547L140.226 143.982Z" fill="black"/>
  <path opacity="0.2" d="M194.27 134.48C195.309 134.481 196.31 134.867 197.082 135.562C196.748 136.216 196.482 136.902 196.29 137.611L142.332 138.036L196.164 138.171C195.975 139.122 195.992 140.102 196.212 141.046L159.875 141.838L196.555 142.263C196.87 143.141 197.278 143.981 197.773 144.771C198.883 144.006 199.719 142.906 200.16 141.631C200.6 140.357 200.621 138.975 200.22 137.688C199.819 136.401 199.017 135.275 197.931 134.477C196.845 133.678 195.531 133.247 194.183 133.248H140.23V134.48H194.27Z" fill="black"/>
  <path d="M200.004 139.496C200.004 140.247 199.855 140.99 199.567 141.684C199.279 142.377 198.857 143.007 198.325 143.538C197.794 144.068 197.163 144.488 196.468 144.775C195.774 145.061 195.03 145.208 194.279 145.207H139.317C139.205 145.208 139.098 145.253 139.019 145.333C138.941 145.412 138.897 145.52 138.897 145.632V146.081C138.896 146.137 138.906 146.192 138.927 146.243C138.948 146.295 138.979 146.342 139.018 146.381C139.057 146.421 139.104 146.452 139.155 146.474C139.206 146.495 139.261 146.506 139.317 146.506H194.598C195.524 146.506 196.441 146.322 197.295 145.965C198.15 145.609 198.926 145.087 199.578 144.43C200.23 143.772 200.745 142.992 201.095 142.135C201.444 141.277 201.62 140.359 201.613 139.433C201.568 137.56 200.787 135.78 199.44 134.477C198.093 133.175 196.288 132.454 194.414 132.471H139.336C139.225 132.471 139.118 132.515 139.039 132.594C138.96 132.673 138.916 132.78 138.916 132.891V133.345C138.915 133.401 138.926 133.456 138.946 133.508C138.967 133.559 138.998 133.606 139.037 133.646C139.076 133.685 139.123 133.717 139.174 133.738C139.226 133.76 139.281 133.771 139.336 133.771H194.115C195.65 133.768 197.125 134.365 198.225 135.434C199.326 136.504 199.964 137.962 200.004 139.496Z" fill="#263238"/>
  <path d="M194.009 137.887V142.955L192.173 141.124L190.396 142.902V137.887H194.009Z" fill="#263238"/>
  <path d="M196.396 161.102H117.842V173.745H196.396V161.102Z" fill="#9663FE"/>
  <path opacity="0.7" d="M196.396 161.102H117.842V173.745H196.396V161.102Z" fill="white"/>
  <path opacity="0.2" d="M196.401 164.444V163.415L142.612 163.845L196.401 164.444Z" fill="black"/>
  <path opacity="0.2" d="M196.4 168.875V168.083L172.253 168.943L196.4 168.875Z" fill="black"/>
  <path opacity="0.2" d="M196.401 171.837V170.812L157.47 171.407L196.401 171.837Z" fill="black"/>
  <path opacity="0.2" d="M135.397 161.102L134.267 170.547L135.61 169.097C136.063 170.818 136.908 172.41 138.079 173.75C138.92 172.648 139.589 171.425 140.064 170.122L176.749 169.701L140.407 168.909C140.523 168.397 140.583 167.874 140.586 167.349C140.584 166.906 140.541 166.464 140.456 166.03L194.292 165.894L140.33 165.474C140.143 164.764 139.878 164.077 139.538 163.425C140.309 162.73 141.311 162.345 142.35 162.343H196.399V161.106L135.397 161.102Z" fill="black"/>
  <path d="M136.617 167.349C136.619 168.866 137.224 170.32 138.297 171.391C139.37 172.463 140.825 173.065 142.342 173.065H197.304C197.36 173.064 197.415 173.074 197.467 173.095C197.518 173.116 197.565 173.147 197.605 173.186C197.644 173.225 197.676 173.272 197.697 173.323C197.718 173.374 197.729 173.429 197.729 173.485V173.93C197.729 173.985 197.718 174.04 197.697 174.092C197.676 174.143 197.644 174.189 197.605 174.228C197.565 174.268 197.518 174.298 197.467 174.319C197.415 174.34 197.36 174.35 197.304 174.35H111.788C110.862 174.351 109.945 174.168 109.09 173.812C108.235 173.457 107.459 172.935 106.807 172.278C106.155 171.621 105.639 170.841 105.29 169.983C104.941 169.126 104.765 168.207 104.773 167.282C104.818 165.408 105.599 163.627 106.945 162.324C108.292 161.021 110.097 160.299 111.972 160.315H197.304C197.36 160.314 197.415 160.324 197.467 160.345C197.518 160.366 197.565 160.397 197.605 160.436C197.644 160.475 197.676 160.522 197.697 160.573C197.718 160.624 197.729 160.679 197.729 160.735V161.189C197.729 161.245 197.718 161.3 197.697 161.351C197.676 161.402 197.644 161.449 197.605 161.488C197.565 161.527 197.518 161.558 197.467 161.579C197.415 161.6 197.36 161.61 197.304 161.61H142.511C140.974 161.608 139.497 162.207 138.395 163.28C137.294 164.352 136.656 165.812 136.617 167.349Z" fill="#9663FE"/>
  <path opacity="0.4" d="M136.617 167.349C136.619 168.866 137.224 170.32 138.297 171.391C139.37 172.463 140.825 173.065 142.342 173.065H197.304C197.36 173.064 197.415 173.074 197.467 173.095C197.518 173.116 197.565 173.147 197.605 173.186C197.644 173.225 197.676 173.272 197.697 173.323C197.718 173.374 197.729 173.429 197.729 173.485V173.93C197.729 173.985 197.718 174.04 197.697 174.092C197.676 174.143 197.644 174.189 197.605 174.228C197.565 174.268 197.518 174.298 197.467 174.319C197.415 174.34 197.36 174.35 197.304 174.35H111.788C110.862 174.351 109.945 174.168 109.09 173.812C108.235 173.457 107.459 172.935 106.807 172.278C106.155 171.621 105.639 170.841 105.29 169.983C104.941 169.126 104.765 168.207 104.773 167.282C104.818 165.408 105.599 163.627 106.945 162.324C108.292 161.021 110.097 160.299 111.972 160.315H197.304C197.36 160.314 197.415 160.324 197.467 160.345C197.518 160.366 197.565 160.397 197.605 160.436C197.644 160.475 197.676 160.522 197.697 160.573C197.718 160.624 197.729 160.679 197.729 160.735V161.189C197.729 161.245 197.718 161.3 197.697 161.351C197.676 161.402 197.644 161.449 197.605 161.488C197.565 161.527 197.518 161.558 197.467 161.579C197.415 161.6 197.36 161.61 197.304 161.61H142.511C140.974 161.608 139.497 162.207 138.395 163.28C137.294 164.352 136.656 165.812 136.617 167.349Z" fill="black"/>
  <path d="M136.617 167.349C136.619 168.866 137.224 170.32 138.297 171.391C139.371 172.463 140.825 173.065 142.342 173.065H197.304C197.36 173.064 197.415 173.074 197.467 173.095C197.518 173.116 197.565 173.147 197.605 173.186C197.644 173.225 197.676 173.272 197.697 173.323C197.719 173.374 197.73 173.429 197.73 173.485V173.93C197.73 173.985 197.719 174.04 197.697 174.092C197.676 174.143 197.644 174.189 197.605 174.228C197.565 174.268 197.518 174.298 197.467 174.319C197.415 174.34 197.36 174.35 197.304 174.35H142.028C141.102 174.35 140.185 174.167 139.33 173.811C138.475 173.455 137.699 172.934 137.047 172.277C136.394 171.62 135.878 170.84 135.528 169.983C135.178 169.126 135.002 168.207 135.008 167.282C135.054 165.408 135.834 163.627 137.181 162.324C138.527 161.021 140.333 160.299 142.207 160.315H197.285C197.341 160.314 197.396 160.324 197.447 160.345C197.499 160.366 197.546 160.397 197.585 160.436C197.625 160.475 197.656 160.522 197.678 160.573C197.699 160.624 197.71 160.679 197.71 160.735V161.189C197.71 161.245 197.699 161.3 197.678 161.351C197.656 161.402 197.625 161.449 197.585 161.488C197.546 161.527 197.499 161.558 197.447 161.579C197.396 161.6 197.341 161.61 197.285 161.61H142.511C140.974 161.608 139.497 162.207 138.396 163.28C137.294 164.352 136.656 165.812 136.617 167.349Z" fill="#9663FE"/>
  <path d="M142.612 165.744V170.812L144.448 168.976L146.226 170.754V165.744H142.612Z" fill="#263238"/>
  <path opacity="0.1" d="M136.617 167.349C136.619 168.866 137.224 170.32 138.297 171.391C139.371 172.463 140.825 173.065 142.342 173.065H197.304C197.36 173.064 197.415 173.074 197.467 173.095C197.518 173.116 197.565 173.147 197.605 173.186C197.644 173.225 197.676 173.272 197.697 173.323C197.719 173.374 197.73 173.429 197.73 173.485V173.93C197.73 173.985 197.719 174.04 197.697 174.092C197.676 174.143 197.644 174.189 197.605 174.228C197.565 174.268 197.518 174.298 197.467 174.319C197.415 174.34 197.36 174.35 197.304 174.35H142.028C141.102 174.35 140.185 174.167 139.33 173.811C138.475 173.455 137.699 172.934 137.047 172.277C136.394 171.62 135.878 170.84 135.528 169.983C135.178 169.126 135.002 168.207 135.008 167.282C135.054 165.408 135.834 163.627 137.181 162.324C138.527 161.021 140.333 160.299 142.207 160.315H197.285C197.341 160.314 197.396 160.324 197.447 160.345C197.499 160.366 197.546 160.397 197.585 160.436C197.625 160.475 197.656 160.522 197.678 160.573C197.699 160.624 197.71 160.679 197.71 160.735V161.189C197.71 161.245 197.699 161.3 197.678 161.351C197.656 161.402 197.625 161.449 197.585 161.488C197.546 161.527 197.499 161.558 197.447 161.579C197.396 161.6 197.341 161.61 197.285 161.61H142.511C140.974 161.608 139.497 162.207 138.396 163.28C137.294 164.352 136.656 165.812 136.617 167.349Z" fill="white"/>
  <path opacity="0.1" d="M132.467 172.305C133.785 173.621 135.572 174.36 137.434 174.359H135.1C134.174 174.359 133.257 174.176 132.402 173.821C131.546 173.465 130.77 172.943 130.118 172.285C129.466 171.627 128.95 170.847 128.601 169.989C128.252 169.131 128.077 168.212 128.085 167.286C128.13 165.412 128.91 163.631 130.257 162.328C131.604 161.025 133.41 160.305 135.284 160.324H137.613C135.739 160.307 133.934 161.027 132.587 162.33C131.24 163.632 130.46 165.412 130.414 167.286C130.405 168.217 130.583 169.14 130.935 170.002C131.288 170.864 131.809 171.647 132.467 172.305Z" fill="white"/>
  <path opacity="0.1" d="M127.805 172.306C129.124 173.62 130.91 174.359 132.772 174.359H130.438C129.512 174.36 128.595 174.177 127.74 173.821C126.884 173.465 126.108 172.943 125.456 172.285C124.803 171.627 124.288 170.847 123.939 169.989C123.59 169.131 123.415 168.212 123.423 167.286C123.469 165.413 124.249 163.632 125.596 162.33C126.943 161.027 128.748 160.307 130.622 160.324H132.951C131.075 160.303 129.266 161.022 127.916 162.325C126.566 163.628 125.783 165.41 125.737 167.286C125.731 168.218 125.91 169.142 126.265 170.004C126.62 170.866 127.144 171.648 127.805 172.306Z" fill="white"/>
  <path d="M202.555 147.172H124.001V159.816H202.555V147.172Z" fill="#9663FE"/>
  <path opacity="0.8" d="M202.555 147.172H124.001V159.816H202.555V147.172Z" fill="white"/>
  <path opacity="0.2" d="M202.555 150.515V149.486L148.771 149.916L202.555 150.515Z" fill="black"/>
  <path opacity="0.2" d="M202.555 154.947V154.154L178.407 155.019L202.555 154.947Z" fill="black"/>
  <path opacity="0.2" d="M202.555 157.908V156.884L163.623 157.478L202.555 157.908Z" fill="black"/>
  <path opacity="0.2" d="M141.563 147.172L140.423 156.598L141.766 155.148C142.223 156.869 143.069 158.461 144.24 159.801C145.078 158.699 145.746 157.478 146.221 156.178L182.906 155.752L146.564 154.96C146.782 154.016 146.801 153.037 146.617 152.085L200.449 151.95L146.51 151.539C146.319 150.831 146.053 150.144 145.718 149.491C146.489 148.794 147.491 148.409 148.53 148.409H202.555V147.172H141.563Z" fill="black"/>
  <path d="M142.775 153.42C142.778 154.936 143.381 156.389 144.454 157.461C145.526 158.532 146.98 159.135 148.495 159.136H203.463C203.574 159.136 203.681 159.18 203.76 159.259C203.839 159.338 203.883 159.445 203.883 159.556V160.01C203.883 160.122 203.839 160.229 203.76 160.308C203.681 160.386 203.574 160.431 203.463 160.431H122.295C121.369 160.431 120.452 160.248 119.597 159.892C118.742 159.536 117.966 159.015 117.314 158.358C116.661 157.701 116.145 156.921 115.795 156.064C115.445 155.206 115.268 154.288 115.275 153.362C115.319 151.492 116.095 149.714 117.437 148.41C118.779 147.106 120.578 146.381 122.449 146.391H203.463C203.518 146.391 203.573 146.402 203.625 146.423C203.676 146.445 203.723 146.476 203.762 146.516C203.801 146.555 203.832 146.602 203.852 146.654C203.873 146.705 203.884 146.76 203.883 146.816V147.265C203.883 147.377 203.839 147.484 203.76 147.562C203.681 147.641 203.574 147.686 203.463 147.686H148.665C145.514 147.69 142.77 150.256 142.775 153.42Z" fill="#263238"/>
  <path opacity="0.4" d="M142.775 153.42C142.778 154.936 143.381 156.389 144.454 157.461C145.526 158.532 146.98 159.135 148.495 159.136H203.463C203.574 159.136 203.681 159.18 203.76 159.259C203.839 159.338 203.883 159.445 203.883 159.556V160.01C203.883 160.122 203.839 160.229 203.76 160.308C203.681 160.386 203.574 160.431 203.463 160.431H122.295C121.369 160.431 120.452 160.248 119.597 159.892C118.742 159.536 117.966 159.015 117.314 158.358C116.661 157.701 116.145 156.921 115.795 156.064C115.445 155.206 115.268 154.288 115.275 153.362C115.319 151.492 116.095 149.714 117.437 148.41C118.779 147.106 120.578 146.381 122.449 146.391H203.463C203.518 146.391 203.573 146.402 203.625 146.423C203.676 146.445 203.723 146.476 203.762 146.516C203.801 146.555 203.832 146.602 203.852 146.654C203.873 146.705 203.884 146.76 203.883 146.816V147.265C203.883 147.377 203.839 147.484 203.76 147.562C203.681 147.641 203.574 147.686 203.463 147.686H148.665C145.514 147.69 142.77 150.256 142.775 153.42Z" fill="white"/>
  <path d="M142.775 153.42C142.778 154.935 143.381 156.388 144.454 157.46C145.526 158.531 146.979 159.134 148.495 159.135H203.463C203.574 159.135 203.681 159.179 203.76 159.258C203.839 159.337 203.883 159.444 203.883 159.555V160.01C203.883 160.121 203.839 160.228 203.76 160.307C203.681 160.386 203.574 160.43 203.463 160.43H148.181C147.255 160.43 146.339 160.247 145.484 159.891C144.629 159.535 143.853 159.014 143.2 158.357C142.548 157.7 142.032 156.92 141.682 156.063C141.332 155.206 141.155 154.288 141.161 153.362C141.206 151.487 141.985 149.705 143.332 148.401C144.679 147.096 146.485 146.374 148.36 146.39H203.463C203.518 146.39 203.573 146.401 203.625 146.422C203.676 146.444 203.722 146.475 203.762 146.515C203.801 146.554 203.831 146.601 203.852 146.653C203.873 146.704 203.884 146.759 203.883 146.815V147.264C203.883 147.376 203.839 147.483 203.76 147.562C203.681 147.64 203.574 147.685 203.463 147.685H148.665C145.514 147.69 142.77 150.255 142.775 153.42Z" fill="#263238"/>
  <path d="M153.124 150.013V155.086L154.96 153.25L156.738 155.028V150.013H153.124Z" fill="#9663FE"/>
  <path opacity="0.6" d="M142.775 153.42C142.778 154.935 143.381 156.388 144.454 157.46C145.526 158.531 146.979 159.134 148.495 159.135H203.463C203.574 159.135 203.681 159.179 203.76 159.258C203.839 159.337 203.883 159.444 203.883 159.555V160.01C203.883 160.121 203.839 160.228 203.76 160.307C203.681 160.386 203.574 160.43 203.463 160.43H148.181C147.255 160.43 146.339 160.247 145.484 159.891C144.629 159.535 143.853 159.014 143.2 158.357C142.548 157.7 142.032 156.92 141.682 156.063C141.332 155.206 141.155 154.288 141.161 153.362C141.206 151.487 141.985 149.705 143.332 148.401C144.679 147.096 146.485 146.374 148.36 146.39H203.463C203.518 146.39 203.573 146.401 203.625 146.422C203.676 146.444 203.722 146.475 203.762 146.515C203.801 146.554 203.831 146.601 203.852 146.653C203.873 146.704 203.884 146.759 203.883 146.815V147.264C203.883 147.376 203.839 147.483 203.76 147.562C203.681 147.64 203.574 147.685 203.463 147.685H148.665C145.514 147.69 142.77 150.255 142.775 153.42Z" fill="white"/>
  <path opacity="0.2" d="M138.616 150.114H120.677C120.22 150.5 119.853 150.981 119.601 151.524C119.349 152.066 119.219 152.657 119.219 153.255C119.219 153.853 119.349 154.443 119.601 154.986C119.853 155.528 120.22 156.009 120.677 156.395H138.616C137.456 154.81 137.456 151.704 138.616 150.114Z" fill="black"/>
  <path d="M195.531 105.391H166.427V118.015H195.531V105.391Z" fill="#9663FE"/>
  <path opacity="0.7" d="M195.531 105.391H166.427V118.015H195.531V105.391Z" fill="white"/>
  <path opacity="0.2" d="M168.76 106.627H195.531V105.391H168.789L168.76 106.627Z" fill="black"/>
  <path opacity="0.2" d="M168.76 107.706L192.912 108.218L168.76 108.735V107.706Z" fill="black"/>
  <path opacity="0.2" d="M168.76 112.372L194.337 112.802L168.76 113.164V112.372Z" fill="black"/>
  <path opacity="0.2" d="M168.76 115.102L194.105 115.614L168.76 116.126V115.102Z" fill="black"/>
  <path opacity="0.2" d="M195.529 109.503L171.01 110.242L195.529 110.754V109.503Z" fill="black"/>
  <path d="M130.567 111.638C130.57 113.154 131.173 114.607 132.246 115.678C133.318 116.749 134.772 117.352 136.287 117.353H196.874C196.985 117.353 197.092 117.397 197.171 117.476C197.25 117.555 197.294 117.662 197.294 117.773V118.228C197.294 118.339 197.25 118.446 197.171 118.525C197.092 118.604 196.985 118.648 196.874 118.648H135.998C135.072 118.651 134.155 118.471 133.3 118.118C132.444 117.765 131.667 117.246 131.013 116.591C130.359 115.936 129.841 115.159 129.489 114.303C129.137 113.447 128.959 112.529 128.963 111.604C129.007 109.731 129.787 107.95 131.133 106.647C132.479 105.343 134.283 104.621 136.157 104.637H196.874C196.985 104.637 197.092 104.681 197.171 104.76C197.25 104.839 197.294 104.946 197.294 105.057V105.511C197.294 105.623 197.25 105.73 197.171 105.809C197.092 105.888 196.985 105.932 196.874 105.932H136.481C133.311 105.908 130.567 108.488 130.567 111.638Z" fill="#9663FE"/>
  <path opacity="0.4" d="M130.567 111.638C130.57 113.154 131.173 114.607 132.246 115.678C133.318 116.749 134.772 117.352 136.287 117.353H196.874C196.985 117.353 197.092 117.397 197.171 117.476C197.25 117.555 197.294 117.662 197.294 117.773V118.228C197.294 118.339 197.25 118.446 197.171 118.525C197.092 118.604 196.985 118.648 196.874 118.648H135.998C135.072 118.651 134.155 118.471 133.3 118.118C132.444 117.765 131.667 117.246 131.013 116.591C130.359 115.936 129.841 115.159 129.489 114.303C129.137 113.447 128.959 112.529 128.963 111.604C129.007 109.731 129.787 107.95 131.133 106.647C132.479 105.343 134.283 104.621 136.157 104.637H196.874C196.985 104.637 197.092 104.681 197.171 104.76C197.25 104.839 197.294 104.946 197.294 105.057V105.511C197.294 105.623 197.25 105.73 197.171 105.809C197.092 105.888 196.985 105.932 196.874 105.932H136.481C133.311 105.908 130.567 108.488 130.567 111.638Z" fill="white"/>
  <path d="M108.477 111.715C108.478 113.391 109.145 114.999 110.331 116.184C111.517 117.369 113.124 118.034 114.801 118.034H168.758V105.391H114.801C113.124 105.391 111.515 106.057 110.329 107.243C109.143 108.429 108.477 110.038 108.477 111.715Z" fill="#9663FE"/>
  <path opacity="0.5" d="M168.758 105.391V118.034H114.796C113.15 117.989 111.586 117.303 110.437 116.122C109.289 114.942 108.646 113.36 108.646 111.712C108.646 110.065 109.289 108.483 110.437 107.303C111.586 106.122 113.15 105.436 114.796 105.391H168.758Z" fill="white"/>
  <path opacity="0.2" d="M168.759 108.735V107.706L114.971 108.136L168.759 108.735Z" fill="black"/>
  <path opacity="0.2" d="M168.759 113.164V112.372L144.611 113.237L168.759 113.164Z" fill="black"/>
  <path opacity="0.2" d="M168.759 116.126V115.102L129.827 115.696L168.759 116.126Z" fill="black"/>
  <path opacity="0.2" d="M114.709 106.627C113.671 106.63 112.671 107.014 111.897 107.705C112.236 108.359 112.503 109.047 112.694 109.758L166.652 110.179L112.82 110.314C112.903 110.749 112.946 111.19 112.95 111.633C112.946 112.156 112.884 112.678 112.767 113.188L149.109 113.986L112.424 114.411C112.111 115.288 111.702 116.129 111.206 116.918C110.097 116.152 109.262 115.052 108.822 113.777C108.383 112.503 108.362 111.122 108.763 109.835C109.163 108.548 109.965 107.422 111.05 106.623C112.136 105.823 113.448 105.392 114.796 105.391H168.758V106.627H114.709Z" fill="black"/>
  <path d="M108.979 111.638C108.979 112.389 109.127 113.132 109.415 113.826C109.702 114.52 110.124 115.15 110.655 115.681C111.186 116.212 111.817 116.633 112.511 116.919C113.205 117.206 113.949 117.354 114.699 117.353H169.667C169.778 117.353 169.885 117.397 169.964 117.476C170.043 117.555 170.087 117.662 170.087 117.773V118.228C170.087 118.339 170.043 118.446 169.964 118.525C169.885 118.604 169.778 118.648 169.667 118.648H114.385C113.462 118.647 112.549 118.463 111.696 118.109C110.844 117.754 110.07 117.234 109.419 116.58C108.768 115.926 108.252 115.149 107.902 114.295C107.551 113.442 107.372 112.527 107.375 111.604C107.421 109.73 108.201 107.95 109.548 106.646C110.895 105.343 112.7 104.621 114.574 104.637H169.667C169.778 104.637 169.885 104.681 169.964 104.76C170.043 104.839 170.087 104.946 170.087 105.057V105.511C170.087 105.623 170.043 105.73 169.964 105.809C169.885 105.888 169.778 105.932 169.667 105.932H114.869C113.337 105.929 111.865 106.523 110.765 107.589C109.665 108.654 109.024 110.107 108.979 111.638Z" fill="#9663FE"/>
  <path d="M114.971 110.034V115.102L116.807 113.266L118.585 115.044V110.034H114.971Z" fill="#263238"/>
  <path d="M209.353 119.319H130.799V131.963H209.353V119.319Z" fill="#9663FE"/>
  <path opacity="0.7" d="M209.353 119.319H130.799V131.963H209.353V119.319Z" fill="white"/>
  <path opacity="0.2" d="M209.353 122.658V121.629L155.569 122.064L209.353 122.658Z" fill="black"/>
  <path opacity="0.2" d="M209.353 127.093V126.301L185.21 127.161L209.353 127.093Z" fill="black"/>
  <path opacity="0.2" d="M209.354 130.055V129.03L170.427 129.625L209.354 130.055Z" fill="black"/>
  <path opacity="0.2" d="M148.362 119.334L147.222 128.76L148.565 127.311C149.021 129.031 149.868 130.623 151.039 131.963C151.876 130.859 152.544 129.636 153.019 128.335L189.709 127.915L153.367 127.122C153.48 126.608 153.54 126.083 153.546 125.557C153.542 125.116 153.498 124.676 153.416 124.243L207.247 124.107L153.275 123.682C153.084 122.972 152.818 122.284 152.483 121.629C153.255 120.935 154.257 120.551 155.295 120.551H209.354V119.334H148.362Z" fill="black"/>
  <path d="M149.573 125.566C149.575 127.082 150.179 128.535 151.252 129.607C152.324 130.678 153.777 131.28 155.293 131.282H210.285C210.34 131.282 210.395 131.293 210.446 131.314C210.497 131.335 210.543 131.366 210.582 131.405C210.621 131.444 210.652 131.49 210.673 131.541C210.694 131.592 210.705 131.647 210.705 131.702V132.156C210.705 132.211 210.694 132.266 210.673 132.317C210.652 132.368 210.621 132.414 210.582 132.453C210.543 132.492 210.497 132.523 210.446 132.545C210.395 132.566 210.34 132.577 210.285 132.577H124.768C123.842 132.576 122.926 132.392 122.071 132.036C121.216 131.679 120.441 131.157 119.789 130.5C119.137 129.843 118.621 129.063 118.272 128.205C117.922 127.347 117.746 126.429 117.753 125.503C117.796 123.63 118.575 121.849 119.922 120.546C121.268 119.243 123.074 118.523 124.947 118.541H210.285C210.34 118.541 210.395 118.552 210.446 118.573C210.497 118.594 210.543 118.625 210.582 118.664C210.621 118.704 210.652 118.75 210.673 118.801C210.694 118.852 210.705 118.906 210.705 118.962V119.416C210.705 119.471 210.694 119.526 210.673 119.577C210.652 119.628 210.621 119.674 210.582 119.713C210.543 119.752 210.497 119.783 210.446 119.804C210.395 119.825 210.34 119.836 210.285 119.836H155.462C153.927 119.833 152.451 120.431 151.351 121.502C150.25 122.572 149.612 124.031 149.573 125.566Z" fill="#263238"/>
  <path opacity="0.2" d="M149.573 125.566C149.575 127.082 150.179 128.535 151.252 129.607C152.324 130.678 153.777 131.28 155.293 131.282H210.285C210.34 131.282 210.395 131.293 210.446 131.314C210.497 131.335 210.543 131.366 210.582 131.405C210.621 131.444 210.652 131.49 210.673 131.541C210.694 131.592 210.705 131.647 210.705 131.702V132.156C210.705 132.211 210.694 132.266 210.673 132.317C210.652 132.368 210.621 132.414 210.582 132.453C210.543 132.492 210.497 132.523 210.446 132.545C210.395 132.566 210.34 132.577 210.285 132.577H124.768C123.842 132.576 122.926 132.392 122.071 132.036C121.216 131.679 120.441 131.157 119.789 130.5C119.137 129.843 118.621 129.063 118.272 128.205C117.922 127.347 117.746 126.429 117.753 125.503C117.796 123.63 118.575 121.849 119.922 120.546C121.268 119.243 123.074 118.523 124.947 118.541H210.285C210.34 118.541 210.395 118.552 210.446 118.573C210.497 118.594 210.543 118.625 210.582 118.664C210.621 118.704 210.652 118.75 210.673 118.801C210.694 118.852 210.705 118.906 210.705 118.962V119.416C210.705 119.471 210.694 119.526 210.673 119.577C210.652 119.628 210.621 119.674 210.582 119.713C210.543 119.752 210.497 119.783 210.446 119.804C210.395 119.825 210.34 119.836 210.285 119.836H155.462C153.927 119.833 152.451 120.431 151.351 121.502C150.25 122.572 149.612 124.031 149.573 125.566Z" fill="white"/>
  <path d="M149.574 125.566C149.576 127.082 150.18 128.535 151.252 129.607C152.325 130.678 153.778 131.28 155.294 131.282H210.286C210.341 131.282 210.395 131.293 210.446 131.314C210.497 131.335 210.544 131.366 210.583 131.405C210.622 131.444 210.653 131.49 210.674 131.541C210.695 131.592 210.706 131.647 210.706 131.702V132.156C210.706 132.211 210.695 132.266 210.674 132.317C210.653 132.368 210.622 132.414 210.583 132.453C210.544 132.492 210.497 132.523 210.446 132.544C210.395 132.566 210.341 132.576 210.286 132.576H154.98C154.054 132.577 153.137 132.393 152.281 132.037C151.426 131.681 150.65 131.159 149.997 130.502C149.345 129.844 148.829 129.064 148.479 128.206C148.13 127.348 147.953 126.43 147.96 125.503C148.005 123.631 148.784 121.85 150.13 120.548C151.476 119.245 153.281 118.524 155.154 118.541H210.286C210.341 118.541 210.395 118.552 210.446 118.573C210.497 118.594 210.544 118.625 210.583 118.664C210.622 118.703 210.653 118.75 210.674 118.801C210.695 118.852 210.706 118.906 210.706 118.962V119.416C210.706 119.471 210.695 119.526 210.674 119.577C210.653 119.628 210.622 119.674 210.583 119.713C210.544 119.752 210.497 119.783 210.446 119.804C210.395 119.825 210.341 119.836 210.286 119.836H155.463C153.928 119.833 152.452 120.431 151.352 121.502C150.251 122.572 149.613 124.031 149.574 125.566Z" fill="#263238"/>
  <path d="M155.569 123.963V129.031L157.405 127.195L159.183 128.973V123.963H155.569Z" fill="#9663FE"/>
  <path opacity="0.4" d="M149.574 125.566C149.576 127.082 150.18 128.535 151.252 129.607C152.325 130.678 153.778 131.28 155.294 131.282H210.286C210.341 131.282 210.395 131.293 210.446 131.314C210.497 131.335 210.544 131.366 210.583 131.405C210.622 131.444 210.653 131.49 210.674 131.541C210.695 131.592 210.706 131.647 210.706 131.702V132.156C210.706 132.211 210.695 132.266 210.674 132.317C210.653 132.368 210.622 132.414 210.583 132.453C210.544 132.492 210.497 132.523 210.446 132.544C210.395 132.566 210.341 132.576 210.286 132.576H154.98C154.054 132.577 153.137 132.393 152.281 132.037C151.426 131.681 150.65 131.159 149.997 130.502C149.345 129.844 148.829 129.064 148.479 128.206C148.13 127.348 147.953 126.43 147.96 125.503C148.005 123.631 148.784 121.85 150.13 120.548C151.476 119.245 153.281 118.524 155.154 118.541H210.286C210.341 118.541 210.395 118.552 210.446 118.573C210.497 118.594 210.544 118.625 210.583 118.664C210.622 118.703 210.653 118.75 210.674 118.801C210.695 118.852 210.706 118.906 210.706 118.962V119.416C210.706 119.471 210.695 119.526 210.674 119.577C210.653 119.628 210.622 119.674 210.583 119.713C210.544 119.752 210.497 119.783 210.446 119.804C210.395 119.825 210.341 119.836 210.286 119.836H155.463C153.928 119.833 152.452 120.431 151.352 121.502C150.251 122.572 149.613 124.031 149.574 125.566Z" fill="white"/>
  <path opacity="0.2" d="M129.116 130.518C129.768 131.172 130.542 131.69 131.394 132.043C132.247 132.396 133.16 132.577 134.083 132.577H129.421C128.495 132.576 127.578 132.392 126.723 132.036C125.869 131.679 125.093 131.157 124.441 130.5C123.789 129.843 123.273 129.063 122.924 128.205C122.575 127.347 122.398 126.429 122.405 125.503C122.449 123.63 123.228 121.849 124.574 120.546C125.92 119.243 127.726 118.523 129.599 118.541H134.257C132.384 118.524 130.579 119.245 129.233 120.548C127.887 121.851 127.107 123.631 127.063 125.503C127.054 126.434 127.231 127.357 127.584 128.218C127.937 129.079 128.458 129.861 129.116 130.518Z" fill="white"/>
  <path d="M60.558 77.9814H70.018C70.7868 77.9814 71.5241 78.2869 72.0678 78.8305C72.6114 79.3741 72.9168 80.1115 72.9168 80.8803V89.0936C72.9168 89.8624 72.6114 90.5998 72.0678 91.1434C71.5241 91.687 70.7868 91.9924 70.018 91.9924H69.588L70.0373 94.239L67.6216 91.9924H60.558C59.7892 91.9924 59.0519 91.687 58.5082 91.1434C57.9646 90.5998 57.6592 89.8624 57.6592 89.0936V80.8803C57.6592 80.1115 57.9646 79.3741 58.5082 78.8305C59.0519 78.2869 59.7892 77.9814 60.558 77.9814Z" fill="#9663FE"/>
  <path d="M69.9861 84.9783C69.9861 85.9071 69.7106 86.8151 69.1946 87.5873C68.6786 88.3596 67.9451 88.9615 67.087 89.317C66.2289 89.6724 65.2847 89.7654 64.3737 89.5842C63.4628 89.403 62.626 88.9557 61.9692 88.299C61.3125 87.6422 60.8652 86.8055 60.684 85.8945C60.5028 84.9835 60.5958 84.0393 60.9512 83.1812C61.3067 82.3231 61.9086 81.5897 62.6809 81.0737C63.4531 80.5577 64.3611 80.2822 65.2899 80.2822C66.5354 80.2822 67.7299 80.777 68.6106 81.6577C69.4913 82.5384 69.9861 83.7328 69.9861 84.9783Z" fill="white"/>
  <path d="M64.7968 87.0751C64.7346 87.0742 64.6733 87.0604 64.6168 87.0347C64.5602 87.0089 64.5097 86.9716 64.4682 86.9253L62.6226 84.7512C62.5489 84.6634 62.5132 84.55 62.5231 84.4358C62.5331 84.3216 62.588 84.2161 62.6758 84.1424C62.7635 84.0688 62.877 84.033 62.9912 84.0429C63.1053 84.0529 63.2109 84.1078 63.2845 84.1956L64.7968 85.9784L67.2946 83.0312C67.3694 82.9448 67.4752 82.8913 67.5891 82.8822C67.703 82.8732 67.8159 82.9094 67.9034 82.9829C67.9467 83.0196 67.9824 83.0645 68.0083 83.115C68.0342 83.1655 68.0499 83.2206 68.0544 83.2772C68.0589 83.3338 68.0521 83.3907 68.0345 83.4447C68.0169 83.4987 67.9887 83.5486 67.9517 83.5917L65.1253 86.9253C65.0839 86.9716 65.0333 87.0089 64.9767 87.0347C64.9202 87.0604 64.8589 87.0742 64.7968 87.0751Z" fill="#9663FE"/>
  <path d="M116.229 133.212H97.2129C95.3344 133.212 93.8115 134.735 93.8115 136.613V168.336C93.8115 170.215 95.3344 171.737 97.2129 171.737H116.229C118.108 171.737 119.631 170.215 119.631 168.336V136.613C119.631 134.735 118.108 133.212 116.229 133.212Z" fill="#9663FE"/>
  <path opacity="0.5" d="M116.229 133.212H97.2129C95.3344 133.212 93.8115 134.735 93.8115 136.613V168.336C93.8115 170.215 95.3344 171.737 97.2129 171.737H116.229C118.108 171.737 119.631 170.215 119.631 168.336V136.613C119.631 134.735 118.108 133.212 116.229 133.212Z" fill="white"/>
  <path opacity="0.1" d="M114.335 171.737H97.0872C96.6567 171.737 96.2303 171.652 95.8326 171.488C95.4348 171.323 95.0735 171.081 94.7693 170.776C94.465 170.472 94.2238 170.11 94.0595 169.712C93.8952 169.314 93.8109 168.887 93.8115 168.457V136.488C93.8109 136.057 93.8952 135.631 94.0596 135.233C94.224 134.836 94.4652 134.474 94.7695 134.17C95.0738 133.866 95.4352 133.624 95.8329 133.46C96.2306 133.296 96.6569 133.211 97.0872 133.212H114.335C113.467 133.212 112.633 133.557 112.019 134.171C111.405 134.786 111.06 135.619 111.06 136.488V168.457C111.06 169.326 111.405 170.16 112.019 170.775C112.633 171.39 113.466 171.736 114.335 171.737Z" fill="black"/>
  <path d="M60.4979 174.359H115.668V170.736H60.4979V174.359Z" fill="#263238"/>
  <path opacity="0.2" d="M60.4979 174.359H115.668V170.736H60.4979V174.359Z" fill="white"/>
  <path opacity="0.2" d="M84.3893 174.359H115.668V170.736H84.3893V174.359Z" fill="white"/>
  <path d="M98.8834 150.117H58.169L51.9654 118.075C51.8049 117.253 51.8285 116.405 52.0345 115.593C52.2405 114.781 52.6237 114.024 53.1567 113.378C53.6897 112.731 54.3592 112.21 55.1172 111.853C55.8752 111.496 56.7029 111.311 57.5409 111.312H86.6889C88.0078 111.311 89.2858 111.77 90.3032 112.609C91.3206 113.449 92.014 114.616 92.2644 115.911L98.8834 150.117Z" fill="#9663FE"/>
  <path opacity="0.6" d="M98.8834 150.117H58.169L51.9654 118.075C51.8049 117.253 51.8285 116.405 52.0345 115.593C52.2405 114.781 52.6237 114.024 53.1567 113.378C53.6897 112.731 54.3592 112.21 55.1172 111.853C55.8752 111.496 56.7029 111.311 57.5409 111.312H86.6889C88.0078 111.311 89.2858 111.77 90.3032 112.609C91.3206 113.449 92.014 114.616 92.2644 115.911L98.8834 150.117Z" fill="white"/>
  <path opacity="0.1" d="M69.7354 150.117H58.169L51.9654 118.075C51.8049 117.253 51.8285 116.405 52.0345 115.593C52.2405 114.781 52.6237 114.024 53.1567 113.378C53.6897 112.731 54.3592 112.21 55.1172 111.853C55.8752 111.496 56.7029 111.311 57.5409 111.312C58.859 111.312 60.1358 111.772 61.1522 112.611C62.1686 113.45 62.8614 114.617 63.1115 115.911L69.7354 150.117Z" fill="black"/>
  <path d="M117.165 149.726H59.4872C57.9075 149.726 56.627 151.006 56.627 152.586V168.877C56.627 170.457 57.9075 171.737 59.4872 171.737H117.165C118.744 171.737 120.025 170.457 120.025 168.877V152.586C120.025 151.006 118.744 149.726 117.165 149.726Z" fill="#9663FE"/>
  <path opacity="0.6" d="M117.165 149.726H59.4872C57.9075 149.726 56.627 151.006 56.627 152.586V168.877C56.627 170.457 57.9075 171.737 59.4872 171.737H117.165C118.744 171.737 120.025 170.457 120.025 168.877V152.586C120.025 151.006 118.744 149.726 117.165 149.726Z" fill="white"/>
  <path opacity="0.1" d="M84.1709 149.726H59.4872C57.9075 149.726 56.627 151.006 56.627 152.586V168.877C56.627 170.457 57.9075 171.737 59.4872 171.737H84.1709C85.7506 171.737 87.0311 170.457 87.0311 168.877V152.586C87.0311 151.006 85.7506 149.726 84.1709 149.726Z" fill="black"/>
  <path d="M90.2904 105.026C94.4696 106.031 97.1897 110.109 100.678 111.814C100.721 111.853 100.639 111.911 100.678 111.954L99.0595 113.273C98.8048 113.635 98.6605 114.063 98.644 114.505C98.644 114.752 98.7019 114.814 98.7213 114.781C98.7349 114.505 98.6836 114.231 98.5715 113.979C97.9531 112.206 96.7549 110.22 95.7354 108.495C95.146 107.5 94.5034 106.485 93.9285 105.495C93.6715 105.051 93.5724 104.534 93.6476 104.027C93.7227 103.519 93.9676 103.053 94.3423 102.703C94.7169 102.353 95.1991 102.14 95.7101 102.1C96.2212 102.059 96.7308 102.193 97.1559 102.48C98.1837 103.18 99.1695 103.94 100.108 104.756C102.968 107.365 106.679 110.872 106.587 115.153C106.587 116.563 105.592 118.752 103.992 119.337C98.1657 122.173 92.653 117.095 88.4786 113.988C88.3144 113.877 88.1743 113.795 88.1018 113.752C88.0293 113.708 88.0245 113.708 88.1936 113.752C82.4732 112.123 84.4686 103.867 90.3049 105.055L90.2904 105.026Z" fill="#263238"/>
  <path opacity="0.2" d="M97.7583 116.437C97.2171 116.389 96.7098 116.316 96.2074 116.229C95.7049 116.142 95.1155 116.031 94.584 115.915C94.0525 115.799 93.5501 115.659 93.0428 115.524C92.0282 115.253 91.0474 114.92 90.0811 114.557L89.9941 114.524C90.4926 113.525 91.2828 112.701 92.2601 112.161C92.2601 112.161 95.2218 113.094 97.7583 116.437Z" fill="black"/>
  <path d="M116.408 164.848L122.322 165.282L122.138 172.273L117.201 171.921L116.408 164.848Z" fill="#E4897B"/>
  <path opacity="0.2" d="M116.414 164.853L122.323 165.283L122.221 169.201L116.854 168.809L116.414 164.853Z" fill="black"/>
  <path d="M116.495 174.36H117.785L118.133 173.838L118.809 174.365H126.583C126.631 173.753 126.516 173.14 126.25 172.587C126.25 172.587 123.921 172.379 123.027 171.219C122.994 171.175 122.95 171.141 122.898 171.122C122.847 171.102 122.791 171.097 122.737 171.108C121.964 171.273 118.872 171.857 117.201 171.253C117.159 171.237 117.114 171.231 117.069 171.236C117.025 171.24 116.982 171.256 116.945 171.28C116.907 171.305 116.877 171.338 116.855 171.377C116.833 171.416 116.82 171.46 116.819 171.504C116.784 172.463 116.676 173.418 116.495 174.36Z" fill="#263238"/>
  <path d="M84.0165 134.632C84.0165 134.632 75.2184 151.059 85.6543 151.059C98.791 151.059 111.3 147.749 111.3 147.749C111.3 147.749 110.584 154.755 115.648 168.041L122.745 167.983C122.745 167.983 125.509 139.434 120.214 134.646C115.952 130.781 100.82 132.023 100.82 132.023L84.0165 134.632Z" fill="#9663FE"/>
  <path opacity="0.2" d="M112.86 157.218C112.768 157.566 112.681 157.905 112.59 158.238C110.932 151.319 111.3 147.73 111.3 147.73C111.3 147.73 98.791 151.039 85.6543 151.039C79.3058 151.039 80.074 144.971 81.6539 140.212C86.1278 137.371 90.8336 134.796 94.2156 133.042L100.82 132.013C100.82 132.013 103.54 131.786 107.004 131.825C112.126 134.11 117.034 140.41 112.86 157.218Z" fill="black"/>
  <path d="M100.436 132.241C92.8022 136.459 73.3122 135.285 69.8336 134.695C69.4036 128.946 68.8673 119.756 67.0555 112.954C66.8542 112.226 66.8034 111.464 66.9062 110.716C67.009 109.967 67.2633 109.247 67.6534 108.6C68.0436 107.953 68.5616 107.393 69.1756 106.953C69.7897 106.512 70.487 106.202 71.225 106.04C76.6334 104.98 82.1426 104.521 87.6519 104.673C89.5845 104.741 91.6523 105.678 92.2708 107.509C95.0971 115.954 99.6097 122.8 100.436 132.241Z" fill="#263238"/>
  <path d="M82.8569 109.083C79.6537 109.247 76.8708 106.518 75.373 105.571C76.9916 104.44 77.7888 102.411 78.0883 101.285C78.2284 100.802 78.2864 100.464 78.2864 100.464L83.7266 102.88C83.4201 103.565 83.362 104.335 83.5623 105.059C84.2433 105.362 84.7814 105.915 85.0649 106.605C85.063 106.621 85.063 106.637 85.0649 106.653C85.4852 107.764 86.0167 108.924 82.8569 109.083Z" fill="#E4897B"/>
  <path opacity="0.2" d="M85.0858 106.658C81.8439 107.996 78.6696 104.083 78.0898 101.285C78.23 100.802 78.2879 100.464 78.2879 100.464L83.7281 102.88C83.4217 103.565 83.3636 104.335 83.5639 105.059C84.2449 105.362 84.783 105.915 85.0664 106.605C85.0704 106.623 85.0769 106.641 85.0858 106.658Z" fill="black"/>
  <path d="M83.0523 109.073L81.8444 107.996L79.9795 108.929C79.9795 108.929 81.0038 109.972 83.0523 109.073Z" fill="#9663FE"/>
  <path opacity="0.5" d="M83.0523 109.073L81.8444 107.996L79.9795 108.929C79.9795 108.929 81.0038 109.972 83.0523 109.073Z" fill="white"/>
  <path d="M76.146 104.773C76.146 104.773 78.4409 107.909 81.8422 107.996C81.2045 108.329 80.6409 108.788 80.1858 109.345C79.7307 109.903 79.3935 110.546 79.1946 111.238C77.9666 110.825 76.8874 110.059 76.0917 109.037C75.2961 108.014 74.8192 106.78 74.7207 105.488C74.8916 105.272 75.1077 105.096 75.354 104.973C75.6002 104.849 75.8706 104.781 76.146 104.773Z" fill="#9663FE"/>
  <path d="M83.0518 109.074L84.6655 107.692L86.5111 108.219C86.5111 108.219 84.9264 109.886 83.0518 109.074Z" fill="#9663FE"/>
  <path opacity="0.5" d="M83.0518 109.074L84.6655 107.692L86.5111 108.219C86.5111 108.219 84.9264 109.886 83.0518 109.074Z" fill="white"/>
  <path d="M83.5635 105.063C83.5635 105.063 84.7327 106.58 84.6844 107.691C86.2353 108.111 86.7667 110.445 86.7667 110.445C86.7667 110.445 87.3996 107.063 85.0757 105.319C84.6108 105.078 84.0819 104.988 83.5635 105.063Z" fill="#9663FE"/>
  <path opacity="0.8" d="M76.146 104.773C76.146 104.773 78.4409 107.909 81.8422 107.996C81.2045 108.329 80.6409 108.788 80.1858 109.345C79.7307 109.903 79.3935 110.546 79.1946 111.238C77.9666 110.825 76.8874 110.059 76.0917 109.037C75.2961 108.014 74.8192 106.78 74.7207 105.488C74.8916 105.272 75.1077 105.096 75.354 104.973C75.6002 104.849 75.8706 104.781 76.146 104.773Z" fill="white"/>
  <path opacity="0.8" d="M83.5635 105.063C83.5635 105.063 84.7327 106.58 84.6844 107.691C86.2353 108.111 86.7667 110.445 86.7667 110.445C86.7667 110.445 87.3996 107.063 85.0757 105.319C84.6108 105.078 84.0819 104.988 83.5635 105.063Z" fill="white"/>
  <path d="M105.082 165.408L110.976 164.799L112.02 171.713L107.097 172.229L105.082 165.408Z" fill="#E4897B"/>
  <path opacity="0.2" d="M105.082 165.412L110.981 164.799L111.566 168.674L106.213 169.229L105.082 165.412Z" fill="black"/>
  <path d="M106.241 174.359H107.526L107.879 173.838L108.555 174.364H116.329C116.376 173.752 116.259 173.139 115.991 172.586C115.991 172.586 113.667 172.379 112.768 171.219C112.736 171.175 112.693 171.142 112.642 171.122C112.592 171.102 112.537 171.097 112.483 171.108C111.71 171.272 108.618 171.857 106.942 171.253C106.9 171.236 106.856 171.23 106.811 171.235C106.767 171.24 106.725 171.255 106.688 171.28C106.65 171.304 106.62 171.338 106.599 171.377C106.577 171.416 106.566 171.46 106.565 171.504C106.53 172.463 106.422 173.417 106.241 174.359Z" fill="#263238"/>
  <path d="M70.0349 134.631C70.0349 134.631 66.3581 146.758 76.2481 150.092C86.138 153.426 95.9072 147.536 95.9072 147.536C95.9072 147.536 95.9072 150.092 104.72 168.862L112.02 167.485C112.02 167.485 109.445 139.39 106.222 134.631C103 129.873 86.8241 132.008 86.8241 132.008L70.0349 134.631Z" fill="#9663FE"/>
  <path d="M96.0046 101.85L94.3813 103.744C92.0815 105 90.9751 101.763 90.9751 101.763L89.2648 99.8303C89.0756 99.58 88.9815 99.2706 88.9992 98.9574C89.0169 98.6441 89.1453 98.3474 89.3614 98.12L90.4823 96.7865C90.6973 96.4991 91.0157 96.3067 91.3701 96.2498C91.7244 96.193 92.087 96.2763 92.3811 96.4821L94.1252 98.0475C94.4715 98.3342 94.7405 98.7029 94.9079 99.1201L96.0046 101.85Z" fill="#E4897B"/>
  <path opacity="0.2" d="M83.6442 123.35C83.6442 123.35 79.1751 132.467 69.8311 134.694C69.4591 129.718 69.0388 121.693 67.7246 115.726C69.5847 114.61 74.7205 113.407 74.7205 113.407C74.7387 115.641 75.2122 117.847 76.112 119.891C78.607 118.913 81.2185 118.264 83.8809 117.958C85.2434 117.784 83.6442 123.35 83.6442 123.35Z" fill="black"/>
  <path d="M74.2446 113.924C74.5095 113.719 74.7395 113.473 74.9259 113.195C74.979 113.108 74.9742 113.117 74.9645 113.156C74.9549 113.195 74.8679 113.426 74.8099 113.639C74.1142 116.494 73.6987 119.997 74.5394 122.819C74.6118 123.026 74.5973 122.997 74.4089 122.939L75.6796 124.099C75.4756 123.827 75.2234 123.594 74.9355 123.413C74.5297 123.089 73.4571 122.877 73.2252 123.051C73.1093 123.142 73.433 123.104 73.7518 122.993C76.4381 122.002 79.2017 120.021 81.7527 118.567C82.1937 118.319 82.705 118.224 83.2057 118.299C83.7064 118.374 84.1679 118.613 84.5172 118.98C84.8665 119.346 85.0836 119.818 85.1342 120.322C85.1847 120.826 85.0659 121.332 84.7965 121.761C82.3035 125.418 77.1532 131.882 72.0657 130.761C70.8747 130.47 69.8224 129.773 69.0895 128.79L70.3602 129.95C67.901 128.573 66.7076 126.321 66.0119 124.012C64.8724 119.755 64.9192 115.267 66.1472 111.035C66.6303 109.557 67.2487 108.049 68.5919 106.952C69.5176 106.242 70.684 105.92 71.8432 106.056C73.0024 106.191 74.063 106.774 74.7996 107.679C75.5362 108.584 75.8909 109.741 75.7881 110.904C75.6854 112.066 75.1334 113.143 74.2495 113.905L74.2446 113.924Z" fill="#263238"/>
  <path d="M93.4594 105.379L92.4932 104.297C93.8829 103.505 95.1493 102.513 96.252 101.354L97.9913 101.809C97.9913 101.809 96.4211 105.142 93.4594 105.379Z" fill="#9663FE"/>
  <path opacity="0.5" d="M93.4594 105.379L92.4932 104.297C93.8829 103.505 95.1493 102.513 96.252 101.354L97.9913 101.809C97.9913 101.809 96.4211 105.142 93.4594 105.379Z" fill="white"/>
  <path opacity="0.9" d="M105.484 106.082L104.083 110.382L99.1305 119.132C99.1305 119.132 87.0809 120.823 86.8104 117.276C86.564 114.097 87.3853 108.923 87.5593 107.884L87.5882 107.696C94.3281 108.353 98.6232 110.86 98.6232 110.86C100.715 107.502 105.484 106.082 105.484 106.082Z" fill="white"/>
  <path opacity="0.1" d="M105.484 106.082L104.083 110.382L99.1305 119.132C99.1305 119.132 87.0809 120.823 86.8104 117.276C86.564 114.097 87.3853 108.923 87.5593 107.884C92.4728 108.333 98.6281 111.314 98.6281 111.314C99.2996 109.189 105.484 106.082 105.484 106.082Z" fill="black"/>
  <path d="M103.957 120.302C103.957 120.302 101.725 121.34 97.9324 124.312C97.7152 124.485 97.4655 124.613 97.198 124.689C96.8418 124.796 96.4634 124.808 96.1012 124.722C92.8518 123.943 89.552 123.391 86.2258 123.07C86.2258 123.07 85.8006 114.857 86.68 108.75C86.68 108.75 93.444 109.334 98.6233 111.325C98.773 111.204 103.566 107.325 106.614 106.803C106.619 106.774 102.783 114.697 103.957 120.302Z" fill="#9663FE"/>
  <path opacity="0.1" d="M103.957 120.302C103.957 120.302 101.725 121.34 97.9326 124.312C97.7154 124.485 97.4657 124.613 97.1982 124.689C97.4205 121.355 98.0437 112.712 98.6235 111.325C98.7733 111.204 103.566 107.325 106.615 106.803C106.62 106.774 102.783 114.697 103.957 120.302Z" fill="black"/>
  <path d="M98.1928 111.151C98.5344 111.193 98.8794 111.105 99.159 110.904C99.159 110.904 98.4923 117.088 97.869 124.369C97.7536 124.598 97.5546 124.773 97.3135 124.858C97.0724 124.944 96.8077 124.933 96.5742 124.828C96.5742 124.828 97.2603 115.533 98.1928 111.151Z" fill="#9663FE"/>
  <path opacity="0.2" d="M98.1928 111.151C98.5344 111.193 98.8794 111.105 99.159 110.904C99.159 110.904 98.4923 117.088 97.869 124.369C97.7536 124.598 97.5546 124.773 97.3135 124.858C97.0724 124.944 96.8077 124.933 96.5742 124.828C96.5742 124.828 97.2603 115.533 98.1928 111.151Z" fill="white"/>
  <path opacity="0.7" d="M100.195 112.808C100.195 112.808 102.465 110.875 104.369 110.445L104.074 111.629C102.541 112.257 101.141 113.17 99.9482 114.32L100.195 112.808Z" fill="white"/>
  <path opacity="0.1" d="M87.8596 119.538C87.8596 119.538 93.6573 120.504 95.2517 121.05V123.394C95.2517 123.394 90.4203 122.321 87.792 122.041L87.8596 119.538Z" fill="black"/>
  <path opacity="0.7" d="M101.357 110.769L101.236 111.32C102 110.812 102.809 110.373 103.652 110.011L103.865 109.296C102.965 109.669 102.121 110.165 101.357 110.769Z" fill="white"/>
  <path d="M82.8584 118.533L83.3077 120.857C84.6122 122.978 87.0472 120.828 87.0472 120.828L88.632 120.268C88.9044 120.151 89.1267 119.941 89.2593 119.675C89.3919 119.41 89.4264 119.107 89.3567 118.818L89.0571 117.19C89.017 116.851 88.8459 116.542 88.5804 116.328C88.3149 116.114 87.9761 116.012 87.6367 116.045L86.1873 116.301C85.7665 116.378 85.3704 116.556 85.0325 116.818L82.8584 118.533Z" fill="#E4897B"/>
  <path d="M82.173 118.032L83.806 117.805C83.7587 119.291 84.0186 120.771 84.5694 122.153L83.5065 124.279C83.5065 124.279 80.8298 120.689 82.173 118.032Z" fill="#9663FE"/>
  <path opacity="0.5" d="M82.173 118.032L83.806 117.805C83.7587 119.291 84.0186 120.771 84.5694 122.153L83.5065 124.279C83.5065 124.279 80.8298 120.689 82.173 118.032Z" fill="white"/>
  <path d="M89.8161 98.1549L88.2555 97.9133C88.2398 97.9116 88.2246 97.9066 88.2108 97.8988C88.197 97.8909 88.185 97.8803 88.1755 97.8676C88.166 97.855 88.1592 97.8405 88.1555 97.8251C88.1518 97.8096 88.1513 97.7936 88.1541 97.778C88.1564 97.7621 88.1619 97.7468 88.1703 97.733C88.1787 97.7192 88.1897 97.7072 88.2027 97.6977C88.2158 97.6883 88.2306 97.6816 88.2463 97.6779C88.262 97.6743 88.2783 97.6738 88.2942 97.6766L89.8499 97.9181C89.8657 97.9199 89.8809 97.9248 89.8947 97.9327C89.9084 97.9405 89.9204 97.9511 89.9299 97.9638C89.9394 97.9765 89.9462 97.991 89.9499 98.0064C89.9536 98.0218 89.9541 98.0378 89.9514 98.0534C89.9466 98.0847 89.9297 98.1128 89.9045 98.1318C89.8792 98.1507 89.8474 98.159 89.8161 98.1549Z" fill="#263238"/>
  <path d="M89.9516 95.9664C89.4684 97.5705 88.3041 99.073 87.188 98.1019C86.969 97.876 86.8153 97.595 86.743 97.2889C86.6707 96.9827 86.6825 96.6626 86.7773 96.3626C87.1059 94.7006 88.6616 92.7149 88.6616 92.7149C88.6616 92.7149 89.7535 92.1738 90.1448 93.9034C90.2459 94.5967 90.1796 95.304 89.9516 95.9664Z" fill="#263238"/>
  <path opacity="0.5" d="M89.9516 95.9665C89.4684 97.5706 88.3041 99.0731 87.188 98.102C86.969 97.8761 86.8153 97.5951 86.743 97.2889C86.6707 96.9828 86.6825 96.6627 86.7773 96.3627C87.3239 95.9338 87.904 95.5493 88.5118 95.2128C88.5118 95.2128 89.2027 94.9471 89.9516 95.9665Z" fill="white"/>
  <path d="M86.5987 91.439C83.1587 89.2117 78.767 91.1104 78.2258 94.7726C77.6847 98.4348 77.3997 100.933 79.3129 102.986C83.1152 107.02 86.217 105.658 87.9225 102.256C89.4299 99.174 90.058 93.7 86.5987 91.439Z" fill="#E4897B"/>
  <path opacity="0.2" d="M83.589 97.1834C83.1893 96.9101 82.6984 96.8043 82.2217 96.8887C82.6538 97.0753 83.1183 97.1754 83.589 97.1834Z" fill="black"/>
  <path opacity="0.2" d="M83.4953 97.507C83.2935 97.4227 83.0757 97.3834 82.8571 97.3917C82.6385 97.4001 82.4243 97.4559 82.2295 97.5553C82.65 97.6301 83.0817 97.6136 83.4953 97.507Z" fill="black"/>
  <path d="M88.6666 94.2122C87.7003 95.5891 85.2218 93.2459 83.1153 92.3618C82.9458 92.2889 82.7619 92.2556 82.5776 92.2643C82.3933 92.273 82.2133 92.3234 82.0514 92.4118C81.8894 92.5003 81.7497 92.6243 81.6427 92.7747C81.5358 92.925 81.4644 93.0977 81.434 93.2797C81.403 93.4393 81.403 93.6033 81.434 93.7629C81.7963 95.2847 80.5498 96.0578 80.7141 96.9274C81.1054 98.9469 79.5062 99.0387 77.5882 97.7826C77.3079 97.635 77.0726 97.4147 76.9069 97.1448C75.9165 96.5361 75.7039 95.2847 76.0373 93.7629C76.2394 92.8888 76.5375 92.0397 76.9262 91.2312C78.1631 88.5933 82.6467 88.2164 82.6467 88.2164C82.6467 88.2164 86.8838 87.5207 88.3912 90.0524C89.8986 92.584 88.6666 94.2122 88.6666 94.2122Z" fill="#263238"/>
  <path d="M84.1823 97.4497C84.1099 97.7638 84.221 98.0585 84.4287 98.1019C84.6365 98.1454 84.8587 97.9232 84.9119 97.6188C84.965 97.3144 84.8684 97.0101 84.6606 96.9666C84.4529 96.9231 84.2548 97.1357 84.1823 97.4497Z" fill="#263238"/>
  <path d="M87.8782 98.2955C87.8105 98.6096 87.9217 98.8994 88.1294 98.9429C88.3372 98.9864 88.5594 98.769 88.6126 98.4598C88.6657 98.1506 88.5739 97.8559 88.3662 97.8124C88.1584 97.7689 87.9507 97.9766 87.8782 98.2955Z" fill="#263238"/>
  <path d="M83.284 96.3289C83.2512 96.325 83.2198 96.3134 83.1922 96.2951C83.1526 96.2645 83.1264 96.2196 83.1192 96.1701C83.112 96.1205 83.1243 96.0701 83.1536 96.0294C83.3247 95.7805 83.5532 95.5764 83.8197 95.4343C84.0863 95.2922 84.3831 95.2163 84.6851 95.2129C84.7101 95.2135 84.7347 95.2191 84.7574 95.2295C84.7801 95.24 84.8004 95.2549 84.8172 95.2734C84.8339 95.292 84.8467 95.3137 84.8547 95.3374C84.8627 95.361 84.8659 95.3861 84.8639 95.411C84.8627 95.4357 84.8565 95.46 84.8459 95.4824C84.8353 95.5048 84.8203 95.5249 84.8019 95.5415C84.7835 95.5581 84.762 95.5709 84.7387 95.5792C84.7153 95.5874 84.6906 95.591 84.6658 95.5897C84.4266 95.5973 84.1926 95.6612 83.9827 95.7762C83.7728 95.8912 83.5931 96.0541 83.4579 96.2516C83.4388 96.2792 83.4124 96.301 83.3818 96.3146C83.3511 96.3282 83.3173 96.3332 83.284 96.3289Z" fill="#263238"/>
  <path d="M89.5362 97.3821C89.5064 97.3719 89.4795 97.3548 89.4576 97.3321C89.4358 97.3094 89.4197 97.2818 89.4106 97.2517C89.3527 97.0212 89.2405 96.808 89.0833 96.6298C88.9261 96.4516 88.7286 96.3136 88.5071 96.2274C88.4833 96.2203 88.4612 96.2084 88.4421 96.1925C88.423 96.1766 88.4073 96.157 88.396 96.1349C88.3847 96.1128 88.3781 96.0886 88.3764 96.0638C88.3747 96.039 88.3781 96.0141 88.3863 95.9907C88.3935 95.9668 88.4053 95.9446 88.4212 95.9253C88.437 95.906 88.4565 95.8901 88.4785 95.8784C88.5005 95.8667 88.5246 95.8595 88.5494 95.8572C88.5743 95.855 88.5993 95.8576 88.6231 95.865C88.9037 95.9708 89.155 96.1423 89.3559 96.365C89.5568 96.5877 89.7014 96.8553 89.7778 97.1454C89.7913 97.194 89.7852 97.2461 89.7608 97.2903C89.7365 97.3346 89.6957 97.3675 89.6473 97.3821C89.6109 97.3917 89.5726 97.3917 89.5362 97.3821Z" fill="#263238"/>
  <path opacity="0.5" d="M80.7287 96.9557C81.1201 98.9752 79.5209 99.067 77.6028 97.8109C77.3226 97.6633 77.0873 97.443 76.9216 97.1731C75.9311 96.5644 75.7185 95.3131 76.0519 93.7912C77.4228 94.0359 78.8362 93.8148 80.0668 93.1631C79.9285 93.4329 79.6991 93.6451 79.4194 93.7622C79.767 93.8539 80.1316 93.8606 80.4823 93.7815C80.833 93.7025 81.1595 93.5401 81.4341 93.308C81.4031 93.4676 81.4031 93.6316 81.4341 93.7912C81.811 95.3131 80.5645 96.0861 80.7287 96.9557Z" fill="white"/>
  <path d="M86.5972 97.7979L85.8193 100.397C86.0301 100.52 86.2646 100.595 86.5071 100.62C86.7496 100.644 86.9945 100.616 87.2253 100.537C87.257 99.5851 87.0406 98.6411 86.5972 97.7979Z" fill="#DE5753"/>
  <path d="M85.5887 102.329H85.5308C85.4631 102.329 83.9364 101.768 83.4291 100.759C83.4073 100.716 83.4032 100.667 83.4177 100.622C83.4322 100.576 83.4641 100.539 83.5064 100.517C83.5487 100.495 83.5979 100.491 83.6432 100.506C83.6885 100.52 83.7262 100.552 83.748 100.594C84.1925 101.474 85.6322 101.981 85.6467 101.986C85.6695 101.993 85.6905 102.005 85.7085 102.021C85.7265 102.037 85.7411 102.056 85.7515 102.078C85.7619 102.1 85.7678 102.123 85.7689 102.147C85.77 102.171 85.7662 102.195 85.7578 102.218C85.7436 102.251 85.72 102.279 85.69 102.299C85.6599 102.318 85.6247 102.329 85.5887 102.329Z" fill="#263238"/>
  <path d="M80.7317 97.9609C80.7317 97.9609 80.6592 100.13 81.5144 101.164C81.5144 101.164 82.8479 99.5553 83.9881 99.5649C85.1283 99.5746 85.5873 100.952 85.5873 100.952L85.1718 101.164C85.1718 101.164 84.5968 100.135 83.9881 100.063C83.3793 99.9901 81.9057 101.406 82.2294 102.15C82.5531 102.894 83.9881 102.15 83.9881 102.15L84.5582 102.469C84.5582 102.469 83.703 103.884 85.365 103.754C87.027 103.623 87.172 101.599 85.5873 101.396L85.8192 100.942C85.8192 100.942 87.4474 101.005 87.7518 102.527C88.0561 104.048 87.2686 106.392 83.4759 105.981C81.4709 105.764 77.8135 103.522 79.5238 98.4972L80.7317 97.9609Z" fill="#263238"/>
  <path d="M87.2261 97.5955C87.1977 97.5952 87.1704 97.5849 87.1488 97.5665C87.0324 97.4659 86.8936 97.3945 86.744 97.3584C86.5944 97.3223 86.4383 97.3224 86.2888 97.3588C86.2736 97.3639 86.2575 97.3658 86.2415 97.3644C86.2255 97.363 86.21 97.3583 86.1959 97.3506C86.1818 97.3429 86.1695 97.3323 86.1597 97.3196C86.1499 97.3068 86.1429 97.2922 86.139 97.2766C86.1299 97.2465 86.1328 97.214 86.1472 97.186C86.1617 97.158 86.1865 97.1368 86.2163 97.1268C86.4049 97.0809 86.6016 97.0801 86.7906 97.1246C86.9795 97.1691 87.1552 97.2576 87.3034 97.3829C87.315 97.3937 87.3242 97.4068 87.3305 97.4214C87.3368 97.4359 87.34 97.4516 87.34 97.4674C87.34 97.4833 87.3368 97.499 87.3305 97.5135C87.3242 97.5281 87.315 97.5412 87.3034 97.552C87.2841 97.5758 87.2565 97.5913 87.2261 97.5955Z" fill="#263238"/>
  <path d="M82.6515 96.4459H82.6273L78.8685 95.6342C78.7742 95.6112 78.6764 95.6072 78.5806 95.6222C78.4847 95.6373 78.3928 95.6711 78.3102 95.7219C78.2275 95.7727 78.1558 95.8393 78.099 95.9179C78.0422 95.9966 78.0016 96.0857 77.9795 96.1802V96.2526C77.9718 96.284 77.952 96.3111 77.9243 96.3278C77.8967 96.3446 77.8635 96.3497 77.8321 96.342C77.8007 96.3343 77.7737 96.3145 77.7569 96.2868C77.7402 96.2592 77.7351 96.226 77.7428 96.1947V96.1222C77.7711 95.9964 77.8243 95.8775 77.8993 95.7726C77.9743 95.6677 78.0695 95.5788 78.1794 95.5113C78.2893 95.4437 78.4115 95.3989 78.539 95.3793C78.6665 95.3598 78.7966 95.366 78.9216 95.3975L82.6756 96.2043C82.6912 96.2077 82.706 96.2142 82.719 96.2234C82.7321 96.2325 82.7432 96.2442 82.7518 96.2577C82.7603 96.2711 82.7661 96.2862 82.7688 96.3019C82.7715 96.3176 82.771 96.3337 82.7674 96.3493C82.7612 96.3758 82.7465 96.3995 82.7256 96.4169C82.7047 96.4344 82.6787 96.4445 82.6515 96.4459Z" fill="#263238"/>
  <path d="M88.6318 99.9226C88.5868 99.9276 88.5414 99.9276 88.4965 99.9226L87.9167 99.7825C87.678 99.6941 87.476 99.5277 87.3436 99.3103C87.2112 99.0928 87.1561 98.837 87.1872 98.5843V97.4538C87.1877 97.4304 87.1947 97.4075 87.2075 97.3879C87.2203 97.3683 87.2384 97.3526 87.2596 97.3427C87.7112 97.1775 88.2037 97.1606 88.6656 97.2944C89.1485 97.3656 89.5885 97.6114 89.9024 97.9853C89.9106 98.0026 89.9149 98.0216 89.9149 98.0408C89.9149 98.06 89.9106 98.079 89.9024 98.0964L89.3661 99.3332C89.3107 99.4901 89.2126 99.6283 89.0829 99.7325C88.9531 99.8366 88.7969 99.9025 88.6318 99.9226ZM87.4432 97.507V98.5602C87.4432 99.0433 87.6558 99.4395 87.9892 99.5265L88.5641 99.6666C88.7864 99.7197 89.0473 99.5313 89.1825 99.2173L89.6898 98.0481C89.3991 97.7697 89.0327 97.5832 88.6366 97.5118C88.2453 97.4066 87.8328 97.41 87.4432 97.5215V97.507Z" fill="#263238"/>
  <path d="M84.4717 98.9035C84.3595 98.9025 84.2478 98.8896 84.1384 98.8648L83.3218 98.6667C83.1032 98.6152 82.9079 98.4921 82.767 98.3171C82.6262 98.1421 82.5477 97.9251 82.544 97.7005V96.3332C82.5433 96.3082 82.5504 96.2837 82.5642 96.2629C82.5781 96.2422 82.598 96.2262 82.6213 96.2172C82.6213 96.2172 83.2397 95.9853 84.5539 96.2994C85.1868 96.4191 85.7816 96.6892 86.2883 97.0869C86.3061 97.1078 86.3158 97.1343 86.3158 97.1618C86.3158 97.1892 86.3061 97.2157 86.2883 97.2366L85.6892 98.2319C85.5616 98.4395 85.3823 98.6104 85.169 98.7281C84.9556 98.8458 84.7154 98.9062 84.4717 98.9035ZM82.7711 96.4153V97.686C82.7709 97.8596 82.8296 98.0281 82.9375 98.1641C83.0454 98.3001 83.1962 98.3955 83.3653 98.4348L84.1818 98.6281C84.4233 98.6873 84.6774 98.6676 84.9069 98.572C85.1365 98.4764 85.3293 98.3098 85.4573 98.0966L86.0033 97.1932C85.5362 96.8682 85.0089 96.6399 84.4524 96.5216C83.9066 96.363 83.3325 96.3267 82.7711 96.4153Z" fill="#263238"/>
  <path d="M76.2154 97.4827C76.334 97.8974 76.5334 98.2846 76.802 98.622C77.0706 98.9595 77.4033 99.2405 77.7808 99.4491C78.7954 99.9999 79.5684 99.1544 79.5105 98.0625C79.4525 97.0962 78.8582 95.6081 77.7325 95.5067C77.4863 95.4892 77.2396 95.533 77.0145 95.6342C76.7893 95.7355 76.5928 95.8909 76.4425 96.0867C76.2922 96.2825 76.1928 96.5125 76.1532 96.7561C76.1135 96.9997 76.1349 97.2494 76.2154 97.4827Z" fill="#E4897B"/>
  <path d="M74.2782 133.212H55.2617C53.3832 133.212 51.8604 134.735 51.8604 136.613V168.336C51.8604 170.215 53.3832 171.737 55.2617 171.737H74.2782C76.1567 171.737 77.6795 170.215 77.6795 168.336V136.613C77.6795 134.735 76.1567 133.212 74.2782 133.212Z" fill="#9663FE"/>
  <path opacity="0.6" d="M74.2782 133.212H55.2617C53.3832 133.212 51.8604 134.735 51.8604 136.613V168.336C51.8604 170.215 53.3832 171.737 55.2617 171.737H74.2782C76.1567 171.737 77.6795 170.215 77.6795 168.336V136.613C77.6795 134.735 76.1567 133.212 74.2782 133.212Z" fill="white"/>
  <path opacity="0.2" d="M72.3843 171.737H55.1409C54.2708 171.737 53.4364 171.392 52.8212 170.777C52.206 170.161 51.8604 169.327 51.8604 168.457V136.488C51.8604 136.057 51.9452 135.631 52.1102 135.233C52.2751 134.835 52.5168 134.474 52.8215 134.17C53.1262 133.865 53.4879 133.624 53.8858 133.46C54.2838 133.296 54.7103 133.211 55.1409 133.212H72.3843C71.5155 133.212 70.6823 133.557 70.068 134.171C69.4537 134.786 69.1086 135.619 69.1086 136.488V168.457C69.1086 169.326 69.4535 170.16 70.0677 170.775C70.6819 171.39 71.515 171.736 72.3843 171.737Z" fill="black"/>
</svg>