<svg width="114" height="114" viewBox="0 0 114 114" fill="none" xmlns="http://www.w3.org/2000/svg">
<path d="M74.0564 56.2803L110.949 56.2803V0.00288773L74.0564 0.00288773V56.2803Z" fill="#EBEBEB"/>
<path d="M95.3553 27.2861L110.949 27.2861V2.25347L95.3553 2.25347V27.2861Z" fill="white"/>
<path d="M78.0545 27.2861L93.6484 27.2861V2.25347L78.0545 2.25347V27.2861Z" fill="white"/>
<path d="M95.3553 54.0244H110.949V28.9918L95.3553 28.9918V54.0244Z" fill="white"/>
<path d="M78.0545 54.0244H93.6484V28.9918L78.0545 28.9918V54.0244Z" fill="white"/>
<path d="M88.2874 0H74.0547V80.5156H82.2923L76.5439 39.5447L88.2874 0Z" fill="#DBDBDB"/>
<path d="M85.8194 2.17773L83.5634 11.5352L81.2668 20.8844L76.6708 39.5776L76.6735 39.5315L78.7993 59.0679L79.8622 68.8375L80.879 78.6098L79.7294 68.851L78.6204 59.0869L76.4051 39.5613L76.4023 39.5369L76.4105 39.5125L81.0933 20.8411L83.436 11.5053L85.8194 2.17773Z" fill="#EBEBEB"/>
<path d="M74.9012 3.8291L74.9663 11.904L75.0042 19.9789L75.0368 36.1286L75.0042 52.2756L74.9663 60.3505L74.9012 68.4254L74.8334 60.3505L74.7954 52.2756L74.7656 36.1286L74.7954 19.9789L74.8334 11.904L74.9012 3.8291Z" fill="#EBEBEB"/>
<path d="M77.5577 5.3418L77.1184 13.9237L76.6385 22.5057L75.6732 39.6641C75.7681 42.8528 75.8277 46.0388 75.9091 49.2249L76.1341 58.7857L76.3592 68.3464L76.5409 77.8991L76.2236 68.3546L75.9525 58.7938L75.6813 49.2357C75.5945 46.047 75.4888 42.861 75.4102 39.6749L76.4595 22.5192L77.0018 13.9427L77.5577 5.3418Z" fill="#EBEBEB"/>
<path d="M79.4148 76.6595L78.482 67.397L77.5791 58.1291C77.0016 51.9495 76.4023 45.7727 75.8438 39.5905V39.5552L78.482 25.1273L79.8242 17.9201L81.18 10.7129L79.9327 17.9418L78.6664 25.1652L76.1013 39.6122V39.5769C76.6924 45.7564 77.2375 51.9387 77.8069 58.1209L78.6203 67.3943L79.4148 76.6595Z" fill="#EBEBEB"/>
<path d="M74.0564 40.749H77.2695V38.8727H74.0564V40.749Z" fill="#DBDBDB"/>
<path d="M96.7148 0H110.945V80.5156H102.707L108.458 39.5447L96.7148 0Z" fill="#DBDBDB"/>
<path d="M99.1797 2.17773L101.563 11.5053L103.906 20.8411L108.589 39.5125L108.594 39.5369L108.591 39.5613L106.379 59.0869L105.27 68.851L104.12 78.6098L105.137 68.8375L106.2 59.0679L108.326 39.5315L108.328 39.5776L103.732 20.8844L101.436 11.5352L99.1797 2.17773Z" fill="#EBEBEB"/>
<path d="M110.1 3.8291L110.165 11.904L110.203 19.9789L110.236 36.1286L110.206 52.2756L110.168 60.3505L110.1 68.4254L110.035 60.3505L109.997 52.2756L109.965 36.1286L109.997 19.9789L110.035 11.904L110.1 3.8291Z" fill="#EBEBEB"/>
<path d="M107.453 5.3418L107.995 13.9183L108.538 22.4948L109.59 39.6505C109.519 42.8366 109.414 46.0226 109.319 49.2113L109.047 58.7694L108.776 68.3302L108.459 77.8882L108.641 68.3247L108.866 58.764L109.091 49.2032C109.17 46.0172 109.232 42.8311 109.327 39.6424L108.361 22.484L107.882 13.902L107.453 5.3418Z" fill="#EBEBEB"/>
<path d="M105.588 76.6593L106.369 67.3832L107.183 58.1099C107.752 51.9276 108.297 45.7454 108.888 39.5658V39.6119L106.318 25.1732L105.051 17.9497L103.82 10.71L105.176 17.9172L106.516 25.1271L109.154 39.555V39.5903C108.612 45.7725 107.996 51.9493 107.418 58.1288L106.518 67.3968L105.588 76.6593Z" fill="#EBEBEB"/>
<path d="M110.948 38.8691H107.734V40.7455H110.948V38.8691Z" fill="#DBDBDB"/>
<path d="M13.7457 70.1063C13.8472 71.6381 13.6501 73.1751 13.1654 74.6318C12.9383 75.3067 12.6535 75.9608 12.314 76.5868C11.8883 77.4002 11.4491 78.173 11.468 79.0895C11.5521 79.1546 11.2511 79.122 11.2484 79.0326C8.92465 77.4626 5.82539 76.9691 4.1307 74.5613C3.31724 73.4224 2.98644 72.0287 2.87798 70.654C2.76138 69.1572 2.82646 67.5141 3.31996 66.0851C3.73482 64.8785 4.54827 63.7451 5.76031 63.2299C6.97236 62.7147 8.56673 62.872 9.79504 63.36C12.4388 64.4148 13.564 67.449 13.7457 70.1063Z" fill="#EBEBEB"/>
<path d="M13.6012 88.1941C13.3544 87.0634 13.1104 85.9327 12.8528 84.8048C12.3539 82.5922 11.8251 80.385 11.2259 78.1995C10.8643 76.8908 10.4766 75.5919 10.0626 74.3031C10.1786 73.5189 10.3361 72.7414 10.5344 71.9739C10.8056 71.0493 11.1744 70.1599 11.5214 69.2624C11.5431 69.2081 11.4536 69.1702 11.4265 69.2217C10.7812 70.45 9.94333 72.0227 9.79962 73.5249C9.31426 72.0661 8.78823 70.6208 8.21067 69.1865C8.22287 68.0182 8.3491 66.854 8.58757 65.7103C8.58773 65.7006 8.58465 65.6912 8.57881 65.6834C8.57298 65.6757 8.56473 65.6702 8.55537 65.6677C8.54602 65.6652 8.5361 65.6659 8.5272 65.6697C8.51829 65.6735 8.51091 65.6801 8.50623 65.6886C8.22143 66.6835 8.06203 67.7101 8.03171 68.7445C7.58974 67.6599 7.11793 66.6105 6.60817 65.5639C6.56208 65.469 6.43192 65.5503 6.46989 65.6425C7.24809 67.4728 7.95579 69.3329 8.61198 71.2147C7.56719 70.1585 6.33148 69.3101 4.97042 68.7146C4.91077 68.6875 4.85925 68.7716 4.9189 68.8014C6.39496 69.5751 7.7202 70.6074 8.83161 71.8492C9.29799 73.2266 9.73906 74.6113 10.1548 76.0032C8.75298 74.4034 6.74917 73.2618 4.7779 72.5813C4.71012 72.5596 4.683 72.6626 4.74808 72.687C7.02303 73.5683 8.73128 75.0298 10.3826 76.7543C10.5453 77.3183 10.7044 77.8823 10.8598 78.4463C11.4437 80.5865 11.9968 82.7359 12.5193 84.8942C12.7687 85.93 13.0128 86.9667 13.2514 88.0043C13.5063 89.1215 13.6852 90.2928 14.0458 91.3774C14.0811 91.4832 14.2628 91.4723 14.2492 91.3503C14.087 90.2879 13.8707 89.2345 13.6012 88.1941Z" fill="#DBDBDB"/>
<path d="M11.126 67.763C10.6422 68.3924 10.2874 69.1111 10.082 69.8779C10.082 69.8969 10.1064 69.9132 10.1146 69.8915C10.4435 69.1807 10.8157 68.4906 11.229 67.8253C11.2724 67.7575 11.1721 67.7033 11.126 67.763Z" fill="#DBDBDB"/>
<path d="M6.39389 72.4947C5.74696 72.0672 5.02749 71.7612 4.27078 71.5918C4.25179 71.5918 4.23553 71.6162 4.27078 71.6243C4.60971 71.7979 4.97034 71.928 5.31471 72.0907C5.65907 72.2534 5.99529 72.4486 6.34508 72.6032C6.35825 72.6047 6.37156 72.602 6.3831 72.5955C6.39463 72.589 6.40378 72.5789 6.40922 72.5668C6.41466 72.5548 6.41611 72.5412 6.41335 72.5283C6.41059 72.5153 6.40378 72.5036 6.39389 72.4947Z" fill="#DBDBDB"/>
<path d="M5.64636 66.3069C5.43956 66.124 5.21626 65.9606 4.97933 65.8189C4.97135 65.8141 4.96191 65.8124 4.95278 65.8141C4.94366 65.8159 4.93548 65.8209 4.9298 65.8282C4.92412 65.8356 4.92133 65.8448 4.92196 65.854C4.9226 65.8633 4.9266 65.872 4.93323 65.8785C5.13635 66.0652 5.35597 66.2331 5.58942 66.3801C5.6328 66.41 5.68974 66.3395 5.64636 66.3069Z" fill="#DBDBDB"/>
<path d="M21.2586 74.8049C19.4825 75.2577 17.7011 75.6699 15.925 76.1173C15.7732 76.158 13.0291 70.358 14.2141 67.473C15.2987 64.7994 17.6577 62.8634 20.399 62.05C21.668 61.6731 23.2217 61.3748 24.5341 61.7192C25.7 62.0256 26.4945 63.0207 26.8334 64.1433C27.2944 65.6671 27.0503 67.454 26.7087 68.9779C26.4268 70.4112 25.7785 71.7471 24.8269 72.8553C23.8535 73.9237 22.6414 74.4551 21.2586 74.8049Z" fill="#EBEBEB"/>
<path d="M24.0085 69.5043C22.8786 70.0031 21.7107 70.4111 20.516 70.7244C19.7199 70.9053 18.9407 71.1539 18.1868 71.4674C19.0003 69.8405 19.8707 68.257 20.7953 66.6897C21.9423 66.405 23.1543 65.9386 24.0491 65.1713C24.0572 65.1628 24.0619 65.1517 24.0624 65.14C24.063 65.1283 24.0593 65.1168 24.052 65.1076C24.0448 65.0984 24.0345 65.0921 24.023 65.0898C24.0115 65.0876 23.9996 65.0896 23.9895 65.0954C23.0296 65.719 21.983 66.0742 20.9309 66.4809C21.1804 66.0606 21.4325 65.6376 21.6901 65.2174C21.7606 65.1008 21.6006 64.976 21.5166 65.0872C20.5423 66.3915 19.6546 67.7584 18.8593 69.1789C18.7205 67.9015 18.7106 66.6134 18.8295 65.334C18.8277 65.3285 18.8242 65.3238 18.8196 65.3205C18.815 65.3171 18.8094 65.3153 18.8037 65.3153C18.798 65.3153 18.7924 65.3171 18.7878 65.3205C18.7832 65.3238 18.7797 65.3285 18.778 65.334C18.5044 66.723 18.4631 68.1478 18.6559 69.5504C17.9943 70.7543 17.3842 71.9907 16.8311 73.2462C16.6603 72.4734 16.4298 71.7087 16.2888 70.9305C16.0615 69.8153 16.0166 68.6707 16.1559 67.5411C16.1559 67.5086 16.1125 67.5032 16.1044 67.5411C15.7112 69.6268 15.8816 71.7797 16.5979 73.7776C16.2752 74.5314 15.9661 75.2906 15.6787 76.0526C14.2049 79.93 13.2618 83.9888 12.875 88.1188C12.8758 88.1369 12.8831 88.154 12.8955 88.1672C12.9079 88.1804 12.9246 88.1888 12.9426 88.1907C12.9606 88.1927 12.9787 88.1881 12.9937 88.1779C13.0086 88.1677 13.0194 88.1525 13.0241 88.1351C13.6421 84.0634 14.6751 80.0657 16.1071 76.2044C16.6765 74.6941 17.3192 73.2217 18.0052 71.8009C19.0545 71.5298 20.1012 71.1583 21.1343 70.8465C22.1637 70.5793 23.1428 70.1461 24.0329 69.5639C24.0366 69.5587 24.039 69.5526 24.0398 69.5462C24.0405 69.5398 24.0397 69.5333 24.0372 69.5273C24.0348 69.5213 24.0309 69.5161 24.0258 69.5121C24.0208 69.508 24.0148 69.5053 24.0085 69.5043Z" fill="#DBDBDB"/>
<path d="M25.7116 67.9183C24.627 68.2573 23.5885 68.7508 22.5012 69.0978C22.4497 69.1141 22.4741 69.1928 22.5256 69.1846C23.6698 68.9948 24.8087 68.6884 25.7523 67.9807C25.7875 67.9536 25.7496 67.9048 25.7116 67.9183Z" fill="#DBDBDB"/>
<path d="M17.0417 65.2605C17.0417 65.2035 16.9739 65.1683 16.9549 65.2252C16.6214 66.2041 16.3774 67.2453 16.6241 68.2675C16.6241 68.3082 16.6973 68.3109 16.7 68.2675C16.7922 67.248 16.7732 66.2556 17.0417 65.2605Z" fill="#DBDBDB"/>
<path d="M21.5629 63.1485C21.1953 63.6242 21.0037 64.2125 21.0206 64.8134C21.0206 64.8514 21.0802 64.8758 21.0911 64.8297C21.2429 64.2684 21.4815 63.7614 21.6767 63.219C21.6787 63.205 21.6765 63.1907 21.6705 63.1778C21.6645 63.165 21.6548 63.1542 21.6428 63.1467C21.6307 63.1392 21.6167 63.1354 21.6025 63.1358C21.5884 63.1361 21.5746 63.1405 21.5629 63.1485Z" fill="#DBDBDB"/>
<path d="M26.8442 78.8537C26.329 80.4806 25.1062 82.7447 23.1701 82.7637C21.9147 82.7637 20.6511 82.6254 19.3903 82.6091C18.0345 82.5874 16.6788 82.5902 15.3474 82.6715C15.2363 82.6715 15.5101 78.6341 18.7477 76.6655C19.656 76.1232 20.765 75.9388 21.7954 75.7165C22.9747 75.4378 24.1849 75.3121 25.3963 75.3423C26.1392 75.3721 26.752 75.5294 27.0232 76.2913C27.2943 77.0532 27.091 78.0755 26.8442 78.8537Z" fill="#EBEBEB"/>
<path d="M25.4497 76.809C24.6633 77.0096 23.8689 77.2428 23.0798 77.495C23.2852 77.2711 23.5024 77.0584 23.7306 76.8578C24.0722 76.5866 24.4437 76.3507 24.8152 76.104C24.845 76.0823 24.8152 76.0226 24.7881 76.0389C24.0211 76.3572 23.3588 76.8842 22.8765 77.5601C21.8922 77.8773 20.916 78.2271 19.9779 78.6121C19.3292 78.8772 18.7081 79.2051 18.1232 79.591C18.31 79.1817 18.5342 78.7905 18.7929 78.4223C19.2241 77.8638 19.8043 77.5546 20.3683 77.1588C20.3771 77.1508 20.3828 77.14 20.3846 77.1283C20.3863 77.1166 20.3839 77.1046 20.3779 77.0944C20.3718 77.0842 20.3625 77.0764 20.3513 77.0723C20.3402 77.0682 20.328 77.0681 20.3168 77.072C19.7284 77.328 19.1999 77.7041 18.7652 78.1762C18.3305 78.6482 17.9992 79.2059 17.7924 79.8133C17.116 80.2947 16.4989 80.8545 15.954 81.4809C13.8092 83.9213 12.1226 87.1534 12.1172 90.4587C12.1172 90.5373 12.2419 90.5618 12.2582 90.4777C12.8089 87.2373 14.2213 84.2047 16.3471 81.6978C16.5026 81.5171 16.6599 81.3462 16.8189 81.1854C17.406 81.1058 17.9972 81.0614 18.5896 81.0525C19.2783 81.0525 19.9643 81.1555 20.6503 81.2098C21.781 81.302 23.031 81.3155 24.0505 80.7461C24.0966 80.7217 24.0668 80.6431 24.0153 80.662C21.743 81.489 19.3569 80.4397 17.0765 80.9332C18.0507 80.0048 19.1914 79.2688 20.4388 78.764L20.6476 78.6799C22.1064 78.8562 23.6492 79.2358 25.0701 78.7613C25.1107 78.7477 25.0945 78.6826 25.0511 78.6962C23.6764 79.0378 22.3613 78.6067 21.0055 78.5389C22.4806 77.9641 23.9882 77.5058 25.4659 76.9364C25.5825 76.8876 25.5853 76.7737 25.4497 76.809Z" fill="#DBDBDB"/>
<path d="M26.1089 78.2463C25.4036 78.3376 24.694 78.391 23.9831 78.4063C23.9668 78.4063 23.9614 78.4334 23.9831 78.4361C24.6974 78.5676 25.4331 78.5211 26.1251 78.3005C26.1323 78.2984 26.1384 78.2935 26.1419 78.2868C26.1455 78.2802 26.1463 78.2725 26.1441 78.2653C26.142 78.2581 26.137 78.2521 26.1304 78.2485C26.1238 78.2449 26.1161 78.2442 26.1089 78.2463Z" fill="#DBDBDB"/>
<path d="M21.2952 76.8445C20.9025 77.0204 20.5465 77.2688 20.2459 77.5767C20.2079 77.6092 20.2459 77.6743 20.2974 77.6444C20.4763 77.5143 20.6607 77.3923 20.8397 77.273C21.0166 77.1754 21.1877 77.0676 21.3522 76.9503C21.4064 76.9096 21.3549 76.8256 21.2952 76.8445Z" fill="#DBDBDB"/>
<path d="M9.85872 82.1042C9.88041 82.1585 9.80449 82.2073 9.77466 82.1503C9.76879 82.159 9.76117 82.1664 9.75231 82.172C9.74344 82.1776 9.73351 82.1813 9.72314 82.1829C8.42179 82.4941 7.10236 82.7241 5.77247 82.8716C4.70143 82.9665 3.46498 83.0261 2.51866 82.4052C1.24696 81.5619 0.411817 79.3087 1.09783 77.8797C1.91128 76.1796 4.35164 77.1015 5.58809 77.7062C7.48206 78.6278 8.99317 80.184 9.85872 82.1042Z" fill="#EBEBEB"/>
<path d="M10.8069 82.8908C10.0928 82.2027 9.30007 81.6011 8.4452 81.0985C7.82722 80.1233 7.00817 79.2913 6.0428 78.6581C5.9967 78.6283 5.95603 78.7015 5.99942 78.734C6.76552 79.3464 7.44426 80.0608 8.01678 80.8571C7.06353 80.333 6.07295 79.8799 5.0531 79.5014C4.68857 78.826 4.13559 78.2711 3.46144 77.9043C3.46144 77.9043 3.43162 77.9179 3.44517 77.926C4.00188 78.3493 4.48708 78.8593 4.88227 79.4363C4.28032 79.2112 3.67294 79.0025 3.06285 78.8018C3.00862 78.7828 2.98964 78.8669 3.04116 78.8859C4.12576 79.3089 5.22935 79.7563 6.29497 80.2687C4.98726 80.4775 3.65472 80.4775 2.34701 80.2687C2.33981 80.2676 2.33244 80.2691 2.3263 80.273C2.32015 80.277 2.31565 80.283 2.31365 80.29C2.31165 80.297 2.31228 80.3045 2.31543 80.3111C2.31858 80.3176 2.32403 80.3228 2.33074 80.3257C3.69623 80.7284 5.14588 80.75 6.52274 80.388C7.2058 80.7206 7.86939 81.0918 8.51027 81.4998C7.97064 81.4566 7.42757 81.5014 6.90235 81.6326C5.98007 81.8431 5.03649 81.946 4.09051 81.939C4.05526 81.939 4.04442 81.996 4.09051 82.0014C5.71742 82.2725 7.27654 81.5404 8.90073 81.7302C9.5018 82.1417 10.0669 82.6035 10.59 83.1104C11.6018 84.1234 12.4359 85.2994 13.0575 86.5893C13.7408 87.9803 14.1095 89.4553 14.6627 90.8924C14.6663 90.9057 14.675 90.9171 14.687 90.9239C14.6989 90.9308 14.7131 90.9326 14.7264 90.929C14.7397 90.9254 14.751 90.9167 14.7579 90.9048C14.7648 90.8928 14.7666 90.8786 14.763 90.8653C14.2831 88.0345 12.8704 84.9081 10.8069 82.8908Z" fill="#DBDBDB"/>
<path d="M5.86532 79.0049C5.75772 78.8114 5.61629 78.6388 5.44774 78.4952C5.30799 78.3448 5.14159 78.2216 4.95696 78.1318C4.94069 78.1318 4.93256 78.1481 4.94069 78.159C5.07627 78.3135 5.26336 78.4301 5.40707 78.5711C5.55078 78.7121 5.67822 78.8883 5.82193 79.0321C5.82553 79.0378 5.83126 79.0419 5.83787 79.0434C5.84448 79.045 5.85143 79.0438 5.85718 79.0402C5.86293 79.0366 5.86702 79.0309 5.86855 79.0243C5.87007 79.0176 5.86891 79.0107 5.86532 79.0049Z" fill="#DBDBDB"/>
<path d="M3.16578 79.8838C2.92445 79.8214 2.66686 79.8268 2.42011 79.7753C2.17448 79.7182 1.93268 79.6458 1.69614 79.5584C1.68907 79.5559 1.68131 79.5561 1.67441 79.559C1.6675 79.562 1.66196 79.5674 1.65888 79.5742C1.6558 79.5811 1.65541 79.5888 1.65779 79.5959C1.66018 79.6031 1.66515 79.609 1.67173 79.6126C2.11852 79.8883 2.64323 80.0102 3.16578 79.9597C3.17345 79.9567 3.18005 79.9515 3.1847 79.9448C3.18936 79.938 3.19185 79.93 3.19185 79.9217C3.19185 79.9135 3.18936 79.9055 3.1847 79.8987C3.18005 79.8919 3.17345 79.8867 3.16578 79.8838Z" fill="#DBDBDB"/>
<path d="M18.5992 85.8896L18.3307 88.9238L17.4251 99.1652H9.40443L8.27101 88.9238L7.9375 85.8896H18.5992Z" fill="#C7C7C7"/>
<path d="M18.5992 85.8896L18.3307 88.9238H8.27101L7.9375 85.8896H18.5992Z" fill="#A6A6A6"/>
<path d="M19.3912 85.0625H7.14062V87.5246H19.3912V85.0625Z" fill="#C7C7C7"/>
<path d="M65.6665 15.7812H57.0195V17.88H65.6665V15.7812Z" fill="#EBEBEB"/>
<path d="M62.3906 21.1529V12.5059H60.2919V21.1529H62.3906Z" fill="#EBEBEB"/>
<path d="M18.3228 20.9111H9.67578V23.0098H18.3228V20.9111Z" fill="#EBEBEB"/>
<path d="M13.9986 19.7345C14.5781 19.7345 15.0479 19.2646 15.0479 18.6851C15.0479 18.1056 14.5781 17.6357 13.9986 17.6357C13.419 17.6357 12.9492 18.1056 12.9492 18.6851C12.9492 19.2646 13.419 19.7345 13.9986 19.7345Z" fill="#EBEBEB"/>
<path d="M13.9986 26.2823C14.5781 26.2823 15.0479 25.8125 15.0479 25.2329C15.0479 24.6534 14.5781 24.1836 13.9986 24.1836C13.419 24.1836 12.9492 24.6534 12.9492 25.2329C12.9492 25.8125 13.419 26.2823 13.9986 26.2823Z" fill="#EBEBEB"/>
<path d="M36.4034 3.21279L30.2891 9.32715L31.7731 10.8112L37.8874 4.6968L36.4034 3.21279Z" fill="#EBEBEB"/>
<path d="M37.8839 9.3292L31.7695 3.21484L30.2855 4.69885L36.3999 10.8132L37.8839 9.3292Z" fill="#EBEBEB"/>
<path d="M12.3189 42.5195H3.67188V44.6182H12.3189V42.5195Z" fill="#EBEBEB"/>
<path d="M12.3189 38.623H3.67188V40.7218H12.3189V38.623Z" fill="#EBEBEB"/>
<path d="M110.794 108.005C110.794 111.064 86.7211 113.542 57.0219 113.542C27.3228 113.542 3.25 111.064 3.25 108.005C3.25 104.947 27.3228 102.468 57.0219 102.468C86.7211 102.468 110.794 104.96 110.794 108.005Z" fill="#EBEBEB"/>
<path d="M1.97266 99.1143L15.7363 99.0492L29.4972 99.0248L57.0217 98.9814L84.5463 99.0248L98.3072 99.0492L112.068 99.1143L98.3072 99.1821L84.5463 99.2065L57.0217 99.2499L29.4972 99.2065L15.7363 99.1821L1.97266 99.1143Z" fill="#263238"/>
<path d="M104.431 22.834H49.6445V108.008H104.431V22.834Z" fill="#FFD427"/>
<path d="M100.462 22.834H45.6758V108.008H100.462V22.834Z" fill="#FFD427"/>
<path opacity="0.1" d="M100.462 22.834H45.6758V108.008H100.462V22.834Z" fill="black"/>
<path d="M60.4287 44.564H49.8945V55.0982H60.4287V44.564Z" fill="white"/>
<path d="M72.3662 44.5635H61.832V55.0977H72.3662V44.5635Z" fill="white"/>
<path d="M84.3037 44.564H73.7695V55.0982H84.3037V44.564Z" fill="#FFD427"/>
<path d="M96.2412 44.5635H85.707V55.0977H96.2412V44.5635Z" fill="#FFD427"/>
<path d="M60.4287 56.647H49.8945V67.1812H60.4287V56.647Z" fill="#37474F"/>
<path d="M72.3662 56.6465H61.832V67.1807H72.3662V56.6465Z" fill="#37474F"/>
<path d="M84.3037 56.647H73.7695V67.1812H84.3037V56.647Z" fill="#37474F"/>
<path d="M96.2412 56.7217H85.707V67.2559H96.2412V56.7217Z" fill="white"/>
<path d="M60.4287 68.729H49.8945V79.2632H60.4287V68.729Z" fill="#37474F"/>
<path d="M72.3662 68.7285H61.832V79.2627H72.3662V68.7285Z" fill="#37474F"/>
<path d="M84.3037 68.729H73.7695V79.2632H84.3037V68.729Z" fill="#37474F"/>
<path d="M96.2412 68.7285H85.707V79.2627H96.2412V68.7285Z" fill="white"/>
<path d="M60.4287 80.812H49.8945V91.3462H60.4287V80.812Z" fill="#37474F"/>
<path d="M72.3662 80.8115H61.832V91.3457H72.3662V80.8115Z" fill="#37474F"/>
<path d="M84.3037 80.812H73.7695V91.3462H84.3037V80.812Z" fill="#37474F"/>
<path d="M96.2412 80.8115H85.707V91.3457H96.2412V80.8115Z" fill="white"/>
<path d="M60.4287 92.894H49.8945V103.428H60.4287V92.894Z" fill="#37474F"/>
<path d="M72.3662 92.8936H61.832V103.428H72.3662V92.8936Z" fill="#37474F"/>
<path d="M84.3037 92.894H73.7695V103.428H84.3037V92.894Z" fill="white"/>
<path d="M96.2412 92.8936H85.707V103.428H96.2412V92.8936Z" fill="white"/>
<path d="M53.5952 48.8071C53.5893 48.7072 53.6038 48.6071 53.6377 48.513C53.6715 48.4188 53.7242 48.3325 53.7923 48.2593C53.8605 48.186 53.9428 48.1274 54.0343 48.0868C54.1258 48.0463 54.2246 48.0247 54.3246 48.0234C54.4235 48.0247 54.5211 48.0461 54.6114 48.0862C54.7018 48.1264 54.783 48.1845 54.8503 48.257C54.9175 48.3296 54.9692 48.415 55.0024 48.5082C55.0355 48.6013 55.0494 48.7002 55.0432 48.7989C55.049 48.899 55.0346 48.9991 55.0007 49.0934C54.9669 49.1877 54.9143 49.2742 54.8462 49.3477C54.778 49.4211 54.6957 49.48 54.6042 49.5209C54.5127 49.5617 54.4139 49.5836 54.3138 49.5853C54.2148 49.5836 54.1171 49.5619 54.0267 49.5215C53.9364 49.481 53.8551 49.4227 53.788 49.3499C53.7208 49.2772 53.6691 49.1915 53.636 49.0982C53.6028 49.0049 53.589 48.9059 53.5952 48.8071ZM54.6527 48.8071C54.6527 48.563 54.5117 48.3597 54.3138 48.3597C54.1158 48.3597 53.9857 48.563 53.9857 48.7989C53.9857 49.0511 54.1267 49.2463 54.3246 49.2463C54.5225 49.2463 54.6527 49.043 54.6527 48.8071ZM54.1104 50.8543L56.125 48.1048C56.1404 48.0793 56.1623 48.0585 56.1886 48.0446C56.2149 48.0308 56.2445 48.0244 56.2742 48.0261C56.2968 48.0258 56.3193 48.0299 56.3404 48.0384C56.3614 48.0468 56.3806 48.0593 56.3967 48.0752C56.4129 48.0911 56.4257 48.1101 56.4345 48.131C56.4432 48.1519 56.4477 48.1743 56.4477 48.197C56.4468 48.2379 56.4336 48.2776 56.4098 48.3109L54.3951 51.0603C54.3782 51.0849 54.3555 51.1049 54.329 51.1186C54.3025 51.1323 54.2731 51.1393 54.2433 51.139C54.2207 51.1393 54.1983 51.1352 54.1775 51.1267C54.1566 51.1182 54.1376 51.1057 54.1217 51.0897C54.1057 51.0738 54.0931 51.0548 54.0847 51.0339C54.0762 51.013 54.0721 50.9907 54.0724 50.9681C54.0698 50.9283 54.0792 50.8886 54.0995 50.8543H54.1104ZM55.4662 50.377C55.4603 50.2771 55.4747 50.1771 55.5086 50.0829C55.5425 49.9888 55.5951 49.9025 55.6633 49.8292C55.7314 49.756 55.8138 49.6973 55.9053 49.6568C55.9967 49.6163 56.0955 49.5947 56.1955 49.5934C56.2943 49.5951 56.3917 49.6167 56.4819 49.657C56.5721 49.6972 56.6532 49.7554 56.7203 49.8278C56.7874 49.9003 56.8392 49.9856 56.8725 50.0785C56.9058 50.1715 56.92 50.2703 56.9141 50.3689C56.92 50.4687 56.9056 50.5686 56.8719 50.6628C56.8382 50.7569 56.7859 50.8433 56.7181 50.9167C56.6502 50.9901 56.5682 51.0491 56.4771 51.0901C56.3859 51.131 56.2874 51.1532 56.1874 51.1552C56.0869 51.1558 55.9874 51.1357 55.895 51.0963C55.8025 51.0568 55.7192 50.9988 55.6501 50.9259C55.5809 50.853 55.5275 50.7666 55.4931 50.6722C55.4587 50.5778 55.444 50.4773 55.4499 50.377H55.4662ZM56.5236 50.377C56.5236 50.133 56.3826 49.9296 56.1874 49.9296C55.9922 49.9296 55.8566 50.133 55.8566 50.3689C55.8566 50.6211 55.9976 50.8163 56.1955 50.8163C56.3935 50.8163 56.5074 50.6129 56.5074 50.377H56.5236Z" fill="#37474F"/>
<path d="M76.3672 49.5398C76.375 49.1183 76.5478 48.7167 76.8484 48.4211C77.149 48.1256 77.5535 47.9597 77.9751 47.959C78.3423 47.9561 78.6997 48.0775 78.9892 48.3034C79.0363 48.3459 79.0656 48.4046 79.0713 48.4678C79.077 48.5309 79.0587 48.5939 79.0201 48.6442C78.9814 48.6945 78.9253 48.7283 78.8627 48.739C78.8002 48.7498 78.736 48.7365 78.6828 48.702C78.4823 48.5414 78.2319 48.4561 77.9751 48.4607C77.6818 48.4623 77.4 48.5746 77.1861 48.7752C76.9824 48.9777 76.8673 49.2527 76.8661 49.5398C76.8657 49.6818 76.8938 49.8224 76.9488 49.9533C77.0037 50.0842 77.0844 50.2027 77.1861 50.3018C77.3998 50.5031 77.6815 50.6164 77.9751 50.619C78.2319 50.6232 78.4821 50.5378 78.6828 50.3777C78.737 50.3424 78.8021 50.3276 78.8662 50.3361C78.9304 50.3445 78.9894 50.3756 79.0326 50.4238C79.069 50.4779 79.0846 50.5434 79.0767 50.6081C79.0687 50.6729 79.0376 50.7326 78.9892 50.7763C78.6988 51.0001 78.3418 51.1204 77.9751 51.1179C77.5534 51.1194 77.148 50.9546 76.847 50.6592C76.546 50.3637 76.3736 49.9616 76.3672 49.5398Z" fill="#37474F"/>
<path d="M79.8838 50.8765V48.2897C79.8831 48.2578 79.8888 48.2261 79.9007 48.1965C79.9126 48.1669 79.9303 48.14 79.9529 48.1174C79.9754 48.0949 80.0023 48.0771 80.0319 48.0653C80.0616 48.0534 80.0933 48.0477 80.1252 48.0484H81.5568C81.6168 48.0547 81.6723 48.0831 81.7126 48.1279C81.7529 48.1727 81.7752 48.2308 81.7752 48.2911C81.7752 48.3514 81.7529 48.4095 81.7126 48.4543C81.6723 48.4991 81.6168 48.5274 81.5568 48.5338H80.3692V49.3472H81.3914C81.4562 49.3472 81.5182 49.3729 81.564 49.4187C81.6098 49.4645 81.6355 49.5265 81.6355 49.5913C81.6355 49.656 81.6098 49.718 81.564 49.7638C81.5182 49.8096 81.4562 49.8353 81.3914 49.8353H80.3692V50.6487H81.5568C81.6211 50.6508 81.6821 50.6777 81.7271 50.7236C81.772 50.7696 81.7975 50.8312 81.7982 50.8955C81.7968 50.9591 81.7709 51.0196 81.726 51.0646C81.681 51.1096 81.6204 51.1354 81.5568 51.1368H80.136C80.1016 51.1389 80.0672 51.1336 80.0351 51.1211C80.003 51.1087 79.974 51.0894 79.95 51.0647C79.9261 51.0399 79.9078 51.0103 79.8963 50.9778C79.8849 50.9454 79.8806 50.9108 79.8838 50.8765Z" fill="#37474F"/>
<path d="M89.6055 49.5403C89.6133 49.1188 89.786 48.7172 90.0867 48.4216C90.3873 48.1261 90.7918 47.9602 91.2134 47.9595C91.5806 47.9566 91.938 48.0779 92.2275 48.3039C92.2745 48.3464 92.3038 48.4051 92.3096 48.4682C92.3153 48.5314 92.297 48.5944 92.2584 48.6447C92.2197 48.6949 92.1635 48.7288 92.101 48.7395C92.0385 48.7502 91.9743 48.737 91.9211 48.7025C91.7203 48.5423 91.4702 48.457 91.2134 48.4612C90.9201 48.4628 90.6383 48.5751 90.4243 48.7757C90.2207 48.9782 90.1056 49.2531 90.1044 49.5403C90.104 49.6823 90.1321 49.8229 90.1871 49.9538C90.242 50.0846 90.3227 50.2032 90.4243 50.3023C90.638 50.5036 90.9198 50.6169 91.2134 50.6195C91.4701 50.6232 91.7201 50.5379 91.9211 50.3782C91.9753 50.3429 92.0404 50.3281 92.1045 50.3366C92.1687 50.345 92.2277 50.3761 92.2709 50.4243C92.3073 50.4784 92.3229 50.5439 92.3149 50.6086C92.307 50.6734 92.2759 50.7331 92.2275 50.7768C91.9368 51.0001 91.58 51.1203 91.2134 51.1184C90.7916 51.1199 90.3863 50.9551 90.0853 50.6596C89.7843 50.3642 89.6119 49.962 89.6055 49.5403Z" fill="#37474F"/>
<path d="M56.1218 60.7031L55.0372 63.2953C55.0198 63.3397 54.9891 63.3776 54.9493 63.4038C54.9095 63.43 54.8625 63.4433 54.8148 63.4417C54.7831 63.4417 54.7518 63.4352 54.7226 63.4227C54.6642 63.3975 54.6178 63.3507 54.593 63.2921C54.5683 63.2335 54.5671 63.1676 54.5898 63.1082L55.5388 60.8576H54.4054C54.3411 60.8555 54.2801 60.8287 54.2352 60.7827C54.1902 60.7367 54.1647 60.6752 54.1641 60.6109C54.1641 60.5469 54.1895 60.4855 54.2347 60.4402C54.28 60.395 54.3414 60.3695 54.4054 60.3695H55.9103C55.9246 60.3671 55.9393 60.3671 55.9537 60.3695C55.9858 60.3772 56.0168 60.3891 56.0459 60.4048V60.4183C56.0459 60.4183 56.0594 60.4183 56.0621 60.4346C56.0648 60.4509 56.0757 60.4482 56.0811 60.4536C56.0865 60.459 56.0811 60.4672 56.0811 60.4699V60.4916L56.0974 60.516C56.0974 60.516 56.0974 60.5322 56.0974 60.5377C56.0989 60.5448 56.0989 60.5522 56.0974 60.5593C56.1029 60.5907 56.1029 60.6229 56.0974 60.6542C56.1087 60.6687 56.117 60.6853 56.1218 60.7031Z" fill="white"/>
<path d="M68.0557 62.3894C68.0563 62.5711 68.0096 62.7498 67.9203 62.908C67.831 63.0663 67.7022 63.1986 67.5464 63.2921C67.3906 63.3856 67.2132 63.4371 67.0316 63.4414C66.8499 63.4458 66.6703 63.4029 66.5102 63.317C66.3501 63.2311 66.215 63.1051 66.1183 62.9513C66.0215 62.7975 65.9663 62.6213 65.9581 62.4397C65.9499 62.2582 65.989 62.0777 66.0715 61.9158C66.154 61.754 66.2771 61.6163 66.4288 61.5163C66.3603 61.4244 66.3146 61.3176 66.2954 61.2046C66.2762 61.0917 66.284 60.9757 66.3184 60.8664C66.3527 60.7571 66.4125 60.6574 66.4929 60.5757C66.5732 60.494 66.6718 60.4326 66.7806 60.3964C66.8893 60.3602 67.0051 60.3504 67.1184 60.3677C67.2317 60.385 67.3392 60.4289 67.4322 60.4959C67.5252 60.5629 67.601 60.651 67.6533 60.7529C67.7056 60.8549 67.7329 60.9678 67.7331 61.0824C67.7335 61.2392 67.682 61.3918 67.5866 61.5163C67.7305 61.6121 67.8486 61.7419 67.9304 61.8941C68.0123 62.0464 68.0553 62.2165 68.0557 62.3894ZM67.5758 62.3894C67.5758 62.239 67.5167 62.0947 67.4111 61.9877C67.3056 61.8806 67.1621 61.8194 67.0118 61.8173C66.86 61.818 66.7146 61.8784 66.6071 61.9855C66.4995 62.0925 66.4384 62.2376 66.437 62.3894C66.4391 62.5402 66.5007 62.684 66.6083 62.7897C66.716 62.8953 66.861 62.9541 67.0118 62.9534C67.1614 62.9534 67.3048 62.894 67.4106 62.7882C67.5164 62.6824 67.5758 62.539 67.5758 62.3894ZM66.7623 61.0824C66.7623 61.1479 66.7883 61.2106 66.8346 61.2569C66.8809 61.3032 66.9437 61.3292 67.0091 61.3292C67.0745 61.3292 67.1373 61.3032 67.1836 61.2569C67.2298 61.2106 67.2558 61.1479 67.2558 61.0824C67.2551 61.0187 67.2295 60.9577 67.1844 60.9126C67.1393 60.8675 67.0783 60.8418 67.0145 60.8411C66.9812 60.84 66.948 60.8457 66.917 60.8578C66.8859 60.8698 66.8576 60.8881 66.8338 60.9114C66.81 60.9347 66.7911 60.9626 66.7784 60.9934C66.7656 61.0242 66.7593 61.0572 66.7596 61.0906L66.7623 61.0824Z" fill="white"/>
<path d="M77.918 61.4326C77.9233 61.1631 78.0306 60.9056 78.2182 60.7121C78.4058 60.5186 78.6598 60.4033 78.929 60.3896C79.1982 60.3758 79.4626 60.4646 79.6689 60.638C79.8753 60.8114 80.0083 61.0566 80.0411 61.3241C80.0411 61.4055 80.0411 61.4895 80.0411 61.5736C80.0445 61.8796 79.9921 62.1838 79.8865 62.4711C79.7812 62.7748 79.583 63.0376 79.3198 63.2222C79.1248 63.3511 78.8974 63.4225 78.6636 63.4282C78.6316 63.4297 78.5995 63.4248 78.5694 63.4139C78.5392 63.4029 78.5115 63.3862 78.4878 63.3645C78.4642 63.3428 78.445 63.3167 78.4314 63.2877C78.4178 63.2586 78.4101 63.2271 78.4088 63.1951C78.408 63.1307 78.4321 63.0685 78.476 63.0216C78.52 62.9746 78.5804 62.9464 78.6447 62.9429C78.7907 62.9391 78.9331 62.896 79.0568 62.8181C79.1709 62.7397 79.264 62.6345 79.3279 62.5118C79.3502 62.4755 79.3692 62.4374 79.3849 62.3979C79.2524 62.456 79.1092 62.4855 78.9646 62.4846C78.6872 62.4811 78.4222 62.369 78.2265 62.1723C78.0309 61.9756 77.9201 61.71 77.918 61.4326ZM78.406 61.4326C78.4006 61.5116 78.4115 61.5908 78.438 61.6654C78.4645 61.74 78.5061 61.8084 78.5601 61.8663C78.6141 61.9242 78.6795 61.9703 78.7521 62.0018C78.8247 62.0334 78.9031 62.0497 78.9822 62.0497C79.0614 62.0497 79.1397 62.0334 79.2124 62.0018C79.285 61.9703 79.3503 61.9242 79.4044 61.8663C79.4584 61.8084 79.5 61.74 79.5265 61.6654C79.553 61.5908 79.5639 61.5116 79.5584 61.4326C79.5484 61.2866 79.4833 61.1498 79.3764 61.05C79.2694 60.9501 79.1286 60.8946 78.9822 60.8946C78.8359 60.8946 78.695 60.9501 78.5881 61.05C78.4811 61.1498 78.4161 61.2866 78.406 61.4326Z" fill="white"/>
<path d="M90.0312 61.9914C90.0312 61.9195 90.0598 61.8505 90.1107 61.7996C90.1615 61.7488 90.2305 61.7202 90.3024 61.7202H91.6582C91.7156 61.7358 91.7663 61.7699 91.8025 61.8172C91.8386 61.8645 91.8582 61.9223 91.8582 61.9819C91.8582 62.0414 91.8386 62.0993 91.8025 62.1466C91.7663 62.1938 91.7156 62.2279 91.6582 62.2435H90.3024C90.2337 62.2437 90.1674 62.2178 90.1171 62.1709C90.0667 62.1241 90.0361 62.0599 90.0312 61.9914Z" fill="#37474F"/>
<path d="M56.3378 74.632C56.3379 74.6642 56.3314 74.696 56.319 74.7256C56.3065 74.7553 56.2882 74.7821 56.2653 74.8046C56.2423 74.8271 56.215 74.8447 56.1851 74.8566C56.1552 74.8684 56.1232 74.8741 56.0911 74.8733H56.0477V75.2069C56.0477 75.2709 56.0223 75.3322 55.977 75.3775C55.9318 75.4228 55.8704 75.4482 55.8064 75.4482C55.7424 75.4482 55.681 75.4228 55.6357 75.3775C55.5905 75.3322 55.5651 75.2709 55.5651 75.2069V74.8625H54.1849C54.13 74.8648 54.0764 74.8453 54.0358 74.8083C54.0103 74.7894 53.989 74.7655 53.973 74.7381C53.9571 74.7107 53.9469 74.6804 53.9431 74.6489C53.9393 74.6174 53.9419 74.5855 53.9509 74.5551C53.9598 74.5247 53.9749 74.4964 53.9951 74.472L55.622 72.4547V72.4357C55.6298 72.4371 55.6378 72.4366 55.6454 72.4343C55.6529 72.4319 55.6598 72.4277 55.6654 72.4221C55.6654 72.4221 55.6654 72.4221 55.6817 72.4086C55.6979 72.395 55.6817 72.4086 55.7088 72.4086C55.7359 72.4086 55.7088 72.395 55.725 72.395H55.7522C55.7583 72.3973 55.765 72.3973 55.7711 72.395H55.8444C55.8514 72.3975 55.859 72.3975 55.866 72.395C55.866 72.395 55.885 72.395 55.8932 72.395H55.9094L55.9338 72.4113C55.9338 72.4113 55.9338 72.4113 55.9555 72.4249H55.9691L55.9881 72.4438V72.4601C55.9956 72.4661 56.0021 72.4735 56.007 72.4818C56.005 72.4879 56.005 72.4946 56.007 72.5008C56.009 72.5088 56.009 72.5172 56.007 72.5252C56.007 72.5252 56.007 72.5387 56.007 72.5442C56.0099 72.552 56.0099 72.5607 56.007 72.5686C56.007 72.5686 56.007 72.5821 56.007 72.593V74.3771H56.0504C56.0868 74.3705 56.1243 74.3722 56.1599 74.3822C56.1956 74.3921 56.2285 74.4101 56.2562 74.4346C56.2839 74.4592 56.3056 74.4897 56.3198 74.5239C56.3339 74.5581 56.3401 74.5951 56.3378 74.632ZM55.5651 73.3061L54.692 74.3907H55.5651V73.3061Z" fill="white"/>
<path d="M67.6748 73.5881C67.7767 73.6893 67.8574 73.8097 67.9123 73.9424C67.9672 74.0751 67.9953 74.2173 67.9948 74.3609C67.9937 74.6505 67.8788 74.928 67.6748 75.1336C67.5743 75.2348 67.4547 75.3152 67.323 75.3701C67.1914 75.425 67.0502 75.4534 66.9075 75.4536C66.7656 75.4538 66.625 75.4257 66.4942 75.3707C66.3633 75.3158 66.2448 75.2351 66.1456 75.1336C66.1218 75.1109 66.1028 75.0835 66.0899 75.0532C66.077 75.0229 66.0703 74.9903 66.0703 74.9574C66.0703 74.9245 66.077 74.8919 66.0899 74.8616C66.1028 74.8313 66.1218 74.8039 66.1456 74.7812C66.1922 74.7353 66.255 74.7096 66.3204 74.7096C66.3859 74.7096 66.4487 74.7353 66.4953 74.7812C66.5499 74.837 66.6151 74.8814 66.687 74.9116C66.7589 74.9419 66.8362 74.9575 66.9143 74.9575C66.9923 74.9575 67.0696 74.9419 67.1415 74.9116C67.2135 74.8814 67.2786 74.837 67.3332 74.7812C67.4442 74.6714 67.5075 74.5224 67.5094 74.3663C67.5094 74.2093 67.4473 74.0586 67.3365 73.9474C67.2257 73.8361 67.0754 73.7732 66.9183 73.7725C66.8401 73.7717 66.7624 73.7863 66.6898 73.8156C66.6172 73.845 66.5511 73.8883 66.4953 73.9433C66.4724 73.9663 66.4452 73.9846 66.4151 73.9971C66.3851 74.0096 66.3529 74.016 66.3204 74.016C66.2879 74.016 66.2558 74.0096 66.2257 73.9971C66.1957 73.9846 66.1685 73.9663 66.1456 73.9433C66.1266 73.927 66.1157 73.9053 66.0968 73.8864C66.0778 73.8674 66.0968 73.8728 66.0968 73.8728C66.0992 73.8658 66.0992 73.8581 66.0968 73.8511C66.0968 73.8375 66.0968 73.8294 66.0968 73.8213C66.0913 73.7963 66.0913 73.7704 66.0968 73.7454L66.2296 72.6092C66.2346 72.5743 66.2468 72.5409 66.2655 72.511C66.2841 72.4811 66.3089 72.4554 66.3381 72.4357C66.3381 72.4357 66.3516 72.4357 66.3543 72.4357C66.3571 72.4357 66.3543 72.4357 66.3679 72.4357C66.4034 72.4185 66.4423 72.4092 66.4818 72.4086H67.7779C67.8126 72.4049 67.8478 72.4086 67.881 72.4195C67.9143 72.4303 67.9449 72.4479 67.9708 72.4713C67.9968 72.4947 68.0175 72.5233 68.0318 72.5552C68.046 72.5872 68.0533 72.6217 68.0533 72.6567C68.0533 72.6916 68.046 72.7262 68.0318 72.7581C68.0175 72.7901 67.9968 72.8186 67.9708 72.842C67.9449 72.8654 67.9143 72.8831 67.881 72.8939C67.8478 72.9047 67.8126 72.9084 67.7779 72.9048H66.6933L66.6391 73.3386C66.7357 73.314 66.8349 73.3013 66.9346 73.3007C67.2088 73.2995 67.4733 73.4021 67.6748 73.5881Z" fill="white"/>
<path d="M80.0451 74.3848C80.0403 74.6545 79.9335 74.9123 79.7461 75.1063C79.5587 75.3003 79.3047 75.416 79.0354 75.4301C78.766 75.4442 78.5014 75.3556 78.2947 75.1823C78.0881 75.0089 77.9549 74.7637 77.922 74.496C77.922 74.4146 77.922 74.3306 77.922 74.2465C77.919 73.9407 77.9705 73.6368 78.0738 73.349C78.1799 73.0458 78.378 72.7832 78.6405 72.5979C78.8366 72.469 79.0649 72.3976 79.2994 72.3919C79.3314 72.3904 79.3632 72.3953 79.3933 72.4063C79.4233 72.4172 79.4508 72.434 79.4743 72.4557C79.4977 72.4774 79.5166 72.5036 79.5299 72.5326C79.5432 72.5617 79.5506 72.5931 79.5516 72.625C79.5518 72.6895 79.5276 72.7516 79.4838 72.7989C79.44 72.8462 79.38 72.8751 79.3157 72.8799C79.1697 72.8815 79.0269 72.9238 78.9036 73.0019C78.7914 73.0825 78.6987 73.1872 78.6324 73.3083C78.6107 73.3436 78.5945 73.3843 78.5755 73.4222C78.7079 73.3641 78.8511 73.3346 78.9958 73.3355C79.2727 73.3396 79.5372 73.4516 79.7331 73.6474C79.929 73.8433 80.0409 74.1078 80.0451 74.3848ZM79.557 74.3848C79.5625 74.3058 79.5516 74.2266 79.5251 74.1519C79.4986 74.0773 79.457 74.009 79.403 73.9511C79.3489 73.8932 79.2836 73.8471 79.211 73.8155C79.1384 73.784 79.06 73.7677 78.9808 73.7677C78.9017 73.7677 78.8233 73.784 78.7507 73.8155C78.6781 73.8471 78.6127 73.8932 78.5587 73.9511C78.5047 74.009 78.4631 74.0773 78.4366 74.1519C78.4101 74.2266 78.3992 74.3058 78.4046 74.3848C78.4147 74.5308 78.4797 74.6675 78.5867 74.7674C78.6936 74.8673 78.8345 74.9228 78.9808 74.9228C79.1272 74.9228 79.268 74.8673 79.375 74.7674C79.482 74.6675 79.547 74.5308 79.557 74.3848Z" fill="white"/>
<path d="M90.1223 74.1301C90.0619 74.1301 90.004 74.1061 89.9612 74.0633C89.9185 74.0206 89.8945 73.9627 89.8945 73.9023C89.8945 73.8419 89.9185 73.7839 89.9612 73.7412C90.004 73.6985 90.0619 73.6745 90.1223 73.6745H91.8956C91.956 73.6745 92.014 73.6985 92.0567 73.7412C92.0994 73.7839 92.1234 73.8419 92.1234 73.9023C92.1234 73.9627 92.0994 74.0206 92.0567 74.0633C92.014 74.1061 91.956 74.1301 91.8956 74.1301H90.1223ZM91.3099 72.9777V72.9994C91.3028 73.0746 91.2679 73.1445 91.212 73.1953C91.1561 73.2462 91.0832 73.2744 91.0076 73.2744C90.932 73.2744 90.8592 73.2462 90.8033 73.1953C90.7473 73.1445 90.7124 73.0746 90.7053 72.9994V72.9777C90.7124 72.9024 90.7473 72.8325 90.8033 72.7817C90.8592 72.7308 90.932 72.7026 91.0076 72.7026C91.0832 72.7026 91.1561 72.7308 91.212 72.7817C91.2679 72.8325 91.3028 72.9024 91.3099 72.9777ZM91.3099 74.8052V74.8296C91.3028 74.9049 91.2679 74.9747 91.212 75.0256C91.1561 75.0765 91.0832 75.1046 91.0076 75.1046C90.932 75.1046 90.8592 75.0765 90.8033 75.0256C90.7473 74.9747 90.7124 74.9049 90.7053 74.8296V74.8052C90.7124 74.73 90.7473 74.6601 90.8033 74.6092C90.8592 74.5584 90.932 74.5302 91.0076 74.5302C91.0832 74.5302 91.1561 74.5584 91.212 74.6092C91.2679 74.6601 91.3028 74.73 91.3099 74.8052Z" fill="#37474F"/>
<path d="M55.6221 84.6997V87.2892C55.6217 87.3213 55.6151 87.353 55.6025 87.3824C55.5899 87.4119 55.5716 87.4386 55.5487 87.461C55.5258 87.4834 55.4987 87.5011 55.4689 87.513C55.4392 87.525 55.4074 87.5309 55.3753 87.5306C55.3437 87.5309 55.3122 87.5249 55.2829 87.5129C55.2536 87.5009 55.2271 87.4831 55.2048 87.4605C55.1825 87.438 55.165 87.4112 55.1533 87.3818C55.1416 87.3524 55.136 87.3209 55.1367 87.2892V85.12L54.9605 85.2204C54.9242 85.244 54.8817 85.2563 54.8385 85.2556C54.7859 85.2549 54.7349 85.2372 54.6932 85.2053C54.6515 85.1733 54.6212 85.1287 54.6069 85.0781C54.5926 85.0275 54.595 84.9736 54.6137 84.9245C54.6325 84.8754 54.6666 84.8337 54.711 84.8055L55.2533 84.4828H55.2696C55.2696 84.4828 55.2831 84.4828 55.2913 84.4693H55.3184C55.3184 84.4693 55.3319 84.4693 55.3347 84.4693C55.3453 84.4666 55.3565 84.4666 55.3672 84.4693H55.4133C55.4194 84.4716 55.4262 84.4716 55.4323 84.4693C55.4458 84.4693 55.4485 84.4693 55.4594 84.4693C55.4646 84.4672 55.4704 84.4672 55.4757 84.4693C55.4757 84.4693 55.4946 84.4828 55.5028 84.4828L55.519 84.4964L55.538 84.5099C55.5452 84.5132 55.551 84.519 55.5543 84.5262V84.5425L55.5733 84.5615C55.5733 84.5615 55.5733 84.5615 55.5733 84.575C55.5733 84.5886 55.5733 84.5886 55.5733 84.5967C55.5733 84.6048 55.5733 84.6157 55.5733 84.6184C55.5726 84.6256 55.5726 84.6329 55.5733 84.6401C55.5693 84.6506 55.5693 84.6621 55.5733 84.6726L55.6221 84.6997Z" fill="white"/>
<path d="M68.074 87.2891C68.0744 87.3208 68.0684 87.3524 68.0564 87.3818C68.0444 87.4113 68.0267 87.438 68.0042 87.4605C67.9817 87.483 67.9549 87.5008 67.9255 87.5128C67.8961 87.5248 67.8645 87.5307 67.8327 87.5304H66.2709C66.2372 87.5307 66.2038 87.5238 66.173 87.5102C66.1421 87.4967 66.1145 87.4767 66.0919 87.4517C66.0482 87.4042 66.025 87.3413 66.0275 87.2768C66.0301 87.2122 66.0581 87.1513 66.1055 87.1074L67.4043 85.9333C67.4894 85.8564 67.5491 85.7554 67.5756 85.6439C67.602 85.5323 67.594 85.4153 67.5526 85.3083C67.5112 85.2014 67.4383 85.1095 67.3435 85.0449C67.2488 84.9802 67.1367 84.9459 67.022 84.9463C66.8815 84.947 66.7459 84.998 66.6397 85.09L66.5041 85.2148C66.4553 85.2507 66.395 85.2673 66.3347 85.2612C66.2744 85.2552 66.2185 85.2269 66.178 85.1819C66.1374 85.1369 66.115 85.0785 66.1151 85.0179C66.1152 84.9573 66.1379 84.8989 66.1787 84.8541L66.3143 84.7321C66.5079 84.5563 66.7604 84.4595 67.022 84.461C67.1691 84.4613 67.3146 84.4923 67.4491 84.5521C67.5835 84.6119 67.704 84.699 67.8029 84.808C67.9794 85.0012 68.0763 85.2541 68.074 85.5157C68.0737 85.6629 68.0427 85.8083 67.9829 85.9428C67.9231 86.0773 67.836 86.1978 67.727 86.2967L66.9 87.045H67.8327C67.897 87.0457 67.9583 87.0718 68.0035 87.1175C68.0487 87.1631 68.0741 87.2248 68.074 87.2891Z" fill="white"/>
<path d="M79.645 85.6654C79.7471 85.7653 79.828 85.8847 79.8829 86.0165C79.9379 86.1484 79.9658 86.2899 79.965 86.4327C79.9673 86.6489 79.905 86.8609 79.786 87.0415C79.667 87.222 79.4967 87.3628 79.2971 87.4459C79.0974 87.529 78.8775 87.5505 78.6656 87.5076C78.4536 87.4648 78.2593 87.3596 78.1076 87.2055C78.0612 87.1591 78.0352 87.0962 78.0352 87.0306C78.0352 86.965 78.0612 86.9021 78.1076 86.8557C78.154 86.8093 78.2169 86.7833 78.2825 86.7833C78.3481 86.7833 78.411 86.8093 78.4574 86.8557C78.5121 86.9105 78.5773 86.9538 78.649 86.9831C78.7207 87.0125 78.7975 87.0272 78.875 87.0265C79.0319 87.0263 79.1826 86.965 79.2952 86.8557C79.3514 86.8006 79.396 86.7347 79.4262 86.6621C79.4565 86.5894 79.4719 86.5114 79.4715 86.4327C79.472 86.3552 79.4567 86.2784 79.4264 86.207C79.3961 86.1356 79.3514 86.0713 79.2952 86.0179C79.2407 85.9623 79.1758 85.9182 79.1041 85.8879C79.0324 85.8577 78.9555 85.8419 78.8777 85.8416C78.8437 85.8436 78.8098 85.8376 78.7787 85.8239C78.7476 85.8102 78.7202 85.7893 78.6987 85.763C78.6757 85.74 78.6574 85.7128 78.6449 85.6828C78.6324 85.6528 78.626 85.6206 78.626 85.5881C78.626 85.5556 78.6324 85.5234 78.6449 85.4934C78.6574 85.4634 78.6757 85.4361 78.6987 85.4132L79.1461 84.9577H78.4357C78.4029 84.9573 78.3706 84.9505 78.3404 84.9376C78.3103 84.9248 78.283 84.9061 78.2601 84.8827C78.2372 84.8593 78.2191 84.8316 78.2069 84.8011C78.1947 84.7707 78.1886 84.7382 78.1889 84.7055C78.1889 84.6732 78.1953 84.6412 78.2078 84.6115C78.2202 84.5817 78.2384 84.5546 78.2614 84.532C78.2843 84.5093 78.3115 84.4913 78.3415 84.4792C78.3714 84.4671 78.4034 84.4611 78.4357 84.4614H79.7291C79.7719 84.4611 79.8141 84.4718 79.8515 84.4927C79.8889 84.5136 79.9203 84.5439 79.9424 84.5805C79.9646 84.6172 79.9768 84.659 79.9779 84.7018C79.979 84.7447 79.969 84.787 79.9487 84.8248C79.9358 84.8466 79.9213 84.8675 79.9053 84.8871L79.363 85.4566C79.469 85.5083 79.5646 85.5791 79.645 85.6654Z" fill="white"/>
<path d="M91.7269 85.7227L91.1846 86.4439L91.7052 87.1679C91.7403 87.2157 91.7555 87.2752 91.7474 87.334C91.7392 87.3927 91.7086 87.446 91.6618 87.4824C91.6208 87.5126 91.5717 87.5296 91.5208 87.5312C91.4464 87.525 91.3774 87.4899 91.3283 87.4336L90.9134 86.8344L90.4742 87.4336C90.4527 87.462 90.4254 87.4855 90.394 87.5023C90.3627 87.5192 90.328 87.529 90.2925 87.5312C90.2424 87.5299 90.1941 87.5128 90.1542 87.4824C90.1298 87.4655 90.109 87.4437 90.0932 87.4185C90.0774 87.3932 90.0669 87.3651 90.0623 87.3356C90.0578 87.3062 90.0592 87.2762 90.0667 87.2473C90.0741 87.2185 90.0872 87.1915 90.1054 87.1679L90.6314 86.4439L90.1 85.7227C90.0819 85.6995 90.0688 85.6729 90.0615 85.6445C90.0542 85.6161 90.0527 85.5865 90.0573 85.5575C90.0619 85.5285 90.0724 85.5008 90.0881 85.476C90.1038 85.4513 90.1245 85.43 90.1488 85.4136C90.1728 85.3955 90.2001 85.3823 90.2292 85.3748C90.2583 85.3674 90.2886 85.3657 90.3184 85.37C90.3481 85.3743 90.3767 85.3844 90.4025 85.3998C90.4283 85.4152 90.4508 85.4355 90.4688 85.4596L90.908 86.048L91.3446 85.4596C91.384 85.4112 91.4403 85.3794 91.5022 85.3709C91.5642 85.3623 91.627 85.3776 91.6781 85.4136C91.7253 85.4482 91.7569 85.5002 91.7661 85.5581C91.7752 85.616 91.7611 85.6751 91.7269 85.7227Z" fill="#37474F"/>
<path d="M55.341 98.9946C55.4278 98.9953 55.5109 99.0301 55.5722 99.0915C55.6336 99.1529 55.6684 99.2359 55.6691 99.3227C55.6684 99.4093 55.6335 99.492 55.5721 99.553C55.5106 99.6139 55.4276 99.6481 55.341 99.6481C55.2982 99.6485 55.2557 99.6403 55.2161 99.6241C55.1764 99.6078 55.1404 99.5839 55.1101 99.5536C55.0798 99.5233 55.0559 99.4873 55.0397 99.4477C55.0234 99.408 55.0153 99.3655 55.0156 99.3227C55.0156 99.2362 55.0498 99.1531 55.1108 99.0917C55.1717 99.0302 55.2545 98.9953 55.341 98.9946Z" fill="white"/>
<path d="M65.8283 98.0788C65.8229 97.7074 65.9266 97.3425 66.1266 97.0295C66.2058 96.8828 66.3233 96.7603 66.4665 96.6749C66.6097 96.5895 66.7733 96.5444 66.94 96.5444C67.1068 96.5444 67.2704 96.5895 67.4136 96.6749C67.5568 96.7603 67.6742 96.8828 67.7535 97.0295C67.9449 97.3455 68.0461 97.708 68.0461 98.0775C68.0461 98.447 67.9449 98.8094 67.7535 99.1255C67.6749 99.2729 67.5576 99.3962 67.4144 99.4822C67.2711 99.5681 67.1071 99.6136 66.94 99.6136C66.7729 99.6136 66.609 99.5681 66.4657 99.4822C66.3224 99.3962 66.2052 99.2729 66.1266 99.1255C65.9271 98.8132 65.8235 98.4494 65.8283 98.0788ZM67.561 98.0788C67.5657 97.8038 67.4923 97.533 67.3495 97.2979C67.31 97.2221 67.2521 97.1575 67.181 97.1101C67.1098 97.0627 67.0279 97.034 66.9428 97.0268C66.8566 97.0353 66.7737 97.0644 66.701 97.1116C66.6284 97.1588 66.5681 97.2227 66.5252 97.2979C66.3867 97.5339 66.3137 97.8025 66.3137 98.0761C66.3137 98.3497 66.3867 98.6184 66.5252 98.8543C66.5681 98.9296 66.6284 98.9935 66.701 99.0407C66.7737 99.0878 66.8566 99.1169 66.9428 99.1255C67.0276 99.1173 67.1092 99.0882 67.1801 99.0409C67.2511 98.9936 67.3092 98.9295 67.3495 98.8543C67.4916 98.6209 67.5649 98.3521 67.561 98.0788Z" fill="white"/>
<path d="M78.1055 97.7529C78.1096 97.6839 78.14 97.619 78.1904 97.5716C78.2408 97.5242 78.3074 97.4979 78.3766 97.498H79.7324C79.7657 97.498 79.7987 97.5047 79.8295 97.5175C79.8603 97.5303 79.8882 97.5492 79.9116 97.5729C79.9351 97.5966 79.9536 97.6247 79.9661 97.6556C79.9786 97.6865 79.9849 97.7196 79.9845 97.7529C79.9853 97.7862 79.9793 97.8194 79.9669 97.8503C79.9544 97.8812 79.9359 97.9093 79.9123 97.9329C79.8888 97.9564 79.8607 97.975 79.8297 97.9874C79.7988 97.9998 79.7657 98.0058 79.7324 98.0051H78.3766C78.342 98.0073 78.3074 98.0024 78.2747 97.9908C78.2421 97.9792 78.2121 97.961 78.1868 97.9374C78.1614 97.9138 78.1411 97.8852 78.1271 97.8535C78.1131 97.8218 78.1058 97.7876 78.1055 97.7529ZM78.1055 98.5664C78.1055 98.4945 78.134 98.4255 78.1849 98.3746C78.2357 98.3238 78.3047 98.2952 78.3766 98.2952H79.7324C79.7898 98.3108 79.8405 98.3449 79.8767 98.3922C79.9128 98.4395 79.9324 98.4974 79.9324 98.5569C79.9324 98.6164 79.9128 98.6743 79.8767 98.7216C79.8405 98.7689 79.7898 98.8029 79.7324 98.8186H78.3766C78.3074 98.8187 78.2408 98.7924 78.1904 98.745C78.14 98.6976 78.1096 98.6327 78.1055 98.5637V98.5664Z" fill="#37474F"/>
<path d="M90.7595 98.3095H90.1359C90.0719 98.3095 90.0105 98.2841 89.9652 98.2388C89.92 98.1936 89.8945 98.1322 89.8945 98.0682C89.8959 98.0046 89.9218 97.944 89.9667 97.8991C90.0117 97.8541 90.0723 97.8282 90.1359 97.8269H90.7595V97.2195C90.7588 97.1864 90.7647 97.1535 90.777 97.1227C90.7892 97.092 90.8075 97.064 90.8308 97.0405C90.854 97.017 90.8818 96.9984 90.9124 96.9858C90.943 96.9732 90.9759 96.9669 91.009 96.9673C91.0754 96.968 91.1388 96.9949 91.1855 97.0421C91.2322 97.0893 91.2584 97.1531 91.2584 97.2195V97.8269H91.8821C91.9456 97.8282 92.0062 97.8541 92.0512 97.8991C92.0961 97.944 92.122 98.0046 92.1234 98.0682C92.1234 98.1322 92.098 98.1936 92.0527 98.2388C92.0075 98.2841 91.9461 98.3095 91.8821 98.3095H91.2584V98.9196C91.2584 98.9858 91.2321 99.0492 91.1854 99.096C91.1386 99.1428 91.0751 99.1691 91.009 99.1691C90.9761 99.1694 90.9435 99.1632 90.9131 99.1508C90.8826 99.1384 90.855 99.12 90.8318 99.0968C90.8085 99.0736 90.7902 99.0459 90.7778 99.0155C90.7653 98.9851 90.7591 98.9525 90.7595 98.9196V98.3095Z" fill="#37474F"/>
<path d="M68.6054 48.3441C68.6054 48.3938 68.5857 48.4414 68.5506 48.4764C68.5155 48.5115 68.468 48.5312 68.4183 48.5312H67.876C67.6456 49.1684 67.0626 50.836 66.9351 51.3078C66.9152 51.3641 66.8828 51.4151 66.8402 51.457C66.8047 51.4874 66.7596 51.5047 66.7128 51.5058C66.6797 51.5063 66.6469 51.4999 66.6165 51.4868C66.5861 51.4737 66.5589 51.4543 66.5366 51.4298C66.5366 51.4298 65.9509 50.8577 65.7692 50.6544C65.498 50.3669 65.6201 50.2314 65.658 50.207C65.6897 50.1864 65.7261 50.1743 65.7638 50.1717C65.8234 50.1776 65.8805 50.1991 65.9292 50.2341L66.119 50.432C66.1732 50.4917 66.2247 50.5432 66.2763 50.592L66.4254 50.7438L66.5935 50.9119C66.7318 50.4673 67.35 48.721 67.5154 48.2845C67.5296 48.2614 67.5469 48.2404 67.5669 48.2221C67.5846 48.2021 67.6063 48.1859 67.6306 48.1747C67.6549 48.1635 67.6812 48.1575 67.7079 48.1571H68.4075C68.433 48.1556 68.4585 48.1593 68.4824 48.1681C68.5064 48.1768 68.5283 48.1903 68.5469 48.2079C68.5654 48.2254 68.5802 48.2465 68.5902 48.27C68.6003 48.2934 68.6055 48.3186 68.6054 48.3441Z" fill="#37474F"/>
<path d="M96.2424 27.3398H49.8945V38.4299H96.2424V27.3398Z" fill="#455A64"/>
<path d="M75.3187 30.6644V34.9838C75.3172 35.0912 75.2734 35.1937 75.1967 35.2688C75.12 35.344 75.0166 35.3858 74.9092 35.3851C74.8563 35.3858 74.8038 35.3759 74.7548 35.356C74.7058 35.3361 74.6613 35.3066 74.6238 35.2692C74.5864 35.2318 74.5569 35.1872 74.537 35.1382C74.5171 35.0892 74.5072 35.0367 74.5079 34.9838V31.3829L74.2151 31.5537C74.1533 31.5922 74.0818 31.612 74.009 31.6107C73.9214 31.6086 73.8368 31.5784 73.7676 31.5246C73.6984 31.4709 73.6483 31.3963 73.6246 31.312C73.6009 31.2276 73.6049 31.1378 73.6361 31.0559C73.6672 30.974 73.7238 30.9042 73.7975 30.8569L74.6977 30.3146C74.6977 30.3146 74.7194 30.3146 74.7276 30.301C74.7357 30.2875 74.7493 30.2847 74.7628 30.2793H74.8062C74.8158 30.2755 74.8264 30.2755 74.836 30.2793C74.853 30.2754 74.8706 30.2754 74.8875 30.2793H74.9689C74.9689 30.2793 74.9906 30.2793 74.996 30.2793C75.0127 30.2797 75.0288 30.2854 75.0421 30.2956C75.0421 30.2956 75.0638 30.2956 75.0692 30.2956C75.0746 30.2956 75.099 30.3173 75.1153 30.3173C75.1219 30.3272 75.1313 30.3347 75.1424 30.339C75.1424 30.339 75.1668 30.3552 75.1722 30.3634C75.1777 30.3715 75.1939 30.3851 75.2021 30.3905C75.2106 30.3994 75.2179 30.4095 75.2238 30.4203L75.2536 30.4501V30.4637C75.2536 30.4637 75.2536 30.48 75.2536 30.4881C75.2536 30.4962 75.2699 30.5098 75.2699 30.5234C75.2699 30.5369 75.2699 30.5532 75.2699 30.5586C75.269 30.5712 75.269 30.5839 75.2699 30.5966C75.2685 30.6056 75.269 30.6149 75.2714 30.6237C75.2737 30.6326 75.2778 30.6409 75.2834 30.6481L75.3187 30.6644Z" fill="white"/>
<path d="M79.5571 34.9862C79.5578 35.0391 79.548 35.0916 79.5281 35.1406C79.5081 35.1896 79.4786 35.2342 79.4412 35.2716C79.4038 35.309 79.3593 35.3385 79.3102 35.3584C79.2612 35.3783 79.2087 35.3882 79.1558 35.3875H76.5446C76.4878 35.3886 76.4314 35.3772 76.3795 35.3543C76.3275 35.3314 76.2811 35.2973 76.2437 35.2546C76.1713 35.1761 76.1329 35.0721 76.137 34.9654C76.1411 34.8587 76.1872 34.758 76.2653 34.6852L78.4345 32.7221C78.5342 32.6347 78.6135 32.5265 78.6669 32.4052C78.7203 32.2838 78.7465 32.1523 78.7437 32.0198C78.7441 31.785 78.6582 31.5582 78.5023 31.3826C78.4132 31.2845 78.3043 31.2064 78.1828 31.1536C78.0612 31.1008 77.9298 31.0744 77.7973 31.0762C77.5636 31.0769 77.338 31.1627 77.1628 31.3175L76.9351 31.5236C76.8958 31.5597 76.8497 31.5875 76.7995 31.6056C76.7493 31.6237 76.696 31.6315 76.6428 31.6288C76.5895 31.626 76.5373 31.6126 76.4893 31.5894C76.4412 31.5663 76.3983 31.5337 76.3629 31.4938C76.2914 31.4137 76.2545 31.3087 76.26 31.2015C76.2656 31.0944 76.3133 30.9938 76.3928 30.9216L76.6205 30.7183C76.9409 30.4227 77.3615 30.2599 77.7973 30.2627C78.0432 30.263 78.2863 30.3147 78.5109 30.4147C78.7356 30.5146 78.9368 30.6605 79.1016 30.843C79.3957 31.164 79.5574 31.5844 79.5544 32.0198C79.5542 32.2654 79.5027 32.5083 79.4032 32.7328C79.3038 32.9574 79.1586 33.1588 78.9768 33.324L77.594 34.574H79.1531C79.2068 34.574 79.2601 34.5847 79.3096 34.6055C79.3592 34.6264 79.4041 34.6568 79.4417 34.6952C79.4793 34.7336 79.5089 34.7791 79.5287 34.8291C79.5485 34.879 79.5582 34.9324 79.5571 34.9862Z" fill="white"/>
<path d="M83.342 32.2912C83.5138 32.4571 83.6503 32.656 83.7435 32.8759C83.8367 33.0958 83.8846 33.3322 83.8843 33.5711C83.8851 33.9308 83.779 34.2827 83.5796 34.5821C83.3802 34.8815 83.0964 35.115 82.7642 35.2529C82.432 35.3909 82.0663 35.4271 81.7134 35.3569C81.3606 35.2868 81.0365 35.1135 80.7823 34.859C80.7436 34.8207 80.7129 34.7751 80.6919 34.7248C80.671 34.6746 80.6602 34.6207 80.6602 34.5662C80.6602 34.5117 80.671 34.4578 80.6919 34.4075C80.7129 34.3573 80.7436 34.3117 80.7823 34.2733C80.8604 34.1965 80.9656 34.1535 81.0751 34.1535C81.1847 34.1535 81.2899 34.1965 81.368 34.2733C81.459 34.3647 81.5671 34.4372 81.6863 34.4865C81.8054 34.5359 81.9332 34.5611 82.0621 34.5608C82.3248 34.5603 82.5768 34.4572 82.7644 34.2733C82.8577 34.1819 82.9318 34.0726 82.9821 33.9519C83.0324 33.8313 83.0579 33.7018 83.0572 33.5711C83.0584 33.4415 83.033 33.3131 82.9827 33.1937C82.9323 33.0743 82.858 32.9665 82.7644 32.8769C82.6741 32.7843 82.5661 32.7107 82.4469 32.6604C82.3277 32.6101 82.1996 32.5842 82.0703 32.5841C82.0132 32.587 81.9563 32.5764 81.904 32.5534C81.8517 32.5303 81.8056 32.4953 81.7693 32.4512C81.731 32.4129 81.7006 32.3675 81.6799 32.3175C81.6592 32.2675 81.6485 32.2139 81.6485 32.1597C81.6485 32.1056 81.6592 32.052 81.6799 32.002C81.7006 31.952 81.731 31.9065 81.7693 31.8682L82.5149 31.1063H81.33C81.2261 31.0979 81.1292 31.0507 81.0586 30.9741C80.9879 30.8974 80.9487 30.797 80.9487 30.6928C80.9487 30.5886 80.9879 30.4882 81.0586 30.4116C81.1292 30.3349 81.2261 30.2877 81.33 30.2793H83.4992C83.5961 30.2895 83.6861 30.3338 83.7532 30.4044C83.8203 30.4749 83.86 30.5671 83.8653 30.6643C83.864 30.7335 83.8464 30.8013 83.8138 30.8623C83.7935 30.8994 83.7689 30.9339 83.7406 30.9653L82.8186 31.917C83.0162 32.0057 83.1942 32.1329 83.342 32.2912Z" fill="white"/>
<path d="M88.9469 34.0263C88.9469 34.0797 88.9363 34.1326 88.9156 34.1818C88.8949 34.231 88.8646 34.2757 88.8265 34.313C88.7884 34.3504 88.7432 34.3798 88.6935 34.3995C88.6439 34.4191 88.5908 34.4287 88.5375 34.4276H88.4724V34.9862C88.4724 35.0941 88.4295 35.1975 88.3533 35.2738C88.277 35.3501 88.1735 35.3929 88.0657 35.3929C87.9578 35.3929 87.8543 35.3501 87.7781 35.2738C87.7018 35.1975 87.6589 35.0941 87.6589 34.9862V34.4276H85.3541C85.2631 34.4308 85.1741 34.3998 85.1047 34.3409C85.0624 34.3088 85.0271 34.2685 85.0008 34.2225C84.9746 34.1764 84.9579 34.1255 84.9518 34.0728C84.9457 34.0201 84.9504 33.9667 84.9655 33.9159C84.9806 33.865 85.0058 33.8177 85.0396 33.7769L87.7511 30.4092C87.7511 30.4092 87.7511 30.4092 87.7647 30.3956C87.7738 30.3872 87.7812 30.3771 87.7864 30.3658C87.801 30.3628 87.8143 30.3552 87.8243 30.3441C87.8243 30.3441 87.846 30.3441 87.8514 30.3224C87.8652 30.3135 87.8812 30.3088 87.8975 30.3089C87.8975 30.2926 87.9111 30.2872 87.9247 30.2872C87.9382 30.2872 87.9464 30.2872 87.9708 30.2709C87.9952 30.2546 87.9924 30.2709 87.9979 30.2709H88.1226C88.135 30.2747 88.1482 30.2747 88.1606 30.2709C88.1606 30.2709 88.1904 30.2709 88.2039 30.2872H88.2338C88.2473 30.3034 88.2636 30.3089 88.269 30.317L88.307 30.3387C88.307 30.3387 88.3314 30.3387 88.3314 30.3522L88.3585 30.3821C88.3666 30.3913 88.3739 30.4013 88.3802 30.4119C88.3919 30.422 88.402 30.4339 88.41 30.4471C88.4114 30.4588 88.4173 30.4695 88.4263 30.477C88.4263 30.4932 88.4263 30.4987 88.4398 30.5204C88.4534 30.5421 88.4398 30.5421 88.4398 30.5502C88.4428 30.5645 88.4428 30.5793 88.4398 30.5936C88.4398 30.6098 88.4398 30.6153 88.4398 30.6315V33.6142H88.5131C88.5692 33.6104 88.6254 33.6184 88.6783 33.6375C88.7312 33.6565 88.7796 33.6864 88.8204 33.7251C88.8611 33.7639 88.8934 33.8106 88.9152 33.8625C88.937 33.9143 88.9478 33.9701 88.9469 34.0263ZM87.6589 31.8165L86.2029 33.6223H87.6589V31.8165Z" fill="white"/>
<path d="M92.5944 32.2914C92.7665 32.4588 92.9031 32.6591 92.9963 32.8803C93.0894 33.1016 93.1372 33.3393 93.1367 33.5793C93.1349 33.8178 93.0861 34.0537 92.993 34.2733C92.9 34.4929 92.7645 34.692 92.5944 34.8592C92.428 35.0302 92.229 35.1663 92.0092 35.2594C91.7894 35.3526 91.5533 35.4009 91.3146 35.4015H91.2983C91.0608 35.401 90.8258 35.3527 90.6074 35.2596C90.3889 35.1664 90.1914 35.0302 90.0266 34.8592C89.9862 34.8219 89.954 34.7766 89.9319 34.7262C89.9098 34.6758 89.8984 34.6213 89.8984 34.5663C89.8984 34.5113 89.9098 34.4569 89.9319 34.4065C89.954 34.3561 89.9862 34.3108 90.0266 34.2735C90.1043 34.1968 90.209 34.1538 90.3181 34.1538C90.4272 34.1538 90.532 34.1968 90.6096 34.2735C90.7009 34.3663 90.8098 34.44 90.9299 34.4903C91.05 34.5406 91.179 34.5665 91.3092 34.5665C91.4394 34.5665 91.5683 34.5406 91.6884 34.4903C91.8085 34.44 91.9174 34.3663 92.0087 34.2735C92.1933 34.0893 92.2984 33.8401 92.3016 33.5793C92.3019 33.4495 92.2767 33.3209 92.2272 33.2008C92.1778 33.0807 92.1051 32.9716 92.0135 32.8797C91.9218 32.7877 91.8128 32.7148 91.6929 32.665C91.573 32.6153 91.4444 32.5896 91.3146 32.5896C91.053 32.5833 90.7995 32.6808 90.6096 32.8608C90.5715 32.8994 90.5261 32.9301 90.4761 32.951C90.4261 32.9719 90.3724 32.9827 90.3181 32.9827C90.2639 32.9827 90.2102 32.9719 90.1601 32.951C90.1101 32.9301 90.0647 32.8994 90.0266 32.8608C89.9968 32.8337 89.9751 32.7957 89.9453 32.7659C89.9155 32.7361 89.9453 32.7442 89.9453 32.7442C89.95 32.7329 89.95 32.7202 89.9453 32.7089C89.9453 32.6873 89.9453 32.671 89.9453 32.6574C89.9453 32.6439 89.9453 32.6574 89.9453 32.6412C89.9398 32.6007 89.9398 32.5596 89.9453 32.5191L90.1649 30.6211C90.1855 30.503 90.2517 30.3978 90.3493 30.3282C90.3629 30.3282 90.371 30.3282 90.3791 30.3282C90.3873 30.3282 90.3927 30.3282 90.4008 30.3147C90.4592 30.2836 90.5245 30.2677 90.5906 30.2686H92.7598C92.8699 30.2686 92.9754 30.3123 93.0532 30.3901C93.131 30.4679 93.1747 30.5734 93.1747 30.6835C93.1747 30.7935 93.131 30.899 93.0532 30.9768C92.9754 31.0546 92.8699 31.0983 92.7598 31.0983H90.9133L90.8265 31.8223C90.9865 31.7783 91.1515 31.7556 91.3173 31.7545C91.5552 31.7543 91.7908 31.8017 92.0101 31.8939C92.2294 31.9861 92.4281 32.1213 92.5944 32.2914Z" fill="white"/>
<path d="M81.5069 24.0025L81.3984 24.0296C81.4014 24.0171 81.408 24.0058 81.4174 23.9971L81.5069 24.0025Z" fill="#263238"/>
<path d="M84.6308 102.338H84.582V102.303L84.6308 102.338Z" fill="#DD6A57"/>
<path d="M26.73 25.3359C27.2018 28.8229 29.7994 37.1011 31.7382 37.6299C33.544 38.118 41.4806 35.7535 42.5028 34.1781C43.0451 33.3349 45.2144 25.5908 44.2463 26.0436C43.0207 26.6266 34.0321 31.1711 33.6715 31.0789C32.8905 30.8837 31.3694 27.8088 30.0516 26.0897C27.1774 22.3532 26.5104 23.709 26.73 25.3359Z" fill="#774442"/>
<path d="M32.1516 28.7992L28.0843 32.5275C28.0843 32.5275 26.6445 27.2021 26.4818 24.7373C26.3191 22.2726 28.3338 22.5491 32.1516 28.7992Z" fill="#263238"/>
<path d="M16.6706 63.3439C16.6706 63.3439 12.7362 70.0386 8.38966 66.999C4.04311 63.9594 9.00517 57.9751 9.00517 57.9751L16.6706 63.3439Z" fill="#FF98B9"/>
<path d="M8.83179 58.2122L16.4961 63.5947L47.872 18.9181L40.2077 13.5355L8.83179 58.2122Z" fill="#FFD427"/>
<path opacity="0.1" d="M8.83179 58.2122L16.4961 63.5947L47.872 18.9181L40.2077 13.5355L8.83179 58.2122Z" fill="black"/>
<path d="M8.01967 58.0013L16.9688 64.2861L18.2154 62.511L9.26635 56.2261L8.01967 58.0013Z" fill="#455A64"/>
<path d="M9.39857 56.0394L18.3477 62.3242L19.5943 60.549L10.6453 54.2642L9.39857 56.0394Z" fill="#455A64"/>
<path d="M40.2109 13.5361L46.9599 10.0572L49.1833 8.89941L48.8661 11.394L47.8764 18.9347L46.3173 19.5041C46.3173 19.5041 46.3471 17.8772 46.3417 17.8582L44.7825 18.4249C44.7825 18.4249 44.8124 16.798 44.8069 16.7791L43.2668 17.3593C43.2668 17.3593 43.2668 15.7324 43.2668 15.7026L41.7267 16.2829C41.7267 16.2829 41.7267 14.6559 41.7267 14.6234L40.2109 15.1928C40.2109 15.1928 40.2109 13.5632 40.2109 13.5361Z" fill="#EBEBEB"/>
<path d="M46.957 10.0465L49.1805 8.88867L48.8605 11.3833L46.957 10.0465Z" fill="#37474F"/>
<g opacity="0.1">
<path d="M19.4688 55.4748C21.4066 52.606 23.3652 49.7499 25.3446 46.9065L31.2882 38.3842L37.2861 29.8999L40.3067 25.6726L43.3544 21.4644L40.4287 25.7594L37.4786 30.0354L31.5323 38.5577L25.5317 47.0393C23.5252 49.8611 21.5042 52.6729 19.4688 55.4748Z" fill="black"/>
<path d="M17.3516 54.2302C19.2912 51.3578 21.2498 48.5017 23.2274 45.6618L29.171 37.1368L35.1716 28.6552L38.1922 24.428L41.2372 20.2197L38.3142 24.512L35.3614 28.7881L29.4178 37.3131L23.4172 45.7947C21.4089 48.6147 19.387 51.4265 17.3516 54.2302Z" fill="black"/>
<path d="M15.2305 52.9858C17.1683 50.1153 19.1269 47.2582 21.1063 44.4148L27.0499 35.8925L33.0505 27.4109L36.0711 23.1836L39.127 18.9727L36.204 23.2677L33.2512 27.5437L27.3102 36.066L21.3097 44.5503C19.2869 47.3703 17.2722 50.1876 15.2305 52.9858Z" fill="black"/>
</g>
<path d="M43.9291 25.4747C44.0755 26.6325 44.8672 28.2703 44.6964 29.1217C44.6622 29.3327 44.5609 29.5271 44.4075 29.676C44.2542 29.825 44.0569 29.9206 43.845 29.9487C43.845 29.9487 44.5283 30.6239 44.2463 31.3695C44.1026 31.7546 43.3596 31.8603 43.3596 31.8603C43.5066 32.0217 43.6062 32.2205 43.6473 32.4349C43.6885 32.6492 43.6696 32.8708 43.5928 33.0751C43.3624 33.5903 42.6547 33.6174 42.6547 33.6174C42.6547 33.6174 42.9041 34.3929 42.5001 34.8457C41.6866 35.7595 37.0554 34.2464 36.8981 32.3104C36.8249 31.4075 37.9339 31.8386 37.9339 31.8386C37.9339 31.8386 36.4887 30.8327 36.7761 29.8728C37.0635 28.9129 38.4708 29.5582 38.4708 29.5582C38.4708 29.5582 37.0798 28.5713 37.4784 27.606C37.877 26.6407 39.1893 27.4894 39.1893 27.4894C39.1893 27.4894 38.3759 26.4563 38.864 25.7865C39.6476 24.6802 41.0874 26.8711 42.1828 26.9552L43.2919 25.4639L43.9291 25.4747Z" fill="#774442"/>
<path d="M44.3795 27.2342C44.3334 26.1252 45.9576 25.3064 46.0688 24.2516C46.2179 22.8091 44.2684 23.6334 43.2922 25.4799L42.7852 27.0471L44.3795 27.2342Z" fill="#774442"/>
<path d="M42.5452 33.6469C42.5614 33.6469 42.5452 33.674 42.5452 33.6713C40.8381 33.5454 39.2096 32.9032 37.876 31.8301C37.8353 31.7949 37.876 31.7108 37.9275 31.7407C39.3661 32.5966 40.9217 33.2387 42.5452 33.6469Z" fill="#263238"/>
<path d="M43.3812 31.8764C43.3974 31.8764 43.3812 31.9117 43.3812 31.9117C41.4963 31.7546 39.7301 30.9273 38.4028 29.5798C38.3594 29.531 38.3676 29.4415 38.4218 29.493C39.3627 30.3688 41.8491 31.5185 43.3812 31.8764Z" fill="#263238"/>
<path d="M39.1266 27.3593C40.4336 28.6608 42.028 29.4092 43.7742 29.946C43.7986 29.946 43.7742 29.984 43.7742 29.984C42.8496 29.9542 41.7704 29.4959 40.9623 29.0702C40.2045 28.6874 39.5596 28.1136 39.0914 27.4054C39.0643 27.3755 39.1022 27.3294 39.1266 27.3593Z" fill="#263238"/>
<path d="M45.6127 109.534C44.9918 109.735 27.2667 109.504 26.5969 109.068C26.3258 108.905 26.2227 106.321 26.1712 103.195V103.097C26.1712 102.452 26.1495 101.788 26.1495 101.115C26.1495 101.023 26.1495 100.931 26.1495 100.844C26.1251 96.3293 26.1983 91.6465 26.1983 91.6465L38.0558 91.7658L37.6978 100.876L37.6843 101.237L37.6138 103.122V103.317C37.6138 103.317 44.36 106.438 45.0433 106.996C45.7266 107.555 46.2337 109.336 45.6127 109.534Z" fill="#774442"/>
<path d="M45.6117 109.534C44.9907 109.735 27.2656 109.504 26.5958 109.068C26.3247 108.905 26.2216 106.321 26.1701 103.195V103.097C26.1701 102.452 26.1484 101.787 26.1484 101.115C26.1484 101.023 26.1484 100.931 26.1484 100.844L37.6968 100.876L37.6832 101.237L37.6127 103.121V103.317C37.6127 103.317 44.3589 106.438 45.0422 106.996C45.7255 107.555 46.2326 109.336 45.6117 109.534Z" fill="#EBEBEB"/>
<path d="M45.6146 109.535C45.2296 109.659 38.364 109.619 32.9871 109.467C29.6302 109.375 26.8564 109.236 26.5988 109.068C26.3412 108.9 26.2273 106.395 26.1758 103.325C26.1758 103.282 26.1758 103.238 26.1758 103.195C26.1758 103.152 26.1758 103.127 26.1758 103.095L37.6129 103.116V103.312C37.6129 103.312 44.3592 106.433 45.0425 106.991C45.7258 107.55 46.2355 109.337 45.6146 109.535Z" fill="#FFD427"/>
<path d="M45.4218 108.845C42.4392 108.731 30.3784 108.574 27.4147 108.677C27.393 108.677 27.393 108.696 27.4147 108.696C30.373 108.872 42.4338 108.945 45.4218 108.894C45.4842 108.891 45.4842 108.848 45.4218 108.845Z" fill="#263238"/>
<path d="M38.8791 103.165C37.705 102.932 36.2652 103.092 35.3541 103.919C35.3189 103.951 35.3541 104 35.4029 103.989C36.5306 103.641 37.6924 103.415 38.8682 103.314C38.886 103.312 38.9025 103.304 38.915 103.291C38.9274 103.279 38.9349 103.262 38.9362 103.244C38.9375 103.226 38.9325 103.209 38.922 103.194C38.9116 103.18 38.8964 103.169 38.8791 103.165Z" fill="#263238"/>
<path d="M39.7228 103.689C38.5515 103.453 37.1117 103.615 36.1979 104.442C36.1626 104.472 36.1979 104.524 36.2467 104.513C37.375 104.164 38.5378 103.937 39.7147 103.838C39.7323 103.835 39.7486 103.827 39.7607 103.814C39.7728 103.801 39.7799 103.784 39.7809 103.766C39.7819 103.749 39.7766 103.731 39.766 103.717C39.7554 103.703 39.7401 103.693 39.7228 103.689Z" fill="#263238"/>
<path d="M40.5666 104.211C39.3925 103.975 37.9527 104.138 37.0416 104.962C37.0064 104.995 37.0416 105.043 37.0904 105.033C38.2184 104.686 39.38 104.459 40.5557 104.357C40.5752 104.359 40.5944 104.353 40.6091 104.34C40.6238 104.327 40.6329 104.309 40.6344 104.29C40.6358 104.27 40.6295 104.251 40.6168 104.236C40.6041 104.222 40.586 104.212 40.5666 104.211Z" fill="#263238"/>
<path d="M40.4438 100.621C39.991 99.9786 39.126 100.252 38.6298 100.659C37.7914 101.373 37.1547 102.294 36.7833 103.33C36.7815 103.334 36.7809 103.339 36.7814 103.344C36.7819 103.349 36.7836 103.353 36.7863 103.357C36.7889 103.361 36.7925 103.365 36.7967 103.367C36.8009 103.369 36.8056 103.371 36.8104 103.371C36.8104 103.46 36.8918 103.558 36.9948 103.52C37.9682 103.175 39.0555 102.923 39.8961 102.289C40.3869 101.917 40.8722 101.229 40.4438 100.621ZM38.3641 102.693C37.8896 102.874 37.4069 103.032 36.9378 103.235C37.2798 102.707 37.6482 102.197 38.0414 101.706C38.2364 101.469 38.4475 101.246 38.6732 101.039C39.0257 100.727 40.4194 100.068 40.1971 101.353C40.0832 102.056 38.9308 102.476 38.3641 102.693Z" fill="#263238"/>
<path d="M33.8016 102.983C34.7642 103.408 35.8786 103.403 36.909 103.525C37.0147 103.525 37.0689 103.425 37.05 103.335C37.0545 103.334 37.0586 103.331 37.0621 103.328C37.0656 103.325 37.0684 103.321 37.0702 103.317C37.072 103.312 37.0728 103.308 37.0726 103.303C37.0724 103.298 37.0711 103.293 37.0689 103.289C36.4688 102.368 35.6377 101.62 34.6584 101.12C34.0809 100.849 33.1779 100.77 32.8824 101.5C32.5868 102.229 33.2376 102.736 33.8016 102.983ZM33.281 102.137C32.7658 100.936 34.2734 101.258 34.6909 101.481C34.9576 101.632 35.2139 101.8 35.4583 101.985C35.9583 102.372 36.438 102.785 36.8954 103.221C36.3938 103.135 35.8867 103.094 35.3824 103.026C34.7886 102.945 33.563 102.79 33.281 102.137Z" fill="#263238"/>
<path d="M32.9871 109.467C29.6302 109.375 26.8564 109.236 26.5988 109.068C26.3412 108.9 26.2273 106.395 26.1758 103.325C27.5532 104.554 30.9724 107.604 32.9871 109.467Z" fill="#263238"/>
<path d="M22.6289 40.583C22.6289 40.583 25.2943 70.5235 25.7227 72.8201C25.8231 73.3408 25.8854 76.1716 25.9261 79.8104C26.0183 87.7497 25.9261 103.216 25.9261 103.216H38.4207C38.4207 103.216 38.0872 77.2589 37.5341 72.6927C36.9809 68.1265 33.4451 40.583 33.4451 40.583H22.6289Z" fill="#37474F"/>
<path d="M37.857 101.039C35.9074 100.999 36.466 100.985 34.5164 100.966C33.562 100.966 27.2902 100.901 26.4009 101.047C26.3967 101.049 26.3931 101.052 26.3906 101.055C26.3881 101.059 26.3867 101.063 26.3867 101.068C26.3867 101.072 26.3881 101.077 26.3906 101.08C26.3931 101.084 26.3967 101.087 26.4009 101.088C27.293 101.237 33.562 101.18 34.5164 101.172C36.466 101.153 35.9074 101.137 37.857 101.096C37.8922 101.096 37.8922 101.042 37.857 101.039Z" fill="#263238"/>
<path d="M28.3407 85.7084C28.328 83.9007 28.3145 82.0885 28.3 80.2718C28.2865 78.5147 28.3 76.7468 28.2051 75.006C28.037 71.454 27.3157 67.9561 26.8033 64.4528C26.2908 60.9496 25.8651 57.4029 25.4773 53.8779C25.0435 49.9191 24.6639 45.9549 24.2517 41.9934C24.2517 41.969 24.2083 41.969 24.2111 41.9934C24.7995 49.065 25.4556 56.1366 26.4345 63.1676C26.6785 64.9174 26.9497 66.6627 27.2479 68.4035C27.5381 70.1687 27.8282 71.9285 27.9665 73.7153C28.1048 75.5022 28.1265 77.2132 28.1427 78.9621C28.1626 80.7698 28.1807 82.5775 28.197 84.3851C28.2377 88.4063 28.2377 95.7464 28.2756 99.7702C28.2756 99.8462 28.3976 99.8435 28.3976 99.7702C28.3542 96.2019 28.3678 89.2984 28.3407 85.7084Z" fill="#263238"/>
<path d="M19.9961 40.5831C19.9961 40.5831 25.2971 70.5236 25.7255 72.8203C25.8258 73.3409 25.8882 76.1717 25.9289 79.8105L31.8942 40.5723L19.9961 40.5831Z" fill="#263238"/>
<path d="M30.9104 110.591C30.2759 110.746 12.6132 109.263 11.976 108.777C11.7319 108.598 11.797 106.012 11.976 102.888C11.976 102.855 11.976 102.823 11.976 102.79C12.0112 102.148 12.0492 101.483 12.0953 100.814C12.0953 100.721 12.0953 100.629 12.1115 100.542C12.4071 96.0386 12.8111 91.3721 12.8111 91.3721L24.6279 92.3319L23.6273 101.391L23.5894 101.752L23.3833 103.628L23.3643 103.821C23.3643 103.821 29.8719 107.413 30.5145 108.018C31.1572 108.623 31.5341 110.437 30.9104 110.591Z" fill="#774442"/>
<path d="M30.9104 110.592C30.2759 110.746 12.6132 109.263 11.976 108.778C11.7319 108.599 11.797 106.012 11.976 102.888C11.976 102.856 11.976 102.823 11.976 102.791C12.0112 102.148 12.0492 101.484 12.0953 100.814C12.0953 100.722 12.0953 100.63 12.1115 100.543L23.6273 101.392L23.5894 101.752L23.3833 103.629L23.3643 103.821C23.3643 103.821 29.8719 107.414 30.5145 108.019C31.1572 108.623 31.5341 110.437 30.9104 110.592Z" fill="#EBEBEB"/>
<path d="M30.9104 110.592C30.2759 110.747 12.6132 109.263 11.976 108.778C11.7319 108.599 11.797 106.012 11.976 102.889C11.976 102.856 11.976 102.824 11.976 102.791L23.3833 103.623L23.3643 103.816C23.3643 103.816 29.8719 107.409 30.5145 108.013C31.1572 108.618 31.5341 110.437 30.9104 110.592Z" fill="#FFD427"/>
<path d="M30.7693 109.89C27.7866 109.567 15.7828 108.534 12.8191 108.447C12.7947 108.447 12.7947 108.464 12.8191 108.466C15.7556 108.851 27.7812 109.779 30.7639 109.939C30.8289 109.941 30.8316 109.895 30.7693 109.89Z" fill="#263238"/>
<path d="M24.6452 103.761C23.4928 103.444 22.0448 103.504 21.0768 104.263C21.0416 104.293 21.0768 104.344 21.1229 104.336C22.273 104.069 23.4483 103.925 24.6289 103.908C24.6457 103.905 24.6612 103.897 24.6731 103.885C24.6849 103.873 24.6924 103.858 24.6942 103.841C24.6961 103.824 24.6923 103.807 24.6834 103.792C24.6745 103.778 24.6611 103.767 24.6452 103.761Z" fill="#263238"/>
<path d="M25.4484 104.342C24.296 104.024 22.8481 104.071 21.8828 104.843C21.8448 104.873 21.8828 104.925 21.9262 104.917C23.0763 104.65 24.2516 104.507 25.4321 104.491C25.4502 104.49 25.4674 104.483 25.4806 104.47C25.4938 104.458 25.5021 104.441 25.5041 104.423C25.506 104.405 25.5015 104.387 25.4913 104.372C25.4811 104.357 25.4659 104.346 25.4484 104.342Z" fill="#263238"/>
<path d="M26.2492 104.922C25.0968 104.605 23.6489 104.665 22.6836 105.424C22.6456 105.454 22.6836 105.508 22.7269 105.497C23.8771 105.231 25.0524 105.088 26.2329 105.071C26.251 105.071 26.2682 105.063 26.2814 105.051C26.2946 105.038 26.3029 105.022 26.3049 105.004C26.3068 104.986 26.3023 104.968 26.2921 104.953C26.2819 104.938 26.2667 104.927 26.2492 104.922Z" fill="#263238"/>
<path d="M26.3805 101.334C25.9738 100.659 25.0925 100.873 24.5692 101.242C23.6818 101.894 22.9814 102.767 22.5383 103.775C22.5361 103.779 22.5351 103.784 22.5352 103.789C22.5353 103.794 22.5366 103.799 22.5389 103.804C22.5413 103.808 22.5447 103.812 22.5488 103.815C22.5529 103.818 22.5577 103.82 22.5627 103.821C22.5598 103.844 22.5623 103.867 22.57 103.888C22.5777 103.91 22.5903 103.93 22.607 103.945C22.6236 103.961 22.6437 103.973 22.6657 103.98C22.6877 103.986 22.7109 103.988 22.7335 103.984C23.7314 103.712 24.8322 103.533 25.7162 102.959C26.2341 102.622 26.7683 101.977 26.3805 101.334ZM24.1598 103.254C23.6744 103.401 23.1809 103.525 22.701 103.691C23.0814 103.186 23.4878 102.7 23.9185 102.237C24.1299 102.016 24.3564 101.809 24.5963 101.619C24.9705 101.332 26.4076 100.773 26.0931 102.039C25.9223 102.739 24.7536 103.075 24.1625 103.254H24.1598Z" fill="#263238"/>
<path d="M19.5997 103.219C20.5325 103.713 21.6442 103.786 22.661 103.97C22.7668 103.989 22.8291 103.883 22.8183 103.794C22.8231 103.793 22.8277 103.791 22.8315 103.788C22.8353 103.785 22.8383 103.781 22.8402 103.776C22.8421 103.771 22.8428 103.766 22.8423 103.761C22.8418 103.757 22.84 103.752 22.8373 103.748C22.3054 102.784 21.5292 101.977 20.5867 101.408C20.0444 101.088 19.136 100.955 18.7917 101.663C18.4473 102.37 19.0574 102.932 19.5997 103.219ZM19.1415 102.341C18.713 101.104 20.1962 101.527 20.5948 101.798C20.8501 101.962 21.0938 102.143 21.3242 102.341C21.7996 102.762 22.2521 103.208 22.68 103.677C22.1865 103.555 21.6849 103.477 21.1859 103.374C20.5677 103.249 19.3638 103.021 19.1279 102.341H19.1415Z" fill="#263238"/>
<path d="M23.8714 103.466L11.3984 102.937C11.3984 102.937 14.6034 74.8241 14.6658 73.1402C14.8312 68.772 17.7325 40.5723 17.7325 40.5723H32.9793C32.9793 40.5723 32.0168 47.0799 30.3709 51.2095C29.2707 51.5981 28.208 52.0854 27.1957 52.6656C27.1957 52.6656 26.2846 72.3729 26.2304 74.6993C26.1111 79.2953 23.8714 103.466 23.8714 103.466Z" fill="#37474F"/>
<path d="M23.5348 101.178C21.5906 101.055 22.1492 101.064 20.2023 100.961C19.2506 100.912 12.987 100.592 12.0895 100.703C12.0705 100.703 12.0678 100.738 12.0895 100.741C12.9762 100.928 19.2424 101.137 20.1969 101.169C22.1465 101.232 21.5852 101.194 23.5348 101.234C23.5392 101.236 23.544 101.236 23.5486 101.235C23.5532 101.235 23.5576 101.233 23.5613 101.23C23.5651 101.227 23.5682 101.224 23.5703 101.219C23.5724 101.215 23.5735 101.211 23.5735 101.206C23.5735 101.201 23.5724 101.197 23.5703 101.193C23.5682 101.188 23.5651 101.185 23.5613 101.182C23.5576 101.179 23.5532 101.177 23.5486 101.177C23.544 101.176 23.5392 101.176 23.5348 101.178Z" fill="#263238"/>
<path d="M18.8476 42.2453C18.2836 49.3468 17.7006 56.4482 17.0526 63.5442C16.4045 70.6402 13.7988 95.1225 13.1914 99.065C13.1914 99.0921 13.2267 99.103 13.2321 99.065C14.4902 92.053 15.2223 82.6305 16.0114 75.5508C16.8004 68.471 17.4403 61.375 18.0125 54.279C18.3379 50.2632 18.6307 46.2448 18.9371 42.229C18.9425 42.1857 18.853 42.1884 18.8476 42.2453Z" fill="#263238"/>
<path d="M30.9163 50.9274C29.6283 51.398 28.3836 51.9796 27.1961 52.6654C27.186 52.6701 27.1782 52.6786 27.1744 52.689C27.1706 52.6994 27.1711 52.711 27.1758 52.721C27.1804 52.7311 27.1889 52.7389 27.1993 52.7427C27.2098 52.7465 27.2213 52.746 27.2314 52.7414C28.4895 52.1991 29.772 51.6866 30.9976 51.0765C31.0174 51.0657 31.0321 51.0475 31.0385 51.0259C31.0448 51.0043 31.0423 50.981 31.0315 50.9613C31.0207 50.9415 31.0025 50.9268 30.9809 50.9204C30.9593 50.9141 30.9361 50.9166 30.9163 50.9274Z" fill="#263238"/>
<path d="M31.3163 42.2965C31.3163 42.2531 31.235 42.2423 31.235 42.2965C31.2356 43.7 31.1659 45.1027 31.0262 46.4993C30.9666 47.1474 30.446 50.7293 29.3207 50.469C29.1336 50.4229 29.0495 50.2385 29.0089 49.9565C29.0129 49.5857 29.063 49.2168 29.158 48.8583C29.2827 48.1073 29.383 47.3562 29.4454 46.5997C29.5774 45.1893 29.5629 43.769 29.402 42.3616C29.3998 42.3535 29.395 42.3465 29.3884 42.3414C29.3818 42.3364 29.3737 42.3337 29.3654 42.3337C29.3571 42.3337 29.349 42.3364 29.3424 42.3414C29.3358 42.3465 29.331 42.3535 29.3288 42.3616C29.3616 44.316 29.2474 46.2702 28.9872 48.2076C28.8462 49.1403 28.3771 50.5422 29.3505 50.6859C30.3239 50.8296 30.9774 48.4842 31.1048 47.8415C31.4153 46.0101 31.4863 44.1462 31.3163 42.2965Z" fill="#263238"/>
<path d="M29.3635 50.5558C29.2645 50.7982 29.1803 51.0463 29.1113 51.2988C29.0383 51.4937 29.0033 51.7008 29.0083 51.9089C29.0083 51.9468 29.0625 51.9523 29.0842 51.9252C29.2036 51.7418 29.2949 51.5416 29.3554 51.3313C29.4394 51.1009 29.5289 50.8731 29.6075 50.6426C29.619 50.6102 29.6172 50.5746 29.6025 50.5436C29.5877 50.5126 29.5613 50.4887 29.5289 50.4772C29.4965 50.4657 29.4609 50.4675 29.4299 50.4823C29.3989 50.497 29.375 50.5235 29.3635 50.5558Z" fill="#263238"/>
<path d="M16.8019 45.8492C16.8426 45.8953 34.744 45.4506 34.9039 45.2608C35.1236 44.9897 30.2618 26.6138 28.963 23.886C28.4207 22.7255 25.5302 22.4381 24.3535 23.4603C21.3708 26.0227 19.0145 34.6209 18.483 37.2077C17.5909 41.481 16.6473 45.6974 16.8019 45.8492Z" fill="#FFD427"/>
<path d="M26.3652 29.2602C26.4436 29.4443 26.4948 29.6388 26.5171 29.8377C26.2772 29.5206 26.1231 29.1471 26.0697 28.7531C26.1917 28.9073 26.2913 29.078 26.3652 29.2602ZM27.7942 36.207C27.818 36.4056 27.8691 36.6 27.9461 36.7846C28.0189 36.9707 28.1185 37.1451 28.2416 37.3025C28.218 37.1047 28.1669 36.9113 28.0898 36.7277C28.0158 36.5413 27.9163 36.3661 27.7942 36.207ZM29.4699 44.3253C29.4935 44.5231 29.5446 44.7165 29.6218 44.9001C29.6946 45.0871 29.7942 45.2624 29.9173 45.4208C29.865 45.0265 29.7108 44.6527 29.4699 44.3361V44.3253ZM21.6445 34.1734C21.6655 34.3725 21.7167 34.5673 21.7964 34.751C21.8683 34.9369 21.9669 35.1114 22.0892 35.2689C22.0362 34.8752 21.8831 34.5018 21.6445 34.1843V34.1734ZM18.8164 39.2982C18.8694 39.6918 19.0225 40.0652 19.2611 40.3828C19.2397 40.184 19.1895 39.9895 19.112 39.8052C19.0371 39.6235 18.9377 39.4528 18.8164 39.2982ZM25.7199 42.5167C25.7729 42.9104 25.926 43.2838 26.1646 43.6013C26.1436 43.4031 26.0924 43.2092 26.0128 43.0265C25.94 42.8435 25.8414 42.6718 25.7199 42.5167ZM31.4141 33.2434C31.4367 33.4422 31.4879 33.6367 31.5659 33.8209C31.6378 34.0069 31.7365 34.1813 31.8588 34.3388C31.8374 34.1401 31.7871 33.9455 31.7096 33.7613C31.6391 33.5763 31.5433 33.402 31.4249 33.2434H31.4141ZM23.7839 31.9662C23.9819 31.9439 24.1755 31.8928 24.3587 31.8144C24.5456 31.7426 24.7209 31.6439 24.8793 31.5216C24.6802 31.5426 24.4855 31.5938 24.3018 31.6734C24.1196 31.7462 23.9489 31.8449 23.7947 31.9662H23.7839ZM21.8858 38.4223C22.0845 38.3991 22.279 38.348 22.4634 38.2705C22.6497 38.1965 22.825 38.0971 22.984 37.9749C22.59 38.0284 22.2165 38.1825 21.8994 38.4223H21.8858ZM22.4281 45.7434H22.7454L22.8674 45.6973C23.0538 45.6233 23.229 45.5239 23.388 45.4018C23.047 45.4493 22.7198 45.5685 22.4281 45.7516V45.7434ZM29.3642 39.8839C29.7584 39.8315 30.1323 39.6773 30.4488 39.4365C30.0545 39.4888 29.6807 39.643 29.3642 39.8839ZM24.0306 26.3263C24.4249 26.274 24.7987 26.1198 25.1152 25.8789C24.721 25.9313 24.3472 26.0855 24.0306 26.3263ZM22.3902 27.2048C22.2668 27.362 22.1655 27.5354 22.0892 27.72C22.0087 27.9028 21.9557 28.0965 21.9319 28.2949C22.0572 28.139 22.1587 27.9654 22.2329 27.7797C22.3143 27.5976 22.37 27.405 22.3983 27.2075L22.3902 27.2048ZM19.6353 35.437C19.51 35.5928 19.4085 35.7665 19.3343 35.9522C19.2542 36.1353 19.2003 36.3288 19.1743 36.527C19.2985 36.3704 19.3998 36.1969 19.4753 36.0118C19.5574 35.8298 19.614 35.6372 19.6434 35.4397L19.6353 35.437ZM19.5133 42.9506C19.3905 43.1081 19.2892 43.2814 19.2123 43.4658C19.1337 43.6492 19.0807 43.8427 19.055 44.0406C19.1803 43.8847 19.2818 43.7111 19.356 43.5254C19.4378 43.3434 19.4935 43.1508 19.5214 42.9533L19.5133 42.9506ZM28.4911 32.2916C28.3682 32.4497 28.2679 32.624 28.1928 32.8095C28.1114 32.9922 28.0575 33.1859 28.0328 33.3844C28.157 33.2277 28.2583 33.0543 28.3338 32.8692C28.4139 32.6853 28.4669 32.4907 28.4911 32.2916ZM25.5979 38.924C25.3531 39.2393 25.1951 39.6132 25.1396 40.0086C25.2619 39.8506 25.363 39.6774 25.4406 39.4934C25.5188 39.3116 25.5717 39.1201 25.5979 38.924ZM32.5448 41.9798C32.4195 42.1357 32.318 42.3093 32.2438 42.495C32.1637 42.6782 32.1098 42.8717 32.0838 43.0699C32.2091 42.914 32.3106 42.7404 32.3848 42.5547C32.4644 42.3714 32.5182 42.1779 32.5448 41.9798ZM28.4124 26.5242C28.289 26.6809 28.1885 26.8544 28.1142 27.0394C28.0328 27.2221 27.9789 27.4158 27.9542 27.6143C28.199 27.299 28.357 26.925 28.4124 26.5297V26.5242ZM30.5816 30.5427C30.4245 30.4193 30.2511 30.3181 30.0665 30.2417C29.8836 30.1612 29.6899 30.1082 29.4916 30.0845C29.6479 30.2092 29.8214 30.3106 30.0068 30.3854C30.1935 30.4601 30.3897 30.5085 30.5898 30.5291L30.5816 30.5427ZM22.8837 41.9717C22.727 41.8475 22.5536 41.7462 22.3685 41.6707C22.1852 41.5912 21.9917 41.5373 21.7936 41.5108C22.1096 41.7549 22.4831 41.9137 22.8782 41.9717H22.8837ZM32.5773 37.3432C32.262 37.0983 31.8881 36.9403 31.4927 36.8849C31.6507 37.0071 31.8239 37.1083 32.0079 37.1859C32.1896 37.264 32.3812 37.317 32.5773 37.3432ZM20.3511 30.7244C20.4865 30.8196 20.632 30.8996 20.785 30.963C20.9681 31.0431 21.1616 31.097 21.3598 31.123C21.2035 30.9982 21.03 30.8969 20.8446 30.822C20.6916 30.7559 20.5315 30.7077 20.3674 30.6783C20.3608 30.6932 20.3553 30.7086 20.3511 30.7244ZM28.426 42.213C28.2694 42.0889 28.0959 41.9875 27.9108 41.9121C27.7279 41.8314 27.5343 41.7775 27.336 41.7521C27.4918 41.8774 27.6655 41.9788 27.8512 42.0531C28.0343 42.1332 28.2278 42.187 28.426 42.213ZM26.0561 34.7781C25.8995 34.6539 25.726 34.5526 25.5409 34.4771C25.358 34.3964 25.1644 34.3425 24.9661 34.3171C25.122 34.4424 25.2956 34.5439 25.4813 34.6181C25.6644 34.6982 25.8579 34.7521 26.0561 34.7781Z" fill="white"/>
<path d="M28.0502 26.4998C27.0252 26.6625 25.2031 24.8485 24.6147 23.5524C24.574 23.4629 24.7747 22.5708 24.9645 21.4781C25.0783 20.8138 25.1895 20.0708 25.2356 19.3848C25.2356 19.2438 25.7047 19.5394 25.7047 19.5394L26.5724 19.8105L29.4493 20.7433C29.1404 21.5811 28.9346 22.4534 28.8365 23.3409C28.8288 23.4311 28.8288 23.5218 28.8365 23.612C28.8365 23.6256 28.8365 23.6419 28.8365 23.6608C28.8989 24.2221 29.0399 26.3425 28.0502 26.4998Z" fill="#774442"/>
<path d="M28.8504 23.6334C28.8504 23.647 28.8504 23.6632 28.8504 23.6822C28.7033 23.6941 28.5555 23.6941 28.4084 23.6822C25.5207 23.4111 25.4258 19.6963 25.4258 19.6963L26.5646 19.8319L29.4415 20.7646C29.1326 21.6024 28.9268 22.4747 28.8287 23.3622C28.8283 23.4531 28.8355 23.5438 28.8504 23.6334Z" fill="#263238"/>
<path d="M24.8642 14.7695C24.3626 16.288 25.0676 20.7159 26.1305 21.7246C27.6734 23.1861 30.2466 23.3813 31.502 21.5158C32.7168 19.7099 31.6972 13.9534 30.5042 13.0315C28.7498 11.6838 25.6045 12.5325 24.8642 14.7695Z" fill="#774442"/>
<path d="M29.1409 17.7334C29.1409 17.7334 29.1192 17.7524 29.1219 17.7632C29.1788 18.0615 29.1924 18.4113 28.9375 18.5496C28.9375 18.5496 28.9375 18.5713 28.9375 18.5658C29.2656 18.4628 29.2412 18.0073 29.1409 17.7334Z" fill="#263238"/>
<path d="M28.8202 17.4626C28.3349 17.5005 28.446 18.4686 28.8961 18.436C29.3463 18.4035 29.2324 17.4328 28.8202 17.4626Z" fill="#263238"/>
<path d="M30.8394 17.4834C30.8394 17.4834 30.8638 17.4834 30.8638 17.5051C30.8909 17.8061 30.9696 18.1477 31.2516 18.2155V18.2345C30.9153 18.2236 30.815 17.7708 30.8394 17.4834Z" fill="#263238"/>
<path d="M31.0674 17.139C31.5474 17.0468 31.6965 18.0094 31.2518 18.0962C30.8071 18.183 30.6689 17.2149 31.0674 17.139Z" fill="#263238"/>
<path d="M28.3966 17.0633C28.519 17.0112 28.6385 16.9523 28.7545 16.8871C28.89 16.8442 29.0073 16.7573 29.088 16.6403C29.1068 16.5989 29.1112 16.5523 29.1004 16.508C29.0895 16.4638 29.0642 16.4244 29.0283 16.3963C28.95 16.3498 28.8605 16.3252 28.7694 16.3252C28.6782 16.3252 28.5888 16.3498 28.5104 16.3963C28.3374 16.4663 28.197 16.599 28.1173 16.7678C28.0993 16.8075 28.0935 16.8517 28.1007 16.8947C28.1079 16.9377 28.1277 16.9776 28.1577 17.0094C28.1876 17.0411 28.2263 17.0631 28.2689 17.0727C28.3114 17.0824 28.3559 17.0791 28.3966 17.0633Z" fill="#263238"/>
<path d="M31.3872 16.608C31.2536 16.6017 31.1205 16.5873 30.9886 16.5646C30.8463 16.5658 30.7078 16.519 30.5954 16.4317C30.5647 16.3977 30.5463 16.3542 30.5434 16.3085C30.5404 16.2627 30.5531 16.2172 30.5792 16.1795C30.6403 16.1123 30.7183 16.0628 30.8051 16.0361C30.892 16.0094 30.9844 16.0065 31.0727 16.0277C31.2589 16.0413 31.4331 16.1246 31.5607 16.2609C31.5839 16.2934 31.5978 16.3315 31.6009 16.3713C31.604 16.4111 31.5962 16.4509 31.5784 16.4866C31.5605 16.5223 31.5333 16.5524 31.4996 16.5738C31.4659 16.5952 31.4271 16.607 31.3872 16.608Z" fill="#263238"/>
<path d="M29.0527 20.4498C29.134 20.5121 29.2154 20.5989 29.3238 20.5962C29.4344 20.5813 29.5406 20.5435 29.6356 20.485C29.6356 20.485 29.6573 20.485 29.6519 20.4986C29.6156 20.5626 29.5627 20.6155 29.4987 20.6518C29.4347 20.6881 29.3621 20.7064 29.2886 20.7046C29.2247 20.6964 29.1648 20.6693 29.1165 20.6268C29.0682 20.5843 29.0337 20.5283 29.0174 20.466C29.0153 20.4613 29.015 20.456 29.0168 20.4512C29.0186 20.4463 29.0222 20.4424 29.0269 20.4403C29.0316 20.4381 29.0369 20.4379 29.0417 20.4397C29.0466 20.4415 29.0505 20.4451 29.0527 20.4498Z" fill="#263238"/>
<path d="M29.2702 19.5151C29.3595 19.6252 29.4707 19.7155 29.5967 19.7803C29.7227 19.8452 29.8608 19.8832 30.0023 19.892C30.1257 19.9016 30.2499 19.8934 30.3711 19.8676C30.3951 19.8651 30.4188 19.8596 30.4416 19.8514L30.5066 19.8324C30.5221 19.8276 30.5356 19.8178 30.5449 19.8046C30.5542 19.7913 30.5589 19.7754 30.5581 19.7592C30.5594 19.7493 30.5594 19.7392 30.5581 19.7293V19.7022C30.5392 19.4718 30.4768 19.122 30.4768 19.122C30.5663 19.1545 31.0191 19.3009 30.9974 19.1789C30.8524 18.1408 30.6007 17.1204 30.2463 16.1339C30.2445 16.1285 30.2411 16.1237 30.2365 16.1204C30.2318 16.117 30.2263 16.1152 30.2206 16.1152C30.2149 16.1152 30.2093 16.117 30.2047 16.1204C30.2 16.1237 30.1966 16.1285 30.1948 16.1339C30.3222 17.0938 30.6205 18.0319 30.7669 18.9864C30.6055 18.9338 30.4376 18.9037 30.268 18.8969C30.2355 18.9105 30.4009 19.5694 30.4009 19.6724C30.2155 19.712 30.024 19.7142 29.8378 19.6788C29.6515 19.6434 29.4742 19.5712 29.3163 19.4663C29.2702 19.4718 29.2485 19.4934 29.2702 19.5151Z" fill="#263238"/>
<path d="M30.2203 19.7644C30.1127 19.9439 29.9604 20.0924 29.7783 20.1956C29.6785 20.2509 29.5632 20.2718 29.4503 20.2552C29.2035 20.22 29.1791 20.0003 29.1954 19.8078C29.2071 19.7048 29.2317 19.6037 29.2686 19.5068C29.5502 19.6921 29.8837 19.7824 30.2203 19.7644Z" fill="#263238"/>
<path d="M29.7783 20.1952C29.6785 20.2505 29.5632 20.2715 29.4503 20.2548C29.2035 20.2196 29.1791 19.9999 29.1954 19.8074C29.3219 19.7974 29.4482 19.8302 29.5539 19.9005C29.6596 19.9708 29.7386 20.0746 29.7783 20.1952Z" fill="#FF98B9"/>
<path d="M31.3694 14.9786C29.9513 16.0388 27.8933 14.6099 27.8933 14.6099C27.782 14.9338 27.569 15.213 27.2861 15.406C27.0032 15.599 26.6655 15.6954 26.3233 15.6809C26.3233 15.6809 26.1389 18.162 25.4882 18.1864C24.4958 18.2216 24.0484 14.8648 24.3358 14.1896C24.6232 13.5144 25.4556 13.3111 25.4556 13.3111C25.5313 12.9057 25.7581 12.5442 26.0901 12.2997C26.7436 11.7574 29.1135 12.3539 29.1135 12.3539C29.2337 12.0361 29.4269 11.7509 29.6775 11.5215C29.7378 11.4646 29.8089 11.4204 29.8867 11.3917C29.9645 11.363 30.0472 11.3502 30.13 11.3543C30.2128 11.3584 30.294 11.3791 30.3686 11.4153C30.4432 11.4515 30.5097 11.5023 30.5641 11.5648C30.448 11.7524 30.3757 11.9637 30.3526 12.1831C30.2659 12.9125 30.8543 12.8881 30.8217 12.2319C30.8202 11.9855 30.7286 11.7483 30.5641 11.5648C30.8353 11.1256 31.3071 10.9656 31.6081 11.1825C32.1476 11.5784 32.549 14.0974 31.3694 14.9786Z" fill="#263238"/>
<path d="M25.7242 18.3872C25.7242 18.3872 24.7318 16.9582 24.0837 17.3026C23.4357 17.6469 24.1786 19.7267 24.9378 20.0141C25.0326 20.0572 25.1351 20.0807 25.2392 20.0832C25.3433 20.0857 25.4468 20.0672 25.5436 20.0287C25.6403 19.9902 25.7283 19.9326 25.8022 19.8592C25.8761 19.7859 25.9344 19.6984 25.9736 19.6019L25.7242 18.3872Z" fill="#774442"/>
<path d="M24.3109 17.8984C24.2974 17.8984 24.2974 17.9147 24.3109 17.9201C24.8533 18.1371 25.1244 18.6305 25.3196 19.143C25.2882 19.09 25.2457 19.0444 25.1951 19.0092C25.1444 18.974 25.0869 18.9501 25.0262 18.939C24.9656 18.928 24.9033 18.93 24.8435 18.9451C24.7837 18.9602 24.7279 18.9879 24.6797 19.0264C24.6662 19.0264 24.6797 19.0563 24.696 19.0535C24.7895 19.024 24.8898 19.0243 24.9831 19.0544C25.0764 19.0846 25.158 19.143 25.2166 19.2217C25.3151 19.353 25.3988 19.4949 25.4661 19.6447C25.4905 19.6935 25.5772 19.6691 25.561 19.6121C25.5664 18.9207 25.0403 17.9689 24.3109 17.8984Z" fill="#263238"/>
<path d="M28.8961 59.6614L21.9492 52.4135L34.4927 46.8848L41.4395 54.1326L28.8961 59.6614Z" fill="#EBEBEB"/>
<path d="M29.3715 60.1575L22.4219 52.9096L34.9653 47.3809L41.9149 54.6287L29.3715 60.1575Z" fill="#C7C7C7"/>
<path d="M35.7016 48.1506C35.5979 48.2031 35.485 48.2347 35.3691 48.2436C35.2533 48.2524 35.1368 48.2383 35.0264 48.2021C34.9234 48.1696 34.9966 48.0638 35.0969 48.0991C35.2411 48.1434 35.3963 48.1367 35.5362 48.0801L35.604 48.0475C35.6786 48.0117 35.7429 47.9576 35.791 47.8903C35.8099 47.8594 35.8184 47.8233 35.8155 47.7872C35.8155 47.7872 35.8155 47.7872 35.8155 47.7737V47.7574C35.803 47.7375 35.7851 47.7215 35.7639 47.7113C35.7227 47.6904 35.6773 47.6793 35.6311 47.6788C35.5743 47.679 35.5179 47.6863 35.463 47.7005C35.4358 47.7005 35.4087 47.7005 35.3789 47.7195H35.3626H35.3355H35.3192L35.2216 47.6164C35.3084 47.5802 35.3996 47.5556 35.4928 47.5432C35.5699 47.5282 35.6494 47.5301 35.7257 47.5488C35.802 47.5676 35.8733 47.6026 35.9348 47.6517C35.9739 47.6925 35.9957 47.7469 35.9957 47.8035C35.9957 47.8601 35.9739 47.9145 35.9348 47.9554C35.8764 48.0406 35.7957 48.1081 35.7016 48.1506Z" fill="#A6A6A6"/>
<path d="M36.2472 48.7175C36.0373 48.8244 35.7936 48.8439 35.5694 48.7718C35.4663 48.7365 35.5395 48.6308 35.6399 48.666C35.785 48.7104 35.941 48.7037 36.0818 48.647C36.1048 48.6389 36.1267 48.628 36.1469 48.6145C36.2233 48.5803 36.2889 48.5259 36.3367 48.4572C36.3556 48.4263 36.3641 48.3903 36.3611 48.3542C36.3611 48.3542 36.3611 48.3542 36.3611 48.3406C36.3479 48.3197 36.3291 48.3028 36.3069 48.2918C36.2659 48.2707 36.2201 48.2605 36.174 48.262C36.1183 48.2598 36.0625 48.2662 36.0086 48.281C35.9815 48.281 35.9544 48.2945 35.9246 48.3H35.9083H35.8812C35.8812 48.3 35.8812 48.3 35.8649 48.3L35.7646 48.1969C35.8514 48.1607 35.9425 48.1361 36.0357 48.1237C36.1133 48.1083 36.1933 48.11 36.2701 48.1287C36.3469 48.1475 36.4187 48.1828 36.4804 48.2322C36.5189 48.2734 36.5404 48.3276 36.5404 48.384C36.5404 48.4404 36.5189 48.4947 36.4804 48.5359C36.4196 48.6154 36.3393 48.678 36.2472 48.7175Z" fill="#A6A6A6"/>
<path d="M36.7914 49.2874C36.5817 49.3921 36.3394 49.4106 36.1162 49.3389C36.0132 49.3037 36.0864 49.2006 36.1867 49.2332C36.3309 49.2771 36.4855 49.2714 36.626 49.2169L36.6938 49.1844C36.7691 49.1484 36.8337 49.0933 36.8809 49.0244C36.9019 48.9955 36.9107 48.9594 36.9053 48.9241L36.8917 48.9078C36.881 48.8865 36.8626 48.8701 36.8402 48.8617C36.7994 48.8397 36.7537 48.8285 36.7074 48.8292C36.6516 48.8269 36.5958 48.8333 36.542 48.8482L36.4579 48.8698H36.4389H36.4145H36.3955L36.2979 48.7668C36.3847 48.7306 36.4759 48.706 36.5691 48.6936C36.6462 48.6786 36.7257 48.6805 36.802 48.6992C36.8783 48.7179 36.9496 48.753 37.011 48.8021C37.051 48.8431 37.0733 48.898 37.0733 48.9553C37.0733 49.0125 37.051 49.0675 37.011 49.1085C36.9527 49.1844 36.8775 49.2456 36.7914 49.2874Z" fill="#A6A6A6"/>
<path d="M37.3371 49.8534C37.1268 49.9594 36.8831 49.9779 36.6592 49.9049C36.5562 49.8724 36.6294 49.7666 36.7297 49.8019C36.8749 49.8462 37.0309 49.8395 37.1717 49.7829L37.2395 49.7503C37.3148 49.7144 37.3794 49.6592 37.4266 49.5904C37.445 49.5603 37.4536 49.5252 37.451 49.49C37.4503 49.4855 37.4503 49.481 37.451 49.4765V49.4602C37.4386 49.4402 37.4207 49.4242 37.3995 49.4141C37.3573 49.3932 37.311 49.3821 37.2639 49.3816C37.2081 49.3818 37.1525 49.3891 37.0985 49.4033C37.07 49.4074 37.0419 49.4137 37.0144 49.4223H36.9982C36.9893 49.4195 36.9799 49.4195 36.971 49.4223C36.971 49.4223 36.9575 49.4223 36.9548 49.4223L36.8572 49.3192C36.9436 49.2815 37.0348 49.2559 37.1283 49.2433C37.206 49.2282 37.2861 49.2304 37.363 49.2496C37.4398 49.2688 37.5115 49.3046 37.573 49.3545C37.6115 49.3957 37.6329 49.4499 37.6329 49.5063C37.6329 49.5627 37.6115 49.617 37.573 49.6582C37.5122 49.7422 37.431 49.8094 37.3371 49.8534Z" fill="#A6A6A6"/>
<path d="M37.8773 50.4205C37.7737 50.4731 37.6607 50.5047 37.5449 50.5135C37.429 50.5224 37.3126 50.5083 37.2022 50.4721C37.0991 50.4395 37.1724 50.3338 37.2727 50.369C37.4169 50.4134 37.5721 50.4067 37.7119 50.35L37.7797 50.3175C37.8544 50.2817 37.9187 50.2276 37.9668 50.1602C37.988 50.1304 37.9968 50.0934 37.9912 50.0572C37.9912 50.0572 37.9912 50.0572 37.9912 50.0436C37.9912 50.0301 37.9912 50.0274 37.9912 50.0274C37.9771 50.0079 37.9585 49.9921 37.937 49.9813C37.8959 49.96 37.8504 49.9488 37.8041 49.9487C37.7483 49.9488 37.6927 49.956 37.6387 49.9704C37.6101 49.9739 37.582 49.9802 37.5547 49.9894H37.5384C37.5294 49.9878 37.5203 49.9878 37.5113 49.9894C37.5113 49.9894 37.4977 49.9894 37.495 49.9894L37.3947 49.8864C37.4815 49.8501 37.5726 49.8255 37.6658 49.8132C37.7434 49.7977 37.8234 49.7994 37.9002 49.8182C37.977 49.8369 38.0488 49.8722 38.1105 49.9216C38.1496 49.9625 38.1715 50.0169 38.1715 50.0735C38.1715 50.13 38.1496 50.1844 38.1105 50.2253C38.053 50.3113 37.9721 50.379 37.8773 50.4205Z" fill="#A6A6A6"/>
<path d="M38.4223 51.0006C38.3188 51.0536 38.2059 51.0857 38.0901 51.095C37.9742 51.1043 37.8577 51.0906 37.7471 51.0549C37.6413 51.0196 37.7146 50.9139 37.8149 50.9491C37.9601 50.9935 38.116 50.9868 38.2569 50.9301C38.2805 50.9215 38.3032 50.9106 38.3246 50.8976C38.3998 50.8626 38.4644 50.8083 38.5117 50.7403C38.5306 50.7094 38.5391 50.6733 38.5361 50.6373C38.5361 50.6373 38.5361 50.6373 38.5361 50.6237V50.6102C38.5246 50.5888 38.5066 50.5717 38.4846 50.5614C38.4428 50.5398 38.3961 50.5295 38.3491 50.5315C38.2933 50.5296 38.2375 50.536 38.1836 50.5505C38.1565 50.5505 38.1294 50.5641 38.0996 50.5695H38.0833H38.0562C38.0562 50.5695 38.0427 50.5695 38.0399 50.5695L37.9423 50.4665C38.0289 50.4297 38.1201 50.405 38.2135 50.3932C38.291 50.3778 38.371 50.3795 38.4478 50.3983C38.5246 50.417 38.5964 50.4523 38.6582 50.5017C38.6967 50.5429 38.7181 50.5972 38.7181 50.6535C38.7181 50.7099 38.6967 50.7642 38.6582 50.8054C38.5983 50.8903 38.5169 50.9577 38.4223 51.0006Z" fill="#A6A6A6"/>
<path d="M38.966 51.5569C38.7553 51.6614 38.5122 51.6799 38.2881 51.6084C38.1851 51.5732 38.2583 51.4701 38.3586 51.5027C38.5027 51.5466 38.6574 51.5409 38.7979 51.4864L38.8657 51.4538C38.941 51.4179 39.0056 51.3627 39.0528 51.2939C39.0733 51.2647 39.0829 51.2291 39.0799 51.1935V51.1773C39.0672 51.1565 39.0482 51.1404 39.0257 51.1312C38.9849 51.1092 38.9391 51.098 38.8928 51.0986C38.837 51.0964 38.7812 51.1028 38.7274 51.1176L38.6433 51.1393H38.6271H38.5999H38.5837L38.4833 51.0363C38.5701 51 38.6613 50.9754 38.7545 50.9631C38.832 50.9476 38.912 50.9493 38.9888 50.9681C39.0657 50.9868 39.1375 51.0221 39.1992 51.0715C39.2385 51.1129 39.2604 51.1677 39.2604 51.2247C39.2604 51.2818 39.2385 51.3366 39.1992 51.3779C39.1374 51.4559 39.0573 51.5173 38.966 51.5569Z" fill="#A6A6A6"/>
<path d="M39.5108 52.1235C39.4072 52.176 39.2942 52.2076 39.1783 52.2164C39.0625 52.2253 38.946 52.2112 38.8356 52.175C38.7326 52.1425 38.8031 52.0367 38.9061 52.072C39.0504 52.1163 39.2055 52.1096 39.3454 52.053L39.4132 52.0204C39.4885 51.9845 39.5531 51.9293 39.6003 51.8605C39.6187 51.8304 39.6273 51.7953 39.6247 51.7601V51.7466V51.7303C39.613 51.7097 39.5949 51.6935 39.5732 51.6842C39.532 51.6633 39.4865 51.6522 39.4403 51.6517C39.3836 51.6519 39.3271 51.6592 39.2722 51.6734C39.2437 51.6774 39.2156 51.6838 39.1881 51.6923H39.1719C39.163 51.6896 39.1536 51.6896 39.1447 51.6923C39.1447 51.6923 39.1447 51.6923 39.1285 51.6923L39.0309 51.5893C39.1171 51.551 39.2084 51.5254 39.302 51.5134C39.3793 51.4987 39.4589 51.5011 39.5352 51.5203C39.6116 51.5395 39.6828 51.5751 39.744 51.6246C39.7831 51.6654 39.8049 51.7198 39.8049 51.7764C39.8049 51.833 39.7831 51.8874 39.744 51.9282C39.684 52.012 39.6038 52.0791 39.5108 52.1235Z" fill="#A6A6A6"/>
<path d="M40.0558 52.6901C39.8455 52.796 39.6019 52.8146 39.378 52.7416C39.2749 52.7091 39.3481 52.6033 39.4485 52.6386C39.5927 52.6829 39.7478 52.6762 39.8877 52.6196C39.9113 52.6109 39.934 52.6 39.9555 52.587C40.0306 52.552 40.0951 52.4977 40.1426 52.4298C40.1634 52.3996 40.173 52.3632 40.1697 52.3267C40.17 52.3222 40.17 52.3177 40.1697 52.3132V52.2969C40.1556 52.2775 40.137 52.2617 40.1155 52.2508C40.0744 52.2295 40.0289 52.2184 39.9826 52.2183C39.9268 52.2183 39.8712 52.2256 39.8172 52.24C39.7888 52.2441 39.7606 52.2504 39.7332 52.2589H39.7169C39.7079 52.2574 39.6988 52.2574 39.6898 52.2589C39.6898 52.2589 39.6762 52.2589 39.6735 52.2589L39.5732 52.1559C39.66 52.1197 39.7511 52.0951 39.8443 52.0827C39.9219 52.0673 40.0019 52.069 40.0787 52.0877C40.1555 52.1064 40.2273 52.1418 40.289 52.1912C40.3281 52.232 40.35 52.2864 40.35 52.343C40.35 52.3996 40.3281 52.454 40.289 52.4948C40.231 52.5803 40.1502 52.6479 40.0558 52.6901Z" fill="#A6A6A6"/>
<path d="M40.5961 53.2571C40.4926 53.3101 40.3798 53.3422 40.2639 53.3515C40.1481 53.3608 40.0315 53.3472 39.9209 53.3114C39.8179 53.2761 39.8911 53.1704 39.9914 53.2056C40.1357 53.25 40.2908 53.2433 40.4307 53.1866C40.4543 53.178 40.477 53.1671 40.4985 53.1541C40.5737 53.1191 40.6382 53.0649 40.6856 52.9968C40.7044 52.9659 40.713 52.9299 40.71 52.8938V52.8802C40.6984 52.8589 40.6804 52.8418 40.6585 52.8314C40.6174 52.8104 40.5717 52.8001 40.5256 52.8016C40.4698 52.7994 40.414 52.8058 40.3602 52.8206C40.3318 52.8253 40.3038 52.8317 40.2761 52.8396H40.2572H40.23H40.2138L40.1162 52.7365C40.2029 52.7003 40.2941 52.6757 40.3873 52.6633C40.4644 52.6483 40.5439 52.6502 40.6202 52.6689C40.6965 52.6877 40.7679 52.7228 40.8293 52.7718C40.869 52.8123 40.8913 52.8668 40.8913 52.9236C40.8913 52.9804 40.869 53.0349 40.8293 53.0755C40.7691 53.1557 40.6886 53.2184 40.5961 53.2571Z" fill="#A6A6A6"/>
<path d="M41.1418 53.8259C40.9311 53.9305 40.688 53.949 40.4639 53.8775C40.3609 53.8422 40.4341 53.7392 40.5344 53.7717C40.6794 53.8156 40.835 53.8099 40.9764 53.7554L41.0415 53.7229C41.118 53.6877 41.1836 53.6324 41.2313 53.5629C41.2497 53.5329 41.2583 53.4978 41.2557 53.4626V53.4463C41.243 53.4256 41.224 53.4094 41.2014 53.4002C41.1607 53.3782 41.1149 53.367 41.0686 53.3677C41.0128 53.3655 40.957 53.3719 40.9032 53.3867L40.8191 53.4084H40.8028H40.7757H40.7595L40.6591 53.3053C40.7459 53.2691 40.8371 53.2445 40.9303 53.2321C41.0078 53.2167 41.0878 53.2184 41.1646 53.2371C41.2414 53.2559 41.3132 53.2912 41.375 53.3406C41.4135 53.3818 41.4349 53.436 41.4349 53.4924C41.4349 53.5488 41.4135 53.6031 41.375 53.6443C41.3131 53.7229 41.2331 53.7852 41.1418 53.8259Z" fill="#A6A6A6"/>
<path d="M41.6859 54.3933C41.5823 54.4459 41.4693 54.4775 41.3535 54.4863C41.2376 54.4951 41.1212 54.4811 41.0108 54.4449C40.9077 54.4123 40.981 54.3066 41.0813 54.3418C41.2255 54.3862 41.3807 54.3795 41.5205 54.3228L41.5883 54.2903C41.6637 54.2544 41.7282 54.1992 41.7754 54.1303C41.7965 54.1014 41.8052 54.0653 41.7998 54.03V54.0137C41.7864 53.9936 41.7676 53.9777 41.7456 53.9676C41.7044 53.9467 41.6589 53.9356 41.6127 53.9351C41.5569 53.9351 41.5013 53.9424 41.4473 53.9568C41.4187 53.9602 41.3906 53.9666 41.3633 53.9758H41.347H41.3199H41.3009L41.2033 53.8754C41.2895 53.8371 41.3809 53.8115 41.4744 53.7995C41.5518 53.7849 41.6314 53.7872 41.7077 53.8064C41.784 53.8256 41.8552 53.8612 41.9164 53.9107C41.9562 53.9512 41.9784 54.0058 41.9784 54.0625C41.9784 54.1193 41.9562 54.1738 41.9164 54.2144C41.8558 54.2924 41.7766 54.354 41.6859 54.3933Z" fill="#A6A6A6"/>
<path d="M22.3133 25.2928C18.4439 30.5776 16.0605 37.7414 16.253 39.3412C16.4645 41.1145 18.669 47.172 21.1066 49.9161C21.7493 50.6373 27.1181 45.2089 26.4646 44.409C25.201 42.8689 22.7634 38.3894 22.6929 37.3889C22.6278 36.467 24.2384 30.6101 24.7455 27.2804C25.2336 24.0727 24.1218 22.8362 22.3133 25.2928Z" fill="#774442"/>
<path d="M26.3101 44.2217C26.3101 44.2217 29.0216 45.5774 30.7624 46.5346C31.7304 47.0769 33.3085 48.1452 33.8399 48.8665C34.6344 49.9511 37.2619 54.9647 36.0607 55.6263C34.9761 56.2282 33.2597 51.6295 33.2597 51.6295C33.2597 51.6295 35.3963 56.1171 33.9511 56.5997C32.5059 57.0824 31.2613 51.6322 31.2613 51.6322C31.2613 51.6322 33.3546 56.2933 31.7873 56.5536C30.6024 56.7516 29.1978 51.8763 29.1978 51.8763C29.1978 51.8763 30.9685 55.8947 29.7591 56.1496C28.4223 56.4208 26.8442 52.0146 26.8442 52.0146C23.6582 52.1474 22.0883 50.9083 21.0742 49.8942C20.8328 49.6447 26.3101 44.2217 26.3101 44.2217Z" fill="#774442"/>
<path d="M32.6157 50.033C32.8868 50.5509 33.158 51.0742 33.3857 51.6138C33.6135 52.1534 33.8141 52.6984 33.985 53.2624C34.2261 53.9873 34.3808 54.7382 34.4459 55.4994C34.2263 54.1436 33.4589 52.2103 33.2339 51.6707C33.0088 51.1311 32.8163 50.5861 32.594 50.0438C32.5912 50.0276 32.6157 50.0221 32.6157 50.033Z" fill="#263238"/>
<path d="M30.6525 50.8025C30.9698 51.4804 31.3087 52.1393 31.5934 52.8307C31.8781 53.5221 32.0896 54.1865 32.3255 54.8996C32.3445 54.9538 32.3092 54.9457 32.2903 54.8996C32.0191 54.2054 31.7263 53.5845 31.4524 52.8904C31.1785 52.1962 30.9318 51.4966 30.639 50.8188C30.6308 50.7998 30.6471 50.7944 30.6525 50.8025Z" fill="#263238"/>
<path d="M28.849 51.1612C29.3589 52.1874 29.7623 53.2632 30.0529 54.3716C30.0665 54.4258 30.0231 54.4096 30.0041 54.3553C29.6245 53.2707 29.3344 52.4356 28.8138 51.1802C28.8057 51.1612 28.8382 51.1422 28.849 51.1612Z" fill="#263238"/>
<path d="M18.5781 30.7243L24.2994 32.1071C24.2994 32.1071 25.1779 28.0887 24.9963 25.6158C24.8146 23.1429 23.3694 23.555 21.9133 25.4748C20.4572 27.3945 18.5781 30.7243 18.5781 30.7243Z" fill="#263238"/>
</svg>
